<svg width="346" height="239" viewBox="0 0 346 239" fill="none" xmlns="http://www.w3.org/2000/svg">
<g clip-path="url(#clip0_294_1920)">
<g style="mix-blend-mode:multiply" opacity="0.3">
<path d="M345.93 172.96C345.93 196.07 341.4 218.12 333.18 238.27H12.75C4.53 218.12 0 196.07 0 172.96C0 77.43 77.44 0 172.97 0C268.5 0 345.93 77.43 345.93 172.96Z" fill="#CCCCCC"/>
</g>
<path d="M54.8001 238.271C45.9801 238.271 38.8301 231.121 38.8301 222.301H307.1C307.1 231.121 299.95 238.271 291.13 238.271H54.8001Z" fill="white"/>
<path d="M291.229 53.6509V222.301H54.6992V53.6509C54.6992 51.2009 56.6892 49.2109 59.1392 49.2109H286.789C289.249 49.2109 291.229 51.2009 291.229 53.6509Z" fill="black"/>
<path d="M282.659 57.7793H63.2793V213.719H282.659V57.7793Z" fill="#FF906E"/>
<g style="mix-blend-mode:multiply" opacity="0.2">
<path d="M291.23 49.2109H84.1602V194.981H291.23V49.2109Z" fill="#FF906E"/>
</g>
<path d="M314.95 14.5195H94.9097C92.8397 14.5195 91.1697 16.1895 91.1697 18.2595V123.66L78.9297 134.8L91.1697 145.94V187.98H318.7V18.2595C318.7 16.1895 317.03 14.5195 314.96 14.5195H314.95Z" fill="white"/>
<path d="M94.9099 14.5195H314.96C317.02 14.5195 318.7 16.1995 318.7 18.2595V28.2795H91.1699V18.2595C91.1699 16.1995 92.8499 14.5195 94.9099 14.5195Z" fill="#FF906E"/>
<path d="M314.95 14.5195H94.9097C92.8397 14.5195 91.1697 16.1895 91.1697 18.2595V123.66L78.9297 134.8L91.1697 145.94V187.98H318.7V18.2595C318.7 16.1895 317.03 14.5195 314.96 14.5195H314.95Z" stroke="black" stroke-linecap="round" stroke-linejoin="round"/>
<path d="M54.8001 238.271C45.9801 238.271 38.8301 231.121 38.8301 222.301H307.1C307.1 231.121 299.95 238.271 291.13 238.271" stroke="black" stroke-linecap="round" stroke-linejoin="round"/>
<path d="M338.72 238.27H238.34" stroke="black" stroke-linecap="round" stroke-linejoin="round"/>
<path d="M7.2207 238.27H228.331" stroke="black" stroke-linecap="round" stroke-linejoin="round"/>
<path d="M101.891 21.4004C101.891 22.3704 101.101 23.1504 100.141 23.1504C99.1806 23.1504 98.3906 22.3604 98.3906 21.4004C98.3906 20.4404 99.1806 19.6504 100.141 19.6504C101.101 19.6504 101.891 20.4404 101.891 21.4004Z" fill="white"/>
<path d="M111.551 21.4004C111.551 22.3704 110.761 23.1504 109.801 23.1504C108.841 23.1504 108.051 22.3604 108.051 21.4004C108.051 20.4404 108.841 19.6504 109.801 19.6504C110.761 19.6504 111.551 20.4404 111.551 21.4004Z" fill="white"/>
<path d="M121.211 21.4004C121.211 22.3704 120.421 23.1504 119.461 23.1504C118.501 23.1504 117.711 22.3604 117.711 21.4004C117.711 20.4404 118.501 19.6504 119.461 19.6504C120.421 19.6504 121.211 20.4404 121.211 21.4004Z" fill="white"/>
<path d="M204.93 174.97V41.2695L104.17 41.2695L104.17 174.97H204.93Z" fill="#FF906E"/>
<path d="M138.78 87.5198L131.12 95.1798L123.46 87.5198C122.78 86.8398 121.68 86.8398 121 87.5198C120.32 88.1998 120.32 89.2998 121 89.9798L128.66 97.6398L121 105.3C120.32 105.98 120.32 107.08 121 107.76C121.68 108.44 122.78 108.44 123.46 107.76L131.12 100.1L138.78 107.76C139.46 108.44 140.56 108.44 141.24 107.76C141.92 107.08 141.92 105.98 141.24 105.3L133.58 97.6398L141.24 89.9798C141.92 89.2998 141.92 88.1998 141.24 87.5198C140.56 86.8398 139.46 86.8398 138.78 87.5198Z" fill="white"/>
<path d="M188.109 87.5198C187.429 86.8398 186.329 86.8398 185.649 87.5198L177.989 95.1798L170.329 87.5198C169.649 86.8398 168.549 86.8398 167.869 87.5198C167.189 88.1998 167.189 89.2998 167.869 89.9798L175.529 97.6398L167.869 105.3C167.189 105.98 167.189 107.08 167.869 107.76C168.549 108.44 169.649 108.44 170.329 107.76L177.989 100.1L185.649 107.76C186.329 108.44 187.429 108.44 188.109 107.76C188.789 107.08 188.789 105.98 188.109 105.3L180.449 97.6398L188.109 89.9798C188.789 89.2998 188.789 88.1998 188.109 87.5198Z" fill="white"/>
<path d="M140.25 136.56C140.25 135.6 141.03 134.82 141.99 134.82H167.13C168.09 134.82 168.87 135.6 168.87 136.56C168.87 137.52 168.09 138.3 167.13 138.3H141.99C141.03 138.3 140.25 137.52 140.25 136.56Z" fill="white"/>
<path d="M217.891 68.6096H227.281C229.691 68.6096 230.831 69.7496 230.831 72.1596V76.8796C230.831 79.2896 229.691 80.4296 227.281 80.4296H221.541V86.3696H217.881V68.5996L217.891 68.6096ZM226.671 77.0896C227.051 77.0896 227.181 76.9596 227.181 76.5796V72.4696C227.181 72.0896 227.051 71.9596 226.671 71.9596H221.541V77.0896H226.671Z" fill="black"/>
<path d="M242.72 82.5194H236.63L235.54 86.3794H231.68L237.08 68.6094H242.41L247.82 86.3794H243.81L242.72 82.5194ZM241.78 79.1694L239.67 71.7094L237.56 79.1694H241.77H241.78Z" fill="black"/>
<path d="M250.09 82.8291V72.1691C250.09 69.7591 251.23 68.6191 253.64 68.6191H259.76C262.17 68.6191 263.31 69.7591 263.31 72.1691V74.5091H259.65V72.4791C259.65 72.0991 259.52 71.9691 259.14 71.9691H254.24C253.86 71.9691 253.73 72.0991 253.73 72.4791V82.5291C253.73 82.9091 253.86 83.0391 254.24 83.0391H259.14C259.52 83.0391 259.65 82.9091 259.65 82.5291V79.7891H256.3V76.5891H263.31V82.8291C263.31 85.2391 262.17 86.3791 259.76 86.3791H253.64C251.23 86.3791 250.09 85.2391 250.09 82.8291Z" fill="black"/>
<path d="M267.461 68.6094H279.421V71.9594H271.121V75.6394H277.851V78.9394H271.121V83.0294H279.421V86.3794H267.461V68.6094Z" fill="black"/>
<path d="M217.891 100.4H221.701L228.431 111.85V100.4H231.981V118.17H228.431L221.451 106.32V118.17H217.901V100.4H217.891Z" fill="black"/>
<path d="M236.199 114.61V103.95C236.199 101.54 237.339 100.4 239.749 100.4H246.269C248.679 100.4 249.819 101.54 249.819 103.95V114.61C249.819 117.02 248.679 118.16 246.269 118.16H239.749C237.339 118.16 236.199 117.02 236.199 114.61ZM245.669 114.81C246.049 114.81 246.179 114.68 246.179 114.3V104.25C246.179 103.87 246.049 103.74 245.669 103.74H240.369C239.989 103.74 239.859 103.87 239.859 104.25V114.3C239.859 114.68 239.989 114.81 240.369 114.81H245.669Z" fill="black"/>
<path d="M257.201 103.7H252.381V100.4H265.681V103.7H260.861V118.17H257.201V103.7Z" fill="black"/>
<path d="M217.891 130.879H229.851V134.229H221.551V138.059H228.281V141.359H221.551V148.639H217.891V130.869V130.879Z" fill="black"/>
<path d="M232.609 145.091V134.431C232.609 132.021 233.749 130.881 236.159 130.881H242.679C245.089 130.881 246.229 132.021 246.229 134.431V145.091C246.229 147.501 245.089 148.641 242.679 148.641H236.159C233.749 148.641 232.609 147.501 232.609 145.091ZM242.079 145.291C242.459 145.291 242.589 145.161 242.589 144.781V134.731C242.589 134.351 242.459 134.221 242.079 134.221H236.779C236.399 134.221 236.269 134.351 236.269 134.731V144.781C236.269 145.161 236.399 145.291 236.779 145.291H242.079Z" fill="black"/>
<path d="M250.289 145.091V130.881H253.949V144.791C253.949 145.171 254.079 145.301 254.459 145.301H259.439C259.819 145.301 259.949 145.171 259.949 144.791V130.881H263.609V145.091C263.609 147.501 262.469 148.641 260.059 148.641H253.869C251.459 148.641 250.319 147.501 250.319 145.091H250.289Z" fill="black"/>
<path d="M268.07 130.881H271.88L278.61 142.331V130.881H282.16V148.651H278.61L271.63 136.801V148.651H268.08V130.881H268.07Z" fill="black"/>
<path d="M286.811 130.879H296.531C298.941 130.879 300.081 132.019 300.081 134.429V145.089C300.081 147.499 298.941 148.639 296.531 148.639H286.811V130.869V130.879ZM295.921 145.299C296.301 145.299 296.431 145.169 296.431 144.789V134.739C296.431 134.359 296.301 134.229 295.921 134.229H290.461V145.299H295.921Z" fill="black"/>
</g>
<defs>
<clipPath id="clip0_294_1920">
<rect width="345.93" height="238.77" fill="white"/>
</clipPath>
</defs>
</svg>
