<svg width="188" height="36" viewBox="0 0 188 36" fill="none" xmlns="http://www.w3.org/2000/svg">
<path d="M58.2846 17.5022C60.4761 15.7711 61.8827 13.1521 61.8827 10.2208C61.8827 8.70378 61.497 7.27158 60.83 6H55.3399C56.7192 6.95034 57.6267 8.48962 57.6267 10.2208C57.6267 11.4611 57.1548 12.5944 56.3925 13.4867C55.7482 14.3612 54.4869 15.5346 52.1229 16.3511C50.916 16.8508 50.916 18.4927 50.916 18.4927V29H55.1675V18.5597C56.6466 19.5055 57.6267 22.9723 57.6267 24.7748C57.6267 26.5773 56.7147 28.0452 55.3308 29H60.821C61.4925 27.7284 61.8781 26.3007 61.8781 24.7748C61.8781 21.8435 60.4716 19.2244 58.2801 17.4978L58.2846 17.5022Z" fill="#888888"/>
<path d="M53.4121 14.4333C54.9217 14.4333 54.8321 11.963 54.8321 11.963V10.0642V6H48.7559C48.4021 6.03437 48.6522 6.16325 48.6522 6.16325C49.6004 6.16325 50.3693 6.84634 50.4118 7.70127V10.0642C50.4118 11.7654 51.3034 14.4333 53.4121 14.4333Z" fill="#888888"/>
<path d="M44.4363 17.5022C46.4763 15.7711 47.7787 13.1521 47.7787 10.2208C47.7787 8.70378 47.4205 7.27158 46.8051 6H41.705C42.9863 6.95034 43.8335 8.48962 43.8335 10.2208C43.8335 11.4611 43.3952 12.5944 42.6828 13.4867C42.0843 14.3612 40.9126 15.5346 38.7208 16.3511C37.5996 16.8508 37.5996 18.4927 37.5996 18.4927V29H41.549V18.5597C42.9231 19.5055 43.8335 22.9723 43.8335 24.7748C43.8335 26.5773 42.9905 28.0452 41.6965 29H46.8009C47.4247 27.7284 47.7829 26.3007 47.7829 24.7748C47.7829 21.8435 46.4805 19.2244 44.4405 17.4978L44.4363 17.5022Z" fill="#888888"/>
<path d="M39.49 14.4333C40.8109 14.4333 40.7324 11.963 40.7324 11.963V10.0642V6H35.4158C35.1063 6.03437 35.325 6.16325 35.325 6.16325C36.1547 6.16325 36.8276 6.84634 36.8606 7.70127V10.0642C36.8606 11.7654 37.6407 14.4333 39.4859 14.4333H39.49Z" fill="#888888"/>
<path d="M5.80094 22.3237L9.31852 29H14.0997C11.8055 24.6538 8.53883 18.4594 7.99663 17.4337C8.47161 16.3947 11.2274 10.3285 13.1901 6.00442H8.54331L5.79646 12.0484V6H1.56641V28.9956H5.80542V22.3193L5.80094 22.3237Z" fill="#888888"/>
<path d="M0.161852 6H2.35V9.06667H1.55611V7.8052C1.56005 6.90043 0.892551 6.1653 0.0710087 6.1653C0.0710087 6.1653 -0.138327 6.0348 0.161852 6Z" fill="#888888"/>
<path d="M22.7148 10.2188C22.7148 11.8152 22.0009 13.2436 20.8838 14.1988C20.0565 15.0833 18.6917 16.065 16.4492 16.6885V29H20.4219V22.3224L23.7226 29H28.1992L22.74 17.9533C25.121 16.2507 26.6874 13.4205 26.6874 10.2188C26.6874 8.70198 26.3305 7.26918 25.7048 6H20.5815C21.8707 6.9552 22.7148 8.48529 22.7148 10.2188Z" fill="#888888"/>
<path d="M20.3659 12.3031V6H16.4492V15.2C19.1031 14.3268 20.0636 12.908 20.3659 12.2986V12.3031Z" fill="#888888"/>
<path d="M14.3132 6H17.2329V9.06667H16.1808V7.8052C16.1808 6.90043 15.2917 6.1653 14.1975 6.1653C14.1975 6.1653 13.9134 6.0348 14.3132 6Z" fill="#888888"/>
<path d="M33.6841 6H30.5508V29H33.6841V6Z" fill="#888888"/>
<path d="M28.4181 6H31.3326V9.06667H30.2804V7.8052C30.2804 6.90043 29.3966 6.1653 28.2971 6.1653C28.2971 6.1653 28.013 6.0348 28.4128 6H28.4181Z" fill="#888888"/>
<path d="M70.5586 15.6934V7.66602H71.2399V11.2014L74.6721 7.66602H75.5408L72.0149 11.2929L75.8559 15.6934H74.9106L71.2484 11.5008V15.6934H70.5586Z" fill="#888888"/>
<path d="M80.2688 12.9067C80.2688 13.9382 79.7578 15.2525 78.4803 15.2525C77.2028 15.2525 76.6918 13.9382 76.6918 12.9067C76.6918 11.8752 77.2028 10.5609 78.4803 10.5609C79.7578 10.5609 80.2688 11.8752 80.2688 12.9067ZM78.4803 9.94531C76.7855 9.94531 76.002 11.4343 76.002 12.9067C76.002 14.3791 76.7855 15.8681 78.4803 15.8681C80.1751 15.8681 80.9586 14.3791 80.9586 12.9067C80.9586 11.4343 80.1751 9.94531 78.4803 9.94531Z" fill="#888888"/>
<path d="M82.5336 15.6929H81.8948V11.3673C81.9034 10.9348 81.8608 10.4856 81.8438 10.1112H82.4995L82.5336 10.9348H82.5506C82.738 10.3691 83.2149 9.96981 83.7515 9.94485C83.9644 9.93653 84.1773 9.94485 84.3902 9.95317V10.602C84.2625 10.5937 84.1262 10.5604 83.9985 10.5604C83.0531 10.5604 82.5591 11.2675 82.5336 12.3406V15.7013V15.6929Z" fill="#888888"/>
<path d="M85.4471 12.4492C85.5323 11.4676 86.0859 10.5609 87.1164 10.5609C88.215 10.5609 88.7686 11.3761 88.8453 12.4492H85.4471ZM89.5351 13.0564C89.5351 11.3095 88.8878 9.94531 87.1079 9.94531C85.5323 9.94531 84.7402 11.3927 84.7402 12.9067C84.7402 14.4207 85.4812 15.8681 87.0653 15.8681C88.3428 15.8681 89.1433 15.2608 89.467 13.9216H88.8027C88.6409 14.6869 88.0191 15.2608 87.2697 15.2608C85.9666 15.2608 85.4471 14.2626 85.4301 13.0648H89.5351V13.0564Z" fill="#888888"/>
<path d="M90.7953 14.1378C90.7953 12.732 92.6775 12.915 93.5803 12.8817C93.6399 14.0463 93.3758 15.2525 91.9876 15.2525C91.3404 15.2525 90.7953 14.8948 90.7953 14.1378ZM93.5803 12.2662C92.8052 12.3078 91.8854 12.1996 91.1786 12.5241C90.5398 12.7986 90.1055 13.3809 90.1055 14.1378C90.1055 15.2276 90.889 15.8598 91.8769 15.8598C92.6008 15.8598 93.3077 15.4106 93.5377 14.9447L93.5717 14.8699H93.5973L93.6143 15.6934H94.2701C94.2445 15.3191 94.2105 14.8699 94.219 14.4373V11.792C94.236 10.511 93.5121 9.94531 92.3368 9.94531C91.3233 9.94531 90.5057 10.3779 90.3439 11.5258H91.0253C91.1104 10.7688 91.664 10.5609 92.3283 10.5609C93.0778 10.5609 93.5291 10.852 93.5888 11.7587V12.2745L93.5803 12.2662Z" fill="#888888"/>
<path d="M99.0043 11.2019V8.332H100.554C101.287 8.332 102.658 8.22386 102.658 9.76279C102.658 11.1353 101.449 11.2019 100.478 11.2019H99.0043ZM99.0043 11.8674H100.904C102.292 11.8674 102.394 12.1918 102.556 14.0219C102.598 14.5875 102.641 15.1532 102.82 15.6856H103.612C103.305 15.1948 103.348 14.5958 103.212 13.2982C103.118 12.3665 102.905 11.676 101.926 11.5097V11.4847C102.811 11.2518 103.399 10.6279 103.399 9.76279C103.399 8.99748 103.143 8.41519 102.615 8.08245C102.036 7.69979 101.483 7.6582 100.818 7.6582H98.3145V15.6856H99.0043V11.8591V11.8674Z" fill="#888888"/>
<path d="M105.163 12.4492C105.248 11.4676 105.801 10.5609 106.832 10.5609C107.931 10.5609 108.484 11.3761 108.561 12.4492H105.163ZM109.251 13.0564C109.251 11.3095 108.603 9.94531 106.823 9.94531C105.248 9.94531 104.447 11.3927 104.447 12.9067C104.447 14.4207 105.188 15.8681 106.781 15.8681C108.058 15.8681 108.859 15.2608 109.183 13.9216H108.518C108.356 14.6869 107.735 15.2608 106.985 15.2608C105.682 15.2608 105.163 14.2626 105.146 13.0648H109.251V13.0564Z" fill="#888888"/>
<path d="M112.054 9.94531C113.059 9.94531 113.91 10.3113 113.995 11.4926H113.305C113.246 10.7938 112.65 10.5609 111.994 10.5609C111.398 10.5609 110.802 10.8104 110.802 11.4593C110.802 12.2828 111.824 12.2079 113.271 12.7403C113.825 12.94 114.174 13.4391 114.174 14.0463C114.174 15.3024 113.058 15.8681 111.943 15.8681C111.023 15.8681 109.958 15.4106 109.941 14.1794H110.631C110.682 15.0113 111.381 15.2608 112.105 15.2608C112.786 15.2608 113.493 14.9281 113.493 14.1462C113.493 13.3642 112.658 13.2145 111.807 13.0148C110.972 12.8069 110.12 12.549 110.12 11.5175C110.12 10.3612 111.142 9.96195 112.071 9.96195L112.054 9.94531Z" fill="#888888"/>
<path d="M115.604 12.4492C115.689 11.4676 116.243 10.5609 117.282 10.5609C118.38 10.5609 118.934 11.3761 119.011 12.4492H115.613H115.604ZM119.692 13.0564C119.692 11.3095 119.045 9.94531 117.265 9.94531C115.689 9.94531 114.889 11.3927 114.889 12.9067C114.889 14.4207 115.63 15.8681 117.222 15.8681C118.5 15.8681 119.3 15.2608 119.624 13.9216H118.96C118.798 14.6869 118.176 15.2608 117.427 15.2608C116.124 15.2608 115.604 14.2626 115.579 13.0648H119.692V13.0564Z" fill="#888888"/>
<path d="M120.954 14.1378C120.954 12.732 122.836 12.915 123.738 12.8817C123.798 14.0463 123.534 15.2525 122.146 15.2525C121.499 15.2525 120.945 14.8948 120.945 14.1378H120.954ZM123.738 12.2662C122.963 12.3078 122.044 12.1996 121.337 12.5241C120.698 12.7986 120.264 13.3809 120.264 14.1378C120.264 15.2276 121.047 15.8598 122.035 15.8598C122.751 15.8598 123.466 15.4106 123.696 14.9447L123.73 14.8699H123.755L123.773 15.6934H124.428C124.411 15.3191 124.36 14.8699 124.377 14.4373V11.792C124.403 10.511 123.67 9.94531 122.495 9.94531C121.482 9.94531 120.664 10.3779 120.502 11.5258H121.183C121.269 10.7688 121.822 10.5609 122.487 10.5609C123.236 10.5609 123.679 10.852 123.747 11.7587V12.2745L123.738 12.2662Z" fill="#888888"/>
<path d="M126.284 15.6929H125.645V11.3673C125.653 10.9348 125.611 10.4856 125.594 10.1112H126.25L126.284 10.9348H126.301C126.488 10.3691 126.965 9.96981 127.493 9.94485C127.706 9.93653 127.919 9.94485 128.132 9.95317V10.602C128.004 10.5937 127.868 10.5604 127.74 10.5604C126.795 10.5604 126.301 11.2675 126.275 12.3406V15.7013L126.284 15.6929Z" fill="#888888"/>
<path d="M132.161 11.8253C132.11 10.9685 131.591 10.5609 130.713 10.5609C129.734 10.5609 129.138 11.6257 129.138 12.8984C129.138 14.1711 129.742 15.2608 130.713 15.2608C131.54 15.2608 132.11 14.7285 132.161 13.9548H132.851C132.681 15.2359 131.982 15.8681 130.773 15.8681C129.189 15.8681 128.439 14.4373 128.439 12.9067C128.439 11.3761 129.232 9.94531 130.816 9.94531C131.906 9.94531 132.791 10.6357 132.851 11.8253H132.161Z" fill="#888888"/>
<path d="M134.366 10.9607H134.383C134.758 10.2702 135.354 9.94579 136.044 9.94579C137.781 9.94579 137.917 11.5596 137.917 12.2001V15.6939H137.279V12.092C137.279 11.127 136.751 10.553 135.882 10.553C134.834 10.553 134.357 11.4764 134.357 12.4746V15.6856H133.719V7.6582H134.357V10.9523L134.366 10.9607Z" fill="#888888"/>
<path d="M142.107 15.6934V7.63281H142.797V15.6934H142.107Z" fill="#888888"/>
<path d="M145.03 15.6934H144.391V11.3678C144.391 10.9352 144.357 10.486 144.34 10.1117H144.996L145.03 10.9352L145.055 10.9602C145.43 10.2697 146.026 9.94531 146.716 9.94531C148.453 9.94531 148.59 11.5591 148.59 12.1996V15.6934H147.951V12.0915C147.951 11.1265 147.423 10.5526 146.554 10.5526C145.507 10.5526 145.03 11.4759 145.03 12.4741V15.6851V15.6934Z" fill="#888888"/>
<path d="M151.68 9.94531C152.685 9.94531 153.537 10.3113 153.622 11.4926H152.932C152.873 10.7938 152.277 10.5609 151.621 10.5609C151.025 10.5609 150.429 10.8104 150.429 11.4593C150.429 12.2828 151.459 12.2079 152.898 12.7403C153.452 12.94 153.801 13.4391 153.801 14.0463C153.801 15.3024 152.685 15.8681 151.57 15.8681C150.65 15.8681 149.585 15.4106 149.568 14.1794H150.258C150.309 15.0113 151.008 15.2608 151.732 15.2608C152.413 15.2608 153.12 14.9281 153.12 14.1462C153.12 13.3642 152.285 13.2145 151.434 13.0148C150.599 12.8069 149.747 12.549 149.747 11.5175C149.747 10.3612 150.761 9.96195 151.698 9.96195L151.68 9.94531Z" fill="#888888"/>
<path d="M155.291 10.7271H154.227V10.1116H155.291V8.92201L155.93 8.63086V10.1116H157.139V10.7271H155.93V14.4621C155.921 14.9696 156.177 15.2524 156.662 15.2524C156.85 15.2524 157.046 15.2441 157.216 15.1858V15.7681C157.012 15.8264 156.782 15.868 156.569 15.868C155.223 15.868 155.3 14.9696 155.3 14.2126V10.7354L155.291 10.7271Z" fill="#888888"/>
<path d="M158.639 10.1117V15.6934H158V10.1117H158.639ZM158.69 8.49787H157.949V7.66602H158.69V8.49787Z" fill="#888888"/>
<path d="M160.427 10.7271H159.371V10.1116H160.427V8.92201L161.066 8.63086V10.1116H162.275V10.7271H161.066V14.4621C161.057 14.9696 161.313 15.2524 161.798 15.2524C161.986 15.2524 162.182 15.2441 162.352 15.1858V15.7681C162.148 15.8264 161.918 15.868 161.705 15.868C160.359 15.868 160.436 14.9696 160.436 14.2126V10.7354L160.427 10.7271Z" fill="#888888"/>
<path d="M166.686 10.1113H167.325V14.437C167.325 14.8695 167.359 15.3187 167.376 15.693H166.72L166.686 14.8695L166.669 14.8446C166.294 15.535 165.698 15.8594 165.008 15.8594C163.271 15.8594 163.135 14.2456 163.135 13.6051V10.1113H163.774V13.7132C163.774 14.6865 164.302 15.2522 165.17 15.2522C166.218 15.2522 166.695 14.3288 166.695 13.3306V10.1113H166.686Z" fill="#888888"/>
<path d="M169.105 10.7271H168.049V10.1116H169.105V8.92201L169.744 8.63086V10.1116H170.953V10.7271H169.744V14.4621C169.735 14.9696 169.991 15.2524 170.476 15.2524C170.663 15.2524 170.859 15.2441 171.03 15.1858V15.7681C170.825 15.8264 170.595 15.868 170.382 15.868C169.037 15.868 169.113 14.9696 169.113 14.2126V10.7354L169.105 10.7271Z" fill="#888888"/>
<path d="M172.198 12.4492C172.283 11.4676 172.837 10.5609 173.867 10.5609C174.966 10.5609 175.519 11.3761 175.596 12.4492H172.198ZM176.286 13.0564C176.286 11.3095 175.639 9.94531 173.859 9.94531C172.283 9.94531 171.482 11.3927 171.482 12.9067C171.482 14.4207 172.223 15.8681 173.816 15.8681C175.093 15.8681 175.894 15.2608 176.218 13.9216H175.553C175.392 14.6869 174.77 15.2608 174.02 15.2608C172.717 15.2608 172.198 14.2626 172.181 13.0648H176.294L176.286 13.0564Z" fill="#888888"/>
<path d="M183.78 12.9067C183.78 13.9382 183.27 15.2525 181.992 15.2525C180.715 15.2525 180.204 13.9382 180.204 12.9067C180.204 11.8752 180.715 10.5609 181.992 10.5609C183.27 10.5609 183.78 11.8752 183.78 12.9067ZM181.992 9.94531C180.297 9.94531 179.514 11.4343 179.514 12.9067C179.514 14.3791 180.297 15.8681 181.992 15.8681C183.687 15.8681 184.47 14.3791 184.47 12.9067C184.47 11.4343 183.687 9.94531 181.992 9.94531Z" fill="#888888"/>
<path d="M185.866 15.6937V10.7275H184.793V10.1119H185.866V8.9224C185.866 7.96577 186.241 7.5332 187.152 7.5332C187.356 7.5332 187.569 7.60807 187.757 7.65798V8.19037C187.629 8.16541 187.493 8.14877 187.365 8.14877C186.496 8.14877 186.479 8.60629 186.505 9.40487V10.1119H187.714V10.7275H186.505V15.6937H185.866Z" fill="#888888"/>
<path d="M71.1643 23.2399H72.3907C73.7874 23.2399 74.8009 23.4479 74.8009 24.8204C74.8009 26.0516 74.06 26.4259 72.791 26.4009H71.1643V23.2399ZM71.1643 22.5744V19.7045H72.7399C73.6086 19.7129 74.4943 19.9458 74.4943 21.1187C74.4943 22.2084 73.6341 22.5744 72.7739 22.5744H71.1643ZM73.319 27.0664C74.9286 27.0664 75.5248 25.9767 75.5248 24.9202C75.5248 23.7723 74.852 23.0569 73.847 22.8822V22.8573C74.6306 22.6576 75.2182 21.9339 75.2182 21.0438C75.2182 19.7628 74.2558 19.0391 73.1572 19.0391H70.5V27.0581H73.319V27.0664Z" fill="#888888"/>
<path d="M77.3987 21.4847V27.0664H76.7855V21.4847H77.3987ZM77.4498 19.8709H76.7344V19.0391H77.4498V19.8709Z" fill="#888888"/>
<path d="M82.4489 24.2798C82.4489 25.3112 81.955 26.6256 80.72 26.6256C79.4851 26.6256 78.9912 25.3112 78.9912 24.2798C78.9912 23.2483 79.4851 21.9339 80.72 21.9339C81.955 21.9339 82.4489 23.2483 82.4489 24.2798ZM80.72 21.3184C79.0849 21.3184 78.3184 22.8074 78.3184 24.2798C78.3184 25.7521 79.0763 27.2411 80.72 27.2411C82.3638 27.2411 83.1217 25.7521 83.1217 24.2798C83.1217 22.8074 82.3638 21.3184 80.72 21.3184Z" fill="#888888"/>
<path d="M85.7355 21.3184C86.7064 21.3184 87.5326 21.6844 87.6092 22.8656H86.9449C86.8853 22.1668 86.3062 21.9339 85.6759 21.9339C85.1053 21.9339 84.5177 22.1752 84.5177 22.8323C84.5177 23.6559 85.5141 23.581 86.9023 24.1134C87.4304 24.313 87.771 24.8121 87.771 25.4111C87.771 26.6672 86.6979 27.2328 85.6078 27.2328C84.7136 27.2328 83.6916 26.7753 83.666 25.5442H84.3303C84.3814 26.376 85.0542 26.6256 85.7526 26.6256C86.4084 26.6256 87.0982 26.2928 87.0982 25.5109C87.0982 24.7289 86.2891 24.5792 85.4715 24.3796C84.6625 24.1716 83.8449 23.9137 83.8449 22.8739C83.8449 21.7177 84.8328 21.3184 85.727 21.3184H85.7355Z" fill="#888888"/>
<path d="M92.0381 23.1983C91.987 22.3415 91.4845 21.9339 90.6328 21.9339C89.6875 21.9339 89.1084 22.9987 89.1084 24.2714C89.1084 25.5442 89.696 26.6256 90.6328 26.6256C91.4334 26.6256 91.987 26.0932 92.0381 25.3279H92.7024C92.5406 26.6089 91.8592 27.2411 90.6925 27.2411C89.151 27.2411 88.4355 25.8104 88.4355 24.2798C88.4355 22.7491 89.202 21.3184 90.7265 21.3184C91.7826 21.3184 92.6428 22.0088 92.6939 23.1983H92.0296H92.0381Z" fill="#888888"/>
<path d="M94.1838 21.4847V27.0664H93.5706V21.4847H94.1838ZM94.2349 19.8709H93.5195V19.0391H94.2349V19.8709Z" fill="#888888"/>
<path d="M95.8546 23.8222C95.9398 22.8406 96.4678 21.9339 97.4728 21.9339C98.5374 21.9339 99.0739 22.7491 99.142 23.8222H95.8546ZM99.8063 24.4295C99.8063 22.6826 99.1846 21.3184 97.4557 21.3184C95.9313 21.3184 95.1562 22.7658 95.1562 24.2798C95.1562 25.7937 95.8717 27.2411 97.4132 27.2411C98.6566 27.2411 99.4231 26.6339 99.7382 25.2946H99.0909C98.9376 26.0599 98.333 26.6339 97.609 26.6339C96.3486 26.6339 95.8461 25.6357 95.8291 24.4378H99.8063V24.4295Z" fill="#888888"/>
<path d="M101.432 27.067H100.819V22.7413C100.819 22.3088 100.785 21.8596 100.768 21.4852H101.406L101.44 22.3088L101.457 22.3254C101.815 21.635 102.403 21.3105 103.067 21.3105C104.745 21.3105 104.881 22.9243 104.881 23.5732V27.067H104.268V23.465C104.268 22.5001 103.757 21.9261 102.914 21.9261C101.9 21.9261 101.44 22.8495 101.44 23.8477V27.067H101.432Z" fill="#888888"/>
<path d="M109.403 23.1983C109.352 22.3415 108.85 21.9339 107.998 21.9339C107.053 21.9339 106.474 22.9987 106.474 24.2714C106.474 25.5442 107.061 26.6256 107.998 26.6256C108.799 26.6256 109.352 26.0932 109.403 25.3279H110.068C109.906 26.6089 109.224 27.2411 108.058 27.2411C106.516 27.2411 105.801 25.8104 105.801 24.2798C105.801 22.7491 106.567 21.3184 108.1 21.3184C109.156 21.3184 110.017 22.0088 110.068 23.1983H109.403Z" fill="#888888"/>
<path d="M111.294 23.8222C111.379 22.8406 111.907 21.9339 112.912 21.9339C113.977 21.9339 114.513 22.7491 114.581 23.8222H111.294ZM115.246 24.4295C115.246 22.6826 114.624 21.3184 112.895 21.3184C111.371 21.3184 110.596 22.7658 110.596 24.2798C110.596 25.7937 111.311 27.2411 112.853 27.2411C114.096 27.2411 114.863 26.6339 115.178 25.2946H114.53C114.377 26.0599 113.772 26.6339 113.04 26.6339C111.78 26.6339 111.277 25.6357 111.26 24.4378H115.237L115.246 24.4295Z" fill="#888888"/>
<path d="M123.065 25.5357C122.511 26.1679 121.958 26.5672 121.123 26.5672C120.127 26.5672 119.199 25.8767 119.199 24.7038C119.199 24.0051 120.255 23.1732 120.749 22.8238L123.065 25.5274V25.5357ZM120.868 21.9421C120.527 21.5428 120.067 20.9189 120.067 20.3366C120.067 19.7543 120.519 19.538 120.996 19.538C121.447 19.538 121.898 19.7959 121.898 20.3366C121.898 21.0354 121.285 21.4929 120.868 21.9421ZM120.28 22.3746C119.454 22.9736 118.475 23.6391 118.475 24.8702C118.475 26.3426 119.684 27.241 121.183 27.241C122.137 27.241 122.835 26.8001 123.448 26.0098L124.326 27.0746H125.279L123.874 25.4192C124.436 24.3877 124.513 23.115 124.615 21.9504H123.9C123.942 22.8488 123.763 24.0882 123.431 24.9201L121.268 22.4162C121.915 21.8838 122.622 21.26 122.622 20.3033C122.622 19.3467 121.771 18.8809 120.97 18.8809C120.169 18.8809 119.352 19.3467 119.352 20.3366C119.352 21.1352 119.871 21.7757 120.323 22.3414C120.314 22.3497 120.289 22.3663 120.28 22.383V22.3746Z" fill="#888888"/>
<path d="M129.155 23.2399H130.381C131.778 23.2399 132.791 23.4479 132.791 24.8204C132.791 26.0516 132.05 26.4259 130.781 26.4009H129.155V23.2399ZM129.155 22.5744V19.7045H130.73C131.599 19.7129 132.485 19.9458 132.485 21.1187C132.485 22.2084 131.624 22.5744 130.764 22.5744H129.155ZM131.309 27.0664C132.919 27.0664 133.515 25.9767 133.515 24.9202C133.515 23.7723 132.842 23.0569 131.837 22.8822V22.8573C132.621 22.6576 133.208 21.9339 133.208 21.0438C133.208 19.7628 132.246 19.0391 131.147 19.0391H128.49V27.0581H131.309V27.0664Z" fill="#888888"/>
<path d="M135.379 21.4847V27.0664H134.766V21.4847H135.379ZM135.43 19.8709H134.715V19.0391H135.43V19.8709Z" fill="#888888"/>
<path d="M140.431 24.2798C140.431 25.3112 139.937 26.6256 138.702 26.6256C137.467 26.6256 136.973 25.3112 136.973 24.2798C136.973 23.2483 137.467 21.9339 138.702 21.9339C139.937 21.9339 140.431 23.2483 140.431 24.2798ZM138.702 21.3184C137.067 21.3184 136.309 22.8074 136.309 24.2798C136.309 25.7521 137.067 27.2411 138.702 27.2411C140.337 27.2411 141.103 25.7521 141.103 24.2798C141.103 22.8074 140.345 21.3184 138.702 21.3184Z" fill="#888888"/>
<path d="M142.448 22.1002H141.426V21.4846H142.448V20.2951L143.061 20.0039V21.4846H144.228V22.1002H143.061V25.8352C143.052 26.3509 143.299 26.6254 143.768 26.6254C143.955 26.6254 144.134 26.6171 144.296 26.5589V27.1412C144.1 27.1994 143.879 27.241 143.674 27.241C142.371 27.241 142.439 26.3426 142.439 25.5856V22.1002H142.448Z" fill="#888888"/>
<path d="M145.446 23.8222C145.522 22.8406 146.059 21.9339 147.064 21.9339C148.128 21.9339 148.665 22.7491 148.733 23.8222H145.446ZM149.397 24.4295C149.397 22.6826 148.776 21.3184 147.055 21.3184C145.531 21.3184 144.756 22.7658 144.756 24.2798C144.756 25.7937 145.471 27.2411 147.013 27.2411C148.256 27.2411 149.023 26.6339 149.338 25.2946H148.691C148.537 26.0599 147.933 26.6339 147.2 26.6339C145.94 26.6339 145.437 25.6357 145.42 24.4378H149.397V24.4295Z" fill="#888888"/>
<path d="M153.655 23.1983C153.604 22.3415 153.102 21.9339 152.25 21.9339C151.305 21.9339 150.726 22.9987 150.726 24.2714C150.726 25.5442 151.313 26.6256 152.25 26.6256C153.051 26.6256 153.604 26.0932 153.655 25.3279H154.32C154.158 26.6089 153.476 27.2411 152.31 27.2411C150.777 27.2411 150.053 25.8104 150.053 24.2798C150.053 22.7491 150.819 21.3184 152.344 21.3184C153.4 21.3184 154.26 22.0088 154.311 23.1983H153.647H153.655Z" fill="#888888"/>
<path d="M155.786 22.3332H155.812C156.17 21.6428 156.757 21.3183 157.422 21.3183C159.099 21.3183 159.236 22.9321 159.236 23.581V27.0747H158.622V23.4728C158.622 22.5079 158.111 21.9339 157.268 21.9339C156.255 21.9339 155.795 22.8573 155.795 23.8555V27.0747H155.182V19.0391H155.795V22.3332H155.786Z" fill="#888888"/>
<path d="M161.125 27.067H160.512V22.7413C160.512 22.3088 160.478 21.8596 160.461 21.4852H161.1L161.134 22.3088L161.159 22.3254C161.517 21.635 162.105 21.3105 162.769 21.3105C164.447 21.3105 164.583 22.9243 164.583 23.5732V27.067H163.97V23.465C163.97 22.5001 163.459 21.9261 162.616 21.9261C161.602 21.9261 161.142 22.8495 161.142 23.8477V27.067H161.125Z" fill="#888888"/>
<path d="M169.607 24.2798C169.607 25.3112 169.113 26.6256 167.878 26.6256C166.643 26.6256 166.149 25.3112 166.149 24.2798C166.149 23.2483 166.643 21.9339 167.878 21.9339C169.113 21.9339 169.607 23.2483 169.607 24.2798ZM167.878 21.3184C166.243 21.3184 165.477 22.8074 165.477 24.2798C165.477 25.7521 166.235 27.2411 167.878 27.2411C169.522 27.2411 170.28 25.7521 170.28 24.2798C170.28 22.8074 169.522 21.3184 167.878 21.3184Z" fill="#888888"/>
<path d="M171.814 27.0669H171.201V19.0312H171.814V27.0669Z" fill="#888888"/>
<path d="M176.865 24.2798C176.865 25.3112 176.371 26.6256 175.136 26.6256C173.901 26.6256 173.407 25.3112 173.407 24.2798C173.407 23.2483 173.901 21.9339 175.136 21.9339C176.371 21.9339 176.865 23.2483 176.865 24.2798ZM175.136 21.3184C173.501 21.3184 172.734 22.8074 172.734 24.2798C172.734 25.7521 173.492 27.2411 175.136 27.2411C176.78 27.2411 177.538 25.7521 177.538 24.2798C177.538 22.8074 176.78 21.3184 175.136 21.3184Z" fill="#888888"/>
<path d="M181.991 24.155C181.991 25.2447 181.54 26.4342 180.364 26.4342C179.189 26.4342 178.755 25.2031 178.755 24.1799C178.755 23.1568 179.223 21.9339 180.347 21.9339C181.472 21.9339 182 23.0902 182 24.155H181.991ZM181.991 22.3083L181.974 22.3499C181.565 21.701 181.029 21.3184 180.279 21.3184C178.712 21.3184 178.082 22.7242 178.082 24.2298C178.082 25.7355 178.746 27.0415 180.296 27.0415C180.961 27.0415 181.668 26.6505 181.966 25.9934H181.983V27.0415C181.966 27.9732 181.225 28.5887 180.424 28.5887C179.768 28.5887 179.044 28.3641 178.968 27.6987H178.303C178.303 28.8549 179.411 29.196 180.339 29.196C180.824 29.196 181.097 29.1544 181.506 28.9381C182.647 28.3558 182.596 27.1912 182.596 26.0765V22.7325C182.596 22.2999 182.63 21.8507 182.647 21.4764H182.008L181.974 22.2999L181.991 22.3083Z" fill="#888888"/>
<path d="M183.798 21.4844L185.535 26.1594L187.255 21.4844H187.92L185.084 29.204H184.411L185.186 27.0661L183.057 21.4844H183.806H183.798Z" fill="#888888"/>
</svg>
