<svg width="185" height="41" viewBox="0 0 185 41" fill="none" xmlns="http://www.w3.org/2000/svg">
<g clip-path="url(#clip0_999_5068)">
<path d="M21.7023 40.4083C20.9198 41.199 19.6431 41.199 18.8653 40.4083L0.584895 21.9337C-0.197569 21.143 -0.197569 19.8528 0.584895 19.062L18.8653 0.592104C19.6477 -0.19867 20.9244 -0.19867 21.7023 0.592104L39.9826 19.0666C40.7651 19.8574 40.7651 21.1476 39.9826 21.9384L21.7023 40.4129V40.4083Z" fill="#888888"/>
<path d="M26.2786 20.884C27.7612 19.677 28.713 17.8597 28.713 15.8203C28.713 14.7613 28.4522 13.7671 28.0037 12.8838H24.2882C25.2216 13.5451 25.8348 14.6133 25.8348 15.8203C25.8348 16.6804 25.5145 17.4712 24.9974 18.0909C24.5581 18.6967 23.707 19.5152 22.1101 20.084C21.291 20.4308 21.291 21.5731 21.291 21.5731V28.8842H24.1692V21.6193C25.1713 22.276 25.8302 24.6899 25.8302 25.9431C25.8302 27.1963 25.2125 28.2183 24.2744 28.8842H27.99C28.443 28.001 28.7038 27.0021 28.7038 25.9431C28.7038 23.9038 27.7521 22.0817 26.2695 20.8794L26.2786 20.884Z" fill="white" fill-opacity="0.8"/>
<path d="M22.8789 18.9741C23.8581 18.9741 23.8032 17.1891 23.8032 17.1891V12.8838H19.8497C19.6163 12.9069 19.7811 12.9994 19.7811 12.9994C20.3988 12.9994 20.8976 13.4942 20.925 14.1093V15.8157C20.925 17.0458 21.5061 18.9695 22.8789 18.9695V18.9741Z" fill="white" fill-opacity="0.8"/>
<path d="M17.1458 20.884C18.633 19.677 19.5802 17.8597 19.5802 15.8203C19.5802 14.7613 19.3193 13.7671 18.8709 12.8838H15.1554C16.0888 13.5451 16.702 14.6133 16.702 15.8203C16.702 16.6804 16.3817 17.4712 15.8646 18.0909C15.4253 18.6967 14.5742 19.5152 12.9773 20.084C12.1582 20.4308 12.1582 21.5731 12.1582 21.5731V28.8842H15.0364V21.6193C16.0385 22.276 16.702 24.6899 16.702 25.9431C16.702 27.1963 16.0888 28.2183 15.1462 28.8842H18.8663C19.3193 28.001 19.5802 27.0021 19.5802 25.9431C19.5802 23.9038 18.633 22.0817 17.1458 20.8794V20.884Z" fill="white" fill-opacity="0.8"/>
<path d="M13.7463 18.9741C14.7256 18.9741 14.6706 17.1891 14.6706 17.1891V12.8838H10.7171C10.4838 12.9069 10.6531 12.9994 10.6531 12.9994C11.2708 12.9994 11.7696 13.4942 11.797 14.1093V15.8157C11.797 17.0458 12.3782 18.9695 13.7509 18.9695L13.7463 18.9741Z" fill="white" fill-opacity="0.8"/>
<path d="M46.8425 32.6807V27.9546H47.204V30.0356L49.0297 27.9546H49.4919L47.6112 30.0864L49.6566 32.6807H49.1532L47.204 30.2113V32.6807H46.8379H46.8425Z" fill="#888888"/>
<path d="M52.0997 31.0344C52.0997 31.6402 51.8297 32.4171 51.1479 32.4171C50.4661 32.4171 50.1961 31.6448 50.1961 31.0344C50.1961 30.424 50.4661 29.6517 51.1479 29.6517C51.8297 29.6517 52.0997 30.424 52.0997 31.0344ZM51.1479 29.291C50.2465 29.291 49.8301 30.1697 49.8301 31.0344C49.8301 31.8992 50.2465 32.7778 51.1479 32.7778C52.0493 32.7778 52.4703 31.8992 52.4703 31.0344C52.4703 30.1697 52.0539 29.291 51.1479 29.291Z" fill="#888888"/>
<path d="M53.3915 32.6809H53.0528V30.1328C53.0574 29.8785 53.0345 29.6149 53.0254 29.3929H53.3777L53.3915 29.8785H53.4052C53.5059 29.5455 53.7621 29.3097 54.0412 29.2958C54.151 29.2866 54.2654 29.2958 54.3798 29.3051V29.6843C54.3112 29.675 54.238 29.6565 54.1693 29.6565C53.666 29.6565 53.4006 30.0773 53.3915 30.7063V32.6809Z" fill="#888888"/>
<path d="M55.0243 30.7662C55.0701 30.1928 55.3629 29.6517 55.9166 29.6517C56.5023 29.6517 56.7952 30.1327 56.8363 30.7662H55.0289H55.0243ZM57.1978 31.1269C57.1978 30.0957 56.8546 29.291 55.9075 29.291C55.0655 29.291 54.6445 30.1419 54.6445 31.0344C54.6445 31.9269 55.0426 32.7778 55.8846 32.7778C56.5709 32.7778 56.9919 32.4171 57.1658 31.631H56.8089C56.7265 32.0795 56.3925 32.4171 55.9898 32.4171C55.2989 32.4171 55.0197 31.8252 55.0106 31.1269H57.1978Z" fill="#888888"/>
<path d="M57.9579 31.7651C57.9579 30.9373 58.96 31.0437 59.4404 31.0252C59.4725 31.7096 59.3306 32.4218 58.5939 32.4218C58.2507 32.4218 57.9579 32.209 57.9579 31.7651ZM59.4404 30.6645C59.0286 30.6922 58.539 30.6229 58.1592 30.8171C57.8206 30.9836 57.5918 31.3212 57.5918 31.7651C57.5918 32.4033 58.0128 32.7825 58.5344 32.7825C58.9142 32.7825 59.294 32.5235 59.4175 32.246L59.4358 32.1998H59.445L59.4541 32.6854H59.8019C59.7928 32.4634 59.7699 32.1998 59.7745 31.9455V30.387C59.7882 29.6332 59.3992 29.3003 58.7724 29.3003C58.2324 29.3003 57.7977 29.5546 57.7153 30.2298H58.0723C58.118 29.7859 58.4109 29.661 58.7678 29.661C59.1704 29.661 59.4038 29.8321 59.4404 30.3685V30.6691V30.6645Z" fill="#888888"/>
<path d="M62.4911 30.0309V28.343H63.3147C63.7037 28.343 64.4358 28.2783 64.4358 29.1893C64.4358 29.9939 63.7906 30.0355 63.2735 30.0355H62.4911V30.0309ZM62.4911 30.424H63.5023C64.239 30.424 64.2985 30.6136 64.3809 31.6957C64.4038 32.0287 64.4266 32.3616 64.5227 32.6761H64.9437C64.779 32.3894 64.8019 32.0379 64.7286 31.2703C64.6783 30.72 64.5639 30.3176 64.0468 30.2159V30.202C64.5181 30.0633 64.8293 29.6933 64.8293 29.1847C64.8293 28.7315 64.6966 28.3939 64.4129 28.195C64.1018 27.9731 63.8089 27.9453 63.4566 27.9453H62.125V32.6715H62.4911V30.4194V30.424Z" fill="#888888"/>
<path d="M65.8544 30.7662C65.9002 30.1928 66.193 29.6517 66.7421 29.6517C67.3278 29.6517 67.6207 30.1327 67.6618 30.7662H65.8544ZM68.0279 31.1269C68.0279 30.0957 67.6847 29.291 66.7375 29.291C65.8956 29.291 65.4746 30.1419 65.4746 31.0344C65.4746 31.9269 65.8681 32.7778 66.7147 32.7778C67.3965 32.7778 67.822 32.4171 67.9959 31.631H67.639C67.5566 32.0795 67.2226 32.4171 66.8199 32.4171C66.1244 32.4171 65.8498 31.8252 65.8361 31.1269H68.0233H68.0279Z" fill="#888888"/>
<path d="M69.6075 29.2956C70.1428 29.2956 70.5958 29.513 70.637 30.2066H70.271C70.2389 29.7951 69.9232 29.6563 69.5708 29.6563C69.2551 29.6563 68.9348 29.7997 68.9348 30.1835C68.9348 30.6691 69.4793 30.6228 70.2481 30.9373C70.5409 31.0575 70.7285 31.3489 70.7285 31.705C70.7285 32.4449 70.1383 32.7778 69.5388 32.7778C69.0492 32.7778 68.4818 32.5096 68.4727 31.7836H68.8433C68.8708 32.2738 69.2414 32.4171 69.6258 32.4171C69.9873 32.4171 70.367 32.2229 70.367 31.7604C70.367 31.298 69.9186 31.2101 69.4702 31.0899C69.0263 30.9651 68.5733 30.8171 68.5733 30.2066C68.5733 29.5269 69.1133 29.291 69.612 29.291L69.6075 29.2956Z" fill="#888888"/>
<path d="M71.5803 30.7662C71.626 30.1928 71.9189 29.6517 72.4726 29.6517C73.0583 29.6517 73.3511 30.1327 73.3923 30.7662H71.5803ZM73.7584 31.1269C73.7584 30.0957 73.4152 29.291 72.468 29.291C71.6306 29.291 71.2051 30.1419 71.2051 31.0344C71.2051 31.9269 71.5986 32.7778 72.4451 32.7778C73.1269 32.7778 73.5479 32.4171 73.7218 31.631H73.3649C73.2825 32.0795 72.9485 32.4171 72.5458 32.4171C71.8548 32.4171 71.5757 31.8252 71.5666 31.1269H73.7538H73.7584Z" fill="#888888"/>
<path d="M74.5126 31.7651C74.5126 30.9373 75.5147 31.0437 75.9951 31.0252C76.0271 31.7096 75.8899 32.4218 75.1486 32.4218C74.8054 32.4218 74.5126 32.209 74.5126 31.7651ZM75.9951 30.6645C75.5833 30.6922 75.0937 30.6229 74.7185 30.8171C74.3799 30.9836 74.1465 31.3212 74.1465 31.7651C74.1465 32.4033 74.5629 32.7825 75.0891 32.7825C75.4735 32.7825 75.8487 32.5235 75.9722 32.246L75.9905 32.1998H76.0043L76.018 32.6854H76.3658C76.352 32.4634 76.3337 32.1998 76.3383 31.9455V30.387C76.3475 29.6332 75.9585 29.3003 75.3316 29.3003C74.7917 29.3003 74.357 29.5546 74.27 30.2298H74.6315C74.6773 29.7859 74.9701 29.661 75.3225 29.661C75.7206 29.661 75.9631 29.8321 75.9951 30.3685V30.6691V30.6645Z" fill="#888888"/>
<path d="M77.4364 30.7014C77.4455 30.0725 77.7109 29.6516 78.2143 29.6516C78.2829 29.6516 78.3561 29.6701 78.4202 29.6794V29.3002C78.3104 29.2909 78.196 29.2817 78.0816 29.2909C77.8024 29.3048 77.5462 29.5407 77.4455 29.8736H77.4364L77.4181 29.3881H77.0703C77.0795 29.61 77.1023 29.8736 77.0978 30.128V32.676H77.4364V30.7014Z" fill="#888888"/>
<path d="M80.6486 30.4006C80.6212 29.8966 80.3466 29.6515 79.8753 29.6515C79.3537 29.6515 79.0334 30.2804 79.0334 31.0249C79.0334 31.7694 79.3537 32.4122 79.8753 32.4122C80.3146 32.4122 80.6212 32.0978 80.6486 31.6492H81.0147C80.9232 32.3984 80.5525 32.7729 79.9119 32.7729C79.0654 32.7729 78.6719 31.9267 78.6719 31.0295C78.6719 30.1324 79.0929 29.2861 79.9348 29.2861C80.5159 29.2861 80.9872 29.6931 81.0147 30.3914H80.6486V30.4006Z" fill="#888888"/>
<path d="M81.907 29.892H81.9161C82.1175 29.485 82.4378 29.2954 82.8038 29.2954C83.7281 29.2954 83.8014 30.2434 83.8014 30.6226V32.6805H83.4627V30.5579C83.4627 29.9891 83.179 29.6515 82.7169 29.6515C82.1586 29.6515 81.907 30.1925 81.907 30.7845V32.6759H81.5684V27.9497H81.907V29.8873V29.892Z" fill="#888888"/>
<path d="M86.1992 32.6807V27.936H86.5653V32.6807H86.1992Z" fill="#888888"/>
<path d="M87.8368 32.6805H87.4982V30.1324C87.4982 29.8781 87.4799 29.6145 87.4707 29.3925H87.8185L87.8368 29.8781L87.8505 29.892C88.0473 29.485 88.3676 29.2954 88.7336 29.2954C89.6579 29.2954 89.7312 30.2434 89.7312 30.6226V32.6805H89.3971V30.5579C89.3971 29.9891 89.1134 29.6515 88.6513 29.6515C88.093 29.6515 87.8413 30.1925 87.8413 30.7845V32.6759L87.8368 32.6805Z" fill="#888888"/>
<path d="M91.461 29.2956C91.9963 29.2956 92.4448 29.513 92.4905 30.2066H92.1245C92.0924 29.7951 91.7767 29.6563 91.4244 29.6563C91.1086 29.6563 90.7883 29.7997 90.7883 30.1835C90.7883 30.6691 91.3329 30.6228 92.1016 30.9373C92.3944 31.0575 92.582 31.3489 92.582 31.705C92.582 32.4449 91.9918 32.7778 91.3923 32.7778C90.9027 32.7778 90.3353 32.5096 90.3262 31.7836H90.6922C90.7243 32.2738 91.0949 32.4171 91.4747 32.4171C91.8362 32.4171 92.2114 32.2229 92.2114 31.7604C92.2114 31.298 91.7676 31.2101 91.3145 31.0899C90.8707 30.9651 90.4177 30.8171 90.4177 30.2066C90.4177 29.5269 90.9576 29.291 91.4564 29.291L91.461 29.2956Z" fill="#888888"/>
<path d="M93.471 29.7533H92.9082V29.3926H93.471V28.6897L93.8096 28.5186V29.3879H94.4548V29.7486H93.8096V31.9452C93.8051 32.2458 93.9378 32.4123 94.1986 32.4123C94.2993 32.4123 94.4045 32.4031 94.4914 32.3753V32.7175C94.3862 32.7453 94.2626 32.773 94.1483 32.773C93.4298 32.773 93.471 32.2412 93.471 31.7973V29.7486V29.7533Z" fill="#888888"/>
<path d="M95.3649 27.9497H94.9668V28.4399H95.3649V27.9497ZM94.9988 29.3925V32.6805H95.3329V29.3925H94.9988Z" fill="#888888"/>
<path d="M96.3714 29.7533H95.8086V29.3926H96.3714V28.6897L96.71 28.5186V29.3879H97.3506V29.7486H96.71V31.9452C96.7055 32.2458 96.8381 32.4123 97.099 32.4123C97.1996 32.4123 97.3003 32.4031 97.3918 32.3753V32.7175C97.2866 32.7453 97.163 32.773 97.0486 32.773C96.3302 32.773 96.3714 32.2412 96.3714 31.7973V29.7486V29.7533Z" fill="#888888"/>
<path d="M99.7902 29.3926H100.129V31.9406C100.129 32.195 100.147 32.4586 100.156 32.6805H99.8085L99.7902 32.195L99.781 32.1811C99.5843 32.588 99.264 32.7776 98.8979 32.7776C97.9736 32.7776 97.9004 31.825 97.9004 31.4504V29.3926H98.239V31.5152C98.239 32.084 98.5227 32.4169 98.9803 32.4169C99.5385 32.4169 99.7902 31.8759 99.7902 31.284V29.3926Z" fill="#888888"/>
<path d="M101.157 29.7533H100.594V29.3926H101.157V28.6897L101.495 28.5186V29.3879H102.14V29.7486H101.495V31.9452C101.486 32.2458 101.623 32.4123 101.884 32.4123C101.985 32.4123 102.085 32.4031 102.177 32.3753V32.7175C102.067 32.7453 101.944 32.773 101.834 32.773C101.12 32.773 101.157 32.2412 101.157 31.7973V29.7486V29.7533Z" fill="#888888"/>
<path d="M102.891 30.7662C102.937 30.1928 103.229 29.6517 103.783 29.6517C104.369 29.6517 104.662 30.1327 104.703 30.7662H102.895H102.891ZM105.069 31.1269C105.069 30.0957 104.726 29.291 103.779 29.291C102.937 29.291 102.516 30.1419 102.516 31.0344C102.516 31.9269 102.909 32.7778 103.756 32.7778C104.437 32.7778 104.858 32.4171 105.037 31.631H104.68C104.598 32.0795 104.264 32.4171 103.861 32.4171C103.17 32.4171 102.891 31.8252 102.882 31.1269H105.069Z" fill="#888888"/>
<path d="M109.225 31.0344C109.225 31.6402 108.955 32.4171 108.273 32.4171C107.591 32.4171 107.321 31.6448 107.321 31.0344C107.321 30.424 107.591 29.6517 108.273 29.6517C108.955 29.6517 109.225 30.424 109.225 31.0344ZM108.273 29.291C107.371 29.291 106.955 30.1697 106.955 31.0344C106.955 31.8992 107.376 32.7778 108.273 32.7778C109.17 32.7778 109.591 31.8992 109.591 31.0344C109.591 30.1697 109.17 29.291 108.273 29.291Z" fill="#888888"/>
<path d="M110.419 32.6805V29.7532H109.852V29.3925H110.419V28.6896C110.419 28.1254 110.616 27.8711 111.105 27.8711C111.211 27.8711 111.325 27.9173 111.426 27.9451V28.2595C111.357 28.2457 111.284 28.2318 111.215 28.2318C110.753 28.2318 110.744 28.5 110.762 28.9717V29.3925H111.403V29.7532H110.762V32.6805H110.424H110.419Z" fill="#888888"/>
<path d="M113.874 30.4284H114.551C115.315 30.4284 115.874 30.5533 115.874 31.3579C115.874 32.084 115.466 32.3013 114.766 32.2874H113.869V30.4284H113.874ZM113.874 30.0353V28.3474H114.743C115.224 28.3567 115.709 28.4908 115.709 29.1798C115.709 29.8226 115.233 30.0353 114.757 30.0353H113.874ZM115.059 32.6805C115.942 32.6805 116.267 32.0423 116.267 31.418C116.267 30.7429 115.896 30.3221 115.343 30.2203V30.2064C115.773 30.0862 116.098 29.6608 116.098 29.1382C116.098 28.3844 115.567 27.959 114.967 27.959H113.508V32.6805H115.059Z" fill="#888888"/>
<path d="M117.388 29.3925V32.6805H117.049V29.3925H117.388ZM117.415 28.4399H117.021V27.9497H117.415V28.4399Z" fill="#888888"/>
<path d="M120.252 31.0344C120.252 31.6402 119.982 32.4171 119.3 32.4171C118.618 32.4171 118.348 31.6448 118.348 31.0344C118.348 30.424 118.618 29.6517 119.3 29.6517C119.982 29.6517 120.252 30.424 120.252 31.0344ZM119.3 29.291C118.399 29.291 117.982 30.1697 117.982 31.0344C117.982 31.8992 118.399 32.7778 119.3 32.7778C120.202 32.7778 120.618 31.8992 120.618 31.0344C120.618 30.1697 120.202 29.291 119.3 29.291Z" fill="#888888"/>
<path d="M122.147 29.2956C122.677 29.2956 123.13 29.513 123.176 30.2066H122.81C122.778 29.7951 122.458 29.6563 122.11 29.6563C121.794 29.6563 121.474 29.7997 121.474 30.1835C121.474 30.6691 122.023 30.6228 122.787 30.9373C123.08 31.0575 123.268 31.3489 123.268 31.705C123.268 32.4449 122.677 32.7778 122.078 32.7778C121.588 32.7778 121.025 32.5096 121.012 31.7836H121.378C121.405 32.2738 121.776 32.4171 122.16 32.4171C122.522 32.4171 122.897 32.2229 122.897 31.7604C122.897 31.298 122.453 31.2101 122 31.0899C121.556 30.9651 121.103 30.8171 121.103 30.2066C121.103 29.5269 121.643 29.291 122.142 29.291L122.147 29.2956Z" fill="#888888"/>
<path d="M125.697 30.4006C125.67 29.8966 125.391 29.6515 124.924 29.6515C124.407 29.6515 124.082 30.2804 124.082 31.0249C124.082 31.7694 124.403 32.4122 124.924 32.4122C125.363 32.4122 125.67 32.0978 125.697 31.6492H126.064C125.972 32.3984 125.601 32.7729 124.961 32.7729C124.114 32.7729 123.721 31.9267 123.721 31.0295C123.721 30.1324 124.142 29.2861 124.984 29.2861C125.565 29.2861 126.036 29.6931 126.064 30.3914H125.697V30.4006Z" fill="#888888"/>
<path d="M126.96 29.3925V32.6805H126.621V29.3925H126.96ZM126.987 28.4399H126.594V27.9497H126.987V28.4399Z" fill="#888888"/>
<path d="M127.962 30.7662C128.008 30.1928 128.3 29.6517 128.854 29.6517C129.44 29.6517 129.733 30.1327 129.774 30.7662H127.966H127.962ZM130.135 31.1269C130.135 30.0957 129.792 29.291 128.845 29.291C128.008 29.291 127.582 30.1419 127.582 31.0344C127.582 31.9269 127.976 32.7778 128.822 32.7778C129.504 32.7778 129.925 32.4171 130.099 31.631H129.746C129.664 32.0795 129.33 32.4171 128.927 32.4171C128.232 32.4171 127.957 31.8252 127.948 31.1269H130.135Z" fill="#888888"/>
<path d="M131.116 32.6805H130.777V30.1324C130.777 29.8781 130.759 29.6145 130.75 29.3925H131.098L131.116 29.8781L131.13 29.892C131.327 29.485 131.647 29.2954 132.013 29.2954C132.937 29.2954 133.01 30.2434 133.01 30.6226V32.6805H132.672V30.5579C132.672 29.9891 132.393 29.6515 131.926 29.6515C131.368 29.6515 131.116 30.1925 131.116 30.7845V32.6759V32.6805Z" fill="#888888"/>
<path d="M135.953 30.4006C135.925 29.6977 135.454 29.2954 134.868 29.2954C134.031 29.2954 133.605 30.1463 133.605 31.0388C133.605 31.9313 134.004 32.7822 134.846 32.7822C135.486 32.7822 135.857 32.4076 135.948 31.6585H135.582C135.55 32.1071 135.248 32.4215 134.809 32.4215C134.292 32.4215 133.967 31.788 133.967 31.0342C133.967 30.2804 134.287 29.6607 134.809 29.6607C135.276 29.6607 135.55 29.9012 135.582 30.4099H135.948L135.953 30.4006Z" fill="#888888"/>
<path d="M136.711 30.7662C136.757 30.1928 137.05 29.6517 137.603 29.6517C138.189 29.6517 138.482 30.1327 138.523 30.7662H136.711ZM138.889 31.1269C138.889 30.0957 138.546 29.291 137.599 29.291C136.757 29.291 136.336 30.1419 136.336 31.0344C136.336 31.9269 136.734 32.7778 137.576 32.7778C138.258 32.7778 138.683 32.4171 138.857 31.631H138.505C138.423 32.0795 138.088 32.4171 137.69 32.4171C136.999 32.4171 136.72 31.8252 136.711 31.1269H138.898H138.889Z" fill="#888888"/>
<path d="M141.1 31.7651C141.1 30.9373 142.103 31.0437 142.583 31.0252C142.62 31.7096 142.478 32.4218 141.736 32.4218C141.393 32.4218 141.1 32.209 141.1 31.7651ZM142.583 30.6645C142.171 30.6922 141.682 30.6229 141.302 30.8171C140.968 30.9836 140.734 31.3212 140.734 31.7651C140.734 32.4033 141.151 32.7825 141.677 32.7825C142.057 32.7825 142.437 32.5235 142.56 32.246L142.578 32.1998H142.588L142.601 32.6854H142.949C142.94 32.4634 142.917 32.1998 142.922 31.9455V30.387C142.931 29.6332 142.546 29.3003 141.92 29.3003C141.38 29.3003 140.945 29.5546 140.858 30.2298H141.219C141.265 29.7859 141.558 29.661 141.915 29.661C142.313 29.661 142.551 29.8321 142.583 30.3685V30.6691V30.6645Z" fill="#888888"/>
<path d="M144.024 32.6805H143.686V30.1324C143.686 29.8781 143.667 29.6145 143.658 29.3925H144.006L144.024 29.8781L144.033 29.892C144.23 29.485 144.555 29.2954 144.917 29.2954C145.841 29.2954 145.914 30.2434 145.914 30.6226V32.6805H145.575V30.5579C145.575 29.9891 145.296 29.6515 144.83 29.6515C144.271 29.6515 144.02 30.1925 144.02 30.7845V32.6759L144.024 32.6805Z" fill="#888888"/>
<path d="M148.65 30.9556C148.65 31.7047 148.421 32.4169 147.684 32.4169C147.035 32.4169 146.884 31.5845 146.884 30.9787C146.884 30.3729 147.094 29.6561 147.735 29.6561C148.375 29.6561 148.65 30.2897 148.65 30.9602V30.9556ZM148.677 32.6759H149.025C149.011 32.4539 148.998 32.1903 148.998 31.9359V27.9497H148.659V29.8735L148.65 29.8873C148.449 29.4989 148.055 29.2908 147.68 29.2908C146.838 29.2908 146.518 30.1694 146.518 31.0203C146.518 31.8712 146.838 32.773 147.68 32.773C148.073 32.773 148.417 32.5602 148.65 32.1625L148.659 32.1857L148.677 32.6712V32.6759Z" fill="#888888"/>
<path d="M151.666 30.4284H152.338C153.107 30.4284 153.665 30.5533 153.665 31.3579C153.665 32.084 153.258 32.3013 152.558 32.2874H151.666V30.4284ZM151.666 30.0353V28.3474H152.535C153.011 28.3567 153.496 28.4908 153.496 29.1798C153.496 29.8226 153.025 30.0353 152.549 30.0353H151.666ZM152.846 32.6805C153.734 32.6805 154.059 32.0423 154.059 31.418C154.059 30.7429 153.688 30.3221 153.134 30.2203V30.2064C153.565 30.0862 153.889 29.6608 153.889 29.1382C153.889 28.3844 153.359 27.959 152.755 27.959H151.295V32.6805H152.846Z" fill="#888888"/>
<path d="M155.203 27.9497H154.805V28.4399H155.203V27.9497ZM154.832 29.3925V32.6805H155.171V29.3925H154.832Z" fill="#888888"/>
<path d="M158.039 31.0344C158.039 31.6402 157.769 32.4171 157.087 32.4171C156.406 32.4171 156.136 31.6448 156.136 31.0344C156.136 30.424 156.406 29.6517 157.087 29.6517C157.769 29.6517 158.039 30.424 158.039 31.0344ZM157.087 29.291C156.186 29.291 155.77 30.1697 155.77 31.0344C155.77 31.8992 156.186 32.7778 157.087 32.7778C157.989 32.7778 158.405 31.8992 158.405 31.0344C158.405 30.1697 157.989 29.291 157.087 29.291Z" fill="#888888"/>
<path d="M159.233 29.7533H158.67V29.3926H159.233V28.6897L159.571 28.5186V29.3879H160.217V29.7486H159.571V31.9452C159.571 32.2458 159.704 32.4123 159.96 32.4123C160.061 32.4123 160.162 32.4031 160.253 32.3753V32.7175C160.148 32.7453 160.024 32.773 159.91 32.773C159.196 32.773 159.237 32.2412 159.237 31.7973V29.7486L159.233 29.7533Z" fill="#888888"/>
<path d="M160.963 30.7662C161.009 30.1928 161.302 29.6517 161.855 29.6517C162.441 29.6517 162.734 30.1327 162.771 30.7662H160.963ZM163.141 31.1269C163.141 30.0957 162.798 29.291 161.851 29.291C161.013 29.291 160.588 30.1419 160.588 31.0344C160.588 31.9269 160.986 32.7778 161.828 32.7778C162.51 32.7778 162.931 32.4171 163.105 31.631H162.748C162.665 32.0795 162.331 32.4171 161.933 32.4171C161.238 32.4171 160.963 31.8252 160.954 31.1269H163.141Z" fill="#888888"/>
<path d="M165.561 30.4006C165.534 29.8966 165.255 29.6515 164.788 29.6515C164.271 29.6515 163.946 30.2804 163.946 31.0249C163.946 31.7694 164.266 32.4122 164.788 32.4122C165.227 32.4122 165.534 32.0978 165.561 31.6492H165.927C165.836 32.3984 165.465 32.7729 164.82 32.7729C163.974 32.7729 163.58 31.9267 163.58 31.0295C163.58 30.1324 164.006 29.2861 164.843 29.2861C165.424 29.2861 165.895 29.6931 165.927 30.3914H165.561V30.4006Z" fill="#888888"/>
<path d="M166.82 29.892H166.834C167.031 29.485 167.351 29.2954 167.717 29.2954C168.642 29.2954 168.715 30.2434 168.715 30.6226V32.6805H168.381V30.5579C168.381 29.9891 168.097 29.6515 167.635 29.6515C167.077 29.6515 166.825 30.1925 166.825 30.7845V32.6759H166.486V27.9497H166.825V29.8873L166.82 29.892Z" fill="#888888"/>
<path d="M169.845 32.6805H169.506V30.1324C169.506 29.8781 169.492 29.6145 169.479 29.3925H169.831L169.849 29.8781L169.858 29.892C170.055 29.485 170.375 29.2954 170.746 29.2954C171.67 29.2954 171.744 30.2434 171.744 30.6226V32.6805H171.405V30.5579C171.405 29.9891 171.121 29.6515 170.659 29.6515C170.101 29.6515 169.849 30.1925 169.849 30.7845V32.6759L169.845 32.6805Z" fill="#888888"/>
<path d="M174.594 31.0344C174.594 31.6402 174.324 32.4171 173.642 32.4171C172.96 32.4171 172.69 31.6448 172.69 31.0344C172.69 30.424 172.96 29.6517 173.642 29.6517C174.324 29.6517 174.594 30.424 174.594 31.0344ZM173.642 29.291C172.736 29.291 172.324 30.1697 172.324 31.0344C172.324 31.8992 172.741 32.7778 173.642 32.7778C174.543 32.7778 174.96 31.8992 174.96 31.0344C174.96 30.1697 174.543 29.291 173.642 29.291Z" fill="#888888"/>
<path d="M175.889 32.6807H175.551V27.9546H175.889V32.6807Z" fill="#888888"/>
<path d="M178.754 31.0344C178.754 31.6402 178.484 32.4171 177.802 32.4171C177.12 32.4171 176.85 31.6448 176.85 31.0344C176.85 30.424 177.12 29.6517 177.802 29.6517C178.484 29.6517 178.754 30.424 178.754 31.0344ZM177.802 29.291C176.896 29.291 176.484 30.1697 176.484 31.0344C176.484 31.8992 176.901 32.7778 177.802 32.7778C178.704 32.7778 179.12 31.8992 179.12 31.0344C179.12 30.1697 178.704 29.291 177.802 29.291Z" fill="#888888"/>
<path d="M181.66 30.9648C181.66 31.6076 181.413 32.3059 180.764 32.3059C180.114 32.3059 179.88 31.5799 179.88 30.9787C179.88 30.3775 180.137 29.6561 180.754 29.6561C181.372 29.6561 181.66 30.3359 181.66 30.9648ZM181.66 29.8781L181.647 29.9058C181.418 29.5266 181.125 29.2954 180.718 29.2954C179.853 29.2954 179.51 30.1232 179.51 31.0111C179.51 31.899 179.876 32.6666 180.727 32.6666C181.093 32.6666 181.482 32.4354 181.647 32.0516H181.66V32.6666C181.647 33.2169 181.244 33.5776 180.805 33.5776C180.443 33.5776 180.045 33.4435 180.004 33.0551H179.638C179.638 33.7348 180.246 33.9383 180.759 33.9383C181.024 33.9383 181.175 33.9106 181.404 33.7903C182.031 33.4481 182.004 32.7591 182.004 32.1071V30.1371C182.004 29.8827 182.022 29.6191 182.031 29.3971H181.683L181.665 29.8827L181.66 29.8781Z" fill="#888888"/>
<path d="M182.734 29.3926L183.686 32.1441L184.633 29.3926H184.999L183.439 33.9384H183.068L183.494 32.6805L182.322 29.3926H182.734Z" fill="#888888"/>
<path d="M102.621 11.1543V12.8931H105.206V14.1417H102.621V15.8804H105.206V18.5395H106.927V11.1543H102.621Z" fill="#888888"/>
<path d="M152.064 18.5395H153.789V11.1543H149.479V12.8931H152.064V14.1417H149.479V15.8804H152.064V18.5395Z" fill="#888888"/>
<path d="M100.233 11.1543H94.7285V16.3475H100.233V11.1543ZM96.449 14.6041V12.8931H98.5127V14.6041H96.449Z" fill="#888888"/>
<path d="M125.615 19.9404V21.6838H135.819V24.7822H137.54V19.9404H125.615Z" fill="#888888"/>
<path d="M143.478 19.9407H141.758V24.4263H153.916V22.6829H143.478V19.936V19.9407Z" fill="#888888"/>
<path d="M144.536 16.4816C146.037 16.4816 147.249 15.2469 147.249 13.7347C147.249 12.2225 146.032 10.9878 144.536 10.9878C143.039 10.9878 141.822 12.2179 141.822 13.7347C141.822 15.2515 143.044 16.4816 144.536 16.4816ZM144.536 12.7312C145.085 12.7312 145.529 13.1798 145.529 13.7347C145.529 14.2896 145.085 14.7382 144.536 14.7382C143.987 14.7382 143.547 14.2896 143.547 13.7347C143.547 13.1798 143.991 12.7312 144.536 12.7312Z" fill="#888888"/>
<path d="M174.553 22.6873V19.9404H172.828V24.4261H184.744V22.6827H174.549L174.553 22.6873Z" fill="#888888"/>
<path d="M177.368 16.1067C178.814 16.1067 179.99 14.9182 179.99 13.4569C179.99 11.9956 178.814 10.8071 177.368 10.8071C175.922 10.8071 174.746 11.9956 174.746 13.4569C174.746 14.9182 175.917 16.1067 177.368 16.1067ZM177.368 12.5413C177.862 12.5413 178.265 12.9482 178.265 13.4523C178.265 13.9564 177.862 14.3633 177.368 14.3633C176.874 14.3633 176.471 13.9517 176.471 13.4523C176.471 12.9529 176.874 12.5413 177.368 12.5413Z" fill="#888888"/>
<path d="M102.177 19.2744C100.585 19.2744 99.2988 20.5831 99.2988 22.1878C99.2988 23.7925 100.589 25.1012 102.177 25.1012C103.765 25.1012 105.064 23.7971 105.064 22.1878C105.064 20.5785 103.769 19.2744 102.177 19.2744ZM102.177 23.3624C101.536 23.3624 101.015 22.8398 101.015 22.1878C101.015 21.5357 101.536 21.0132 102.177 21.0132C102.818 21.0132 103.344 21.5404 103.344 22.1878C103.344 22.8352 102.822 23.3624 102.177 23.3624Z" fill="#888888"/>
<path d="M117.031 19.2744C115.443 19.2744 114.148 20.5831 114.148 22.1878C114.148 23.7925 115.443 25.1012 117.031 25.1012C118.619 25.1012 119.914 23.7971 119.914 22.1878C119.914 20.5785 118.619 19.2744 117.031 19.2744ZM117.031 23.3624C116.391 23.3624 115.869 22.8398 115.869 22.1878C115.869 21.5357 116.395 21.0132 117.031 21.0132C117.667 21.0132 118.193 21.5404 118.193 22.1878C118.193 22.8352 117.672 23.3624 117.031 23.3624Z" fill="#888888"/>
<path d="M86.9258 11.1543V18.5395H88.6509V12.8931H90.1334V18.5395H91.8494V11.1543H86.9258Z" fill="#888888"/>
<path d="M135.504 11.1543V18.5395H137.229V12.8931H139.682V11.1543H135.508H135.504Z" fill="#888888"/>
<path d="M86.2851 19.2744C84.6927 19.2744 83.4023 20.5831 83.4023 22.1878C83.4023 23.7925 84.6973 25.1012 86.2851 25.1012C87.8729 25.1012 89.1724 23.7971 89.1724 22.1878C89.1724 20.5785 87.8775 19.2744 86.2851 19.2744ZM86.2851 23.3624C85.6445 23.3624 85.1183 22.8398 85.1183 22.1878C85.1183 21.5357 85.6445 21.0132 86.2851 21.0132C86.9257 21.0132 87.4474 21.5404 87.4474 22.1878C87.4474 22.8352 86.9257 23.3624 86.2851 23.3624Z" fill="#888888"/>
<path d="M121.131 16.329V11.1543H112.574V12.8931H119.406V16.329H117.113V14.0908H115.388V16.329H108.959V18.0678H124.544V16.329H121.126H121.131Z" fill="#888888"/>
<path d="M73.1758 16.1625V11.1543H64.9851V12.8931H71.4553V16.1579H61.2695V17.8967H68.1287V19.936H63.1273V21.6794H72.7411V24.7778H74.4616V19.936H69.8492V17.8967H77.0652V16.1579H73.1712L73.1758 16.1625Z" fill="#888888"/>
<path d="M176.618 21.3881H178.338V18.544H182.868V19.5892H180.416V21.3279H184.589V10.9785H182.868V16.8006H172.289V18.544H176.618V21.3881Z" fill="#888888"/>
<path d="M167.392 16.8005V11.1587H159.014V12.8975H165.671V16.8005H155.316V18.5439H162.372V24.7822H164.093V18.5439H170.847V16.8005H167.392Z" fill="#888888"/>
<path d="M47.9963 14.1413C47.9963 15.5564 49.1357 16.7078 50.5359 16.7078C51.9361 16.7078 53.0754 15.5564 53.0754 14.1413C53.0754 13.7482 52.9839 13.3783 52.8283 13.0453H54.4711V11.4453H51.3458V10.0024H49.6253V11.4453H46.5V13.0453H48.2434C48.0832 13.3783 47.9963 13.7482 47.9963 14.1413ZM50.5359 14.9691C50.0829 14.9691 49.7168 14.5945 49.7168 14.1413C49.7168 13.6881 50.0829 13.3135 50.5359 13.3135C50.9889 13.3135 51.3549 13.6835 51.3549 14.1413C51.3549 14.5991 50.9889 14.9691 50.5359 14.9691Z" fill="#888888"/>
<path d="M126.938 14.1413C126.938 15.5564 128.077 16.7078 129.477 16.7078C130.877 16.7078 132.017 15.5564 132.017 14.1413C132.017 13.7482 131.925 13.3783 131.77 13.0453H133.417V11.4453H130.292V10.0024H128.567V11.4453H125.441V13.0453H127.185C127.029 13.3783 126.938 13.7482 126.938 14.1413ZM129.477 14.9691C129.024 14.9691 128.658 14.5945 128.658 14.1413C128.658 13.6881 129.024 13.3135 129.477 13.3135C129.93 13.3135 130.296 13.6835 130.296 14.1413C130.296 14.5991 129.93 14.9691 129.477 14.9691Z" fill="#888888"/>
<path d="M56.9277 11.1543V18.5395H58.6482V12.8931H61.1009V11.1543H56.9277Z" fill="#888888"/>
<path d="M48.4217 19.9407H46.7012V24.4263H59.2801V22.6829H48.4217V19.936V19.9407Z" fill="#888888"/>
<path d="M85.5862 14.7381L81.5275 10.6362L77.4688 14.7381L78.6859 15.9728C78.6859 15.9728 80.7771 13.8594 81.5275 13.101C82.2779 13.8594 84.3645 15.9728 84.3645 15.9728L85.5817 14.7381H85.5862Z" fill="#888888"/>
</g>
<defs>
<clipPath id="clip0_999_5068">
<rect width="185" height="41" fill="white"/>
</clipPath>
</defs>
</svg>
