<svg width="197" height="39" viewBox="0 0 197 39" fill="none" xmlns="http://www.w3.org/2000/svg">
<g clip-path="url(#clip0_999_5146)">
<path d="M29.5515 18.6341C26.2286 16.3889 21.9678 17.3046 19.7332 20.6801C17.8652 23.5 15.0479 23.8487 13.9556 23.8487C10.4011 23.8487 7.96583 21.3659 7.24412 18.795C7.2364 18.7682 7.23254 18.749 7.22483 18.7222C7.21711 18.6916 7.20939 18.6648 7.20167 18.6341C6.91993 17.5613 6.8466 17.0479 6.8466 15.91C6.8466 9.76437 13.1992 2.92146 22.346 2.92146C31.4928 2.92146 37.0735 10.0019 38.4552 13.9368C38.4321 13.8678 38.4089 13.7989 38.3857 13.7261C35.7305 6.03257 28.3783 0.5 19.7255 0.5C8.8342 0.5 0 9.26628 0 20.0824C0 29.749 7.02414 38.0249 16.7653 38.0249C24.5343 38.0249 29.76 33.6992 32.1528 27.7414C33.4688 24.4808 32.5349 20.6494 29.5515 18.6379V18.6341Z" fill="#888888"/>
<path d="M38.5817 14.3199C37.4316 10.4808 32.0284 2.92529 22.349 2.92529C13.1983 2.92529 6.84961 9.7682 6.84961 15.9138C6.84961 17.0517 6.91908 17.5651 7.20468 18.6379C7.08503 18.1705 7.02328 17.6992 7.02328 17.2395C7.02328 10.841 13.4801 6.40422 20.1144 6.40422C29.0991 6.40422 36.378 13.6341 36.378 22.5498C36.378 29.5421 32.3256 35.592 26.4361 38.4962C34.0238 35.772 39.4462 28.5575 39.4462 20.0824C39.4462 18.0785 39.1761 16.3084 38.5779 14.3199H38.5817Z" fill="#A7A7A7"/>
<path d="M62.1683 24.7873V26.546H51.7324V24.7873H55.0129V19.5804H56.9967V24.7873H62.1683ZM59.1965 22.9406V14.8908H52.3306V13.1475H61.161V22.9406H59.1965ZM65.3948 28.1283H63.3956V12.2739H65.3948V18.9559H67.448V20.8218H65.3948V28.1245V28.1283Z" fill="#888888"/>
<path d="M77.3511 13.2702V14.9752H67.9805V13.2702H71.6585V11.9561H73.7657V13.2702H77.3511ZM68.6481 22.7223H81.2993V27.9829H79.3156V24.4656H68.6481V22.7262V22.7223ZM76.4326 18.6534C76.4326 19.117 76.3322 19.5538 76.1354 19.9676C75.9386 20.3813 75.6761 20.7453 75.352 21.0518C75.0046 21.3469 74.6071 21.5882 74.1633 21.7721C73.7194 21.9561 73.237 22.048 72.7198 22.048C72.2027 22.048 71.7202 21.9561 71.2687 21.7721C70.8171 21.5882 70.4235 21.3469 70.0877 21.0518C69.7519 20.7453 69.4856 20.3813 69.285 19.9676C69.0881 19.5538 68.9878 19.1131 68.9878 18.6534C68.9878 18.1936 69.0881 17.7568 69.285 17.3469C69.4818 16.9369 69.7519 16.5806 70.0877 16.2702C70.4235 15.9752 70.8171 15.7338 71.2687 15.5499C71.7202 15.366 72.2027 15.2741 72.7198 15.2741C73.237 15.2741 73.7156 15.366 74.1633 15.5499C74.6071 15.7338 75.0046 15.9752 75.352 16.2702C75.6761 16.5767 75.9386 16.9369 76.1354 17.3469C76.3322 17.7568 76.4326 18.1898 76.4326 18.6534ZM74.5222 18.6342C74.5222 18.1591 74.3446 17.753 73.9896 17.4158C73.6345 17.0787 73.21 16.9101 72.7198 16.9101C72.2297 16.9101 71.8051 17.0787 71.4578 17.4158C71.1105 17.753 70.9368 18.1591 70.9368 18.6342C70.9368 19.1093 71.1105 19.5154 71.4578 19.8603C71.8051 20.2051 72.2258 20.3775 72.7198 20.3775C73.2138 20.3775 73.6345 20.2051 73.9896 19.8603C74.3446 19.5154 74.5222 19.1093 74.5222 18.6342ZM81.2993 21.8335H79.3156V12.2741H81.2993V15.9867H83.6072V17.9216H81.2993V21.8296V21.8335Z" fill="#888888"/>
<path d="M92.6177 26.0479H90.6186V15.0287H84.4551V13.2509H92.6177V26.044V26.0479ZM96.6354 12.2739H98.6346V28.1245H96.6354V12.2739Z" fill="#888888"/>
<path d="M107.204 21.2662V20.0402H100.824V18.4233H115.602V20.0402H109.203V21.2662H114.413V25.2815H103.977V26.2394H114.629V27.8562H102.013V23.7336H112.429V22.8256H102.013V21.2624H107.204V21.2662ZM108.215 14.1398L102.592 18.067L101.403 16.6992L108.215 11.9712L115.027 16.6992L113.838 18.067L108.215 14.1398Z" fill="#888888"/>
<path d="M117.049 14.4273V12.7376H126.276V14.4273H122.348L126.439 19.3506L125.049 20.4886L121.734 16.4196L118.473 20.7568L117.029 19.6188L121.12 14.4311H117.049V14.4273ZM129.827 24.7529C129.827 25.2855 129.715 25.7874 129.495 26.2548C129.271 26.7223 128.974 27.1361 128.604 27.4886C128.229 27.8449 127.789 28.1246 127.28 28.3315C126.77 28.5384 126.226 28.6418 125.647 28.6418C125.068 28.6418 124.544 28.5384 124.026 28.3315C123.509 28.1246 123.065 27.8411 122.691 27.4886C122.317 27.1322 122.02 26.7223 121.8 26.2548C121.576 25.7874 121.468 25.2855 121.468 24.7529C121.468 24.2204 121.58 23.7184 121.8 23.251C122.023 22.7836 122.321 22.3698 122.691 22.0173C123.062 21.661 123.509 21.3813 124.026 21.1744C124.544 20.9675 125.084 20.864 125.647 20.864C126.211 20.864 126.767 20.9675 127.28 21.1744C127.789 21.3813 128.233 21.6648 128.604 22.0173C128.974 22.3736 129.271 22.7836 129.495 23.251C129.719 23.7184 129.827 24.2204 129.827 24.7529ZM127.863 24.7338C127.863 24.1399 127.643 23.6303 127.207 23.205C126.767 22.7797 126.242 22.5652 125.628 22.5652C125.014 22.5652 124.509 22.7797 124.077 23.205C123.644 23.6303 123.428 24.1399 123.428 24.7338C123.428 25.3276 123.644 25.8487 124.077 26.2702C124.509 26.6916 125.026 26.9024 125.628 26.9024C126.23 26.9024 126.767 26.6916 127.207 26.2702C127.647 25.8487 127.863 25.3353 127.863 24.7338ZM129.198 20.6801V17.251H126.207V15.546H129.198V12.2778H131.197V20.684H129.198V20.6801Z" fill="#888888"/>
<path d="M144.99 15.3851V12.9521H146.974V22.0135H141.764V25.2127H148.162V26.9521H133.385V25.2127H139.764V22.0135H134.573V12.9521H136.538V15.3851H144.99ZM144.99 20.2893V17.0901H136.538V20.2893H144.99Z" fill="#888888"/>
<path d="M150.853 18.868V12.4351H163.234V14.0328H152.837V14.868H163.164V16.4159H152.837V17.3048H163.288V18.868H158.043V19.8795H164.442V21.4964H149.664V19.8795H156.044V18.868H150.853ZM160.98 25.3354C160.98 25.8105 160.88 26.2588 160.683 26.6764C160.486 27.0979 160.212 27.4657 159.864 27.7875C159.49 28.1056 159.069 28.3623 158.595 28.55C158.12 28.7377 157.607 28.8335 157.055 28.8335C156.503 28.8335 156.005 28.7377 155.523 28.55C155.04 28.3584 154.623 28.1056 154.261 27.7875C153.902 27.4695 153.62 27.0979 153.423 26.6764C153.226 26.255 153.126 25.8105 153.126 25.3354C153.126 24.8603 153.226 24.4006 153.423 23.9868C153.62 23.573 153.902 23.1975 154.261 22.868C154.62 22.55 155.04 22.2971 155.523 22.1132C156.001 21.9293 156.515 21.8374 157.055 21.8374C157.595 21.8374 158.12 21.9293 158.595 22.1132C159.069 22.2971 159.494 22.55 159.864 22.868C160.212 23.2013 160.486 23.573 160.683 23.9868C160.88 24.4006 160.98 24.8527 160.98 25.3354ZM158.996 25.3163C158.996 24.7952 158.803 24.3508 158.421 23.983C158.035 23.6151 157.58 23.4312 157.051 23.4312C156.522 23.4312 156.063 23.6151 155.673 23.983C155.283 24.3508 155.087 24.7952 155.087 25.3163C155.087 25.8374 155.283 26.2856 155.673 26.6573C156.063 27.0289 156.522 27.2167 157.051 27.2167C157.58 27.2167 158.035 27.0289 158.421 26.6573C158.807 26.2856 158.996 25.8374 158.996 25.3163Z" fill="#888888"/>
<path d="M170.772 12.186L175.836 20.2703L174.215 21.2665L170.772 15.5807L167.349 21.3929L165.689 20.3968L170.772 12.186ZM167.006 27.8067V22.5117H168.989V26.0673H180.182V27.8067H167.009H167.006ZM178.036 22.4236V12.278H180.035V22.4236H178.036Z" fill="#888888"/>
<path d="M182.219 22.2968H196.996V24.0362H190.598V28.1244H188.598V24.0362H182.219V22.2968ZM185.372 14.5497H193.824V12.542H195.808V20.1665H183.407V12.542H185.372V14.5497ZM193.824 16.2546H185.372V18.4385H193.824V16.2546Z" fill="#888888"/>
</g>
<defs>
<clipPath id="clip0_999_5146">
<rect width="197" height="38" fill="white" transform="translate(0 0.5)"/>
</clipPath>
</defs>
</svg>
