<svg width="188" height="37" viewBox="0 0 188 37" fill="none" xmlns="http://www.w3.org/2000/svg">
<g clip-path="url(#clip0_412_1647)">
<path d="M28.5706 18.0459C27.8248 17.5387 26.9813 17.186 26.0916 17.0094C25.2019 16.8327 24.2848 16.8358 23.3964 17.0185C22.5079 17.2011 21.6669 17.5595 20.9248 18.0717C20.1826 18.5839 19.555 19.2391 19.0803 19.9972C18.3846 21.0652 17.3875 21.9123 16.2099 22.4358C15.0323 22.9593 13.725 23.1366 12.4465 22.9461C11.1681 22.7557 9.97361 22.2057 9.00805 21.363C8.0425 20.5202 7.34742 19.421 7.00721 18.1987L6.98833 18.1303C6.98176 18.103 6.97191 18.0748 6.96616 18.0499C6.714 17.2065 6.59875 16.3296 6.62464 15.4511C6.62464 9.58755 12.7638 3.0588 21.6096 3.0588C30.6657 3.0588 35.8476 9.81517 37.1824 13.5682C37.1586 13.503 37.1381 13.4371 37.1143 13.3687C35.649 9.18563 32.717 5.6473 28.8395 3.383C24.962 1.1187 20.3905 0.275195 15.9379 1.00251C11.4854 1.72982 7.44047 3.9808 4.52252 7.35513C1.60458 10.7295 0.0027619 15.0084 0.00195312 19.4309C0.00195312 28.6542 6.79294 36.5495 16.211 36.5495C19.4285 36.6528 22.5974 35.7603 25.2678 33.9988C27.9381 32.2373 29.9742 29.6963 31.0868 26.7367C31.7421 25.2241 31.8498 23.5375 31.3922 21.9568C30.9345 20.376 29.9389 18.996 28.5706 18.0459Z" fill="#888888"/>
<path d="M37.2946 13.9276C36.1266 10.7623 33.9971 8.0234 31.1926 6.0795C28.388 4.13561 25.043 3.07999 21.6077 3.05469C12.7627 3.05469 6.62271 9.58344 6.62271 15.447C6.59682 16.3255 6.71206 17.2024 6.96423 18.0458C6.84995 17.6103 6.79068 17.1627 6.78772 16.713C6.78772 10.6065 13.027 6.37496 19.4445 6.37496C23.6146 6.37496 27.6139 7.99791 30.5626 10.8868C33.5114 13.7757 35.1681 17.6939 35.1683 21.7795C35.1712 24.9402 34.2736 28.0389 32.5767 30.727C30.8797 33.4151 28.4508 35.5859 25.5631 36.995V36.999C29.2481 35.6906 32.4323 33.3018 34.6825 30.1575C36.9328 27.0133 38.1398 23.2662 38.1394 19.426C38.1429 17.5619 37.8581 15.7081 37.2946 13.9276Z" fill="#A7A7A7"/>
<path d="M55.3668 14.8145V22.265H54.1354V16.2679L52.1355 22.265H50.9501L48.9502 16.2679V22.265H47.7188V14.8145H49.607L51.5403 20.6193L53.4786 14.8145H55.3668Z" fill="#888888"/>
<path d="M58.2858 15.2418C58.2856 15.3412 58.2645 15.4394 58.2239 15.5305C58.1832 15.6216 58.1238 15.7034 58.0494 15.771C57.9752 15.8438 57.887 15.9016 57.7899 15.941C57.6929 15.9804 57.5888 16.0007 57.4838 16.0007C57.3787 16.0007 57.2747 15.9804 57.1776 15.941C57.0806 15.9016 56.9924 15.8438 56.9181 15.771C56.8437 15.7034 56.7844 15.6216 56.7437 15.5305C56.703 15.4394 56.6819 15.3412 56.6817 15.2418C56.6804 15.1391 56.7008 15.0372 56.7415 14.9426C56.7821 14.8479 56.8423 14.7625 56.9181 14.6916C57.03 14.5825 57.1723 14.5082 57.3271 14.478C57.4819 14.4478 57.6424 14.463 57.7884 14.5218C57.9345 14.5805 58.0595 14.6802 58.148 14.8082C58.2365 14.9363 58.2845 15.0871 58.2858 15.2418ZM56.8689 22.2652V16.9099H58.1208V22.2652H56.8689Z" fill="#888888"/>
<path d="M60.8663 19.5713V22.265H59.625V16.9098H60.822V17.6256C60.9745 17.37 61.1946 17.1594 61.459 17.0159C61.7333 16.8603 62.0451 16.7792 62.3621 16.7811C62.6553 16.7688 62.9477 16.8201 63.2183 16.9313C63.4889 17.0426 63.7311 17.211 63.9277 17.4245C64.338 17.9071 64.5478 18.5234 64.5155 19.1506V22.2618H63.2635V19.4643C63.2953 19.0239 63.196 18.5838 62.9778 18.1975C62.88 18.0605 62.7478 17.9506 62.5938 17.8785C62.4399 17.8063 62.2696 17.7744 62.0994 17.7857C61.8838 17.7893 61.6746 17.8584 61.5009 17.9836C61.304 18.1192 61.1499 18.3062 61.0559 18.5233C60.9173 18.8554 60.8526 19.2127 60.8663 19.5713Z" fill="#888888"/>
<path d="M67.3874 15.2427C67.3872 15.3421 67.3661 15.4404 67.3254 15.5315C67.2847 15.6225 67.2254 15.7044 67.151 15.772C67.0767 15.8448 66.9885 15.9026 66.8915 15.942C66.7944 15.9814 66.6904 16.0017 66.5853 16.0017C66.4803 16.0017 66.3763 15.9814 66.2792 15.942C66.1821 15.9026 66.094 15.8448 66.0197 15.772C65.9453 15.7044 65.8859 15.6225 65.8453 15.5315C65.8046 15.4404 65.7835 15.3421 65.7833 15.2427C65.782 15.14 65.8024 15.0382 65.843 14.9435C65.8837 14.8489 65.9439 14.7635 66.0197 14.6926C66.094 14.6198 66.1821 14.562 66.2792 14.5226C66.3763 14.4832 66.4803 14.4629 66.5853 14.4629C66.6904 14.4629 66.7944 14.4832 66.8915 14.5226C66.9885 14.562 67.0767 14.6198 67.151 14.6926C67.2267 14.7635 67.2868 14.849 67.3275 14.9436C67.3682 15.0382 67.3886 15.1401 67.3874 15.2427ZM65.9704 22.2661V16.9109H67.2224V22.2661H65.9704Z" fill="#888888"/>
<path d="M68.2188 21.2707L68.9987 20.4905C69.1947 20.7609 69.4406 20.993 69.7236 21.175C69.9711 21.322 70.2551 21.3996 70.5445 21.3994C70.7915 21.4071 71.0362 21.3499 71.253 21.2337C71.339 21.1939 71.4119 21.1313 71.4634 21.0529C71.5149 20.9746 71.543 20.8837 71.5445 20.7905C71.5447 20.6996 71.5185 20.6106 71.4689 20.5338C71.4193 20.457 71.3484 20.3957 71.2645 20.357C71.0513 20.2422 70.8293 20.144 70.6004 20.0634C70.2999 19.9712 69.9923 19.8679 69.6776 19.7537C69.3193 19.6461 68.9967 19.4468 68.7433 19.1762C68.5494 18.9515 68.4442 18.6661 68.447 18.3719C68.4512 18.1475 68.5115 17.9275 68.6225 17.7312C68.7336 17.5349 68.892 17.3683 69.084 17.2458C69.5261 16.9496 70.0476 16.788 70.5831 16.7815C71.1187 16.7749 71.6442 16.9236 72.0937 17.2088C72.2907 17.358 72.4518 17.5477 72.5657 17.7646L71.7965 18.4885C71.7037 18.3283 71.5808 18.1867 71.4344 18.0711C71.1804 17.86 70.8552 17.7493 70.5224 17.7606C70.3256 17.7564 70.1322 17.8105 69.9674 17.9158C69.8988 17.9521 69.841 18.0052 69.7996 18.0699C69.7581 18.1346 69.7345 18.2087 69.731 18.285C69.7347 18.3681 69.7611 18.4486 69.8075 18.5182C69.8538 18.5878 69.9184 18.644 69.9945 18.6808C70.24 18.8159 70.5021 18.92 70.7744 18.9904C70.8992 19.0266 71.0412 19.0708 71.2029 19.1183C71.6547 19.2432 72.0703 19.4702 72.4163 19.7811C72.5486 19.9074 72.6532 20.0587 72.7237 20.2259C72.7943 20.3931 72.8294 20.5726 72.8268 20.7535C72.8207 20.9828 72.7577 21.2072 72.6433 21.4073C72.5289 21.6074 72.3664 21.7772 72.17 21.9021C71.6796 22.2403 71.0887 22.41 70.4895 22.3847C69.9576 22.3948 69.4331 22.2615 68.9732 21.9994C68.668 21.8164 68.4099 21.567 68.2188 21.2707Z" fill="#888888"/>
<path d="M75.4014 15.1895V16.9107H76.5959V17.8944H75.399V20.6203C75.3872 20.717 75.3984 20.8152 75.4317 20.907C75.465 20.9988 75.5196 21.0818 75.5911 21.1495C75.7513 21.255 75.9426 21.3059 76.1354 21.2943H76.5967V22.266H75.839C75.3723 22.3066 74.9077 22.1685 74.5427 21.8807C74.3985 21.7275 74.2881 21.5469 74.2182 21.3502C74.1483 21.1534 74.1204 20.9447 74.1363 20.7369V17.8936H73.1914V16.9107H74.1363V15.1895H75.4014Z" fill="#888888"/>
<path d="M77.6172 22.2656V16.9104H78.7928V17.7147C78.9632 17.462 79.1929 17.253 79.4627 17.1051C79.7992 16.914 80.183 16.8177 80.5718 16.8268H80.6597V17.9174H80.5275C80.2995 17.9064 80.0716 17.9415 79.858 18.0205C79.6445 18.0995 79.4498 18.2207 79.2862 18.3767C78.9678 18.7736 78.8147 19.274 78.8576 19.777V22.2705L77.6172 22.2656Z" fill="#888888"/>
<path d="M83.2598 22.0627L81.0957 16.9102H82.392L83.8853 20.5658L85.3688 16.9102H86.6544L83.5898 24.3502H82.3156L83.2598 22.0627Z" fill="#888888"/>
<path d="M92.7255 22.3946C92.3448 22.4019 91.9664 22.3345 91.6126 22.1964C91.2589 22.0582 90.9369 21.8522 90.6657 21.5902C90.396 21.3292 90.182 21.0184 90.0358 20.6757C89.8897 20.333 89.8145 19.9653 89.8145 19.5939C89.8145 19.2225 89.8897 18.8548 90.0358 18.5121C90.182 18.1694 90.396 17.8586 90.6657 17.5976C91.2206 17.0762 91.9596 16.7852 92.7284 16.7852C93.4971 16.7852 94.2362 17.0762 94.7911 17.5976C95.0596 17.8592 95.2728 18.1702 95.4182 18.5128C95.5636 18.8554 95.6385 19.2228 95.6385 19.5939C95.6385 19.965 95.5636 20.3324 95.4182 20.675C95.2728 21.0176 95.0596 21.3286 94.7911 21.5902C94.5194 21.8531 94.1965 22.0598 93.8416 22.1979C93.4868 22.3361 93.1072 22.403 92.7255 22.3946ZM92.7255 21.39C92.9462 21.3916 93.1647 21.3471 93.3664 21.2594C93.5681 21.1717 93.7485 21.043 93.8954 20.8816C94.2265 20.5332 94.4036 20.0706 94.3879 19.5947C94.401 19.1193 94.2243 18.6576 93.8954 18.3078C93.7504 18.1448 93.5714 18.0142 93.3705 17.9247C93.1696 17.8352 92.9515 17.7889 92.7308 17.7889C92.5102 17.7889 92.2921 17.8352 92.0912 17.9247C91.8903 18.0142 91.7113 18.1448 91.5663 18.3078C91.2372 18.6575 91.0605 19.1192 91.0737 19.5947C91.0579 20.0706 91.235 20.5333 91.5663 20.8816C91.7115 21.0422 91.89 21.1707 92.0899 21.2583C92.2898 21.346 92.5065 21.3909 92.7255 21.39Z" fill="#888888"/>
<path d="M96.9734 15.8415C96.9575 15.6314 96.988 15.4203 97.063 15.2228C97.1379 15.0253 97.2555 14.8459 97.4077 14.697C97.785 14.4127 98.2566 14.2758 98.7311 14.3125H99.3353V15.2849H98.9724C98.7799 15.2732 98.5889 15.3241 98.4289 15.4297C98.3574 15.4974 98.3028 15.5804 98.2694 15.6722C98.2361 15.7641 98.225 15.8622 98.2369 15.959V16.9105H99.3353V17.8942H98.2369V22.2665H96.9742V17.8934H96.0293V16.9105H96.9742L96.9734 15.8415Z" fill="#888888"/>
<path d="M103.219 20.7591L104.065 19.925C104.247 20.3418 104.543 20.7007 104.921 20.9618C105.253 21.1909 105.647 21.3175 106.053 21.3253C106.422 21.3355 106.785 21.2265 107.085 21.0149C107.219 20.9293 107.329 20.8119 107.404 20.6736C107.479 20.5353 107.517 20.3807 107.514 20.2242C107.513 20.0785 107.472 19.9358 107.396 19.8108C107.319 19.6857 107.21 19.583 107.08 19.5132C106.783 19.328 106.469 19.1722 106.141 19.0483C105.803 18.9271 105.452 18.7952 105.086 18.6525C104.594 18.5086 104.157 18.2261 103.828 17.8402C103.587 17.5375 103.454 17.1656 103.449 16.7817C103.451 16.4943 103.52 16.2111 103.651 15.9543C103.783 15.6974 103.973 15.4738 104.207 15.3009C104.731 14.8848 105.39 14.6668 106.064 14.6864C106.74 14.6569 107.405 14.8614 107.943 15.2639C108.168 15.4211 108.347 15.635 108.459 15.8832L107.69 16.6747C107.594 16.5101 107.472 16.362 107.328 16.2363C106.965 15.9126 106.489 15.7368 105.999 15.7449C105.693 15.7397 105.395 15.8317 105.147 16.0071C105.031 16.0844 104.937 16.1889 104.872 16.3111C104.808 16.4334 104.776 16.5694 104.779 16.7069C104.779 17.1487 105.277 17.5407 106.274 17.8828C106.456 17.9396 106.648 18.0037 106.848 18.075C107.407 18.2608 107.919 18.5626 108.348 18.9598C108.513 19.1261 108.641 19.3229 108.727 19.5386C108.813 19.7543 108.854 19.9847 108.848 20.2162C108.846 20.5123 108.775 20.8041 108.639 21.069C108.504 21.334 108.309 21.565 108.068 21.7444C107.51 22.1949 106.802 22.4272 106.08 22.3967C105.424 22.4217 104.777 22.2502 104.224 21.9052C103.782 21.6272 103.433 21.2288 103.219 20.7591Z" fill="#888888"/>
<path d="M109.576 19.5923C109.573 19.2185 109.651 18.8484 109.806 18.5065C109.96 18.1647 110.187 17.8589 110.471 17.6096C111.086 17.0506 111.901 16.7527 112.739 16.7812C113.47 16.7851 114.179 17.0214 114.761 17.4544L114.354 18.4059C113.902 18.0286 113.333 17.8103 112.739 17.7858C112.486 17.776 112.234 17.8176 111.997 17.9078C111.761 17.9981 111.547 18.135 111.367 18.3102C111.029 18.6539 110.84 19.1128 110.84 19.5903C110.84 20.0678 111.029 20.5266 111.367 20.8704C111.547 21.0441 111.762 21.1797 111.998 21.269C112.234 21.3582 112.487 21.3991 112.739 21.3892C113.338 21.3661 113.913 21.1521 114.376 20.7795L114.783 21.731C114.195 22.1665 113.477 22.3995 112.739 22.3938C111.902 22.4225 111.087 22.1269 110.471 21.571C110.187 21.3228 109.959 21.0178 109.805 20.6765C109.651 20.3352 109.573 19.9656 109.576 19.5923Z" fill="#888888"/>
<path d="M117.327 15.2427C117.327 15.3421 117.306 15.4404 117.265 15.5315C117.224 15.6225 117.165 15.7044 117.09 15.772C117.016 15.8448 116.928 15.9026 116.831 15.942C116.734 15.9814 116.63 16.0017 116.525 16.0017C116.42 16.0017 116.316 15.9814 116.219 15.942C116.122 15.9026 116.033 15.8448 115.959 15.772C115.885 15.7044 115.825 15.6225 115.785 15.5315C115.744 15.4404 115.723 15.3421 115.723 15.2427C115.721 15.14 115.742 15.0382 115.782 14.9435C115.823 14.8489 115.883 14.7635 115.959 14.6926C116.033 14.6198 116.122 14.562 116.219 14.5226C116.316 14.4832 116.42 14.4629 116.525 14.4629C116.63 14.4629 116.734 14.4832 116.831 14.5226C116.928 14.562 117.016 14.6198 117.09 14.6926C117.166 14.7635 117.226 14.849 117.267 14.9436C117.308 15.0382 117.328 15.1401 117.327 15.2427ZM115.91 22.2661V16.9109H117.163V22.2661H115.91Z" fill="#888888"/>
<path d="M119.59 20.1269C119.652 20.4387 119.818 20.7215 120.062 20.9313C120.448 21.2572 120.948 21.4254 121.457 21.401C122.087 21.3932 122.692 21.1617 123.16 20.7495L123.534 21.6471C122.949 22.143 122.198 22.4094 121.425 22.3952C120.596 22.4306 119.785 22.1553 119.156 21.6254C118.868 21.3722 118.641 21.06 118.489 20.711C118.338 20.362 118.267 19.9847 118.281 19.6057C118.268 19.2346 118.329 18.8646 118.462 18.5168C118.595 18.1691 118.797 17.8506 119.056 17.5796C119.6 17.0695 120.323 16.7843 121.076 16.7832C121.829 16.7822 122.553 17.0654 123.099 17.574C123.356 17.8319 123.559 18.138 123.694 18.474C123.829 18.81 123.894 19.1692 123.884 19.5301C123.885 19.7309 123.867 19.9313 123.829 20.1286L119.59 20.1269ZM119.568 19.1617H122.622C122.6 18.7983 122.439 18.4563 122.171 18.2046C122.024 18.0641 121.85 17.9536 121.659 17.8794C121.468 17.8052 121.264 17.7688 121.059 17.7723C120.854 17.7758 120.651 17.8192 120.463 17.8999C120.275 17.9806 120.105 18.097 119.963 18.2424C119.739 18.5038 119.601 18.8258 119.568 19.1658L119.568 19.1617Z" fill="#888888"/>
<path d="M126.167 19.5713V22.265H124.926V16.9098H126.123V17.6256C126.275 17.3701 126.496 17.1596 126.76 17.0159C127.034 16.8602 127.346 16.7791 127.663 16.7811C127.956 16.7688 128.248 16.8202 128.519 16.9314C128.79 17.0426 129.032 17.211 129.228 17.4245C129.639 17.9072 129.848 18.5234 129.816 19.1506V22.2618H128.563V19.4643C128.595 19.0239 128.496 18.5838 128.278 18.1975C128.18 18.0605 128.048 17.9506 127.894 17.8785C127.74 17.8063 127.57 17.7743 127.399 17.7857C127.184 17.7893 126.975 17.8584 126.801 17.9835C126.604 18.1192 126.45 18.3062 126.356 18.5232C126.217 18.8554 126.153 19.2127 126.167 19.5713Z" fill="#888888"/>
<path d="M130.858 19.5923C130.855 19.2185 130.933 18.8483 131.087 18.5064C131.242 18.1646 131.469 17.8589 131.753 17.6096C132.368 17.0505 133.183 16.7526 134.022 16.7812C134.752 16.7851 135.461 17.0214 136.043 17.4544L135.632 18.4059C135.18 18.0285 134.611 17.8102 134.017 17.7858C133.764 17.7759 133.511 17.8174 133.275 17.9077C133.039 17.9979 132.824 18.1349 132.644 18.3102C132.306 18.6539 132.117 19.1128 132.117 19.5903C132.117 20.0678 132.306 20.5267 132.644 20.8704C132.825 21.0442 133.04 21.1799 133.276 21.2691C133.512 21.3584 133.764 21.3992 134.017 21.3892C134.616 21.3661 135.191 21.152 135.654 20.7795L136.061 21.731C135.473 22.1664 134.754 22.3994 134.017 22.3938C133.18 22.4226 132.365 22.1269 131.749 21.571C131.465 21.3225 131.239 21.0174 131.085 20.6761C130.931 20.3349 130.854 19.9653 130.858 19.5923Z" fill="#888888"/>
<path d="M138.081 20.1266C138.144 20.4384 138.31 20.7212 138.553 20.931C138.94 21.2568 139.44 21.4249 139.949 21.4007C140.578 21.3928 141.184 21.1613 141.652 20.7492L142.025 21.6468C141.441 22.1426 140.689 22.4091 139.916 22.3949C139.088 22.4302 138.277 22.1549 137.648 21.6251C137.36 21.3716 137.133 21.0593 136.982 20.7103C136.832 20.3613 136.761 19.9842 136.775 19.6054C136.762 19.2344 136.823 18.8644 136.956 18.5167C137.089 18.1691 137.291 17.8505 137.549 17.5793C138.093 17.0694 138.817 16.7843 139.569 16.7832C140.322 16.7822 141.047 17.0653 141.592 17.5737C141.85 17.8317 142.052 18.1377 142.187 18.4737C142.322 18.8097 142.387 19.1689 142.378 19.5298C142.379 19.7306 142.36 19.931 142.323 20.1282L138.081 20.1266ZM138.059 19.1614H141.113C141.092 18.798 140.931 18.4559 140.663 18.2043C140.516 18.0638 140.342 17.9533 140.151 17.8791C139.96 17.8049 139.756 17.7685 139.551 17.772C139.345 17.7755 139.143 17.8189 138.955 17.8996C138.767 17.9802 138.597 18.0967 138.455 18.2421C138.231 18.5035 138.092 18.8255 138.058 19.1655L138.059 19.1614Z" fill="#888888"/>
<path d="M148.85 18.8133H150.146C150.155 18.6577 150.12 18.5027 150.047 18.3645C149.973 18.2263 149.863 18.11 149.728 18.0275C149.358 17.8313 148.94 17.7405 148.52 17.7653H148.487C147.942 17.7754 147.404 17.8919 146.905 18.1079L146.587 17.1564C147.192 16.9087 147.842 16.7815 148.498 16.7824H148.52C149.266 16.7364 150.008 16.9173 150.645 17.3004C150.899 17.4935 151.1 17.7457 151.229 18.0341C151.358 18.3225 151.411 18.6379 151.384 18.9517V22.2655H150.198V21.6776C149.953 21.9124 149.659 22.0929 149.336 22.2068C149.004 22.3302 148.653 22.3936 148.298 22.3942C147.72 22.421 147.152 22.2406 146.7 21.8867C146.508 21.7382 146.354 21.5489 146.248 21.3332C146.142 21.1174 146.088 20.8809 146.09 20.6416C146.09 20.3711 146.159 20.1049 146.291 19.8676C146.424 19.6303 146.615 19.4295 146.848 19.2839C147.452 18.9351 148.15 18.7712 148.85 18.8133ZM148.509 21.4322C148.842 21.43 149.169 21.3514 149.465 21.203C149.734 21.0859 149.968 20.9038 150.146 20.6738V19.7673H149.036C148.583 19.7315 148.129 19.8127 147.718 20.0029C147.609 20.0731 147.518 20.1685 147.455 20.2806C147.392 20.3928 147.358 20.5184 147.356 20.6464C147.356 20.7578 147.384 20.8674 147.438 20.9656C147.492 21.0637 147.569 21.1475 147.664 21.2094C147.914 21.3716 148.211 21.4498 148.511 21.4322H148.509Z" fill="#888888"/>
<path d="M154.056 19.5713V22.265H152.814V16.9098H154.011V17.6256C154.164 17.3701 154.384 17.1595 154.648 17.016C154.923 16.8603 155.235 16.7792 155.552 16.7811C155.845 16.7688 156.137 16.82 156.408 16.9313C156.678 17.0425 156.921 17.211 157.117 17.4246C157.527 17.9071 157.737 18.5234 157.705 19.1506V22.2618H156.453V19.4643C156.485 19.0239 156.386 18.5838 156.167 18.1975C156.069 18.0605 155.937 17.9506 155.783 17.8785C155.629 17.8063 155.459 17.7744 155.289 17.7857C155.073 17.7893 154.864 17.8584 154.69 17.9836C154.494 18.1192 154.339 18.3062 154.245 18.5233C154.107 18.8554 154.042 19.2127 154.056 19.5713Z" fill="#888888"/>
<path d="M161.447 16.7811C161.767 16.7803 162.084 16.8489 162.375 16.982C162.665 17.1151 162.922 17.3093 163.127 17.5508V14.3223H164.38V22.265H163.172V21.591C162.966 21.8451 162.704 22.0496 162.405 22.189C162.106 22.3285 161.779 22.399 161.448 22.3953C161.079 22.4078 160.712 22.3394 160.373 22.1951C160.035 22.0508 159.734 21.8342 159.492 21.5612C159.01 21.0135 158.744 20.3141 158.744 19.5906C158.744 18.8671 159.01 18.1678 159.492 17.62C159.733 17.3459 160.034 17.1283 160.372 16.9831C160.71 16.8379 161.078 16.7689 161.447 16.7811ZM163.117 19.9341C163.139 19.7067 163.139 19.4778 163.117 19.2504C163.085 18.8704 162.922 18.5122 162.655 18.2345C162.516 18.0889 162.348 17.9735 162.16 17.896C161.973 17.8186 161.771 17.7807 161.567 17.7849C161.349 17.7761 161.131 17.8185 160.932 17.9088C160.733 17.999 160.559 18.1344 160.425 18.3037C160.138 18.6727 159.99 19.1273 160.007 19.5906C159.989 20.0542 160.136 20.5095 160.425 20.8776C160.561 21.0444 160.735 21.1773 160.934 21.2656C161.133 21.354 161.35 21.3952 161.567 21.3859C161.771 21.39 161.973 21.3521 162.16 21.2746C162.348 21.1971 162.516 21.0819 162.655 20.9363C162.92 20.6626 163.082 20.3095 163.117 19.9341Z" fill="#888888"/>
<path d="M169.098 22.265V14.8145H170.383V22.265H169.098Z" fill="#888888"/>
<path d="M175.654 21.3458C176.448 21.3474 177.219 21.0835 177.84 20.5978L178.367 21.5067C177.609 22.1231 176.642 22.4388 175.658 22.3915C175.138 22.4023 174.621 22.3098 174.139 22.1195C173.656 21.9293 173.218 21.6453 172.851 21.2847C172.115 20.5519 171.703 19.5653 171.703 18.5375C171.703 17.5097 172.115 16.5231 172.851 15.7903C173.218 15.4298 173.656 15.146 174.139 14.9559C174.621 14.7658 175.138 14.6734 175.658 14.6844C176.632 14.6364 177.588 14.9579 178.327 15.582L177.803 16.4901C177.197 16.0001 176.436 15.7317 175.65 15.7308C175.298 15.7267 174.949 15.795 174.626 15.9313C174.302 16.0677 174.011 16.269 173.772 16.5223C173.246 17.0666 172.962 17.7927 172.981 18.5419C172.97 18.9117 173.035 19.2798 173.171 19.625C173.307 19.9702 173.511 20.2855 173.772 20.5528C174.011 20.8069 174.303 21.0088 174.627 21.1454C174.951 21.282 175.301 21.3503 175.654 21.3458Z" fill="#888888"/>
<path d="M182.592 15.862V22.2653H181.308V15.862H178.969V14.8164H184.934V15.862H182.592Z" fill="#888888"/>
</g>
<defs>
<clipPath id="clip0_412_1647">
<rect width="188" height="37" fill="white"/>
</clipPath>
</defs>
</svg>
