<svg width="227" height="39" viewBox="0 0 227 39" fill="none" xmlns="http://www.w3.org/2000/svg">
<path d="M51.8983 9.25873H58.8629V30.5473H55.3758V12.8116H51.8983V9.25873Z" fill="#0D0708"/>
<path fill-rule="evenodd" clip-rule="evenodd" d="M4.30227 6.73737V30.5474H1.08268C1.18777 22.6584 0.929826 14.3875 1.23554 6.73737H4.30227Z" fill="#0D0708"/>
<path fill-rule="evenodd" clip-rule="evenodd" d="M35.6668 6.73737H38.7431V15.887C38.7431 19.8696 38.1221 24.7692 40.1475 26.1923C42.1729 27.6153 46.9879 27.0232 47.9623 25.027C49.233 22.4197 48.4018 16.8134 46.3 16.0303C44.5326 15.3712 42.3639 16.2213 40.1475 15.887C40.0803 14.6121 40.1251 13.3338 40.2813 12.0667C45.8032 11.6369 49.7394 12.4487 51.1628 16.4218C52.0704 18.9719 51.889 23.3366 51.4208 25.2849C50.3795 29.5828 45.8701 31.2542 40.6634 30.3659C38.2654 29.9552 35.8865 27.3861 35.5426 24.559C34.8166 19.0865 36.0871 13.4515 35.5426 7.13849C35.5331 6.96658 35.5235 6.81376 35.6668 6.73737Z" fill="#0D0708"/>
<path fill-rule="evenodd" clip-rule="evenodd" d="M15.4129 13.5566C13.2059 15.8488 11.2188 18.3894 9.01193 20.672C10.0819 22.2001 12.1169 24.4922 13.7888 26.3355C14.1996 26.8035 15.4416 27.7586 15.4511 28.0834C15.4511 28.771 13.4162 30.175 13.0149 30.6907C11.7156 29.0002 10.3877 27.7013 8.7922 25.9153C7.83682 24.817 4.97073 22.4484 4.97073 20.8439C4.97073 19.2394 7.60754 17.0236 8.6871 15.7533C10.5214 13.6808 11.7538 12.4965 13.034 10.8251C13.9968 11.5727 14.8048 12.5005 15.4129 13.5566Z" fill="#0D0708"/>
<path fill-rule="evenodd" clip-rule="evenodd" d="M22.76 12.2577C27.5367 11.656 31.7212 12.7544 32.7434 17.482C33.236 20.1735 33.1905 22.9358 32.6097 25.6097C32.0279 27.4721 30.7427 29.0344 29.0271 29.9648C26.2024 30.9803 23.104 30.9293 20.3142 29.8216C19.4882 29.3309 18.7687 28.6802 18.1978 27.9077C17.6268 27.1352 17.216 26.2565 16.9894 25.3231C16.3333 22.4902 16.3759 19.5403 17.1137 16.7275C17.5165 15.5133 18.2656 14.4433 19.2687 13.6492C20.2719 12.8552 21.4854 12.3714 22.76 12.2577ZM22.8841 15.887C19.2156 16.3837 19.0626 24.817 21.6039 26.3355C23.4478 27.4339 29.4283 27.0232 29.5431 24.3108C30.4506 17.119 28.4825 15.123 22.8841 15.887Z" fill="#0D0708"/>
<path fill-rule="evenodd" clip-rule="evenodd" d="M78.5434 23.1417H75.2187C75.4289 26.771 70.9387 27.4587 67.9197 26.4749C65.6078 25.7205 65.0536 21.4991 65.8656 18.1945C66.8211 14.3742 75.5053 14.5079 75.3429 19.2164H78.5434C78.3045 13.1231 74.0722 11.2798 67.9197 12.1012C67.2542 12.1847 66.6079 12.3818 66.009 12.6837C61.7385 14.9091 60.8596 24.5935 64.3466 28.366C68.0535 32.3869 79.0689 31.2313 78.5434 23.1417Z" fill="#0D0708"/>
<path fill-rule="evenodd" clip-rule="evenodd" d="M58.863 12.8308V30.5474H55.4046C55.4906 24.6927 55.2327 18.4466 55.5384 12.8308H58.863Z" fill="#0D0708"/>
<path fill-rule="evenodd" clip-rule="evenodd" d="M55.8917 1.08334C56.4751 1.01684 57.0629 1.16407 57.5459 1.49776C58.029 1.83144 58.3747 2.32893 58.5189 2.89798C58.6978 3.27833 58.784 3.6957 58.77 4.11579C58.7562 4.53587 58.6427 4.94666 58.439 5.31437C58.2354 5.68206 57.9472 5.99616 57.5984 6.23083C57.2496 6.46551 56.8501 6.61403 56.4326 6.66421C56.0152 6.71438 55.5918 6.66476 55.1973 6.51943C54.8028 6.3741 54.4484 6.13722 54.1633 5.82827C53.8783 5.51931 53.6707 5.14711 53.5576 4.74229C53.4444 4.33747 53.4292 3.91159 53.5128 3.49967C53.5442 2.87547 53.8038 2.28452 54.2424 1.83907C54.6809 1.39362 55.2678 1.12468 55.8917 1.08334Z" fill="#EE7500"/>
<path d="M81.6293 26.8704L81.1994 27.1474L81.4669 27.0805C81.5815 27.0805 81.5911 27.004 81.6293 26.8704Z" fill="white"/>
<path d="M80.7982 27.4338L80.7218 27.4911L80.674 27.5484L80.7982 27.4338Z" fill="white"/>
<path d="M80.0912 27.9973L80.4638 27.73C80.3275 27.801 80.2022 27.8911 80.0912 27.9973Z" fill="white"/>
<path d="M80.7219 27.6535C80.655 27.6535 80.6072 27.6535 80.6645 27.558L80.4543 27.7395L80.7219 27.6535Z" fill="white"/>
<path d="M81.0656 28.5703C81.0083 28.6468 80.8745 28.408 80.7599 28.5703C80.4942 28.8686 80.2034 29.1434 79.8905 29.3917C79.7759 29.5446 79.3747 29.449 79.2504 29.5922C78.9257 29.8692 78.1805 30.7384 78.725 30.3945C79.4132 29.9437 80.0766 29.4558 80.7121 28.9332C81.2281 28.4557 81.7153 27.9782 82.2503 27.5006L82.7376 27.1855L82.0306 27.5293C81.6866 27.663 81.5146 28.1979 81.0656 28.5703Z" fill="white"/>
<path d="M84.7726 24.8074L84.6102 25.0366C84.2037 25.1536 83.8475 25.4022 83.5975 25.7434H83.8268C84.0083 25.5905 83.9796 25.5141 83.8268 25.5905C84.2822 25.4384 84.7017 25.1947 85.0592 24.8742C84.9446 24.8265 84.8969 24.7501 84.7726 24.8074Z" fill="white"/>
<path d="M85.2216 24.6832L85.0115 24.8648L85.0401 24.8743L85.2312 24.6832H85.2216Z" fill="white"/>
<path d="M78.639 29.2294C77.6168 29.8406 76.671 30.4518 75.687 30.9294C75.687 31.0059 75.6105 31.0918 75.4958 31.1205H75.2283L74.7984 31.3305L74.6551 31.4356C74.5882 31.5025 74.6551 31.5311 74.6551 31.5407H74.3876L73.996 31.7698C74.111 31.6697 74.2439 31.5919 74.3876 31.5407L74.6074 31.3878L74.6743 31.321L73.7188 31.7985L73.5278 31.9227C73.3487 32.0806 73.117 32.1659 72.8781 32.1614L72.7348 32.3143L71.9706 32.6199L71.5407 32.9924L71.3113 32.9446C71.2657 33.0483 71.1889 33.135 71.0916 33.1929H71.5502C71.7795 33.1929 71.8177 32.7727 72.1234 32.916C71.8177 32.7727 71.7795 33.2407 71.5502 33.1929H71.0916C70.8335 33.3492 70.5324 33.4194 70.2318 33.3935C70.3537 33.303 70.4929 33.2384 70.6409 33.2039C70.7888 33.1694 70.9422 33.1657 71.0916 33.1929C71.1889 33.135 71.2657 33.0483 71.3113 32.9446L71.5407 32.9924L71.9706 32.6199C71.4738 32.8204 71.0152 33.0497 70.4516 33.2121C67.1867 34.4635 63.7728 35.2855 60.296 35.657C58.3906 35.8152 56.4734 35.7511 54.5829 35.466C50.9907 34.9407 47.5609 34.511 44.0739 32.8968C42.7555 32.3143 40.1856 31.6553 38.9627 31.1681C37.2334 30.9103 37.5201 32.2761 37.5774 32.3907C38.2748 33.7755 39.3544 33.6131 41.4753 34.8739C40.004 34.0716 42.8032 34.6255 44.1312 35.6475C46.0419 37.1947 49.3284 37.1087 52.118 37.7391C52.8832 37.8673 53.6552 37.9501 54.4301 37.9874C58.8629 38.5795 63.0284 37.5862 67.3944 36.297C68.4446 35.9308 69.4457 35.4368 70.3751 34.8261C71.0534 34.53 71.8368 34.3486 72.3814 34.0811C73.1605 33.7343 73.9003 33.3052 74.5882 32.8014C73.8431 33.2597 73.2794 33.5558 72.4196 34.0047C71.8368 34.2913 72.6871 33.5081 73.0405 33.2597C73.1743 33.126 73.566 33.2598 73.7093 33.1452C74.0566 32.9513 74.3777 32.7138 74.6646 32.4385C74.7984 32.2951 74.9035 32.5531 74.9703 32.4385C75.4576 32.1137 75.687 31.598 76.0404 31.4834L76.7952 31.2254L77.206 30.9962L77.4448 30.7766C78.018 30.2513 78.6963 29.6782 79.3555 29.1626C78.9625 29.4461 78.5179 29.6505 78.0467 29.7642C78.2569 29.7069 78.2759 29.7642 78.0467 29.917H77.8174C78.1058 29.604 78.4879 29.3929 78.9065 29.3153L79.088 29.0956C79.2217 29.0956 79.26 29.1434 79.3269 29.1816L79.5466 29.0097C79.2395 29.0625 78.9363 29.1358 78.639 29.2294Z" fill="#EE7500"/>
<path d="M74.4258 31.6457L74.617 31.5215L73.7953 31.9132C73.9959 31.9322 74.2062 31.7698 74.4258 31.6457Z" fill="white"/>
<path d="M85.5618 16.2255H86.9466V20.1644L90.1674 16.2255H91.767L88.1275 20.7331L91.767 25.2301H90.1566L86.9359 21.3127V25.2301H85.5618V16.2255Z" fill="#0D0708"/>
<path d="M92.9051 19.5525C93.1485 19.2379 93.4609 18.9832 93.8183 18.8083C94.1757 18.6334 94.5685 18.5428 94.9664 18.5437C95.3783 18.5328 95.7869 18.6183 96.1597 18.7936C96.5326 18.9687 96.8592 19.2287 97.1136 19.5525C97.6693 20.2471 97.9721 21.1101 97.9721 21.9996C97.9721 22.889 97.6693 23.752 97.1136 24.4466C96.8592 24.7704 96.5326 25.0304 96.1597 25.2056C95.7869 25.3808 95.3783 25.4664 94.9664 25.4555C94.5685 25.4563 94.1757 25.3658 93.8183 25.1909C93.4609 25.016 93.1485 24.7613 92.9051 24.4466C92.3419 23.7554 92.0344 22.8911 92.0344 21.9996C92.0344 21.108 92.3419 20.2437 92.9051 19.5525ZM93.7317 20.54C93.3922 20.9485 93.2062 21.463 93.2062 21.9942C93.2062 22.5254 93.3922 23.0399 93.7317 23.4485C93.8793 23.638 94.0683 23.7913 94.284 23.8968C94.4999 24.0022 94.737 24.0571 94.9772 24.0571C95.2174 24.0571 95.4544 24.0022 95.6702 23.8968C95.8861 23.7913 96.0749 23.638 96.2225 23.4485C96.5621 23.0399 96.7481 22.5254 96.7481 21.9942C96.7481 21.463 96.5621 20.9485 96.2225 20.54C96.0738 20.3522 95.8844 20.2006 95.6688 20.0963C95.4531 19.9921 95.2167 19.938 94.9772 19.938C94.7376 19.938 94.5011 19.9921 94.2855 20.0963C94.0698 20.2006 93.8806 20.3522 93.7317 20.54Z" fill="#0D0708"/>
<path d="M100.034 19.3165C100.183 19.1085 100.373 18.9332 100.592 18.8013C100.978 18.5878 101.428 18.5228 101.859 18.6189V19.8209C101.441 19.7492 101.01 19.8172 100.635 20.0141C100.332 20.2055 100.101 20.4925 99.9799 20.8298C99.8965 21.0476 99.8388 21.2746 99.8081 21.5059V25.2193H98.4339V18.7799H99.8081V19.7028C99.8682 19.5658 99.9438 19.4361 100.034 19.3165Z" fill="#0D0708"/>
<path d="M103.447 22.6005C103.524 23.01 103.727 23.3853 104.027 23.6738C104.18 23.8226 104.362 23.9386 104.561 24.0143C104.76 24.09 104.973 24.1238 105.186 24.1138C105.528 24.1229 105.862 24.0129 106.131 23.8026C106.337 23.6381 106.511 23.4382 106.647 23.2123H107.935C107.751 23.8516 107.399 24.4299 106.915 24.8866C106.443 25.306 105.828 25.5288 105.197 25.509C104.796 25.5108 104.4 25.4208 104.039 25.2459C103.678 25.0711 103.362 24.816 103.115 24.5002C102.559 23.8057 102.256 22.9427 102.256 22.0532C102.256 21.1637 102.559 20.3008 103.115 19.6062C103.362 19.2904 103.678 19.0353 104.039 18.8605C104.4 18.6856 104.796 18.5956 105.197 18.5974C105.589 18.622 105.971 18.7239 106.323 18.897C106.675 19.0701 106.989 19.3112 107.248 19.6062C107.611 20.0167 107.878 20.5041 108.026 21.032C108.175 21.5597 108.202 22.1143 108.107 22.6542L103.447 22.6005ZM106.851 21.2053C106.764 20.8258 106.538 20.4928 106.217 20.2717C105.907 20.0435 105.529 19.9263 105.144 19.9389C104.752 19.9158 104.366 20.0468 104.07 20.3038C103.784 20.5461 103.562 20.8559 103.426 21.2053H106.851Z" fill="#0D0708"/>
<path d="M113.303 24.3286C113.024 24.7011 112.654 24.9965 112.23 25.1872C111.896 25.3545 111.528 25.4392 111.156 25.434C110.793 25.4094 110.44 25.3076 110.119 25.1354C109.799 24.9633 109.52 24.7248 109.299 24.4359C108.73 23.7474 108.418 22.882 108.418 21.989C108.418 21.0958 108.73 20.2304 109.299 19.5419C109.519 19.2538 109.798 19.0172 110.119 18.8485C110.44 18.6797 110.794 18.5831 111.156 18.5653C111.523 18.5719 111.887 18.6446 112.23 18.7798C112.672 18.9786 113.046 19.3034 113.303 19.7136V18.7692H114.688V25.2086H113.303V24.3286ZM110.297 23.5237C110.446 23.7113 110.636 23.863 110.851 23.9672C111.067 24.0715 111.303 24.1256 111.543 24.1256C111.782 24.1256 112.018 24.0715 112.234 23.9672C112.45 23.863 112.639 23.7113 112.787 23.5237C113.135 23.1057 113.318 22.5752 113.303 22.0319C113.318 21.4982 113.135 20.9777 112.787 20.5722C112.64 20.3827 112.452 20.2294 112.235 20.1239C112.02 20.0185 111.783 19.9636 111.543 19.9636C111.302 19.9636 111.065 20.0185 110.849 20.1239C110.633 20.2294 110.445 20.3827 110.297 20.5722C109.95 20.9777 109.766 21.4982 109.781 22.0319C109.751 22.5685 109.915 23.0982 110.244 23.5237H110.297Z" fill="#0D0708"/>
<path d="M117.89 16.2255H121.111C121.435 16.2023 121.76 16.2552 122.061 16.38C122.36 16.5049 122.627 16.6982 122.84 16.9446C123.226 17.3882 123.439 17.9558 123.44 18.5438C123.372 19.1944 123.093 19.8048 122.645 20.2824C122.997 20.5245 123.286 20.8441 123.493 21.2164C123.699 21.5887 123.817 22.0037 123.838 22.429C123.876 22.8354 123.812 23.245 123.65 23.6201C123.488 23.9951 123.236 24.3236 122.915 24.5754C122.445 24.9234 121.887 25.1317 121.304 25.1764H117.901L117.89 16.2255ZM119.264 17.6207V19.6921H121.111C121.245 19.699 121.378 19.6732 121.499 19.6172C121.621 19.561 121.727 19.4763 121.808 19.3702C121.961 19.1635 122.044 18.9133 122.044 18.6565C122.044 18.3996 121.961 18.1494 121.808 17.9427C121.727 17.8365 121.621 17.7518 121.499 17.6958C121.378 17.6396 121.245 17.6139 121.111 17.6207H119.264ZM119.264 21.0873V23.8349H121.261C121.415 23.8315 121.568 23.7964 121.708 23.7319C121.848 23.6671 121.974 23.5745 122.077 23.4592C122.202 23.3265 122.3 23.1695 122.363 22.9978C122.425 22.8262 122.452 22.6435 122.442 22.4611C122.451 22.2788 122.423 22.0965 122.36 21.925C122.299 21.7536 122.202 21.5964 122.077 21.463C121.972 21.3498 121.846 21.2583 121.707 21.1938C121.567 21.1294 121.415 21.0932 121.261 21.0873H119.264Z" fill="#0D0708"/>
<path d="M124.278 17.6207V16.2255H125.663V17.6207H124.278ZM124.278 25.2301V18.9945H125.663V25.2301H124.278Z" fill="#0D0708"/>
<path d="M127.155 19.5525C127.403 19.2379 127.718 18.9834 128.077 18.8085C128.438 18.6336 128.833 18.5426 129.233 18.5426C129.633 18.5426 130.027 18.6336 130.388 18.8085C130.748 18.9834 131.063 19.2379 131.31 19.5525C131.866 20.2471 132.168 21.1101 132.168 21.9995C132.168 22.889 131.866 23.752 131.31 24.4466C131.063 24.7612 130.748 25.0157 130.388 25.1906C130.027 25.3656 129.633 25.4565 129.233 25.4565C128.833 25.4565 128.438 25.3656 128.077 25.1906C127.718 25.0157 127.403 24.7612 127.155 24.4466C126.592 23.7554 126.285 22.8912 126.285 21.9995C126.285 21.108 126.592 20.2437 127.155 19.5525ZM127.982 20.5399C127.642 20.9485 127.457 21.463 127.457 21.9941C127.457 22.5254 127.642 23.0399 127.982 23.4485C128.129 23.638 128.319 23.7913 128.534 23.8968C128.75 24.0023 128.987 24.0571 129.227 24.0571C129.467 24.0571 129.704 24.0023 129.921 23.8968C130.136 23.7913 130.325 23.638 130.473 23.4485C130.819 23.0427 131.008 22.5272 131.008 21.9941C131.008 21.4612 130.819 20.9457 130.473 20.5399C130.324 20.3522 130.135 20.2006 129.918 20.0963C129.703 19.9921 129.467 19.9379 129.227 19.9379C128.988 19.9379 128.751 19.9921 128.535 20.0963C128.32 20.2006 128.13 20.3522 127.982 20.5399Z" fill="#0D0708"/>
<path d="M132.727 17.6207V16.2255H134.101V17.6207H132.727ZM132.727 25.2301V18.9945H134.101V25.2301H132.727Z" fill="#0D0708"/>
<path d="M139.899 19.3702C140.335 19.8623 140.582 20.4939 140.596 21.1517V25.2301H139.212V21.6884C139.205 21.256 139.049 20.839 138.772 20.5078C138.649 20.3353 138.489 20.1938 138.302 20.095C138.116 19.9961 137.908 19.9427 137.697 19.9389C137.486 19.9401 137.278 19.9923 137.091 20.0914C136.904 20.1905 136.743 20.3334 136.624 20.5078C136.344 20.8384 136.184 21.255 136.173 21.6884V25.2301H134.799V18.7906H136.173V19.6492C136.424 19.341 136.735 19.087 137.088 18.9025C137.44 18.7181 137.827 18.607 138.224 18.576C138.545 18.5748 138.861 18.6456 139.151 18.7831C139.441 18.9205 139.697 19.1211 139.899 19.3702Z" fill="#0D0708"/>
<path d="M142.12 19.9175H141.047V18.7691H142.12C142.162 18.1228 142.394 17.503 142.786 16.9875C143.035 16.7397 143.331 16.546 143.659 16.4185C143.986 16.2912 144.336 16.2327 144.686 16.247V17.5027C144.52 17.4918 144.354 17.5169 144.198 17.5762C144.042 17.6355 143.902 17.7275 143.785 17.8461C143.596 18.1168 143.499 18.4398 143.505 18.7691H144.686V19.9175H143.505V25.2301H142.12V19.9175Z" fill="#0D0708"/>
<path d="M145.91 19.5525C146.158 19.2379 146.473 18.9834 146.832 18.8085C147.193 18.6336 147.588 18.5426 147.988 18.5426C148.388 18.5426 148.782 18.6336 149.143 18.8085C149.503 18.9834 149.818 19.2379 150.065 19.5525C150.628 20.2437 150.935 21.108 150.935 21.9995C150.935 22.8912 150.628 23.7554 150.065 24.4466C149.818 24.7612 149.503 25.0157 149.143 25.1906C148.782 25.3656 148.388 25.4565 147.988 25.4565C147.588 25.4565 147.193 25.3656 146.832 25.1906C146.473 25.0157 146.158 24.7612 145.91 24.4466C145.354 23.752 145.052 22.889 145.052 21.9995C145.052 21.1101 145.354 20.2471 145.91 19.5525ZM146.747 20.5399C146.408 20.9485 146.222 21.463 146.222 21.9941C146.222 22.5254 146.408 23.0399 146.747 23.4485C146.894 23.6371 147.081 23.7902 147.295 23.8961C147.508 24.0022 147.744 24.0582 147.982 24.0602C148.224 24.0591 148.462 24.0035 148.68 23.8976C148.898 23.7916 149.089 23.6382 149.238 23.4485C149.578 23.0399 149.765 22.5254 149.765 21.9941C149.765 21.463 149.578 20.9485 149.238 20.5399C149.085 20.3539 148.895 20.2036 148.677 20.0998C148.46 19.9959 148.223 19.941 147.982 19.9389C147.745 19.9412 147.51 19.9964 147.297 20.1003C147.084 20.2042 146.896 20.3544 146.747 20.5399Z" fill="#0D0708"/>
<path d="M153.082 19.3164C153.235 19.1084 153.429 18.9332 153.651 18.8012C154.032 18.5875 154.48 18.5224 154.907 18.6188V19.8208C154.489 19.7492 154.058 19.8171 153.683 20.014C153.382 20.206 153.156 20.4932 153.039 20.8297C152.948 21.0459 152.887 21.2733 152.856 21.5058V25.2192H151.482V18.7798H152.856V19.7028C152.889 19.6277 152.964 19.5096 153.082 19.3164Z" fill="#0D0708"/>
<path d="M163.088 19.2305C163.476 19.6758 163.687 20.2493 163.678 20.8404V25.23H162.304V21.1194C162.309 20.8093 162.193 20.5093 161.982 20.2823C161.892 20.1758 161.78 20.09 161.654 20.0308C161.529 19.9715 161.391 19.9401 161.251 19.9389C161.089 19.9315 160.927 19.9686 160.783 20.0461C160.64 20.1236 160.519 20.2386 160.435 20.3789C160.287 20.5991 160.198 20.8543 160.178 21.1194V25.23H158.955V21.1194C158.94 20.833 158.835 20.5587 158.654 20.336C158.553 20.2145 158.427 20.1166 158.283 20.0494C158.141 19.9823 157.985 19.9474 157.827 19.9474C157.669 19.9474 157.513 19.9823 157.371 20.0494C157.227 20.1166 157.101 20.2145 157 20.336C156.823 20.5597 156.721 20.8341 156.711 21.1194V25.23H155.326V18.7905H156.711V19.4881C156.913 19.2267 157.166 19.0098 157.457 18.8509C157.747 18.6922 158.067 18.5948 158.396 18.5651C158.71 18.6074 159.012 18.7153 159.282 18.8817C159.552 19.0481 159.784 19.2693 159.964 19.531C160.152 19.2578 160.4 19.0295 160.688 18.8626C160.975 18.6957 161.296 18.5941 161.627 18.5651C161.905 18.5591 162.181 18.6158 162.433 18.7309C162.686 18.8462 162.909 19.017 163.088 19.2305Z" fill="#0D0708"/>
<path d="M169.153 24.3286C168.874 24.7011 168.505 24.9965 168.08 25.1872C167.747 25.3549 167.379 25.4396 167.007 25.434C166.642 25.4108 166.286 25.3097 165.964 25.1376C165.642 24.9654 165.36 24.7262 165.139 24.4359C164.575 23.7447 164.268 22.8805 164.268 21.989C164.268 21.0973 164.575 20.2331 165.139 19.5419C165.36 19.2511 165.644 19.0128 165.968 18.844C166.294 18.6753 166.651 18.58 167.017 18.5653C167.385 18.571 167.749 18.6437 168.091 18.7798C168.534 18.9752 168.909 19.3007 169.164 19.7136V18.7692H170.549V25.2086H169.164L169.153 24.3286ZM166.148 23.5237C166.296 23.7113 166.486 23.863 166.701 23.9672C166.917 24.0715 167.154 24.1256 167.393 24.1256C167.632 24.1256 167.869 24.0715 168.084 23.9672C168.3 23.863 168.489 23.7113 168.638 23.5237C168.986 23.1057 169.169 22.5752 169.153 22.0319C169.17 21.4982 168.986 20.9777 168.638 20.5722C168.491 20.3827 168.302 20.2294 168.085 20.1239C167.87 20.0185 167.633 19.9636 167.393 19.9636C167.153 19.9636 166.916 20.0185 166.7 20.1239C166.483 20.2294 166.295 20.3827 166.148 20.5722C165.8 20.9777 165.616 21.4982 165.633 22.0319C165.617 22.5752 165.8 23.1057 166.148 23.5237Z" fill="#0D0708"/>
<path d="M173.458 19.9175V25.2301H172.084V19.9175H171.011V18.7692H172.084V16.2255H173.458V18.7692H174.532V19.9175H173.458Z" fill="#0D0708"/>
<path d="M175.047 17.6207V16.2255H176.432V17.6207H175.047ZM175.047 25.2301V18.9945H176.432V25.2301H175.047Z" fill="#0D0708"/>
<path d="M177.924 19.5527C178.168 19.2379 178.48 18.9833 178.838 18.8084C179.195 18.6334 179.588 18.543 179.985 18.5438C180.388 18.5429 180.785 18.6331 181.148 18.8079C181.511 18.9826 181.829 19.2373 182.079 19.5527C182.635 20.2473 182.937 21.1102 182.937 21.9997C182.937 22.8892 182.635 23.7522 182.079 24.4467C181.829 24.7621 181.511 25.0167 181.148 25.1915C180.785 25.3662 180.388 25.4565 179.985 25.4555C179.588 25.4564 179.195 25.3659 178.838 25.191C178.48 25.0161 178.168 24.7614 177.924 24.4467C177.361 23.7555 177.053 22.8912 177.053 21.9997C177.053 21.1082 177.361 20.2439 177.924 19.5527ZM178.751 20.5401C178.411 20.9486 178.225 21.4631 178.225 21.9943C178.225 22.5256 178.411 23.0401 178.751 23.4486C178.897 23.6367 179.085 23.7894 179.298 23.8952C179.513 24.0011 179.747 24.0575 179.985 24.0603C180.228 24.0592 180.466 24.0037 180.683 23.8978C180.901 23.7918 181.092 23.6383 181.241 23.4486C181.581 23.0401 181.768 22.5256 181.768 21.9943C181.768 21.4631 181.581 20.9486 181.241 20.5401C181.09 20.354 180.898 20.2038 180.681 20.0999C180.463 19.9961 180.226 19.9412 179.985 19.939C179.748 19.9421 179.515 19.9975 179.302 20.1015C179.087 20.2054 178.9 20.3551 178.751 20.5401Z" fill="#0D0708"/>
<path d="M188.564 19.3702C189 19.8622 189.247 20.4939 189.261 21.1517V25.2301H187.877V21.6884C187.864 21.2569 187.709 20.8414 187.437 20.5078C187.314 20.3353 187.154 20.1938 186.967 20.095C186.781 19.9961 186.573 19.9426 186.362 19.9389C186.151 19.9401 185.942 19.9923 185.756 20.0914C185.569 20.1905 185.408 20.3334 185.289 20.5078C185.009 20.8383 184.849 21.255 184.838 21.6884V25.2301H183.464V18.7906H184.849V19.6492C185.101 19.341 185.412 19.087 185.764 18.9025C186.116 18.7181 186.503 18.607 186.899 18.576C187.218 18.5764 187.533 18.648 187.82 18.7854C188.109 18.9227 188.363 19.1225 188.564 19.3702Z" fill="#0D0708"/>
<path d="M198.808 19.2413C198.623 18.7833 198.336 18.3726 197.971 18.0393C197.755 17.8236 197.497 17.6551 197.212 17.5444C196.928 17.4335 196.622 17.3828 196.318 17.3954C195.949 17.4008 195.586 17.4884 195.255 17.6519C194.925 17.8152 194.635 18.0502 194.406 18.3398C193.845 19.008 193.55 19.8606 193.58 20.7331C193.552 21.6007 193.851 22.4471 194.418 23.105C194.643 23.3952 194.932 23.6314 195.259 23.7967C195.588 23.9618 195.95 24.0519 196.318 24.0602C196.615 24.0764 196.914 24.0304 197.192 23.9251C197.472 23.8198 197.726 23.6575 197.939 23.4484C198.299 23.1003 198.594 22.6894 198.808 22.2358H200.162C199.954 23.1453 199.457 23.9628 198.744 24.5646C198.071 25.1475 197.208 25.4643 196.318 25.4554C195.765 25.4502 195.219 25.3234 194.72 25.0842C194.221 24.845 193.78 24.4991 193.43 24.071C192.632 23.1396 192.194 21.9539 192.194 20.7278C192.194 19.5017 192.632 18.316 193.43 17.3846C193.775 16.962 194.209 16.6194 194.7 16.3803C195.191 16.1414 195.729 16.0116 196.274 16.0002C197.165 15.9913 198.028 16.3081 198.701 16.8909C199.417 17.4983 199.916 18.324 200.118 19.2413H198.808Z" fill="#0D0708"/>
<path d="M201.91 22.6005C201.987 23.01 202.19 23.3853 202.491 23.6738C202.643 23.8226 202.825 23.9386 203.024 24.0143C203.224 24.09 203.437 24.1238 203.65 24.1138C203.988 24.1231 204.319 24.0129 204.584 23.8026C204.794 23.6401 204.973 23.4399 205.11 23.2123H206.387C206.204 23.8516 205.852 24.4299 205.368 24.8866C204.894 25.3041 204.281 25.5266 203.65 25.509C203.248 25.5108 202.852 25.4208 202.492 25.2459C202.13 25.0711 201.814 24.816 201.567 24.5002C201.003 23.809 200.696 22.9447 200.696 22.0532C200.696 21.1617 201.003 20.2974 201.567 19.6062C201.814 19.2904 202.13 19.0353 202.492 18.8605C202.852 18.6856 203.248 18.5956 203.65 18.5974C204.041 18.622 204.424 18.7239 204.776 18.897C205.128 19.0701 205.442 19.3112 205.7 19.6062C206.064 20.0167 206.33 20.5041 206.479 21.032C206.627 21.5597 206.655 22.1143 206.559 22.6542L201.91 22.6005ZM205.314 21.2053C205.227 20.8258 205.001 20.4928 204.681 20.2717C204.37 20.045 203.992 19.9279 203.607 19.9389C203.215 19.9146 202.83 20.0458 202.533 20.3038C202.247 20.5461 202.026 20.8559 201.889 21.2053H205.314Z" fill="#0D0708"/>
<path d="M212.1 19.3702C212.528 19.8661 212.771 20.4961 212.787 21.1517V25.2301H211.401V21.6884C211.39 21.2569 211.235 20.8414 210.961 20.5078C210.844 20.3307 210.684 20.1854 210.497 20.0849C210.309 19.9844 210.1 19.9319 209.887 19.9319C209.675 19.9319 209.466 19.9844 209.279 20.0849C209.091 20.1854 208.932 20.3307 208.814 20.5078C208.536 20.8389 208.381 21.256 208.374 21.6884V25.2301H207.01V18.7906H208.395V19.6492C208.644 19.3409 208.953 19.0865 209.305 18.902C209.655 18.7175 210.04 18.6065 210.435 18.576C210.754 18.5764 211.069 18.648 211.356 18.7854C211.645 18.9227 211.898 19.1225 212.1 19.3702Z" fill="#0D0708"/>
<path d="M215.749 19.9175V25.2301H214.375V19.9175H213.301V18.7692H214.375V16.2255H215.749V18.7692H216.822V19.9175H215.749Z" fill="#0D0708"/>
<path d="M218.465 22.6005C218.551 23.0068 218.752 23.3796 219.045 23.6738C219.201 23.8224 219.384 23.9381 219.586 24.0137C219.787 24.0893 220.001 24.1233 220.215 24.1138C220.553 24.1213 220.883 24.0112 221.149 23.8025C221.36 23.6442 221.537 23.443 221.665 23.2123H222.953C222.753 23.8571 222.382 24.4358 221.879 24.8866C221.411 25.3052 220.8 25.5281 220.173 25.509C219.761 25.5182 219.353 25.432 218.981 25.2569C218.608 25.0818 218.281 24.8229 218.025 24.5001C217.47 23.8055 217.167 22.9426 217.167 22.0532C217.167 21.1637 217.47 20.3008 218.025 19.6062C218.281 19.2835 218.608 19.0245 218.981 18.8495C219.353 18.6743 219.761 18.5881 220.173 18.5973C220.562 18.6222 220.943 18.7242 221.293 18.8973C221.643 19.0706 221.955 19.3114 222.212 19.6062C222.577 20.0158 222.845 20.5026 222.996 21.0305C223.147 21.5584 223.177 22.1134 223.082 22.6542L218.465 22.6005ZM221.879 21.2053C221.789 20.8275 221.564 20.4955 221.246 20.2715C220.934 20.0464 220.557 19.9295 220.173 19.9389C219.781 19.919 219.397 20.0497 219.098 20.3038C218.812 20.546 218.591 20.8559 218.454 21.2053H221.879Z" fill="#0D0708"/>
<path d="M225.175 19.3164C225.331 19.1109 225.524 18.9363 225.744 18.8012C226.126 18.5875 226.573 18.5224 227 18.6188V19.8208C226.582 19.75 226.152 19.8179 225.776 20.014C225.477 20.206 225.249 20.4932 225.132 20.8297C225.043 21.0458 224.985 21.2735 224.96 21.5058V25.2192H223.575V18.7798H224.96V19.7028C225.02 19.5676 225.092 19.4383 225.175 19.3164Z" fill="#0D0708"/>
</svg>
