<svg width="230" height="39" viewBox="0 0 230 39" fill="none" xmlns="http://www.w3.org/2000/svg">
<g clip-path="url(#clip0_836_12405)">
<path d="M95.0669 12.6354C95.1583 11.9027 95.1989 11.3307 95.1786 10.8991H89.5864V9.42383H96.8735C96.8938 10.1163 96.8532 10.9694 96.7517 11.973C96.6502 12.9766 96.5183 13.8296 96.366 14.5221H99.1266V15.9372H94.184V17.9143H96.9851V22.8119H95.341V19.3495H89.4646V17.9143H92.4485V15.9372H87.4551V14.5221H94.732C94.864 14.0003 94.9756 13.378 95.0669 12.6454V12.6354Z" fill="#0D0708"/>
<path d="M99.7051 16.6399C100.253 16.389 100.801 16.0779 101.329 15.6965C101.867 15.3152 102.344 14.8936 102.77 14.432C103.207 13.9603 103.572 13.4485 103.846 12.8965C104.12 12.3545 104.292 11.7825 104.343 11.2004H100.558V9.73512H106.18C106.14 10.6785 105.998 11.5516 105.734 12.3646C105.47 13.1775 105.115 13.9101 104.668 14.5524C104.201 15.2349 103.633 15.8471 102.983 16.379C102.324 16.9109 101.593 17.3725 100.781 17.7539L99.7152 16.6399H99.7051ZM111.255 12.8864V14.3116H109.469V20.6844H107.855V8.98242H109.469V12.8864H111.255Z" fill="#0D0708"/>
<path d="M111.346 15.546C111.782 15.2048 112.158 14.8334 112.493 14.4219C112.827 14.0105 113.091 13.609 113.264 13.1976C113.416 12.8463 113.538 12.4348 113.619 11.9531C113.71 11.4814 113.751 11.0097 113.751 10.548V9.44408H115.405V10.548C115.405 10.9796 115.446 11.4212 115.527 11.8628C115.608 12.3144 115.72 12.6958 115.852 13.0169C116.014 13.3882 116.238 13.7596 116.542 14.1209C116.836 14.4822 117.181 14.8234 117.567 15.1245L116.725 16.2886C116.522 16.1381 116.288 15.9374 116.024 15.6965C115.761 15.4456 115.547 15.2148 115.365 14.994C115.131 14.703 114.959 14.4721 114.837 14.3015C114.715 14.1309 114.654 14.0205 114.634 13.9703C114.604 14.0506 114.522 14.2012 114.37 14.4219C114.228 14.6427 114.056 14.8836 113.863 15.1245C113.65 15.4055 113.426 15.6664 113.193 15.9073C112.959 16.1481 112.675 16.379 112.35 16.6098L111.346 15.5359V15.546ZM120.866 22.3805C120.267 22.9927 119.526 23.2938 118.643 23.2938C117.76 23.2938 117.039 22.9927 116.43 22.3805C115.821 21.7683 115.517 21.0257 115.517 20.1626C115.517 19.2995 115.821 18.5468 116.43 17.9346C117.039 17.3224 117.78 17.0112 118.643 17.0112C119.506 17.0112 120.257 17.3224 120.866 17.9346C121.464 18.5468 121.769 19.2894 121.769 20.1626C121.769 21.0357 121.464 21.7683 120.866 22.3805ZM119.709 18.9683C119.414 18.6371 119.059 18.4765 118.653 18.4765C118.247 18.4765 117.882 18.6371 117.577 18.9683C117.273 19.2894 117.121 19.6909 117.121 20.1626C117.121 20.6342 117.263 21.0156 117.557 21.3468C117.851 21.678 118.196 21.8386 118.612 21.8386C119.029 21.8386 119.384 21.678 119.688 21.3468C119.993 21.0156 120.155 20.6242 120.155 20.1626C120.155 19.7009 120.013 19.2894 119.719 18.9683H119.709ZM120.531 8.99246H122.124V16.9109H120.531V13.5689H119.343V16.5195H117.801V9.15303H119.343V12.0434H120.531V8.98242V8.99246Z" fill="#0D0708"/>
<path d="M129.706 9.57368V16.1473H124.145V9.57368H129.706ZM125.799 14.7222H128.072V10.9687H125.799V14.7222ZM132.629 22.3696C132.03 22.9818 131.29 23.2829 130.407 23.2829C129.524 23.2829 128.803 22.9818 128.194 22.3696C127.585 21.7574 127.281 21.0147 127.281 20.1516C127.281 19.2885 127.585 18.5358 128.194 17.9237C128.803 17.3115 129.544 17.0003 130.407 17.0003C131.269 17.0003 132.03 17.3115 132.629 17.9237C133.228 18.5358 133.533 19.2785 133.533 20.1516C133.533 21.0248 133.228 21.7574 132.629 22.3696ZM131.442 21.3359C131.746 21.0047 131.909 20.6133 131.909 20.1516C131.909 19.69 131.756 19.2785 131.462 18.9574C131.168 18.6262 130.813 18.4656 130.407 18.4656C130.001 18.4656 129.635 18.6262 129.331 18.9574C129.026 19.2785 128.874 19.68 128.874 20.1516C128.874 20.6233 129.016 21.0047 129.31 21.3359C129.605 21.6671 129.95 21.8277 130.366 21.8277C130.782 21.8277 131.137 21.6671 131.442 21.3359ZM132.183 8.95144H133.807V17.2613H132.183V14.9229H130.214V13.5178H132.183V12.1931H130.214V10.788H132.183V8.94141V8.95144Z" fill="#0D0708"/>
<path d="M136.598 10.3766C137.227 9.69411 137.999 9.35288 138.902 9.35288C139.805 9.35288 140.577 9.69411 141.206 10.3766C141.835 11.059 142.15 11.882 142.15 12.8555C142.15 13.829 141.835 14.6619 141.206 15.3444C140.577 16.0268 139.805 16.3681 138.902 16.3681C137.999 16.3681 137.227 16.0268 136.598 15.3444C135.969 14.6619 135.654 13.829 135.654 12.8555C135.654 11.882 135.969 11.059 136.598 10.3766ZM140.029 11.4404C139.714 11.059 139.338 10.8683 138.902 10.8683C138.466 10.8683 138.09 11.059 137.775 11.4404C137.461 11.8217 137.309 12.2934 137.309 12.8555C137.309 13.4175 137.471 13.8791 137.775 14.2605C138.09 14.6519 138.466 14.8426 138.902 14.8426C139.338 14.8426 139.714 14.6519 140.029 14.2605C140.343 13.8791 140.495 13.4074 140.495 12.8555C140.495 12.3035 140.343 11.8217 140.029 11.4404ZM140.333 18.1746V21.095H146.077V22.5603H138.689V18.1746H140.333ZM144.159 8.96148H145.783V18.9273H144.159V15.3243H142.261V13.8591H144.159V12.0325H142.261V10.5672H144.159V8.94141V8.96148Z" fill="#0D0708"/>
<path d="M154.897 13.0375C154.988 12.2045 155.029 11.5622 155.009 11.0905H149.447V9.61523H156.724C156.724 10.378 156.663 11.3113 156.551 12.4153C156.43 13.5092 156.298 14.4827 156.156 15.3157H158.805V16.7508H154.024V21.0262H152.299V16.7508H147.438V15.3157H154.542C154.694 14.6332 154.816 13.8805 154.907 13.0476L154.897 13.0375Z" fill="#0D0708"/>
<path d="M160.083 11.2101V9.71478H166.417V11.2101H164.052C164.072 11.7621 164.133 12.294 164.224 12.8059C164.326 13.3177 164.478 13.7693 164.681 14.1607C164.894 14.5923 165.209 15.0238 165.625 15.4454C166.041 15.8669 166.518 16.2683 167.056 16.6396L166.132 17.7837C165.879 17.6332 165.615 17.4425 165.331 17.2217C165.046 17.0009 164.772 16.75 164.498 16.4791C164.245 16.2181 164.011 15.9572 163.788 15.6862C163.565 15.4152 163.392 15.1543 163.25 14.9034C163.118 15.1643 162.956 15.4353 162.743 15.7063C162.54 15.9773 162.316 16.2382 162.073 16.4891C161.789 16.7801 161.504 17.0511 161.2 17.3121C160.895 17.573 160.601 17.7938 160.307 17.9845L159.322 16.8604C159.952 16.449 160.479 15.9873 160.916 15.4654C161.352 14.9436 161.667 14.4618 161.88 14.0002C162.042 13.6288 162.164 13.1973 162.255 12.7156C162.347 12.2338 162.397 11.7421 162.397 11.2403H160.083V11.2101ZM171.095 12.8962V14.3213H169.319V20.6942H167.705V8.99219H169.319V12.8962H171.095Z" fill="#0D0708"/>
<path d="M174.037 16.5702H171.205V15.2153H173.55C174.493 15.2153 175.579 15.1752 176.807 15.0949C178.035 15.0146 178.969 14.9343 179.619 14.854V16.1888C179.253 16.239 178.746 16.2892 178.096 16.3494C177.447 16.3996 176.777 16.4598 176.067 16.51V18.3365H174.402V16.5702H174.037ZM173.073 9.84606C173.681 9.26397 174.412 8.96289 175.275 8.96289C176.138 8.96289 176.868 9.25394 177.477 9.84606C178.086 10.4382 178.391 11.1407 178.391 11.9737C178.391 12.8067 178.076 13.4891 177.437 14.0411C176.797 14.6031 176.077 14.8741 175.275 14.8741C174.473 14.8741 173.732 14.5931 173.113 14.0411C172.484 13.4791 172.169 12.7967 172.169 11.9737C172.169 11.1507 172.474 10.4282 173.083 9.84606H173.073ZM176.249 10.8597C175.955 10.5486 175.62 10.398 175.265 10.398C174.91 10.398 174.595 10.5486 174.29 10.8597C173.986 11.1608 173.834 11.5421 173.834 11.9837C173.834 12.4253 173.986 12.7866 174.29 13.0877C174.595 13.3888 174.92 13.5494 175.265 13.5494C175.61 13.5494 175.945 13.3988 176.249 13.0877C176.544 12.7766 176.696 12.4153 176.696 11.9837C176.696 11.5522 176.544 11.1608 176.249 10.8597ZM176.056 18.9086V21.1065H181.791V22.5717H174.422V18.9086H176.067H176.056ZM177.447 18.2161V16.9014H180.075V8.97293H181.699V19.3201H180.075V18.2061H177.447V18.2161Z" fill="#0D0708"/>
<path d="M183.943 10.9902V9.56505H190.154V10.9902H187.911V11.3816C187.911 11.8131 187.992 12.2346 188.144 12.6361C188.297 13.0476 188.489 13.3787 188.713 13.6497C188.946 13.9408 189.251 14.2218 189.606 14.5028C189.971 14.7838 190.337 15.0146 190.712 15.2153L189.89 16.3895C189.636 16.2691 189.342 16.1085 189.017 15.9078C188.692 15.7071 188.418 15.5064 188.195 15.3057C187.951 15.0949 187.738 14.8841 187.545 14.6634C187.353 14.4526 187.211 14.2619 187.119 14.1013C187.058 14.2418 186.947 14.4125 186.794 14.6031C186.642 14.7938 186.439 15.0447 186.165 15.3358C185.871 15.6368 185.577 15.8978 185.272 16.1386C184.968 16.3695 184.673 16.5602 184.399 16.7207L183.344 15.5766C183.729 15.3759 184.105 15.115 184.48 14.7838C184.856 14.4526 185.171 14.1114 185.424 13.74C185.637 13.4289 185.82 13.0576 185.972 12.6361C186.125 12.2146 186.196 11.8031 186.196 11.4016V10.9801H183.953L183.943 10.9902ZM192.468 22.3811C191.869 22.9933 191.128 23.2943 190.245 23.2943C189.362 23.2943 188.642 22.9933 188.033 22.3811C187.424 21.7689 187.119 21.0262 187.119 20.1631C187.119 19.3 187.424 18.5473 188.033 17.9351C188.642 17.3229 189.372 17.0118 190.245 17.0118C191.118 17.0118 191.859 17.3229 192.468 17.9351C193.067 18.5473 193.371 19.29 193.371 20.1631C193.371 21.0362 193.067 21.7689 192.468 22.3811ZM191.28 21.3473C191.585 21.0162 191.737 20.6248 191.737 20.1631C191.737 19.7014 191.595 19.29 191.301 18.9688C191.006 18.6376 190.651 18.477 190.245 18.477C189.839 18.477 189.474 18.6376 189.169 18.9688C188.865 19.29 188.713 19.6914 188.713 20.1631C188.713 20.6348 188.855 21.0162 189.149 21.3473C189.443 21.6785 189.788 21.8391 190.205 21.8391C190.621 21.8391 190.976 21.6785 191.28 21.3473ZM192.021 8.96289H193.645V17.2326H192.021V13.4088H189.626V12.0038H192.021V8.96289Z" fill="#0D0708"/>
<path d="M197.4 16.2374V9.38281H199.024V11.4302H202.952V9.38281H204.576V16.2374H201.886V18.074H206.849V19.5092H195.178V18.074H200.171V16.2374H197.411H197.4ZM199.024 14.8223H202.952V12.8352H199.024V14.8223Z" fill="#0D0708"/>
<path d="M210.696 15.0743C210.574 14.8836 210.462 14.703 210.361 14.5223C210.28 14.713 210.178 14.9037 210.056 15.1044C209.935 15.2951 209.803 15.4958 209.661 15.6965C209.437 15.9976 209.204 16.2786 208.96 16.5195C208.717 16.7704 208.422 17.0313 208.088 17.2923L207.062 16.2084C207.468 15.8671 207.844 15.4958 208.169 15.0944C208.494 14.6929 208.757 14.2814 208.94 13.8599C209.113 13.4786 209.245 13.0269 209.346 12.495C209.448 11.9732 209.498 11.4412 209.498 10.9194V9.44408H211.153V10.9194C211.153 11.3911 211.193 11.8728 211.274 12.3746C211.356 12.8764 211.477 13.2979 211.63 13.6492C211.792 14.0205 212.015 14.3918 212.299 14.7632C212.594 15.1345 212.919 15.4757 213.294 15.7768L212.452 16.931C212.157 16.7102 211.904 16.4994 211.691 16.2987C211.477 16.098 211.285 15.8772 211.092 15.6363C210.939 15.4557 210.808 15.265 210.686 15.0743H210.696ZM212.249 18.2055V21.0959H217.993V22.5612H210.605V18.2055H212.249ZM212.066 13.0671V11.6319H213.73V9.143H215.273V18.1955H213.73V13.057H212.066V13.0671ZM216.268 8.98242H217.871V18.5468H216.268V8.98242Z" fill="#0D0708"/>
<path d="M225.332 12.7261V14.1412H221.789V16.0079H223.129C223.728 15.9878 224.398 15.9477 225.139 15.8975C225.88 15.8373 226.62 15.767 227.372 15.6667V17.0517C226.62 17.1821 225.748 17.2825 224.783 17.3427C223.809 17.413 223.058 17.4431 222.541 17.4431H220.176V9.64507H225.565V11.1204H221.779V12.7362H225.321L225.332 12.7261ZM227.94 8.97266H229.584V20.6947H227.94V13.9907H225.951V12.4953H227.94V8.97266Z" fill="#0D0708"/>
<path d="M53.9824 8.5918H61.3812V30.9621H57.6869V12.3252H53.9824V8.5918Z" fill="#0D0708"/>
<path fill-rule="evenodd" clip-rule="evenodd" d="M3.41993 5.94141V30.9612H0.019969C0.111311 22.6715 -0.162716 13.9803 0.162057 5.94141H3.41993Z" fill="#0D0708"/>
<path fill-rule="evenodd" clip-rule="evenodd" d="M36.7404 5.94141H40.0084V15.5559C40.0084 19.751 39.3488 24.8894 41.5004 26.3848C43.652 27.8802 48.7672 27.2579 49.8024 25.1604C51.1522 22.4206 50.2692 16.5194 48.0364 15.6964C46.1588 15.0039 43.855 15.8971 41.5105 15.5459C41.5917 14.2613 41.3481 12.6154 41.6425 11.5817C47.5188 11.13 51.6901 11.9831 53.2023 16.1581C54.1665 18.8277 53.9737 23.4141 53.4764 25.4615C52.3803 29.9777 47.5899 31.744 42.0484 30.8006C39.501 30.3691 37.0043 27.6694 36.6085 24.6987C35.827 18.9481 37.187 13.0268 36.6085 6.39303C36.5983 6.17223 36.578 5.96148 36.7404 5.94141Z" fill="#0D0708"/>
<path fill-rule="evenodd" clip-rule="evenodd" d="M15.254 13.1074C12.9095 15.5061 10.7985 18.1756 8.45403 20.5843C9.59073 22.18 11.7525 24.5887 13.488 26.5356C13.9346 27.0274 15.2438 28.031 15.254 28.3622C15.2844 29.0848 13.0922 30.5601 12.6659 31.1121C11.2856 29.3357 9.86476 27.9708 8.18 26.074C7.14479 24.9098 4.14064 22.4309 4.10004 20.7348C4.05944 19.109 6.89106 16.6803 8.03791 15.3957C9.98655 13.2078 11.2958 11.9734 12.6558 10.207C13.691 10.9798 14.5537 11.9433 15.2438 13.1074H15.254Z" fill="#0D0708"/>
<path fill-rule="evenodd" clip-rule="evenodd" d="M23.0285 11.7425C28.1539 11.1203 32.5484 12.2644 33.6344 17.2322C34.0505 19.139 34.2332 23.2438 33.5025 25.7729C32.9849 27.5492 31.3813 29.5865 29.6965 30.3493C27.2912 31.4332 22.6936 31.3328 20.4507 30.1987C18.7862 29.3557 17.4059 27.3987 16.9188 25.4718C16.462 23.6854 16.0459 19.6509 17.0507 16.4695C17.6089 14.7132 19.3546 12.1941 23.0387 11.7425H23.0285ZM23.1605 15.5562C19.2632 16.0781 19.0704 24.9399 21.8005 26.5456C23.7593 27.6897 30.1127 27.2682 30.2344 24.408C31.1986 16.8609 29.0977 14.7533 23.1605 15.5562Z" fill="#0D0708"/>
<path fill-rule="evenodd" clip-rule="evenodd" d="M82.2898 23.1529H78.7477C78.9812 26.9766 74.2111 27.6992 70.9938 26.6655C68.5478 25.8727 67.9084 21.4367 68.8219 17.9643C69.8672 13.9599 79.0624 14.0803 78.8898 19.0281H82.2898C82.0361 12.6251 77.54 10.6881 71.0039 11.5512C70.395 11.6315 69.6338 11.8122 68.9639 12.1634C64.4273 14.5018 63.4936 24.6784 67.198 28.6426C71.146 32.8678 82.8581 31.6534 82.2898 23.1529Z" fill="#0D0708"/>
<path fill-rule="evenodd" clip-rule="evenodd" d="M61.3817 12.3438V30.9606H57.7078C57.7991 24.8085 57.5251 18.2449 57.8397 12.3438H61.3716H61.3817Z" fill="#0D0708"/>
<path fill-rule="evenodd" clip-rule="evenodd" d="M58.2249 0.0208194C59.2905 -0.129721 60.5693 0.462405 61.0159 1.90759C62.5585 6.75499 55.2715 7.36719 55.6977 2.53986C55.8094 1.31547 56.5807 0.261684 58.2147 0.0308555L58.2249 0.0208194Z" fill="#EE7500"/>
<path d="M85.568 27.1367L85.1113 27.4278L85.3955 27.3575C85.5173 27.3174 85.5274 27.2371 85.568 27.1367Z" fill="#EE7500"/>
<path d="M84.6841 27.6992L84.6033 27.7494L84.5527 27.8096L84.6841 27.6992Z" fill="#EE7500"/>
<path d="M83.9336 28.281L84.3294 28C84.2076 28.0602 84.0757 28.1505 83.9336 28.281Z" fill="#EE7500"/>
<path d="M84.6041 27.9207C84.5331 27.9207 84.4823 27.8906 84.5432 27.8203L84.3301 28.001L84.6041 27.9207Z" fill="#EE7500"/>
<path d="M84.6035 27.921C84.6743 27.921 84.7652 27.901 84.8056 27.911H84.6035V27.921Z" fill="#EE7500"/>
<path d="M84.9693 28.8835C84.9084 28.9638 84.7663 28.7129 84.6445 28.8735C84.3197 29.1846 84.066 29.5057 83.7209 29.7366C83.5992 29.8971 83.1729 29.7968 83.041 29.9473C82.6959 30.2384 81.9042 31.1617 82.4827 30.7903C83.3454 30.2484 83.863 29.8168 84.5938 29.2548C85.152 28.753 85.6594 28.2412 86.2379 27.7394L86.7555 27.4082L86.0045 27.7695C85.6391 27.92 85.4565 28.4821 84.9794 28.8735L84.9693 28.8835Z" fill="#EE7500"/>
<path d="M88.9065 24.9296C88.8456 25.0099 88.734 25.1704 88.734 25.1704C88.2671 25.2608 87.9627 25.5819 87.6582 25.9131H87.9018C88.0946 25.7425 88.0743 25.6622 87.851 25.7525C88.3686 25.5819 88.7848 25.311 89.1704 24.9998C89.0994 24.9597 89.0486 24.8794 88.9065 24.9396V24.9296Z" fill="#EE7500"/>
<path d="M89.3834 24.7988L89.1602 24.9895L89.1906 24.9995L89.3936 24.7988H89.3834Z" fill="#EE7500"/>
<path d="M82.3909 29.5771C81.305 30.2094 80.3002 30.8617 79.2548 31.3535C79.2041 31.4438 79.1736 31.5241 79.0519 31.5542L78.7575 31.5944L78.3008 31.8152L78.1486 31.9155C78.0775 31.9958 78.1283 32.0159 78.1892 32.0259H78.4023C78.4023 32.0259 78.2704 32.0259 78.1892 32.0259L77.9152 32.0761L77.4889 32.3069C77.6411 32.1865 77.7832 32.1162 77.9152 32.0761L78.1486 31.9055L78.2095 31.8453L77.1641 32.3471L76.9611 32.4775C76.7277 32.6281 76.4943 32.7786 76.271 32.7284L76.0782 32.8087H76.1188L76.0376 32.8188L75.2256 33.15L74.7588 33.5313C74.7588 33.5313 74.6065 33.5012 74.5253 33.4811C74.4847 33.5815 74.4035 33.6718 74.2919 33.7421L74.7791 33.7822C75.0125 33.8324 75.0632 33.3406 75.388 33.4912C75.0632 33.3406 75.0227 33.8324 74.7791 33.7822L74.2919 33.7421C74.0585 33.9027 73.7033 33.9729 73.3886 33.9528C73.6728 33.712 73.9976 33.722 74.2919 33.7421C74.4035 33.6618 74.4847 33.5715 74.5253 33.4811C74.6065 33.5012 74.7588 33.5313 74.7588 33.5313L75.2256 33.15C74.6979 33.3507 74.1701 33.6016 73.6119 33.7722C70.0597 35.0167 66.7003 36.0002 62.8234 36.3414C60.7326 36.502 58.7028 36.4618 56.7643 36.1708C52.9482 35.6088 49.3047 35.1271 45.6003 33.4711C44.1895 32.8589 41.4696 32.1664 40.1705 31.6546C38.3335 31.3736 38.638 32.8188 38.6988 32.9392C39.4296 34.3944 40.5866 34.2238 42.8397 35.5385C41.2767 34.7055 44.2403 35.2876 45.6612 36.3515C47.7316 37.9773 51.1924 37.897 54.156 38.5493C54.8969 38.6898 55.7088 38.7501 56.6121 38.8103C61.3213 39.4325 65.726 38.3988 70.3845 37.0439C71.6227 36.6726 72.6072 36.0403 73.551 35.4984C74.2716 35.1772 75.1038 34.9966 75.6823 34.7156C76.5856 34.284 77.3569 33.8826 78.0268 33.3707C77.2352 33.8525 76.6364 34.1636 75.7229 34.6353C75.1038 34.9364 76.0071 34.1034 76.3826 33.8525C76.5247 33.712 76.9408 33.8726 77.0931 33.732C77.4787 33.5614 77.7629 33.2604 78.1283 32.9894C78.2704 32.8489 78.382 33.1098 78.4531 33.0295C78.9707 32.6883 79.2142 32.1464 79.5999 32.036L80.4017 31.765L80.8483 31.5241L81.102 31.2933C80.9802 31.2632 80.899 31.1929 80.8178 31.1126C80.9599 31.0424 81.1933 30.9822 81.3354 30.9119C81.1832 30.9822 80.9599 31.0424 80.8178 31.1126C80.899 31.1929 80.9802 31.2632 81.102 31.2933C81.7109 30.7413 82.4315 30.1391 83.1014 29.5972L83.0811 29.5771C82.665 29.8581 82.2285 30.089 81.6906 30.1994C81.9139 30.1391 81.9342 30.2194 81.7211 30.37L81.4775 30.3499C81.8226 30.0488 82.1575 29.7578 82.6345 29.7176C82.6345 29.7176 82.7665 29.5671 82.8273 29.4868C82.9694 29.4467 83.01 29.527 83.0811 29.5771L83.3145 29.3965C83.0709 29.3965 82.4011 29.5671 82.4011 29.5771H82.3909Z" fill="#EE7500"/>
<path d="M77.9159 32.0855L78.1189 31.9551L77.2461 32.3666C77.4592 32.4067 77.6927 32.2461 77.9159 32.0855Z" fill="#EE7500"/>
<path d="M87.4453 24.207H88.7545V27.8903L91.7993 24.207H93.3014L89.8608 28.4222L93.3014 32.6373H91.7993L88.7545 28.9741V32.6373H87.4453V24.207Z" fill="#72706D"/>
<path d="M94.3471 27.3184C94.8951 26.6861 95.5447 26.375 96.3059 26.375C97.0671 26.375 97.7369 26.6861 98.2748 27.3184C98.8229 27.9507 99.0867 28.7034 99.0867 29.5966C99.0867 30.4898 98.8127 31.2625 98.2748 31.8948C97.7369 32.5271 97.0772 32.8382 96.3059 32.8382C95.5345 32.8382 94.8951 32.5271 94.3471 31.8948C93.799 31.2625 93.5352 30.4998 93.5352 29.5966C93.5352 28.6933 93.8092 27.9507 94.3471 27.3184ZM95.1387 28.2417C94.8038 28.613 94.6414 29.0647 94.6414 29.5966C94.6414 30.1285 94.8038 30.5801 95.1387 30.9615C95.4736 31.3428 95.8593 31.5335 96.3059 31.5335C96.7524 31.5335 97.1584 31.3428 97.4933 30.9615C97.8282 30.5801 97.9906 30.1285 97.9906 29.5966C97.9906 29.0647 97.8282 28.6231 97.4933 28.2417C97.1584 27.8704 96.7626 27.6797 96.3059 27.6797C95.8492 27.6797 95.4736 27.8704 95.1387 28.2417Z" fill="#72706D"/>
<path d="M101.126 27.1068C101.237 26.9362 101.42 26.7756 101.663 26.6251C101.978 26.4244 102.374 26.3742 102.861 26.4545V27.5685C102.343 27.5283 101.958 27.5885 101.704 27.7591C101.4 27.9599 101.197 28.2108 101.085 28.5219C100.973 28.833 100.923 29.0438 100.923 29.1541V32.6266H99.6133V26.5849H100.923V27.448C100.943 27.3978 101.014 27.2774 101.136 27.1168L101.126 27.1068Z" fill="#72706D"/>
<path d="M104.354 30.1683C104.435 30.5397 104.617 30.8608 104.902 31.1318C105.186 31.4028 105.551 31.5433 105.998 31.5433C106.353 31.5433 106.647 31.4429 106.881 31.2522C107.124 31.0515 107.287 30.8709 107.368 30.7003H108.586C108.383 31.3426 108.058 31.8644 107.622 32.2558C107.185 32.6472 106.637 32.848 105.998 32.848C105.226 32.848 104.567 32.5368 104.029 31.9046C103.481 31.2723 103.217 30.5096 103.217 29.6063C103.217 28.7031 103.491 27.9604 104.029 27.3282C104.577 26.6959 105.226 26.3848 105.998 26.3848C106.637 26.3848 107.287 26.6959 107.936 27.3282C108.586 27.9604 108.86 28.9038 108.748 30.1683H104.343H104.354ZM107.581 28.8637C107.479 28.4923 107.287 28.2113 106.982 28.0006C106.678 27.7898 106.353 27.6894 106.008 27.6894C105.632 27.6894 105.308 27.7998 105.033 28.0307C104.759 28.2615 104.556 28.5325 104.425 28.8637H107.581Z" fill="#72706D"/>
<path d="M113.621 31.7839C113.326 32.1452 113.001 32.4161 112.626 32.5868C112.25 32.7574 111.905 32.8377 111.57 32.8176C110.941 32.8076 110.353 32.4864 109.805 31.8842C109.256 31.272 108.982 30.5093 108.982 29.596C108.982 28.6827 109.256 27.92 109.805 27.3078C110.353 26.6956 110.951 26.3945 111.591 26.3945C111.905 26.3945 112.24 26.4648 112.596 26.5953C112.951 26.7257 113.296 27.0168 113.621 27.4684V26.5852H114.93V32.6269H113.621V31.7839ZM110.779 31.0312C111.104 31.4125 111.499 31.5932 111.956 31.5932C112.413 31.5932 112.809 31.4025 113.133 31.0312C113.458 30.6498 113.621 30.1882 113.621 29.6362C113.621 29.0842 113.458 28.6426 113.133 28.2612C112.809 27.8799 112.413 27.6992 111.956 27.6992C111.499 27.6992 111.114 27.8899 110.779 28.2612C110.454 28.6426 110.292 29.0942 110.292 29.6362C110.292 30.1781 110.454 30.6498 110.779 31.0312Z" fill="#72706D"/>
<path d="M122.43 24.207H125.464C126.185 24.207 126.733 24.4278 127.098 24.8794C127.474 25.3311 127.657 25.8329 127.657 26.3748C127.657 26.8365 127.413 27.3784 126.916 28.0006C127.667 28.6028 128.042 29.2752 128.042 30.0179C128.042 31.0014 127.748 31.6839 127.169 32.0652C126.591 32.4466 126.083 32.6373 125.647 32.6373H122.43V24.207ZM123.729 25.5117V27.4487H125.474C125.759 27.4487 125.982 27.3483 126.134 27.1476C126.286 26.9469 126.357 26.7261 126.357 26.4852C126.357 26.2443 126.286 26.0236 126.134 25.8228C125.982 25.6221 125.759 25.5218 125.474 25.5218H123.729V25.5117ZM123.729 28.7533V31.3226H125.617C125.891 31.3226 126.154 31.2021 126.388 30.9713C126.621 30.7405 126.743 30.4294 126.743 30.038C126.743 29.6466 126.621 29.3354 126.388 29.1046C126.154 28.8738 125.891 28.7533 125.617 28.7533H123.729Z" fill="#72706D"/>
<path d="M128.469 25.5117V24.207H129.778V25.5117H128.469ZM128.469 32.6273V26.7963H129.778V32.6273H128.469Z" fill="#72706D"/>
<path d="M131.187 27.3184C131.735 26.6861 132.385 26.375 133.146 26.375C133.907 26.375 134.577 26.6861 135.115 27.3184C135.663 27.9507 135.927 28.7034 135.927 29.5966C135.927 30.4898 135.653 31.2625 135.115 31.8948C134.567 32.5271 133.917 32.8382 133.146 32.8382C132.374 32.8382 131.735 32.5271 131.187 31.8948C130.639 31.2625 130.375 30.4998 130.375 29.5966C130.375 28.6933 130.649 27.9507 131.187 27.3184ZM131.979 28.2417C131.644 28.613 131.481 29.0647 131.481 29.5966C131.481 30.1285 131.644 30.5801 131.979 30.9615C132.313 31.3428 132.699 31.5335 133.146 31.5335C133.592 31.5335 133.998 31.3428 134.333 30.9615C134.668 30.5801 134.83 30.1285 134.83 29.5966C134.83 29.0647 134.668 28.6231 134.333 28.2417C133.998 27.8704 133.602 27.6797 133.146 27.6797C132.689 27.6797 132.313 27.8704 131.979 28.2417Z" fill="#72706D"/>
<path d="M136.455 25.5117V24.207H137.764V25.5117H136.455ZM136.455 32.6273V26.7963H137.764V32.6273H136.455Z" fill="#72706D"/>
<path d="M143.235 27.1478C143.672 27.6696 143.885 28.2216 143.885 28.8138V32.6274H142.576V29.3156C142.576 28.9342 142.434 28.5729 142.159 28.2116C141.875 27.8503 141.54 27.6797 141.145 27.6797C140.749 27.6797 140.414 27.8603 140.13 28.2116C139.845 28.5729 139.714 28.9342 139.714 29.3156V32.6274H138.404V26.5858H139.714V27.3886C140.373 26.7162 141.023 26.375 141.652 26.375C142.281 26.375 142.789 26.6359 143.225 27.1578L143.235 27.1478Z" fill="#72706D"/>
<path d="M145.336 27.6589H144.301V26.585H145.336C145.417 25.8725 145.63 25.3105 145.965 24.919C146.351 24.4875 146.95 24.2567 147.762 24.2266V25.4008C147.386 25.4008 147.102 25.5112 146.909 25.7219C146.757 25.9026 146.666 26.1936 146.635 26.585H147.762V27.6589H146.635V32.6267H145.326V27.6589H145.336Z" fill="#72706D"/>
<path d="M148.919 27.3184C149.457 26.6861 150.117 26.375 150.878 26.375C151.639 26.375 152.309 26.6861 152.857 27.3184C153.405 27.9507 153.669 28.7034 153.669 29.5966C153.669 30.4898 153.395 31.2625 152.857 31.8948C152.309 32.5271 151.66 32.8382 150.878 32.8382C150.097 32.8382 149.467 32.5271 148.919 31.8948C148.371 31.2625 148.107 30.4998 148.107 29.5966C148.107 28.6933 148.381 27.9507 148.919 27.3184ZM149.711 28.2417C149.376 28.613 149.214 29.0647 149.214 29.5966C149.214 30.1285 149.376 30.5801 149.711 30.9615C150.046 31.3428 150.432 31.5335 150.878 31.5335C151.325 31.5335 151.731 31.3428 152.066 30.9615C152.401 30.5801 152.563 30.1285 152.563 29.5966C152.563 29.0647 152.401 28.6231 152.066 28.2417C151.731 27.8704 151.335 27.6797 150.878 27.6797C150.421 27.6797 150.046 27.8704 149.711 28.2417Z" fill="#72706D"/>
<path d="M155.697 27.1068C155.809 26.9362 155.992 26.7756 156.235 26.6251C156.55 26.4244 156.946 26.3742 157.433 26.4545V27.5685C156.915 27.5283 156.53 27.5885 156.276 27.7591C155.971 27.9599 155.768 28.2108 155.657 28.5219C155.545 28.833 155.494 29.0438 155.494 29.1541V32.6266H154.195V26.5849H155.494V27.448C155.515 27.3978 155.586 27.2774 155.708 27.1168L155.697 27.1068Z" fill="#72706D"/>
<path d="M165.157 27.0173C165.532 27.4489 165.715 27.9507 165.715 28.5227V32.6274H164.416V28.7836C164.416 28.4826 164.315 28.2216 164.112 28.0008C163.909 27.7901 163.675 27.6797 163.411 27.6797C163.066 27.6797 162.813 27.8102 162.65 28.0912C162.488 28.3621 162.396 28.593 162.396 28.7836V32.6274H161.239V28.7836C161.239 28.5528 161.148 28.3019 160.955 28.0611C160.773 27.8102 160.509 27.6897 160.164 27.6897C159.819 27.6897 159.585 27.8102 159.392 28.0611C159.21 28.312 159.108 28.5528 159.108 28.7836V32.6274H157.799V26.5858H159.108V27.2381C159.656 26.666 160.184 26.375 160.701 26.375C161.158 26.375 161.656 26.6761 162.183 27.2782C162.701 26.6761 163.229 26.375 163.756 26.375C164.284 26.375 164.761 26.5858 165.137 27.0173H165.157Z" fill="#72706D"/>
<path d="M170.892 31.7839C170.598 32.1452 170.273 32.4161 169.897 32.5868C169.522 32.7574 169.177 32.8377 168.842 32.8176C168.213 32.8076 167.624 32.4864 167.076 31.8842C166.528 31.272 166.254 30.5093 166.254 29.596C166.254 28.6827 166.528 27.92 167.076 27.3078C167.624 26.6956 168.223 26.3945 168.862 26.3945C169.177 26.3945 169.512 26.4648 169.867 26.5953C170.222 26.7257 170.567 27.0168 170.892 27.4684V26.5852H172.201V32.6269H170.892V31.7839ZM168.05 31.0312C168.375 31.4125 168.771 31.5932 169.228 31.5932C169.684 31.5932 170.08 31.4025 170.405 31.0312C170.73 30.6498 170.892 30.1882 170.892 29.6362C170.892 29.0842 170.73 28.6426 170.405 28.2612C170.08 27.8799 169.684 27.6992 169.228 27.6992C168.771 27.6992 168.375 27.8899 168.05 28.2612C167.726 28.6426 167.563 29.0942 167.563 29.6362C167.563 30.1781 167.726 30.6498 168.05 31.0312Z" fill="#72706D"/>
<path d="M174.962 27.6594V32.6273H173.663V27.6594H172.607V26.5856H173.663V24.207H174.962V26.5856H176.018V27.6594H174.962Z" fill="#72706D"/>
<path d="M176.463 25.5117V24.207H177.772V25.5117H176.463ZM176.463 32.6273V26.7963H177.772V32.6273H176.463Z" fill="#72706D"/>
<path d="M179.183 27.3184C179.731 26.6861 180.381 26.375 181.142 26.375C181.903 26.375 182.573 26.6861 183.121 27.3184C183.669 27.9507 183.933 28.7034 183.933 29.5966C183.933 30.4898 183.659 31.2625 183.121 31.8948C182.573 32.5271 181.923 32.8382 181.142 32.8382C180.36 32.8382 179.731 32.5271 179.183 31.8948C178.635 31.2625 178.371 30.4998 178.371 29.5966C178.371 28.6933 178.645 27.9507 179.183 27.3184ZM179.975 28.2417C179.64 28.613 179.477 29.0647 179.477 29.5966C179.477 30.1285 179.64 30.5801 179.975 30.9615C180.31 31.3428 180.695 31.5335 181.142 31.5335C181.588 31.5335 181.994 31.3428 182.329 30.9615C182.664 30.5801 182.827 30.1285 182.827 29.5966C182.827 29.0647 182.664 28.6231 182.329 28.2417C181.994 27.8704 181.599 27.6797 181.142 27.6797C180.685 27.6797 180.31 27.8704 179.975 28.2417Z" fill="#72706D"/>
<path d="M189.241 27.1478C189.678 27.6696 189.891 28.2216 189.891 28.8138V32.6274H188.581V29.3156C188.581 28.9342 188.439 28.5729 188.165 28.2116C187.881 27.8503 187.546 27.6797 187.15 27.6797C186.755 27.6797 186.42 27.8603 186.136 28.2116C185.851 28.5729 185.719 28.9342 185.719 29.3156V32.6274H184.41V26.5858H185.719V27.3886C186.379 26.7162 187.029 26.375 187.658 26.375C188.287 26.375 188.795 26.6359 189.231 27.1578L189.241 27.1478Z" fill="#72706D"/>
<path d="M203.348 27.0272C203.226 26.676 202.962 26.3047 202.556 25.9032C202.15 25.5018 201.632 25.301 200.993 25.301C200.313 25.301 199.714 25.5921 199.186 26.1842C198.659 26.7763 198.395 27.519 198.395 28.4223C198.395 29.3255 198.659 30.0481 199.197 30.6402C199.724 31.2323 200.323 31.5334 200.993 31.5334C201.663 31.5334 202.14 31.3427 202.526 30.9614C202.901 30.58 203.175 30.2087 203.348 29.8273H204.637C204.413 30.7205 203.957 31.4531 203.287 32.0051C202.617 32.5571 201.856 32.8381 200.993 32.8381C199.958 32.8381 199.044 32.4066 198.263 31.5435C197.481 30.6804 197.096 29.6366 197.096 28.4122C197.096 27.1878 197.481 26.1441 198.263 25.281C199.044 24.4179 199.948 23.9863 200.993 23.9863C201.846 23.9863 202.617 24.2673 203.287 24.8193C203.957 25.3713 204.403 26.1039 204.637 27.0172H203.348V27.0272Z" fill="#72706D"/>
<path d="M206.282 30.1683C206.363 30.5397 206.556 30.8608 206.83 31.1318C207.114 31.4028 207.479 31.5433 207.926 31.5433C208.271 31.5433 208.575 31.4429 208.809 31.2522C209.052 31.0515 209.215 30.8709 209.296 30.7003H210.514C210.311 31.3426 209.986 31.8644 209.55 32.2558C209.103 32.6472 208.565 32.848 207.926 32.848C207.154 32.848 206.495 32.5368 205.947 31.9046C205.399 31.2723 205.135 30.5096 205.135 29.6063C205.135 28.7031 205.409 27.9604 205.947 27.3282C206.495 26.6959 207.144 26.3848 207.926 26.3848C208.565 26.3848 209.215 26.6959 209.864 27.3282C210.514 27.9604 210.788 28.9038 210.676 30.1683H206.271H206.282ZM209.509 28.8637C209.418 28.4923 209.215 28.2113 208.91 28.0006C208.606 27.7898 208.281 27.6894 207.936 27.6894C207.56 27.6894 207.236 27.7998 206.962 28.0307C206.688 28.2615 206.485 28.5325 206.353 28.8637H209.499H209.509Z" fill="#72706D"/>
<path d="M215.913 27.1478C216.349 27.6696 216.562 28.2216 216.562 28.8138V32.6274H215.263V29.3156C215.263 28.9342 215.121 28.5729 214.847 28.2116C214.563 27.8503 214.228 27.6797 213.832 27.6797C213.436 27.6797 213.101 27.8603 212.817 28.2116C212.533 28.5729 212.401 28.9342 212.401 29.3156V32.6274H211.092V26.5858H212.401V27.3886C213.061 26.7162 213.71 26.375 214.34 26.375C214.969 26.375 215.476 26.6359 215.913 27.1578V27.1478Z" fill="#72706D"/>
<path d="M219.364 27.6594V32.6273H218.065V27.6594H217.01V26.5856H218.065V24.207H219.364V26.5856H220.42V27.6594H219.364Z" fill="#72706D"/>
<path d="M221.932 30.1683C222.014 30.5397 222.196 30.8608 222.48 31.1318C222.765 31.4028 223.13 31.5433 223.577 31.5433C223.922 31.5433 224.216 31.4429 224.46 31.2522C224.703 31.0515 224.865 30.8709 224.947 30.7003H226.154C225.951 31.3426 225.627 31.8644 225.19 32.2558C224.754 32.6472 224.206 32.848 223.566 32.848C222.795 32.848 222.135 32.5368 221.587 31.9046C221.039 31.2723 220.775 30.5096 220.775 29.6063C220.775 28.7031 221.049 27.9604 221.587 27.3282C222.135 26.6959 222.785 26.3848 223.566 26.3848C224.206 26.3848 224.855 26.6959 225.505 27.3282C226.154 27.9604 226.428 28.9038 226.317 30.1683H221.912H221.932ZM225.16 28.8637C225.058 28.4923 224.865 28.2113 224.561 28.0006C224.257 27.7898 223.932 27.6894 223.587 27.6894C223.211 27.6894 222.886 27.7998 222.612 28.0307C222.338 28.2615 222.135 28.5325 222.003 28.8637H225.16Z" fill="#72706D"/>
<path d="M228.276 27.1068C228.387 26.9362 228.57 26.7756 228.813 26.6251C229.128 26.4244 229.524 26.3742 230.011 26.4545V27.5685C229.493 27.5283 229.108 27.5885 228.854 27.7591C228.55 27.9599 228.347 28.2108 228.235 28.5219C228.123 28.833 228.073 29.0438 228.073 29.1541V32.6266H226.773V26.5849H228.073V27.448C228.093 27.3978 228.164 27.2774 228.286 27.1168L228.276 27.1068Z" fill="#72706D"/>
</g>
<defs>
<clipPath id="clip0_836_12405">
<rect width="230" height="39" fill="white"/>
</clipPath>
</defs>
</svg>
