<svg width="24" height="24" viewBox="0 0 24 24" fill="none" xmlns="http://www.w3.org/2000/svg">
<path d="M21 11C19.55 11 18.74 12.44 19.07 13.51L15.52 17.07C15.22 16.98 14.78 16.98 14.48 17.07L11.93 14.52C12.27 13.45 11.46 12 10 12C8.55 12 7.73 13.44 8.07 14.52L3.51 19.07C2.44 18.74 1 19.55 1 21C1 22.1 1.9 23 3 23C4.45 23 5.26 21.56 4.93 20.49L9.48 15.93C9.78 16.02 10.22 16.02 10.52 15.93L13.07 18.48C12.73 19.55 13.54 21 15 21C16.45 21 17.27 19.56 16.93 18.48L20.49 14.93C21.56 15.26 23 14.45 23 13C23 11.9 22.1 11 21 11Z" fill="#ffffff" fill-opacity="1"/>
<path d="M18.5455 5C17.4909 5 16.9018 6.04727 17.1418 6.82545L14.56 9.41455C14.3418 9.34909 14.0218 9.34909 13.8036 9.41455L11.9491 7.56C12.1964 6.78182 11.6073 5.72727 10.5455 5.72727C9.49091 5.72727 8.89455 6.77455 9.14182 7.56L5.82545 10.8691C5.04727 10.6291 4 11.2182 4 12.2727C4 13.0727 4.65455 13.7273 5.45455 13.7273C6.50909 13.7273 7.09818 12.68 6.85818 11.9018L10.1673 8.58545C10.3855 8.65091 10.7055 8.65091 10.9236 8.58545L12.7782 10.44C12.5309 11.2182 13.12 12.2727 14.1818 12.2727C15.2364 12.2727 15.8327 11.2255 15.5855 10.44L18.1745 7.85818C18.9527 8.09818 20 7.50909 20 6.45455C20 5.65455 19.3455 5 18.5455 5Z" fill="#ffffff" fill-opacity="1"/>
</svg>
