<svg width="24" height="24" viewBox="0 0 24 24" fill="none" xmlns="http://www.w3.org/2000/svg">
<path d="M20 20C21.1 20 21.99 19.1 21.99 18L22 7C22 5.9 21.1 5 20 5H4C2.9 5 2 5.9 2 7V18C2 19.1 2.9 20 4 20H0C0 21.1 0.9 22 2 22H22C23.1 22 24 21.1 24 20H20ZM4 7H20V18H4V7ZM12 21C11.45 21 11 20.55 11 20C11 19.45 11.45 19 12 19C12.55 19 13 19.45 13 20C13 20.55 12.55 21 12 21Z" fill="#3E4154" fill-opacity="0.9"/>
<rect x="6.5" y="9" width="11" height="1.5" fill="#3E4154" fill-opacity="0.9"/>
<rect x="6.5" y="11.75" width="7.5" height="1.5" fill="#3E4154" fill-opacity="0.9"/>
<rect x="6.5" y="14.5" width="8.5" height="1.5" fill="#3E4154" fill-opacity="0.9"/>
<rect x="15" y="11.75" width="2.5" height="1.5" fill="#3E4154" fill-opacity="0.9"/>
</svg>
