<svg width="804" height="472" viewBox="0 0 804 472" fill="none" xmlns="http://www.w3.org/2000/svg">
<path d="M415.139 193.764C411.725 198.175 407.16 200.941 402.019 200.941C396.879 200.941 392.314 198.175 388.9 193.764C372.097 153.995 332.24 126 285.746 126C224.023 126 174 175.225 174 236C174 296.775 224.023 346 285.746 346C332.24 346 372.097 318.005 388.9 278.236C392.314 273.825 396.917 271.059 402.019 271.059C407.121 271.059 411.725 273.825 415.139 278.236C431.941 318.005 471.798 346 518.292 346C579.977 346 630 296.737 630 236C630 175.263 579.977 126 518.292 126C471.798 126 431.941 153.995 415.139 193.764Z" fill="url(#paint0_linear_630_887)"/>
<path d="M333.43 405H335.29V399.18H337.71C340.93 399.18 343.11 397.74 343.11 394.64C343.11 391.44 340.91 390.32 337.63 390.32H333.43V405ZM335.29 397.68V391.84H337.39C339.97 391.84 341.27 392.52 341.27 394.64C341.27 396.74 340.05 397.68 337.47 397.68H335.29ZM345.307 405H347.127V398.02C347.847 396.16 348.967 395.52 349.867 395.52C350.307 395.52 350.567 395.56 350.927 395.7L351.267 394.1C350.927 393.92 350.587 393.86 350.107 393.86C348.887 393.86 347.787 394.74 347.027 396.12H346.967L346.807 394.14H345.307V405ZM356.466 405.26C359.126 405.26 361.506 403.18 361.506 399.58C361.506 395.96 359.126 393.86 356.466 393.86C353.806 393.86 351.426 395.96 351.426 399.58C351.426 403.18 353.806 405.26 356.466 405.26ZM356.466 403.74C354.586 403.74 353.326 402.08 353.326 399.58C353.326 397.08 354.586 395.38 356.466 395.38C358.346 395.38 359.626 397.08 359.626 399.58C359.626 402.08 358.346 403.74 356.466 403.74ZM368.055 405.26C369.355 405.26 370.595 404.76 371.575 403.88L370.775 402.66C370.095 403.28 369.215 403.74 368.215 403.74C366.215 403.74 364.855 402.08 364.855 399.58C364.855 397.08 366.295 395.38 368.275 395.38C369.135 395.38 369.795 395.78 370.435 396.34L371.375 395.14C370.595 394.46 369.615 393.86 368.195 393.86C365.415 393.86 362.955 395.96 362.955 399.58C362.955 403.18 365.175 405.26 368.055 405.26ZM377.242 405.26C378.722 405.26 379.882 404.76 380.842 404.14L380.182 402.94C379.382 403.48 378.522 403.8 377.462 403.8C375.402 403.8 373.982 402.32 373.862 400H381.182C381.222 399.74 381.262 399.36 381.262 398.96C381.262 395.86 379.702 393.86 376.942 393.86C374.422 393.86 372.042 396.06 372.042 399.58C372.042 403.16 374.362 405.26 377.242 405.26ZM373.842 398.68C374.062 396.56 375.422 395.32 376.962 395.32C378.662 395.32 379.662 396.5 379.662 398.68H373.842ZM386.176 405.26C388.736 405.26 390.136 403.8 390.136 402.04C390.136 399.98 388.396 399.34 386.816 398.74C385.596 398.28 384.476 397.9 384.476 396.86C384.476 396.02 385.116 395.3 386.496 395.3C387.456 395.3 388.216 395.7 388.956 396.26L389.836 395.08C388.996 394.42 387.816 393.86 386.476 393.86C384.116 393.86 382.716 395.22 382.716 396.94C382.716 398.78 384.376 399.52 385.896 400.08C387.096 400.54 388.376 401.02 388.376 402.14C388.376 403.08 387.676 403.84 386.236 403.84C384.936 403.84 383.956 403.32 383.016 402.56L382.116 403.76C383.156 404.62 384.636 405.26 386.176 405.26ZM394.932 405.26C397.492 405.26 398.892 403.8 398.892 402.04C398.892 399.98 397.152 399.34 395.572 398.74C394.352 398.28 393.232 397.9 393.232 396.86C393.232 396.02 393.872 395.3 395.252 395.3C396.212 395.3 396.972 395.7 397.712 396.26L398.592 395.08C397.752 394.42 396.572 393.86 395.232 393.86C392.872 393.86 391.472 395.22 391.472 396.94C391.472 398.78 393.132 399.52 394.652 400.08C395.852 400.54 397.132 401.02 397.132 402.14C397.132 403.08 396.432 403.84 394.992 403.84C393.692 403.84 392.712 403.32 391.772 402.56L390.872 403.76C391.912 404.62 393.392 405.26 394.932 405.26ZM405.227 405.26C406.707 405.26 407.867 404.76 408.827 404.14L408.167 402.94C407.367 403.48 406.507 403.8 405.447 403.8C403.387 403.8 401.967 402.32 401.847 400H409.167C409.207 399.74 409.247 399.36 409.247 398.96C409.247 395.86 407.687 393.86 404.927 393.86C402.407 393.86 400.027 396.06 400.027 399.58C400.027 403.16 402.347 405.26 405.227 405.26ZM401.827 398.68C402.047 396.56 403.407 395.32 404.947 395.32C406.647 395.32 407.647 396.5 407.647 398.68H401.827ZM414.162 405.26C416.722 405.26 418.122 403.8 418.122 402.04C418.122 399.98 416.382 399.34 414.802 398.74C413.582 398.28 412.462 397.9 412.462 396.86C412.462 396.02 413.102 395.3 414.482 395.3C415.442 395.3 416.202 395.7 416.942 396.26L417.822 395.08C416.982 394.42 415.802 393.86 414.462 393.86C412.102 393.86 410.702 395.22 410.702 396.94C410.702 398.78 412.362 399.52 413.882 400.08C415.082 400.54 416.362 401.02 416.362 402.14C416.362 403.08 415.662 403.84 414.222 403.84C412.922 403.84 411.942 403.32 411.002 402.56L410.102 403.76C411.142 404.62 412.622 405.26 414.162 405.26ZM426.45 405.26C427.79 405.26 429.01 404.56 430.05 403.7H430.11L430.27 405H431.77V398.32C431.77 395.64 430.65 393.86 428.01 393.86C426.27 393.86 424.73 394.64 423.73 395.28L424.45 396.54C425.31 395.96 426.45 395.38 427.71 395.38C429.49 395.38 429.95 396.72 429.95 398.12C425.33 398.64 423.27 399.82 423.27 402.18C423.27 404.14 424.63 405.26 426.45 405.26ZM426.97 403.8C425.89 403.8 425.05 403.3 425.05 402.06C425.05 400.66 426.29 399.76 429.95 399.32V402.36C428.89 403.3 428.03 403.8 426.97 403.8ZM440.431 405.26C440.931 405.26 441.231 405.2 441.491 405.1L441.231 403.7C441.031 403.74 440.951 403.74 440.851 403.74C440.571 403.74 440.331 403.52 440.331 402.96V389.08H438.511V402.84C438.511 404.38 439.071 405.26 440.431 405.26ZM446.115 405.26C447.455 405.26 448.675 404.56 449.715 403.7H449.775L449.935 405H451.435V398.32C451.435 395.64 450.315 393.86 447.675 393.86C445.935 393.86 444.395 394.64 443.395 395.28L444.115 396.54C444.975 395.96 446.115 395.38 447.375 395.38C449.155 395.38 449.615 396.72 449.615 398.12C444.995 398.64 442.935 399.82 442.935 402.18C442.935 404.14 444.295 405.26 446.115 405.26ZM446.635 403.8C445.555 403.8 444.715 403.3 444.715 402.06C444.715 400.66 445.955 399.76 449.615 399.32V402.36C448.555 403.3 447.695 403.8 446.635 403.8ZM454.304 405H456.124V398.02C456.844 396.16 457.964 395.52 458.864 395.52C459.304 395.52 459.564 395.56 459.924 395.7L460.264 394.1C459.924 393.92 459.584 393.86 459.104 393.86C457.884 393.86 456.784 394.74 456.024 396.12H455.964L455.804 394.14H454.304V405ZM464.903 410C468.263 410 470.403 408.26 470.403 406.24C470.403 404.46 469.123 403.66 466.603 403.66H464.483C463.023 403.66 462.583 403.18 462.583 402.48C462.583 401.88 462.883 401.52 463.283 401.18C463.763 401.42 464.363 401.56 464.903 401.56C467.103 401.56 468.863 400.1 468.863 397.78C468.863 396.84 468.503 396.04 467.983 395.54H470.203V394.14H466.423C466.043 394 465.503 393.86 464.903 393.86C462.703 393.86 460.823 395.36 460.823 397.74C460.823 399.04 461.523 400.08 462.243 400.66V400.74C461.683 401.14 461.023 401.86 461.023 402.76C461.023 403.62 461.443 404.2 462.023 404.54V404.62C461.003 405.28 460.423 406.16 460.423 407.08C460.423 408.96 462.243 410 464.903 410ZM464.903 400.32C463.643 400.32 462.583 399.32 462.583 397.74C462.583 396.14 463.623 395.2 464.903 395.2C466.183 395.2 467.223 396.16 467.223 397.74C467.223 399.32 466.143 400.32 464.903 400.32ZM465.163 408.76C463.203 408.76 462.023 408 462.023 406.84C462.023 406.2 462.343 405.56 463.123 405C463.603 405.12 464.123 405.18 464.523 405.18H466.403C467.843 405.18 468.623 405.52 468.623 406.52C468.623 407.66 467.243 408.76 465.163 408.76ZM475.999 405.26C477.479 405.26 478.639 404.76 479.599 404.14L478.939 402.94C478.139 403.48 477.279 403.8 476.219 403.8C474.159 403.8 472.739 402.32 472.619 400H479.939C479.979 399.74 480.019 399.36 480.019 398.96C480.019 395.86 478.459 393.86 475.699 393.86C473.179 393.86 470.799 396.06 470.799 399.58C470.799 403.16 473.119 405.26 475.999 405.26ZM472.599 398.68C472.819 396.56 474.179 395.32 475.719 395.32C477.419 395.32 478.419 396.5 478.419 398.68H472.599ZM488.306 405H490.426L494.286 394.14H492.486L490.426 400.32C490.106 401.38 489.766 402.5 489.426 403.52H489.346C489.006 402.5 488.666 401.38 488.326 400.32L486.286 394.14H484.386L488.306 405ZM499.938 405.26C502.598 405.26 504.978 403.18 504.978 399.58C504.978 395.96 502.598 393.86 499.938 393.86C497.278 393.86 494.898 395.96 494.898 399.58C494.898 403.18 497.278 405.26 499.938 405.26ZM499.938 403.74C498.058 403.74 496.798 402.08 496.798 399.58C496.798 397.08 498.058 395.38 499.938 395.38C501.818 395.38 503.098 397.08 503.098 399.58C503.098 402.08 501.818 403.74 499.938 403.74ZM509.167 405.26C509.667 405.26 509.967 405.2 510.227 405.1L509.967 403.7C509.767 403.74 509.687 403.74 509.587 403.74C509.307 403.74 509.067 403.52 509.067 402.96V389.08H507.247V402.84C507.247 404.38 507.807 405.26 509.167 405.26ZM515.51 405.26C517.01 405.26 518.09 404.48 519.11 403.3H519.17L519.31 405H520.83V394.14H519.01V401.84C517.97 403.14 517.19 403.68 516.07 403.68C514.63 403.68 514.03 402.82 514.03 400.8V394.14H512.21V401.02C512.21 403.78 513.23 405.26 515.51 405.26ZM523.898 405H525.718V397.12C526.718 396 527.638 395.46 528.458 395.46C529.838 395.46 530.478 396.32 530.478 398.36V405H532.298V397.12C533.318 396 534.198 395.46 535.038 395.46C536.418 395.46 537.058 396.32 537.058 398.36V405H538.878V398.12C538.878 395.34 537.818 393.86 535.578 393.86C534.258 393.86 533.118 394.72 531.998 395.94C531.558 394.66 530.658 393.86 528.998 393.86C527.698 393.86 526.558 394.68 525.618 395.72H525.558L525.398 394.14H523.898V405ZM546.194 405.26C547.674 405.26 548.834 404.76 549.794 404.14L549.134 402.94C548.334 403.48 547.474 403.8 546.414 403.8C544.354 403.8 542.934 402.32 542.814 400H550.134C550.174 399.74 550.214 399.36 550.214 398.96C550.214 395.86 548.654 393.86 545.894 393.86C543.374 393.86 540.994 396.06 540.994 399.58C540.994 403.16 543.314 405.26 546.194 405.26ZM542.794 398.68C543.014 396.56 544.374 395.32 545.914 395.32C547.614 395.32 548.614 396.5 548.614 398.68H542.794ZM560.381 405.26C563.041 405.26 565.421 403.18 565.421 399.58C565.421 395.96 563.041 393.86 560.381 393.86C557.721 393.86 555.341 395.96 555.341 399.58C555.341 403.18 557.721 405.26 560.381 405.26ZM560.381 403.74C558.501 403.74 557.241 402.08 557.241 399.58C557.241 397.08 558.501 395.38 560.381 395.38C562.261 395.38 563.541 397.08 563.541 399.58C563.541 402.08 562.261 403.74 560.381 403.74ZM567.99 405H569.81V395.62H572.11V394.14H569.81V392.42C569.81 391.02 570.31 390.28 571.35 390.28C571.73 390.28 572.17 390.38 572.57 390.56L572.97 389.18C572.47 388.96 571.81 388.82 571.15 388.82C568.99 388.82 567.99 390.2 567.99 392.4V394.14L566.51 394.24V395.62H567.99V405ZM581.166 405.26C582.466 405.26 583.606 404.56 584.466 403.72H584.526L584.686 405H586.166V389.08H584.366V393.26L584.446 395.14C583.486 394.34 582.666 393.86 581.386 393.86C578.906 393.86 576.686 396.06 576.686 399.58C576.686 403.2 578.446 405.26 581.166 405.26ZM581.566 403.74C579.646 403.74 578.566 402.18 578.566 399.56C578.566 397.08 579.946 395.4 581.706 395.4C582.606 395.4 583.426 395.72 584.366 396.54V402.24C583.446 403.24 582.566 403.74 581.566 403.74ZM591.769 405.26C593.109 405.26 594.329 404.56 595.369 403.7H595.429L595.589 405H597.089V398.32C597.089 395.64 595.969 393.86 593.329 393.86C591.589 393.86 590.049 394.64 589.049 395.28L589.769 396.54C590.629 395.96 591.769 395.38 593.029 395.38C594.809 395.38 595.269 396.72 595.269 398.12C590.649 398.64 588.589 399.82 588.589 402.18C588.589 404.14 589.949 405.26 591.769 405.26ZM592.289 403.8C591.209 403.8 590.369 403.3 590.369 402.06C590.369 400.66 591.609 399.76 595.269 399.32V402.36C594.209 403.3 593.349 403.8 592.289 403.8ZM603.085 405.26C603.745 405.26 604.465 405.06 605.085 404.86L604.725 403.5C604.365 403.64 603.865 403.78 603.485 403.78C602.225 403.78 601.805 403.02 601.805 401.68V395.62H604.745V394.14H601.805V391.08H600.285L600.065 394.14L598.365 394.24V395.62H599.985V401.64C599.985 403.8 600.765 405.26 603.085 405.26ZM608.615 405.26C609.955 405.26 611.175 404.56 612.215 403.7H612.275L612.435 405H613.935V398.32C613.935 395.64 612.815 393.86 610.175 393.86C608.435 393.86 606.895 394.64 605.895 395.28L606.615 396.54C607.475 395.96 608.615 395.38 609.875 395.38C611.655 395.38 612.115 396.72 612.115 398.12C607.495 398.64 605.435 399.82 605.435 402.18C605.435 404.14 606.795 405.26 608.615 405.26ZM609.135 403.8C608.055 403.8 607.215 403.3 607.215 402.06C607.215 400.66 608.455 399.76 612.115 399.32V402.36C611.055 403.3 610.195 403.8 609.135 403.8ZM623.517 405.26C626.077 405.26 627.477 403.8 627.477 402.04C627.477 399.98 625.737 399.34 624.157 398.74C622.937 398.28 621.817 397.9 621.817 396.86C621.817 396.02 622.457 395.3 623.837 395.3C624.797 395.3 625.557 395.7 626.297 396.26L627.177 395.08C626.337 394.42 625.157 393.86 623.817 393.86C621.457 393.86 620.057 395.22 620.057 396.94C620.057 398.78 621.717 399.52 623.237 400.08C624.437 400.54 625.717 401.02 625.717 402.14C625.717 403.08 625.017 403.84 623.577 403.84C622.277 403.84 621.297 403.32 620.357 402.56L619.457 403.76C620.497 404.62 621.977 405.26 623.517 405.26ZM632.403 405.26C633.063 405.26 633.783 405.06 634.403 404.86L634.043 403.5C633.683 403.64 633.183 403.78 632.803 403.78C631.543 403.78 631.123 403.02 631.123 401.68V395.62H634.063V394.14H631.123V391.08H629.603L629.383 394.14L627.683 394.24V395.62H629.303V401.64C629.303 403.8 630.083 405.26 632.403 405.26ZM637.934 405.26C639.274 405.26 640.494 404.56 641.534 403.7H641.594L641.754 405H643.254V398.32C643.254 395.64 642.134 393.86 639.494 393.86C637.754 393.86 636.214 394.64 635.214 395.28L635.934 396.54C636.794 395.96 637.934 395.38 639.194 395.38C640.974 395.38 641.434 396.72 641.434 398.12C636.814 398.64 634.754 399.82 634.754 402.18C634.754 404.14 636.114 405.26 637.934 405.26ZM638.454 403.8C637.374 403.8 636.534 403.3 636.534 402.06C636.534 400.66 637.774 399.76 641.434 399.32V402.36C640.374 403.3 639.514 403.8 638.454 403.8ZM650.903 405.26C653.403 405.26 655.623 403.12 655.623 399.38C655.623 396.06 654.103 393.86 651.283 393.86C650.083 393.86 648.863 394.54 647.883 395.4L647.943 393.44V389.08H646.123V405H647.583L647.743 403.88H647.823C648.763 404.74 649.903 405.26 650.903 405.26ZM650.603 403.74C649.883 403.74 648.903 403.44 647.943 402.6V396.9C648.983 395.92 649.943 395.4 650.863 395.4C652.923 395.4 653.723 397.02 653.723 399.42C653.723 402.12 652.403 403.74 650.603 403.74ZM659.806 405.26C660.306 405.26 660.606 405.2 660.866 405.1L660.606 403.7C660.406 403.74 660.326 403.74 660.226 403.74C659.946 403.74 659.706 403.52 659.706 402.96V389.08H657.886V402.84C657.886 404.38 658.446 405.26 659.806 405.26ZM663.17 409.68C665.33 409.68 666.47 408.04 667.21 405.9L671.31 394.14H669.53L667.59 400.18C667.29 401.14 666.97 402.24 666.67 403.22H666.57C666.23 402.24 665.85 401.12 665.53 400.18L663.31 394.14H661.41L665.77 405.02L665.53 405.84C665.09 407.18 664.31 408.18 663.07 408.18C662.79 408.18 662.47 408.08 662.25 408L661.89 409.46C662.23 409.6 662.65 409.68 663.17 409.68ZM679.192 405.26C680.532 405.26 681.752 404.56 682.792 403.7H682.852L683.012 405H684.512V398.32C684.512 395.64 683.392 393.86 680.752 393.86C679.012 393.86 677.472 394.64 676.472 395.28L677.192 396.54C678.052 395.96 679.192 395.38 680.452 395.38C682.232 395.38 682.692 396.72 682.692 398.12C678.072 398.64 676.012 399.82 676.012 402.18C676.012 404.14 677.372 405.26 679.192 405.26ZM679.712 403.8C678.632 403.8 677.792 403.3 677.792 402.06C677.792 400.66 679.032 399.76 682.692 399.32V402.36C681.632 403.3 680.772 403.8 679.712 403.8ZM687.381 405H689.201V397.12C690.301 396.02 691.061 395.46 692.181 395.46C693.621 395.46 694.241 396.32 694.241 398.36V405H696.061V398.12C696.061 395.34 695.021 393.86 692.741 393.86C691.261 393.86 690.141 394.68 689.101 395.7H689.041L688.881 394.14H687.381V405ZM702.708 405.26C704.008 405.26 705.148 404.56 706.008 403.72H706.068L706.228 405H707.708V389.08H705.908V393.26L705.988 395.14C705.028 394.34 704.208 393.86 702.928 393.86C700.448 393.86 698.228 396.06 698.228 399.58C698.228 403.2 699.988 405.26 702.708 405.26ZM703.108 403.74C701.188 403.74 700.108 402.18 700.108 399.56C700.108 397.08 701.488 395.4 703.248 395.4C704.148 395.4 704.968 395.72 705.908 396.54V402.24C704.988 403.24 704.108 403.74 703.108 403.74ZM423.972 431.26C425.312 431.26 426.532 430.56 427.572 429.7H427.632L427.792 431H429.292V424.32C429.292 421.64 428.172 419.86 425.532 419.86C423.792 419.86 422.252 420.64 421.252 421.28L421.972 422.54C422.832 421.96 423.972 421.38 425.232 421.38C427.012 421.38 427.472 422.72 427.472 424.12C422.852 424.64 420.792 425.82 420.792 428.18C420.792 430.14 422.152 431.26 423.972 431.26ZM424.492 429.8C423.412 429.8 422.572 429.3 422.572 428.06C422.572 426.66 423.812 425.76 427.472 425.32V428.36C426.412 429.3 425.552 429.8 424.492 429.8ZM435.288 431.26C435.948 431.26 436.668 431.06 437.288 430.86L436.928 429.5C436.568 429.64 436.068 429.78 435.688 429.78C434.428 429.78 434.008 429.02 434.008 427.68V421.62H436.948V420.14H434.008V417.08H432.488L432.268 420.14L430.568 420.24V421.62H432.188V427.64C432.188 429.8 432.968 431.26 435.288 431.26ZM442.68 431H444.5V423.12C445.6 422.02 446.36 421.46 447.48 421.46C448.92 421.46 449.54 422.32 449.54 424.36V431H451.36V424.12C451.36 421.34 450.32 419.86 448.04 419.86C446.56 419.86 445.44 420.68 444.44 421.68L444.5 419.44V415.08H442.68V431ZM454.228 431H456.048V420.14H454.228V431ZM455.148 417.9C455.868 417.9 456.368 417.42 456.368 416.68C456.368 415.98 455.868 415.5 455.148 415.5C454.428 415.5 453.928 415.98 453.928 416.68C453.928 417.42 454.428 417.9 455.148 417.9ZM462.796 436C466.156 436 468.296 434.26 468.296 432.24C468.296 430.46 467.016 429.66 464.496 429.66H462.376C460.916 429.66 460.476 429.18 460.476 428.48C460.476 427.88 460.776 427.52 461.176 427.18C461.656 427.42 462.256 427.56 462.796 427.56C464.996 427.56 466.756 426.1 466.756 423.78C466.756 422.84 466.396 422.04 465.876 421.54H468.096V420.14H464.316C463.936 420 463.396 419.86 462.796 419.86C460.596 419.86 458.716 421.36 458.716 423.74C458.716 425.04 459.416 426.08 460.136 426.66V426.74C459.576 427.14 458.916 427.86 458.916 428.76C458.916 429.62 459.336 430.2 459.916 430.54V430.62C458.896 431.28 458.316 432.16 458.316 433.08C458.316 434.96 460.136 436 462.796 436ZM462.796 426.32C461.536 426.32 460.476 425.32 460.476 423.74C460.476 422.14 461.516 421.2 462.796 421.2C464.076 421.2 465.116 422.16 465.116 423.74C465.116 425.32 464.036 426.32 462.796 426.32ZM463.056 434.76C461.096 434.76 459.916 434 459.916 432.84C459.916 432.2 460.236 431.56 461.016 431C461.496 431.12 462.016 431.18 462.416 431.18H464.296C465.736 431.18 466.516 431.52 466.516 432.52C466.516 433.66 465.136 434.76 463.056 434.76ZM469.806 431H471.626V423.12C472.726 422.02 473.486 421.46 474.606 421.46C476.046 421.46 476.666 422.32 476.666 424.36V431H478.486V424.12C478.486 421.34 477.446 419.86 475.166 419.86C473.686 419.86 472.566 420.68 471.566 421.68L471.626 419.44V415.08H469.806V431ZM488.067 431.26C490.627 431.26 492.027 429.8 492.027 428.04C492.027 425.98 490.287 425.34 488.707 424.74C487.487 424.28 486.367 423.9 486.367 422.86C486.367 422.02 487.007 421.3 488.387 421.3C489.347 421.3 490.107 421.7 490.847 422.26L491.727 421.08C490.887 420.42 489.707 419.86 488.367 419.86C486.007 419.86 484.607 421.22 484.607 422.94C484.607 424.78 486.267 425.52 487.787 426.08C488.987 426.54 490.267 427.02 490.267 428.14C490.267 429.08 489.567 429.84 488.127 429.84C486.827 429.84 485.847 429.32 484.907 428.56L484.007 429.76C485.047 430.62 486.527 431.26 488.067 431.26ZM493.982 435.58H495.802V431.9L495.762 430C496.742 430.8 497.782 431.26 498.762 431.26C501.262 431.26 503.482 429.12 503.482 425.4C503.482 422.06 501.962 419.86 499.162 419.86C497.902 419.86 496.682 420.58 495.702 421.38H495.642L495.482 420.14H493.982V435.58ZM498.462 429.74C497.742 429.74 496.782 429.44 495.802 428.6V422.9C496.862 421.92 497.802 421.4 498.722 421.4C500.782 421.4 501.582 423.02 501.582 425.42C501.582 428.12 500.262 429.74 498.462 429.74ZM510.165 431.26C511.645 431.26 512.805 430.76 513.765 430.14L513.105 428.94C512.305 429.48 511.445 429.8 510.385 429.8C508.325 429.8 506.905 428.32 506.785 426H514.105C514.145 425.74 514.185 425.36 514.185 424.96C514.185 421.86 512.625 419.86 509.865 419.86C507.345 419.86 504.965 422.06 504.965 425.58C504.965 429.16 507.285 431.26 510.165 431.26ZM506.765 424.68C506.985 422.56 508.345 421.32 509.885 421.32C511.585 421.32 512.585 422.5 512.585 424.68H506.765ZM520.639 431.26C522.119 431.26 523.279 430.76 524.239 430.14L523.579 428.94C522.779 429.48 521.919 429.8 520.859 429.8C518.799 429.8 517.379 428.32 517.259 426H524.579C524.619 425.74 524.659 425.36 524.659 424.96C524.659 421.86 523.099 419.86 520.339 419.86C517.819 419.86 515.439 422.06 515.439 425.58C515.439 429.16 517.759 431.26 520.639 431.26ZM517.239 424.68C517.459 422.56 518.819 421.32 520.359 421.32C522.059 421.32 523.059 422.5 523.059 424.68H517.239ZM530.433 431.26C531.733 431.26 532.873 430.56 533.733 429.72H533.793L533.953 431H535.433V415.08H533.633V419.26L533.713 421.14C532.753 420.34 531.933 419.86 530.653 419.86C528.173 419.86 525.953 422.06 525.953 425.58C525.953 429.2 527.713 431.26 530.433 431.26ZM530.833 429.74C528.913 429.74 527.833 428.18 527.833 425.56C527.833 423.08 529.213 421.4 530.973 421.4C531.873 421.4 532.693 421.72 533.633 422.54V428.24C532.713 429.24 531.833 429.74 530.833 429.74ZM547.188 431.26C549.688 431.26 551.908 429.12 551.908 425.38C551.908 422.06 550.388 419.86 547.568 419.86C546.368 419.86 545.148 420.54 544.168 421.4L544.228 419.44V415.08H542.408V431H543.868L544.028 429.88H544.108C545.048 430.74 546.188 431.26 547.188 431.26ZM546.888 429.74C546.168 429.74 545.188 429.44 544.228 428.6V422.9C545.268 421.92 546.228 421.4 547.148 421.4C549.208 421.4 550.008 423.02 550.008 425.42C550.008 428.12 548.688 429.74 546.888 429.74ZM556.359 431.26C557.699 431.26 558.919 430.56 559.959 429.7H560.019L560.179 431H561.679V424.32C561.679 421.64 560.559 419.86 557.919 419.86C556.179 419.86 554.639 420.64 553.639 421.28L554.359 422.54C555.219 421.96 556.359 421.38 557.619 421.38C559.399 421.38 559.859 422.72 559.859 424.12C555.239 424.64 553.179 425.82 553.179 428.18C553.179 430.14 554.539 431.26 556.359 431.26ZM556.879 429.8C555.799 429.8 554.959 429.3 554.959 428.06C554.959 426.66 556.199 425.76 559.859 425.32V428.36C558.799 429.3 557.939 429.8 556.879 429.8ZM567.388 431.26C569.948 431.26 571.348 429.8 571.348 428.04C571.348 425.98 569.608 425.34 568.028 424.74C566.808 424.28 565.688 423.9 565.688 422.86C565.688 422.02 566.328 421.3 567.708 421.3C568.668 421.3 569.428 421.7 570.168 422.26L571.048 421.08C570.208 420.42 569.028 419.86 567.688 419.86C565.328 419.86 563.928 421.22 563.928 422.94C563.928 424.78 565.588 425.52 567.108 426.08C568.308 426.54 569.588 427.02 569.588 428.14C569.588 429.08 568.888 429.84 567.448 429.84C566.148 429.84 565.168 429.32 564.228 428.56L563.328 429.76C564.368 430.62 565.848 431.26 567.388 431.26ZM577.683 431.26C579.163 431.26 580.323 430.76 581.283 430.14L580.623 428.94C579.823 429.48 578.963 429.8 577.903 429.8C575.843 429.8 574.423 428.32 574.303 426H581.623C581.663 425.74 581.703 425.36 581.703 424.96C581.703 421.86 580.143 419.86 577.383 419.86C574.863 419.86 572.483 422.06 572.483 425.58C572.483 429.16 574.803 431.26 577.683 431.26ZM574.283 424.68C574.503 422.56 575.863 421.32 577.403 421.32C579.103 421.32 580.103 422.5 580.103 424.68H574.283ZM587.478 431.26C588.778 431.26 589.918 430.56 590.778 429.72H590.838L590.998 431H592.478V415.08H590.678V419.26L590.758 421.14C589.798 420.34 588.978 419.86 587.698 419.86C585.218 419.86 582.998 422.06 582.998 425.58C582.998 429.2 584.758 431.26 587.478 431.26ZM587.878 429.74C585.958 429.74 584.877 428.18 584.877 425.56C584.877 423.08 586.258 421.4 588.018 421.4C588.918 421.4 589.738 421.72 590.678 422.54V428.24C589.758 429.24 588.878 429.74 587.878 429.74ZM603.672 431.26C606.332 431.26 608.712 429.18 608.712 425.58C608.712 421.96 606.332 419.86 603.672 419.86C601.012 419.86 598.632 421.96 598.632 425.58C598.632 429.18 601.012 431.26 603.672 431.26ZM603.672 429.74C601.792 429.74 600.532 428.08 600.532 425.58C600.532 423.08 601.792 421.38 603.672 421.38C605.552 421.38 606.832 423.08 606.832 425.58C606.832 428.08 605.552 429.74 603.672 429.74ZM610.981 431H612.801V423.12C613.901 422.02 614.661 421.46 615.781 421.46C617.221 421.46 617.841 422.32 617.841 424.36V431H619.661V424.12C619.661 421.34 618.621 419.86 616.341 419.86C614.861 419.86 613.741 420.68 612.701 421.7H612.641L612.481 420.14H610.981V431ZM368.333 457.26C368.993 457.26 369.713 457.06 370.333 456.86L369.973 455.5C369.613 455.64 369.113 455.78 368.733 455.78C367.473 455.78 367.053 455.02 367.053 453.68V447.62H369.993V446.14H367.053V443.08H365.533L365.313 446.14L363.613 446.24V447.62H365.233V453.64C365.233 455.8 366.013 457.26 368.333 457.26ZM371.852 457H373.672V449.12C374.772 448.02 375.532 447.46 376.652 447.46C378.092 447.46 378.712 448.32 378.712 450.36V457H380.532V450.12C380.532 447.34 379.492 445.86 377.212 445.86C375.732 445.86 374.612 446.68 373.612 447.68L373.672 445.44V441.08H371.852V457ZM387.781 457.26C389.261 457.26 390.421 456.76 391.381 456.14L390.721 454.94C389.921 455.48 389.061 455.8 388.001 455.8C385.941 455.8 384.521 454.32 384.401 452H391.721C391.761 451.74 391.801 451.36 391.801 450.96C391.801 447.86 390.241 445.86 387.481 445.86C384.961 445.86 382.581 448.06 382.581 451.58C382.581 455.16 384.901 457.26 387.781 457.26ZM384.381 450.68C384.601 448.56 385.961 447.32 387.501 447.32C389.201 447.32 390.201 448.5 390.201 450.68H384.381ZM397.747 457H399.567V449.12C400.667 448.02 401.427 447.46 402.547 447.46C403.987 447.46 404.607 448.32 404.607 450.36V457H406.427V450.12C406.427 447.34 405.387 445.86 403.107 445.86C401.627 445.86 400.507 446.68 399.507 447.68L399.567 445.44V441.08H397.747V457ZM409.296 457H411.116V446.14H409.296V457ZM410.216 443.9C410.936 443.9 411.436 443.42 411.436 442.68C411.436 441.98 410.936 441.5 410.216 441.5C409.496 441.5 408.996 441.98 408.996 442.68C408.996 443.42 409.496 443.9 410.216 443.9ZM417.864 462C421.224 462 423.364 460.26 423.364 458.24C423.364 456.46 422.084 455.66 419.564 455.66H417.444C415.984 455.66 415.544 455.18 415.544 454.48C415.544 453.88 415.844 453.52 416.244 453.18C416.724 453.42 417.324 453.56 417.864 453.56C420.064 453.56 421.824 452.1 421.824 449.78C421.824 448.84 421.464 448.04 420.944 447.54H423.164V446.14H419.384C419.004 446 418.464 445.86 417.864 445.86C415.664 445.86 413.784 447.36 413.784 449.74C413.784 451.04 414.484 452.08 415.204 452.66V452.74C414.644 453.14 413.984 453.86 413.984 454.76C413.984 455.62 414.404 456.2 414.984 456.54V456.62C413.964 457.28 413.384 458.16 413.384 459.08C413.384 460.96 415.204 462 417.864 462ZM417.864 452.32C416.604 452.32 415.544 451.32 415.544 449.74C415.544 448.14 416.584 447.2 417.864 447.2C419.144 447.2 420.184 448.16 420.184 449.74C420.184 451.32 419.104 452.32 417.864 452.32ZM418.124 460.76C416.164 460.76 414.984 460 414.984 458.84C414.984 458.2 415.304 457.56 416.084 457C416.564 457.12 417.084 457.18 417.484 457.18H419.364C420.804 457.18 421.584 457.52 421.584 458.52C421.584 459.66 420.204 460.76 418.124 460.76ZM424.873 457H426.693V449.12C427.793 448.02 428.553 447.46 429.673 447.46C431.113 447.46 431.733 448.32 431.733 450.36V457H433.553V450.12C433.553 447.34 432.513 445.86 430.233 445.86C428.753 445.86 427.633 446.68 426.633 447.68L426.693 445.44V441.08H424.873V457ZM435.502 452.1H440.622V450.7H435.502V452.1ZM442.755 461.58H444.575V457.9L444.535 456C445.515 456.8 446.555 457.26 447.535 457.26C450.035 457.26 452.255 455.12 452.255 451.4C452.255 448.06 450.735 445.86 447.935 445.86C446.675 445.86 445.455 446.58 444.475 447.38H444.415L444.255 446.14H442.755V461.58ZM447.235 455.74C446.515 455.74 445.555 455.44 444.575 454.6V448.9C445.635 447.92 446.575 447.4 447.495 447.4C449.555 447.4 450.355 449.02 450.355 451.42C450.355 454.12 449.035 455.74 447.235 455.74ZM458.938 457.26C460.418 457.26 461.578 456.76 462.538 456.14L461.878 454.94C461.078 455.48 460.218 455.8 459.158 455.8C457.098 455.8 455.678 454.32 455.558 452H462.878C462.918 451.74 462.958 451.36 462.958 450.96C462.958 447.86 461.398 445.86 458.638 445.86C456.118 445.86 453.738 448.06 453.738 451.58C453.738 455.16 456.058 457.26 458.938 457.26ZM455.538 450.68C455.758 448.56 457.118 447.32 458.658 447.32C460.358 447.32 461.358 448.5 461.358 450.68H455.538ZM465.032 457H466.852V450.02C467.572 448.16 468.692 447.52 469.592 447.52C470.032 447.52 470.292 447.56 470.652 447.7L470.992 446.1C470.652 445.92 470.312 445.86 469.832 445.86C468.612 445.86 467.512 446.74 466.752 448.12H466.692L466.532 446.14H465.032V457ZM472.486 457H474.306V447.62H476.606V446.14H474.306V444.42C474.306 443.02 474.806 442.28 475.846 442.28C476.226 442.28 476.666 442.38 477.066 442.56L477.466 441.18C476.966 440.96 476.306 440.82 475.646 440.82C473.486 440.82 472.486 442.2 472.486 444.4V446.14L471.006 446.24V447.62H472.486V457ZM482.095 457.26C484.755 457.26 487.135 455.18 487.135 451.58C487.135 447.96 484.755 445.86 482.095 445.86C479.435 445.86 477.055 447.96 477.055 451.58C477.055 455.18 479.435 457.26 482.095 457.26ZM482.095 455.74C480.215 455.74 478.955 454.08 478.955 451.58C478.955 449.08 480.215 447.38 482.095 447.38C483.975 447.38 485.255 449.08 485.255 451.58C485.255 454.08 483.975 455.74 482.095 455.74ZM489.404 457H491.224V450.02C491.944 448.16 493.064 447.52 493.964 447.52C494.404 447.52 494.664 447.56 495.024 447.7L495.364 446.1C495.024 445.92 494.684 445.86 494.204 445.86C492.984 445.86 491.884 446.74 491.124 448.12H491.064L490.904 446.14H489.404V457ZM496.558 457H498.378V449.12C499.378 448 500.298 447.46 501.118 447.46C502.498 447.46 503.138 448.32 503.138 450.36V457H504.958V449.12C505.978 448 506.858 447.46 507.698 447.46C509.078 447.46 509.718 448.32 509.718 450.36V457H511.538V450.12C511.538 447.34 510.478 445.86 508.238 445.86C506.918 445.86 505.778 446.72 504.658 447.94C504.218 446.66 503.318 445.86 501.658 445.86C500.358 445.86 499.218 446.68 498.278 447.72H498.218L498.058 446.14H496.558V457ZM516.973 457.26C518.313 457.26 519.533 456.56 520.573 455.7H520.633L520.793 457H522.293V450.32C522.293 447.64 521.173 445.86 518.533 445.86C516.793 445.86 515.253 446.64 514.253 447.28L514.973 448.54C515.833 447.96 516.973 447.38 518.233 447.38C520.013 447.38 520.473 448.72 520.473 450.12C515.853 450.64 513.793 451.82 513.793 454.18C513.793 456.14 515.153 457.26 516.973 457.26ZM517.493 455.8C516.413 455.8 515.573 455.3 515.573 454.06C515.573 452.66 516.813 451.76 520.473 451.32V454.36C519.413 455.3 518.553 455.8 517.493 455.8ZM525.162 457H526.982V449.12C528.082 448.02 528.842 447.46 529.962 447.46C531.402 447.46 532.022 448.32 532.022 450.36V457H533.842V450.12C533.842 447.34 532.802 445.86 530.522 445.86C529.042 445.86 527.922 446.68 526.882 447.7H526.822L526.662 446.14H525.162V457ZM541.069 457.26C542.369 457.26 543.609 456.76 544.589 455.88L543.789 454.66C543.109 455.28 542.229 455.74 541.229 455.74C539.229 455.74 537.869 454.08 537.869 451.58C537.869 449.08 539.309 447.38 541.289 447.38C542.149 447.38 542.809 447.78 543.449 448.34L544.389 447.14C543.609 446.46 542.629 445.86 541.209 445.86C538.429 445.86 535.969 447.96 535.969 451.58C535.969 455.18 538.189 457.26 541.069 457.26ZM550.256 457.26C551.736 457.26 552.896 456.76 553.856 456.14L553.196 454.94C552.396 455.48 551.536 455.8 550.476 455.8C548.416 455.8 546.996 454.32 546.876 452H554.196C554.236 451.74 554.276 451.36 554.276 450.96C554.276 447.86 552.716 445.86 549.956 445.86C547.436 445.86 545.056 448.06 545.056 451.58C545.056 455.16 547.376 457.26 550.256 457.26ZM546.856 450.68C547.076 448.56 548.436 447.32 549.976 447.32C551.676 447.32 552.676 448.5 552.676 450.68H546.856ZM560.223 457H562.043V446.14H560.223V457ZM561.143 443.9C561.863 443.9 562.363 443.42 562.363 442.68C562.363 441.98 561.863 441.5 561.143 441.5C560.423 441.5 559.923 441.98 559.923 442.68C559.923 443.42 560.423 443.9 561.143 443.9ZM565.131 457H566.951V449.12C568.051 448.02 568.811 447.46 569.931 447.46C571.371 447.46 571.991 448.32 571.991 450.36V457H573.811V450.12C573.811 447.34 572.771 445.86 570.491 445.86C569.011 445.86 567.891 446.68 566.851 447.7H566.791L566.631 446.14H565.131V457ZM577.058 457H578.878V447.62H581.178V446.14H578.878V444.42C578.878 443.02 579.378 442.28 580.418 442.28C580.798 442.28 581.238 442.38 581.638 442.56L582.038 441.18C581.538 440.96 580.878 440.82 580.218 440.82C578.058 440.82 577.058 442.2 577.058 444.4V446.14L575.578 446.24V447.62H577.058V457ZM582.661 457H584.481V450.02C585.201 448.16 586.321 447.52 587.221 447.52C587.661 447.52 587.921 447.56 588.281 447.7L588.621 446.1C588.281 445.92 587.941 445.86 587.461 445.86C586.241 445.86 585.141 446.74 584.381 448.12H584.321L584.161 446.14H582.661V457ZM591.769 457.26C593.109 457.26 594.329 456.56 595.369 455.7H595.429L595.589 457H597.089V450.32C597.089 447.64 595.969 445.86 593.329 445.86C591.589 445.86 590.049 446.64 589.049 447.28L589.769 448.54C590.629 447.96 591.769 447.38 593.029 447.38C594.809 447.38 595.269 448.72 595.269 450.12C590.649 450.64 588.589 451.82 588.589 454.18C588.589 456.14 589.949 457.26 591.769 457.26ZM592.289 455.8C591.209 455.8 590.369 455.3 590.369 454.06C590.369 452.66 591.609 451.76 595.269 451.32V454.36C594.209 455.3 593.349 455.8 592.289 455.8ZM602.798 457.26C605.358 457.26 606.758 455.8 606.758 454.04C606.758 451.98 605.018 451.34 603.438 450.74C602.218 450.28 601.098 449.9 601.098 448.86C601.098 448.02 601.738 447.3 603.118 447.3C604.078 447.3 604.838 447.7 605.578 448.26L606.458 447.08C605.618 446.42 604.438 445.86 603.098 445.86C600.738 445.86 599.338 447.22 599.338 448.94C599.338 450.78 600.998 451.52 602.518 452.08C603.718 452.54 604.998 453.02 604.998 454.14C604.998 455.08 604.298 455.84 602.858 455.84C601.558 455.84 600.578 455.32 599.638 454.56L598.738 455.76C599.778 456.62 601.258 457.26 602.798 457.26ZM611.684 457.26C612.344 457.26 613.064 457.06 613.684 456.86L613.324 455.5C612.964 455.64 612.464 455.78 612.084 455.78C610.824 455.78 610.404 455.02 610.404 453.68V447.62H613.344V446.14H610.404V443.08H608.884L608.664 446.14L606.964 446.24V447.62H608.584V453.64C608.584 455.8 609.364 457.26 611.684 457.26ZM615.203 457H617.023V450.02C617.743 448.16 618.863 447.52 619.763 447.52C620.203 447.52 620.463 447.56 620.823 447.7L621.163 446.1C620.823 445.92 620.483 445.86 620.003 445.86C618.783 445.86 617.683 446.74 616.923 448.12H616.863L616.703 446.14H615.203V457ZM625.517 457.26C627.017 457.26 628.097 456.48 629.117 455.3H629.177L629.317 457H630.837V446.14H629.017V453.84C627.977 455.14 627.197 455.68 626.077 455.68C624.637 455.68 624.037 454.82 624.037 452.8V446.14H622.217V453.02C622.217 455.78 623.237 457.26 625.517 457.26ZM638.185 457.26C639.485 457.26 640.725 456.76 641.705 455.88L640.905 454.66C640.225 455.28 639.345 455.74 638.345 455.74C636.345 455.74 634.985 454.08 634.985 451.58C634.985 449.08 636.425 447.38 638.405 447.38C639.265 447.38 639.925 447.78 640.565 448.34L641.505 447.14C640.725 446.46 639.745 445.86 638.325 445.86C635.545 445.86 633.085 447.96 633.085 451.58C633.085 455.18 635.305 457.26 638.185 457.26ZM646.686 457.26C647.346 457.26 648.066 457.06 648.686 456.86L648.326 455.5C647.966 455.64 647.466 455.78 647.086 455.78C645.826 455.78 645.406 455.02 645.406 453.68V447.62H648.346V446.14H645.406V443.08H643.886L643.666 446.14L641.966 446.24V447.62H643.586V453.64C643.586 455.8 644.366 457.26 646.686 457.26ZM653.365 457.26C654.865 457.26 655.945 456.48 656.965 455.3H657.025L657.165 457H658.685V446.14H656.865V453.84C655.825 455.14 655.045 455.68 653.925 455.68C652.485 455.68 651.885 454.82 651.885 452.8V446.14H650.065V453.02C650.065 455.78 651.085 457.26 653.365 457.26ZM661.754 457H663.574V450.02C664.294 448.16 665.414 447.52 666.314 447.52C666.754 447.52 667.014 447.56 667.374 447.7L667.714 446.1C667.374 445.92 667.034 445.86 666.554 445.86C665.334 445.86 664.234 446.74 663.474 448.12H663.414L663.254 446.14H661.754V457ZM673.073 457.26C674.553 457.26 675.713 456.76 676.673 456.14L676.013 454.94C675.213 455.48 674.353 455.8 673.293 455.8C671.233 455.8 669.813 454.32 669.693 452H677.013C677.053 451.74 677.093 451.36 677.093 450.96C677.093 447.86 675.533 445.86 672.773 445.86C670.253 445.86 667.873 448.06 667.873 451.58C667.873 455.16 670.193 457.26 673.073 457.26ZM669.673 450.68C669.893 448.56 671.253 447.32 672.793 447.32C674.493 447.32 675.493 448.5 675.493 450.68H669.673Z" fill="#333333"/>
<path d="M151.064 32H152.924V25.78H155.564L159.124 32H161.224L157.464 25.58C159.464 25.1 160.784 23.74 160.784 21.46C160.784 18.4 158.644 17.32 155.664 17.32H151.064V32ZM152.924 24.28V18.84H155.384C157.684 18.84 158.944 19.52 158.944 21.46C158.944 23.36 157.684 24.28 155.384 24.28H152.924ZM166.179 32.26C167.679 32.26 168.759 31.48 169.779 30.3H169.839L169.979 32H171.499V21.14H169.679V28.84C168.639 30.14 167.859 30.68 166.739 30.68C165.299 30.68 164.699 29.82 164.699 27.8V21.14H162.879V28.02C162.879 30.78 163.899 32.26 166.179 32.26ZM174.567 32H176.387V24.12C177.487 23.02 178.247 22.46 179.367 22.46C180.807 22.46 181.427 23.32 181.427 25.36V32H183.247V25.12C183.247 22.34 182.207 20.86 179.927 20.86C178.447 20.86 177.327 21.68 176.287 22.7H176.227L176.067 21.14H174.567V32ZM193.487 32.26C194.147 32.26 194.867 32.06 195.487 31.86L195.127 30.5C194.767 30.64 194.267 30.78 193.887 30.78C192.627 30.78 192.207 30.02 192.207 28.68V22.62H195.147V21.14H192.207V18.08H190.687L190.467 21.14L188.767 21.24V22.62H190.387V28.64C190.387 30.8 191.167 32.26 193.487 32.26ZM197.006 32H198.826V24.12C199.926 23.02 200.686 22.46 201.806 22.46C203.246 22.46 203.866 23.32 203.866 25.36V32H205.686V25.12C205.686 22.34 204.646 20.86 202.366 20.86C200.886 20.86 199.766 21.68 198.766 22.68L198.826 20.44V16.08H197.006V32ZM212.934 32.26C214.414 32.26 215.574 31.76 216.534 31.14L215.874 29.94C215.074 30.48 214.214 30.8 213.154 30.8C211.094 30.8 209.674 29.32 209.554 27H216.874C216.914 26.74 216.954 26.36 216.954 25.96C216.954 22.86 215.394 20.86 212.634 20.86C210.114 20.86 207.734 23.06 207.734 26.58C207.734 30.16 210.054 32.26 212.934 32.26ZM209.534 25.68C209.754 23.56 211.114 22.32 212.654 22.32C214.354 22.32 215.354 23.5 215.354 25.68H209.534ZM226.061 32.26C227.561 32.26 228.641 31.48 229.661 30.3H229.721L229.861 32H231.381V21.14H229.561V28.84C228.521 30.14 227.741 30.68 226.621 30.68C225.181 30.68 224.581 29.82 224.581 27.8V21.14H222.761V28.02C222.761 30.78 223.781 32.26 226.061 32.26ZM234.449 32H236.269V24.12C237.369 23.02 238.129 22.46 239.249 22.46C240.689 22.46 241.309 23.32 241.309 25.36V32H243.129V25.12C243.129 22.34 242.089 20.86 239.809 20.86C238.329 20.86 237.209 21.68 236.169 22.7H236.109L235.949 21.14H234.449V32ZM246.076 32H247.896V21.14H246.076V32ZM246.996 18.9C247.716 18.9 248.216 18.42 248.216 17.68C248.216 16.98 247.716 16.5 246.996 16.5C246.276 16.5 245.776 16.98 245.776 17.68C245.776 18.42 246.276 18.9 246.996 18.9ZM254.404 32.26C255.064 32.26 255.784 32.06 256.404 31.86L256.044 30.5C255.684 30.64 255.184 30.78 254.804 30.78C253.544 30.78 253.124 30.02 253.124 28.68V22.62H256.064V21.14H253.124V18.08H251.604L251.384 21.14L249.684 21.24V22.62H251.304V28.64C251.304 30.8 252.084 32.26 254.404 32.26ZM264.295 32.26C265.635 32.26 266.855 31.56 267.895 30.7H267.955L268.115 32H269.615V25.32C269.615 22.64 268.495 20.86 265.855 20.86C264.115 20.86 262.575 21.64 261.575 22.28L262.295 23.54C263.155 22.96 264.295 22.38 265.555 22.38C267.335 22.38 267.795 23.72 267.795 25.12C263.175 25.64 261.115 26.82 261.115 29.18C261.115 31.14 262.475 32.26 264.295 32.26ZM264.815 30.8C263.735 30.8 262.895 30.3 262.895 29.06C262.895 27.66 264.135 26.76 267.795 26.32V29.36C266.735 30.3 265.875 30.8 264.815 30.8ZM272.485 32H274.305V24.12C275.405 23.02 276.165 22.46 277.285 22.46C278.725 22.46 279.345 23.32 279.345 25.36V32H281.165V25.12C281.165 22.34 280.125 20.86 277.845 20.86C276.365 20.86 275.245 21.68 274.205 22.7H274.145L273.985 21.14H272.485V32ZM286.611 32.26C287.951 32.26 289.171 31.56 290.211 30.7H290.271L290.431 32H291.931V25.32C291.931 22.64 290.811 20.86 288.171 20.86C286.431 20.86 284.891 21.64 283.891 22.28L284.611 23.54C285.471 22.96 286.611 22.38 287.871 22.38C289.651 22.38 290.111 23.72 290.111 25.12C285.491 25.64 283.431 26.82 283.431 29.18C283.431 31.14 284.791 32.26 286.611 32.26ZM287.131 30.8C286.051 30.8 285.211 30.3 285.211 29.06C285.211 27.66 286.451 26.76 290.111 26.32V29.36C289.051 30.3 288.191 30.8 287.131 30.8ZM296.72 32.26C297.22 32.26 297.52 32.2 297.78 32.1L297.52 30.7C297.32 30.74 297.24 30.74 297.14 30.74C296.86 30.74 296.62 30.52 296.62 29.96V16.08H294.8V29.84C294.8 31.38 295.36 32.26 296.72 32.26ZM300.083 36.68C302.243 36.68 303.383 35.04 304.123 32.9L308.223 21.14H306.443L304.503 27.18C304.203 28.14 303.883 29.24 303.583 30.22H303.483C303.143 29.24 302.763 28.12 302.443 27.18L300.223 21.14H298.323L302.683 32.02L302.443 32.84C302.003 34.18 301.223 35.18 299.983 35.18C299.703 35.18 299.383 35.08 299.163 35L298.803 36.46C299.143 36.6 299.563 36.68 300.083 36.68ZM312.573 32.26C315.133 32.26 316.533 30.8 316.533 29.04C316.533 26.98 314.793 26.34 313.213 25.74C311.993 25.28 310.873 24.9 310.873 23.86C310.873 23.02 311.513 22.3 312.893 22.3C313.853 22.3 314.613 22.7 315.353 23.26L316.233 22.08C315.393 21.42 314.213 20.86 312.873 20.86C310.513 20.86 309.113 22.22 309.113 23.94C309.113 25.78 310.773 26.52 312.293 27.08C313.493 27.54 314.773 28.02 314.773 29.14C314.773 30.08 314.073 30.84 312.633 30.84C311.333 30.84 310.353 30.32 309.413 29.56L308.513 30.76C309.553 31.62 311.033 32.26 312.573 32.26ZM318.488 32H320.308V21.14H318.488V32ZM319.408 18.9C320.128 18.9 320.628 18.42 320.628 17.68C320.628 16.98 320.128 16.5 319.408 16.5C318.688 16.5 318.188 16.98 318.188 17.68C318.188 18.42 318.688 18.9 319.408 18.9ZM326.236 32.26C328.796 32.26 330.196 30.8 330.196 29.04C330.196 26.98 328.456 26.34 326.876 25.74C325.656 25.28 324.536 24.9 324.536 23.86C324.536 23.02 325.176 22.3 326.556 22.3C327.516 22.3 328.276 22.7 329.016 23.26L329.896 22.08C329.056 21.42 327.876 20.86 326.536 20.86C324.176 20.86 322.776 22.22 322.776 23.94C322.776 25.78 324.436 26.52 325.956 27.08C327.156 27.54 328.436 28.02 328.436 29.14C328.436 30.08 327.736 30.84 326.296 30.84C324.996 30.84 324.016 30.32 323.076 29.56L322.176 30.76C323.216 31.62 324.696 32.26 326.236 32.26ZM336.024 36.58H337.844V32.9L337.804 31C338.784 31.8 339.824 32.26 340.804 32.26C343.304 32.26 345.524 30.12 345.524 26.4C345.524 23.06 344.004 20.86 341.204 20.86C339.944 20.86 338.724 21.58 337.744 22.38H337.684L337.524 21.14H336.024V36.58ZM340.504 30.74C339.784 30.74 338.824 30.44 337.844 29.6V23.9C338.904 22.92 339.844 22.4 340.764 22.4C342.824 22.4 343.624 24.02 343.624 26.42C343.624 29.12 342.304 30.74 340.504 30.74ZM347.827 32H349.647V25.02C350.367 23.16 351.487 22.52 352.387 22.52C352.827 22.52 353.087 22.56 353.447 22.7L353.787 21.1C353.447 20.92 353.107 20.86 352.627 20.86C351.407 20.86 350.307 21.74 349.547 23.12H349.487L349.327 21.14H347.827V32ZM358.986 32.26C361.646 32.26 364.026 30.18 364.026 26.58C364.026 22.96 361.646 20.86 358.986 20.86C356.326 20.86 353.946 22.96 353.946 26.58C353.946 30.18 356.326 32.26 358.986 32.26ZM358.986 30.74C357.106 30.74 355.846 29.08 355.846 26.58C355.846 24.08 357.106 22.38 358.986 22.38C360.866 22.38 362.146 24.08 362.146 26.58C362.146 29.08 360.866 30.74 358.986 30.74ZM369.955 37C373.315 37 375.455 35.26 375.455 33.24C375.455 31.46 374.175 30.66 371.655 30.66H369.535C368.075 30.66 367.635 30.18 367.635 29.48C367.635 28.88 367.935 28.52 368.335 28.18C368.815 28.42 369.415 28.56 369.955 28.56C372.155 28.56 373.915 27.1 373.915 24.78C373.915 23.84 373.555 23.04 373.035 22.54H375.255V21.14H371.475C371.095 21 370.555 20.86 369.955 20.86C367.755 20.86 365.875 22.36 365.875 24.74C365.875 26.04 366.575 27.08 367.295 27.66V27.74C366.735 28.14 366.075 28.86 366.075 29.76C366.075 30.62 366.495 31.2 367.075 31.54V31.62C366.055 32.28 365.475 33.16 365.475 34.08C365.475 35.96 367.295 37 369.955 37ZM369.955 27.32C368.695 27.32 367.635 26.32 367.635 24.74C367.635 23.14 368.675 22.2 369.955 22.2C371.235 22.2 372.275 23.16 372.275 24.74C372.275 26.32 371.195 27.32 369.955 27.32ZM370.215 35.76C368.255 35.76 367.075 35 367.075 33.84C367.075 33.2 367.395 32.56 368.175 32C368.655 32.12 369.175 32.18 369.575 32.18H371.455C372.895 32.18 373.675 32.52 373.675 33.52C373.675 34.66 372.295 35.76 370.215 35.76ZM376.964 32H378.784V25.02C379.504 23.16 380.624 22.52 381.524 22.52C381.964 22.52 382.224 22.56 382.584 22.7L382.924 21.1C382.584 20.92 382.244 20.86 381.764 20.86C380.544 20.86 379.444 21.74 378.684 23.12H378.624L378.464 21.14H376.964V32ZM386.071 32.26C387.411 32.26 388.631 31.56 389.671 30.7H389.731L389.891 32H391.391V25.32C391.391 22.64 390.271 20.86 387.631 20.86C385.891 20.86 384.351 21.64 383.351 22.28L384.071 23.54C384.931 22.96 386.071 22.38 387.331 22.38C389.111 22.38 389.571 23.72 389.571 25.12C384.951 25.64 382.891 26.82 382.891 29.18C382.891 31.14 384.251 32.26 386.071 32.26ZM386.591 30.8C385.511 30.8 384.671 30.3 384.671 29.06C384.671 27.66 385.911 26.76 389.571 26.32V29.36C388.511 30.3 387.651 30.8 386.591 30.8ZM394.26 32H396.08V24.12C397.08 23 398 22.46 398.82 22.46C400.2 22.46 400.84 23.32 400.84 25.36V32H402.66V24.12C403.68 23 404.56 22.46 405.4 22.46C406.78 22.46 407.42 23.32 407.42 25.36V32H409.24V25.12C409.24 22.34 408.18 20.86 405.94 20.86C404.62 20.86 403.48 21.72 402.36 22.94C401.92 21.66 401.02 20.86 399.36 20.86C398.06 20.86 396.92 21.68 395.98 22.72H395.92L395.76 21.14H394.26V32ZM148.347 58.26C149.687 58.26 150.907 57.56 151.947 56.7H152.007L152.167 58H153.667V51.32C153.667 48.64 152.547 46.86 149.907 46.86C148.167 46.86 146.627 47.64 145.627 48.28L146.347 49.54C147.207 48.96 148.347 48.38 149.607 48.38C151.387 48.38 151.847 49.72 151.847 51.12C147.227 51.64 145.167 52.82 145.167 55.18C145.167 57.14 146.527 58.26 148.347 58.26ZM148.867 56.8C147.787 56.8 146.947 56.3 146.947 55.06C146.947 53.66 148.187 52.76 151.847 52.32V55.36C150.787 56.3 149.927 56.8 148.867 56.8ZM156.536 58H158.356V50.12C159.456 49.02 160.216 48.46 161.336 48.46C162.776 48.46 163.396 49.32 163.396 51.36V58H165.216V51.12C165.216 48.34 164.176 46.86 161.896 46.86C160.416 46.86 159.296 47.68 158.256 48.7H158.196L158.036 47.14H156.536V58ZM171.863 58.26C173.163 58.26 174.303 57.56 175.163 56.72H175.223L175.383 58H176.863V42.08H175.063V46.26L175.143 48.14C174.183 47.34 173.363 46.86 172.083 46.86C169.603 46.86 167.383 49.06 167.383 52.58C167.383 56.2 169.143 58.26 171.863 58.26ZM172.263 56.74C170.343 56.74 169.263 55.18 169.263 52.56C169.263 50.08 170.643 48.4 172.403 48.4C173.303 48.4 174.123 48.72 175.063 49.54V55.24C174.143 56.24 173.263 56.74 172.263 56.74ZM187.258 58.26C187.918 58.26 188.638 58.06 189.258 57.86L188.898 56.5C188.538 56.64 188.038 56.78 187.658 56.78C186.398 56.78 185.978 56.02 185.978 54.68V48.62H188.918V47.14H185.978V44.08H184.458L184.238 47.14L182.538 47.24V48.62H184.158V54.64C184.158 56.8 184.938 58.26 187.258 58.26ZM190.777 58H192.597V50.12C193.697 49.02 194.457 48.46 195.577 48.46C197.017 48.46 197.637 49.32 197.637 51.36V58H199.457V51.12C199.457 48.34 198.417 46.86 196.137 46.86C194.657 46.86 193.537 47.68 192.537 48.68L192.597 46.44V42.08H190.777V58ZM206.705 58.26C208.185 58.26 209.345 57.76 210.305 57.14L209.645 55.94C208.845 56.48 207.985 56.8 206.925 56.8C204.865 56.8 203.445 55.32 203.325 53H210.645C210.685 52.74 210.725 52.36 210.725 51.96C210.725 48.86 209.165 46.86 206.405 46.86C203.885 46.86 201.505 49.06 201.505 52.58C201.505 56.16 203.825 58.26 206.705 58.26ZM203.305 51.68C203.525 49.56 204.885 48.32 206.425 48.32C208.125 48.32 209.125 49.5 209.125 51.68H203.305ZM221.052 58.26C222.532 58.26 223.692 57.76 224.652 57.14L223.992 55.94C223.192 56.48 222.332 56.8 221.272 56.8C219.212 56.8 217.792 55.32 217.672 53H224.992C225.032 52.74 225.072 52.36 225.072 51.96C225.072 48.86 223.512 46.86 220.752 46.86C218.232 46.86 215.852 49.06 215.852 52.58C215.852 56.16 218.172 58.26 221.052 58.26ZM217.652 51.68C217.872 49.56 219.232 48.32 220.772 48.32C222.472 48.32 223.472 49.5 223.472 51.68H217.652ZM227.146 58H228.966V50.12C230.066 49.02 230.826 48.46 231.946 48.46C233.386 48.46 234.006 49.32 234.006 51.36V58H235.826V51.12C235.826 48.34 234.786 46.86 232.506 46.86C231.026 46.86 229.906 47.68 228.866 48.7H228.806L228.646 47.14H227.146V58ZM242.193 58.26C242.853 58.26 243.573 58.06 244.193 57.86L243.833 56.5C243.473 56.64 242.973 56.78 242.593 56.78C241.333 56.78 240.913 56.02 240.913 54.68V48.62H243.853V47.14H240.913V44.08H239.393L239.173 47.14L237.473 47.24V48.62H239.093V54.64C239.093 56.8 239.873 58.26 242.193 58.26ZM245.712 58H247.532V47.14H245.712V58ZM246.632 44.9C247.352 44.9 247.852 44.42 247.852 43.68C247.852 42.98 247.352 42.5 246.632 42.5C245.912 42.5 245.412 42.98 245.412 43.68C245.412 44.42 245.912 44.9 246.632 44.9ZM250.62 58H252.44V51.02C253.16 49.16 254.28 48.52 255.18 48.52C255.62 48.52 255.88 48.56 256.24 48.7L256.58 47.1C256.24 46.92 255.9 46.86 255.42 46.86C254.2 46.86 253.1 47.74 252.34 49.12H252.28L252.12 47.14H250.62V58ZM261.939 58.26C263.419 58.26 264.579 57.76 265.539 57.14L264.879 55.94C264.079 56.48 263.219 56.8 262.159 56.8C260.099 56.8 258.679 55.32 258.559 53H265.879C265.919 52.74 265.959 52.36 265.959 51.96C265.959 48.86 264.399 46.86 261.639 46.86C259.119 46.86 256.739 49.06 256.739 52.58C256.739 56.16 259.059 58.26 261.939 58.26ZM258.539 51.68C258.759 49.56 260.119 48.32 261.659 48.32C263.359 48.32 264.359 49.5 264.359 51.68H258.539ZM274.406 58.26C275.746 58.26 276.966 57.56 278.006 56.7H278.066L278.226 58H279.726V51.32C279.726 48.64 278.606 46.86 275.966 46.86C274.226 46.86 272.686 47.64 271.686 48.28L272.406 49.54C273.266 48.96 274.406 48.38 275.666 48.38C277.446 48.38 277.906 49.72 277.906 51.12C273.286 51.64 271.226 52.82 271.226 55.18C271.226 57.14 272.586 58.26 274.406 58.26ZM274.926 56.8C273.846 56.8 273.006 56.3 273.006 55.06C273.006 53.66 274.246 52.76 277.906 52.32V55.36C276.846 56.3 275.986 56.8 274.926 56.8ZM282.595 58H284.415V50.12C285.515 49.02 286.275 48.46 287.395 48.46C288.835 48.46 289.455 49.32 289.455 51.36V58H291.275V51.12C291.275 48.34 290.235 46.86 287.955 46.86C286.475 46.86 285.355 47.68 284.315 48.7H284.255L284.095 47.14H282.595V58ZM296.721 58.26C298.061 58.26 299.281 57.56 300.321 56.7H300.381L300.541 58H302.041V51.32C302.041 48.64 300.921 46.86 298.281 46.86C296.541 46.86 295.001 47.64 294.001 48.28L294.721 49.54C295.581 48.96 296.721 48.38 297.981 48.38C299.761 48.38 300.221 49.72 300.221 51.12C295.601 51.64 293.541 52.82 293.541 55.18C293.541 57.14 294.901 58.26 296.721 58.26ZM297.241 56.8C296.161 56.8 295.321 56.3 295.321 55.06C295.321 53.66 296.561 52.76 300.221 52.32V55.36C299.161 56.3 298.301 56.8 297.241 56.8ZM306.83 58.26C307.33 58.26 307.63 58.2 307.89 58.1L307.63 56.7C307.43 56.74 307.35 56.74 307.25 56.74C306.97 56.74 306.73 56.52 306.73 55.96V42.08H304.91V55.84C304.91 57.38 305.47 58.26 306.83 58.26ZM310.193 62.68C312.353 62.68 313.493 61.04 314.233 58.9L318.333 47.14H316.553L314.613 53.18C314.313 54.14 313.993 55.24 313.693 56.22H313.593C313.253 55.24 312.873 54.12 312.553 53.18L310.333 47.14H308.433L312.793 58.02L312.553 58.84C312.113 60.18 311.333 61.18 310.093 61.18C309.813 61.18 309.493 61.08 309.273 61L308.913 62.46C309.253 62.6 309.673 62.68 310.193 62.68ZM322.683 58.26C325.243 58.26 326.643 56.8 326.643 55.04C326.643 52.98 324.903 52.34 323.323 51.74C322.103 51.28 320.983 50.9 320.983 49.86C320.983 49.02 321.623 48.3 323.003 48.3C323.963 48.3 324.723 48.7 325.463 49.26L326.343 48.08C325.503 47.42 324.323 46.86 322.983 46.86C320.623 46.86 319.223 48.22 319.223 49.94C319.223 51.78 320.883 52.52 322.403 53.08C323.603 53.54 324.883 54.02 324.883 55.14C324.883 56.08 324.183 56.84 322.743 56.84C321.443 56.84 320.463 56.32 319.523 55.56L318.623 56.76C319.663 57.62 321.143 58.26 322.683 58.26ZM328.599 58H330.419V47.14H328.599V58ZM329.519 44.9C330.239 44.9 330.739 44.42 330.739 43.68C330.739 42.98 330.239 42.5 329.519 42.5C328.799 42.5 328.299 42.98 328.299 43.68C328.299 44.42 328.799 44.9 329.519 44.9ZM336.346 58.26C338.906 58.26 340.306 56.8 340.306 55.04C340.306 52.98 338.566 52.34 336.986 51.74C335.766 51.28 334.646 50.9 334.646 49.86C334.646 49.02 335.286 48.3 336.666 48.3C337.626 48.3 338.386 48.7 339.126 49.26L340.006 48.08C339.166 47.42 337.986 46.86 336.646 46.86C334.286 46.86 332.886 48.22 332.886 49.94C332.886 51.78 334.546 52.52 336.066 53.08C337.266 53.54 338.546 54.02 338.546 55.14C338.546 56.08 337.846 56.84 336.406 56.84C335.106 56.84 334.126 56.32 333.186 55.56L332.286 56.76C333.326 57.62 334.806 58.26 336.346 58.26ZM346.135 62.58H347.955V58.9L347.915 57C348.895 57.8 349.935 58.26 350.915 58.26C353.415 58.26 355.635 56.12 355.635 52.4C355.635 49.06 354.115 46.86 351.315 46.86C350.055 46.86 348.835 47.58 347.855 48.38H347.795L347.635 47.14H346.135V62.58ZM350.615 56.74C349.895 56.74 348.935 56.44 347.955 55.6V49.9C349.015 48.92 349.955 48.4 350.875 48.4C352.935 48.4 353.735 50.02 353.735 52.42C353.735 55.12 352.415 56.74 350.615 56.74ZM357.937 58H359.757V47.14H357.937V58ZM358.857 44.9C359.577 44.9 360.077 44.42 360.077 43.68C360.077 42.98 359.577 42.5 358.857 42.5C358.137 42.5 357.637 42.98 357.637 43.68C357.637 44.42 358.137 44.9 358.857 44.9ZM362.845 62.58H364.665V58.9L364.625 57C365.605 57.8 366.645 58.26 367.625 58.26C370.125 58.26 372.345 56.12 372.345 52.4C372.345 49.06 370.825 46.86 368.025 46.86C366.765 46.86 365.545 47.58 364.565 48.38H364.505L364.345 47.14H362.845V62.58ZM367.325 56.74C366.605 56.74 365.645 56.44 364.665 55.6V49.9C365.725 48.92 366.665 48.4 367.585 48.4C369.645 48.4 370.445 50.02 370.445 52.42C370.445 55.12 369.125 56.74 367.325 56.74ZM379.027 58.26C380.507 58.26 381.667 57.76 382.627 57.14L381.967 55.94C381.167 56.48 380.307 56.8 379.247 56.8C377.187 56.8 375.767 55.32 375.647 53H382.967C383.007 52.74 383.047 52.36 383.047 51.96C383.047 48.86 381.487 46.86 378.727 46.86C376.207 46.86 373.827 49.06 373.827 52.58C373.827 56.16 376.147 58.26 379.027 58.26ZM375.627 51.68C375.847 49.56 377.207 48.32 378.747 48.32C380.447 48.32 381.447 49.5 381.447 51.68H375.627ZM387.041 58.26C387.541 58.26 387.841 58.2 388.101 58.1L387.841 56.7C387.641 56.74 387.561 56.74 387.461 56.74C387.181 56.74 386.941 56.52 386.941 55.96V42.08H385.121V55.84C385.121 57.38 385.681 58.26 387.041 58.26ZM390.224 58H392.044V47.14H390.224V58ZM391.144 44.9C391.864 44.9 392.364 44.42 392.364 43.68C392.364 42.98 391.864 42.5 391.144 42.5C390.424 42.5 389.924 42.98 389.924 43.68C389.924 44.42 390.424 44.9 391.144 44.9ZM395.132 58H396.952V50.12C398.052 49.02 398.812 48.46 399.932 48.46C401.372 48.46 401.992 49.32 401.992 51.36V58H403.812V51.12C403.812 48.34 402.772 46.86 400.492 46.86C399.012 46.86 397.892 47.68 396.852 48.7H396.792L396.632 47.14H395.132V58ZM411.139 58.26C412.619 58.26 413.779 57.76 414.739 57.14L414.079 55.94C413.279 56.48 412.419 56.8 411.359 56.8C409.299 56.8 407.879 55.32 407.759 53H415.079C415.119 52.74 415.159 52.36 415.159 51.96C415.159 48.86 413.599 46.86 410.839 46.86C408.319 46.86 405.939 49.06 405.939 52.58C405.939 56.16 408.259 58.26 411.139 58.26ZM407.739 51.68C407.959 49.56 409.319 48.32 410.859 48.32C412.559 48.32 413.559 49.5 413.559 51.68H407.739ZM225.508 84.26C226.848 84.26 228.068 83.56 229.108 82.7H229.168L229.328 84H230.828V77.32C230.828 74.64 229.708 72.86 227.068 72.86C225.328 72.86 223.788 73.64 222.788 74.28L223.508 75.54C224.368 74.96 225.508 74.38 226.768 74.38C228.548 74.38 229.008 75.72 229.008 77.12C224.388 77.64 222.328 78.82 222.328 81.18C222.328 83.14 223.688 84.26 225.508 84.26ZM226.028 82.8C224.948 82.8 224.108 82.3 224.108 81.06C224.108 79.66 225.348 78.76 229.008 78.32V81.36C227.948 82.3 227.088 82.8 226.028 82.8ZM236.824 84.26C237.484 84.26 238.204 84.06 238.824 83.86L238.464 82.5C238.104 82.64 237.604 82.78 237.224 82.78C235.964 82.78 235.544 82.02 235.544 80.68V74.62H238.484V73.14H235.544V70.08H234.024L233.804 73.14L232.104 73.24V74.62H233.724V80.64C233.724 82.8 234.504 84.26 236.824 84.26ZM244.216 84H246.036V76.12C247.136 75.02 247.896 74.46 249.016 74.46C250.456 74.46 251.076 75.32 251.076 77.36V84H252.896V77.12C252.896 74.34 251.856 72.86 249.576 72.86C248.096 72.86 246.976 73.68 245.976 74.68L246.036 72.44V68.08H244.216V84ZM255.765 84H257.585V73.14H255.765V84ZM256.685 70.9C257.405 70.9 257.905 70.42 257.905 69.68C257.905 68.98 257.405 68.5 256.685 68.5C255.965 68.5 255.465 68.98 255.465 69.68C255.465 70.42 255.965 70.9 256.685 70.9ZM264.332 89C267.692 89 269.832 87.26 269.832 85.24C269.832 83.46 268.552 82.66 266.032 82.66H263.912C262.452 82.66 262.012 82.18 262.012 81.48C262.012 80.88 262.312 80.52 262.712 80.18C263.192 80.42 263.792 80.56 264.332 80.56C266.532 80.56 268.292 79.1 268.292 76.78C268.292 75.84 267.932 75.04 267.412 74.54H269.632V73.14H265.852C265.472 73 264.932 72.86 264.332 72.86C262.132 72.86 260.252 74.36 260.252 76.74C260.252 78.04 260.952 79.08 261.672 79.66V79.74C261.112 80.14 260.452 80.86 260.452 81.76C260.452 82.62 260.872 83.2 261.452 83.54V83.62C260.432 84.28 259.852 85.16 259.852 86.08C259.852 87.96 261.672 89 264.332 89ZM264.332 79.32C263.072 79.32 262.012 78.32 262.012 76.74C262.012 75.14 263.052 74.2 264.332 74.2C265.612 74.2 266.652 75.16 266.652 76.74C266.652 78.32 265.572 79.32 264.332 79.32ZM264.592 87.76C262.632 87.76 261.452 87 261.452 85.84C261.452 85.2 261.772 84.56 262.552 84C263.032 84.12 263.552 84.18 263.952 84.18H265.832C267.272 84.18 268.052 84.52 268.052 85.52C268.052 86.66 266.672 87.76 264.592 87.76ZM271.342 84H273.162V76.12C274.262 75.02 275.022 74.46 276.142 74.46C277.582 74.46 278.202 75.32 278.202 77.36V84H280.022V77.12C280.022 74.34 278.982 72.86 276.702 72.86C275.222 72.86 274.102 73.68 273.102 74.68L273.162 72.44V68.08H271.342V84ZM289.603 84.26C292.163 84.26 293.563 82.8 293.563 81.04C293.563 78.98 291.823 78.34 290.243 77.74C289.023 77.28 287.903 76.9 287.903 75.86C287.903 75.02 288.543 74.3 289.923 74.3C290.883 74.3 291.643 74.7 292.383 75.26L293.263 74.08C292.423 73.42 291.243 72.86 289.903 72.86C287.543 72.86 286.143 74.22 286.143 75.94C286.143 77.78 287.803 78.52 289.323 79.08C290.523 79.54 291.803 80.02 291.803 81.14C291.803 82.08 291.103 82.84 289.663 82.84C288.363 82.84 287.383 82.32 286.443 81.56L285.543 82.76C286.583 83.62 288.063 84.26 289.603 84.26ZM295.519 88.58H297.339V84.9L297.299 83C298.279 83.8 299.319 84.26 300.299 84.26C302.799 84.26 305.019 82.12 305.019 78.4C305.019 75.06 303.499 72.86 300.699 72.86C299.439 72.86 298.219 73.58 297.239 74.38H297.179L297.019 73.14H295.519V88.58ZM299.999 82.74C299.279 82.74 298.319 82.44 297.339 81.6V75.9C298.399 74.92 299.339 74.4 300.259 74.4C302.319 74.4 303.119 76.02 303.119 78.42C303.119 81.12 301.799 82.74 299.999 82.74ZM311.701 84.26C313.181 84.26 314.341 83.76 315.301 83.14L314.641 81.94C313.841 82.48 312.981 82.8 311.921 82.8C309.861 82.8 308.441 81.32 308.321 79H315.641C315.681 78.74 315.721 78.36 315.721 77.96C315.721 74.86 314.161 72.86 311.401 72.86C308.881 72.86 306.501 75.06 306.501 78.58C306.501 82.16 308.821 84.26 311.701 84.26ZM308.301 77.68C308.521 75.56 309.881 74.32 311.421 74.32C313.121 74.32 314.121 75.5 314.121 77.68H308.301ZM322.175 84.26C323.655 84.26 324.815 83.76 325.775 83.14L325.115 81.94C324.315 82.48 323.455 82.8 322.395 82.8C320.335 82.8 318.915 81.32 318.795 79H326.115C326.155 78.74 326.195 78.36 326.195 77.96C326.195 74.86 324.635 72.86 321.875 72.86C319.355 72.86 316.975 75.06 316.975 78.58C316.975 82.16 319.295 84.26 322.175 84.26ZM318.775 77.68C318.995 75.56 320.355 74.32 321.895 74.32C323.595 74.32 324.595 75.5 324.595 77.68H318.775ZM331.969 84.26C333.269 84.26 334.409 83.56 335.269 82.72H335.329L335.489 84H336.969V68.08H335.169V72.26L335.249 74.14C334.289 73.34 333.469 72.86 332.189 72.86C329.709 72.86 327.489 75.06 327.489 78.58C327.489 82.2 329.249 84.26 331.969 84.26ZM332.369 82.74C330.449 82.74 329.369 81.18 329.369 78.56C329.369 76.08 330.749 74.4 332.509 74.4C333.409 74.4 334.229 74.72 335.169 75.54V81.24C334.249 82.24 333.369 82.74 332.369 82.74Z" fill="#333333"/>
<g clip-path="url(#clip0_630_887)">
<path d="M375.475 139.723C352.654 115.297 320.272 100.014 284.365 100.014C248.459 100.014 218.624 114.111 196.013 136.897" stroke="#304984" stroke-width="8" stroke-linecap="round" stroke-linejoin="round"/>
<path d="M379.244 143.666L378.511 133.896" stroke="#304984" stroke-width="8" stroke-linecap="round"/>
<path d="M379.139 143.77L369.438 142.688" stroke="#304984" stroke-width="8" stroke-linecap="round"/>
</g>
<g clip-path="url(#clip1_630_887)">
<path d="M613.64 329.826L612.908 339.597" stroke="#40A4F3" stroke-width="6" stroke-linecap="round"/>
<path d="M613.536 329.722L603.835 330.804" stroke="#40A4F3" stroke-width="6" stroke-linecap="round"/>
<path d="M609.872 333.769C587.051 358.195 554.669 373.479 518.762 373.479C482.856 373.479 453.021 359.381 430.41 336.595" stroke="#40A4F3" stroke-width="8" stroke-linecap="round" stroke-linejoin="round"/>
</g>
<path d="M253.185 215H256.885V208H259.46L263.26 215H267.385L263.06 207.425C265.185 206.6 266.585 204.875 266.585 202.1C266.585 197.85 263.51 196.475 259.635 196.475H253.185V215ZM256.885 205.075V199.425H259.285C261.66 199.425 262.985 200.1 262.985 202.1C262.985 204.075 261.66 205.075 259.285 205.075H256.885ZM274.101 215.35C276.001 215.35 277.351 214.425 278.551 213H278.651L278.926 215H281.926V201H278.251V210.45C277.301 211.7 276.551 212.2 275.401 212.2C274.051 212.2 273.451 211.425 273.451 209.275V201H269.776V209.75C269.776 213.25 271.076 215.35 274.101 215.35ZM285.844 215H289.519V205.375C290.544 204.35 291.269 203.8 292.419 203.8C293.794 203.8 294.394 204.55 294.394 206.725V215H298.069V206.275C298.069 202.75 296.769 200.65 293.744 200.65C291.844 200.65 290.419 201.65 289.194 202.85H289.119L288.844 201H285.844V215ZM310.973 215.35C312.573 215.35 313.973 214.55 315.198 213.5H315.298L315.548 215H318.548V206.825C318.548 202.775 316.723 200.65 313.173 200.65C310.973 200.65 308.973 201.475 307.323 202.5L308.648 204.925C309.948 204.175 311.198 203.6 312.498 203.6C314.223 203.6 314.823 204.65 314.898 206.025C309.248 206.625 306.823 208.2 306.823 211.2C306.823 213.575 308.473 215.35 310.973 215.35ZM312.173 212.475C311.098 212.475 310.323 212 310.323 210.9C310.323 209.65 311.473 208.7 314.898 208.275V211.1C313.998 211.975 313.223 212.475 312.173 212.475ZM237.43 252.375H241.105V248.125L240.98 245.825C242.055 246.8 243.23 247.35 244.455 247.35C247.53 247.35 250.405 244.575 250.405 239.775C250.405 235.475 248.355 232.65 244.905 232.65C243.405 232.65 241.955 233.45 240.78 234.45H240.705L240.43 233H237.43V252.375ZM243.63 244.325C242.88 244.325 241.98 244.05 241.105 243.275V237.125C242.055 236.15 242.905 235.675 243.855 235.675C245.78 235.675 246.63 237.15 246.63 239.825C246.63 242.875 245.33 244.325 243.63 244.325ZM253.519 247H257.194V233H253.519V247ZM255.369 230.75C256.619 230.75 257.494 229.95 257.494 228.725C257.494 227.525 256.619 226.725 255.369 226.725C254.094 226.725 253.219 227.525 253.219 228.725C253.219 229.95 254.094 230.75 255.369 230.75ZM261.112 252.375H264.787V248.125L264.662 245.825C265.737 246.8 266.912 247.35 268.137 247.35C271.212 247.35 274.087 244.575 274.087 239.775C274.087 235.475 272.037 232.65 268.587 232.65C267.087 232.65 265.637 233.45 264.462 234.45H264.387L264.112 233H261.112V252.375ZM267.312 244.325C266.562 244.325 265.662 244.05 264.787 243.275V237.125C265.737 236.15 266.587 235.675 267.537 235.675C269.462 235.675 270.312 237.15 270.312 239.825C270.312 242.875 269.012 244.325 267.312 244.325ZM283.301 247.35C285.026 247.35 286.801 246.75 288.176 245.8L286.926 243.55C285.926 244.175 284.926 244.525 283.776 244.525C281.701 244.525 280.201 243.325 279.901 241.025H288.526C288.626 240.7 288.701 240.025 288.701 239.325C288.701 235.475 286.701 232.65 282.851 232.65C279.526 232.65 276.326 235.475 276.326 240C276.326 244.625 279.376 247.35 283.301 247.35ZM279.851 238.575C280.126 236.55 281.426 235.5 282.901 235.5C284.701 235.5 285.551 236.7 285.551 238.575H279.851ZM295.177 247.35C296.052 247.35 296.652 247.2 297.077 247.025L296.627 244.3C296.377 244.35 296.277 244.35 296.127 244.35C295.777 244.35 295.402 244.075 295.402 243.225V227.05H291.727V243.075C291.727 245.675 292.627 247.35 295.177 247.35ZM299.613 247H303.288V233H299.613V247ZM301.463 230.75C302.713 230.75 303.588 229.95 303.588 228.725C303.588 227.525 302.713 226.725 301.463 226.725C300.188 226.725 299.313 227.525 299.313 228.725C299.313 229.95 300.188 230.75 301.463 230.75ZM307.206 247H310.881V237.375C311.906 236.35 312.631 235.8 313.781 235.8C315.156 235.8 315.756 236.55 315.756 238.725V247H319.431V238.275C319.431 234.75 318.131 232.65 315.106 232.65C313.206 232.65 311.781 233.65 310.556 234.85H310.481L310.206 233H307.206V247ZM329.321 247.35C331.046 247.35 332.821 246.75 334.196 245.8L332.946 243.55C331.946 244.175 330.946 244.525 329.796 244.525C327.721 244.525 326.221 243.325 325.921 241.025H334.546C334.646 240.7 334.721 240.025 334.721 239.325C334.721 235.475 332.721 232.65 328.871 232.65C325.546 232.65 322.346 235.475 322.346 240C322.346 244.625 325.396 247.35 329.321 247.35ZM325.871 238.575C326.146 236.55 327.446 235.5 328.921 235.5C330.721 235.5 331.571 236.7 331.571 238.575H325.871ZM240.966 279.35C242.566 279.35 243.966 278.55 245.191 277.5H245.291L245.541 279H248.541V270.825C248.541 266.775 246.716 264.65 243.166 264.65C240.966 264.65 238.966 265.475 237.316 266.5L238.641 268.925C239.941 268.175 241.191 267.6 242.491 267.6C244.216 267.6 244.816 268.65 244.891 270.025C239.241 270.625 236.816 272.2 236.816 275.2C236.816 277.575 238.466 279.35 240.966 279.35ZM242.166 276.475C241.091 276.475 240.316 276 240.316 274.9C240.316 273.65 241.466 272.7 244.891 272.275V275.1C243.991 275.975 243.216 276.475 242.166 276.475ZM252.286 279H255.961V269.375C256.986 268.35 257.711 267.8 258.861 267.8C260.236 267.8 260.836 268.55 260.836 270.725V279H264.511V270.275C264.511 266.75 263.211 264.65 260.186 264.65C258.286 264.65 256.861 265.65 255.636 266.85H255.561L255.286 265H252.286V279ZM271.752 279.35C273.352 279.35 274.752 278.55 275.977 277.5H276.077L276.327 279H279.327V270.825C279.327 266.775 277.502 264.65 273.952 264.65C271.752 264.65 269.752 265.475 268.102 266.5L269.427 268.925C270.727 268.175 271.977 267.6 273.277 267.6C275.002 267.6 275.602 268.65 275.677 270.025C270.027 270.625 267.602 272.2 267.602 275.2C267.602 277.575 269.252 279.35 271.752 279.35ZM272.952 276.475C271.877 276.475 271.102 276 271.102 274.9C271.102 273.65 272.252 272.7 275.677 272.275V275.1C274.777 275.975 274.002 276.475 272.952 276.475ZM286.523 279.35C287.398 279.35 287.998 279.2 288.423 279.025L287.973 276.3C287.723 276.35 287.623 276.35 287.473 276.35C287.123 276.35 286.748 276.075 286.748 275.225V259.05H283.073V275.075C283.073 277.675 283.973 279.35 286.523 279.35ZM292.183 284.625C295.308 284.625 296.808 282.725 298.033 279.425L303.008 265H299.483L297.558 271.5C297.233 272.8 296.883 274.15 296.558 275.45H296.433C296.033 274.1 295.683 272.75 295.258 271.5L293.033 265H289.333L294.783 278.75L294.533 279.575C294.133 280.8 293.333 281.7 291.908 281.7C291.583 281.7 291.183 281.6 290.933 281.525L290.258 284.35C290.808 284.525 291.358 284.625 292.183 284.625ZM309.314 279.35C312.964 279.35 314.889 277.375 314.889 274.925C314.889 272.325 312.839 271.4 310.989 270.7C309.514 270.15 308.214 269.775 308.214 268.75C308.214 267.95 308.814 267.4 310.089 267.4C311.114 267.4 312.089 267.875 313.089 268.6L314.739 266.375C313.589 265.5 312.014 264.65 309.989 264.65C306.789 264.65 304.764 266.425 304.764 268.925C304.764 271.275 306.739 272.35 308.514 273.025C309.989 273.6 311.439 274.075 311.439 275.125C311.439 276 310.814 276.6 309.414 276.6C308.114 276.6 306.914 276.05 305.664 275.075L303.989 277.375C305.389 278.525 307.439 279.35 309.314 279.35ZM317.692 279H321.367V265H317.692V279ZM319.542 262.75C320.792 262.75 321.667 261.95 321.667 260.725C321.667 259.525 320.792 258.725 319.542 258.725C318.267 258.725 317.392 259.525 317.392 260.725C317.392 261.95 318.267 262.75 319.542 262.75ZM329.284 279.35C332.934 279.35 334.859 277.375 334.859 274.925C334.859 272.325 332.809 271.4 330.959 270.7C329.484 270.15 328.184 269.775 328.184 268.75C328.184 267.95 328.784 267.4 330.059 267.4C331.084 267.4 332.059 267.875 333.059 268.6L334.709 266.375C333.559 265.5 331.984 264.65 329.959 264.65C326.759 264.65 324.734 266.425 324.734 268.925C324.734 271.275 326.709 272.35 328.484 273.025C329.959 273.6 331.409 274.075 331.409 275.125C331.409 276 330.784 276.6 329.384 276.6C328.084 276.6 326.884 276.05 325.634 275.075L323.959 277.375C325.359 278.525 327.409 279.35 329.284 279.35Z" fill="white"/>
<path d="M475.333 215H479.033V208.425H481.508C485.483 208.425 488.658 206.525 488.658 202.3C488.658 197.925 485.508 196.475 481.408 196.475H475.333V215ZM479.033 205.5V199.425H481.133C483.683 199.425 485.033 200.15 485.033 202.3C485.033 204.425 483.808 205.5 481.258 205.5H479.033ZM491.707 215H495.382V206.65C496.157 204.625 497.482 203.9 498.582 203.9C499.157 203.9 499.557 203.975 500.057 204.125L500.682 200.95C500.257 200.775 499.807 200.65 499.032 200.65C497.582 200.65 496.082 201.65 495.057 203.475H494.982L494.707 201H491.707V215ZM508.153 215.35C511.653 215.35 514.878 212.65 514.878 208C514.878 203.35 511.653 200.65 508.153 200.65C504.653 200.65 501.428 203.35 501.428 208C501.428 212.65 504.653 215.35 508.153 215.35ZM508.153 212.35C506.253 212.35 505.178 210.65 505.178 208C505.178 205.375 506.253 203.65 508.153 203.65C510.053 203.65 511.128 205.375 511.128 208C511.128 210.65 510.053 212.35 508.153 212.35ZM523.902 215.35C525.452 215.35 527.152 214.825 528.502 213.65L527.027 211.225C526.252 211.875 525.302 212.35 524.302 212.35C522.302 212.35 520.827 210.65 520.827 208C520.827 205.375 522.277 203.65 524.427 203.65C525.202 203.65 525.852 203.975 526.552 204.575L528.302 202.2C527.277 201.325 525.952 200.65 524.227 200.65C520.427 200.65 517.077 203.35 517.077 208C517.077 212.65 520.027 215.35 523.902 215.35ZM536.479 215.35C538.204 215.35 539.979 214.75 541.354 213.8L540.104 211.55C539.104 212.175 538.104 212.525 536.954 212.525C534.879 212.525 533.379 211.325 533.079 209.025H541.704C541.804 208.7 541.879 208.025 541.879 207.325C541.879 203.475 539.879 200.65 536.029 200.65C532.704 200.65 529.504 203.475 529.504 208C529.504 212.625 532.554 215.35 536.479 215.35ZM533.029 206.575C533.304 204.55 534.604 203.5 536.079 203.5C537.879 203.5 538.729 204.7 538.729 206.575H533.029ZM548.906 215.35C552.556 215.35 554.481 213.375 554.481 210.925C554.481 208.325 552.431 207.4 550.581 206.7C549.106 206.15 547.806 205.775 547.806 204.75C547.806 203.95 548.406 203.4 549.681 203.4C550.706 203.4 551.681 203.875 552.681 204.6L554.331 202.375C553.181 201.5 551.606 200.65 549.581 200.65C546.381 200.65 544.356 202.425 544.356 204.925C544.356 207.275 546.331 208.35 548.106 209.025C549.581 209.6 551.031 210.075 551.031 211.125C551.031 212 550.406 212.6 549.006 212.6C547.706 212.6 546.506 212.05 545.256 211.075L543.581 213.375C544.981 214.525 547.031 215.35 548.906 215.35ZM561.284 215.35C564.934 215.35 566.859 213.375 566.859 210.925C566.859 208.325 564.809 207.4 562.959 206.7C561.484 206.15 560.184 205.775 560.184 204.75C560.184 203.95 560.784 203.4 562.059 203.4C563.084 203.4 564.059 203.875 565.059 204.6L566.709 202.375C565.559 201.5 563.984 200.65 561.959 200.65C558.759 200.65 556.734 202.425 556.734 204.925C556.734 207.275 558.709 208.35 560.484 209.025C561.959 209.6 563.409 210.075 563.409 211.125C563.409 212 562.784 212.6 561.384 212.6C560.084 212.6 558.884 212.05 557.634 211.075L555.959 213.375C557.359 214.525 559.409 215.35 561.284 215.35ZM499.733 247.35C501.183 247.35 502.583 246.55 503.608 245.55H503.708L503.983 247H506.958V227.05H503.308V231.975L503.433 234.175C502.433 233.25 501.458 232.65 499.883 232.65C496.858 232.65 494.008 235.45 494.008 240C494.008 244.6 496.258 247.35 499.733 247.35ZM500.683 244.325C498.833 244.325 497.783 242.875 497.783 239.975C497.783 237.175 499.108 235.675 500.683 235.675C501.558 235.675 502.458 235.95 503.308 236.725V242.875C502.483 243.925 501.658 244.325 500.683 244.325ZM514.347 247.35C515.947 247.35 517.347 246.55 518.572 245.5H518.672L518.922 247H521.922V238.825C521.922 234.775 520.097 232.65 516.547 232.65C514.347 232.65 512.347 233.475 510.697 234.5L512.022 236.925C513.322 236.175 514.572 235.6 515.872 235.6C517.597 235.6 518.197 236.65 518.272 238.025C512.622 238.625 510.197 240.2 510.197 243.2C510.197 245.575 511.847 247.35 514.347 247.35ZM515.547 244.475C514.472 244.475 513.697 244 513.697 242.9C513.697 241.65 514.847 240.7 518.272 240.275V243.1C517.372 243.975 516.597 244.475 515.547 244.475ZM530.328 247.35C531.553 247.35 532.528 247.075 533.278 246.825L532.678 244.15C532.303 244.3 531.753 244.45 531.303 244.45C530.053 244.45 529.403 243.7 529.403 242.1V235.9H532.853V233H529.403V229.225H526.353L525.928 233L523.753 233.175V235.9H525.728V242.1C525.728 245.225 527.003 247.35 530.328 247.35ZM538.566 247.35C540.166 247.35 541.566 246.55 542.791 245.5H542.891L543.141 247H546.141V238.825C546.141 234.775 544.316 232.65 540.766 232.65C538.566 232.65 536.566 233.475 534.916 234.5L536.241 236.925C537.541 236.175 538.791 235.6 540.091 235.6C541.816 235.6 542.416 236.65 542.491 238.025C536.841 238.625 534.416 240.2 534.416 243.2C534.416 245.575 536.066 247.35 538.566 247.35ZM539.766 244.475C538.691 244.475 537.916 244 537.916 242.9C537.916 241.65 539.066 240.7 542.491 240.275V243.1C541.591 243.975 540.816 244.475 539.766 244.475ZM475.724 279.35C477.324 279.35 478.724 278.55 479.949 277.5H480.049L480.299 279H483.299V270.825C483.299 266.775 481.474 264.65 477.924 264.65C475.724 264.65 473.724 265.475 472.074 266.5L473.399 268.925C474.699 268.175 475.949 267.6 477.249 267.6C478.974 267.6 479.574 268.65 479.649 270.025C473.999 270.625 471.574 272.2 471.574 275.2C471.574 277.575 473.224 279.35 475.724 279.35ZM476.924 276.475C475.849 276.475 475.074 276 475.074 274.9C475.074 273.65 476.224 272.7 479.649 272.275V275.1C478.749 275.975 477.974 276.475 476.924 276.475ZM487.044 279H490.719V269.375C491.744 268.35 492.469 267.8 493.619 267.8C494.994 267.8 495.594 268.55 495.594 270.725V279H499.269V270.275C499.269 266.75 497.969 264.65 494.944 264.65C493.044 264.65 491.619 265.65 490.394 266.85H490.319L490.044 265H487.044V279ZM506.51 279.35C508.11 279.35 509.51 278.55 510.735 277.5H510.835L511.085 279H514.085V270.825C514.085 266.775 512.26 264.65 508.71 264.65C506.51 264.65 504.51 265.475 502.86 266.5L504.185 268.925C505.485 268.175 506.735 267.6 508.035 267.6C509.76 267.6 510.36 268.65 510.435 270.025C504.785 270.625 502.36 272.2 502.36 275.2C502.36 277.575 504.01 279.35 506.51 279.35ZM507.71 276.475C506.635 276.475 505.86 276 505.86 274.9C505.86 273.65 507.01 272.7 510.435 272.275V275.1C509.535 275.975 508.76 276.475 507.71 276.475ZM521.28 279.35C522.155 279.35 522.755 279.2 523.18 279.025L522.73 276.3C522.48 276.35 522.38 276.35 522.23 276.35C521.88 276.35 521.505 276.075 521.505 275.225V259.05H517.83V275.075C517.83 277.675 518.73 279.35 521.28 279.35ZM526.941 284.625C530.066 284.625 531.566 282.725 532.791 279.425L537.766 265H534.241L532.316 271.5C531.991 272.8 531.641 274.15 531.316 275.45H531.191C530.791 274.1 530.441 272.75 530.016 271.5L527.791 265H524.091L529.541 278.75L529.291 279.575C528.891 280.8 528.091 281.7 526.666 281.7C526.341 281.7 525.941 281.6 525.691 281.525L525.016 284.35C525.566 284.525 526.116 284.625 526.941 284.625ZM544.072 279.35C547.722 279.35 549.647 277.375 549.647 274.925C549.647 272.325 547.597 271.4 545.747 270.7C544.272 270.15 542.972 269.775 542.972 268.75C542.972 267.95 543.572 267.4 544.847 267.4C545.872 267.4 546.847 267.875 547.847 268.6L549.497 266.375C548.347 265.5 546.772 264.65 544.747 264.65C541.547 264.65 539.522 266.425 539.522 268.925C539.522 271.275 541.497 272.35 543.272 273.025C544.747 273.6 546.197 274.075 546.197 275.125C546.197 276 545.572 276.6 544.172 276.6C542.872 276.6 541.672 276.05 540.422 275.075L538.747 277.375C540.147 278.525 542.197 279.35 544.072 279.35ZM552.45 279H556.125V265H552.45V279ZM554.3 262.75C555.55 262.75 556.425 261.95 556.425 260.725C556.425 259.525 555.55 258.725 554.3 258.725C553.025 258.725 552.15 259.525 552.15 260.725C552.15 261.95 553.025 262.75 554.3 262.75ZM564.042 279.35C567.692 279.35 569.617 277.375 569.617 274.925C569.617 272.325 567.567 271.4 565.717 270.7C564.242 270.15 562.942 269.775 562.942 268.75C562.942 267.95 563.542 267.4 564.817 267.4C565.842 267.4 566.817 267.875 567.817 268.6L569.467 266.375C568.317 265.5 566.742 264.65 564.717 264.65C561.517 264.65 559.492 266.425 559.492 268.925C559.492 271.275 561.467 272.35 563.242 273.025C564.717 273.6 566.167 274.075 566.167 275.125C566.167 276 565.542 276.6 564.142 276.6C562.842 276.6 561.642 276.05 560.392 275.075L558.717 277.375C560.117 278.525 562.167 279.35 564.042 279.35Z" fill="white"/>
<path d="M398 231H393V241H398V231Z" fill="white"/>
<path d="M388.871 231.076C386.178 231.093 384 233.293 384 236.005C384 238.716 386.178 240.911 388.871 240.933V231.076Z" fill="white"/>
<path d="M419.345 234.49L413.165 228.077L408.849 223.593C407.645 222.344 405.534 223.199 405.534 224.943V230.26C405.534 230.71 405.171 231.075 404.723 231.075H401.991V240.927H404.723C405.171 240.927 405.534 241.292 405.534 241.743V247.054C405.534 248.798 407.645 249.653 408.849 248.404L413.165 243.92L419.345 237.506C420.157 236.668 420.157 235.334 419.345 234.49V234.49Z" fill="white"/>
<defs>
<linearGradient id="paint0_linear_630_887" x1="174.323" y1="236.011" x2="629.613" y2="236.011" gradientUnits="userSpaceOnUse">
<stop stop-color="#365AB8"/>
<stop offset="1" stop-color="#31AEF4"/>
</linearGradient>
<clipPath id="clip0_630_887">
<rect width="190" height="50.4922" fill="white" transform="translate(192 96)"/>
</clipPath>
<clipPath id="clip1_630_887">
<rect width="190" height="50.4922" fill="white" transform="matrix(1 0 0 -1 426.397 377.492)"/>
</clipPath>
</defs>
</svg>
