<svg width="804" height="472" viewBox="0 0 804 472" fill="none" xmlns="http://www.w3.org/2000/svg">
<path d="M415.139 193.764C411.725 198.175 407.16 200.941 402.019 200.941C396.879 200.941 392.314 198.175 388.9 193.764C372.097 153.995 332.24 126 285.746 126C224.023 126 174 175.225 174 236C174 296.775 224.023 346 285.746 346C332.24 346 372.097 318.005 388.9 278.236C392.314 273.825 396.917 271.059 402.019 271.059C407.121 271.059 411.725 273.825 415.139 278.236C431.941 318.005 471.798 346 518.292 346C579.977 346 630 296.737 630 236C630 175.263 579.977 126 518.292 126C471.798 126 431.941 153.995 415.139 193.764Z" fill="url(#paint0_linear_377_885)"/>
<path d="M401.703 401.832C401.703 404.208 401.703 406.98 400.955 410.764L402.759 410.962C403.507 406.98 403.507 404.274 403.507 401.832V399.874H389.669V401.348H401.703V401.832ZM396.533 413.382V406.32H394.729V413.382H387.799V414.856H405.641V413.382H396.533ZM422.008 409.576H423.834V397.916H422.008V402.096H417.718V403.57H422.008V409.576ZM419.148 407.244C416.266 406.232 414.352 403.79 414.352 400.974V399.016H412.548V401.04C412.548 404.054 410.59 406.694 407.554 407.772L408.5 409.246C410.876 408.344 412.658 406.562 413.494 404.23C414.352 406.276 416.024 407.838 418.18 408.652L419.148 407.244ZM417.322 416.176C414.352 416.176 412.548 415.318 412.548 413.888C412.548 412.436 414.352 411.578 417.322 411.578C420.292 411.578 422.096 412.436 422.096 413.888C422.096 415.318 420.292 416.176 417.322 416.176ZM417.322 410.17C413.274 410.17 410.744 411.512 410.744 413.888C410.744 416.242 413.274 417.606 417.322 417.606C421.37 417.606 423.9 416.242 423.9 413.888C423.9 411.512 421.37 410.17 417.322 410.17ZM443.192 403.394H431.598V398.312H429.794V404.846H443.192V403.394ZM436.284 416.154C433.182 416.154 431.356 415.34 431.356 413.976C431.356 412.568 433.182 411.776 436.284 411.776C439.386 411.776 441.212 412.568 441.212 413.976C441.212 415.34 439.364 416.154 436.284 416.154ZM436.284 410.368C432.082 410.368 429.53 411.666 429.53 413.976C429.53 416.264 432.082 417.562 436.284 417.562C440.486 417.562 443.038 416.264 443.038 413.976C443.038 411.666 440.486 410.368 436.284 410.368ZM427.396 407.134V408.608H445.238V407.134H427.396ZM467.844 397.916H466.04V412.326H467.844V397.916ZM453.874 404.12C453.874 402.206 455.326 400.842 457.24 400.842C459.198 400.842 460.65 402.206 460.65 404.12C460.65 406.078 459.198 407.442 457.24 407.442C455.326 407.442 453.874 406.078 453.874 404.12ZM462.41 404.12C462.41 401.282 460.188 399.28 457.24 399.28C454.314 399.28 452.114 401.282 452.114 404.12C452.114 406.98 454.314 409.004 457.24 409.004C460.188 409.004 462.41 406.98 462.41 404.12ZM456.954 415.714V410.852H455.15V417.188H468.438V415.714H456.954ZM482.802 408.19H477.896V401.326H482.802V408.19ZM476.092 408.19H473.078V409.664H487.62V408.19H484.606V401.326H487.664V399.874H473.034V401.326H476.092V408.19ZM471.45 413.602V415.098H489.336V413.602H471.45ZM493.823 406.804H500.929V399.72H491.997V401.194H499.147V405.33H492.063V412.876H493.625C497.387 412.876 500.027 412.722 503.107 412.172L502.909 410.676C499.961 411.248 497.409 411.38 493.823 411.38V406.804ZM509.685 405.726H506.451V397.872H504.647V417.65H506.451V407.244H509.685V405.726ZM518.043 399.61H516.261V403.152C516.261 406.892 513.863 410.676 510.959 412.062L512.059 413.536C514.369 412.348 516.261 409.884 517.163 406.914C518.109 409.73 520.001 412.062 522.245 413.162L523.323 411.71C520.397 410.39 518.043 406.76 518.043 403.152V399.61ZM525.391 397.894V417.672H527.195V397.894H525.391ZM547.851 407.816C544.397 407.156 540.657 404.164 540.657 400.798V399.28H538.765V400.798C538.765 404.164 535.047 407.134 531.593 407.816L532.407 409.312C535.377 408.608 538.457 406.496 539.711 403.614C540.965 406.518 544.045 408.63 547.037 409.312L547.851 407.816ZM530.845 413.492V414.988H548.731V413.492H530.845ZM561.753 409.576H563.469V398.224H561.753V402.866H559.135V404.318H561.753V409.576ZM559.905 406.606C557.859 407.024 556.077 407.134 553.283 407.134V404.472H558.233V403.064H553.283V400.622H559.003V399.17H551.545V408.586H552.799C555.945 408.586 557.815 408.498 560.059 408.058L559.905 406.606ZM556.099 412.15H565.537V415.912H556.099V412.15ZM554.339 417.364H567.297V410.72H554.339V417.364ZM565.559 397.894V409.774H567.297V397.894H565.559ZM576.088 400.028V401.48H583.502C583.128 406.166 580.488 409.95 575.186 412.48L576.154 413.954C582.71 410.742 585.328 405.726 585.328 400.028H576.088ZM589.31 397.894V417.628H591.114V397.894H589.31ZM602.904 407.64H597.316V404.032H602.904V407.64ZM604.664 399.324H602.904V402.624H597.316V399.324H595.534V409.092H604.664V399.324ZM599.56 411.006H597.756V417.188H610.912V415.714H599.56V411.006ZM610.032 403.878V397.916H608.228V412.392H610.032V405.396H612.936V403.878H610.032ZM623.428 399.126C619.336 399.126 616.256 401.304 616.256 404.582C616.256 407.882 619.336 410.038 623.428 410.038C627.52 410.038 630.6 407.882 630.6 404.582C630.6 401.304 627.52 399.126 623.428 399.126ZM623.428 400.6C626.552 400.6 628.884 402.206 628.884 404.582C628.884 406.98 626.552 408.564 623.428 408.564C620.326 408.564 617.972 406.98 617.972 404.582C617.972 402.206 620.326 400.6 623.428 400.6ZM614.496 413.514V415.01H632.426V413.514H614.496ZM644.15 413.712V409.994H650.464V408.542H638.32V405.352H650.002V399.346H636.494V400.82H648.242V403.9H636.538V409.994H642.324V413.712H634.294V415.186H652.224V413.712H644.15ZM343.595 432.142C343.595 430.206 345.047 428.842 346.983 428.842C348.919 428.842 350.371 430.206 350.371 432.142C350.371 434.078 348.919 435.442 346.983 435.442C345.047 435.442 343.595 434.078 343.595 432.142ZM352.131 432.142C352.131 429.282 349.931 427.28 346.983 427.28C344.035 427.28 341.835 429.282 341.835 432.142C341.835 435.002 344.035 437.004 346.983 437.004C349.931 437.004 352.131 435.002 352.131 432.142ZM346.301 438.94H344.497V445.188H357.653V443.714H346.301V438.94ZM356.773 431.9V425.894H354.969V440.414H356.773V433.396H359.677V431.9H356.773ZM371.797 431.02V432.494H375.691V437.664H377.517V425.916H375.691V431.02H371.797ZM372.897 435.508C370.037 434.496 368.101 432.01 368.101 429.48V428.798H372.435V427.346H361.897V428.798H366.297V429.48C366.297 432.318 364.273 434.98 361.325 436.058L362.271 437.488C364.581 436.608 366.407 434.76 367.243 432.472C368.101 434.496 369.795 436.124 371.995 436.916L372.897 435.508ZM371.005 444.22C368.035 444.22 366.231 443.384 366.231 441.954C366.231 440.524 368.035 439.666 371.005 439.666C373.975 439.666 375.779 440.524 375.779 441.954C375.779 443.384 373.975 444.22 371.005 444.22ZM371.005 438.28C366.957 438.28 364.427 439.622 364.427 441.954C364.427 444.286 366.957 445.628 371.005 445.628C375.053 445.628 377.583 444.286 377.583 441.954C377.583 439.622 375.053 438.28 371.005 438.28ZM392.695 435.53C389.835 434.518 387.899 432.032 387.899 429.502V428.71H392.233V427.236H381.695V428.71H386.095V429.502C386.095 432.296 384.049 434.936 381.123 435.97L382.069 437.4C384.379 436.542 386.183 434.738 387.019 432.472C387.899 434.518 389.593 436.146 391.793 436.938L392.695 435.53ZM384.115 440.238H395.489V445.65H397.315V438.786H384.115V440.238ZM395.489 425.894V431.042H391.639V432.516H395.489V437.708H397.315V425.894H395.489ZM415.2 425.894V445.672H417.004V425.894H415.2ZM406.598 427.412C403.672 427.412 401.582 430.096 401.582 434.298C401.582 438.5 403.672 441.184 406.598 441.184C409.524 441.184 411.614 438.5 411.614 434.298C411.614 430.096 409.524 427.412 406.598 427.412ZM406.598 429.04C408.512 429.04 409.876 431.108 409.876 434.298C409.876 437.51 408.512 439.578 406.598 439.578C404.662 439.578 403.298 437.51 403.298 434.298C403.298 431.108 404.662 429.04 406.598 429.04ZM434.58 429.832C434.58 432.208 434.58 434.98 433.832 438.764L435.636 438.962C436.384 434.98 436.384 432.274 436.384 429.832V427.874H422.546V429.348H434.58V429.832ZM429.41 441.382V434.32H427.606V441.382H420.676V442.856H438.518V441.382H429.41ZM458.858 429.832C458.858 432.208 458.858 434.98 458.11 438.764L459.914 438.962C460.662 434.98 460.662 432.274 460.662 429.832V427.874H446.824V429.348H458.858V429.832ZM453.688 441.382V434.32H451.884V441.382H444.954V442.856H462.796V441.382H453.688ZM481.494 432.384C477.974 431.9 474.564 429.7 474.564 427.082V426.202H472.716V427.082C472.716 429.7 469.306 431.9 465.808 432.384L466.49 433.836C469.504 433.33 472.408 431.768 473.64 429.502C474.894 431.768 477.798 433.33 480.812 433.836L481.494 432.384ZM466.71 440.656H478.568V445.65H480.372V439.182H466.71V440.656ZM474.542 435.794V432.78H472.738V435.794H464.73V437.268H482.638V435.794H474.542ZM491.495 429.766H497.061V428.292H489.713V440.766H491.011C493.959 440.766 495.961 440.678 498.315 440.172L498.161 438.676C496.005 439.138 494.135 439.248 491.495 439.27V429.766ZM504.035 425.894V433.814H501.241V426.334H499.547V444.638H501.241V435.288H504.035V445.628H505.773V425.894H504.035ZM517.717 444.22C514.615 444.22 512.789 443.45 512.789 442.108C512.789 440.766 514.615 439.996 517.717 439.996C520.797 439.996 522.645 440.766 522.645 442.108C522.645 443.45 520.797 444.22 517.717 444.22ZM517.717 438.588C513.493 438.588 510.963 439.842 510.963 442.108C510.963 444.374 513.493 445.606 517.717 445.606C521.963 445.606 524.471 444.374 524.471 442.108C524.471 439.842 521.963 438.588 517.717 438.588ZM514.989 433.352C515.803 433.484 516.727 433.572 517.717 433.572C518.729 433.572 519.653 433.484 520.467 433.352V435.662H514.989V433.352ZM512.635 429.92C512.635 428.49 514.571 427.654 517.717 427.654C520.863 427.654 522.799 428.49 522.799 429.92C522.799 431.328 520.863 432.186 517.717 432.186C514.571 432.186 512.635 431.328 512.635 429.92ZM522.249 435.662V432.868C523.767 432.252 524.647 431.24 524.647 429.92C524.647 427.61 522.007 426.246 517.717 426.246C513.449 426.246 510.787 427.61 510.787 429.92C510.787 431.262 511.645 432.252 513.207 432.89V435.662H508.785V437.114H526.649V435.662H522.249ZM540.221 434.562C537.229 435.09 534.699 435.2 531.245 435.2V432.472H538.307V427.126H529.419V428.6H536.525V431.086H529.463V436.674H531.025C534.677 436.674 537.273 436.564 540.397 436.036L540.221 434.562ZM537.625 444.22C534.677 444.22 532.895 443.406 532.895 442.02C532.895 440.634 534.677 439.82 537.625 439.82C540.573 439.82 542.333 440.634 542.333 442.02C542.333 443.406 540.573 444.22 537.625 444.22ZM537.625 438.412C533.599 438.412 531.135 439.732 531.135 442.02C531.135 444.308 533.599 445.606 537.625 445.606C541.629 445.606 544.115 444.308 544.115 442.02C544.115 439.732 541.629 438.412 537.625 438.412ZM546.843 430.47V428.974H543.917V425.916H542.113V437.84H543.917V434.628H546.843V433.132H543.917V430.47H546.843ZM555.391 429.766H561.023V428.314H553.609V440.876H554.885C558.031 440.876 559.945 440.788 562.189 440.304L562.013 438.83C559.945 439.27 558.185 439.358 555.391 439.38V429.766ZM563.949 433.418H559.703V434.914H563.949V444.638H565.643V426.378H563.949V433.418ZM567.909 425.894V445.628H569.625V425.894H567.909ZM587.026 425.894V445.672H588.83V425.894H587.026ZM578.424 427.412C575.498 427.412 573.408 430.096 573.408 434.298C573.408 438.5 575.498 441.184 578.424 441.184C581.35 441.184 583.44 438.5 583.44 434.298C583.44 430.096 581.35 427.412 578.424 427.412ZM578.424 429.04C580.338 429.04 581.702 431.108 581.702 434.298C581.702 437.51 580.338 439.578 578.424 439.578C576.488 439.578 575.124 437.51 575.124 434.298C575.124 431.108 576.488 429.04 578.424 429.04ZM595.186 434.694H601.654V433.242H595.186V429.172H602.512V427.676H593.382V440.898H594.9C598.662 440.898 601.06 440.788 603.92 440.282L603.722 438.808C601.038 439.292 598.75 439.424 595.186 439.424V434.694ZM606.934 425.872V433.33H602.864V434.826H606.934V445.65H608.738V425.872H606.934ZM630.486 432.978H620.894V430.426H630.486V432.978ZM632.268 426.51H630.486V429.04H620.894V426.51H619.112V434.408H632.268V426.51ZM620.784 439.82H619.002V445.188H632.642V443.714H620.784V439.82ZM616.714 436.322V437.774H624.92V441.602H626.724V437.774H634.644V436.322H616.714ZM648.084 435.288C645.224 434.276 643.266 431.746 643.266 429.04V426.884H641.462V428.974C641.462 431.966 639.57 434.628 636.578 435.706L637.524 437.158C639.834 436.234 641.572 434.474 642.408 432.164C643.266 434.232 644.96 435.882 647.116 436.718L648.084 435.288ZM639.592 440.106H650.988V445.65H652.814V438.654H639.592V440.106ZM650.988 425.916V430.03H646.698V431.504H650.988V437.554H652.814V425.916H650.988ZM667.655 430.756H672.033V429.304H667.655V426.246H665.851V429.304H661.407V430.756H665.873V432.274C665.873 435.684 663.761 439.05 660.857 440.436L661.869 441.822C664.113 440.722 665.939 438.434 666.775 435.684C667.655 438.28 669.481 440.414 671.725 441.448L672.715 440.062C669.811 438.764 667.655 435.552 667.655 432.274V430.756ZM675.289 425.872V433.814H671.021V435.288H675.289V445.672H677.093V425.872H675.289ZM683.581 434.76H690.863V427.72H681.711V429.194H689.037V433.308H681.777V440.876H683.405C686.793 440.876 689.785 440.744 693.349 440.15L693.173 438.676C689.719 439.226 686.815 439.38 683.581 439.38V434.76ZM695.021 425.872V445.65H696.825V425.872H695.021Z" fill="#333333"/>
<path d="M204.792 39.54C202.218 40.046 199.974 40.2 196.08 40.2V34.062H203.01V32.61H194.276V41.674H195.816C199.952 41.674 202.284 41.542 204.99 40.992L204.792 39.54ZM198.214 43.742H196.41V50.188H209.566V48.714H198.214V43.742ZM208.686 36.746V30.894H206.882V45.172H208.686V38.242H211.612V36.746H208.686ZM219.64 33.314C221.554 33.314 222.918 34.348 222.918 35.888C222.918 37.428 221.554 38.462 219.64 38.462C217.704 38.462 216.34 37.428 216.34 35.888C216.34 34.348 217.704 33.314 219.64 33.314ZM219.64 39.936C222.566 39.936 224.656 38.286 224.656 35.888C224.656 33.468 222.566 31.818 219.64 31.818C216.692 31.818 214.602 33.468 214.602 35.888C214.602 38.286 216.692 39.936 219.64 39.936ZM226.13 40.904C221.796 41.564 216.802 41.608 213.128 41.608L213.37 43.126C214.998 43.126 216.868 43.104 218.826 43.016V50.012H220.63V42.906C222.5 42.796 224.414 42.576 226.284 42.246L226.13 40.904ZM227.56 30.916V50.65H229.364V30.916H227.56ZM251.178 37.978H241.586V35.426H251.178V37.978ZM252.96 31.51H251.178V34.04H241.586V31.51H239.804V39.408H252.96V31.51ZM241.476 44.82H239.694V50.188H253.334V48.714H241.476V44.82ZM237.406 41.322V42.774H245.612V46.602H247.416V42.774H255.336V41.322H237.406ZM268.777 40.288C265.917 39.276 263.959 36.746 263.959 34.04V31.884H262.155V33.974C262.155 36.966 260.263 39.628 257.271 40.706L258.217 42.158C260.527 41.234 262.265 39.474 263.101 37.164C263.959 39.232 265.653 40.882 267.809 41.718L268.777 40.288ZM260.285 45.106H271.681V50.65H273.507V43.654H260.285V45.106ZM271.681 30.916V35.03H267.391V36.504H271.681V42.554H273.507V30.916H271.681ZM292.879 41.19H287.973V34.326H292.879V41.19ZM286.169 41.19H283.155V42.664H297.697V41.19H294.683V34.326H297.741V32.874H283.111V34.326H286.169V41.19ZM281.527 46.602V48.098H299.413V46.602H281.527ZM311.159 46.712V42.994H317.473V41.542H305.329V38.352H317.011V32.346H303.503V33.82H315.251V36.9H303.547V42.994H309.333V46.712H301.303V48.186H319.233V46.712H311.159ZM334.807 34.964C334.807 37.406 334.807 40.354 334.015 44.38L335.819 44.578C336.589 40.31 336.589 37.472 336.589 34.964V32.984H323.059V34.458H334.807V34.964ZM321.145 46.25V47.746H338.987V46.25H321.145ZM350.36 39.782C348.05 40.244 346.114 40.354 343.562 40.354V37.56H349.194V32.192H341.78V33.644H347.456V36.196H341.824V41.806H343.122C345.96 41.806 348.028 41.696 350.536 41.234L350.36 39.782ZM346.378 45.062H355.816V48.912H346.378V45.062ZM344.618 50.364H357.576V43.632H344.618V50.364ZM355.838 30.894V35.91H353.198V31.268H351.482V42.422H353.198V37.384H355.838V42.686H357.576V30.894H355.838ZM371.016 41.96C371.566 38.286 371.566 35.712 371.566 34.128V33.05H361.6V34.524H369.806C369.806 36.108 369.762 38.506 369.212 41.784L371.016 41.96ZM366.484 38.682H364.702V44.754C363.228 44.798 361.776 44.82 360.522 44.82L360.72 46.316C364.218 46.316 368.86 46.228 372.952 45.568L372.842 44.248C370.84 44.49 368.64 44.622 366.484 44.71V38.682ZM379.002 39.144H375.856V30.894H374.052V50.628H375.856V40.662H379.002V39.144ZM159.769 64.35V65.824H163.729V73.37H165.555V58.916H163.729V64.35H159.769ZM160.935 68.992C158.075 67.98 156.139 65.516 156.139 62.942V61.974H160.473V60.5H149.935V61.974H154.335V62.964C154.335 65.758 152.289 68.376 149.363 69.432L150.309 70.84C152.619 70.004 154.423 68.178 155.281 65.934C156.139 67.958 157.833 69.608 160.033 70.4L160.935 68.992ZM154.753 76.714V72.094H152.927V78.188H166.105V76.714H154.753ZM174.838 64.02H178.49V62.524H174.86V59.598H173.122V62.524H169.47V64.02H173.122V64.966C173.122 68.2 171.604 71.654 168.942 73.238L169.998 74.58C171.934 73.414 173.32 71.214 174.002 68.706C174.728 71.082 176.136 73.084 178.05 74.162L179.084 72.798C176.422 71.368 174.838 68.112 174.838 64.966V64.02ZM180.162 66.682H177.148V68.178H180.162V77.594H181.878V59.356H180.162V66.682ZM184.122 58.894V78.606H185.86V58.894H184.122ZM207.102 65.978H197.51V63.426H207.102V65.978ZM208.884 59.51H207.102V62.04H197.51V59.51H195.728V67.408H208.884V59.51ZM197.4 72.82H195.618V78.188H209.258V76.714H197.4V72.82ZM193.33 69.322V70.774H201.536V74.602H203.34V70.774H211.26V69.322H193.33ZM224.7 68.288C221.84 67.276 219.882 64.746 219.882 62.04V59.884H218.078V61.974C218.078 64.966 216.186 67.628 213.194 68.706L214.14 70.158C216.45 69.234 218.188 67.474 219.024 65.164C219.882 67.232 221.576 68.882 223.732 69.718L224.7 68.288ZM216.208 73.106H227.604V78.65H229.43V71.654H216.208V73.106ZM227.604 58.916V63.03H223.314V64.504H227.604V70.554H229.43V58.916H227.604ZM241.586 62.48H244.82V72.072C243.742 72.116 242.642 72.16 241.586 72.182V62.48ZM246.58 62.48H248.692V61.028H237.714V62.48H239.826V72.204C238.902 72.226 238.022 72.226 237.208 72.226L237.428 73.744C240.904 73.744 245.59 73.678 249.726 73.018L249.594 71.676C248.626 71.808 247.614 71.896 246.58 71.962V62.48ZM255.886 66.792H252.63V58.916H250.826V78.628H252.63V68.288H255.886V66.792ZM271.593 58.894V78.672H273.397V58.894H271.593ZM262.991 60.412C260.065 60.412 257.975 63.096 257.975 67.298C257.975 71.5 260.065 74.184 262.991 74.184C265.917 74.184 268.007 71.5 268.007 67.298C268.007 63.096 265.917 60.412 262.991 60.412ZM262.991 62.04C264.905 62.04 266.269 64.108 266.269 67.298C266.269 70.51 264.905 72.578 262.991 72.578C261.055 72.578 259.691 70.51 259.691 67.298C259.691 64.108 261.055 62.04 262.991 62.04ZM288.399 69.19H283.493V62.326H288.399V69.19ZM281.689 69.19H278.675V70.664H293.217V69.19H290.203V62.326H293.261V60.874H278.631V62.326H281.689V69.19ZM277.047 74.602V76.098H294.933V74.602H277.047ZM299.419 67.804H306.525V60.72H297.593V62.194H304.743V66.33H297.659V73.876H299.221C302.983 73.876 305.623 73.722 308.703 73.172L308.505 71.676C305.557 72.248 303.005 72.38 299.419 72.38V67.804ZM315.281 66.726H312.047V58.872H310.243V78.65H312.047V68.244H315.281V66.726ZM332.835 58.916H331.031V73.326H332.835V58.916ZM318.865 65.12C318.865 63.206 320.317 61.842 322.231 61.842C324.189 61.842 325.641 63.206 325.641 65.12C325.641 67.078 324.189 68.442 322.231 68.442C320.317 68.442 318.865 67.078 318.865 65.12ZM327.401 65.12C327.401 62.282 325.179 60.28 322.231 60.28C319.305 60.28 317.105 62.282 317.105 65.12C317.105 67.98 319.305 70.004 322.231 70.004C325.179 70.004 327.401 67.98 327.401 65.12ZM321.945 76.714V71.852H320.141V78.188H333.429V76.714H321.945ZM354.848 62.832C354.848 65.208 354.848 67.98 354.1 71.764L355.904 71.962C356.652 67.98 356.652 65.274 356.652 62.832V60.874H342.814V62.348H354.848V62.832ZM349.678 74.382V67.32H347.874V74.382H340.944V75.856H358.786V74.382H349.678ZM377.484 65.384C373.964 64.9 370.554 62.7 370.554 60.082V59.202H368.706V60.082C368.706 62.7 365.296 64.9 361.798 65.384L362.48 66.836C365.494 66.33 368.398 64.768 369.63 62.502C370.884 64.768 373.788 66.33 376.802 66.836L377.484 65.384ZM362.7 73.656H374.558V78.65H376.362V72.182H362.7V73.656ZM370.532 68.794V65.78H368.728V68.794H360.72V70.268H378.628V68.794H370.532ZM401.168 58.916H399.364V69.124H401.168V58.916ZM396.944 67.144C394.018 66.176 391.95 63.712 391.95 60.984V59.488H390.146V60.984C390.146 63.844 388.1 66.484 385.13 67.518L386.054 68.926C388.386 68.09 390.212 66.286 391.07 64.02C391.972 66.11 393.776 67.76 396.042 68.552L396.944 67.144ZM390.234 76.978V74.866H401.19V70.114H388.408V71.522H399.408V73.502H388.452V78.408H401.85V76.978H390.234ZM417.204 65.736H419.712V71.39H421.45V58.894H419.712V64.262H417.204V59.268H415.488V70.664H417.204V65.736ZM414.696 61.248H410.604V59.048H408.822V61.248H404.686V62.678H414.718L414.696 61.248ZM407.128 67.078C407.128 65.868 408.162 65.054 409.724 65.054C411.264 65.054 412.32 65.868 412.32 67.078C412.32 68.31 411.264 69.124 409.724 69.124C408.162 69.124 407.128 68.31 407.128 67.078ZM413.926 67.078C413.926 65.054 412.21 63.712 409.724 63.712C407.238 63.712 405.5 65.054 405.5 67.078C405.5 69.146 407.238 70.466 409.724 70.466C412.21 70.466 413.926 69.146 413.926 67.078ZM414.96 77.22C411.946 77.22 410.142 76.472 410.142 75.174C410.142 73.854 411.946 73.106 414.96 73.106C417.952 73.106 419.756 73.854 419.756 75.174C419.756 76.472 417.952 77.22 414.96 77.22ZM414.96 71.72C410.846 71.72 408.36 72.952 408.36 75.174C408.36 77.374 410.846 78.606 414.96 78.606C419.074 78.606 421.56 77.374 421.56 75.174C421.56 72.952 419.074 71.72 414.96 71.72Z" fill="#333333"/>
<g clip-path="url(#clip0_377_885)">
<path d="M375.475 139.723C352.654 115.297 320.272 100.014 284.365 100.014C248.459 100.014 218.624 114.111 196.013 136.897" stroke="#304984" stroke-width="8" stroke-linecap="round" stroke-linejoin="round"/>
<path d="M379.244 143.666L378.511 133.896" stroke="#304984" stroke-width="8" stroke-linecap="round"/>
<path d="M379.139 143.77L369.438 142.688" stroke="#304984" stroke-width="8" stroke-linecap="round"/>
</g>
<g clip-path="url(#clip1_377_885)">
<path d="M613.64 329.826L612.908 339.597" stroke="#40A4F3" stroke-width="6" stroke-linecap="round"/>
<path d="M613.536 329.722L603.835 330.804" stroke="#40A4F3" stroke-width="6" stroke-linecap="round"/>
<path d="M609.872 333.769C587.051 358.195 554.669 373.479 518.762 373.479C482.856 373.479 453.021 359.381 430.41 336.595" stroke="#40A4F3" stroke-width="8" stroke-linecap="round" stroke-linejoin="round"/>
</g>
<path d="M232.631 214.256H235.101V224.812C234.269 224.838 233.437 224.864 232.631 224.89V214.256ZM238.403 214.256H240.457V211.5H227.249V214.256H229.303V224.968C228.367 224.968 227.457 224.968 226.625 224.968L226.989 227.776C231.071 227.776 236.505 227.672 241.367 226.814L241.159 224.318C240.275 224.448 239.339 224.5 238.403 224.578V214.256ZM249.167 218.338H245.683V209.316H242.251V233.262H245.683V221.172H249.167V218.338ZM267.261 209.264V233.288H270.693V209.264H267.261ZM257.823 210.954C254.209 210.954 251.531 214.23 251.531 219.482C251.531 224.76 254.209 228.062 257.823 228.062C261.437 228.062 264.115 224.76 264.115 219.482C264.115 214.23 261.437 210.954 257.823 210.954ZM257.823 214.048C259.591 214.048 260.813 215.946 260.813 219.482C260.813 223.044 259.591 224.942 257.823 224.942C256.055 224.942 254.833 223.044 254.833 219.482C254.833 215.946 256.055 214.048 257.823 214.048ZM288.007 221.276H283.119V214.1H288.007V221.276ZM279.713 221.276H276.593V224.006H294.585V221.276H291.413V214.1H294.663V211.37H276.463V214.1H279.713V221.276ZM274.773 227.672V230.454H296.457V227.672H274.773ZM303.059 220.574H310.651V211.318H299.653V214.048H307.271V217.87H299.679V227.75H301.707C305.867 227.75 309.169 227.594 312.757 226.944L312.445 224.162C309.325 224.708 306.491 224.89 303.059 224.916V220.574ZM320.921 218.312H317.489V209.264H314.057V233.288H317.489V221.146H320.921V218.312ZM342.499 209.316H339.041V226.502H342.499V209.316ZM326.301 216.908C326.301 214.932 327.705 213.788 329.473 213.788C331.267 213.788 332.619 214.932 332.619 216.908C332.619 218.832 331.267 220.002 329.473 220.002C327.705 220.002 326.301 218.832 326.301 216.908ZM335.973 216.908C335.973 213.372 333.139 210.824 329.473 210.824C325.807 210.824 322.947 213.372 322.947 216.908C322.947 220.392 325.807 222.966 329.473 222.966C333.139 222.966 335.973 220.392 335.973 216.908ZM329.993 230.09V224.812H326.561V232.82H343.097V230.09H329.993ZM251.447 249.22H242.113V247.062H251.447V249.22ZM254.853 242.044H251.447V244.488H242.113V242.044H238.707V251.898H254.853V242.044ZM241.879 258.242H238.447V264.82H255.243V262.09H241.879V258.242ZM235.925 253.562V256.266H245.363V260.036H248.795V256.266H257.635V253.562H235.925ZM274.169 252.132C270.399 250.884 268.813 247.972 268.813 244.982V242.512H265.329V244.774C265.329 248.024 263.691 251.196 259.713 252.496L261.507 255.2C264.211 254.264 266.057 252.418 267.097 250.104C268.111 252.21 269.827 253.9 272.375 254.784L274.169 252.132ZM263.561 259.334H276.457V265.262H279.889V256.63H263.561V259.334ZM276.457 241.29V245.762H272.089V248.544H276.457V255.538H279.889V241.29H276.457ZM309.541 241.316H306.109V253.38H309.541V241.316ZM304.367 250.416C300.493 249.272 298.777 246.49 298.777 243.656V241.862H295.293V243.656C295.293 246.568 293.551 249.584 289.573 250.806L291.237 253.484C294.045 252.626 295.995 250.806 297.087 248.544C298.153 250.624 299.999 252.288 302.729 253.094L304.367 250.416ZM297.035 262.402V260.92H309.567V254.446H293.603V257.072H306.161V258.476H293.629V265.054H310.165V262.402H297.035ZM328.987 249.974H330.755V256.266H334.005V241.29H330.755V247.192H328.987V241.732H325.789V255.512H328.987V249.974ZM325.113 243.734H320.979V241.55H317.599V243.734H313.465V246.386H325.113V243.734ZM317.209 251.326C317.209 250.208 318.067 249.61 319.341 249.61C320.615 249.61 321.447 250.208 321.447 251.326C321.447 252.444 320.615 253.068 319.341 253.068C318.067 253.068 317.209 252.444 317.209 251.326ZM324.489 251.326C324.489 248.856 322.357 247.166 319.341 247.166C316.299 247.166 314.167 248.856 314.167 251.326C314.167 253.796 316.299 255.512 319.341 255.512C322.357 255.512 324.489 253.796 324.489 251.326ZM325.893 262.688C322.695 262.688 321.083 262.142 321.083 260.894C321.083 259.646 322.695 259.1 325.893 259.1C329.091 259.1 330.703 259.646 330.703 260.894C330.703 262.142 329.091 262.688 325.893 262.688ZM325.893 256.526C320.745 256.526 317.651 258.112 317.651 260.894C317.651 263.676 320.745 265.236 325.893 265.236C331.041 265.236 334.135 263.676 334.135 260.894C334.135 258.112 331.041 256.526 325.893 256.526Z" fill="white"/>
<path d="M489.695 214.724H495.441V211.994H486.315V227.906H487.953C491.463 227.906 493.829 227.802 496.507 227.282L496.221 224.474C494.115 224.89 492.191 225.046 489.695 225.098V214.724ZM497.963 218.026H493.803V220.808H497.963V232.17H501.161V209.732H497.963V218.026ZM502.929 209.264V233.21H506.179V209.264H502.929ZM525.937 209.264V233.288H529.369V209.264H525.937ZM516.499 210.954C512.885 210.954 510.207 214.23 510.207 219.482C510.207 224.76 512.885 228.062 516.499 228.062C520.113 228.062 522.791 224.76 522.791 219.482C522.791 214.23 520.113 210.954 516.499 210.954ZM516.499 214.048C518.267 214.048 519.489 215.946 519.489 219.482C519.489 223.044 518.267 224.942 516.499 224.942C514.731 224.942 513.509 223.044 513.509 219.482C513.509 215.946 514.731 214.048 516.499 214.048ZM537.947 220.626H544.811V217.948H537.947V214.048H545.617V211.292H534.541V227.854H536.491C540.521 227.854 543.589 227.776 547.047 227.23L546.735 224.474C543.797 224.942 541.171 225.072 537.947 225.098V220.626ZM550.115 209.264V217.714H546.007V220.47H550.115V233.288H553.547V209.264H550.115ZM486.205 249.22H476.871V247.062H486.205V249.22ZM489.611 242.044H486.205V244.488H476.871V242.044H473.465V251.898H489.611V242.044ZM476.637 258.242H473.205V264.82H490.001V262.09H476.637V258.242ZM470.683 253.562V256.266H480.121V260.036H483.553V256.266H492.393V253.562H470.683ZM508.927 252.132C505.157 250.884 503.571 247.972 503.571 244.982V242.512H500.087V244.774C500.087 248.024 498.449 251.196 494.471 252.496L496.265 255.2C498.969 254.264 500.815 252.418 501.855 250.104C502.869 252.21 504.585 253.9 507.133 254.784L508.927 252.132ZM498.319 259.334H511.215V265.262H514.647V256.63H498.319V259.334ZM511.215 241.29V245.762H506.847V248.544H511.215V255.538H514.647V241.29H511.215ZM533.379 247.92H538.137V245.19H533.379V241.862H529.947V245.19H525.111V247.92H529.947V248.752C529.947 252.34 528.153 256.396 524.305 258.19L526.125 260.816C528.829 259.594 530.701 257.176 531.715 254.316C532.755 257.02 534.627 259.256 537.253 260.426L539.073 257.8C535.225 256.084 533.379 252.184 533.379 248.752V247.92ZM541.101 241.29V250.442H536.863V253.224H541.101V265.288H544.533V241.29H541.101ZM553.137 252.574H560.911V243.318H549.601V246.048H557.401V249.87H549.627V259.724H551.785C556.127 259.724 559.637 259.568 563.537 258.892L563.173 256.11C559.793 256.682 556.777 256.864 553.137 256.89V252.574ZM564.837 241.264V265.288H568.269V241.264H564.837Z" fill="white"/>
<path d="M398 231H393V241H398V231Z" fill="white"/>
<path d="M388.871 231.076C386.178 231.093 384 233.293 384 236.005C384 238.716 386.178 240.911 388.871 240.933V231.076Z" fill="white"/>
<path d="M419.345 234.49L413.165 228.077L408.849 223.593C407.645 222.344 405.534 223.199 405.534 224.943V230.26C405.534 230.71 405.171 231.075 404.723 231.075H401.991V240.927H404.723C405.171 240.927 405.534 241.292 405.534 241.743V247.054C405.534 248.798 407.645 249.653 408.849 248.404L413.165 243.92L419.345 237.506C420.157 236.668 420.157 235.334 419.345 234.49V234.49Z" fill="white"/>
<defs>
<linearGradient id="paint0_linear_377_885" x1="174.323" y1="236.011" x2="629.613" y2="236.011" gradientUnits="userSpaceOnUse">
<stop stop-color="#365AB8"/>
<stop offset="1" stop-color="#31AEF4"/>
</linearGradient>
<clipPath id="clip0_377_885">
<rect width="190" height="50.4922" fill="white" transform="translate(192 96)"/>
</clipPath>
<clipPath id="clip1_377_885">
<rect width="190" height="50.4922" fill="white" transform="matrix(1 0 0 -1 426.397 377.492)"/>
</clipPath>
</defs>
</svg>
