<svg width="804" height="472" viewBox="0 0 804 472" fill="none" xmlns="http://www.w3.org/2000/svg">
<path d="M298.589 194.296C295.17 198.741 290.572 201.515 285.442 201.515C281.604 201.971 275.715 198.741 272.295 194.296C255.462 154.284 215.526 126.128 168.941 126.128C107.119 126.128 57 175.639 57 236.739C57 297.839 107.119 347.312 168.941 347.312C209.181 349.668 255.462 319.194 272.333 279.183C275.753 274.737 280.35 271.963 285.48 271.963C289.318 271.507 295.208 274.737 298.627 279.183C315.498 319.194 355.396 347.312 402.019 347.312C442.259 349.668 488.54 319.194 505.373 279.183C508.792 274.737 513.39 271.963 518.52 271.963C522.358 271.507 528.247 274.737 531.667 279.183C548.5 319.194 588.436 347.312 635.059 347.312C696.881 347.312 747 297.801 747 236.739C747 175.677 696.805 126.128 634.983 126.128C594.743 123.772 548.462 154.246 531.591 194.258C528.171 198.703 523.574 201.477 518.444 201.477C514.606 201.933 508.717 198.703 505.297 194.258C488.502 154.284 448.566 126.128 401.981 126.128C400.499 126.052 399.017 126.014 397.535 126.014C358.398 126.014 314.814 155.728 298.589 194.296Z" fill="url(#paint0_linear_377_841)"/>
<path d="M493.293 33.578C493.293 35.118 493.293 36.57 492.765 38.594L494.525 38.792C495.075 36.768 495.075 35.162 495.075 33.578V31.906H481.633V33.358H493.293V33.578ZM488.343 49.198C485.263 49.198 483.283 48.362 483.283 46.998C483.283 45.59 485.263 44.754 488.343 44.754C491.445 44.754 493.425 45.59 493.425 46.998C493.425 48.362 491.445 49.198 488.343 49.198ZM488.343 43.368C484.141 43.368 481.479 44.71 481.479 46.998C481.479 49.242 484.141 50.606 488.343 50.606C492.545 50.606 495.229 49.242 495.229 46.998C495.229 44.71 492.545 43.368 488.343 43.368ZM488.629 40.09V36.306H486.825V40.09H479.543V41.542H497.297V40.09H488.629ZM500.045 33.446V34.92H505.963C505.699 39.012 503.829 42.576 499.297 45.106L500.353 46.404C505.963 43.236 507.745 38.528 507.745 33.446H500.045ZM514.301 30.894V38.836H511.617V31.422H509.923V49.638H511.617V40.31H514.301V50.628H516.039V30.894H514.301ZM535.244 30.894H533.44V45.656H535.244V30.894ZM531.856 41.146C530.162 41.344 528.38 41.454 526.554 41.542V38.814H530.47V37.362H522.748V33.644H530.338V32.17H520.944V38.814H524.75V41.608C522.814 41.674 520.9 41.696 519.184 41.696L519.448 43.17C523.122 43.17 527.808 43.038 531.988 42.444L531.856 41.146ZM524.288 48.714V44.688H522.484V50.188H535.904V48.714H524.288ZM559.896 40.024H554.594V34.194H559.654V32.742H552.79V41.498H559.896V40.024ZM551.778 39.474C549.996 39.87 548.368 39.98 546.718 40.002V34.238H551.58V32.764H544.936V41.498H546.014C548.016 41.498 549.798 41.432 551.954 40.948L551.778 39.474ZM553.186 46.624V42.466H551.382V46.624H543.374V48.098H561.282V46.624H553.186ZM578.99 36.834H567.374V31.62H565.57V38.308H578.99V36.834ZM567.242 44.38H565.438V50.144H579.1V48.67H567.242V44.38ZM563.15 40.948V42.4H581.036V40.948H563.15ZM599.506 40.53C596.602 39.562 594.556 37.164 594.556 34.524V33.732H599.022V32.28H588.198V33.732H592.708V34.524C592.708 37.296 590.706 39.87 587.714 40.926L588.66 42.334C590.992 41.476 592.818 39.716 593.654 37.472C594.556 39.54 596.36 41.168 598.626 41.96L599.506 40.53ZM590.442 45.326H601.838V50.628H603.642V43.874H590.442V45.326ZM601.838 30.894V42.84H603.642V30.894H601.838ZM618.887 40.068C616.027 39.056 614.091 36.592 614.091 34.062V33.556H618.425V32.082H607.887V33.556H612.287V34.062C612.287 36.878 610.241 39.496 607.315 40.53L608.261 41.96C610.571 41.08 612.375 39.298 613.211 37.032C614.091 39.056 615.785 40.684 617.985 41.498L618.887 40.068ZM621.703 48.89H612.639V46.404H621.703V48.89ZM621.703 44.996H612.639V42.554H610.857V50.364H623.485V42.554H621.703V44.996ZM621.681 30.916V35.69H617.787V37.164H621.681V41.608H623.485V30.916H621.681ZM632.275 33.446V34.92H638.193C637.929 39.012 636.059 42.576 631.527 45.106L632.583 46.404C638.193 43.236 639.975 38.528 639.975 33.446H632.275ZM646.531 30.894V38.836H643.847V31.422H642.153V49.638H643.847V40.31H646.531V50.628H648.269V30.894H646.531ZM659.509 38.88H653.921V35.932H659.509V38.88ZM661.269 31.708H659.509V34.546H653.921V31.708H652.139V40.332H661.269V31.708ZM655.923 46.822H666.637V42.026H654.097V43.456H664.855V45.48H654.163V50.408H667.363V48.978H655.923V46.822ZM666.637 35.14V30.916H664.833V41.102H666.637V36.636H669.563V35.14H666.637ZM682.827 33.314H677.899V30.894H676.095V33.314H671.189V34.766H682.827V33.314ZM674.005 39.518C674.005 38.154 675.215 37.274 676.997 37.274C678.779 37.274 680.011 38.154 680.011 39.518C680.011 40.904 678.779 41.784 676.997 41.784C675.215 41.784 674.005 40.904 674.005 39.518ZM681.727 39.518C681.727 37.318 679.791 35.866 676.997 35.866C674.203 35.866 672.289 37.318 672.289 39.518C672.289 41.74 674.203 43.192 676.997 43.192C679.791 43.192 681.727 41.74 681.727 39.518ZM675.963 44.534H674.159V50.188H687.315V48.714H675.963V44.534ZM686.435 37.406V30.894H684.631V45.7H686.435V38.924H689.339V37.406H686.435ZM712.408 40.816C708.954 40.156 705.214 37.164 705.214 33.798V32.28H703.322V33.798C703.322 37.164 699.604 40.134 696.15 40.816L696.964 42.312C699.934 41.608 703.014 39.496 704.268 36.614C705.522 39.518 708.602 41.63 711.594 42.312L712.408 40.816ZM695.402 46.492V47.988H713.288V46.492H695.402ZM716.828 38.902L717.092 40.398L728.994 39.738C728.884 41.256 728.664 42.884 728.224 44.776L730.006 44.952C730.864 40.904 730.864 38.242 730.864 35.316V32.896H717.334V34.37H729.104V35.316C729.104 36.328 729.104 37.34 729.06 38.374L716.828 38.902ZM715.222 46.404V47.878H733.064V46.404H715.222ZM746.988 39.232C743.864 39.738 741.29 39.848 737.792 39.848V37.186H744.942V31.862H735.966V33.314H743.16V35.8H736.032V41.322H737.616C741.268 41.322 743.952 41.212 747.186 40.684L746.988 39.232ZM749.408 48.89H740.19V46.47H749.408V48.89ZM749.408 45.062H740.19V42.73H738.408V50.364H751.19V42.73H749.408V45.062ZM749.386 30.916V41.74H751.19V30.916H749.386ZM770.636 41.542H758.91V38.418H769.998V36.988H758.91V34.062H770.438V32.61H757.084V42.994H770.636V41.542ZM754.774 46.602V48.076H772.682V46.602H754.774ZM788.411 34.348H776.883V38.572H790.545V37.274H778.665V35.58H790.193V31.466H776.839V32.742H788.411V34.348ZM778.555 47.24H790.259V43.038H776.729V44.336H788.477V45.986H776.773V50.364H790.875V49.066H778.555V47.24ZM774.595 40.068V41.432H792.481V40.068H774.595ZM513.641 58.894V78.672H515.445V58.894H513.641ZM505.039 60.412C502.113 60.412 500.023 63.096 500.023 67.298C500.023 71.5 502.113 74.184 505.039 74.184C507.965 74.184 510.055 71.5 510.055 67.298C510.055 63.096 507.965 60.412 505.039 60.412ZM505.039 62.04C506.953 62.04 508.317 64.108 508.317 67.298C508.317 70.51 506.953 72.578 505.039 72.578C503.103 72.578 501.739 70.51 501.739 67.298C501.739 64.108 503.103 62.04 505.039 62.04ZM528.006 77.22C524.904 77.22 523.078 76.45 523.078 75.108C523.078 73.766 524.904 72.996 528.006 72.996C531.086 72.996 532.934 73.766 532.934 75.108C532.934 76.45 531.086 77.22 528.006 77.22ZM528.006 71.588C523.782 71.588 521.252 72.842 521.252 75.108C521.252 77.374 523.782 78.606 528.006 78.606C532.252 78.606 534.76 77.374 534.76 75.108C534.76 72.842 532.252 71.588 528.006 71.588ZM525.278 66.352C526.092 66.484 527.016 66.572 528.006 66.572C529.018 66.572 529.942 66.484 530.756 66.352V68.662H525.278V66.352ZM522.924 62.92C522.924 61.49 524.86 60.654 528.006 60.654C531.152 60.654 533.088 61.49 533.088 62.92C533.088 64.328 531.152 65.186 528.006 65.186C524.86 65.186 522.924 64.328 522.924 62.92ZM532.538 68.662V65.868C534.056 65.252 534.936 64.24 534.936 62.92C534.936 60.61 532.296 59.246 528.006 59.246C523.738 59.246 521.076 60.61 521.076 62.92C521.076 64.262 521.934 65.252 523.496 65.89V68.662H519.074V70.114H536.938V68.662H532.538ZM543.778 72.556C542.238 72.556 541.16 71.302 541.16 69.542C541.16 67.826 542.238 66.572 543.778 66.572C545.296 66.572 546.396 67.826 546.396 69.542C546.396 71.302 545.296 72.556 543.778 72.556ZM543.778 65.054C541.336 65.054 539.554 66.902 539.554 69.542C539.554 72.226 541.336 74.052 543.778 74.052C546.22 74.052 548.002 72.226 548.002 69.542C548.002 66.902 546.22 65.054 543.778 65.054ZM544.658 59.466H542.876V62.26H538.872V63.734H548.662V62.26H544.658V59.466ZM553.876 58.872V67.21H551.346V59.334H549.652V77.66H551.346V68.684H553.876V78.606H555.614V58.872H553.876ZM576.9 65.978H567.308V63.426H576.9V65.978ZM578.682 59.51H576.9V62.04H567.308V59.51H565.526V67.408H578.682V59.51ZM567.198 72.82H565.416V78.188H579.056V76.714H567.198V72.82ZM563.128 69.322V70.774H571.334V74.602H573.138V70.774H581.058V69.322H563.128ZM594.498 68.288C591.638 67.276 589.68 64.746 589.68 62.04V59.884H587.876V61.974C587.876 64.966 585.984 67.628 582.992 68.706L583.938 70.158C586.248 69.234 587.986 67.474 588.822 65.164C589.68 67.232 591.374 68.882 593.53 69.718L594.498 68.288ZM586.006 73.106H597.402V78.65H599.228V71.654H586.006V73.106ZM597.402 58.916V63.03H593.112V64.504H597.402V70.554H599.228V58.916H597.402ZM615.865 62.48H619.099V72.072C618.021 72.116 616.921 72.16 615.865 72.182V62.48ZM620.859 62.48H622.971V61.028H611.993V62.48H614.105V72.204C613.181 72.226 612.301 72.226 611.487 72.226L611.707 73.744C615.183 73.744 619.869 73.678 624.005 73.018L623.873 71.676C622.905 71.808 621.893 71.896 620.859 71.962V62.48ZM630.165 66.792H626.909V58.916H625.105V78.628H626.909V68.288H630.165V66.792ZM645.871 58.894V78.672H647.675V58.894H645.871ZM637.269 60.412C634.343 60.412 632.253 63.096 632.253 67.298C632.253 71.5 634.343 74.184 637.269 74.184C640.195 74.184 642.285 71.5 642.285 67.298C642.285 63.096 640.195 60.412 637.269 60.412ZM637.269 62.04C639.183 62.04 640.547 64.108 640.547 67.298C640.547 70.51 639.183 72.578 637.269 72.578C635.333 72.578 633.969 70.51 633.969 67.298C633.969 64.108 635.333 62.04 637.269 62.04ZM662.677 69.19H657.771V62.326H662.677V69.19ZM655.967 69.19H652.953V70.664H667.495V69.19H664.481V62.326H667.539V60.874H652.909V62.326H655.967V69.19ZM651.325 74.602V76.098H669.211V74.602H651.325ZM673.697 67.804H680.803V60.72H671.871V62.194H679.021V66.33H671.937V73.876H673.499C677.261 73.876 679.901 73.722 682.981 73.172L682.783 71.676C679.835 72.248 677.283 72.38 673.697 72.38V67.804ZM689.559 66.726H686.325V58.872H684.521V78.65H686.325V68.244H689.559V66.726ZM707.114 58.916H705.31V73.326H707.114V58.916ZM693.144 65.12C693.144 63.206 694.596 61.842 696.51 61.842C698.468 61.842 699.92 63.206 699.92 65.12C699.92 67.078 698.468 68.442 696.51 68.442C694.596 68.442 693.144 67.078 693.144 65.12ZM701.68 65.12C701.68 62.282 699.458 60.28 696.51 60.28C693.584 60.28 691.384 62.282 691.384 65.12C691.384 67.98 693.584 70.004 696.51 70.004C699.458 70.004 701.68 67.98 701.68 65.12ZM696.224 76.714V71.852H694.42V78.188H707.708V76.714H696.224ZM718.258 62.282H725.804V60.764H716.476V73.766H718.06C722.042 73.766 724.616 73.634 727.652 73.084L727.454 71.566C724.55 72.116 722.064 72.226 718.258 72.226V62.282ZM729.544 58.894V78.672H731.348V58.894H729.544ZM741.642 62.414H746.02V60.918H735.35V62.414H739.86V64.922C739.86 68.266 737.484 72.006 734.668 73.414L735.724 74.844C737.946 73.7 739.86 71.192 740.762 68.31C741.664 70.95 743.512 73.26 745.712 74.36L746.746 72.908C743.886 71.566 741.642 68.068 741.642 64.922V62.414ZM753.434 66.858H750.178V58.916H748.374V78.628H750.178V68.376H753.434V66.858ZM770.988 58.916H769.184V73.326H770.988V58.916ZM757.018 65.12C757.018 63.206 758.47 61.842 760.384 61.842C762.342 61.842 763.794 63.206 763.794 65.12C763.794 67.078 762.342 68.442 760.384 68.442C758.47 68.442 757.018 67.078 757.018 65.12ZM765.554 65.12C765.554 62.282 763.332 60.28 760.384 60.28C757.458 60.28 755.258 62.282 755.258 65.12C755.258 67.98 757.458 70.004 760.384 70.004C763.332 70.004 765.554 67.98 765.554 65.12ZM760.098 76.714V71.852H758.294V78.188H771.582V76.714H760.098Z" fill="#333333"/>
<path d="M53.0816 34.766H58.6476V33.292H51.2996V45.766H52.5976C55.5456 45.766 57.5476 45.678 59.9016 45.172L59.7476 43.676C57.5916 44.138 55.7216 44.248 53.0816 44.27V34.766ZM65.6216 30.894V38.814H62.8276V31.334H61.1336V49.638H62.8276V40.288H65.6216V50.628H67.3596V30.894H65.6216ZM79.3039 49.22C76.2019 49.22 74.3759 48.45 74.3759 47.108C74.3759 45.766 76.2019 44.996 79.3039 44.996C82.3839 44.996 84.2319 45.766 84.2319 47.108C84.2319 48.45 82.3839 49.22 79.3039 49.22ZM79.3039 43.588C75.0799 43.588 72.5499 44.842 72.5499 47.108C72.5499 49.374 75.0799 50.606 79.3039 50.606C83.5499 50.606 86.0579 49.374 86.0579 47.108C86.0579 44.842 83.5499 43.588 79.3039 43.588ZM76.5759 38.352C77.3899 38.484 78.3139 38.572 79.3039 38.572C80.3159 38.572 81.2399 38.484 82.0539 38.352V40.662H76.5759V38.352ZM74.2219 34.92C74.2219 33.49 76.1579 32.654 79.3039 32.654C82.4499 32.654 84.3859 33.49 84.3859 34.92C84.3859 36.328 82.4499 37.186 79.3039 37.186C76.1579 37.186 74.2219 36.328 74.2219 34.92ZM83.8359 40.662V37.868C85.3539 37.252 86.2339 36.24 86.2339 34.92C86.2339 32.61 83.5939 31.246 79.3039 31.246C75.0359 31.246 72.3739 32.61 72.3739 34.92C72.3739 36.262 73.2319 37.252 74.7939 37.89V40.662H70.3719V42.114H88.2359V40.662H83.8359ZM101.808 39.562C98.8162 40.09 96.2862 40.2 92.8322 40.2V37.472H99.8942V32.126H91.0062V33.6H98.1122V36.086H91.0502V41.674H92.6122C96.2642 41.674 98.8602 41.564 101.984 41.036L101.808 39.562ZM99.2122 49.22C96.2642 49.22 94.4822 48.406 94.4822 47.02C94.4822 45.634 96.2642 44.82 99.2122 44.82C102.16 44.82 103.92 45.634 103.92 47.02C103.92 48.406 102.16 49.22 99.2122 49.22ZM99.2122 43.412C95.1862 43.412 92.7222 44.732 92.7222 47.02C92.7222 49.308 95.1862 50.606 99.2122 50.606C103.216 50.606 105.702 49.308 105.702 47.02C105.702 44.732 103.216 43.412 99.2122 43.412ZM108.43 35.47V33.974H105.504V30.916H103.7V42.84H105.504V39.628H108.43V38.132H105.504V35.47H108.43ZM116.978 34.766H122.61V33.314H115.196V45.876H116.472C119.618 45.876 121.532 45.788 123.776 45.304L123.6 43.83C121.532 44.27 119.772 44.358 116.978 44.38V34.766ZM125.536 38.418H121.29V39.914H125.536V49.638H127.23V31.378H125.536V38.418ZM129.496 30.894V50.628H131.212V30.894H129.496ZM148.613 30.894V50.672H150.417V30.894H148.613ZM140.011 32.412C137.085 32.412 134.995 35.096 134.995 39.298C134.995 43.5 137.085 46.184 140.011 46.184C142.937 46.184 145.027 43.5 145.027 39.298C145.027 35.096 142.937 32.412 140.011 32.412ZM140.011 34.04C141.925 34.04 143.289 36.108 143.289 39.298C143.289 42.51 141.925 44.578 140.011 44.578C138.075 44.578 136.711 42.51 136.711 39.298C136.711 36.108 138.075 34.04 140.011 34.04ZM156.773 39.694H163.241V38.242H156.773V34.172H164.099V32.676H154.969V45.898H156.487C160.249 45.898 162.647 45.788 165.507 45.282L165.309 43.808C162.625 44.292 160.337 44.424 156.773 44.424V39.694ZM168.521 30.872V38.33H164.451V39.826H168.521V50.65H170.325V30.872H168.521ZM192.271 34.832C192.271 37.208 192.271 39.98 191.523 43.764L193.327 43.962C194.075 39.98 194.075 37.274 194.075 34.832V32.874H180.237V34.348H192.271V34.832ZM187.101 46.382V39.32H185.297V46.382H178.367V47.856H196.209V46.382H187.101ZM214.907 37.384C211.387 36.9 207.977 34.7 207.977 32.082V31.202H206.129V32.082C206.129 34.7 202.719 36.9 199.221 37.384L199.903 38.836C202.917 38.33 205.821 36.768 207.053 34.502C208.307 36.768 211.211 38.33 214.225 38.836L214.907 37.384ZM200.123 45.656H211.981V50.65H213.785V44.182H200.123V45.656ZM207.955 40.794V37.78H206.151V40.794H198.143V42.268H216.051V40.794H207.955ZM232.894 36.35V37.824H236.854V45.37H238.68V30.916H236.854V36.35H232.894ZM234.06 40.992C231.2 39.98 229.264 37.516 229.264 34.942V33.974H233.598V32.5H223.06V33.974H227.46V34.964C227.46 37.758 225.414 40.376 222.488 41.432L223.434 42.84C225.744 42.004 227.548 40.178 228.406 37.934C229.264 39.958 230.958 41.608 233.158 42.4L234.06 40.992ZM227.878 48.714V44.094H226.052V50.188H239.23V48.714H227.878ZM258.984 37.384C255.464 36.9 252.054 34.7 252.054 32.082V31.202H250.206V32.082C250.206 34.7 246.818 36.9 243.298 37.384L243.98 38.814C246.994 38.308 249.898 36.746 251.13 34.502C252.384 36.746 255.288 38.308 258.302 38.814L258.984 37.384ZM251.13 49.22C248.006 49.22 246.202 48.494 246.202 47.196C246.202 45.898 248.006 45.172 251.13 45.172C254.254 45.172 256.058 45.898 256.058 47.196C256.058 48.494 254.254 49.22 251.13 49.22ZM251.13 43.786C246.906 43.786 244.376 44.996 244.376 47.196C244.376 49.396 246.906 50.606 251.13 50.606C255.354 50.606 257.884 49.396 257.884 47.196C257.884 44.996 255.354 43.786 251.13 43.786ZM252.032 40.684V37.78H250.228V40.684H242.22V42.136H260.062V40.684H252.032ZM282.668 30.894H280.864V42.224H282.668V30.894ZM274.99 38.792H269.292V33.6H274.99V38.792ZM276.75 32.17H267.532V40.244H276.75V32.17ZM283.13 44.952V43.566H277.344V41.652H275.518V43.566H269.732V44.952H275.496C275.474 46.91 272.328 48.78 268.962 49.176L269.556 50.562C272.526 50.144 275.254 48.824 276.442 46.954C277.608 48.78 280.248 50.144 283.218 50.562L283.834 49.176C280.446 48.758 277.388 46.844 277.366 44.952H283.13ZM114.933 67.32C115.439 64.724 115.439 62.766 115.439 61.468V60.434H105.627V61.908H113.679C113.679 63.162 113.613 64.856 113.151 67.122L114.933 67.32ZM116.803 68.508C114.801 68.772 112.557 68.948 110.401 69.036V64.834H108.619V69.102C107.123 69.124 105.693 69.146 104.439 69.146L104.615 70.62C108.113 70.62 112.843 70.51 116.935 69.828L116.803 68.508ZM109.257 72.402H107.453V78.188H120.565V76.714H109.257V72.402ZM119.927 65.318V58.894H118.123V73.766H119.927V66.814H122.743V65.318H119.927ZM127.318 67.76H134.6V60.72H125.448V62.194H132.774V66.308H125.514V73.876H127.142C130.53 73.876 133.522 73.744 137.086 73.15L136.91 71.676C133.456 72.226 130.552 72.38 127.318 72.38V67.76ZM138.758 58.872V78.65H140.562V58.872H138.758ZM149.814 61.028V62.48H157.228C156.854 67.166 154.214 70.95 148.912 73.48L149.88 74.954C156.436 71.742 159.054 66.726 159.054 61.028H149.814ZM163.036 58.894V78.628H164.84V58.894H163.036ZM184.264 64.394H172.67V59.312H170.866V65.846H184.264V64.394ZM177.356 77.154C174.254 77.154 172.428 76.34 172.428 74.976C172.428 73.568 174.254 72.776 177.356 72.776C180.458 72.776 182.284 73.568 182.284 74.976C182.284 76.34 180.436 77.154 177.356 77.154ZM177.356 71.368C173.154 71.368 170.602 72.666 170.602 74.976C170.602 77.264 173.154 78.562 177.356 78.562C181.558 78.562 184.11 77.264 184.11 74.976C184.11 72.666 181.558 71.368 177.356 71.368ZM168.468 68.134V69.608H186.31V68.134H168.468ZM198.51 62.678H202.03V61.204H193.032V62.678H196.772V64.46C196.772 68.09 195.232 71.676 192.482 73.326L193.582 74.668C195.54 73.436 196.97 71.126 197.652 68.42C198.334 70.928 199.698 73.04 201.612 74.184L202.712 72.864C199.984 71.324 198.51 67.892 198.51 64.46V62.678ZM203.79 65.978H200.534V67.452H203.79V77.594H205.506V59.334H203.79V65.978ZM207.75 58.872V78.606H209.488V58.872H207.75ZM226.316 61.578C226.316 63.118 226.316 64.57 225.788 66.594L227.548 66.792C228.098 64.768 228.098 63.162 228.098 61.578V59.906H214.656V61.358H226.316V61.578ZM221.366 77.198C218.286 77.198 216.306 76.362 216.306 74.998C216.306 73.59 218.286 72.754 221.366 72.754C224.468 72.754 226.448 73.59 226.448 74.998C226.448 76.362 224.468 77.198 221.366 77.198ZM221.366 71.368C217.164 71.368 214.502 72.71 214.502 74.998C214.502 77.242 217.164 78.606 221.366 78.606C225.568 78.606 228.252 77.242 228.252 74.998C228.252 72.71 225.568 71.368 221.366 71.368ZM221.652 68.09V64.306H219.848V68.09H212.566V69.542H230.32V68.09H221.652Z" fill="#333333"/>
<path d="M292.202 407.816C288.748 407.156 285.008 404.164 285.008 400.798V399.28H283.116V400.798C283.116 404.164 279.398 407.134 275.944 407.816L276.758 409.312C279.728 408.608 282.808 406.496 284.062 403.614C285.316 406.518 288.396 408.63 291.388 409.312L292.202 407.816ZM275.196 413.492V414.988H293.082V413.492H275.196ZM296.623 405.902L296.887 407.398L308.789 406.738C308.679 408.256 308.459 409.884 308.019 411.776L309.801 411.952C310.659 407.904 310.659 405.242 310.659 402.316V399.896H297.129V401.37H308.899V402.316C308.899 403.328 308.899 404.34 308.855 405.374L296.623 405.902ZM295.017 413.404V414.878H312.859V413.404H295.017ZM326.783 406.232C323.659 406.738 321.085 406.848 317.587 406.848V404.186H324.737V398.862H315.761V400.314H322.955V402.8H315.827V408.322H317.411C321.063 408.322 323.747 408.212 326.981 407.684L326.783 406.232ZM329.203 415.89H319.985V413.47H329.203V415.89ZM329.203 412.062H319.985V409.73H318.203V417.364H330.985V409.73H329.203V412.062ZM329.181 397.916V408.74H330.985V397.916H329.181ZM350.431 408.542H338.705V405.418H349.793V403.988H338.705V401.062H350.233V399.61H336.879V409.994H350.431V408.542ZM334.569 413.602V415.076H352.477V413.602H334.569ZM359.618 400.446V401.92H365.536C365.272 406.012 363.402 409.576 358.87 412.106L359.926 413.404C365.536 410.236 367.318 405.528 367.318 400.446H359.618ZM373.874 397.894V405.836H371.19V398.422H369.496V416.638H371.19V407.31H373.874V417.628H375.612V397.894H373.874ZM386.852 405.88H381.264V402.932H386.852V405.88ZM388.612 398.708H386.852V401.546H381.264V398.708H379.482V407.332H388.612V398.708ZM383.266 413.822H393.98V409.026H381.44V410.456H392.198V412.48H381.506V417.408H394.706V415.978H383.266V413.822ZM393.98 402.14V397.916H392.176V408.102H393.98V403.636H396.906V402.14H393.98ZM408.762 408.96C409.312 405.286 409.312 402.712 409.312 401.128V400.05H399.346V401.524H407.552C407.552 403.108 407.508 405.506 406.958 408.784L408.762 408.96ZM404.23 405.682H402.448V411.754C400.974 411.798 399.522 411.82 398.268 411.82L398.466 413.316C401.964 413.316 406.606 413.228 410.698 412.568L410.588 411.248C408.586 411.49 406.386 411.622 404.23 411.71V405.682ZM416.748 406.144H413.602V397.894H411.798V417.628H413.602V407.662H416.748V406.144ZM436.538 400.578C436.538 402.118 436.538 403.57 436.01 405.594L437.77 405.792C438.32 403.768 438.32 402.162 438.32 400.578V398.906H424.878V400.358H436.538V400.578ZM431.588 416.198C428.508 416.198 426.528 415.362 426.528 413.998C426.528 412.59 428.508 411.754 431.588 411.754C434.69 411.754 436.67 412.59 436.67 413.998C436.67 415.362 434.69 416.198 431.588 416.198ZM431.588 410.368C427.386 410.368 424.724 411.71 424.724 413.998C424.724 416.242 427.386 417.606 431.588 417.606C435.79 417.606 438.474 416.242 438.474 413.998C438.474 411.71 435.79 410.368 431.588 410.368ZM431.874 407.09V403.306H430.07V407.09H422.788V408.542H440.542V407.09H431.874ZM443.291 400.446V401.92H449.209C448.945 406.012 447.075 409.576 442.543 412.106L443.599 413.404C449.209 410.236 450.991 405.528 450.991 400.446H443.291ZM457.547 397.894V405.836H454.863V398.422H453.169V416.638H454.863V407.31H457.547V417.628H459.285V397.894H457.547ZM482.595 403.944H470.869V400.138H482.463V398.686H469.065V405.396H482.595V403.944ZM475.731 416.198C472.629 416.198 470.803 415.428 470.803 414.042C470.803 412.656 472.629 411.886 475.731 411.886C478.833 411.886 480.659 412.656 480.659 414.042C480.659 415.428 478.811 416.198 475.731 416.198ZM475.731 410.478C471.529 410.478 468.977 411.754 468.977 414.042C468.977 416.33 471.529 417.606 475.731 417.606C479.933 417.606 482.485 416.33 482.485 414.042C482.485 411.754 479.933 410.478 475.731 410.478ZM466.821 407.288V408.784H484.685V407.288H466.821ZM488.599 413.206H500.523V417.452H502.327V411.732H488.599V413.206ZM496.475 408.74V406.672H502.635V405.264H490.689V403.196H502.217V398.4H488.863V399.808H500.435V401.854H488.907V406.672H494.649V408.74H486.597V410.214H504.505V408.74H496.475ZM527.067 397.894H525.263V409.224H527.067V397.894ZM519.389 405.792H513.691V400.6H519.389V405.792ZM521.149 399.17H511.931V407.244H521.149V399.17ZM527.529 411.952V410.566H521.743V408.652H519.917V410.566H514.131V411.952H519.895C519.873 413.91 516.727 415.78 513.361 416.176L513.955 417.562C516.925 417.144 519.653 415.824 520.841 413.954C522.007 415.78 524.647 417.144 527.617 417.562L528.233 416.176C524.845 415.758 521.787 413.844 521.765 411.952H527.529ZM291.472 429.48H294.706V439.072C293.628 439.116 292.528 439.16 291.472 439.182V429.48ZM296.466 429.48H298.578V428.028H287.6V429.48H289.712V439.204C288.788 439.226 287.908 439.226 287.094 439.226L287.314 440.744C290.79 440.744 295.476 440.678 299.612 440.018L299.48 438.676C298.512 438.808 297.5 438.896 296.466 438.962V429.48ZM305.772 433.792H302.516V425.916H300.712V445.628H302.516V435.288H305.772V433.792ZM321.478 425.894V445.672H323.282V425.894H321.478ZM312.876 427.412C309.95 427.412 307.86 430.096 307.86 434.298C307.86 438.5 309.95 441.184 312.876 441.184C315.802 441.184 317.892 438.5 317.892 434.298C317.892 430.096 315.802 427.412 312.876 427.412ZM312.876 429.04C314.79 429.04 316.154 431.108 316.154 434.298C316.154 437.51 314.79 439.578 312.876 439.578C310.94 439.578 309.576 437.51 309.576 434.298C309.576 431.108 310.94 429.04 312.876 429.04ZM338.284 436.19H333.378V429.326H338.284V436.19ZM331.574 436.19H328.56V437.664H343.102V436.19H340.088V429.326H343.146V427.874H328.516V429.326H331.574V436.19ZM326.932 441.602V443.098H344.818V441.602H326.932ZM349.304 434.804H356.41V427.72H347.478V429.194H354.628V433.33H347.544V440.876H349.106C352.868 440.876 355.508 440.722 358.588 440.172L358.39 438.676C355.442 439.248 352.89 439.38 349.304 439.38V434.804ZM365.166 433.726H361.932V425.872H360.128V445.65H361.932V435.244H365.166V433.726ZM382.721 425.916H380.917V440.326H382.721V425.916ZM368.751 432.12C368.751 430.206 370.203 428.842 372.117 428.842C374.075 428.842 375.527 430.206 375.527 432.12C375.527 434.078 374.075 435.442 372.117 435.442C370.203 435.442 368.751 434.078 368.751 432.12ZM377.287 432.12C377.287 429.282 375.065 427.28 372.117 427.28C369.191 427.28 366.991 429.282 366.991 432.12C366.991 434.98 369.191 437.004 372.117 437.004C375.065 437.004 377.287 434.98 377.287 432.12ZM371.831 443.714V438.852H370.027V445.188H383.315V443.714H371.831ZM404.601 428.578C404.601 430.118 404.601 431.57 404.073 433.594L405.833 433.792C406.383 431.768 406.383 430.162 406.383 428.578V426.906H392.941V428.358H404.601V428.578ZM399.651 444.198C396.571 444.198 394.591 443.362 394.591 441.998C394.591 440.59 396.571 439.754 399.651 439.754C402.753 439.754 404.733 440.59 404.733 441.998C404.733 443.362 402.753 444.198 399.651 444.198ZM399.651 438.368C395.449 438.368 392.787 439.71 392.787 441.998C392.787 444.242 395.449 445.606 399.651 445.606C403.853 445.606 406.537 444.242 406.537 441.998C406.537 439.71 403.853 438.368 399.651 438.368ZM399.937 435.09V431.306H398.133V435.09H390.851V436.542H408.605V435.09H399.937ZM419.493 428.138C422.507 428.138 424.553 429.238 424.553 430.976C424.553 432.714 422.507 433.836 419.493 433.836C416.501 433.836 414.455 432.714 414.455 430.976C414.455 429.238 416.501 428.138 419.493 428.138ZM419.493 435.288C423.607 435.288 426.401 433.616 426.401 430.976C426.401 428.336 423.607 426.686 419.493 426.686C415.401 426.686 412.607 428.336 412.607 430.976C412.607 433.616 415.401 435.288 419.493 435.288ZM428.469 437.136H410.605V438.61H415.203V445.628H417.029V438.61H421.979V445.628H423.805V438.61H428.469V437.136ZM436.049 428.028V429.48H443.463C443.089 434.166 440.449 437.95 435.147 440.48L436.115 441.954C442.671 438.742 445.289 433.726 445.289 428.028H436.049ZM449.271 425.894V445.628H451.075V425.894H449.271ZM470.5 431.394H458.906V426.312H457.102V432.846H470.5V431.394ZM463.592 444.154C460.49 444.154 458.664 443.34 458.664 441.976C458.664 440.568 460.49 439.776 463.592 439.776C466.694 439.776 468.52 440.568 468.52 441.976C468.52 443.34 466.672 444.154 463.592 444.154ZM463.592 438.368C459.39 438.368 456.838 439.666 456.838 441.976C456.838 444.264 459.39 445.562 463.592 445.562C467.794 445.562 470.346 444.264 470.346 441.976C470.346 439.666 467.794 438.368 463.592 438.368ZM454.704 435.134V436.608H472.546V435.134H454.704ZM484.746 429.678H488.266V428.204H479.268V429.678H483.008V431.46C483.008 435.09 481.468 438.676 478.718 440.326L479.818 441.668C481.776 440.436 483.206 438.126 483.888 435.42C484.57 437.928 485.934 440.04 487.848 441.184L488.948 439.864C486.22 438.324 484.746 434.892 484.746 431.46V429.678ZM490.026 432.978H486.77V434.452H490.026V444.594H491.742V426.334H490.026V432.978ZM493.986 425.872V445.606H495.724V425.872H493.986ZM512.552 428.578C512.552 430.118 512.552 431.57 512.024 433.594L513.784 433.792C514.334 431.768 514.334 430.162 514.334 428.578V426.906H500.892V428.358H512.552V428.578ZM507.602 444.198C504.522 444.198 502.542 443.362 502.542 441.998C502.542 440.59 504.522 439.754 507.602 439.754C510.704 439.754 512.684 440.59 512.684 441.998C512.684 443.362 510.704 444.198 507.602 444.198ZM507.602 438.368C503.4 438.368 500.738 439.71 500.738 441.998C500.738 444.242 503.4 445.606 507.602 445.606C511.804 445.606 514.488 444.242 514.488 441.998C514.488 439.71 511.804 438.368 507.602 438.368ZM507.888 435.09V431.306H506.084V435.09H498.802V436.542H516.556V435.09H507.888Z" fill="#333333"/>
<g clip-path="url(#clip0_377_841)">
<path d="M728.244 143.666L727.511 133.896" stroke="#304984" stroke-width="8" stroke-linecap="round"/>
<path d="M728.139 143.77L718.438 142.688" stroke="#304984" stroke-width="8" stroke-linecap="round"/>
<path d="M724.475 139.723C701.654 115.297 669.272 100.014 633.365 100.014C597.459 100.014 567.624 114.111 545.013 136.897" stroke="#304984" stroke-width="8" stroke-linecap="round" stroke-linejoin="round"/>
</g>
<g clip-path="url(#clip1_377_841)">
<path d="M263.244 143.666L262.511 133.896" stroke="#3FA3EF" stroke-width="8" stroke-linecap="round"/>
<path d="M263.139 143.77L253.438 142.688" stroke="#3FA3EF" stroke-width="8" stroke-linecap="round"/>
<path d="M259.475 139.723C236.654 115.297 204.272 100.014 168.365 100.014C132.459 100.014 102.624 114.111 80.0127 136.897" stroke="#3FA3EF" stroke-width="8" stroke-linecap="round" stroke-linejoin="round"/>
</g>
<g clip-path="url(#clip2_377_841)">
<path d="M496.244 329.511L495.511 339.281" stroke="#2E7ED1" stroke-width="6" stroke-linecap="round"/>
<path d="M496.139 329.407L486.438 330.488" stroke="#2E7ED1" stroke-width="6" stroke-linecap="round"/>
<path d="M492.475 333.916C469.654 358.342 437.272 373.626 401.365 373.626C365.459 373.626 335.624 359.529 313.013 336.743" stroke="#2E7ED1" stroke-width="8" stroke-linecap="round" stroke-linejoin="round"/>
</g>
<path d="M137.297 214.828H142.783V212.046H133.917V227.854H135.581C138.649 227.854 141.197 227.75 144.109 227.204L143.849 224.422C141.561 224.838 139.533 224.968 137.297 225.02V214.828ZM150.531 209.264V218.494H148.373V209.732H145.175V232.118H148.373V221.25H150.531V233.236H153.781V209.264H150.531ZM167.923 230.662C164.725 230.662 163.087 230.116 163.087 228.894C163.087 227.672 164.725 227.152 167.923 227.152C171.121 227.152 172.759 227.672 172.759 228.894C172.759 230.116 171.121 230.662 167.923 230.662ZM167.923 224.552C162.749 224.552 159.629 226.112 159.629 228.894C159.629 231.676 162.749 233.262 167.923 233.262C173.097 233.262 176.243 231.676 176.243 228.894C176.243 226.112 173.097 224.552 167.923 224.552ZM165.453 218.65C166.233 218.754 167.065 218.806 167.975 218.806C168.859 218.806 169.691 218.754 170.445 218.676V220.652H165.453V218.65ZM167.975 212.254C171.251 212.254 173.123 212.904 173.123 214.256C173.123 215.556 171.251 216.232 167.975 216.232C164.725 216.232 162.853 215.556 162.853 214.256C162.853 212.904 164.725 212.254 167.975 212.254ZM173.877 220.652V217.792C175.645 217.012 176.659 215.816 176.659 214.256C176.659 211.396 173.279 209.654 167.975 209.654C162.697 209.654 159.317 211.396 159.317 214.256C159.317 215.79 160.305 216.986 162.021 217.766V220.652H157.159V223.356H178.791V220.652H173.877ZM181.935 215.348V222.732H183.989C188.773 222.732 191.815 222.628 195.143 222.004L194.857 219.248C191.867 219.794 189.241 219.95 185.341 219.976V217.896H192.829V210.694H181.909V213.45H189.449V215.348H181.935ZM192.049 230.636C188.929 230.636 187.317 230.038 187.317 228.712C187.317 227.386 188.929 226.788 192.049 226.788C195.169 226.788 196.781 227.386 196.781 228.712C196.781 230.038 195.169 230.636 192.049 230.636ZM192.049 224.162C187.057 224.162 183.937 225.826 183.937 228.712C183.937 231.572 187.057 233.262 192.049 233.262C197.041 233.262 200.161 231.572 200.161 228.712C200.161 225.826 197.041 224.162 192.049 224.162ZM203.099 215.296V212.514H199.927V209.29H196.495V223.72H199.927V220.34H203.099V217.558H199.927V215.296H203.099ZM110.46 246.724H116.206V243.994H107.08V259.906H108.718C112.228 259.906 114.594 259.802 117.272 259.282L116.986 256.474C114.88 256.89 112.956 257.046 110.46 257.098V246.724ZM118.728 250.026H114.568V252.808H118.728V264.17H121.926V241.732H118.728V250.026ZM123.694 241.264V265.21H126.944V241.264H123.694ZM146.702 241.264V265.288H150.134V241.264H146.702ZM137.264 242.954C133.65 242.954 130.972 246.23 130.972 251.482C130.972 256.76 133.65 260.062 137.264 260.062C140.878 260.062 143.556 256.76 143.556 251.482C143.556 246.23 140.878 242.954 137.264 242.954ZM137.264 246.048C139.032 246.048 140.254 247.946 140.254 251.482C140.254 255.044 139.032 256.942 137.264 256.942C135.496 256.942 134.274 255.044 134.274 251.482C134.274 247.946 135.496 246.048 137.264 246.048ZM158.712 252.626H165.576V249.948H158.712V246.048H166.382V243.292H155.306V259.854H157.256C161.286 259.854 164.354 259.776 167.812 259.23L167.5 256.474C164.562 256.942 161.936 257.072 158.712 257.098V252.626ZM170.88 241.264V249.714H166.772V252.47H170.88V265.288H174.312V241.264H170.88ZM196.866 247.478V250.26H200.61V258.762H204.042V241.29H200.61V247.478H196.866ZM198.452 252.99C194.682 251.716 193.044 248.778 193.044 245.944V245.632H197.698V242.902H184.828V245.632H189.534V245.97C189.534 248.986 187.818 252.132 183.892 253.406L185.634 256.136C188.416 255.2 190.288 253.302 191.354 250.936C192.394 253.094 194.162 254.81 196.788 255.668L198.452 252.99ZM191.692 262.09V257.306H188.26V264.82H204.588V262.09H191.692ZM228.402 248.518C222.994 247.868 220.472 245.216 220.472 242.434V241.732H216.962V242.434C216.962 245.138 214.388 247.868 209.032 248.518L210.28 251.196C214.284 250.598 217.196 248.908 218.704 246.568C220.212 248.934 223.124 250.598 227.154 251.196L228.402 248.518ZM218.704 262.688C215.48 262.688 213.868 262.168 213.868 260.998C213.868 259.802 215.48 259.308 218.704 259.308C221.928 259.308 223.54 259.802 223.54 260.998C223.54 262.168 221.928 262.688 218.704 262.688ZM218.704 256.734C213.504 256.734 210.41 258.268 210.41 260.998C210.41 263.728 213.504 265.236 218.704 265.236C223.904 265.236 227.024 263.728 227.024 260.998C227.024 258.268 223.904 256.734 218.704 256.734ZM220.446 252.704V249.792H217.014V252.704H207.94V255.434H229.572V252.704H220.446Z" fill="white"/>
<path d="M376.212 220.548C370.804 219.638 367.84 215.92 367.84 212.41V210.694H364.174V212.41C364.174 215.842 361.184 219.638 355.802 220.548L357.258 223.434C361.418 222.628 364.46 220.288 365.994 217.246C367.528 220.288 370.596 222.602 374.756 223.434L376.212 220.548ZM355.282 227.542V230.324H376.966V227.542H355.282ZM380.968 218.442L381.384 221.224L395.06 220.522C394.904 222.134 394.644 223.876 394.176 225.826L397.556 226.164C398.674 220.964 398.674 217.662 398.674 214.178V211.396H381.644V214.126H395.294V214.178C395.294 215.4 395.294 216.648 395.242 217.974L380.968 218.442ZM379.226 227.594V230.402H400.858V227.594H379.226ZM417.574 218.832C414.454 219.352 411.672 219.456 407.72 219.482V217.506H415.338V210.382H404.314V213.112H411.958V214.958H404.34V222.238H406.446C411.204 222.238 414.402 222.16 417.964 221.562L417.574 218.832ZM419.602 230.22H410.476V228.296H419.602V230.22ZM419.602 225.67H410.476V223.642H407.07V232.95H423.008V223.642H419.602V225.67ZM419.55 209.29V222.654H423.008V209.29H419.55ZM446.406 221.64H433.068V218.962H445.678V216.31H433.068V213.788H446.224V211.032H429.584V224.344H446.406V221.64ZM427.036 227.698V230.48H448.72V227.698H427.036ZM338.342 244.254V246.984H344.4C343.958 251.69 341.93 255.148 337.12 257.956L339.122 260.348C345.804 256.448 347.78 250.962 347.78 244.254H338.342ZM354.67 241.29V250.312H352.538V241.914H349.34V264.222H352.538V253.068H354.67V265.236H357.946V241.29H354.67ZM370.138 250.156H365.432V247.764H370.138V250.156ZM373.518 242.33H370.138V245.19H365.432V242.33H362.052V252.834H373.518V242.33ZM367.824 260.894H380.2V254.394H364.392V256.994H376.82V258.45H364.418V265.054H380.902V262.402H367.824V260.894ZM380.2 245.918V241.29H376.768V253.458H380.2V248.7H383.346V245.918H380.2ZM411.023 241.316H407.591V254.888H411.023V241.316ZM400.623 250.182H395.735V245.424H400.623V250.182ZM403.977 242.72H392.355V252.86H403.977V242.72ZM411.413 258.71V256.162H404.731V254.212H401.247V256.162H394.539V258.71H401.169C400.805 260.374 398.413 262.194 393.629 262.61L394.695 265.158C398.725 264.82 401.533 263.416 402.989 261.57C404.445 263.39 407.227 264.82 411.205 265.158L412.297 262.61C407.565 262.22 405.173 260.296 404.809 258.71H411.413ZM439.35 250.728C440.026 248.258 440.026 246.23 440.026 244.332V242.356H423.438V245.06H436.594C436.594 246.646 436.516 248.258 435.97 250.39L439.35 250.728ZM431.654 262.662C428.43 262.662 426.584 262.012 426.584 260.738C426.584 259.438 428.43 258.788 431.654 258.788C434.904 258.788 436.75 259.438 436.75 260.738C436.75 262.012 434.904 262.662 431.654 262.662ZM431.654 256.214C426.506 256.214 423.178 257.93 423.178 260.738C423.178 263.52 426.506 265.236 431.654 265.236C436.828 265.236 440.156 263.52 440.156 260.738C440.156 257.93 436.828 256.214 431.654 256.214ZM432.434 252.002V247.816H429.002V252.002H421.02V254.706H442.574V252.002H432.434ZM455.676 244.826C458.796 244.826 460.798 245.762 460.798 247.452C460.798 249.168 458.796 250.078 455.676 250.078C452.53 250.078 450.528 249.168 450.528 247.452C450.528 245.762 452.53 244.826 455.676 244.826ZM455.676 252.808C460.772 252.808 464.334 250.728 464.334 247.452C464.334 244.202 460.772 242.096 455.676 242.096C450.554 242.096 447.018 244.202 447.018 247.452C447.018 250.728 450.554 252.808 455.676 252.808ZM466.57 254.602H444.886V257.384H449.8V265.21H453.258V257.384H458.068V265.21H461.552V257.384H466.57V254.602Z" fill="white"/>
<path d="M583.017 214.256H585.487V224.812C584.655 224.838 583.823 224.864 583.017 224.89V214.256ZM588.789 214.256H590.843V211.5H577.635V214.256H579.689V224.968C578.753 224.968 577.843 224.968 577.011 224.968L577.375 227.776C581.457 227.776 586.891 227.672 591.753 226.814L591.545 224.318C590.661 224.448 589.725 224.5 588.789 224.578V214.256ZM599.553 218.338H596.069V209.316H592.637V233.262H596.069V221.172H599.553V218.338ZM617.647 209.264V233.288H621.079V209.264H617.647ZM608.209 210.954C604.595 210.954 601.917 214.23 601.917 219.482C601.917 224.76 604.595 228.062 608.209 228.062C611.823 228.062 614.501 224.76 614.501 219.482C614.501 214.23 611.823 210.954 608.209 210.954ZM608.209 214.048C609.977 214.048 611.199 215.946 611.199 219.482C611.199 223.044 609.977 224.942 608.209 224.942C606.441 224.942 605.219 223.044 605.219 219.482C605.219 215.946 606.441 214.048 608.209 214.048ZM638.393 221.276H633.505V214.1H638.393V221.276ZM630.099 221.276H626.979V224.006H644.971V221.276H641.799V214.1H645.049V211.37H626.849V214.1H630.099V221.276ZM625.159 227.672V230.454H646.843V227.672H625.159ZM653.445 220.574H661.037V211.318H650.039V214.048H657.657V217.87H650.065V227.75H652.093C656.253 227.75 659.555 227.594 663.143 226.944L662.831 224.162C659.711 224.708 656.877 224.89 653.445 224.916V220.574ZM671.307 218.312H667.875V209.264H664.443V233.288H667.875V221.146H671.307V218.312ZM692.885 209.316H689.427V226.502H692.885V209.316ZM676.687 216.908C676.687 214.932 678.091 213.788 679.859 213.788C681.653 213.788 683.005 214.932 683.005 216.908C683.005 218.832 681.653 220.002 679.859 220.002C678.091 220.002 676.687 218.832 676.687 216.908ZM686.359 216.908C686.359 213.372 683.525 210.824 679.859 210.824C676.193 210.824 673.333 213.372 673.333 216.908C673.333 220.392 676.193 222.966 679.859 222.966C683.525 222.966 686.359 220.392 686.359 216.908ZM680.379 230.09V224.812H676.947V232.82H693.483V230.09H680.379ZM606.103 246.204H614.241V243.422H602.671V259.594H604.777C609.873 259.594 612.915 259.49 616.165 258.866L615.853 256.032C612.967 256.578 610.289 256.708 606.103 256.734V246.204ZM617.647 241.29V265.314H621.079V241.29H617.647ZM633.947 246.412H638.705V243.578H625.549V246.412H630.515V247.738C630.515 251.69 628.565 256.188 624.639 258.008L626.563 260.738C629.293 259.438 631.217 256.812 632.283 253.692C633.349 256.526 635.221 258.918 637.873 260.14L639.771 257.436C635.845 255.616 633.947 251.378 633.947 247.738V246.412ZM647.389 250.416H643.905V241.29H640.473V265.236H643.905V253.25H647.389V250.416ZM668.967 241.316H665.509V258.502H668.967V241.316ZM652.769 248.908C652.769 246.932 654.173 245.788 655.941 245.788C657.735 245.788 659.087 246.932 659.087 248.908C659.087 250.832 657.735 252.002 655.941 252.002C654.173 252.002 652.769 250.832 652.769 248.908ZM662.441 248.908C662.441 245.372 659.607 242.824 655.941 242.824C652.275 242.824 649.415 245.372 649.415 248.908C649.415 252.392 652.275 254.966 655.941 254.966C659.607 254.966 662.441 252.392 662.441 248.908ZM656.461 262.09V256.812H653.029V264.82H669.565V262.09H656.461Z" fill="white"/>
<path d="M516 231H511V241H516V231Z" fill="white"/>
<path d="M506.871 231.076C504.178 231.093 502 233.293 502 236.005C502 238.716 504.178 240.911 506.871 240.933V231.076Z" fill="white"/>
<path d="M537.345 234.49L531.165 228.077L526.849 223.593C525.645 222.344 523.534 223.199 523.534 224.943V230.26C523.534 230.71 523.171 231.075 522.723 231.075H519.991V240.927H522.723C523.171 240.927 523.534 241.292 523.534 241.743V247.054C523.534 248.798 525.645 249.653 526.849 248.404L531.165 243.92L537.345 237.506C538.157 236.668 538.157 235.334 537.345 234.49V234.49Z" fill="white"/>
<path d="M283 231H278V241H283V231Z" fill="white"/>
<path d="M273.871 231.076C271.178 231.093 269 233.293 269 236.005C269 238.716 271.178 240.911 273.871 240.933V231.076Z" fill="white"/>
<path d="M304.345 234.49L298.165 228.077L293.849 223.593C292.645 222.344 290.534 223.199 290.534 224.943V230.26C290.534 230.71 290.171 231.075 289.723 231.075H286.991V240.927H289.723C290.171 240.927 290.534 241.292 290.534 241.743V247.054C290.534 248.798 292.645 249.653 293.849 248.404L298.165 243.92L304.345 237.506C305.157 236.668 305.157 235.334 304.345 234.49V234.49Z" fill="white"/>
<defs>
<linearGradient id="paint0_linear_377_841" x1="57.4884" y1="236.731" x2="746.414" y2="236.731" gradientUnits="userSpaceOnUse">
<stop stop-color="#31AEF4"/>
<stop offset="1" stop-color="#365AB8"/>
</linearGradient>
<clipPath id="clip0_377_841">
<rect width="190" height="50.4922" fill="white" transform="translate(541 96)"/>
</clipPath>
<clipPath id="clip1_377_841">
<rect width="190" height="50.4922" fill="white" transform="translate(76 96)"/>
</clipPath>
<clipPath id="clip2_377_841">
<rect width="190" height="50.4922" fill="white" transform="matrix(1 0 0 -1 309 377.177)"/>
</clipPath>
</defs>
</svg>
