<svg width="24" height="24" viewBox="0 0 24 24" fill="none" xmlns="http://www.w3.org/2000/svg">
<path d="M22.935 0H1.065C0.476817 0 0 0.505475 0 1.12901V22.871C0 23.4945 0.476817 24 1.065 24H22.935C23.5232 24 24 23.4945 24 22.871V1.12901C24 0.505475 23.5232 0 22.935 0Z" fill="url(#paint0_linear_950_1385)"/>
<path d="M20.0686 15.8926C20.0094 15.8372 19.935 15.8086 19.8434 15.8086H10.4492C10.3576 15.8086 10.2832 15.8372 10.224 15.8926C10.1649 15.9479 10.1362 16.0204 10.1362 16.1063V16.7016C10.1362 16.7894 10.1649 16.86 10.224 16.9154C10.2832 16.9707 10.3576 16.9993 10.4492 16.9993H19.8434C19.935 16.9993 20.0094 16.9707 20.0686 16.9154C20.1277 16.86 20.1564 16.7875 20.1564 16.7016V16.1063C20.1564 16.0185 20.1277 15.9479 20.0686 15.8926Z" fill="white" stroke="white" stroke-width="0.175" stroke-linecap="round" stroke-linejoin="round"/>
<path d="M5.03617 7.0935C4.97129 7.03053 4.89496 7 4.811 7C4.72704 7 4.65071 7.03053 4.58583 7.0935L4.09732 7.55911C4.03244 7.62208 4 7.69269 4 7.77284C4 7.85298 4.03244 7.92549 4.09732 7.98656L7.95195 11.6446L4.09732 15.3046C4.03244 15.3676 4 15.4382 4 15.5184C4 15.5985 4.03244 15.671 4.09732 15.7321L4.58583 16.1977C4.65071 16.2607 4.72513 16.2912 4.811 16.2912C4.89496 16.2912 4.97129 16.2607 5.03617 16.1977L9.59685 11.8584C9.66173 11.7954 9.69417 11.7248 9.69417 11.6446C9.69417 11.5645 9.66173 11.492 9.59685 11.4309L5.03617 7.0916V7.0935Z" fill="white" stroke="white" stroke-width="0.175" stroke-linecap="round" stroke-linejoin="round"/>
<defs>
<linearGradient id="paint0_linear_950_1385" x1="6.65464" y1="611.459" x2="6.65464" y2="571.705" gradientUnits="userSpaceOnUse">
<stop stop-color="#252525"/>
<stop offset="1" stop-color="#5A5A5A"/>
</linearGradient>
</defs>
</svg>
