<svg width="69" height="49" viewBox="0 0 69 49" fill="none" xmlns="http://www.w3.org/2000/svg">
<path fill-rule="evenodd" clip-rule="evenodd" d="M27.6866 2C26.4371 2 25.4337 3.04138 25.4337 4.25283C25.4337 5.42632 26.4622 6.44232 27.6866 6.44232C28.8984 6.44232 29.8761 5.50199 29.8761 4.25283C29.8761 2.97786 28.8726 2 27.6866 2ZM27.6866 0C25.3073 0 23.4337 1.96218 23.4337 4.25283C23.4337 5.3096 23.8405 6.27003 24.4977 7.00392L17.6575 16.7232C16.9896 16.2722 16.1864 16.0083 15.3248 16.0083C14.1435 16.0083 13.0719 16.5045 12.3082 17.2986L8.06847 14.8393C8.26854 14.3516 8.37898 13.8186 8.37898 13.2613C8.37898 10.9579 6.49283 9.07178 4.18949 9.07178C1.88615 9.07178 0 10.9579 0 13.2613C0 15.5646 1.88615 17.4508 4.18949 17.4508C5.21324 17.4508 6.15457 17.0782 6.88451 16.4619C6.90331 16.4746 6.92265 16.4867 6.94254 16.4983L11.3028 19.0276C11.1938 19.3994 11.1353 19.7921 11.1353 20.1978C11.1353 22.5012 13.0215 24.3873 15.3248 24.3873C17.6282 24.3873 19.5143 22.5012 19.5143 20.1978C19.5143 19.4954 19.3389 18.8317 19.0297 18.2485L26.1391 8.14679C26.623 8.33761 27.1463 8.44232 27.6866 8.44232C28.7428 8.44232 29.7159 8.05738 30.4578 7.40914C30.5544 7.59205 30.7084 7.74672 30.9092 7.84309L34.7919 9.70668C34.7438 9.96372 34.7186 10.2304 34.7186 10.5049C34.7186 12.8842 36.6808 14.7578 38.9714 14.7578C41.3001 14.7578 43.1609 12.7827 43.1609 10.5049C43.1609 8.20161 41.2748 6.31545 38.9714 6.31545C37.6167 6.31545 36.4056 6.91744 35.6256 7.88839L31.7746 6.04002C31.6929 6.0008 31.6085 5.97368 31.5234 5.95793C31.7499 5.44156 31.8761 4.86612 31.8761 4.25283C31.8761 1.89901 30.0027 0 27.6866 0ZM36.7186 10.5049C36.7186 10.2551 36.758 10.0169 36.8315 9.79574C36.8707 9.74365 36.9054 9.68695 36.9347 9.62591C36.971 9.55017 36.997 9.47213 37.0131 9.3934C37.3936 8.74147 38.1102 8.31545 38.9714 8.31545C40.1702 8.31545 41.1609 9.30618 41.1609 10.5049C41.1609 11.7293 40.1449 12.7578 38.9714 12.7578C37.76 12.7578 36.7186 11.7545 36.7186 10.5049ZM2 13.2613C2 12.0625 2.99072 11.0718 4.18949 11.0718C5.38826 11.0718 6.37898 12.0625 6.37898 13.2613C6.37898 14.46 5.38826 15.4508 4.18949 15.4508C2.99072 15.4508 2 14.46 2 13.2613ZM13.1353 20.1978C13.1353 18.9991 14.126 18.0083 15.3248 18.0083C16.5236 18.0083 17.5143 18.9991 17.5143 20.1978C17.5143 21.3966 16.5236 22.3873 15.3248 22.3873C14.126 22.3873 13.1353 21.3966 13.1353 20.1978ZM4.18949 30.5824C2.97769 30.5824 2 31.5227 2 32.7719C2 34.0468 3.0035 35.0247 4.18949 35.0247C5.36298 35.0247 6.37898 33.9963 6.37898 32.7719C6.37898 31.5731 5.38826 30.5824 4.18949 30.5824ZM0 32.7719C0 30.3922 1.89919 28.5824 4.18949 28.5824C6.39646 28.5824 8.22041 30.314 8.36919 32.485L8.37151 32.4856L11.6025 33.28C12.2972 31.9205 13.6967 30.9549 15.3248 30.9549C16.9825 30.9549 18.4134 31.9277 19.093 33.3439L23.8026 29.7097C23.5664 29.1933 23.4337 28.6213 23.4337 28.0178C23.4337 25.7272 25.3073 23.765 27.6866 23.765C29.9816 23.765 31.8419 25.6296 31.8756 27.9537C31.9115 27.9549 31.9478 27.9581 31.9842 27.9633L35.0456 28.4016C35.6863 26.8895 37.2001 25.8285 38.9714 25.8285C41.2617 25.8285 43.1609 27.6384 43.1609 30.018C43.1609 32.3976 41.2617 34.2075 38.9714 34.2075C36.8122 34.2075 34.9249 32.5352 34.7344 30.3774L31.7007 29.9432C31.6136 29.9307 31.5307 29.9073 31.4532 29.8746C30.7688 31.2775 29.3281 32.2073 27.6866 32.2073C26.7038 32.2073 25.7773 31.8609 25.0415 31.2799L19.9794 35.1861C19.8378 35.2954 19.6761 35.3608 19.5108 35.3844C19.4195 37.6764 17.5581 39.3973 15.3248 39.3973C13.0271 39.3973 11.1446 37.5203 11.1354 35.2247L8.02509 34.46C7.37821 35.9442 5.91179 37.0247 4.18949 37.0247C1.87338 37.0247 0 35.1257 0 32.7719ZM25.9381 29.3761C26.3545 29.8772 26.9887 30.2073 27.6866 30.2073C28.8984 30.2073 29.8761 29.267 29.8761 28.0178C29.8761 26.7429 28.8726 25.765 27.6866 25.765C26.4371 25.765 25.4337 26.8064 25.4337 28.0178C25.4337 28.4858 25.5973 28.9288 25.8717 29.2923C25.8862 29.3088 25.9003 29.3258 25.914 29.3435C25.9223 29.3542 25.9303 29.3651 25.9381 29.3761ZM13.1353 35.2078C13.1353 33.9834 14.1513 32.9549 15.3248 32.9549C16.5108 32.9549 17.5143 33.9328 17.5143 35.2078C17.5143 36.4569 16.5366 37.3973 15.3248 37.3973C14.126 37.3973 13.1353 36.4065 13.1353 35.2078ZM36.7186 30.018C36.7186 29.9613 36.7208 29.9051 36.7252 29.8493C36.7465 29.7886 36.7623 29.725 36.7717 29.6589C36.7793 29.6059 36.7826 29.5533 36.7818 29.5014C37.0174 28.5546 37.887 27.8285 38.9714 27.8285C40.1833 27.8285 41.1609 28.7689 41.1609 30.018C41.1609 31.2672 40.1833 32.2075 38.9714 32.2075C37.747 32.2075 36.7186 31.1915 36.7186 30.018Z" fill="url(#paint0_linear_194_1240)"/>
<path d="M68 31.9405C68 40.7452 60.8603 48 51.9405 48C43.0207 48 36 40.7414 36 31.9405C36 23.1397 43.1397 16 51.9405 16C60.7414 16 68 23.1397 68 31.9405Z" fill="#F1F2F8" stroke="url(#paint1_linear_194_1240)" stroke-width="2" stroke-linecap="round" stroke-linejoin="round"/>
<path d="M55.2346 29.2344C55.2668 29 55.2828 28.7578 55.2828 28.5C55.2828 28.25 55.2668 28 55.2266 27.7656L56.857 26.5312C57.0016 26.4219 57.0418 26.2109 56.9534 26.0547L55.4113 23.4609C55.315 23.2891 55.1142 23.2344 54.9375 23.2891L53.0179 24.0391C52.6163 23.7422 52.1906 23.4922 51.7167 23.3047L51.4276 21.3203C51.3955 21.1328 51.2348 21 51.0421 21H47.9579C47.7652 21 47.6126 21.1328 47.5804 21.3203L47.2913 23.3047C46.8174 23.4922 46.3837 23.75 45.9901 24.0391L44.0706 23.2891C43.8939 23.2266 43.6931 23.2891 43.5967 23.4609L42.0626 26.0547C41.9663 26.2187 41.9984 26.4219 42.159 26.5312L43.7895 27.7656C43.7493 28 43.7172 28.2578 43.7172 28.5C43.7172 28.7422 43.7332 29 43.7734 29.2344L42.143 30.4687C41.9984 30.5781 41.9582 30.7891 42.0466 30.9453L43.5887 33.5391C43.6851 33.7109 43.8858 33.7656 44.0625 33.7109L45.9821 32.9609C46.3837 33.2578 46.8094 33.5078 47.2833 33.6953L47.5724 35.6797C47.6126 35.8672 47.7652 36 47.9579 36H51.0421C51.2348 36 51.3955 35.8672 51.4196 35.6797L51.7087 33.6953C52.1826 33.5078 52.6163 33.2578 53.0099 32.9609L54.9294 33.7109C55.1061 33.7734 55.3069 33.7109 55.4033 33.5391L56.9454 30.9453C57.0418 30.7734 57.0016 30.5781 56.849 30.4687L55.2346 29.2344ZM49.5 31.3125C47.9097 31.3125 46.6086 30.0469 46.6086 28.5C46.6086 26.9531 47.9097 25.6875 49.5 25.6875C51.0903 25.6875 52.3914 26.9531 52.3914 28.5C52.3914 30.0469 51.0903 31.3125 49.5 31.3125Z" fill="url(#paint2_linear_194_1240)"/>
<path d="M60.9408 37.9406C60.9601 37.8 60.9697 37.6547 60.9697 37.5C60.9697 37.35 60.9601 37.2 60.936 37.0594L61.9142 36.3187C62.001 36.2531 62.0251 36.1266 61.9721 36.0328L61.0468 34.4766C60.989 34.3734 60.8685 34.3406 60.7625 34.3734L59.6107 34.8234C59.3698 34.6453 59.1144 34.4953 58.83 34.3828L58.6566 33.1922C58.6373 33.0797 58.5409 33 58.4253 33H56.5747C56.4591 33 56.3675 33.0797 56.3483 33.1922L56.1748 34.3828C55.8904 34.4953 55.6302 34.65 55.3941 34.8234L54.2423 34.3734C54.1363 34.3359 54.0158 34.3734 53.958 34.4766L53.0376 36.0328C52.9798 36.1312 52.999 36.2531 53.0954 36.3187L54.0737 37.0594C54.0496 37.2 54.0303 37.3547 54.0303 37.5C54.0303 37.6453 54.0399 37.8 54.064 37.9406L53.0858 38.6813C52.999 38.7469 52.9749 38.8734 53.028 38.9672L53.9532 40.5234C54.011 40.6266 54.1315 40.6594 54.2375 40.6266L55.3893 40.1766C55.6302 40.3547 55.8856 40.5047 56.17 40.6172L56.3434 41.8078C56.3675 41.9203 56.4591 42 56.5747 42H58.4253C58.5409 42 58.6373 41.9203 58.6517 41.8078L58.8252 40.6172C59.1096 40.5047 59.3698 40.3547 59.6059 40.1766L60.7577 40.6266C60.8637 40.6641 60.9842 40.6266 61.042 40.5234L61.9672 38.9672C62.0251 38.8641 62.001 38.7469 61.9094 38.6813L60.9408 37.9406ZM57.5 39.1875C56.5458 39.1875 55.7652 38.4281 55.7652 37.5C55.7652 36.5719 56.5458 35.8125 57.5 35.8125C58.4542 35.8125 59.2348 36.5719 59.2348 37.5C59.2348 38.4281 58.4542 39.1875 57.5 39.1875Z" fill="url(#paint3_linear_194_1240)"/>
<defs>
<linearGradient id="paint0_linear_194_1240" x1="1.65415e-07" y1="1.74388" x2="39.1854" y2="39.3771" gradientUnits="userSpaceOnUse">
<stop stop-color="#706BF1"/>
<stop offset="1" stop-color="#38BCFD"/>
</linearGradient>
<linearGradient id="paint1_linear_194_1240" x1="52" y1="16" x2="52" y2="48" gradientUnits="userSpaceOnUse">
<stop stop-color="#706BF1"/>
<stop offset="1" stop-color="#38BCFD"/>
</linearGradient>
<linearGradient id="paint2_linear_194_1240" x1="43.7961" y1="21" x2="43.7961" y2="36" gradientUnits="userSpaceOnUse">
<stop stop-color="#706BF1"/>
<stop offset="1" stop-color="#38BCFD"/>
</linearGradient>
<linearGradient id="paint3_linear_194_1240" x1="54.0777" y1="33" x2="54.0777" y2="42" gradientUnits="userSpaceOnUse">
<stop stop-color="#706BF1"/>
<stop offset="1" stop-color="#38BCFD"/>
</linearGradient>
</defs>
</svg>
