<svg width="90" height="90" viewBox="0 0 90 90" fill="none" xmlns="http://www.w3.org/2000/svg">
<rect width="90" height="90" rx="45" fill="white"/>
<path fill-rule="evenodd" clip-rule="evenodd" d="M38.6866 21C37.4371 21 36.4337 22.0414 36.4337 23.2528C36.4337 24.4263 37.4622 25.4423 38.6866 25.4423C39.8984 25.4423 40.8761 24.502 40.8761 23.2528C40.8761 21.9779 39.8726 21 38.6866 21ZM38.6866 19C36.3073 19 34.4337 20.9622 34.4337 23.2528C34.4337 24.3096 34.8405 25.27 35.4977 26.0039L28.6575 35.7232C27.9896 35.2722 27.1864 35.0083 26.3248 35.0083C25.1435 35.0083 24.0719 35.5045 23.3082 36.2986L19.0685 33.8393C19.2685 33.3516 19.379 32.8186 19.379 32.2613C19.379 29.9579 17.4928 28.0718 15.1895 28.0718C12.8862 28.0718 11 29.9579 11 32.2613C11 34.5646 12.8862 36.4508 15.1895 36.4508C16.2132 36.4508 17.1546 36.0782 17.8845 35.4619C17.9033 35.4746 17.9226 35.4867 17.9425 35.4983L22.3028 38.0276C22.1938 38.3994 22.1353 38.7921 22.1353 39.1978C22.1353 41.5012 24.0215 43.3873 26.3248 43.3873C28.6282 43.3873 30.5143 41.5012 30.5143 39.1978C30.5143 38.4954 30.3389 37.8317 30.0297 37.2485L37.1391 27.1468C37.623 27.3376 38.1463 27.4423 38.6866 27.4423C39.7428 27.4423 40.7159 27.0574 41.4578 26.4091C41.5544 26.5921 41.7084 26.7467 41.9092 26.8431L45.7919 28.7067C45.7438 28.9637 45.7186 29.2304 45.7186 29.5049C45.7186 31.8842 47.6808 33.7578 49.9714 33.7578C52.3001 33.7578 54.1609 31.7827 54.1609 29.5049C54.1609 27.2016 52.2748 25.3155 49.9714 25.3155C48.6167 25.3155 47.4056 25.9174 46.6256 26.8884L42.7746 25.04C42.6929 25.0008 42.6085 24.9737 42.5234 24.9579C42.7499 24.4416 42.8761 23.8661 42.8761 23.2528C42.8761 20.899 41.0027 19 38.6866 19ZM47.7186 29.5049C47.7186 29.2551 47.758 29.0169 47.8315 28.7957C47.8707 28.7437 47.9054 28.6869 47.9347 28.6259C47.971 28.5502 47.997 28.4721 48.0131 28.3934C48.3936 27.7415 49.1102 27.3155 49.9714 27.3155C51.1702 27.3155 52.1609 28.3062 52.1609 29.5049C52.1609 30.7293 51.1449 31.7578 49.9714 31.7578C48.76 31.7578 47.7186 30.7545 47.7186 29.5049ZM13 32.2613C13 31.0625 13.9907 30.0718 15.1895 30.0718C16.3883 30.0718 17.379 31.0625 17.379 32.2613C17.379 33.46 16.3883 34.4508 15.1895 34.4508C13.9907 34.4508 13 33.46 13 32.2613ZM24.1353 39.1978C24.1353 37.9991 25.126 37.0083 26.3248 37.0083C27.5236 37.0083 28.5143 37.9991 28.5143 39.1978C28.5143 40.3966 27.5236 41.3873 26.3248 41.3873C25.126 41.3873 24.1353 40.3966 24.1353 39.1978ZM15.1895 49.5824C13.9777 49.5824 13 50.5227 13 51.7719C13 53.0468 14.0035 54.0247 15.1895 54.0247C16.363 54.0247 17.379 52.9963 17.379 51.7719C17.379 50.5731 16.3883 49.5824 15.1895 49.5824ZM11 51.7719C11 49.3922 12.8992 47.5824 15.1895 47.5824C17.3965 47.5824 19.2204 49.314 19.3692 51.485L19.3715 51.4856L22.6025 52.28C23.2972 50.9205 24.6967 49.9549 26.3248 49.9549C27.9825 49.9549 29.4134 50.9277 30.093 52.3439L34.8026 48.7097C34.5664 48.1933 34.4337 47.6213 34.4337 47.0178C34.4337 44.7272 36.3073 42.765 38.6866 42.765C40.9816 42.765 42.8419 44.6296 42.8756 46.9537C42.9115 46.9549 42.9478 46.9581 42.9842 46.9633L46.0456 47.4016C46.6863 45.8895 48.2001 44.8285 49.9714 44.8285C52.2617 44.8285 54.1609 46.6384 54.1609 49.018C54.1609 51.3976 52.2617 53.2075 49.9714 53.2075C47.8122 53.2075 45.9249 51.5352 45.7344 49.3774L42.7007 48.9432C42.6136 48.9307 42.5307 48.9073 42.4532 48.8746C41.7688 50.2775 40.3281 51.2073 38.6866 51.2073C37.7038 51.2073 36.7773 50.8609 36.0415 50.2799L30.9794 54.1861C30.8378 54.2954 30.6761 54.3608 30.5108 54.3844C30.4195 56.6764 28.5581 58.3973 26.3248 58.3973C24.0271 58.3973 22.1446 56.5203 22.1354 54.2247L19.0251 53.46C18.3782 54.9442 16.9118 56.0247 15.1895 56.0247C12.8734 56.0247 11 54.1257 11 51.7719ZM36.9381 48.3761C37.3545 48.8772 37.9887 49.2073 38.6866 49.2073C39.8984 49.2073 40.8761 48.267 40.8761 47.0178C40.8761 45.7429 39.8726 44.765 38.6866 44.765C37.4371 44.765 36.4337 45.8064 36.4337 47.0178C36.4337 47.4858 36.5973 47.9288 36.8717 48.2923C36.8862 48.3088 36.9003 48.3258 36.914 48.3435C36.9223 48.3542 36.9303 48.3651 36.9381 48.3761ZM24.1353 54.2078C24.1353 52.9834 25.1513 51.9549 26.3248 51.9549C27.5108 51.9549 28.5143 52.9328 28.5143 54.2078C28.5143 55.4569 27.5366 56.3973 26.3248 56.3973C25.126 56.3973 24.1353 55.4065 24.1353 54.2078ZM47.7186 49.018C47.7186 48.9613 47.7208 48.9051 47.7252 48.8493C47.7465 48.7886 47.7623 48.725 47.7717 48.6589C47.7793 48.6059 47.7826 48.5533 47.7818 48.5014C48.0174 47.5546 48.887 46.8285 49.9714 46.8285C51.1833 46.8285 52.1609 47.7689 52.1609 49.018C52.1609 50.2672 51.1833 51.2075 49.9714 51.2075C48.747 51.2075 47.7186 50.1915 47.7186 49.018Z" fill="url(#paint0_linear_196_1247)"/>
<path d="M79 50.9405C79 59.7452 71.8603 67 62.9405 67C54.0207 67 47 59.7414 47 50.9405C47 42.1397 54.1397 35 62.9405 35C71.7414 35 79 42.1397 79 50.9405Z" fill="white" stroke="url(#paint1_linear_196_1247)" stroke-width="2" stroke-linecap="round" stroke-linejoin="round"/>
<path d="M66.2346 48.2344C66.2668 48 66.2828 47.7578 66.2828 47.5C66.2828 47.25 66.2668 47 66.2266 46.7656L67.857 45.5312C68.0016 45.4219 68.0418 45.2109 67.9534 45.0547L66.4113 42.4609C66.315 42.2891 66.1142 42.2344 65.9375 42.2891L64.0179 43.0391C63.6163 42.7422 63.1906 42.4922 62.7167 42.3047L62.4276 40.3203C62.3955 40.1328 62.2348 40 62.0421 40H58.9579C58.7652 40 58.6126 40.1328 58.5804 40.3203L58.2913 42.3047C57.8174 42.4922 57.3837 42.75 56.9901 43.0391L55.0706 42.2891C54.8939 42.2266 54.6931 42.2891 54.5967 42.4609L53.0626 45.0547C52.9663 45.2187 52.9984 45.4219 53.159 45.5312L54.7895 46.7656C54.7493 47 54.7172 47.2578 54.7172 47.5C54.7172 47.7422 54.7332 48 54.7734 48.2344L53.143 49.4687C52.9984 49.5781 52.9582 49.7891 53.0466 49.9453L54.5887 52.5391C54.6851 52.7109 54.8858 52.7656 55.0625 52.7109L56.9821 51.9609C57.3837 52.2578 57.8094 52.5078 58.2833 52.6953L58.5724 54.6797C58.6126 54.8672 58.7652 55 58.9579 55H62.0421C62.2348 55 62.3955 54.8672 62.4196 54.6797L62.7087 52.6953C63.1826 52.5078 63.6163 52.2578 64.0099 51.9609L65.9294 52.7109C66.1061 52.7734 66.3069 52.7109 66.4033 52.5391L67.9454 49.9453C68.0418 49.7734 68.0016 49.5781 67.849 49.4687L66.2346 48.2344ZM60.5 50.3125C58.9097 50.3125 57.6086 49.0469 57.6086 47.5C57.6086 45.9531 58.9097 44.6875 60.5 44.6875C62.0903 44.6875 63.3914 45.9531 63.3914 47.5C63.3914 49.0469 62.0903 50.3125 60.5 50.3125Z" fill="url(#paint2_linear_196_1247)"/>
<path d="M71.9408 56.9406C71.9601 56.8 71.9697 56.6547 71.9697 56.5C71.9697 56.35 71.9601 56.2 71.936 56.0594L72.9142 55.3187C73.001 55.2531 73.0251 55.1266 72.9721 55.0328L72.0468 53.4766C71.989 53.3734 71.8685 53.3406 71.7625 53.3734L70.6107 53.8234C70.3698 53.6453 70.1144 53.4953 69.83 53.3828L69.6566 52.1922C69.6373 52.0797 69.5409 52 69.4253 52H67.5747C67.4591 52 67.3675 52.0797 67.3483 52.1922L67.1748 53.3828C66.8904 53.4953 66.6302 53.65 66.3941 53.8234L65.2423 53.3734C65.1363 53.3359 65.0158 53.3734 64.958 53.4766L64.0376 55.0328C63.9798 55.1312 63.999 55.2531 64.0954 55.3187L65.0737 56.0594C65.0496 56.2 65.0303 56.3547 65.0303 56.5C65.0303 56.6453 65.0399 56.8 65.064 56.9406L64.0858 57.6813C63.999 57.7469 63.9749 57.8734 64.028 57.9672L64.9532 59.5234C65.011 59.6266 65.1315 59.6594 65.2375 59.6266L66.3893 59.1766C66.6302 59.3547 66.8856 59.5047 67.17 59.6172L67.3434 60.8078C67.3675 60.9203 67.4591 61 67.5747 61H69.4253C69.5409 61 69.6373 60.9203 69.6517 60.8078L69.8252 59.6172C70.1096 59.5047 70.3698 59.3547 70.6059 59.1766L71.7577 59.6266C71.8637 59.6641 71.9842 59.6266 72.042 59.5234L72.9672 57.9672C73.0251 57.8641 73.001 57.7469 72.9094 57.6813L71.9408 56.9406ZM68.5 58.1875C67.5458 58.1875 66.7652 57.4281 66.7652 56.5C66.7652 55.5719 67.5458 54.8125 68.5 54.8125C69.4542 54.8125 70.2348 55.5719 70.2348 56.5C70.2348 57.4281 69.4542 58.1875 68.5 58.1875Z" fill="url(#paint3_linear_196_1247)"/>
<defs>
<linearGradient id="paint0_linear_196_1247" x1="11" y1="20.7439" x2="50.1854" y2="58.3771" gradientUnits="userSpaceOnUse">
<stop stop-color="#706BF1"/>
<stop offset="1" stop-color="#38BCFD"/>
</linearGradient>
<linearGradient id="paint1_linear_196_1247" x1="63" y1="35" x2="63" y2="67" gradientUnits="userSpaceOnUse">
<stop stop-color="#706BF1"/>
<stop offset="1" stop-color="#38BCFD"/>
</linearGradient>
<linearGradient id="paint2_linear_196_1247" x1="54.7961" y1="40" x2="54.7961" y2="55" gradientUnits="userSpaceOnUse">
<stop stop-color="#706BF1"/>
<stop offset="1" stop-color="#38BCFD"/>
</linearGradient>
<linearGradient id="paint3_linear_196_1247" x1="65.0777" y1="52" x2="65.0777" y2="61" gradientUnits="userSpaceOnUse">
<stop stop-color="#706BF1"/>
<stop offset="1" stop-color="#38BCFD"/>
</linearGradient>
</defs>
</svg>
