<svg width="65" height="46" viewBox="0 0 65 46" fill="none" xmlns="http://www.w3.org/2000/svg">
<path fill-rule="evenodd" clip-rule="evenodd" d="M1 0C0.447715 0 0 0.447715 0 1C0 1.55228 0.447715 2 1 2H2.31926C2.87155 2 3.31926 1.55228 3.31926 1C3.31926 0.447715 2.87155 0 2.31926 0H1ZM1 4.08964C0.447715 4.08964 0 4.53736 0 5.08964C0 5.64192 0.447715 6.08964 1 6.08964H2.31926C2.87155 6.08964 3.31926 5.64192 3.31926 5.08964C3.31926 4.53736 2.87155 4.08964 2.31926 4.08964H1ZM0 9.11294C0 8.56066 0.447715 8.11294 1 8.11294H2.31926C2.87155 8.11294 3.31926 8.56066 3.31926 9.11294C3.31926 9.66523 2.87155 10.1129 2.31926 10.1129H1C0.447715 10.1129 0 9.66523 0 9.11294ZM1 12.2026C0.447715 12.2026 0 12.6503 0 13.2026C0 13.7549 0.447715 14.2026 1 14.2026H2.31926C2.87155 14.2026 3.31926 13.7549 3.31926 13.2026C3.31926 12.6503 2.87155 12.2026 2.31926 12.2026H1ZM0 17.2922C0 16.7399 0.447715 16.2922 1 16.2922H2.31926C2.87155 16.2922 3.31926 16.7399 3.31926 17.2922C3.31926 17.8445 2.87155 18.2922 2.31926 18.2922H1C0.447715 18.2922 0 17.8445 0 17.2922ZM1 20.3829C0.447715 20.3829 0 20.8306 0 21.3829C0 21.9352 0.447715 22.3829 1 22.3829H2.31926C2.87155 22.3829 3.31926 21.9352 3.31926 21.3829C3.31926 20.8306 2.87155 20.3829 2.31926 20.3829H1ZM0 25.4062C0 24.8539 0.447715 24.4062 1 24.4062H2.31926C2.87155 24.4062 3.31926 24.8539 3.31926 25.4062C3.31926 25.9585 2.87155 26.4062 2.31926 26.4062H1C0.447715 26.4062 0 25.9585 0 25.4062ZM1 28.4948C0.447715 28.4948 0 28.9425 0 29.4948C0 30.0471 0.447715 30.4948 1 30.4948H2.31926C2.87155 30.4948 3.31926 30.0471 3.31926 29.4948C3.31926 28.9425 2.87155 28.4948 2.31926 28.4948H1ZM5.21155 1C5.21155 0.447715 5.65927 0 6.21155 0H19.6677C20.2199 0 20.6677 0.447715 20.6677 1C20.6677 1.55228 20.2199 2 19.6677 2H6.21155C5.65927 2 5.21155 1.55228 5.21155 1ZM11.5542 4.08964C11.0019 4.08964 10.5542 4.53736 10.5542 5.08964C10.5542 5.64192 11.0019 6.08964 11.5542 6.08964H26.5276C27.0799 6.08964 27.5276 5.64192 27.5276 5.08964C27.5276 4.53736 27.0799 4.08964 26.5276 4.08964H11.5542ZM10.5542 9.11294C10.5542 8.56066 11.0019 8.11294 11.5542 8.11294H20.7236C21.2759 8.11294 21.7236 8.56066 21.7236 9.11294C21.7236 9.66523 21.2759 10.1129 20.7236 10.1129H11.5542C11.0019 10.1129 10.5542 9.66523 10.5542 9.11294ZM16.8968 12.2026C16.3446 12.2026 15.8968 12.6503 15.8968 13.2026C15.8968 13.7549 16.3446 14.2026 16.8968 14.2026H27.7816C28.3339 14.2026 28.7816 13.7549 28.7816 13.2026C28.7816 12.6503 28.3339 12.2026 27.7816 12.2026H16.8968ZM22.9542 1C22.9542 0.447715 23.4019 0 23.9542 0H29.6274C30.1797 0 30.6274 0.447715 30.6274 1C30.6274 1.55228 30.1797 2 29.6274 2H23.9542C23.4019 2 22.9542 1.55228 22.9542 1ZM30.4851 4.08964C29.9328 4.08964 29.4851 4.53736 29.4851 5.08964C29.4851 5.64192 29.9328 6.08964 30.4851 6.08964H33.7833C34.3355 6.08964 34.7833 5.64192 34.7833 5.08964C34.7833 4.53736 34.3355 4.08964 33.7833 4.08964H30.4851ZM36.7415 5.08964C36.7415 4.53736 37.1892 4.08964 37.7415 4.08964H46.8437C47.396 4.08964 47.8437 4.53736 47.8437 5.08964C47.8437 5.64192 47.396 6.08964 46.8437 6.08964H37.7415C37.1892 6.08964 36.7415 5.64192 36.7415 5.08964ZM24.6818 8.11294C24.1295 8.11294 23.6818 8.56066 23.6818 9.11294C23.6818 9.66523 24.1295 10.1129 24.6818 10.1129H38.5323C39.0846 10.1129 39.5323 9.66523 39.5323 9.11294C39.5323 8.56066 39.0846 8.11294 38.5323 8.11294H24.6818ZM41.4892 9.11294C41.4892 8.56066 41.9369 8.11294 42.4892 8.11294H46.8431C47.3954 8.11294 47.8431 8.56066 47.8431 9.11294C47.8431 9.66523 47.3954 10.1129 46.8431 10.1129H42.4892C41.9369 10.1129 41.4892 9.66523 41.4892 9.11294ZM31.7392 12.2026C31.1869 12.2026 30.7392 12.6503 30.7392 13.2026C30.7392 13.7549 31.1869 14.2026 31.7392 14.2026H46.8435C47.3958 14.2026 47.8435 13.7549 47.8435 13.2026C47.8435 12.6503 47.3958 12.2026 46.8435 12.2026H31.7392ZM5.21155 17.2922C5.21155 16.7399 5.65927 16.2922 6.21155 16.2922H19.6677C20.2199 16.2922 20.6677 16.7399 20.6677 17.2922C20.6677 17.8445 20.2199 18.2922 19.6677 18.2922H6.21155C5.65927 18.2922 5.21155 17.8445 5.21155 17.2922ZM11.5542 20.3829C11.0019 20.3829 10.5542 20.8306 10.5542 21.3829C10.5542 21.9352 11.0019 22.3829 11.5542 22.3829H26.5276C27.0799 22.3829 27.5276 21.9352 27.5276 21.3829C27.5276 20.8306 27.0799 20.3829 26.5276 20.3829H11.5542ZM10.5542 25.4062C10.5542 24.8539 11.0019 24.4062 11.5542 24.4062H20.7236C21.2759 24.4062 21.7236 24.8539 21.7236 25.4062C21.7236 25.9585 21.2759 26.4062 20.7236 26.4062H11.5542C11.0019 26.4062 10.5542 25.9585 10.5542 25.4062ZM16.8968 28.4948C16.3446 28.4948 15.8968 28.9425 15.8968 29.4948C15.8968 30.0471 16.3446 30.4948 16.8968 30.4948H27.7816C28.3339 30.4948 28.7816 30.0471 28.7816 29.4948C28.7816 28.9425 28.3339 28.4948 27.7816 28.4948H16.8968ZM22.9542 17.2922C22.9542 16.7399 23.4019 16.2922 23.9542 16.2922H29.6274C30.1797 16.2922 30.6274 16.7399 30.6274 17.2922C30.6274 17.8445 30.1797 18.2922 29.6274 18.2922H23.9542C23.4019 18.2922 22.9542 17.8445 22.9542 17.2922ZM30.4851 20.3829C29.9328 20.3829 29.4851 20.8306 29.4851 21.3829C29.4851 21.9352 29.9328 22.3829 30.4851 22.3829H33.7833C34.3355 22.3829 34.7833 21.9352 34.7833 21.3829C34.7833 20.8306 34.3355 20.3829 33.7833 20.3829H30.4851ZM36.7415 21.3829C36.7415 20.8306 37.1892 20.3829 37.7415 20.3829H46.8437C47.396 20.3829 47.8437 20.8306 47.8437 21.3829C47.8437 21.9352 47.396 22.3829 46.8437 22.3829H37.7415C37.1892 22.3829 36.7415 21.9352 36.7415 21.3829ZM24.6818 24.4062C24.1295 24.4062 23.6818 24.8539 23.6818 25.4062C23.6818 25.9585 24.1295 26.4062 24.6818 26.4062H38.5323C39.0846 26.4062 39.5323 25.9585 39.5323 25.4062C39.5323 24.8539 39.0846 24.4062 38.5323 24.4062H24.6818ZM41.4892 25.4062C41.4892 24.8539 41.9369 24.4062 42.4892 24.4062H46.8431C47.3954 24.4062 47.8431 24.8539 47.8431 25.4062C47.8431 25.9585 47.3954 26.4062 46.8431 26.4062H42.4892C41.9369 26.4062 41.4892 25.9585 41.4892 25.4062ZM31.7392 28.4948C31.1869 28.4948 30.7392 28.9425 30.7392 29.4948C30.7392 30.0471 31.1869 30.4948 31.7392 30.4948H46.8435C47.3958 30.4948 47.8435 30.0471 47.8435 29.4948C47.8435 28.9425 47.3958 28.4948 46.8435 28.4948H31.7392Z" fill="url(#paint0_linear_194_1241)"/>
<path d="M64 28.9405C64 37.7452 56.8603 45 47.9405 45C39.0207 45 32 37.7414 32 28.9405C32 20.1397 39.1397 13 47.9405 13C56.7414 13 64 20.1397 64 28.9405Z" fill="#F1F2F8" stroke="url(#paint1_linear_194_1241)" stroke-width="2" stroke-linecap="round" stroke-linejoin="round"/>
<path d="M51.2346 26.2344C51.2668 26 51.2828 25.7578 51.2828 25.5C51.2828 25.25 51.2668 25 51.2266 24.7656L52.857 23.5312C53.0016 23.4219 53.0418 23.2109 52.9534 23.0547L51.4113 20.4609C51.315 20.2891 51.1142 20.2344 50.9375 20.2891L49.0179 21.0391C48.6163 20.7422 48.1906 20.4922 47.7167 20.3047L47.4276 18.3203C47.3955 18.1328 47.2348 18 47.0421 18H43.9579C43.7652 18 43.6126 18.1328 43.5804 18.3203L43.2913 20.3047C42.8174 20.4922 42.3837 20.75 41.9901 21.0391L40.0706 20.2891C39.8939 20.2266 39.6931 20.2891 39.5967 20.4609L38.0626 23.0547C37.9663 23.2187 37.9984 23.4219 38.159 23.5312L39.7895 24.7656C39.7493 25 39.7172 25.2578 39.7172 25.5C39.7172 25.7422 39.7332 26 39.7734 26.2344L38.143 27.4687C37.9984 27.5781 37.9582 27.7891 38.0466 27.9453L39.5887 30.5391C39.6851 30.7109 39.8858 30.7656 40.0625 30.7109L41.9821 29.9609C42.3837 30.2578 42.8094 30.5078 43.2833 30.6953L43.5724 32.6797C43.6126 32.8672 43.7652 33 43.9579 33H47.0421C47.2348 33 47.3955 32.8672 47.4196 32.6797L47.7087 30.6953C48.1826 30.5078 48.6163 30.2578 49.0099 29.9609L50.9294 30.7109C51.1061 30.7734 51.3069 30.7109 51.4033 30.5391L52.9454 27.9453C53.0418 27.7734 53.0016 27.5781 52.849 27.4687L51.2346 26.2344ZM45.5 28.3125C43.9097 28.3125 42.6086 27.0469 42.6086 25.5C42.6086 23.9531 43.9097 22.6875 45.5 22.6875C47.0903 22.6875 48.3914 23.9531 48.3914 25.5C48.3914 27.0469 47.0903 28.3125 45.5 28.3125Z" fill="url(#paint2_linear_194_1241)"/>
<path d="M56.9408 34.9406C56.9601 34.8 56.9697 34.6547 56.9697 34.5C56.9697 34.35 56.9601 34.2 56.936 34.0594L57.9142 33.3187C58.001 33.2531 58.0251 33.1266 57.9721 33.0328L57.0468 31.4766C56.989 31.3734 56.8685 31.3406 56.7625 31.3734L55.6107 31.8234C55.3698 31.6453 55.1144 31.4953 54.83 31.3828L54.6566 30.1922C54.6373 30.0797 54.5409 30 54.4253 30H52.5747C52.4591 30 52.3675 30.0797 52.3483 30.1922L52.1748 31.3828C51.8904 31.4953 51.6302 31.65 51.3941 31.8234L50.2423 31.3734C50.1363 31.3359 50.0158 31.3734 49.958 31.4766L49.0376 33.0328C48.9798 33.1312 48.999 33.2531 49.0954 33.3187L50.0737 34.0594C50.0496 34.2 50.0303 34.3547 50.0303 34.5C50.0303 34.6453 50.0399 34.8 50.064 34.9406L49.0858 35.6813C48.999 35.7469 48.9749 35.8734 49.028 35.9672L49.9532 37.5234C50.011 37.6266 50.1315 37.6594 50.2375 37.6266L51.3893 37.1766C51.6302 37.3547 51.8856 37.5047 52.17 37.6172L52.3434 38.8078C52.3675 38.9203 52.4591 39 52.5747 39H54.4253C54.5409 39 54.6373 38.9203 54.6517 38.8078L54.8252 37.6172C55.1096 37.5047 55.3698 37.3547 55.6059 37.1766L56.7577 37.6266C56.8637 37.6641 56.9842 37.6266 57.042 37.5234L57.9672 35.9672C58.0251 35.8641 58.001 35.7469 57.9094 35.6813L56.9408 34.9406ZM53.5 36.1875C52.5458 36.1875 51.7652 35.4281 51.7652 34.5C51.7652 33.5719 52.5458 32.8125 53.5 32.8125C54.4542 32.8125 55.2348 33.5719 55.2348 34.5C55.2348 35.4281 54.4542 36.1875 53.5 36.1875Z" fill="url(#paint3_linear_194_1241)"/>
<defs>
<linearGradient id="paint0_linear_194_1241" x1="-1.8882e-07" y1="1.34433" x2="47.9283" y2="30.2633" gradientUnits="userSpaceOnUse">
<stop stop-color="#706BF1"/>
<stop offset="1" stop-color="#38BCFD"/>
</linearGradient>
<linearGradient id="paint1_linear_194_1241" x1="48" y1="13" x2="48" y2="45" gradientUnits="userSpaceOnUse">
<stop stop-color="#706BF1"/>
<stop offset="1" stop-color="#38BCFD"/>
</linearGradient>
<linearGradient id="paint2_linear_194_1241" x1="39.7961" y1="18" x2="39.7961" y2="33" gradientUnits="userSpaceOnUse">
<stop stop-color="#706BF1"/>
<stop offset="1" stop-color="#38BCFD"/>
</linearGradient>
<linearGradient id="paint3_linear_194_1241" x1="50.0777" y1="30" x2="50.0777" y2="39" gradientUnits="userSpaceOnUse">
<stop stop-color="#706BF1"/>
<stop offset="1" stop-color="#38BCFD"/>
</linearGradient>
</defs>
</svg>
