<svg width="90" height="90" viewBox="0 0 90 90" fill="none" xmlns="http://www.w3.org/2000/svg">
<rect width="90" height="90" rx="45" fill="white"/>
<path fill-rule="evenodd" clip-rule="evenodd" d="M16 25C15.4477 25 15 25.4477 15 26C15 26.5523 15.4477 27 16 27H17.3193C17.8715 27 18.3193 26.5523 18.3193 26C18.3193 25.4477 17.8715 25 17.3193 25H16ZM16 29.0896C15.4477 29.0896 15 29.5374 15 30.0896C15 30.6419 15.4477 31.0896 16 31.0896H17.3193C17.8715 31.0896 18.3193 30.6419 18.3193 30.0896C18.3193 29.5374 17.8715 29.0896 17.3193 29.0896H16ZM15 34.1129C15 33.5607 15.4477 33.1129 16 33.1129H17.3193C17.8715 33.1129 18.3193 33.5607 18.3193 34.1129C18.3193 34.6652 17.8715 35.1129 17.3193 35.1129H16C15.4477 35.1129 15 34.6652 15 34.1129ZM16 37.2026C15.4477 37.2026 15 37.6503 15 38.2026C15 38.7549 15.4477 39.2026 16 39.2026H17.3193C17.8715 39.2026 18.3193 38.7549 18.3193 38.2026C18.3193 37.6503 17.8715 37.2026 17.3193 37.2026H16ZM15 42.2922C15 41.7399 15.4477 41.2922 16 41.2922H17.3193C17.8715 41.2922 18.3193 41.7399 18.3193 42.2922C18.3193 42.8445 17.8715 43.2922 17.3193 43.2922H16C15.4477 43.2922 15 42.8445 15 42.2922ZM16 45.3829C15.4477 45.3829 15 45.8306 15 46.3829C15 46.9352 15.4477 47.3829 16 47.3829H17.3193C17.8715 47.3829 18.3193 46.9352 18.3193 46.3829C18.3193 45.8306 17.8715 45.3829 17.3193 45.3829H16ZM15 50.4062C15 49.8539 15.4477 49.4062 16 49.4062H17.3193C17.8715 49.4062 18.3193 49.8539 18.3193 50.4062C18.3193 50.9585 17.8715 51.4062 17.3193 51.4062H16C15.4477 51.4062 15 50.9585 15 50.4062ZM16 53.4948C15.4477 53.4948 15 53.9425 15 54.4948C15 55.0471 15.4477 55.4948 16 55.4948H17.3193C17.8715 55.4948 18.3193 55.0471 18.3193 54.4948C18.3193 53.9425 17.8715 53.4948 17.3193 53.4948H16ZM20.2116 26C20.2116 25.4477 20.6593 25 21.2116 25H34.6677C35.2199 25 35.6677 25.4477 35.6677 26C35.6677 26.5523 35.2199 27 34.6677 27H21.2116C20.6593 27 20.2116 26.5523 20.2116 26ZM26.5542 29.0896C26.0019 29.0896 25.5542 29.5374 25.5542 30.0896C25.5542 30.6419 26.0019 31.0896 26.5542 31.0896H41.5276C42.0799 31.0896 42.5276 30.6419 42.5276 30.0896C42.5276 29.5374 42.0799 29.0896 41.5276 29.0896H26.5542ZM25.5542 34.1129C25.5542 33.5607 26.0019 33.1129 26.5542 33.1129H35.7236C36.2759 33.1129 36.7236 33.5607 36.7236 34.1129C36.7236 34.6652 36.2759 35.1129 35.7236 35.1129H26.5542C26.0019 35.1129 25.5542 34.6652 25.5542 34.1129ZM31.8968 37.2026C31.3446 37.2026 30.8968 37.6503 30.8968 38.2026C30.8968 38.7549 31.3446 39.2026 31.8968 39.2026H42.7816C43.3339 39.2026 43.7816 38.7549 43.7816 38.2026C43.7816 37.6503 43.3339 37.2026 42.7816 37.2026H31.8968ZM37.9542 26C37.9542 25.4477 38.4019 25 38.9542 25H44.6274C45.1797 25 45.6274 25.4477 45.6274 26C45.6274 26.5523 45.1797 27 44.6274 27H38.9542C38.4019 27 37.9542 26.5523 37.9542 26ZM45.4851 29.0896C44.9328 29.0896 44.4851 29.5374 44.4851 30.0896C44.4851 30.6419 44.9328 31.0896 45.4851 31.0896H48.7833C49.3355 31.0896 49.7833 30.6419 49.7833 30.0896C49.7833 29.5374 49.3355 29.0896 48.7833 29.0896H45.4851ZM51.7415 30.0896C51.7415 29.5374 52.1892 29.0896 52.7415 29.0896H61.8437C62.396 29.0896 62.8437 29.5374 62.8437 30.0896C62.8437 30.6419 62.396 31.0896 61.8437 31.0896H52.7415C52.1892 31.0896 51.7415 30.6419 51.7415 30.0896ZM39.6818 33.1129C39.1295 33.1129 38.6818 33.5607 38.6818 34.1129C38.6818 34.6652 39.1295 35.1129 39.6818 35.1129H53.5323C54.0846 35.1129 54.5323 34.6652 54.5323 34.1129C54.5323 33.5607 54.0846 33.1129 53.5323 33.1129H39.6818ZM56.4892 34.1129C56.4892 33.5607 56.9369 33.1129 57.4892 33.1129H61.8431C62.3954 33.1129 62.8431 33.5607 62.8431 34.1129C62.8431 34.6652 62.3954 35.1129 61.8431 35.1129H57.4892C56.9369 35.1129 56.4892 34.6652 56.4892 34.1129ZM46.7392 37.2026C46.1869 37.2026 45.7392 37.6503 45.7392 38.2026C45.7392 38.7549 46.1869 39.2026 46.7392 39.2026H61.8435C62.3958 39.2026 62.8435 38.7549 62.8435 38.2026C62.8435 37.6503 62.3958 37.2026 61.8435 37.2026H46.7392ZM20.2116 42.2922C20.2116 41.7399 20.6593 41.2922 21.2116 41.2922H34.6677C35.2199 41.2922 35.6677 41.7399 35.6677 42.2922C35.6677 42.8445 35.2199 43.2922 34.6677 43.2922H21.2116C20.6593 43.2922 20.2116 42.8445 20.2116 42.2922ZM26.5542 45.3829C26.0019 45.3829 25.5542 45.8306 25.5542 46.3829C25.5542 46.9352 26.0019 47.3829 26.5542 47.3829H41.5276C42.0799 47.3829 42.5276 46.9352 42.5276 46.3829C42.5276 45.8306 42.0799 45.3829 41.5276 45.3829H26.5542ZM25.5542 50.4062C25.5542 49.8539 26.0019 49.4062 26.5542 49.4062H35.7236C36.2759 49.4062 36.7236 49.8539 36.7236 50.4062C36.7236 50.9585 36.2759 51.4062 35.7236 51.4062H26.5542C26.0019 51.4062 25.5542 50.9585 25.5542 50.4062ZM31.8968 53.4948C31.3446 53.4948 30.8968 53.9425 30.8968 54.4948C30.8968 55.0471 31.3446 55.4948 31.8968 55.4948H42.7816C43.3339 55.4948 43.7816 55.0471 43.7816 54.4948C43.7816 53.9425 43.3339 53.4948 42.7816 53.4948H31.8968ZM37.9542 42.2922C37.9542 41.7399 38.4019 41.2922 38.9542 41.2922H44.6274C45.1797 41.2922 45.6274 41.7399 45.6274 42.2922C45.6274 42.8445 45.1797 43.2922 44.6274 43.2922H38.9542C38.4019 43.2922 37.9542 42.8445 37.9542 42.2922ZM45.4851 45.3829C44.9328 45.3829 44.4851 45.8306 44.4851 46.3829C44.4851 46.9352 44.9328 47.3829 45.4851 47.3829H48.7833C49.3355 47.3829 49.7833 46.9352 49.7833 46.3829C49.7833 45.8306 49.3355 45.3829 48.7833 45.3829H45.4851ZM51.7415 46.3829C51.7415 45.8306 52.1892 45.3829 52.7415 45.3829H61.8437C62.396 45.3829 62.8437 45.8306 62.8437 46.3829C62.8437 46.9352 62.396 47.3829 61.8437 47.3829H52.7415C52.1892 47.3829 51.7415 46.9352 51.7415 46.3829ZM39.6818 49.4062C39.1295 49.4062 38.6818 49.8539 38.6818 50.4062C38.6818 50.9585 39.1295 51.4062 39.6818 51.4062H53.5323C54.0846 51.4062 54.5323 50.9585 54.5323 50.4062C54.5323 49.8539 54.0846 49.4062 53.5323 49.4062H39.6818ZM56.4892 50.4062C56.4892 49.8539 56.9369 49.4062 57.4892 49.4062H61.8431C62.3954 49.4062 62.8431 49.8539 62.8431 50.4062C62.8431 50.9585 62.3954 51.4062 61.8431 51.4062H57.4892C56.9369 51.4062 56.4892 50.9585 56.4892 50.4062ZM46.7392 53.4948C46.1869 53.4948 45.7392 53.9425 45.7392 54.4948C45.7392 55.0471 46.1869 55.4948 46.7392 55.4948H61.8435C62.3958 55.4948 62.8435 55.0471 62.8435 54.4948C62.8435 53.9425 62.3958 53.4948 61.8435 53.4948H46.7392Z" fill="url(#paint0_linear_196_1247)"/>
<path d="M79 53.9405C79 62.7452 71.8603 70 62.9405 70C54.0207 70 47 62.7414 47 53.9405C47 45.1397 54.1397 38 62.9405 38C71.7414 38 79 45.1397 79 53.9405Z" fill="white" stroke="url(#paint1_linear_196_1247)" stroke-width="2" stroke-linecap="round" stroke-linejoin="round"/>
<path d="M66.2346 51.2344C66.2668 51 66.2828 50.7578 66.2828 50.5C66.2828 50.25 66.2668 50 66.2266 49.7656L67.857 48.5312C68.0016 48.4219 68.0418 48.2109 67.9534 48.0547L66.4113 45.4609C66.315 45.2891 66.1142 45.2344 65.9375 45.2891L64.0179 46.0391C63.6163 45.7422 63.1906 45.4922 62.7167 45.3047L62.4276 43.3203C62.3955 43.1328 62.2348 43 62.0421 43H58.9579C58.7652 43 58.6126 43.1328 58.5804 43.3203L58.2913 45.3047C57.8174 45.4922 57.3837 45.75 56.9901 46.0391L55.0706 45.2891C54.8939 45.2266 54.6931 45.2891 54.5967 45.4609L53.0626 48.0547C52.9663 48.2187 52.9984 48.4219 53.159 48.5312L54.7895 49.7656C54.7493 50 54.7172 50.2578 54.7172 50.5C54.7172 50.7422 54.7332 51 54.7734 51.2344L53.143 52.4687C52.9984 52.5781 52.9582 52.7891 53.0466 52.9453L54.5887 55.5391C54.6851 55.7109 54.8858 55.7656 55.0625 55.7109L56.9821 54.9609C57.3837 55.2578 57.8094 55.5078 58.2833 55.6953L58.5724 57.6797C58.6126 57.8672 58.7652 58 58.9579 58H62.0421C62.2348 58 62.3955 57.8672 62.4196 57.6797L62.7087 55.6953C63.1826 55.5078 63.6163 55.2578 64.0099 54.9609L65.9294 55.7109C66.1061 55.7734 66.3069 55.7109 66.4033 55.5391L67.9454 52.9453C68.0418 52.7734 68.0016 52.5781 67.849 52.4687L66.2346 51.2344ZM60.5 53.3125C58.9097 53.3125 57.6086 52.0469 57.6086 50.5C57.6086 48.9531 58.9097 47.6875 60.5 47.6875C62.0903 47.6875 63.3914 48.9531 63.3914 50.5C63.3914 52.0469 62.0903 53.3125 60.5 53.3125Z" fill="url(#paint2_linear_196_1247)"/>
<path d="M71.9408 59.9406C71.9601 59.8 71.9697 59.6547 71.9697 59.5C71.9697 59.35 71.9601 59.2 71.936 59.0594L72.9142 58.3187C73.001 58.2531 73.0251 58.1266 72.9721 58.0328L72.0468 56.4766C71.989 56.3734 71.8685 56.3406 71.7625 56.3734L70.6107 56.8234C70.3698 56.6453 70.1144 56.4953 69.83 56.3828L69.6566 55.1922C69.6373 55.0797 69.5409 55 69.4253 55H67.5747C67.4591 55 67.3675 55.0797 67.3483 55.1922L67.1748 56.3828C66.8904 56.4953 66.6302 56.65 66.3941 56.8234L65.2423 56.3734C65.1363 56.3359 65.0158 56.3734 64.958 56.4766L64.0376 58.0328C63.9798 58.1312 63.999 58.2531 64.0954 58.3187L65.0737 59.0594C65.0496 59.2 65.0303 59.3547 65.0303 59.5C65.0303 59.6453 65.0399 59.8 65.064 59.9406L64.0858 60.6813C63.999 60.7469 63.9749 60.8734 64.028 60.9672L64.9532 62.5234C65.011 62.6266 65.1315 62.6594 65.2375 62.6266L66.3893 62.1766C66.6302 62.3547 66.8856 62.5047 67.17 62.6172L67.3434 63.8078C67.3675 63.9203 67.4591 64 67.5747 64H69.4253C69.5409 64 69.6373 63.9203 69.6517 63.8078L69.8252 62.6172C70.1096 62.5047 70.3698 62.3547 70.6059 62.1766L71.7577 62.6266C71.8637 62.6641 71.9842 62.6266 72.042 62.5234L72.9672 60.9672C73.0251 60.8641 73.001 60.7469 72.9094 60.6813L71.9408 59.9406ZM68.5 61.1875C67.5458 61.1875 66.7652 60.4281 66.7652 59.5C66.7652 58.5719 67.5458 57.8125 68.5 57.8125C69.4542 57.8125 70.2348 58.5719 70.2348 59.5C70.2348 60.4281 69.4542 61.1875 68.5 61.1875Z" fill="url(#paint3_linear_196_1247)"/>
<defs>
<linearGradient id="paint0_linear_196_1247" x1="15" y1="26.3443" x2="62.9283" y2="55.2633" gradientUnits="userSpaceOnUse">
<stop stop-color="#706BF1"/>
<stop offset="1" stop-color="#38BCFD"/>
</linearGradient>
<linearGradient id="paint1_linear_196_1247" x1="63" y1="38" x2="63" y2="70" gradientUnits="userSpaceOnUse">
<stop stop-color="#706BF1"/>
<stop offset="1" stop-color="#38BCFD"/>
</linearGradient>
<linearGradient id="paint2_linear_196_1247" x1="54.7961" y1="43" x2="54.7961" y2="58" gradientUnits="userSpaceOnUse">
<stop stop-color="#706BF1"/>
<stop offset="1" stop-color="#38BCFD"/>
</linearGradient>
<linearGradient id="paint3_linear_196_1247" x1="65.0777" y1="55" x2="65.0777" y2="64" gradientUnits="userSpaceOnUse">
<stop stop-color="#706BF1"/>
<stop offset="1" stop-color="#38BCFD"/>
</linearGradient>
</defs>
</svg>
