<svg width="69" height="49" viewBox="0 0 69 49" fill="none" xmlns="http://www.w3.org/2000/svg">
<path fill-rule="evenodd" clip-rule="evenodd" d="M27.6866 2C26.4371 2 25.4337 3.04138 25.4337 4.25283C25.4337 5.42632 26.4622 6.44232 27.6866 6.44232C28.8984 6.44232 29.8761 5.50199 29.8761 4.25283C29.8761 2.97786 28.8726 2 27.6866 2ZM27.6866 0C25.3073 0 23.4337 1.96218 23.4337 4.25283C23.4337 5.3096 23.8405 6.27003 24.4977 7.00392L17.6575 16.7232C16.9896 16.2722 16.1864 16.0083 15.3248 16.0083C14.1435 16.0083 13.0719 16.5045 12.3082 17.2986L8.06847 14.8393C8.26854 14.3516 8.37898 13.8186 8.37898 13.2613C8.37898 10.9579 6.49283 9.07178 4.18949 9.07178C1.88615 9.07178 0 10.9579 0 13.2613C0 15.5646 1.88615 17.4508 4.18949 17.4508C5.21324 17.4508 6.15457 17.0782 6.88451 16.4619C6.90331 16.4746 6.92265 16.4867 6.94254 16.4983L11.3028 19.0276C11.1938 19.3994 11.1353 19.7921 11.1353 20.1978C11.1353 22.5012 13.0215 24.3873 15.3248 24.3873C17.6282 24.3873 19.5143 22.5012 19.5143 20.1978C19.5143 19.4954 19.3389 18.8317 19.0297 18.2485L26.1391 8.14679C26.623 8.33761 27.1463 8.44232 27.6866 8.44232C28.7428 8.44232 29.7159 8.05738 30.4578 7.40914C30.5544 7.59205 30.7084 7.74672 30.9092 7.84309L34.7919 9.70668C34.7438 9.96372 34.7186 10.2304 34.7186 10.5049C34.7186 12.8842 36.6808 14.7578 38.9714 14.7578C41.3001 14.7578 43.1609 12.7827 43.1609 10.5049C43.1609 8.20161 41.2748 6.31545 38.9714 6.31545C37.6167 6.31545 36.4056 6.91744 35.6256 7.88839L31.7746 6.04002C31.6929 6.0008 31.6085 5.97368 31.5234 5.95793C31.7499 5.44156 31.8761 4.86612 31.8761 4.25283C31.8761 1.89901 30.0027 0 27.6866 0ZM36.7186 10.5049C36.7186 10.2551 36.758 10.0169 36.8315 9.79574C36.8707 9.74365 36.9054 9.68695 36.9347 9.62591C36.971 9.55017 36.997 9.47213 37.0131 9.3934C37.3936 8.74147 38.1102 8.31545 38.9714 8.31545C40.1702 8.31545 41.1609 9.30618 41.1609 10.5049C41.1609 11.7293 40.1449 12.7578 38.9714 12.7578C37.76 12.7578 36.7186 11.7545 36.7186 10.5049ZM2 13.2613C2 12.0625 2.99072 11.0718 4.18949 11.0718C5.38826 11.0718 6.37898 12.0625 6.37898 13.2613C6.37898 14.46 5.38826 15.4508 4.18949 15.4508C2.99072 15.4508 2 14.46 2 13.2613ZM13.1353 20.1978C13.1353 18.9991 14.126 18.0083 15.3248 18.0083C16.5236 18.0083 17.5143 18.9991 17.5143 20.1978C17.5143 21.3966 16.5236 22.3873 15.3248 22.3873C14.126 22.3873 13.1353 21.3966 13.1353 20.1978ZM4.18949 30.5824C2.97769 30.5824 2 31.5227 2 32.7719C2 34.0468 3.0035 35.0247 4.18949 35.0247C5.36298 35.0247 6.37898 33.9963 6.37898 32.7719C6.37898 31.5731 5.38826 30.5824 4.18949 30.5824ZM0 32.7719C0 30.3922 1.89919 28.5824 4.18949 28.5824C6.39646 28.5824 8.22041 30.314 8.36919 32.485L8.37151 32.4856L11.6025 33.28C12.2972 31.9205 13.6967 30.9549 15.3248 30.9549C16.9825 30.9549 18.4134 31.9277 19.093 33.3439L23.8026 29.7097C23.5664 29.1933 23.4337 28.6213 23.4337 28.0178C23.4337 25.7272 25.3073 23.765 27.6866 23.765C29.9816 23.765 31.8419 25.6296 31.8756 27.9537C31.9115 27.9549 31.9478 27.9581 31.9842 27.9633L35.0456 28.4016C35.6863 26.8895 37.2001 25.8285 38.9714 25.8285C41.2617 25.8285 43.1609 27.6384 43.1609 30.018C43.1609 32.3976 41.2617 34.2075 38.9714 34.2075C36.8122 34.2075 34.9249 32.5352 34.7344 30.3774L31.7007 29.9432C31.6136 29.9307 31.5307 29.9073 31.4532 29.8746C30.7688 31.2775 29.3281 32.2073 27.6866 32.2073C26.7038 32.2073 25.7773 31.8609 25.0415 31.2799L19.9794 35.1861C19.8378 35.2954 19.6761 35.3608 19.5108 35.3844C19.4195 37.6764 17.5581 39.3973 15.3248 39.3973C13.0271 39.3973 11.1446 37.5203 11.1354 35.2247L8.02509 34.46C7.37821 35.9442 5.91179 37.0247 4.18949 37.0247C1.87338 37.0247 0 35.1257 0 32.7719ZM25.9381 29.3761C26.3545 29.8772 26.9887 30.2073 27.6866 30.2073C28.8984 30.2073 29.8761 29.267 29.8761 28.0178C29.8761 26.7429 28.8726 25.765 27.6866 25.765C26.4371 25.765 25.4337 26.8064 25.4337 28.0178C25.4337 28.4858 25.5973 28.9288 25.8717 29.2923C25.8862 29.3088 25.9003 29.3258 25.914 29.3435C25.9223 29.3542 25.9303 29.3651 25.9381 29.3761ZM13.1353 35.2078C13.1353 33.9834 14.1513 32.9549 15.3248 32.9549C16.5108 32.9549 17.5143 33.9328 17.5143 35.2078C17.5143 36.4569 16.5366 37.3973 15.3248 37.3973C14.126 37.3973 13.1353 36.4065 13.1353 35.2078ZM36.7186 30.018C36.7186 29.9613 36.7208 29.9051 36.7252 29.8493C36.7465 29.7886 36.7623 29.725 36.7717 29.6589C36.7793 29.6059 36.7826 29.5533 36.7818 29.5014C37.0174 28.5546 37.887 27.8285 38.9714 27.8285C40.1833 27.8285 41.1609 28.7689 41.1609 30.018C41.1609 31.2672 40.1833 32.2075 38.9714 32.2075C37.747 32.2075 36.7186 31.1915 36.7186 30.018Z" fill="url(#paint0_linear_194_1242)"/>
<path d="M68 31.9405C68 40.7452 60.8603 48 51.9405 48C43.0207 48 36 40.7414 36 31.9405C36 23.1397 43.1397 16 51.9405 16C60.7414 16 68 23.1397 68 31.9405Z" fill="#F1F2F8" stroke="url(#paint1_linear_194_1242)" stroke-width="2" stroke-linecap="round" stroke-linejoin="round"/>
<path d="M49.2308 32.925L45.6154 29.375L42 32.9L49.2308 40L61 28.55L57.359 25L49.2308 32.925Z" fill="url(#paint2_linear_194_1242)"/>
<defs>
<linearGradient id="paint0_linear_194_1242" x1="1.65415e-07" y1="1.74388" x2="39.1854" y2="39.3771" gradientUnits="userSpaceOnUse">
<stop stop-color="#706BF1"/>
<stop offset="1" stop-color="#38BCFD"/>
</linearGradient>
<linearGradient id="paint1_linear_194_1242" x1="52" y1="16" x2="52" y2="48" gradientUnits="userSpaceOnUse">
<stop stop-color="#706BF1"/>
<stop offset="1" stop-color="#38BCFD"/>
</linearGradient>
<linearGradient id="paint2_linear_194_1242" x1="44.2751" y1="25" x2="44.2751" y2="40" gradientUnits="userSpaceOnUse">
<stop stop-color="#706BF1"/>
<stop offset="1" stop-color="#38BCFD"/>
</linearGradient>
</defs>
</svg>
