<svg width="90" height="90" viewBox="0 0 90 90" fill="none" xmlns="http://www.w3.org/2000/svg">
<rect width="90" height="90" rx="45" fill="white"/>
<path fill-rule="evenodd" clip-rule="evenodd" d="M38.6866 22C37.4371 22 36.4337 23.0414 36.4337 24.2528C36.4337 25.4263 37.4622 26.4423 38.6866 26.4423C39.8984 26.4423 40.8761 25.502 40.8761 24.2528C40.8761 22.9779 39.8726 22 38.6866 22ZM38.6866 20C36.3073 20 34.4337 21.9622 34.4337 24.2528C34.4337 25.3096 34.8405 26.27 35.4977 27.0039L28.6575 36.7232C27.9896 36.2722 27.1864 36.0083 26.3248 36.0083C25.1435 36.0083 24.0719 36.5045 23.3082 37.2986L19.0685 34.8393C19.2685 34.3516 19.379 33.8186 19.379 33.2613C19.379 30.9579 17.4928 29.0718 15.1895 29.0718C12.8862 29.0718 11 30.9579 11 33.2613C11 35.5646 12.8862 37.4508 15.1895 37.4508C16.2132 37.4508 17.1546 37.0782 17.8845 36.4619C17.9033 36.4746 17.9226 36.4867 17.9425 36.4983L22.3028 39.0276C22.1938 39.3994 22.1353 39.7921 22.1353 40.1978C22.1353 42.5012 24.0215 44.3873 26.3248 44.3873C28.6282 44.3873 30.5143 42.5012 30.5143 40.1978C30.5143 39.4954 30.3389 38.8317 30.0297 38.2485L37.1391 28.1468C37.623 28.3376 38.1463 28.4423 38.6866 28.4423C39.7428 28.4423 40.7159 28.0574 41.4578 27.4091C41.5544 27.5921 41.7084 27.7467 41.9092 27.8431L45.7919 29.7067C45.7438 29.9637 45.7186 30.2304 45.7186 30.5049C45.7186 32.8842 47.6808 34.7578 49.9714 34.7578C52.3001 34.7578 54.1609 32.7827 54.1609 30.5049C54.1609 28.2016 52.2748 26.3155 49.9714 26.3155C48.6167 26.3155 47.4056 26.9174 46.6256 27.8884L42.7746 26.04C42.6929 26.0008 42.6085 25.9737 42.5234 25.9579C42.7499 25.4416 42.8761 24.8661 42.8761 24.2528C42.8761 21.899 41.0027 20 38.6866 20ZM47.7186 30.5049C47.7186 30.2551 47.758 30.0169 47.8315 29.7957C47.8707 29.7437 47.9054 29.6869 47.9347 29.6259C47.971 29.5502 47.997 29.4721 48.0131 29.3934C48.3936 28.7415 49.1102 28.3155 49.9714 28.3155C51.1702 28.3155 52.1609 29.3062 52.1609 30.5049C52.1609 31.7293 51.1449 32.7578 49.9714 32.7578C48.76 32.7578 47.7186 31.7545 47.7186 30.5049ZM13 33.2613C13 32.0625 13.9907 31.0718 15.1895 31.0718C16.3883 31.0718 17.379 32.0625 17.379 33.2613C17.379 34.46 16.3883 35.4508 15.1895 35.4508C13.9907 35.4508 13 34.46 13 33.2613ZM24.1353 40.1978C24.1353 38.9991 25.126 38.0083 26.3248 38.0083C27.5236 38.0083 28.5143 38.9991 28.5143 40.1978C28.5143 41.3966 27.5236 42.3873 26.3248 42.3873C25.126 42.3873 24.1353 41.3966 24.1353 40.1978ZM15.1895 50.5824C13.9777 50.5824 13 51.5227 13 52.7719C13 54.0468 14.0035 55.0247 15.1895 55.0247C16.363 55.0247 17.379 53.9963 17.379 52.7719C17.379 51.5731 16.3883 50.5824 15.1895 50.5824ZM11 52.7719C11 50.3922 12.8992 48.5824 15.1895 48.5824C17.3965 48.5824 19.2204 50.314 19.3692 52.485L19.3715 52.4856L22.6025 53.28C23.2972 51.9205 24.6967 50.9549 26.3248 50.9549C27.9825 50.9549 29.4134 51.9277 30.093 53.3439L34.8026 49.7097C34.5664 49.1933 34.4337 48.6213 34.4337 48.0178C34.4337 45.7272 36.3073 43.765 38.6866 43.765C40.9816 43.765 42.8419 45.6296 42.8756 47.9537C42.9115 47.9549 42.9478 47.9581 42.9842 47.9633L46.0456 48.4016C46.6863 46.8895 48.2001 45.8285 49.9714 45.8285C52.2617 45.8285 54.1609 47.6384 54.1609 50.018C54.1609 52.3976 52.2617 54.2075 49.9714 54.2075C47.8122 54.2075 45.9249 52.5352 45.7344 50.3774L42.7007 49.9432C42.6136 49.9307 42.5307 49.9073 42.4532 49.8746C41.7688 51.2775 40.3281 52.2073 38.6866 52.2073C37.7038 52.2073 36.7773 51.8609 36.0415 51.2799L30.9794 55.1861C30.8378 55.2954 30.6761 55.3608 30.5108 55.3844C30.4195 57.6764 28.5581 59.3973 26.3248 59.3973C24.0271 59.3973 22.1446 57.5203 22.1354 55.2247L19.0251 54.46C18.3782 55.9442 16.9118 57.0247 15.1895 57.0247C12.8734 57.0247 11 55.1257 11 52.7719ZM36.9381 49.3761C37.3545 49.8772 37.9887 50.2073 38.6866 50.2073C39.8984 50.2073 40.8761 49.267 40.8761 48.0178C40.8761 46.7429 39.8726 45.765 38.6866 45.765C37.4371 45.765 36.4337 46.8064 36.4337 48.0178C36.4337 48.4858 36.5973 48.9288 36.8717 49.2923C36.8862 49.3088 36.9003 49.3258 36.914 49.3435C36.9223 49.3542 36.9303 49.3651 36.9381 49.3761ZM24.1353 55.2078C24.1353 53.9834 25.1513 52.9549 26.3248 52.9549C27.5108 52.9549 28.5143 53.9328 28.5143 55.2078C28.5143 56.4569 27.5366 57.3973 26.3248 57.3973C25.126 57.3973 24.1353 56.4065 24.1353 55.2078ZM47.7186 50.018C47.7186 49.9613 47.7208 49.9051 47.7252 49.8493C47.7465 49.7886 47.7623 49.725 47.7717 49.6589C47.7793 49.6059 47.7826 49.5533 47.7818 49.5014C48.0174 48.5546 48.887 47.8285 49.9714 47.8285C51.1833 47.8285 52.1609 48.7689 52.1609 50.018C52.1609 51.2672 51.1833 52.2075 49.9714 52.2075C48.747 52.2075 47.7186 51.1915 47.7186 50.018Z" fill="url(#paint0_linear_196_1247)"/>
<path d="M79 51.9405C79 60.7452 71.8603 68 62.9405 68C54.0207 68 47 60.7414 47 51.9405C47 43.1397 54.1397 36 62.9405 36C71.7414 36 79 43.1397 79 51.9405Z" fill="white" stroke="url(#paint1_linear_196_1247)" stroke-width="2" stroke-linecap="round" stroke-linejoin="round"/>
<path d="M60.2308 52.925L56.6154 49.375L53 52.9L60.2308 60L72 48.55L68.359 45L60.2308 52.925Z" fill="url(#paint2_linear_196_1247)"/>
<defs>
<linearGradient id="paint0_linear_196_1247" x1="11" y1="21.7439" x2="50.1854" y2="59.3771" gradientUnits="userSpaceOnUse">
<stop stop-color="#706BF1"/>
<stop offset="1" stop-color="#38BCFD"/>
</linearGradient>
<linearGradient id="paint1_linear_196_1247" x1="63" y1="36" x2="63" y2="68" gradientUnits="userSpaceOnUse">
<stop stop-color="#706BF1"/>
<stop offset="1" stop-color="#38BCFD"/>
</linearGradient>
<linearGradient id="paint2_linear_196_1247" x1="55.2751" y1="45" x2="55.2751" y2="60" gradientUnits="userSpaceOnUse">
<stop stop-color="#706BF1"/>
<stop offset="1" stop-color="#38BCFD"/>
</linearGradient>
</defs>
</svg>
