<svg width="100" height="95" viewBox="0 0 100 95" fill="none" xmlns="http://www.w3.org/2000/svg">
<path d="M95.5625 0H4.4375C1.98674 0 0 1.98674 0 4.4375V89.8928C0 92.3436 1.98674 94.3304 4.4375 94.3304H95.5625C98.0133 94.3304 100 92.3436 100 89.8928V4.4375C100 1.98674 98.0133 0 95.5625 0Z" fill="url(#paint0_linear_275_779)"/>
<path d="M71.8608 48.127C71.6588 47.9381 71.4047 47.8403 71.092 47.8403H39.0168C38.704 47.8403 38.4499 47.9381 38.2479 48.127C38.046 48.316 37.9482 48.5635 37.9482 48.8567V50.8895C37.9482 51.1892 38.046 51.4303 38.2479 51.6193C38.4499 51.8082 38.704 51.9059 39.0168 51.9059H71.092C71.4047 51.9059 71.6588 51.8082 71.8608 51.6193C72.0628 51.4303 72.1605 51.1827 72.1605 50.8895V48.8567C72.1605 48.557 72.0628 48.316 71.8608 48.127Z" fill="white" stroke="white" stroke-width="0.175" stroke-linecap="round" stroke-linejoin="round"/>
<path d="M20.5379 18.0839C20.3163 17.8689 20.0557 17.7646 19.769 17.7646C19.4824 17.7646 19.2217 17.8689 19.0002 18.0839L17.3323 19.6737C17.1108 19.8887 17 20.1297 17 20.4034C17 20.677 17.1108 20.9246 17.3323 21.1331L30.4934 33.6231L17.3323 46.1196C17.1108 46.3346 17 46.5757 17 46.8493C17 47.123 17.1108 47.3706 17.3323 47.579L19.0002 49.1688C19.2217 49.3838 19.4758 49.4881 19.769 49.4881C20.0557 49.4881 20.3163 49.3838 20.5379 49.1688L36.1096 34.3528C36.3311 34.1378 36.4419 33.8967 36.4419 33.6231C36.4419 33.3494 36.3311 33.1019 36.1096 32.8934L20.5379 18.0774V18.0839Z" fill="white" stroke="white" stroke-width="0.175" stroke-linecap="round" stroke-linejoin="round"/>
<defs>
<linearGradient id="paint0_linear_275_779" x1="27.7277" y1="2403.3" x2="27.7277" y2="2247.05" gradientUnits="userSpaceOnUse">
<stop stop-color="#252525"/>
<stop offset="1" stop-color="#4C4C4C"/>
</linearGradient>
</defs>
</svg>
