<svg width="72" height="80" viewBox="0 0 72 80" fill="none" xmlns="http://www.w3.org/2000/svg">
<path d="M24 34H16V42H24V34ZM40 34H32V42H40V34ZM56 34H48V42H56V34ZM64 8H60V0H52V8H20V0H12V8H8C3.56 8 0.04 11.6 0.04 16L0 72C0 76.4 3.56 80 8 80H64C68.4 80 72 76.4 72 72V16C72 11.6 68.4 8 64 8ZM64 72H8V28H64V72Z" fill="#7D7D7D"/>
<path d="M16 46.5H24V54.5H16V46.5Z" fill="#7D7D7D"/>
<path d="M32 46.5H40V54.5H32V46.5Z" fill="#7D7D7D"/>
<path d="M48 46.5H56V54.5H48V46.5Z" fill="#7D7D7D"/>
<path d="M16 46.5H24V54.5H16V46.5Z" fill="#7D7D7D"/>
<path d="M32 46.5H40V54.5H32V46.5Z" fill="#7D7D7D"/>
<path d="M48 46.5H56V54.5H48V46.5Z" fill="#7D7D7D"/>
<path d="M16 58.5H24V66.5H16V58.5Z" fill="#7D7D7D"/>
<path d="M32 58.5H40V66.5H32V58.5Z" fill="#7D7D7D"/>
<path d="M48 58.5H56V66.5H48V58.5Z" fill="#7D7D7D"/>
<path d="M16 58.5H24V66.5H16V58.5Z" fill="#7D7D7D"/>
<path d="M32 58.5H40V66.5H32V58.5Z" fill="#7D7D7D"/>
<path d="M48 58.5H56V66.5H48V58.5Z" fill="#7D7D7D"/>
</svg>
