<svg width="30" height="30" viewBox="0 0 30 30" fill="none" xmlns="http://www.w3.org/2000/svg">
<path d="M25 6H21.0375L18.75 3.5H11.25L8.9625 6H5C3.625 6 2.5 7.125 2.5 8.5V23.5C2.5 24.875 3.625 26 5 26H25C26.375 26 27.5 24.875 27.5 23.5V8.5C27.5 7.125 26.375 6 25 6ZM25 23.5H5V8.5H10.0625L12.35 6H17.65L19.9375 8.5H25V23.5ZM15 9.75C11.55 9.75 8.75 12.55 8.75 16C8.75 19.45 11.55 22.25 15 22.25C18.45 22.25 21.25 19.45 21.25 16C21.25 12.55 18.45 9.75 15 9.75ZM15 19.75C12.9375 19.75 11.25 18.0625 11.25 16C11.25 13.9375 12.9375 12.25 15 12.25C17.0625 12.25 18.75 13.9375 18.75 16C18.75 18.0625 17.0625 19.75 15 19.75Z" fill="white"/>
</svg>
