<svg width="96" height="96" viewBox="0 0 96 96" fill="none" xmlns="http://www.w3.org/2000/svg">
<g clip-path="url(#clip0_179_792)">
<path d="M76.2843 19.7159C60.6714 4.10299 35.3286 4.10299 19.7157 19.7159C4.10281 35.3288 4.10281 60.6715 19.7157 76.2845C35.3286 91.8974 60.6714 91.8974 76.2843 76.2845C91.8972 60.6715 91.8972 35.3288 76.2843 19.7159ZM56.4853 62.1423L48 53.657L39.5147 62.1423C37.9591 63.698 35.4135 63.698 33.8579 62.1423C32.3022 60.5867 32.3022 58.0411 33.8579 56.4855L42.3431 48.0002L33.8579 39.5149C32.3022 37.9593 32.3022 35.4137 33.8579 33.858C35.4135 32.3024 37.9591 32.3024 39.5147 33.858L48 42.3433L56.4853 33.858C58.0409 32.3024 60.5865 32.3024 62.1421 33.858C63.6978 35.4137 63.6978 37.9593 62.1421 39.5149L53.6569 48.0002L62.1421 56.4855C63.6978 58.0411 63.6978 60.5867 62.1421 62.1423C60.5865 63.698 58.0409 63.698 56.4853 62.1423Z" fill="black"/>
</g>
<defs>
<clipPath id="clip0_179_792">
<rect width="96" height="96" fill="white"/>
</clipPath>
</defs>
</svg>
