<svg width="90" height="74" viewBox="0 0 90 74" fill="none" xmlns="http://www.w3.org/2000/svg">
<path d="M20.46 63.25H1V68.44C1 70.8 5.36 72.71 10.73 72.71C16.1 72.71 20.46 70.8 20.46 68.44V63.25Z" fill="white" stroke="#00487C" stroke-width="2" stroke-linejoin="round"/>
<path d="M20.46 62.8498C20.46 65.2098 16.1 67.1198 10.73 67.1198C5.36 67.1198 1 65.2098 1 62.8498C1 60.4898 5.36 58.5898 10.73 58.5898C16.1 58.5898 20.46 60.4998 20.46 62.8498Z" fill="white" stroke="#00487C" stroke-width="2" stroke-linejoin="round"/>
<path d="M20.46 57.6602H1V62.8502C1 65.2102 5.36 67.1202 10.73 67.1202C16.1 67.1202 20.46 65.2102 20.46 62.8502V57.6602Z" fill="white" stroke="#00487C" stroke-width="2" stroke-linejoin="round"/>
<path d="M20.46 57.26C20.46 59.62 16.1 61.53 10.73 61.53C5.36 61.53 1 59.62 1 57.26C1 54.9 5.36 53 10.73 53C16.1 53 20.46 54.91 20.46 57.26V57.26Z" fill="#D1E3F2"/>
<path d="M10.7302 60.8304C5.41019 60.8304 1.7002 58.9504 1.7002 57.2604C1.7002 55.5704 5.41019 53.6904 10.7302 53.6904C16.0502 53.6904 19.7702 55.5704 19.7702 57.2604C19.7702 58.9504 16.0602 60.8304 10.7302 60.8304Z" stroke="white"/>
<path d="M20.46 57.26C20.46 59.62 16.1 61.53 10.73 61.53C5.36 61.53 1 59.62 1 57.26C1 54.9 5.36 53 10.73 53C16.1 53 20.46 54.91 20.46 57.26V57.26Z" stroke="#00487C" stroke-width="2" stroke-linejoin="round"/>
<path d="M9.97021 69.6895H11.4802" stroke="#00487C" stroke-width="2" stroke-linejoin="round"/>
<path d="M9.97021 64.0996H11.4802" stroke="#00487C" stroke-width="2" stroke-linejoin="round"/>
<path d="M54.46 63.25H35V68.44C35 70.8 39.36 72.71 44.73 72.71C50.1 72.71 54.46 70.8 54.46 68.44V63.25V63.25Z" fill="white" stroke="#00487C" stroke-width="2" stroke-linejoin="round"/>
<path d="M54.46 62.8498C54.46 65.2098 50.1 67.1198 44.73 67.1198C39.36 67.1198 35 65.2098 35 62.8498C35 60.4898 39.36 58.5898 44.73 58.5898C50.1 58.5898 54.46 60.4998 54.46 62.8498V62.8498Z" fill="white" stroke="#00487C" stroke-width="2" stroke-linejoin="round"/>
<path d="M54.46 57.6602H35V62.8502C35 65.2102 39.36 67.1202 44.73 67.1202C50.1 67.1202 54.46 65.2102 54.46 62.8502V57.6602V57.6602Z" fill="white" stroke="#00487C" stroke-width="2" stroke-linejoin="round"/>
<path d="M54.46 57.26C54.46 59.62 50.1 61.53 44.73 61.53C39.36 61.53 35 59.62 35 57.26C35 54.9 39.36 53 44.73 53C50.1 53 54.46 54.91 54.46 57.26V57.26Z" fill="#D1E3F2"/>
<path d="M44.7302 60.8304C39.4102 60.8304 35.7002 58.9504 35.7002 57.2604C35.7002 55.5704 39.4102 53.6904 44.7302 53.6904C50.0502 53.6904 53.7702 55.5704 53.7702 57.2604C53.7702 58.9504 50.0602 60.8304 44.7302 60.8304Z" stroke="white"/>
<path d="M54.46 57.26C54.46 59.62 50.1 61.53 44.73 61.53C39.36 61.53 35 59.62 35 57.26C35 54.9 39.36 53 44.73 53C50.1 53 54.46 54.91 54.46 57.26V57.26Z" stroke="#00487C" stroke-width="2" stroke-linejoin="round"/>
<path d="M43.9702 69.6895H45.4802" stroke="#00487C" stroke-width="2" stroke-linejoin="round"/>
<path d="M43.9702 64.0996H45.4802" stroke="#00487C" stroke-width="2" stroke-linejoin="round"/>
<path d="M88.5899 63.25H69.1299V68.44C69.1299 70.8 73.4899 72.71 78.8599 72.71C84.2299 72.71 88.5899 70.8 88.5899 68.44V63.25Z" fill="white" stroke="#00487C" stroke-width="2" stroke-linejoin="round"/>
<path d="M88.5899 62.8498C88.5899 65.2098 84.2299 67.1198 78.8599 67.1198C73.4899 67.1198 69.1299 65.2098 69.1299 62.8498C69.1299 60.4898 73.4899 58.5898 78.8599 58.5898C84.2299 58.5898 88.5899 60.4998 88.5899 62.8498Z" fill="white" stroke="#00487C" stroke-width="2" stroke-linejoin="round"/>
<path d="M88.5899 57.6602H69.1299V62.8502C69.1299 65.2102 73.4899 67.1202 78.8599 67.1202C84.2299 67.1202 88.5899 65.2102 88.5899 62.8502V57.6602Z" fill="white" stroke="#00487C" stroke-width="2" stroke-linejoin="round"/>
<path d="M88.5899 57.26C88.5899 59.62 84.2299 61.53 78.8599 61.53C73.4899 61.53 69.1299 59.62 69.1299 57.26C69.1299 54.9 73.4899 53 78.8599 53C84.2299 53 88.5899 54.91 88.5899 57.26V57.26Z" fill="#D1E3F2"/>
<path d="M78.8601 60.8304C73.5401 60.8304 69.8301 58.9504 69.8301 57.2604C69.8301 55.5704 73.5401 53.6904 78.8601 53.6904C84.1801 53.6904 87.9001 55.5704 87.9001 57.2604C87.9001 58.9504 84.1901 60.8304 78.8601 60.8304V60.8304Z" stroke="white"/>
<path d="M88.5899 57.26C88.5899 59.62 84.2299 61.53 78.8599 61.53C73.4899 61.53 69.1299 59.62 69.1299 57.26C69.1299 54.9 73.4899 53 78.8599 53C84.2299 53 88.5899 54.91 88.5899 57.26V57.26Z" stroke="#00487C" stroke-width="2" stroke-linejoin="round"/>
<path d="M78.1099 69.6895H79.6199" stroke="#00487C" stroke-width="2" stroke-linejoin="round"/>
<path d="M78.1099 64.0996H79.6199" stroke="#00487C" stroke-width="2" stroke-linejoin="round"/>
<path d="M10.73 48.6595V39.6289H78.86V48.6595" fill="white"/>
<path d="M10.73 48.6595V39.6289H78.86V48.6595" stroke="#A9D1EA" stroke-width="2" stroke-linecap="round" stroke-linejoin="round"/>
<path d="M44.79 27V48.6598" stroke="#A9D1EA" stroke-width="2" stroke-linecap="round" stroke-linejoin="round"/>
<path d="M24.8497 32.6204C24.8497 33.9904 23.7397 35.0904 22.3797 35.0904C21.0197 35.0904 19.9097 33.9804 19.9097 32.6204C19.9097 31.2604 21.0197 30.1504 22.3797 30.1504C23.7397 30.1504 24.8497 31.2604 24.8497 32.6204Z" fill="#A9D1EA"/>
<path d="M54.6699 48.6201H57.5799" stroke="#2F4382" stroke-width="2"/>
<path d="M60.3799 48.6201H63.2899" stroke="#2F4382" stroke-width="2"/>
<path d="M66.0898 48.6201H68.9998" stroke="#2F4382" stroke-width="2"/>
<path d="M69.8397 2.3C69.8397 3.57 68.8097 4.6 67.5397 4.6C66.2697 4.6 65.2397 3.57 65.2397 2.3C65.2397 1.03 66.2697 0 67.5397 0C68.8097 0 69.8397 1.03 69.8397 2.3Z" fill="#A9D1EA"/>
<path d="M61.9697 15.16H61.7297C61.8897 14.43 61.9697 13.68 61.9697 12.9C61.9697 7.04004 57.2197 2.29004 51.3597 2.29004C46.6097 2.29004 42.5897 5.41004 41.2397 9.72004C39.7897 8.60004 37.9797 7.93004 36.0197 7.93004C31.7497 7.93004 28.2097 11.06 27.5597 15.15H26.7697C23.3997 15.15 20.6797 17.88 20.6797 21.24C20.6797 24.6 23.4097 27.33 26.7697 27.33H61.9697C65.3397 27.33 68.0597 24.6 68.0597 21.24C68.0597 17.88 65.3297 15.15 61.9697 15.15V15.16Z" fill="#D1E3F2"/>
<path d="M61.9697 15.16H61.7297C61.8897 14.43 61.9697 13.68 61.9697 12.9C61.9697 7.04004 57.2197 2.29004 51.3597 2.29004C46.6097 2.29004 42.5897 5.41004 41.2397 9.72004C39.7897 8.60004 37.9797 7.93004 36.0197 7.93004C31.7497 7.93004 28.2097 11.06 27.5597 15.15H26.7697C23.3997 15.15 20.6797 17.88 20.6797 21.24C20.6797 24.6 23.4097 27.33 26.7697 27.33H61.9697C65.3397 27.33 68.0597 24.6 68.0597 21.24C68.0597 17.88 65.3297 15.15 61.9697 15.15V15.16Z" stroke="#A9D1EA" stroke-width="2"/>
<path d="M61.9698 26.2297H26.7698C24.0298 26.2297 21.7998 23.9997 21.7998 21.2597C21.7998 18.5197 24.0298 16.2897 26.7698 16.2897H28.5198L28.6698 15.3497C29.2498 11.7097 32.3398 9.06969 36.0198 9.06969C37.6698 9.06969 39.2398 9.60969 40.5598 10.6197L41.8298 11.5997L42.3098 10.0697C43.5598 6.09969 47.1998 3.42969 51.3598 3.42969C56.5898 3.42969 60.8498 7.68969 60.8498 12.9197C60.8498 13.5897 60.7798 14.2697 60.6298 14.9397L60.3398 16.2997H61.9698C64.7098 16.2997 66.9398 18.5297 66.9398 21.2697C66.9398 24.0097 64.7098 26.2397 61.9698 26.2397V26.2297Z" stroke="white"/>
<path d="M7.27979 8.78027H10.1898" stroke="#2F4382" stroke-width="2"/>
<path d="M12.9897 8.78027H15.8997" stroke="#2F4382" stroke-width="2"/>
<path d="M18.6997 8.78027H21.6097" stroke="#2F4382" stroke-width="2"/>
<path d="M29.3799 48.1201V55.6201" stroke="#438FD2" stroke-width="2" stroke-linejoin="round"/>
<path d="M25.6299 51.8701H33.1299" stroke="#438FD2" stroke-width="2" stroke-linejoin="round"/>
</svg>
