<svg width="95" height="71" viewBox="0 0 95 71" fill="none" xmlns="http://www.w3.org/2000/svg">
<path d="M84 16.1627C84 14.9708 82.9925 14 81.7555 14H13.2445C12.0075 14 11 14.9708 11 16.1627V67H84V16.1627Z" fill="white" stroke="#438FD2" stroke-width="2"/>
<path d="M5 64V66.7391C5 68.5362 5.90504 70 7.01894 70H86.9711C88.085 70 89 68.5362 89 66.7391V64H5Z" fill="white" stroke="#2F4382" stroke-width="2"/>
<path d="M58.99 7H0V18.65H58.99V7Z" fill="#2F4382"/>
<path d="M58.99 25H0V36.65H58.99V25Z" fill="#B2D2E6"/>
<path d="M5.81006 12.8301H41.8801" stroke="white" stroke-width="2"/>
<path d="M58.98 46H61.9" stroke="#2F4382" stroke-width="2"/>
<path d="M64.6899 46H67.6099" stroke="#2F4382" stroke-width="2"/>
<path d="M70.3999 46H73.3199" stroke="#2F4382" stroke-width="2"/>
<path d="M18.6602 51.9701C18.6602 54.2601 20.5102 56.1101 22.8002 56.1101C25.0902 56.1101 26.9402 54.2601 26.9402 51.9701C26.9402 49.6801 25.0902 47.8301 22.8002 47.8301C20.5102 47.8301 18.6602 49.6901 18.6602 51.9701Z" fill="#9BD8EE" stroke="#2F4382" stroke-width="2"/>
<path d="M31.2603 49.8105H54.1303" stroke="#2F4382" stroke-width="2"/>
<path d="M31.2603 54.1201H39.2103" stroke="#2F4382" stroke-width="2"/>
<path d="M81.6557 44.3762L84.3047 41.7347L66 33L71.6741 44.887L74.7377 51.3012L77.379 48.6597L86.7156 58L91 53.7166L81.6557 44.3762Z" fill="white" stroke="#2F4382" stroke-width="2"/>
<path d="M73.46 0V7.5" stroke="#0074DB" stroke-width="2" stroke-linejoin="round"/>
<path d="M69.71 3.75H77.21" stroke="#0074DB" stroke-width="2" stroke-linejoin="round"/>
<path d="M93.3598 39.1701C93.3598 40.4401 92.3298 41.4701 91.0598 41.4701C89.7898 41.4701 88.7598 40.4401 88.7598 39.1701C88.7598 37.9001 89.7898 36.8701 91.0598 36.8701C92.3298 36.8701 93.3598 37.9001 93.3598 39.1701Z" fill="#B2D2E6"/>
</svg>
