<svg width="65" height="75" viewBox="0 0 65 75" fill="none" xmlns="http://www.w3.org/2000/svg">
<g clip-path="url(#clip0_378_1306)">
<path d="M38.625 67.4201C38.625 71.1165 35.6339 74.1076 31.9375 74.1076C28.2411 74.1076 25.25 71.1165 25.25 67.4201V58.4111C25.25 54.7147 28.2411 51.7236 31.9375 51.7236C35.6339 51.7236 38.625 54.7147 38.625 58.4111V67.4201Z" fill="white" stroke="#D2E5F0" stroke-width="2"/>
<path d="M42.6161 46.0808C49.9018 42.2415 54.875 34.5986 54.875 25.7861C54.875 13.1165 44.6071 2.84863 31.9375 2.84863C19.2679 2.84863 9 13.1165 9 25.7772C9 34.5897 13.9732 42.2326 21.2589 46.0718V53.0808H42.6161V46.0718V46.0808Z" fill="white" stroke="#D2E5F0" stroke-width="2"/>
<path d="M39.3304 49.8036H24.5358V44.0982L22.7858 43.1696C16.3036 39.75 12.2769 33.0893 12.2769 25.7768C12.2769 14.9375 21.0894 6.125 31.9286 6.125C42.7679 6.125 51.5804 14.9375 51.5804 25.7768C51.5804 33.0893 47.5536 39.75 41.0715 43.1696L39.3215 44.0982V49.8036H39.3304Z" fill="#D2E5F0"/>
<path d="M42.6159 59.0898H21.2588V65.0988H42.6159V59.0898Z" fill="white" stroke="#2F4382" stroke-width="2"/>
<path d="M42.6159 53.0898H21.2588V59.0988H42.6159V53.0898Z" fill="white" stroke="#2F4382" stroke-width="2"/>
<path d="M50.5 4C44.1465 4 39 9.1863 39 15.589C39 18.0712 39.7748 20.3644 41.0961 22.2548L39.5709 28L46.0142 26.2575C47.3926 26.8493 48.9096 27.1699 50.5 27.1699C56.8454 27.1699 62 21.9836 62 15.589C62 9.19452 56.8535 4 50.5 4V4Z" fill="white" stroke="#2F4382" stroke-width="2"/>
<path d="M60.9732 32.9817C60.9732 34.2049 59.9821 35.1871 58.7679 35.1871C57.5536 35.1871 56.5625 34.196 56.5625 32.9817C56.5625 31.7674 57.5536 30.7764 58.7679 30.7764C59.9821 30.7764 60.9732 31.7674 60.9732 32.9817Z" fill="#D2E5F0"/>
<path d="M10.3926 2.20536C10.3926 3.42857 9.40158 4.41071 8.18729 4.41071C6.97301 4.41071 5.98193 3.41964 5.98193 2.20536C5.98193 0.991071 6.96408 0 8.18729 0C9.41051 0 10.3926 0.991071 10.3926 2.20536Z" fill="#D2E5F0"/>
<path d="M2.91092 16.0089H19.4556C20.5716 16.0089 21.4734 16.9107 21.4734 18.0268V38L16.5449 32.3482H2.91092C1.79485 32.3482 0.893066 31.4464 0.893066 30.3304V18.0179C0.893066 16.9018 1.79485 16 2.91092 16V16.0089Z" fill="white" stroke="#438FD2" stroke-width="2" stroke-linejoin="round"/>
<path d="M58.0891 50.4911L52.3927 43.1875L46.6963 50.4911H49.8213V55.9464H54.9641V50.4911H58.0891Z" fill="#00487C"/>
<path d="M18.8211 66.8387L13.1247 59.5352L7.42822 66.8387H10.5532V72.2941H15.6961V66.8387H18.8211Z" fill="#00487C"/>
</g>
<defs>
<clipPath id="clip0_378_1306">
<rect width="64.2321" height="75" fill="white"/>
</clipPath>
</defs>
</svg>
