<svg width="50" height="50" viewBox="0 0 50 50" fill="none" xmlns="http://www.w3.org/2000/svg">
<path d="M45.9588 2H4.04125C2.9139 2 2 2.96883 2 4.16394V45.8361C2 47.0312 2.9139 48 4.04125 48H45.9588C47.0861 48 48 47.0312 48 45.8361V4.16394C48 2.96883 47.0861 2 45.9588 2Z" fill="url(#paint0_linear_275_778)"/>
<path d="M41.5834 31.0321C41.4634 30.9199 41.3125 30.8618 41.1268 30.8618H22.077C21.8913 30.8618 21.7403 30.9199 21.6204 31.0321C21.5004 31.1443 21.4424 31.2913 21.4424 31.4655V32.6728C21.4424 32.8508 21.5004 32.9939 21.6204 33.1062C21.7403 33.2184 21.8913 33.2764 22.077 33.2764H41.1268C41.3125 33.2764 41.4634 33.2184 41.5834 33.1062C41.7034 32.9939 41.7614 32.8469 41.7614 32.6728V31.4655C41.7614 31.2875 41.7034 31.1443 41.5834 31.0321Z" fill="white" stroke="white" stroke-width="0.175" stroke-linecap="round" stroke-linejoin="round"/>
<path d="M11.1012 13.1896C10.9696 13.0619 10.8148 13 10.6446 13C10.4743 13 10.3195 13.0619 10.188 13.1896L9.19735 14.1338C9.06578 14.2615 9 14.4046 9 14.5672C9 14.7297 9.06578 14.8767 9.19735 15.0006L17.0138 22.4185L9.19735 29.8403C9.06578 29.968 9 30.1112 9 30.2737C9 30.4362 9.06578 30.5832 9.19735 30.7071L10.188 31.6512C10.3195 31.7789 10.4704 31.8408 10.6446 31.8408C10.8148 31.8408 10.9696 31.7789 11.1012 31.6512L20.3494 22.8519C20.481 22.7242 20.5467 22.581 20.5467 22.4185C20.5467 22.256 20.481 22.1089 20.3494 21.9851L11.1012 13.1857V13.1896Z" fill="white" stroke="white" stroke-width="0.175" stroke-linecap="round" stroke-linejoin="round"/>
<defs>
<linearGradient id="paint0_linear_275_778" x1="14.7547" y1="1173.96" x2="14.7547" y2="1097.77" gradientUnits="userSpaceOnUse">
<stop stop-color="#252525"/>
<stop offset="1" stop-color="#5A5A5A"/>
</linearGradient>
</defs>
</svg>
