<svg width="43" height="50" viewBox="0 0 43 50" fill="none" xmlns="http://www.w3.org/2000/svg">
<path d="M20.6019 12.7049C20.6019 12.8651 20.4418 12.8651 20.4418 12.8651H20.2817C20.1216 12.8651 20.1216 12.7049 19.9614 12.5446C19.9614 12.5446 19.8013 12.3843 19.8013 12.2241C19.8013 12.0638 19.8013 12.0638 19.9614 12.0638L20.2817 12.2241C20.4418 12.3843 20.6019 12.5446 20.6019 12.7049ZM17.7197 11.1023C17.7197 10.301 17.3995 9.82024 16.9191 9.82024C16.9191 9.82024 16.9191 9.98049 16.759 9.98049V10.301H17.2393C17.2393 10.6215 17.3995 10.7818 17.3995 11.1023H17.7197ZM23.324 10.301C23.6442 10.301 23.8044 10.6215 23.9645 11.1023H24.2847C24.1246 10.942 24.1246 10.7818 24.1246 10.6215C24.1246 10.4613 24.1246 10.301 23.9645 10.1407C23.8044 9.98049 23.6442 9.82024 23.4841 9.82024C23.4841 9.82024 23.324 9.98049 23.1639 9.98049C23.1639 10.1407 23.324 10.1407 23.324 10.301ZM18.5203 12.8651C18.3602 12.8651 18.3602 12.8651 18.3602 12.7049C18.3602 12.5446 18.3602 12.3843 18.5203 12.2241C18.8406 12.2241 19.0007 12.0638 19.0007 12.0638C19.1608 12.0638 19.1608 12.2241 19.1608 12.2241C19.1608 12.3843 19.0007 12.5446 18.6805 12.8651H18.5203ZM16.759 12.7049C16.1185 12.3843 15.9584 11.9036 15.9584 11.1023C15.9584 10.6215 15.9584 10.301 16.2786 9.98049C16.4387 9.65998 16.759 9.49972 17.0792 9.49972C17.3995 9.49972 17.5596 9.65998 17.8798 9.98049C18.04 10.4613 18.2001 10.942 18.2001 11.4228V11.7433H18.3602V11.5831C18.5203 11.5831 18.5203 11.2625 18.5203 10.6215C18.5203 10.1407 18.5203 9.65998 18.2001 9.17921C17.8798 8.69844 17.5596 8.37793 16.9191 8.37793C16.4387 8.37793 15.9584 8.69844 15.7982 9.17921C15.478 9.82024 15.414 10.301 15.414 11.1023C15.414 11.7433 15.6381 12.3843 16.2786 13.0254C16.4387 12.8651 16.5989 12.8651 16.759 12.7049ZM36.7743 35.301C36.9344 35.301 36.9344 35.2369 36.9344 35.0927C36.9344 34.7401 36.7743 34.3234 36.2939 33.8587C35.8136 33.3779 35.0129 33.0734 34.0522 32.9452C33.8921 32.9292 33.732 32.9292 33.732 32.9292C33.5718 32.8972 33.5718 32.8972 33.4117 32.8972C33.2516 32.8811 32.9314 32.8491 32.7712 32.817C33.2516 31.3266 33.4117 30.0125 33.4117 28.8587C33.4117 27.2561 33.0915 26.1343 32.451 25.1728C31.8105 24.2113 31.17 23.7305 30.3694 23.5702C30.2093 23.7305 30.2093 23.7305 30.2093 23.8907C31.0099 24.2113 31.8105 24.8523 32.2909 25.8138C32.7712 26.9356 32.9314 27.8972 32.9314 29.019C32.9314 29.9164 32.7712 31.2465 32.1307 32.9452C31.4903 33.2016 30.8498 33.7946 30.3694 34.7241C30.3694 34.8683 30.3694 34.9484 30.5295 34.9484C30.5295 34.9484 30.6896 34.8042 30.8498 34.5318C31.17 34.2593 31.3301 33.9869 31.6504 33.7145C32.1307 33.442 32.451 33.2978 32.9314 33.2978C33.732 33.2978 34.5326 33.41 35.0129 33.6343C35.6534 33.8427 35.9737 34.067 36.1338 34.3234C36.2939 34.5638 36.454 34.7882 36.6142 34.9965C36.6142 35.2049 36.7743 35.301 36.7743 35.301M22.043 12.0638C21.8829 11.9036 21.8829 11.5831 21.8829 11.2625C21.8829 10.6215 21.8829 10.301 22.2031 9.82024C22.5234 9.49972 22.8436 9.33947 23.1639 9.33947C23.6442 9.33947 23.9645 9.65998 24.2847 9.98049C24.4449 10.4613 24.605 10.7818 24.605 11.2625C24.605 12.0638 24.2847 12.5446 23.6442 12.7049C23.6442 12.7049 23.8044 12.8651 23.9645 12.8651C24.2847 12.8651 24.4449 13.0254 24.7651 13.1856C24.9252 12.2241 25.0854 11.5831 25.0854 10.7818C25.0854 9.82024 24.9252 9.17921 24.605 8.69844C24.1246 8.21767 23.6442 8.05742 23.0038 8.05742C22.5234 8.05742 22.043 8.21767 21.5627 8.53819C21.2424 9.01895 21.0823 9.33947 21.0823 9.82024C21.0823 10.6215 21.2424 11.2625 21.5627 11.9036C21.7228 11.9036 21.8829 12.0638 22.043 12.0638ZM23.9645 14.6279C21.8829 16.0702 20.2817 16.7113 19.0007 16.7113C17.8798 16.7113 16.759 16.2305 15.7982 15.4292C15.9584 15.7497 16.1185 16.0702 16.2786 16.2305L17.2393 17.192C17.8798 17.8331 18.6805 18.1536 19.4811 18.1536C20.6019 18.1536 21.8829 17.5125 23.4841 16.3907L24.9252 15.4292C25.2455 15.1087 25.5657 14.7882 25.5657 14.3074C25.5657 14.1472 25.5657 13.9869 25.4056 13.9869C25.2455 13.6664 24.4449 13.1856 22.8436 12.7049C21.4025 12.0638 20.2817 11.7433 19.6412 11.7433C19.1608 11.7433 18.3602 12.0638 17.2393 12.7049C16.2786 13.3459 15.6381 13.9869 15.6381 14.6279C15.6381 14.6279 15.7982 14.7882 15.9584 15.1087C16.9191 15.91 17.8798 16.3907 18.8406 16.3907C20.1216 16.3907 21.7228 15.7497 23.8044 14.1472V14.4677C23.9645 14.4677 23.9645 14.6279 23.9645 14.6279ZM27.6473 46.9997C28.2878 48.2048 29.4087 48.8106 30.6896 48.8106C31.0099 48.8106 31.3301 48.7625 31.6504 48.6664C31.9706 48.6023 32.2909 48.4901 32.451 48.3619C32.6111 48.2497 32.7712 48.1375 32.9314 48.0093C33.2516 47.8972 33.2516 47.817 33.4117 47.7369L36.1338 45.3811C36.7743 44.8699 37.4148 44.4228 38.2154 44.035C38.8559 43.6504 39.4964 43.394 39.8166 43.2497C40.297 43.1215 40.6172 42.9292 40.9375 42.6728C41.0976 42.4324 41.2577 42.1279 41.2577 41.7433C41.2577 41.2786 40.9375 40.926 40.6172 40.6696C40.297 40.4132 39.9767 40.2369 39.6565 40.1247C39.3363 40.0125 39.016 39.7561 38.5356 39.3234C38.2154 38.9068 37.8952 38.3299 37.735 37.5766L37.5749 36.6472C37.4148 36.2145 37.4148 35.894 37.2547 35.7177C37.2547 35.6696 37.2547 35.6536 37.0945 35.6536C36.9344 35.6536 36.6142 35.7978 36.454 36.0702C36.1338 36.3427 35.8136 36.6472 35.4933 36.9677C35.3332 37.2882 34.8528 37.5766 34.5326 37.8491C34.0522 38.1215 33.5718 38.2657 33.2516 38.2657C31.9706 38.2657 31.3301 37.9132 30.8498 37.2241C30.5295 36.7113 30.3694 36.1183 30.2093 35.4452C29.889 35.1728 29.7289 35.0286 29.4087 35.0286C28.608 35.0286 28.2878 35.8619 28.2878 37.5446V42.5286C28.2878 42.6728 28.1277 42.9933 28.1277 43.4901C27.9676 43.9869 27.9676 44.551 27.9676 45.1888L27.6473 46.9677V46.9949M4.42955 46.1472C5.91868 46.3651 7.632 46.8315 9.56948 47.543C11.507 48.2481 12.6919 48.6167 13.1242 48.6167C14.2451 48.6167 15.1738 48.1199 15.9424 47.16C16.1025 46.8491 16.1025 46.4837 16.1025 46.0638C16.1025 44.5494 15.1898 42.6343 13.3644 40.3106L12.2755 38.8523C12.0514 38.5478 11.7792 38.0831 11.4269 37.4581C11.0906 36.8331 10.7864 36.3523 10.5462 36.0157C10.3381 35.6472 10.0018 35.2786 9.56948 34.91C9.15316 34.5414 8.67279 34.301 8.14439 34.1728C7.47187 34.301 7.00752 34.5254 6.78335 34.8299C6.55917 35.1343 6.43108 35.4709 6.39905 35.8234C6.35101 36.16 6.25494 36.3843 6.09482 36.4965C5.9347 36.5927 5.66249 36.6728 5.29421 36.7529C5.21415 36.7529 5.07004 36.7529 4.86188 36.769H4.42955C3.5809 36.769 3.00445 36.8651 2.70022 37.0254C2.29992 37.4901 2.09176 38.019 2.09176 38.5799C2.09176 38.8363 2.15581 39.269 2.2839 39.8779C2.412 40.4709 2.47605 40.9516 2.47605 41.2882C2.47605 41.9452 2.2839 42.6023 1.8836 43.2593C1.48329 43.9484 1.27513 44.4613 1.27513 44.8266C1.43525 45.4484 2.49206 45.8859 4.42955 46.1423M9.76162 31.575C9.76162 30.4693 10.0498 29.2513 10.6423 27.809C11.2187 26.3667 11.7952 25.4052 12.3556 24.7641C12.3236 24.6039 12.2435 24.6039 12.1154 24.6039L11.9553 24.4436C11.4909 24.9244 10.9305 26.0462 10.258 27.6488C9.58549 29.0911 9.23322 30.4212 9.23322 31.3988C9.23322 32.1199 9.40936 32.7449 9.7296 33.2898C10.0819 33.8186 10.9305 34.5879 12.2755 35.5654L13.9728 36.6712C15.7822 38.2417 16.743 39.3315 16.743 39.9725C16.743 40.309 16.5828 40.6456 16.1025 41.0141C15.7822 41.3988 15.3499 41.5911 14.9816 41.5911C14.9496 41.5911 14.9336 41.6231 14.9336 41.7033C14.9336 41.7193 15.0937 42.0398 15.43 42.6648C16.1025 43.5782 17.5436 44.027 19.4651 44.027C22.9877 44.027 25.7098 42.5847 27.7914 39.7C27.7914 38.8988 27.7914 38.402 27.6313 38.1936V37.6007C27.6313 36.559 27.7914 35.7738 28.1117 35.2609C28.4319 34.7481 28.7522 34.5077 29.2325 34.5077C29.5528 34.5077 29.873 34.6199 30.1933 34.8603C30.3534 33.6263 30.3534 32.5526 30.3534 31.5911C30.3534 30.1327 30.3534 28.9308 30.0331 27.809C29.873 26.8475 29.5528 26.0462 29.2325 25.4052L28.2718 23.9629C27.9515 23.4821 27.7914 23.0013 27.4712 22.5206C27.3111 21.8795 27.1509 21.3988 27.1509 20.5975C26.6706 19.7962 26.3503 18.9949 25.8699 18.1936C25.5497 17.3924 25.2295 16.5911 24.9092 15.95L23.4681 17.0718C21.8669 18.1936 20.5859 18.6744 19.4651 18.6744C18.5043 18.6744 17.7037 18.5141 17.2233 17.8731L16.2626 17.0718C16.2626 17.5526 16.1025 18.1936 15.7822 18.8347L14.7735 20.7577C14.3251 21.8795 14.0849 22.5206 14.0369 23.0013C13.9728 23.3218 13.9248 23.6424 13.8928 23.6424L12.6919 26.0462C11.3949 28.45 10.7384 30.6776 10.7384 32.5206C10.7384 32.8891 10.7704 33.2738 10.8344 33.6584C10.1139 33.1616 9.76162 32.4725 9.76162 31.575M21.2264 46.7353C19.1448 46.7353 17.5436 47.0173 16.4227 47.5766V47.5286C15.6221 48.4901 14.7254 48.9869 13.4765 48.9869C12.6919 48.9869 11.4589 48.6824 9.79365 48.0734C8.11236 47.4965 6.62322 47.0542 5.32623 46.7625C5.19813 46.7257 4.90991 46.6712 4.44556 46.5975C3.99721 46.5254 3.5809 46.4516 3.21261 46.3779C2.87636 46.3058 2.49206 46.1968 2.07574 46.0494C1.67544 45.9228 1.35519 45.7577 1.11501 45.5574C0.89404 45.3555 0.785156 45.1279 0.785156 44.8731C0.785156 44.6167 0.839598 44.3427 0.948481 44.051C1.05096 43.8747 1.16305 43.6984 1.27513 43.5382C1.38722 43.3619 1.48329 43.2016 1.54734 43.0414C1.64341 42.8972 1.70746 42.7529 1.77151 42.5927C1.83556 42.4484 1.89961 42.3042 1.93163 42.1279C1.96366 41.9677 1.99568 41.8074 1.99568 41.6472C1.99568 41.4869 1.93163 41.0061 1.80354 40.1568C1.67544 39.3234 1.61139 38.7946 1.61139 38.5702C1.61139 37.8651 1.77151 37.3042 2.12378 36.9036C2.47605 36.5029 2.81231 36.2946 3.16458 36.2946H5.00599C5.1501 36.2946 5.37427 36.2145 5.71053 36.0222C5.82261 35.7657 5.91868 35.5574 5.98273 35.3651C6.06279 35.1728 6.09482 35.0286 6.12684 34.9645C6.15887 34.8683 6.19089 34.7722 6.22292 34.692C6.28697 34.5799 6.36703 34.4516 6.47911 34.3234C6.35101 34.1632 6.28697 33.9549 6.28697 33.6984C6.28697 33.5222 6.28697 33.3619 6.31899 33.2657C6.31899 32.6888 6.5912 31.8715 7.16764 30.7978L7.72807 29.7882C8.19242 28.9228 8.54469 28.2818 8.80089 27.6407C9.0731 26.9997 9.36132 26.0382 9.68156 24.7561C9.93776 23.6343 10.5462 22.5125 11.507 21.3907L12.7079 19.9484C13.5405 18.9869 14.0849 18.1856 14.3892 17.5446C14.6934 16.9036 14.8535 16.1023 14.8535 15.4613C14.8535 15.1407 14.7735 14.1792 14.5973 12.5766C14.4372 10.9741 14.3571 9.37152 14.3571 7.92921C14.3571 6.80742 14.4532 6.00613 14.6614 5.20485C14.8695 4.40357 15.2378 3.60229 15.7822 2.96126C16.2626 2.32024 16.9031 1.67921 17.8638 1.3587C18.8246 1.03819 19.9454 0.87793 21.2264 0.87793C21.7068 0.87793 22.1871 0.87793 22.6675 1.03819C23.1479 1.03819 23.7884 1.19844 24.589 1.51896C25.2295 1.83947 25.8699 2.15998 26.3503 2.64075C26.9908 3.12152 27.4712 3.9228 27.9515 4.72408C28.2718 5.68562 28.592 6.64716 28.7522 7.92921C28.9123 8.73049 28.9123 9.53178 29.0724 10.6536C29.0724 11.6151 29.2325 12.2561 29.2325 12.7369C29.3926 13.2177 29.3926 13.8587 29.5528 14.66C29.7129 15.301 29.873 15.942 30.1933 16.4228C30.5135 17.0638 30.8337 17.7049 31.3141 18.3459C31.7945 19.1472 32.435 19.9484 33.0755 20.91C34.5166 22.5125 35.6374 24.2754 36.2779 26.0382C37.0785 27.6407 37.5589 29.7241 37.5589 31.9516C37.5589 33.0574 37.3988 34.1311 37.0785 35.1728C37.3988 35.1728 37.5589 35.301 37.719 35.5254C37.8791 35.7497 38.0393 36.2305 38.1994 36.9837L38.3595 38.1696C38.5196 38.5222 38.6798 38.8587 39.1601 39.1472C39.4804 39.4356 39.8006 39.676 40.281 39.8683C40.6012 40.0286 41.0816 40.2529 41.4018 40.5414C41.7221 40.8619 41.8822 41.1984 41.8822 41.551C41.8822 42.0959 41.7221 42.4965 41.4018 42.785C41.0816 43.1055 40.7613 43.3298 40.281 43.4741C39.9607 43.6343 39.3202 43.9548 38.3595 44.4068C37.5589 44.8811 36.7583 45.4564 35.9577 46.1375L34.3564 47.5013C33.716 48.1263 33.0755 48.575 32.5951 48.8475C32.1147 49.1359 31.4742 49.2802 30.8337 49.2802L29.7129 49.152C28.4319 48.8154 27.6313 48.1744 27.1509 47.1968C24.589 46.8859 22.5074 46.7321 21.2264 46.7321" fill="#5A5A5A"/>
</svg>
