<svg width="41" height="50" viewBox="0 0 41 50" fill="none" xmlns="http://www.w3.org/2000/svg">
<g clip-path="url(#clip0_270_764)">
<path d="M39.4444 17.045C39.1542 17.27 34.029 20.155 34.029 26.57C34.029 33.99 40.5506 36.615 40.7457 36.68C40.7157 36.84 39.7097 40.275 37.3073 43.775C35.1652 46.855 32.9279 49.93 29.5245 49.93C26.1211 49.93 25.2452 47.955 21.3163 47.955C17.4875 47.955 16.1261 49.995 13.013 49.995C9.8999 49.995 7.72773 47.145 5.23023 43.645C2.33734 39.535 0 33.15 0 27.09C0 17.37 6.32633 12.215 12.5526 12.215C15.8609 12.215 18.6186 14.385 20.6957 14.385C22.6727 14.385 25.7558 12.085 29.5195 12.085C30.9459 12.085 36.0711 12.215 39.4444 17.045V17.045ZM27.7327 7.97C29.2893 6.125 30.3904 3.565 30.3904 1.005C30.3904 0.65 30.3604 0.29 30.2953 0C27.7628 0.095 24.7498 1.685 22.9329 3.79C21.5065 5.41 20.1752 7.97 20.1752 10.565C20.1752 10.955 20.2402 11.345 20.2703 11.47C20.4304 11.5 20.6907 11.535 20.951 11.535C23.2232 11.535 26.0811 10.015 27.7327 7.97Z" fill="#5A5A5A"/>
</g>
<defs>
<clipPath id="clip0_270_764">
<rect width="40.7407" height="50" fill="white"/>
</clipPath>
</defs>
</svg>
