<svg width="256" height="256" viewBox="0 0 256 256" fill="none" xmlns="http://www.w3.org/2000/svg">
<path d="M219.74 87.8242C218.344 88.9043 193.69 102.754 193.69 133.549C193.69 169.168 225.061 181.77 226 182.082C225.856 182.85 221.016 199.339 209.46 216.141C199.156 230.926 188.394 245.688 172.022 245.688C155.651 245.688 151.438 236.207 132.538 236.207C114.12 236.207 107.572 246 92.5967 246C77.6217 246 67.1728 232.319 55.1591 215.517C41.2433 195.787 30 165.136 30 136.045C30 89.3843 60.4316 64.6379 90.3818 64.6379C106.296 64.6379 119.561 75.0549 129.553 75.0549C139.063 75.0549 153.893 64.0138 171.998 64.0138C178.86 64.0138 203.513 64.6379 219.74 87.8242ZM163.403 44.2598C170.891 35.4029 176.187 23.1137 176.187 10.8245C176.187 9.12031 176.043 7.39214 175.73 6C163.548 6.45605 149.054 14.0888 140.315 24.1938C133.453 31.9706 127.049 44.2598 127.049 56.7171C127.049 58.5893 127.362 60.4614 127.506 61.0615C128.277 61.2055 129.529 61.3735 130.781 61.3735C141.711 61.3735 155.458 54.0768 163.403 44.2598Z" fill="black"/>
</svg>
