<svg width="70" height="50" viewBox="0 0 70 50" fill="none" xmlns="http://www.w3.org/2000/svg">
<path d="M0.611265 9.85277C0.932592 4.90583 4.90987 1.02892 9.86116 0.783615C17.031 0.428404 27.2787 0 35 0C42.7213 0 52.969 0.428404 60.1388 0.783615C65.0901 1.02892 69.0674 4.90583 69.3887 9.85277C69.6966 14.5923 70 20.4241 70 25C70 29.5759 69.6966 35.4077 69.3887 40.1472C69.0674 45.0942 65.0901 48.9711 60.1388 49.2164C52.969 49.5716 42.7213 50 35 50C27.2787 50 17.031 49.5716 9.86117 49.2164C4.90987 48.9711 0.932592 45.0942 0.611265 40.1472C0.30341 35.4077 0 29.5759 0 25C0 20.4241 0.30341 14.5923 0.611265 9.85277Z" fill="white" fill-opacity="0.3"/>
<path d="M28 15V35L48 25L28 15Z" fill="white"/>
</svg>
