<svg width="24" height="24" viewBox="0 0 24 24" fill="none" xmlns="http://www.w3.org/2000/svg">
<g clip-path="url(#clip0_949_1319)">
<path d="M16.2324 24H24.0001V14.6719H18.6573V18.6561H17.4673C16.9843 19.6123 16.7801 20.6881 16.5611 21.5945C16.3868 22.3664 16.2573 23.1334 16.2374 24H16.2324Z" fill="url(#paint0_linear_949_1319)"/>
<path d="M21.6748 3.07289C20.0416 3.44641 17.8059 4.09384 16.0184 4.89567C15.9586 4.83093 15.9088 4.77116 15.8889 4.73132C15.5453 4.85583 15.1769 5.20943 14.8433 5.33892H18.6524V9.32314H23.9951V2.81889C23.3727 2.76909 22.6856 2.83881 21.6698 3.07289H21.6748Z" fill="url(#paint1_linear_949_1319)"/>
<path d="M9.33105 0C9.49039 0.766964 11.7759 4.51214 12.8862 5.34385H14.8381C15.1717 5.21436 15.5053 5.08487 15.8539 4.96037C17.8057 4.26811 19.9269 3.71529 21.6049 3.32683C22.6207 3.09276 23.4622 2.92343 23.995 2.81884V0H9.33105Z" fill="url(#paint2_linear_949_1319)"/>
<path d="M11.9502 3.70035C11.0191 2.0967 10.1129 0.886491 9.33112 0H0V14.2635C0.114523 14.2835 0.194191 14.4926 0.308714 14.5126C0.776763 14.6022 1.24481 14.7068 1.7029 14.8313C1.76266 14.8462 1.82241 14.8612 1.87718 14.8761C1.92199 14.8911 1.96183 14.906 2.00664 14.9209C2.05145 14.9309 2.09627 14.9508 2.14108 14.9608C2.31037 15.0106 2.5195 14.8761 2.6888 14.9309L3.29627 14.6371L5.33776 11.9776V5.35381H12.8863C12.5925 4.79602 12.2788 4.24818 11.9452 3.71031L11.9502 3.70035Z" fill="url(#paint3_linear_949_1319)"/>
<path d="M5.34264 17.4957V17.4758C4.83974 17.2019 4.31194 16.9279 3.79907 16.674C4.2721 16.918 4.78496 17.1869 5.34264 17.4957Z" fill="url(#paint4_linear_949_1319)"/>
<path d="M11.5169 21.4899C10.2721 20.3943 8.82314 19.2638 7.29949 18.6562H5.34264V17.4958C4.89949 17.0625 4.38165 16.7388 3.90862 16.4947C3.21152 16.1461 2.44472 15.8871 1.94181 15.6481L0.00488281 17.8095V24H13.5036C12.936 23.0687 12.2787 22.1971 11.5219 21.4899H11.5169Z" fill="url(#paint5_linear_949_1319)"/>
<path d="M7.29956 18.6561C8.66388 19.5078 10.068 20.4939 11.3128 21.5895C12.0747 22.2917 12.8265 23.0985 13.4987 24H16.2323C16.5012 23.1932 16.7153 22.3764 16.8846 21.6045C17.1037 20.698 17.3029 19.707 17.4622 18.6561H7.29956Z" fill="url(#paint6_linear_949_1319)"/>
<path d="M2.18594 14.7666C2.14113 14.7516 2.09632 14.7367 2.0515 14.7217C2.00669 14.7118 1.96188 14.6919 1.92204 14.6819C1.86229 14.662 1.80254 14.652 1.74777 14.6371C1.28968 14.5126 0.821628 14.408 0.353578 14.3233C0.239055 14.2984 0.124533 14.2835 0.0100098 14.2635V17.939L1.94694 15.7726L2.6042 15.0405L2.69881 14.9309C2.52951 14.8761 2.36022 14.8213 2.19092 14.7715L2.18594 14.7666Z" fill="url(#paint7_linear_949_1319)"/>
<path d="M3.0921 14.4827L2.69376 14.9259L2.59916 15.0355L1.94189 15.7676C2.36513 15.9618 3.02239 16.2756 3.79916 16.674C4.31202 16.928 4.83982 17.2069 5.34272 17.4758V11.9677L3.0921 14.4827Z" fill="url(#paint8_linear_949_1319)"/>
</g>
<defs>
<linearGradient id="paint0_linear_949_1319" x1="-3.6348" y1="47.3774" x2="37.2593" y2="1.45763" gradientUnits="userSpaceOnUse">
<stop stop-color="#1318CC"/>
<stop offset="0.21" stop-color="#0051FF"/>
<stop offset="0.41" stop-color="#0087FF"/>
<stop offset="0.6" stop-color="#00AFFF"/>
<stop offset="0.82" stop-color="#00C4FF"/>
<stop offset="1" stop-color="#22D6E1"/>
</linearGradient>
<linearGradient id="paint1_linear_949_1319" x1="80.5196" y1="-8.27221" x2="17.8791" y2="7.43446" gradientUnits="userSpaceOnUse">
<stop stop-color="#1318CC"/>
<stop offset="0.21" stop-color="#0051FF"/>
<stop offset="0.41" stop-color="#0087FF"/>
<stop offset="0.6" stop-color="#00AFFF"/>
<stop offset="0.82" stop-color="#00C4FF"/>
<stop offset="1" stop-color="#22D6E1"/>
</linearGradient>
<linearGradient id="paint2_linear_949_1319" x1="-33.0623" y1="10.5333" x2="35.219" y2="-1.34985" gradientUnits="userSpaceOnUse">
<stop stop-color="#1318CC"/>
<stop offset="0.21" stop-color="#0051FF"/>
<stop offset="0.41" stop-color="#0087FF"/>
<stop offset="0.6" stop-color="#00AFFF"/>
<stop offset="0.82" stop-color="#00C4FF"/>
<stop offset="1" stop-color="#22D6E1"/>
</linearGradient>
<linearGradient id="paint3_linear_949_1319" x1="-5.54689" y1="9.7265" x2="69.9864" y2="-15.0461" gradientUnits="userSpaceOnUse">
<stop stop-color="#1318CC"/>
<stop offset="0.21" stop-color="#0051FF"/>
<stop offset="0.41" stop-color="#0087FF"/>
<stop offset="0.6" stop-color="#00AFFF"/>
<stop offset="0.82" stop-color="#00C4FF"/>
<stop offset="1" stop-color="#22D6E1"/>
</linearGradient>
<linearGradient id="paint4_linear_949_1319" x1="3.79907" y1="17.0823" x2="5.34264" y2="17.0823" gradientUnits="userSpaceOnUse">
<stop stop-color="#1318CC"/>
<stop offset="0.21" stop-color="#0051FF"/>
<stop offset="0.41" stop-color="#0087FF"/>
<stop offset="0.6" stop-color="#00AFFF"/>
<stop offset="0.82" stop-color="#00C4FF"/>
<stop offset="1" stop-color="#22D6E1"/>
</linearGradient>
<linearGradient id="paint5_linear_949_1319" x1="-26.5993" y1="5.9664" x2="16.3703" y2="27.4492" gradientUnits="userSpaceOnUse">
<stop stop-color="#1318CC"/>
<stop offset="0.21" stop-color="#0051FF"/>
<stop offset="0.41" stop-color="#0087FF"/>
<stop offset="0.6" stop-color="#00AFFF"/>
<stop offset="0.82" stop-color="#00C4FF"/>
<stop offset="1" stop-color="#22D6E1"/>
</linearGradient>
<linearGradient id="paint6_linear_949_1319" x1="42.4879" y1="36.7445" x2="-35.3955" y2="-7.6956" gradientUnits="userSpaceOnUse">
<stop stop-color="#1318CC"/>
<stop offset="0.21" stop-color="#0051FF"/>
<stop offset="0.41" stop-color="#0087FF"/>
<stop offset="0.6" stop-color="#00AFFF"/>
<stop offset="0.82" stop-color="#00C4FF"/>
<stop offset="1" stop-color="#22D6E1"/>
</linearGradient>
<linearGradient id="paint7_linear_949_1319" x1="-9.43065" y1="17.5207" x2="19.9771" y2="13.09" gradientUnits="userSpaceOnUse">
<stop stop-color="#1318CC"/>
<stop offset="0.21" stop-color="#0051FF"/>
<stop offset="0.41" stop-color="#0087FF"/>
<stop offset="0.6" stop-color="#00AFFF"/>
<stop offset="0.82" stop-color="#00C4FF"/>
<stop offset="1" stop-color="#22D6E1"/>
</linearGradient>
<linearGradient id="paint8_linear_949_1319" x1="-2.17595" y1="6.61384" x2="24.2208" y2="39.5282" gradientUnits="userSpaceOnUse">
<stop stop-color="#1318CC"/>
<stop offset="0.21" stop-color="#0051FF"/>
<stop offset="0.41" stop-color="#0087FF"/>
<stop offset="0.6" stop-color="#00AFFF"/>
<stop offset="0.82" stop-color="#00C4FF"/>
<stop offset="1" stop-color="#22D6E1"/>
</linearGradient>
<clipPath id="clip0_949_1319">
<rect width="24" height="24" fill="white"/>
</clipPath>
</defs>
</svg>
