<svg width="47" height="24" viewBox="0 0 47 24" fill="none" xmlns="http://www.w3.org/2000/svg">
<path d="M32.0768 5.93663C34.1147 10.8821 33.2648 15.952 32.806 18.243L38.1569 23.9952H46.3329L34.6508 11.5843L44.4929 1.32487C41.2573 1.07585 38.5287 1.45436 34.8729 3.03809L32.0768 5.93663Z" fill="#40F3FE"/>
<path d="M32.0751 5.93628L30.8822 7.17139L29.5832 5.82173C28.6608 6.16537 27.2892 6.51399 24.3627 8.74019L27.1202 11.5839L23.1892 15.7276C23.0395 14.9705 22.798 14.2783 22.3296 13.6159C21.6583 12.6796 20.9773 12.0571 19.8763 11.5889C18.0218 12.2613 17.056 13.3519 16.2012 14.5472C17.2298 14.9456 17.7417 15.6877 17.7417 16.8581C17.7417 17.8243 17.423 18.2575 16.7807 18.7008C16.7131 18.7456 16.6261 18.7805 16.5537 18.8203C18.3261 20.0056 21.9336 22.5207 23.6141 23.9849L30.8822 16.1758L32.7995 18.2426C33.5577 16.0164 34.7602 10.8767 32.0702 5.93628H32.0751Z" fill="url(#paint0_linear_171_82)"/>
<path d="M23.9678 0H0V12.884C1.25079 13.1082 3.0666 13.0135 5.57301 12.7346V4.59184H13.324C14.5507 4.59184 15.5069 4.80599 16.1443 5.24426C16.7528 5.68252 17.0571 6.20546 17.0571 7.08697C17.0571 7.96848 16.7577 8.60596 16.1443 9.03925C15.5069 9.50739 14.5507 9.74147 13.324 9.74147H10.0063V13.0583C11.8897 13.5813 13.1067 13.8353 14.5507 14.2337C15.0964 14.2735 15.5697 14.3582 15.9753 14.4827C16.0478 14.5076 16.1347 14.5226 16.2023 14.5475C17.115 13.6161 18.4238 12.6002 19.8774 11.5892C19.8629 11.5842 19.8484 11.5742 19.8339 11.5692C20.5149 11.136 21.1523 10.5732 21.6256 9.90582C21.7077 9.79127 21.7946 9.67673 21.8671 9.55222C22.3162 8.74541 22.548 7.89876 22.6156 6.9276L24.3638 8.73047C26.6626 7.37085 28.7053 6.27518 29.5843 5.81201L23.9678 0Z" fill="url(#paint1_linear_171_82)"/>
<path d="M13.7881 19.3973H12.6918C11.2527 20.9213 10.736 22.3457 10.4607 23.9991H23.6157C23.6157 23.9991 22.3601 22.6694 20.0903 21.1355C18.7816 20.249 17.27 19.3027 16.5553 18.8296C15.8985 19.1981 14.9809 19.3973 13.7881 19.3973Z" fill="url(#paint2_linear_171_82)"/>
<path d="M5.57301 19.3989V12.7103C3.30324 12.6556 1.26528 12.7601 0 12.8598V24.0007H10.4603C11.0639 22.3223 11.8752 20.7486 12.6914 19.3989H5.57301Z" fill="url(#paint3_linear_171_82)"/>
<path d="M10.0062 13.0142V14.2144H13.7924C14.0628 14.2144 14.3091 14.2294 14.5506 14.2443C13.3336 13.6716 11.6337 13.2532 10.0062 13.0142Z" fill="url(#paint4_linear_171_82)"/>
<path d="M37.8031 0L34.8717 3.03798C38.711 1.65346 42.8159 1.37456 44.4917 1.32476L44.5062 1.30982L45.7618 0H37.8031Z" fill="url(#paint5_linear_171_82)"/>
<defs>
<linearGradient id="paint0_linear_171_82" x1="11.9659" y1="20.4887" x2="37.5473" y2="11.3051" gradientUnits="userSpaceOnUse">
<stop stop-color="#F715FF"/>
<stop offset="1" stop-color="#00FFED"/>
</linearGradient>
<linearGradient id="paint1_linear_171_82" x1="-3.77651" y1="-8.96952" x2="15.1385" y2="8.41777" gradientUnits="userSpaceOnUse">
<stop stop-color="#FF3FDF"/>
<stop offset="1" stop-color="#652DB3"/>
</linearGradient>
<linearGradient id="paint2_linear_171_82" x1="16.7146" y1="17.3106" x2="18.1576" y2="45.4897" gradientUnits="userSpaceOnUse">
<stop stop-color="#FF3FDF"/>
<stop offset="1" stop-color="#652DB3"/>
</linearGradient>
<linearGradient id="paint3_linear_171_82" x1="-11.402" y1="31.9841" x2="42.5337" y2="-9.35006" gradientUnits="userSpaceOnUse">
<stop stop-color="#FF3FDF"/>
<stop offset="1" stop-color="#652D90"/>
</linearGradient>
<linearGradient id="paint4_linear_171_82" x1="-10.9674" y1="32.5718" x2="42.9881" y2="-8.77668" gradientUnits="userSpaceOnUse">
<stop stop-color="#FF3FDF"/>
<stop offset="1" stop-color="#652D90"/>
</linearGradient>
<linearGradient id="paint5_linear_171_82" x1="13.5745" y1="9.78131" x2="50.2302" y2="-1.61944" gradientUnits="userSpaceOnUse">
<stop stop-color="#F715FF"/>
<stop offset="1" stop-color="#00FFED"/>
</linearGradient>
</defs>
</svg>
