<svg width="23" height="24" viewBox="0 0 23 24" fill="none" xmlns="http://www.w3.org/2000/svg">
<g clip-path="url(#clip0_209_111)">
<path d="M16.5593 15.4087C16.5593 15.4087 16.5555 15.4068 16.5535 15.4068C18.6425 13.8491 19.9981 11.3592 19.9981 8.54496C20 3.82564 16.1945 0 11.5 0C6.80551 0 3 3.82564 3 8.54496C3 11.3611 4.35747 13.853 6.44838 15.4087C6.44838 15.4087 8.18026 16.8679 8.40874 18.1901H14.597C14.8255 16.8679 16.5593 15.4087 16.5593 15.4087Z" fill="url(#paint0_radial_209_111)"/>
<path d="M8.4049 18.1901C8.42026 18.277 8.42794 18.3619 8.42794 18.4488V20.9194C8.42794 22.6218 9.80077 24.0019 11.4942 24.0019C13.1877 24.0019 14.5605 22.6218 14.5605 20.9194V18.5897C14.5644 18.5511 14.5663 18.5105 14.5663 18.4681C14.5663 18.3754 14.5759 18.2847 14.5932 18.1921H8.4049V18.1901Z" fill="url(#paint1_linear_209_111)"/>
<path opacity="0.2" d="M16.9126 5.10922C16.9126 3.80441 16.6572 2.56136 16.1983 1.42448C14.8524 0.525012 13.2376 0 11.5 0C6.80551 0 3 3.82564 3 8.54496C3 11.0137 4.04642 13.2353 5.71301 14.793C6.18918 14.8644 6.67495 14.903 7.17032 14.903C12.5522 14.903 16.9126 10.5176 16.9126 5.10729V5.10922Z" fill="white"/>
<path d="M15.6607 18.2538C15.6607 18.7151 15.2882 19.0896 14.8293 19.0896H8.17258C7.71369 19.0896 7.3412 18.7151 7.3412 18.2538C7.3412 17.7925 7.71369 17.418 8.17258 17.418H14.8293C15.2882 17.418 15.6607 17.7925 15.6607 18.2538Z" fill="url(#paint2_linear_209_111)"/>
<path d="M15.6607 20.9561C15.6607 21.4174 15.2882 21.7919 14.8293 21.7919H8.17258C7.71369 21.7919 7.3412 21.4174 7.3412 20.9561C7.3412 20.4948 7.71369 20.1203 8.17258 20.1203H14.8293C15.2882 20.1203 15.6607 20.4948 15.6607 20.9561Z" fill="url(#paint3_linear_209_111)"/>
<path opacity="0.5" d="M22 3.5C22 5.43192 20.4319 7 18.5 7C16.5681 7 15 5.43192 15 3.5C15 1.56808 16.5681 0 18.5 0C20.4319 0 22 1.56808 22 3.5Z" fill="url(#paint4_linear_209_111)"/>
<path d="M22 3.5C22 5.43192 20.4319 7 18.5 7C16.5681 7 15 5.43192 15 3.5C15 1.56808 16.5681 0 18.5 0C20.4319 0 22 1.56808 22 3.5Z" stroke="white" stroke-width="1.5" stroke-linecap="round" stroke-linejoin="round"/>
<path d="M5 16.5C5 17.8805 3.88054 19 2.5 19C1.11946 19 0 17.8805 0 16.5C0 15.1195 1.11946 14 2.5 14C3.88054 14 5 15.1195 5 16.5Z" fill="url(#paint5_linear_209_111)"/>
</g>
<defs>
<radialGradient id="paint0_radial_209_111" cx="0" cy="0" r="1" gradientUnits="userSpaceOnUse" gradientTransform="translate(7.50056 1.16198) scale(15.3065 15.3875)">
<stop stop-color="#F3F038"/>
<stop offset="1" stop-color="#E9A527"/>
</radialGradient>
<linearGradient id="paint1_linear_209_111" x1="11.5" y1="26.6289" x2="11.5" y2="14.2004" gradientUnits="userSpaceOnUse">
<stop stop-color="#3E6EF8"/>
<stop offset="1" stop-color="#8CDAFB"/>
</linearGradient>
<linearGradient id="paint2_linear_209_111" x1="11.5" y1="19.2672" x2="11.5" y2="17.3621" gradientUnits="userSpaceOnUse">
<stop stop-color="#3E6EF8"/>
<stop offset="1" stop-color="#8CDAFB"/>
</linearGradient>
<linearGradient id="paint3_linear_209_111" x1="11.5" y1="21.9694" x2="11.5" y2="20.0643" gradientUnits="userSpaceOnUse">
<stop stop-color="#3E6EF8"/>
<stop offset="1" stop-color="#8CDAFB"/>
</linearGradient>
<linearGradient id="paint4_linear_209_111" x1="18.5" y1="6.41581" x2="18.5" y2="-0.778917" gradientUnits="userSpaceOnUse">
<stop offset="0.03" stop-color="#EAAD29"/>
<stop offset="1" stop-color="#F5DC34"/>
</linearGradient>
<linearGradient id="paint5_linear_209_111" x1="-0.0039557" y1="16.5" x2="5" y2="16.5" gradientUnits="userSpaceOnUse">
<stop stop-color="#FFBF00"/>
<stop offset="1" stop-color="#F5F221"/>
</linearGradient>
<clipPath id="clip0_209_111">
<rect width="23" height="24" fill="white"/>
</clipPath>
</defs>
</svg>
