<svg width="60" height="61" viewBox="0 0 60 61" fill="none" xmlns="http://www.w3.org/2000/svg">
<path fill-rule="evenodd" clip-rule="evenodd" d="M24.503 0C23.8508 0 23.2743 0.423831 23.0798 1.04631L21.7674 5.24599C20.5505 5.66933 19.3497 6.19128 18.2358 6.7766L14.4317 4.70161C13.851 4.38488 13.1311 4.48856 12.6634 4.95627L4.85355 12.7661C4.38584 13.2338 4.28216 13.9537 4.59889 14.5344L6.67409 18.3389C6.09525 19.4438 5.5791 20.6483 5.20252 21.8837L1.04631 23.1825C0.423831 23.377 0 23.9535 0 24.6057V35.5997C0 36.2624 0.437376 36.8456 1.07356 37.0311L5.20791 38.237C5.58863 39.4829 6.10899 40.6996 6.68467 41.8471L4.59889 45.671C4.28041 46.2549 4.38715 46.9791 4.86055 47.4463L12.6704 55.1534C13.1386 55.6154 13.8542 55.7161 14.4317 55.4011L18.2358 53.3261C19.3497 53.9114 20.5505 54.4334 21.7674 54.8567L23.0798 59.0564C23.2743 59.6789 23.8508 60.1027 24.503 60.1027H35.497C36.1597 60.1027 36.7429 59.6653 36.9284 59.0291L38.1471 54.8508C39.3751 54.4232 40.5865 53.8981 41.7447 53.3155L45.5683 55.4011C46.149 55.7178 46.8689 55.6141 47.3366 55.1464L55.0437 47.4393C55.5045 46.9785 55.6127 46.2718 55.3108 45.6943L53.3049 41.8569C53.8833 40.6722 54.3533 39.4535 54.7549 38.2478L58.9264 37.0311C59.5626 36.8456 60 36.2624 60 35.5997V24.6057C60 23.9535 59.5761 23.377 58.9537 23.1825L54.7605 21.8722C54.3631 20.6788 53.8948 19.468 53.3148 18.3295L55.3108 14.5111C55.611 13.9368 55.5059 13.2343 55.0507 12.7731L47.3436 4.96327C46.8764 4.48987 46.1522 4.38313 45.5683 4.70161L41.7447 6.78722C40.5865 6.20462 39.3751 5.67952 38.1471 5.25188L36.9284 1.07356C36.7429 0.437375 36.1597 0 35.497 0H24.503ZM24.3854 6.86621L25.5992 2.98211H34.3787L35.5036 6.83896C35.6434 7.31823 36.0138 7.69574 36.4903 7.84465C38.0295 8.32566 39.5868 9.00517 41.0611 9.79144C41.504 10.0277 42.036 10.0252 42.4767 9.7848L46.0101 7.85752L52.1641 14.0936L50.3055 17.6492C50.0701 18.0995 50.0802 18.6386 50.3323 19.0797C51.0767 20.3824 51.6552 21.9092 52.1553 23.5097C52.3012 23.9766 52.6669 24.3422 53.1338 24.4881L57.0179 25.7019V34.4814L53.161 35.6063C52.6817 35.7461 52.3042 36.1165 52.1553 36.593C51.6573 38.1868 51.0734 39.7347 50.3113 41.1638C50.0794 41.5985 50.0773 42.1196 50.3055 42.5562L52.1606 46.1051L46.0168 52.2489L42.4767 50.3179C42.036 50.0775 41.504 50.075 41.0611 50.3112C39.5868 51.0975 38.0295 51.777 36.4903 52.258C36.0138 52.407 35.6434 52.7845 35.5036 53.2637L34.3787 57.1206H25.5992L24.3854 53.2365C24.2395 52.7696 23.8739 52.4039 23.407 52.258C21.8656 51.7764 20.3211 51.1003 18.977 50.3323C18.5277 50.0756 17.9775 50.0701 17.5232 50.3179L13.9764 52.2525L7.7548 46.1128L9.68208 42.5794C9.92245 42.1388 9.92495 41.6067 9.68873 41.1638C8.8996 39.6842 8.2388 38.1593 7.868 36.6761C7.73947 36.162 7.34771 35.7547 6.83896 35.6063L2.98211 34.4814V25.7019L6.86621 24.4881C7.36235 24.3331 7.74193 23.9308 7.868 23.4266C8.23886 21.9431 8.8979 20.4269 9.66769 19.0797C9.92441 18.6305 9.92986 18.0802 9.68208 17.626L7.75111 14.0858L13.9831 7.85383L17.5232 9.7848C17.9775 10.0326 18.5277 10.0271 18.977 9.7704C20.3211 9.00234 21.8656 8.32632 23.407 7.84465C23.8739 7.69874 24.2395 7.33311 24.3854 6.86621ZM17.6741 30.053C17.6741 23.2754 23.1728 17.7767 29.9504 17.7767C36.7424 17.7767 42.3294 23.2898 42.3294 30.053C42.3294 36.8409 36.8237 42.4321 29.9504 42.4321C23.0917 42.4321 17.6741 36.8523 17.6741 30.053ZM29.9504 14.7946C21.5259 14.7946 14.692 21.6285 14.692 30.053C14.692 38.4558 21.4015 45.4142 29.9504 45.4142C38.4846 45.4142 45.3116 38.4739 45.3116 30.053C45.3116 21.6141 38.3605 14.7946 29.9504 14.7946Z" fill="url(#paint0_linear_19_510)"/>
<defs>
<linearGradient id="paint0_linear_19_510" x1="30" y1="0" x2="30" y2="60.1027" gradientUnits="userSpaceOnUse">
<stop stop-color="#706BF1"/>
<stop offset="1" stop-color="#38BCFD"/>
</linearGradient>
</defs>
</svg>
