<svg width="76" height="48" viewBox="0 0 76 48" fill="none" xmlns="http://www.w3.org/2000/svg">
<path fill-rule="evenodd" clip-rule="evenodd" d="M1.26339 0C0.565639 0 0 0.565639 0 1.26339C0 1.96114 0.565639 2.52678 1.26339 2.52678H3.35781C4.05556 2.52678 4.6212 1.96114 4.6212 1.26339C4.6212 0.565639 4.05556 0 3.35781 0H1.26339ZM1.26339 6.49377C0.565639 6.49377 0 7.05941 0 7.75716C0 8.45491 0.565639 9.02055 1.26339 9.02055H3.35781C4.05556 9.02055 4.6212 8.45491 4.6212 7.75716C4.6212 7.05941 4.05556 6.49377 3.35781 6.49377H1.26339ZM0 14.1443C0 13.4466 0.565639 12.8809 1.26339 12.8809H3.35781C4.05556 12.8809 4.6212 13.4466 4.6212 14.1443C4.6212 14.8421 4.05556 15.4077 3.35781 15.4077H1.26339C0.565639 15.4077 0 14.8421 0 14.1443ZM1.26339 19.3719C0.565639 19.3719 0 19.9376 0 20.6353C0 21.3331 0.565639 21.8987 1.26339 21.8987H3.35781C4.05556 21.8987 4.6212 21.3331 4.6212 20.6353C4.6212 19.9376 4.05556 19.3719 3.35781 19.3719H1.26339ZM0 27.1292C0 26.4315 0.565639 25.8658 1.26339 25.8658H3.35781C4.05556 25.8658 4.6212 26.4315 4.6212 27.1292C4.6212 27.827 4.05556 28.3926 3.35781 28.3926H1.26339C0.565639 28.3926 0 27.827 0 27.1292ZM1.26339 32.3596C0.565639 32.3596 0 32.9252 0 33.623C0 34.3207 0.565639 34.8864 1.26339 34.8864H3.35781C4.05556 34.8864 4.6212 34.3207 4.6212 33.623C4.6212 32.9252 4.05556 32.3596 3.35781 32.3596H1.26339ZM0 40.0102C0 39.3124 0.565639 38.7468 1.26339 38.7468H3.35781C4.05556 38.7468 4.6212 39.3124 4.6212 40.0102C4.6212 40.7079 4.05556 41.2735 3.35781 41.2735H1.26339C0.565639 41.2735 0 40.7079 0 40.0102ZM1.26339 45.2379C0.565639 45.2379 0 45.8035 0 46.5013C0 47.199 0.565639 47.7646 1.26339 47.7646H3.35781C4.05556 47.7646 4.6212 47.199 4.6212 46.5013C4.6212 45.8035 4.05556 45.2379 3.35781 45.2379H1.26339ZM8.27395 1.26339C8.27395 0.565639 8.83959 0 9.53734 0H30.8999C31.5976 0 32.1633 0.565639 32.1633 1.26339C32.1633 1.96114 31.5976 2.52678 30.8999 2.52678H9.53734C8.83959 2.52678 8.27395 1.96114 8.27395 1.26339ZM18.0186 6.49377C17.3208 6.49377 16.7552 7.05941 16.7552 7.75716C16.7552 8.45491 17.3208 9.02055 18.0186 9.02055H41.79C42.4877 9.02055 43.0534 8.45491 43.0534 7.75716C43.0534 7.05941 42.4877 6.49377 41.79 6.49377H18.0186ZM16.7552 14.1443C16.7552 13.4466 17.3208 12.8809 18.0186 12.8809H32.5757C33.2734 12.8809 33.839 13.4466 33.839 14.1443C33.839 14.8421 33.2734 15.4077 32.5757 15.4077H18.0186C17.3208 15.4077 16.7552 14.8421 16.7552 14.1443ZM26.5004 19.3719C25.8026 19.3719 25.237 19.9376 25.237 20.6353C25.237 21.3331 25.8026 21.8987 26.5004 21.8987H43.7807C44.4785 21.8987 45.0441 21.3331 45.0441 20.6353C45.0441 19.9376 44.4785 19.3719 43.7807 19.3719H26.5004ZM36.4414 1.26339C36.4414 0.565639 37.007 0 37.7048 0H46.7114C47.4091 0 47.9748 0.565639 47.9748 1.26339C47.9748 1.96114 47.4091 2.52678 46.7114 2.52678H37.7048C37.007 2.52678 36.4414 1.96114 36.4414 1.26339ZM48.0731 6.49377C47.3753 6.49377 46.8097 7.05941 46.8097 7.75716C46.8097 8.45491 47.3753 9.02055 48.0731 9.02055H53.3091C54.0069 9.02055 54.5725 8.45491 54.5725 7.75716C54.5725 7.05941 54.0069 6.49377 53.3091 6.49377H48.0731ZM58.3291 7.75716C58.3291 7.05941 58.8947 6.49377 59.5924 6.49377H74.0428C74.7406 6.49377 75.3062 7.05941 75.3062 7.75716C75.3062 8.45491 74.7406 9.02055 74.0428 9.02055H59.5924C58.8947 9.02055 58.3291 8.45491 58.3291 7.75716ZM38.8591 12.8809C38.1613 12.8809 37.5957 13.4466 37.5957 14.1443C37.5957 14.8421 38.1613 15.4077 38.8591 15.4077H60.8477C61.5454 15.4077 62.1111 14.8421 62.1111 14.1443C62.1111 13.4466 61.5454 12.8809 60.8477 12.8809H38.8591ZM65.8671 14.1443C65.8671 13.4466 66.4327 12.8809 67.1304 12.8809H74.0426C74.7403 12.8809 75.306 13.4466 75.306 14.1443C75.306 14.8421 74.7403 15.4077 74.0426 15.4077H67.1304C66.4327 15.4077 65.8671 14.8421 65.8671 14.1443ZM50.0635 19.3719C49.3657 19.3719 48.8001 19.9376 48.8001 20.6353C48.8001 21.3331 49.3657 21.8987 50.0635 21.8987H74.0426C74.7404 21.8987 75.306 21.3331 75.306 20.6353C75.306 19.9376 74.7404 19.3719 74.0426 19.3719H50.0635ZM8.27395 27.1292C8.27395 26.4315 8.83959 25.8658 9.53734 25.8658H30.8999C31.5976 25.8658 32.1633 26.4315 32.1633 27.1292C32.1633 27.827 31.5976 28.3926 30.8999 28.3926H9.53734C8.83959 28.3926 8.27395 27.827 8.27395 27.1292ZM18.0186 32.3596C17.3208 32.3596 16.7552 32.9252 16.7552 33.623C16.7552 34.3207 17.3208 34.8864 18.0186 34.8864H41.79C42.4877 34.8864 43.0534 34.3207 43.0534 33.623C43.0534 32.9252 42.4877 32.3596 41.79 32.3596H18.0186ZM16.7552 40.0102C16.7552 39.3124 17.3208 38.7468 18.0186 38.7468H32.5757C33.2734 38.7468 33.839 39.3124 33.839 40.0102C33.839 40.7079 33.2734 41.2735 32.5757 41.2735H18.0186C17.3208 41.2735 16.7552 40.7079 16.7552 40.0102ZM26.5004 45.2379C25.8026 45.2379 25.237 45.8035 25.237 46.5013C25.237 47.199 25.8026 47.7646 26.5004 47.7646H43.7807C44.4785 47.7646 45.0441 47.199 45.0441 46.5013C45.0441 45.8035 44.4785 45.2379 43.7807 45.2379H26.5004ZM36.4414 27.1292C36.4414 26.4315 37.007 25.8658 37.7048 25.8658H46.7114C47.4091 25.8658 47.9748 26.4315 47.9748 27.1292C47.9748 27.827 47.4091 28.3926 46.7114 28.3926H37.7048C37.007 28.3926 36.4414 27.827 36.4414 27.1292ZM48.0731 32.3596C47.3753 32.3596 46.8097 32.9252 46.8097 33.623C46.8097 34.3207 47.3753 34.8864 48.0731 34.8864H53.3091C54.0069 34.8864 54.5725 34.3207 54.5725 33.623C54.5725 32.9252 54.0069 32.3596 53.3091 32.3596H48.0731ZM58.3291 33.623C58.3291 32.9252 58.8947 32.3596 59.5924 32.3596H74.0428C74.7406 32.3596 75.3062 32.9252 75.3062 33.623C75.3062 34.3207 74.7406 34.8864 74.0428 34.8864H59.5924C58.8947 34.8864 58.3291 34.3207 58.3291 33.623ZM38.8591 38.7468C38.1613 38.7468 37.5957 39.3124 37.5957 40.0102C37.5957 40.7079 38.1613 41.2735 38.8591 41.2735H60.8477C61.5454 41.2735 62.1111 40.7079 62.1111 40.0102C62.1111 39.3124 61.5454 38.7468 60.8477 38.7468H38.8591ZM65.8671 40.0102C65.8671 39.3124 66.4327 38.7468 67.1304 38.7468H74.0426C74.7403 38.7468 75.306 39.3124 75.306 40.0102C75.306 40.7079 74.7403 41.2735 74.0426 41.2735H67.1304C66.4327 41.2735 65.8671 40.7079 65.8671 40.0102ZM50.0635 45.2379C49.3657 45.2379 48.8001 45.8035 48.8001 46.5013C48.8001 47.199 49.3657 47.7646 50.0635 47.7646H74.0426C74.7404 47.7646 75.306 47.199 75.306 46.5013C75.306 45.8035 74.7404 45.2379 74.0426 45.2379H50.0635Z" fill="url(#paint0_linear_19_479)"/>
<defs>
<linearGradient id="paint0_linear_19_479" x1="-2.97203e-07" y1="2.10566" x2="75.2419" y2="47.7278" gradientUnits="userSpaceOnUse">
<stop stop-color="#706BF1"/>
<stop offset="1" stop-color="#38BCFD"/>
</linearGradient>
</defs>
</svg>
