<svg width="80" height="52" viewBox="0 0 80 52" fill="none" xmlns="http://www.w3.org/2000/svg">
<path fill-rule="evenodd" clip-rule="evenodd" d="M69 0.657715C69.7412 0.657715 70.3421 1.25861 70.3421 1.99985V43.9998C70.3421 44.7411 69.7412 45.342 69 45.342C68.2588 45.342 67.6579 44.7411 67.6579 43.9998V1.99985C67.6579 1.25861 68.2588 0.657715 69 0.657715ZM0.000153303 9.90231C0.000153303 6.71597 2.7121 3.99991 5.90255 3.99991C6.64379 3.99991 7.24468 4.6008 7.24468 5.34204C7.24468 6.08328 6.64379 6.68417 5.90255 6.68417C4.19571 6.68417 2.68442 8.19732 2.68442 9.90231C2.68442 11.6493 4.24002 13.2338 5.90255 13.2338C7.58576 13.2338 9.12069 11.7415 9.12069 9.90231C9.12069 9.16107 9.72158 8.56017 10.4628 8.56017C11.2041 8.56017 11.8049 9.16107 11.8049 9.90231C11.8049 13.1812 9.11067 15.918 5.90255 15.918C2.67376 15.918 0.000153303 13.0466 0.000153303 9.90231ZM16.9108 9.90231C16.9108 6.73717 19.4914 3.99991 22.8132 3.99991C23.5544 3.99991 24.1553 4.6008 24.1553 5.34204C24.1553 6.08328 23.5544 6.68417 22.8132 6.68417C21.017 6.68417 19.5951 8.17612 19.5951 9.90231C19.5951 11.6714 21.0585 13.2338 22.8132 13.2338C24.5884 13.2338 26.0313 11.7634 26.0313 9.90231C26.0313 9.16107 26.6322 8.56017 27.3735 8.56017C28.1147 8.56017 28.7156 9.16107 28.7156 9.90231C28.7156 13.1592 26.156 15.918 22.8132 15.918C19.4499 15.918 16.9108 13.0245 16.9108 9.90231ZM39.7209 3.99991C36.3991 3.99991 33.8185 6.73717 33.8185 9.90231C33.8185 13.0245 36.3576 15.918 39.7209 15.918C43.0637 15.918 45.6233 13.1592 45.6233 9.90231C45.6233 9.16107 45.0224 8.56017 44.2812 8.56017C43.5399 8.56017 42.939 9.16107 42.939 9.90231C42.939 11.7634 41.4961 13.2338 39.7209 13.2338C37.9662 13.2338 36.5028 11.6714 36.5028 9.90231C36.5028 8.17612 37.9247 6.68417 39.7209 6.68417C40.4621 6.68417 41.063 6.08328 41.063 5.34204C41.063 4.6008 40.4621 3.99991 39.7209 3.99991ZM1.34213 20.9098C2.08337 20.9098 2.68426 21.5107 2.68426 22.252V49.1628H44.2844C45.0256 49.1628 45.6265 49.7637 45.6265 50.505C45.6265 51.2462 45.0256 51.8471 44.2844 51.8471H1.34213C0.600893 51.8471 0 51.2462 0 50.5049V22.252C0 21.5107 0.600893 20.9098 1.34213 20.9098ZM45.0372 24.1408C45.6508 24.5565 45.8113 25.391 45.3956 26.0047L38.3867 36.3511C38.1032 36.7696 37.6085 36.9933 37.107 36.9298L28.9307 35.895L22.1586 42.044C21.7626 42.4036 21.1909 42.4937 20.7035 42.2733L13.4893 39.012L7.91454 45.382C7.42638 45.9398 6.57847 45.9963 6.02067 45.5081C5.46287 45.02 5.40642 44.1721 5.89458 43.6143L12.1251 36.495C12.5144 36.0501 13.1491 35.9124 13.6879 36.1559L21.0065 39.4645L27.5838 33.4922C27.8742 33.2285 28.2654 33.1051 28.6546 33.1543L36.6265 34.1633L43.1733 24.4992C43.589 23.8856 44.4235 23.7251 45.0372 24.1408ZM52.4026 49.1628C51.6614 49.1628 51.0605 49.7637 51.0605 50.505C51.0605 51.2462 51.6614 51.8471 52.4026 51.8471H78.6577C79.3989 51.8471 79.9998 51.2462 79.9998 50.505C79.9998 49.7637 79.3989 49.1628 78.6577 49.1628H52.4026ZM54.9999 34.6577C55.7411 34.6577 56.342 35.2586 56.342 35.9999V43.9999C56.342 44.7411 55.7411 45.342 54.9999 45.342C54.2587 45.342 53.6578 44.7411 53.6578 43.9999V35.9999C53.6578 35.2586 54.2587 34.6577 54.9999 34.6577ZM63.3421 23.9998C63.3421 23.2586 62.7412 22.6577 62 22.6577C61.2588 22.6577 60.6579 23.2586 60.6579 23.9998V43.9998C60.6579 44.7411 61.2588 45.342 62 45.342C62.7412 45.342 63.3421 44.7411 63.3421 43.9998V23.9998ZM77.3421 6.99985C77.3421 6.25861 76.7412 5.65771 76 5.65771C75.2588 5.65771 74.6579 6.25861 74.6579 6.99985V43.9998C74.6579 44.7411 75.2588 45.342 76 45.342C76.7412 45.342 77.3421 44.7411 77.3421 43.9998V6.99985Z" fill="url(#paint0_linear_19_537)"/>
<defs>
<linearGradient id="paint0_linear_19_537" x1="2.38601" y1="8.08764" x2="79.9314" y2="51.9306" gradientUnits="userSpaceOnUse">
<stop stop-color="#706BF1"/>
<stop offset="1" stop-color="#38BCFD"/>
</linearGradient>
</defs>
</svg>
