<svg width="68" height="62" viewBox="0 0 68 62" fill="none" xmlns="http://www.w3.org/2000/svg">
<path fill-rule="evenodd" clip-rule="evenodd" d="M43.622 2.9058C41.5757 2.9058 39.9349 4.60995 39.9349 6.59293C39.9349 8.52074 41.6202 10.18 43.622 10.18C45.6055 10.18 47.209 8.63875 47.209 6.59293C47.209 4.50961 45.568 2.9058 43.622 2.9058ZM43.622 0C39.9342 0 37.0291 3.04198 37.0291 6.59293C37.0291 8.26542 37.6875 9.78317 38.7459 10.93L27.8058 26.4748C26.7508 25.7331 25.468 25.2966 24.0887 25.2966C22.2224 25.2966 20.5327 26.0958 19.3451 27.3688L12.4614 23.3758C12.7986 22.5924 12.9857 21.7309 12.9857 20.8281C12.9857 17.2588 10.0622 14.3353 6.49284 14.3353C2.92346 14.3353 0 17.2588 0 20.8281C0 24.3975 2.92346 27.321 6.49284 27.321C8.11461 27.321 9.60303 26.7174 10.7445 25.724C10.7955 25.7635 10.8496 25.8001 10.9069 25.8333L17.8842 29.8807C17.6969 30.4849 17.5959 31.126 17.5959 31.7894C17.5959 35.3588 20.5193 38.2823 24.0887 38.2823C27.6581 38.2823 30.5815 35.3588 30.5815 31.7894C30.5815 30.6731 30.2956 29.6199 29.7933 28.6996L41.1306 12.5904C41.9064 12.9098 42.7498 13.0858 43.622 13.0858C45.3206 13.0858 46.8801 12.4438 48.0447 11.3703C48.1738 11.7012 48.4239 11.9859 48.7694 12.1517L54.9939 15.1392C54.9071 15.5672 54.8615 16.0129 54.8615 16.4727C54.8615 20.1605 57.9035 23.0656 61.4545 23.0656C65.0606 23.0656 67.9473 20.0049 67.9473 16.4727C67.9473 12.9033 65.0238 9.97987 61.4545 9.97987C59.316 9.97987 57.4101 10.9459 56.2042 12.497L50.0268 9.53202C49.8555 9.4498 49.6761 9.40416 49.4974 9.39197C49.8929 8.55214 50.1148 7.60586 50.1148 6.59293C50.1148 2.94215 47.2099 0 43.622 0ZM57.7673 16.4727C57.7673 16.0558 57.8343 15.6587 57.9591 15.2909C58.021 15.211 58.0754 15.1234 58.121 15.0285C58.1767 14.9123 58.2157 14.7923 58.2388 14.6714C58.8596 13.5918 60.0399 12.8857 61.4545 12.8857C63.419 12.8857 65.0415 14.5082 65.0415 16.4727C65.0415 18.4745 63.3823 20.1598 61.4545 20.1598C59.4715 20.1598 57.7673 18.519 57.7673 16.4727ZM2.9058 20.8281C2.9058 18.8636 4.52829 17.2411 6.49284 17.2411C8.45739 17.2411 10.0799 18.8636 10.0799 20.8281C10.0799 22.7927 8.45739 24.4152 6.49284 24.4152C4.52829 24.4152 2.9058 22.7927 2.9058 20.8281ZM20.5016 31.7894C20.5016 29.8249 22.1241 28.2024 24.0887 28.2024C26.0532 28.2024 27.6757 29.8249 27.6757 31.7894C27.6757 33.754 26.0532 35.3765 24.0887 35.3765C22.1241 35.3765 20.5016 33.754 20.5016 31.7894ZM6.49284 48.0716C4.50935 48.0716 2.9058 49.6128 2.9058 51.6586C2.9058 53.7419 4.54685 55.3457 6.49284 55.3457C8.42065 55.3457 10.0799 53.6604 10.0799 51.6586C10.0799 49.694 8.45739 48.0716 6.49284 48.0716ZM0 51.6586C0 47.9703 2.9424 45.1658 6.49284 45.1658C9.94511 45.1658 12.7931 47.9005 12.9763 51.3094C13.0078 51.315 13.0393 51.3217 13.0708 51.3294L18.2749 52.6089C19.3357 50.4536 21.5313 48.9142 24.0887 48.9142C26.7121 48.9142 28.9704 50.4871 29.9949 52.7599L37.6434 46.8579C37.2507 46.034 37.0291 45.1158 37.0291 44.1455C37.0291 40.5946 39.9342 37.5526 43.622 37.5526C47.2099 37.5526 50.1148 40.4947 50.1148 44.1455L50.1148 44.173C50.2068 44.1684 50.3006 44.1725 50.3953 44.1861L55.3306 44.8926C56.3009 42.5012 58.6718 40.8136 61.4545 40.8136C65.0049 40.8136 67.9473 43.6182 67.9473 47.3064C67.9473 50.9947 65.0049 53.7993 61.4545 53.7993C58.0728 53.7993 55.1231 51.1532 54.878 47.7632L49.9835 47.0625C49.8144 47.0383 49.6563 46.9859 49.5132 46.9107C48.4757 49.1477 46.2104 50.6383 43.622 50.6383C42.0635 50.6383 40.5968 50.0763 39.4443 49.1385L31.3657 55.3724C31.1299 55.5544 30.856 55.6526 30.5796 55.6717C30.4935 59.2785 27.5861 62 24.0887 62C20.5193 62 17.5959 59.0765 17.5959 55.5071C17.5959 55.4828 17.596 55.4586 17.5963 55.4343L12.4793 54.1763C11.499 56.5286 9.1984 58.2515 6.49284 58.2515C2.90491 58.2515 0 55.3094 0 51.6586ZM40.7558 46.3667C41.4376 47.1908 42.4781 47.7325 43.622 47.7325C45.6055 47.7325 47.209 46.1913 47.209 44.1455C47.209 42.0622 45.568 40.4584 43.622 40.4584C41.5757 40.4584 39.9349 42.1625 39.9349 44.1455C39.9349 44.9176 40.2052 45.6466 40.6579 46.2432C40.6794 46.2675 40.7002 46.2926 40.7203 46.3187C40.7325 46.3345 40.7444 46.3505 40.7558 46.3667ZM20.5016 55.5071C20.5016 53.5053 22.1609 51.82 24.0887 51.82C26.0347 51.82 27.6757 53.4238 27.6757 55.5071C27.6757 57.5529 26.0722 59.0942 24.0887 59.0942C22.1241 59.0942 20.5016 57.4717 20.5016 55.5071ZM57.7673 47.3064C57.7673 47.2079 57.7714 47.1101 57.7795 47.0132C57.8132 46.9205 57.838 46.8229 57.8525 46.7213C57.8643 46.6386 57.869 46.5566 57.8669 46.4758C58.247 44.9153 59.676 43.7194 61.4545 43.7194C63.438 43.7194 65.0415 45.2606 65.0415 47.3064C65.0415 49.3523 63.438 50.8935 61.4545 50.8935C59.4527 50.8935 57.7673 49.2343 57.7673 47.3064Z" fill="url(#paint0_linear_19_520)"/>
<defs>
<linearGradient id="paint0_linear_19_520" x1="2.6041e-07" y1="2.74436" x2="61.6675" y2="61.9903" gradientUnits="userSpaceOnUse">
<stop stop-color="#706BF1"/>
<stop offset="1" stop-color="#38BCFD"/>
</linearGradient>
</defs>
</svg>
