<svg width="62" height="58" viewBox="0 0 62 58" fill="none" xmlns="http://www.w3.org/2000/svg">
<path fill-rule="evenodd" clip-rule="evenodd" d="M19.4156 9.28854C23.1143 2.91437 31.2734 0.745326 37.6509 4.44375L37.6509 4.44378L37.6593 4.4486C44.0212 8.07558 46.197 16.2277 42.4964 22.609L42.4963 22.609L42.4911 22.6182C40.1419 26.7452 35.8135 29.1102 31.3402 29.2387C30.6117 29.2596 30.0382 29.8671 30.0591 30.5955C30.08 31.324 30.6875 31.8975 31.4159 31.8766C36.7465 31.7236 41.9463 28.9061 44.7819 23.9284C49.205 16.2956 46.6143 6.51926 38.9707 2.15842C31.3329 -2.26787 21.5614 0.331007 17.1324 7.96511L17.1314 7.96682C14.2993 12.8655 14.3863 18.7422 16.8937 23.5312C17.2317 24.1768 18.0291 24.4261 18.6747 24.0881C19.3203 23.75 19.5697 22.9527 19.2316 22.307C17.118 18.2701 17.0641 13.3566 19.4156 9.28854ZM15.8928 28.7191C8.57201 28.7191 2.63903 34.7059 2.63903 42.0433C2.63903 49.3724 8.56375 55.2971 15.8928 55.2971C20.6886 55.2971 24.884 52.8734 27.2356 48.9974C27.6136 48.3743 28.4252 48.1757 29.0482 48.5537C29.6712 48.9317 29.8699 49.7432 29.4919 50.3663C26.6593 55.0349 21.6063 57.9361 15.8928 57.9361C7.10625 57.9361 0 50.8299 0 42.0433C0 33.265 7.09799 26.0801 15.8928 26.0801C21.6804 26.0801 26.7345 29.0553 29.4952 33.6554C29.8702 34.2802 29.6676 35.0908 29.0428 35.4658C28.4179 35.8408 27.6073 35.6382 27.2323 35.0134C24.9496 31.2096 20.7553 28.7191 15.8928 28.7191ZM45.1192 27.3652C45.1398 26.6367 45.747 26.0629 46.4755 26.0835C51.8922 26.2368 57.0116 29.1369 59.8397 34.0278C64.2661 41.6584 61.6756 51.4402 54.0308 55.8017C46.396 60.228 36.6213 57.6292 32.1953 49.9947L32.19 49.9857L32.1901 49.9857C29.3672 45.0265 29.4445 39.1505 31.9608 34.4213C32.3031 33.7779 33.1022 33.5339 33.7455 33.8762C34.3889 34.2185 34.6329 35.0175 34.2906 35.6609C32.1864 39.6155 32.1222 44.5282 34.481 48.6757C38.1778 55.0465 46.3375 57.2141 52.7108 53.5165L52.7194 53.5115L52.7194 53.5116C59.0814 49.8846 61.257 41.7296 57.5566 35.3514L57.5556 35.3496C55.1994 31.2743 50.93 28.8497 46.4008 28.7215C45.6724 28.7009 45.0986 28.0937 45.1192 27.3652ZM46.0189 34.3286C44.8564 34.3286 43.9752 35.2098 43.9752 36.3723C43.9752 37.0462 44.2603 38.1189 44.7742 39.0199C45.0252 39.4599 45.2938 39.7925 45.5427 40.0008C45.7894 40.2074 45.9465 40.2371 46.0189 40.2371C46.083 40.2371 46.2375 40.2102 46.4872 39.9977C46.7382 39.7842 47.0087 39.4443 47.2613 38.9976C47.7799 38.081 48.0627 37.0072 48.0627 36.3723C48.0627 35.2621 47.1636 34.3286 46.0189 34.3286ZM41.3361 36.3723C41.3361 33.7523 43.3989 31.6895 46.0189 31.6895C48.6569 31.6895 50.7018 33.8407 50.7018 36.3723C50.7018 37.5585 50.2486 39.0768 49.5583 40.297C49.2066 40.9188 48.7545 41.5335 48.1975 42.0075C47.6393 42.4825 46.9005 42.8761 46.0189 42.8761C45.1457 42.8761 44.4096 42.4941 43.8484 42.0242C43.2893 41.556 42.8353 40.9472 42.4819 40.3275C41.787 39.1092 41.3361 37.5898 41.3361 36.3723ZM42.8492 44.4184C43.3463 43.8855 43.3174 43.0505 42.7845 42.5534C42.2516 42.0563 41.4167 42.0852 40.9195 42.6181C39.796 43.8223 38.8847 45.4597 38.8847 47.3008C38.8847 48.2832 39.083 49.1623 39.522 49.909C39.9651 50.6629 40.5987 51.1886 41.3131 51.5457C42.669 52.2234 44.4072 52.3326 46.0188 52.3326C47.6305 52.3326 49.3687 52.2234 50.7246 51.5457C51.439 51.1886 52.0725 50.6629 52.5157 49.909C52.9547 49.1623 53.153 48.2832 53.153 47.3008C53.153 45.4609 52.2457 43.8231 51.1168 42.6166C50.6189 42.0845 49.7839 42.0568 49.2518 42.5547C48.7196 43.0527 48.6919 43.8877 49.1899 44.4198C50.0255 45.3129 50.514 46.3375 50.514 47.3008C50.514 47.9297 50.3884 48.3204 50.2406 48.5717C50.097 48.816 49.8811 49.017 49.5447 49.1851C48.7989 49.5579 47.6297 49.6936 46.0188 49.6936C44.408 49.6936 43.2388 49.5579 42.493 49.1851C42.1566 49.017 41.9407 48.816 41.7971 48.5717C41.6493 48.3204 41.5237 47.9297 41.5237 47.3008C41.5237 46.3387 42.0139 45.3136 42.8492 44.4184ZM30.9559 8.2666C29.8457 8.2666 28.9121 9.16573 28.9121 10.3104C28.9121 10.9842 29.1972 12.0569 29.7112 12.958C29.9621 13.3979 30.2308 13.7305 30.4796 13.9389C30.7263 14.1454 30.8834 14.1751 30.9559 14.1751C31.0284 14.1751 31.1855 14.1454 31.4322 13.9389C31.681 13.7305 31.9497 13.3979 32.2006 12.958C32.7146 12.0569 32.9997 10.9842 32.9997 10.3104C32.9997 9.14782 32.1185 8.2666 30.9559 8.2666ZM30.9559 5.62756C28.4243 5.62756 26.2731 7.67241 26.2731 10.3104C26.2731 11.5279 26.7239 13.0472 27.4188 14.2655C27.7723 14.8852 28.2263 15.4941 28.7853 15.9622C29.3466 16.4322 30.0827 16.8141 30.9559 16.8141C31.8291 16.8141 32.5652 16.4322 33.1264 15.9622C33.6855 15.4941 34.1395 14.8852 34.493 14.2655C35.1878 13.0472 35.6387 11.5279 35.6387 10.3104C35.6387 7.69032 33.576 5.62756 30.9559 5.62756ZM27.7878 18.3579C28.2857 17.8258 28.258 16.9908 27.7259 16.4928C27.1938 15.9949 26.3588 16.0226 25.8608 16.5547C24.7002 17.7951 23.892 19.4354 23.892 21.2389C23.892 22.2154 24.0836 23.0906 24.5118 23.8359C24.9452 24.5901 25.5683 25.1194 26.2773 25.4798C27.6198 26.1622 29.3461 26.2707 30.9559 26.2707C32.5675 26.2707 34.3057 26.1615 35.6616 25.4838C36.376 25.1267 37.0096 24.601 37.4527 23.8472C37.8917 23.1004 38.09 22.2213 38.09 21.2389C38.09 19.399 37.1827 17.7612 36.0538 16.5547C35.5559 16.0226 34.7209 15.9949 34.1888 16.4928C33.6567 16.9908 33.6289 17.8258 34.1269 18.3579C34.9626 19.251 35.451 20.2756 35.451 21.2389C35.451 21.8678 35.3254 22.2585 35.1776 22.5098C35.034 22.7541 34.8182 22.9551 34.4817 23.1232C33.7359 23.496 32.5667 23.6317 30.9559 23.6317C29.3431 23.6317 28.1972 23.4953 27.4732 23.1273C27.1489 22.9624 26.9402 22.765 26.8 22.5211C26.6547 22.2682 26.5311 21.8737 26.5311 21.2389C26.5311 20.2393 26.9838 19.2171 27.7878 18.3579ZM15.8928 34.3286C14.7826 34.3286 13.8491 35.2277 13.8491 36.3723C13.8491 37.0462 14.1342 38.1189 14.6481 39.0199C14.8991 39.4599 15.1677 39.7925 15.4166 40.0008C15.6633 40.2074 15.8204 40.2371 15.8928 40.2371C15.9594 40.2371 16.1208 40.2081 16.3802 39.9909C16.6393 39.774 16.9181 39.4308 17.1786 38.9834C17.7146 38.0628 18.007 36.9943 18.007 36.3723C18.007 35.2978 17.0732 34.3286 15.8928 34.3286ZM15.8928 31.6895C13.3612 31.6895 11.21 33.7344 11.21 36.3723C11.21 37.5898 11.6609 39.1092 12.3558 40.3275C12.7092 40.9472 13.1632 41.556 13.7223 42.0242C14.2835 42.4941 15.0196 42.8761 15.8928 42.8761C16.7719 42.8761 17.5126 42.4846 18.0743 42.0143C18.6364 41.5437 19.0977 40.9323 19.4593 40.3112C20.1673 39.095 20.646 37.5713 20.646 36.3723C20.646 33.805 18.4951 31.6895 15.8928 31.6895ZM12.7574 44.3836C13.2353 43.8334 13.1768 43 12.6266 42.5221C12.0765 42.0442 11.243 42.1027 10.7651 42.6529C9.73483 43.8389 8.82899 45.4664 8.82899 47.3008C8.82899 48.2773 9.02056 49.1525 9.44878 49.8978C9.88216 50.652 10.5053 51.1813 11.2143 51.5417C12.5568 52.2241 14.283 52.3326 15.8928 52.3326C17.5045 52.3326 19.2426 52.2234 20.5985 51.5457C21.313 51.1886 21.9465 50.6629 22.3897 49.909C22.8286 49.1623 23.027 48.2832 23.027 47.3008C23.027 45.4609 22.1197 43.8231 20.9908 42.6166C20.4928 42.0845 19.6578 42.0568 19.1257 42.5547C18.5936 43.0527 18.5659 43.8877 19.0638 44.4198C19.8995 45.3129 20.388 46.3375 20.388 47.3008C20.388 47.9297 20.2623 48.3204 20.1146 48.5717C19.971 48.816 19.7551 49.017 19.4187 49.1851C18.6729 49.5579 17.5037 49.6936 15.8928 49.6936C14.28 49.6936 13.1341 49.5572 12.4101 49.1891C12.0859 49.0243 11.8771 48.8269 11.737 48.583C11.5917 48.3301 11.468 47.9356 11.468 47.3008C11.468 46.332 11.9638 45.2971 12.7574 44.3836Z" fill="url(#paint0_linear_19_551)"/>
<defs>
<linearGradient id="paint0_linear_19_551" x1="9.09" y1="2.493" x2="58.2054" y2="60.6983" gradientUnits="userSpaceOnUse">
<stop stop-color="#706BF1"/>
<stop offset="1" stop-color="#38BCFD"/>
</linearGradient>
</defs>
</svg>
