<svg width="61" height="69" viewBox="0 0 61 69" fill="none" xmlns="http://www.w3.org/2000/svg">
<path fill-rule="evenodd" clip-rule="evenodd" d="M13.5146 16.9854C13.5146 7.64064 21.1552 0 30.5 0C39.8447 0 47.4853 7.64064 47.4853 16.9854C47.4853 21.2883 45.8653 25.2299 43.2048 28.2306L46.6963 31.7221L48.5325 29.8859L48.5355 29.8829L48.5359 29.8825C49.0621 29.3564 49.9152 29.3563 50.4415 29.8824C50.4647 29.9056 50.4869 29.9295 50.5081 29.9539L58.1396 37.4728C58.1538 37.4867 58.1676 37.5009 58.1811 37.5155C60.1139 39.5958 60.1139 42.9654 58.1811 45.0457C58.1586 45.0699 58.1353 45.0932 58.1111 45.1157C56.0308 47.0485 52.6612 47.0485 50.5809 45.1157C50.5664 45.1022 50.5521 45.0883 50.5382 45.0742L42.9439 37.3661C42.4243 36.8387 42.4275 35.991 42.951 35.4675L44.7906 33.6279L41.264 30.1013C38.3289 32.5166 34.5766 33.9707 30.5 33.9707C28.6732 33.9707 26.9116 33.6788 25.2595 33.1392V66.7616C25.2595 67.5059 24.6561 68.1092 23.9119 68.1092C23.1677 68.1092 22.5643 67.5059 22.5643 66.7616V31.9913C17.1919 29.1309 13.5146 23.4682 13.5146 16.9854ZM30.5 2.69514C22.6437 2.69514 16.2097 9.12912 16.2097 16.9854C16.2097 24.8416 22.6437 31.2756 30.5 31.2756C38.3562 31.2756 44.7902 24.8416 44.7902 16.9854C44.7902 9.12912 38.3562 2.69514 30.5 2.69514ZM36.2959 13.4019C36.7232 12.7926 36.5756 11.9522 35.9663 11.5249C35.3569 11.0976 34.5165 11.2451 34.0892 11.8545L29.129 18.9279L27.0023 16.0701C26.558 15.473 25.7138 15.3492 25.1168 15.7935C24.5197 16.2378 24.3959 17.082 24.8402 17.679L28.0803 22.0332C28.3386 22.3803 28.7478 22.5822 29.1804 22.5761C29.613 22.57 30.0163 22.3566 30.2647 22.0024L36.2959 13.4019ZM1.34757 48.0303C0.603327 48.0303 0 48.6337 0 49.3779V66.7616C0 67.5058 0.603327 68.1091 1.34757 68.1091C2.09181 68.1091 2.69514 67.5058 2.69514 66.7616V50.7255H13.0684V66.9083C13.0684 67.6525 13.6718 68.2559 14.416 68.2559C15.1602 68.2559 15.7636 67.6525 15.7636 66.9083V49.3779C15.7636 48.6337 15.1602 48.0303 14.416 48.0303H1.34757ZM38.4387 41.2237C38.4387 40.4794 37.8354 39.8761 37.0911 39.8761C36.3469 39.8761 35.7436 40.4794 35.7436 41.2237V66.9083C35.7436 67.6526 36.3469 68.2559 37.0911 68.2559C37.8354 68.2559 38.4387 67.6526 38.4387 66.9083V41.2237ZM46.584 54.5077C45.8398 54.5077 45.2364 55.111 45.2364 55.8553V66.7616C45.2364 67.5058 45.8398 68.1092 46.584 68.1092C47.3282 68.1092 47.9316 67.5058 47.9316 66.7616V57.2028H58.3049V66.6089C58.3049 67.3531 58.9082 67.9564 59.6524 67.9564C60.3967 67.9564 61 67.3531 61 66.6089V55.8553C61 55.111 60.3967 54.5077 59.6524 54.5077H46.584ZM45.8025 36.4274L47.5957 34.6342C47.6053 34.6257 47.6147 34.617 47.6241 34.6081C47.6331 34.5996 47.6419 34.591 47.6507 34.5822C47.6686 34.5643 47.6859 34.546 47.7027 34.5273L49.4928 32.7371L56.2247 39.3696C57.1674 40.4058 57.1725 42.1309 56.24 43.1746C55.1963 44.1071 53.4712 44.102 52.435 43.1592L45.8025 36.4274Z" fill="url(#paint0_linear_19_515)"/>
<defs>
<linearGradient id="paint0_linear_19_515" x1="2.9946" y1="0.898379" x2="59.4428" y2="68.2769" gradientUnits="userSpaceOnUse">
<stop stop-color="#706BF1"/>
<stop offset="1" stop-color="#38BCFD"/>
</linearGradient>
</defs>
</svg>
