<svg width="107" height="36" viewBox="0 0 107 36" fill="none" xmlns="http://www.w3.org/2000/svg">
<g clip-path="url(#clip0_1_33487)">
<path d="M27.3129 17.1764C24.3159 15.1209 20.4855 15.956 18.4684 19.0456C16.7886 21.6277 14.2498 21.9489 13.2763 21.9489C10.0694 21.9489 7.88051 19.675 7.23149 17.3177C7.23149 17.3177 7.21876 17.2727 7.2124 17.2535C7.20604 17.2278 7.19967 17.2021 7.19331 17.1764C6.93879 16.1936 6.87516 15.7247 6.87516 14.6842C6.87516 9.05739 12.5954 2.79471 20.8291 2.79471C29.0627 2.79471 34.0894 9.27578 35.3365 12.8792C35.3111 12.8086 35.292 12.7508 35.2729 12.6865C32.8741 5.63379 26.2566 0.572266 18.4621 0.572266C8.65678 0.572266 0.703125 8.59492 0.703125 18.4996C0.703125 27.3508 7.02787 34.9239 15.8024 34.9239C22.7952 34.9239 27.4974 30.9671 29.6544 25.5074C30.8379 22.5205 30.0044 19.0134 27.3193 17.17" fill="#003964"/>
<path d="M35.4448 13.2204C34.4076 9.70691 29.5464 2.78906 20.8228 2.78906C12.5892 2.78906 6.8689 9.05174 6.8689 14.6785C6.8689 15.7255 6.93253 16.188 7.18704 17.1707C7.07887 16.7404 7.02797 16.31 7.02797 15.8925C7.02797 10.0345 12.8373 5.975 18.8121 5.975C26.8994 5.975 33.4596 12.591 33.4596 20.7549C33.4596 27.1525 29.8136 32.6958 24.5133 35.355C31.3471 32.8628 36.2274 26.2532 36.2274 18.4939C36.2274 16.6569 35.9856 15.0382 35.4448 13.214" fill="#ED193A"/>
<path d="M45.1292 6.00065V4.716H51.9821V6.00065H49.0742L52.103 9.11593L51.1422 10.0152L48.6034 7.34311L46.1218 10.1115L45.1101 9.19943L48.1134 6.00065H45.1228H45.1292ZM46.2554 10.6511H55.6344V13.9462H47.738V14.9675H55.7744V16.1879H46.2618V12.8221H54.1582V11.8265H46.2618V10.6511H46.2554ZM54.1518 4.36914H55.6344V10.0858H54.1518V4.36914Z" fill="#58595B"/>
<path d="M64.3516 10.4712H58.116V4.63249H59.5858V6.21262H62.92V4.63249H64.358V10.4712H64.3516ZM62.9136 7.46515H59.5794V9.22512H62.9136V7.46515ZM67.1259 13.8627C67.1259 14.2674 67.0432 14.6528 66.8777 15.0061C66.7123 15.3593 66.4959 15.6741 66.2223 15.9374C65.9424 16.2072 65.6051 16.4192 65.2297 16.5733C64.8479 16.7275 64.4534 16.811 64.0271 16.811C63.6008 16.811 63.2063 16.7339 62.8182 16.5733C62.4364 16.4192 62.0992 16.2072 61.8192 15.9374C61.5456 15.6677 61.3229 15.3593 61.1638 15.0061C60.9984 14.6528 60.9157 14.2674 60.9157 13.8627C60.9157 13.4581 60.9984 13.0727 61.1638 12.713C61.3292 12.3533 61.5456 12.0385 61.8192 11.7752C62.0992 11.5054 62.4364 11.2934 62.8182 11.1393C63.1999 10.9851 63.6072 10.9016 64.0271 10.9016C64.4471 10.9016 64.8479 10.9787 65.2297 11.1393C65.6115 11.2934 65.9424 11.5054 66.2223 11.7752C66.4959 12.0449 66.7186 12.3533 66.8777 12.713C67.0432 13.0727 67.1259 13.4581 67.1259 13.8627ZM65.6751 13.8499C65.6751 13.4002 65.5097 13.0084 65.1788 12.6808C64.8479 12.3533 64.4598 12.1927 64.0144 12.1927C63.569 12.1927 63.1809 12.3533 62.8563 12.6808C62.5318 13.0084 62.3664 13.4002 62.3664 13.8499C62.3664 14.2995 62.5255 14.6913 62.8563 15.0125C63.1809 15.3336 63.569 15.4942 64.0144 15.4942C64.4598 15.4942 64.8479 15.3336 65.1788 15.0125C65.5097 14.6913 65.6751 14.2995 65.6751 13.8499ZM66.6614 4.36914H68.1439V10.7667H66.6614V9.3279H64.9179V8.09463H66.6614V6.82283H64.9179V5.58956H66.6614V4.36914Z" fill="#58595B"/>
<path d="M77.7327 10.2785V11.5953H69.989V10.2785H72.4133V7.58077H73.8831V10.2785H77.7327ZM75.6075 9.12878V5.91715H70.5235V4.61322H77.0773V9.12235H75.6075V9.12878ZM70.8353 16.2136V12.6038H72.3178V14.9033H80.3542V16.2201H70.8416L70.8353 16.2136ZM80.1315 12.2826H78.649V4.36914H80.1315V7.60646H81.665V8.97462H80.1315V12.2826Z" fill="#58595B"/>
<path d="M89.4852 14.762H83.1223V9.25082H87.8691V6.42458H83.1223V5.10782H89.3453V10.5483H84.5858V13.4388H89.4789V14.7556L89.4852 14.762ZM91.6677 4.36914H93.1503V16.4256H91.6677V4.36914Z" fill="#58595B"/>
<path d="M95.1035 6.66195V5.403H97.9032V4.22754H99.4812V5.403H102.141V6.66195H99.2585L102.249 9.73227L101.263 10.6572L98.6858 7.95945L96.147 10.882L95.1353 9.92497L98.1259 6.66195H95.1099H95.1035ZM104.635 13.856C104.635 14.2607 104.552 14.6461 104.387 14.9993C104.222 15.3526 104.005 15.6674 103.732 15.9307C103.445 16.2005 103.114 16.4125 102.739 16.5666C102.357 16.7208 101.963 16.8043 101.536 16.8043C101.11 16.8043 100.716 16.7272 100.327 16.5666C99.9457 16.4125 99.6085 16.2005 99.3285 15.9307C99.0549 15.6609 98.8322 15.3526 98.6731 14.9993C98.514 14.6461 98.425 14.2607 98.425 13.856C98.425 13.4513 98.5077 13.0659 98.6731 12.7062C98.8386 12.3465 99.0549 12.0318 99.3285 11.7684C99.6148 11.4987 99.9457 11.2867 100.327 11.1325C100.709 10.9784 101.11 10.8949 101.536 10.8949C101.963 10.8949 102.357 10.972 102.739 11.1325C103.121 11.2867 103.452 11.4987 103.732 11.7684C104.005 12.0382 104.228 12.3465 104.387 12.7062C104.552 13.0659 104.635 13.4513 104.635 13.856ZM103.184 13.8432C103.184 13.3935 103.019 13.0017 102.688 12.6741C102.357 12.3465 101.969 12.186 101.524 12.186C101.078 12.186 100.69 12.3465 100.366 12.6741C100.041 13.0017 99.8757 13.3935 99.8757 13.8432C99.8757 14.2928 100.035 14.6846 100.366 15.0058C100.69 15.3269 101.078 15.4875 101.524 15.4875C101.969 15.4875 102.357 15.3269 102.688 15.0058C103.019 14.6846 103.184 14.2928 103.184 13.8432ZM104.171 11.1004V8.35769H102.084V7.07304H104.171V4.36243H105.653V11.1004H104.171Z" fill="#58595B"/>
<path d="M46.6499 26.054L50.455 21.7568H52.2938L48.2216 26.343L52.2811 30.9935H50.385L46.6499 26.6963V30.9935H45.1165V21.7568H46.6499V26.054Z" fill="#58595B"/>
<path d="M61.0237 26.3816C61.0237 27.7112 60.591 28.8096 59.7193 29.6831C58.8476 30.5567 57.715 30.9935 56.3215 30.9935H53.2864V21.7568H56.3215C57.7213 21.7568 58.8539 22.1936 59.7193 23.0672C60.591 23.9407 61.0237 25.0455 61.0237 26.3816ZM59.4902 26.3816C59.4902 25.3539 59.1848 24.5381 58.574 23.9407C57.9631 23.3434 57.1359 23.0479 56.0861 23.0479H54.8071V29.7088H56.0861C57.1359 29.7088 57.9631 29.4134 58.574 28.816C59.1848 28.2186 59.4902 27.4093 59.4902 26.388V26.3816Z" fill="#58595B"/>
<path d="M67.0877 29.856C68.0485 29.856 68.9203 29.5413 69.7093 28.9182L70.3392 30.0423C69.5247 30.7874 68.4367 31.1535 67.0877 31.1535C65.7388 31.1535 64.6571 30.6975 63.7408 29.7789C62.8246 28.8604 62.3728 27.7299 62.3728 26.381C62.3728 25.0321 62.8309 23.8888 63.7408 22.9703C64.6571 22.0518 65.7706 21.5957 67.0877 21.5957C68.4049 21.5957 69.4866 21.9683 70.2883 22.7069L69.6711 23.831C68.8948 23.2079 68.0294 22.8932 67.0941 22.8932C66.2224 22.8932 65.4779 23.2208 64.848 23.8695C64.2181 24.5568 63.9063 25.3918 63.9063 26.381C63.9063 27.3702 64.2181 28.1988 64.848 28.8797C65.4715 29.5284 66.2224 29.856 67.0941 29.856H67.0877Z" fill="#58595B"/>
<path d="M76.0212 21.7568L79.2218 30.9935H77.6629L76.7339 28.2829H73.2279L72.2989 30.9935H70.7273L73.9278 21.7568H76.0212ZM73.6542 26.9918H76.3012L74.9841 23.1121L73.6542 26.9918Z" fill="#58595B"/>
</g>
<defs>
<clipPath id="clip0_1_33487">
<rect width="106" height="35" fill="white" transform="translate(0.323486 0.5)"/>
</clipPath>
</defs>
</svg>
