<svg width="191" height="38" viewBox="0 0 191 38" fill="none" xmlns="http://www.w3.org/2000/svg">
<g clip-path="url(#clip0_1_33500)">
<path d="M72.6772 24.3174V25.9292H72.6875L73.692 24.3174H74.5523L73.4808 26.0432L74.676 28.3444H73.7796L72.9657 26.6911L72.672 27.1472V28.3444H71.8735V24.3174H72.672H72.6772Z" fill="#1D1E21"/>
<path d="M75.49 26.8261C75.49 26.2042 75.5209 25.7584 75.8969 25.7584C76.206 25.7584 76.3039 26.0694 76.3039 26.8261C76.3039 27.5828 76.206 27.8937 75.8969 27.8937C75.5209 27.8937 75.49 27.448 75.49 26.8261ZM74.7275 26.8261C74.7275 27.8834 74.98 28.4379 75.8969 28.4224C76.7727 28.4224 77.0664 27.8626 77.0664 26.8261C77.0664 25.7895 76.8139 25.2143 75.8969 25.2298C75.0263 25.2298 74.7275 25.7895 74.7275 26.8261Z" fill="#1D1E21"/>
<path d="M77.4785 25.3075H78.21V25.7118H78.2203C78.3749 25.4164 78.5912 25.2246 78.9055 25.2246C78.9519 25.2246 78.9982 25.2298 79.0446 25.235V25.9813C78.9673 25.9761 78.8849 25.9709 78.8076 25.9709C78.5449 25.9709 78.2461 26.1109 78.2461 26.5203V28.3394H77.4837V25.3024L77.4785 25.3075Z" fill="#1D1E21"/>
<path d="M79.9668 26.4837V26.3645C79.9668 26.0846 80.0543 25.7581 80.3583 25.7581C80.6622 25.7581 80.7292 26.0173 80.7446 26.4785H79.9668V26.4837ZM81.4762 26.945V26.7688C81.4762 25.8359 81.2752 25.2295 80.3892 25.2295C79.364 25.2295 79.2095 25.9862 79.2095 26.7999C79.2095 27.5566 79.2507 28.4221 80.3583 28.4221C81.0743 28.4221 81.4092 28.0282 81.4349 27.3233H80.7498C80.7034 27.6965 80.6004 27.8934 80.348 27.8934C80.0646 27.8934 79.9719 27.5462 79.9719 27.1886V26.945H81.4813H81.4762Z" fill="#1D1E21"/>
<path d="M83.2586 27.4267C83.2586 27.7584 82.9958 27.8931 82.7898 27.8931C82.5837 27.8931 82.5064 27.7014 82.5064 27.4681C82.5064 27.1986 82.6301 27.0432 82.934 26.9758C83.0268 26.9551 83.1555 26.9032 83.2586 26.8255V27.4215V27.4267ZM82.5528 26.2398V26.1569C82.5528 25.9185 82.6764 25.763 82.9083 25.763C83.1607 25.763 83.2586 25.903 83.2586 26.1362C83.2586 26.3383 83.1813 26.4316 82.9546 26.4938L82.5219 26.613C81.9964 26.7581 81.7698 26.9913 81.7698 27.5614C81.7698 27.9657 81.9552 28.427 82.4858 28.427C82.8516 28.427 83.068 28.3492 83.2431 28.0331H83.2534C83.274 28.1367 83.2998 28.2507 83.3462 28.3492H84.0777C84.0004 28.1782 83.9849 28.0434 83.9849 27.7636V26.1673C83.9849 25.6179 83.8149 25.2344 82.9083 25.2344C82.3313 25.2344 81.8625 25.4728 81.8625 26.1725V26.245H82.5477L82.5528 26.2398Z" fill="#1D1E21"/>
<path d="M85.9167 28.3444V24.3174H86.7101V28.3444H85.9167Z" fill="#1D1E21"/>
<path d="M87.282 25.3072H88.0084V25.6648H88.0187C88.1784 25.3642 88.4565 25.2295 88.7759 25.2295C89.2499 25.2295 89.5332 25.4938 89.5332 26.0898V28.3391H88.7708V26.2453C88.7708 25.9395 88.6729 25.8203 88.4462 25.8203C88.1887 25.8203 88.0444 25.9862 88.0444 26.3231V28.3391H87.282V25.3021V25.3072Z" fill="#1D1E21"/>
<path d="M90.6046 27.3489V27.4526C90.6046 27.7169 90.7437 27.8931 91.0013 27.8931C91.2331 27.8931 91.3876 27.7739 91.3876 27.5303C91.3876 27.3334 91.2588 27.2453 91.1094 27.1883L90.5737 26.9913C90.1513 26.841 89.94 26.5715 89.94 26.1465C89.94 25.6438 90.2491 25.2344 91.0322 25.2344C91.7225 25.2344 92.047 25.5505 92.047 26.0947V26.2191H91.3619C91.3619 25.9133 91.2743 25.763 91.027 25.763C90.8313 25.763 90.6664 25.877 90.6664 26.0895C90.6664 26.2346 90.7437 26.359 90.9961 26.442L91.4546 26.5974C91.9337 26.7633 92.114 27.0069 92.114 27.4681C92.114 28.1056 91.6504 28.4218 91.0116 28.4218C90.1564 28.4218 89.9194 28.0382 89.9194 27.4578V27.3489H90.6046Z" fill="#1D1E21"/>
<path d="M92.6654 24.4424H93.4278V25.3131H93.8709V25.8417H93.4278V27.4847C93.4278 27.7231 93.4793 27.8164 93.7009 27.8164C93.7627 27.8164 93.8245 27.8112 93.8709 27.806V28.345C93.706 28.3605 93.5515 28.3813 93.3763 28.3813C92.7787 28.3813 92.6705 28.1947 92.6705 27.578V25.8417H92.2842V25.3131H92.6705V24.4424H92.6654Z" fill="#1D1E21"/>
<path d="M94.1592 25.3071H94.9216V28.3442H94.1592V25.3071ZM94.1592 24.2705H94.9216V24.9339H94.1592V24.2705Z" fill="#1D1E21"/>
<path d="M95.6273 24.4424H96.3898V25.3131H96.8328V25.8417H96.3898V27.4847C96.3898 27.7231 96.4413 27.8164 96.6628 27.8164C96.7246 27.8164 96.7864 27.8112 96.8328 27.806V28.345C96.6679 28.3605 96.5134 28.3813 96.3331 28.3813C95.7355 28.3813 95.6273 28.1947 95.6273 27.578V25.8417H95.241V25.3131H95.6273V24.4424Z" fill="#1D1E21"/>
<path d="M98.6206 27.9868H98.6103C98.4506 28.2874 98.1724 28.4222 97.853 28.4222C97.379 28.4222 97.0957 28.1578 97.0957 27.5618V25.3125H97.8581V27.4063C97.8581 27.7121 97.956 27.8313 98.1827 27.8313C98.4403 27.8313 98.5845 27.6655 98.5845 27.3286V25.3125H99.3469V28.3496H98.6206V27.992V27.9868Z" fill="#1D1E21"/>
<path d="M100.022 24.4424H100.784V25.3131H101.227V25.8417H100.784V27.4847C100.784 27.7231 100.836 27.8164 101.052 27.8164C101.114 27.8164 101.176 27.8112 101.222 27.806V28.345C101.057 28.3605 100.903 28.3813 100.722 28.3813C100.125 28.3813 100.016 28.1947 100.016 27.578V25.8417H99.6301V25.3131H100.016V24.4424H100.022Z" fill="#1D1E21"/>
<path d="M102.144 26.4837V26.3645C102.144 26.0846 102.232 25.7581 102.536 25.7581C102.84 25.7581 102.907 26.0173 102.922 26.4785H102.144V26.4837ZM103.654 26.945V26.7688C103.654 25.8359 103.453 25.2295 102.567 25.2295C101.542 25.2295 101.387 25.9862 101.387 26.7999C101.387 27.5566 101.428 28.4221 102.536 28.4221C103.257 28.4221 103.587 28.0282 103.612 27.3233H102.927C102.886 27.6965 102.778 27.8934 102.525 27.8934C102.242 27.8934 102.149 27.5462 102.149 27.1886V26.945H103.659H103.654Z" fill="#1D1E21"/>
<path d="M106.039 26.8261C106.039 26.2042 106.075 25.7584 106.451 25.7584C106.76 25.7584 106.858 26.0694 106.858 26.8261C106.858 27.5828 106.76 27.8937 106.451 27.8937C106.075 27.8937 106.039 27.448 106.039 26.8261ZM105.276 26.8261C105.276 27.8834 105.529 28.4379 106.451 28.4224C107.322 28.4224 107.62 27.8626 107.62 26.8261C107.62 25.7895 107.368 25.2143 106.451 25.2298C105.58 25.2298 105.276 25.7895 105.276 26.8261Z" fill="#1D1E21"/>
<path d="M108.192 25.8417H107.806V25.3131H108.192V24.971C108.192 24.4216 108.496 24.2402 108.991 24.2402C109.13 24.2402 109.264 24.2454 109.397 24.2558V24.8103C109.346 24.8052 109.3 24.8052 109.248 24.8052C109.032 24.8052 108.954 24.8725 108.954 25.0487V25.3131H109.397V25.8417H108.954V28.345H108.192V25.8417Z" fill="#1D1E21"/>
<path d="M111.654 27.0849V27.2041C111.654 27.5824 111.757 27.826 112.179 27.826C112.422 27.826 112.653 27.6654 112.653 27.3285C112.653 26.9605 112.468 26.8258 111.948 26.6392C111.242 26.3904 110.917 26.0898 110.917 25.4212C110.917 24.6386 111.386 24.2344 112.138 24.2344C112.844 24.2344 113.359 24.5453 113.359 25.3176V25.4316H112.597C112.597 25.0533 112.468 24.8356 112.164 24.8356C111.803 24.8356 111.711 25.0636 111.711 25.302C111.711 25.5508 111.783 25.7063 112.118 25.8514L112.731 26.1209C113.328 26.3852 113.483 26.6962 113.483 27.1885C113.483 28.0385 112.973 28.422 112.112 28.422C111.252 28.422 110.861 27.9919 110.861 27.2507V27.0901H111.654V27.0849Z" fill="#1D1E21"/>
<path d="M115.286 26.4011C115.286 26.1109 115.229 25.7895 114.941 25.7895C114.564 25.7895 114.503 26.1264 114.503 26.8261C114.503 27.5776 114.57 27.8885 114.91 27.8885C115.162 27.8885 115.281 27.6709 115.281 27.1785H116.012C116.012 27.9715 115.688 28.4172 114.879 28.4172C114.116 28.4172 113.74 28.0388 113.74 26.8209C113.74 25.603 114.245 25.2246 114.946 25.2246C115.646 25.2246 116.012 25.6807 116.012 26.3959H115.281L115.286 26.4011Z" fill="#1D1E21"/>
<path d="M116.44 25.3071H117.202V28.3442H116.44V25.3071ZM116.44 24.2705H117.202V24.9339H116.44V24.2705Z" fill="#1D1E21"/>
<path d="M118.392 26.4837V26.3645C118.392 26.0846 118.48 25.7581 118.784 25.7581C119.088 25.7581 119.155 26.0173 119.17 26.4785H118.392V26.4837ZM119.902 26.945V26.7688C119.902 25.8359 119.701 25.2295 118.815 25.2295C117.784 25.2295 117.635 25.9862 117.635 26.7999C117.635 27.5566 117.681 28.4221 118.784 28.4221C119.5 28.4221 119.835 28.0282 119.86 27.3233H119.175C119.129 27.6965 119.026 27.8934 118.774 27.8934C118.49 27.8934 118.397 27.5462 118.397 27.1886V26.945H119.907H119.902Z" fill="#1D1E21"/>
<path d="M120.298 25.3072H121.025V25.6648H121.035C121.195 25.3642 121.473 25.2295 121.792 25.2295C122.266 25.2295 122.55 25.4938 122.55 26.0898V28.3391H121.787V26.2453C121.787 25.9395 121.689 25.8203 121.463 25.8203C121.205 25.8203 121.061 25.9862 121.061 26.3231V28.3391H120.298V25.3021V25.3072Z" fill="#1D1E21"/>
<path d="M124.492 26.4011C124.492 26.1109 124.435 25.7895 124.146 25.7895C123.77 25.7895 123.708 26.1264 123.708 26.8261C123.708 27.5776 123.775 27.8885 124.115 27.8885C124.373 27.8885 124.486 27.6709 124.486 27.1785H125.213C125.213 27.9715 124.888 28.4172 124.079 28.4172C123.317 28.4172 122.941 28.0388 122.941 26.8209C122.941 25.603 123.446 25.2246 124.146 25.2246C124.847 25.2246 125.213 25.6807 125.213 26.3959H124.486L124.492 26.4011Z" fill="#1D1E21"/>
<path d="M126.269 26.4837V26.3645C126.269 26.0846 126.357 25.7581 126.661 25.7581C126.964 25.7581 127.031 26.0173 127.047 26.4785H126.269V26.4837ZM127.778 26.945V26.7688C127.778 25.8359 127.583 25.2295 126.691 25.2295C125.666 25.2295 125.512 25.9862 125.512 26.7999C125.512 27.5566 125.553 28.4221 126.661 28.4221C127.377 28.4221 127.711 28.0282 127.737 27.3233H127.052C127.006 27.6965 126.903 27.8934 126.65 27.8934C126.367 27.8934 126.274 27.5462 126.274 27.1886V26.945H127.784H127.778Z" fill="#1D1E21"/>
<path d="M130.89 27.4267C130.89 27.7584 130.627 27.8931 130.421 27.8931C130.215 27.8931 130.133 27.7014 130.133 27.4681C130.133 27.1986 130.256 27.0432 130.565 26.9758C130.658 26.9551 130.787 26.9032 130.89 26.8255V27.4215V27.4267ZM130.184 26.2398V26.1569C130.184 25.9185 130.308 25.763 130.54 25.763C130.792 25.763 130.895 25.903 130.895 26.1362C130.895 26.3383 130.818 26.4316 130.591 26.4938L130.164 26.613C129.638 26.7581 129.411 26.9913 129.411 27.5614C129.411 27.9657 129.597 28.427 130.127 28.427C130.493 28.427 130.71 28.3492 130.885 28.0331H130.895C130.916 28.1367 130.941 28.2507 130.988 28.3492H131.714C131.637 28.1782 131.621 28.0434 131.621 27.7636V26.1673C131.621 25.6179 131.451 25.2344 130.545 25.2344C129.973 25.2344 129.499 25.4728 129.499 26.1725V26.245H130.184V26.2398Z" fill="#1D1E21"/>
<path d="M132.157 25.3072H132.884V25.6648H132.894C133.054 25.3642 133.332 25.2295 133.651 25.2295C134.125 25.2295 134.408 25.4938 134.408 26.0898V28.3391H133.646V26.2453C133.646 25.9395 133.548 25.8203 133.321 25.8203C133.064 25.8203 132.92 25.9862 132.92 26.3231V28.3391H132.157V25.3021V25.3072Z" fill="#1D1E21"/>
<path d="M135.614 26.8258C135.614 26.1676 135.681 25.8256 136.011 25.8256C136.34 25.8256 136.412 26.1624 136.412 26.8258C136.412 27.4892 136.346 27.8261 136.011 27.8261C135.676 27.8261 135.614 27.484 135.614 26.8258ZM136.449 28.3444H137.175V24.3174H136.412V25.5923H136.402C136.242 25.3488 136.047 25.2295 135.763 25.2295C135.14 25.2295 134.852 25.696 134.852 26.8258C134.852 27.9557 135.14 28.4221 135.763 28.4221C136.062 28.4221 136.273 28.3029 136.438 28.0231H136.449V28.3444Z" fill="#1D1E21"/>
<path d="M141.342 24.3174V24.986H140.482V28.3496H139.689V24.986H138.828V24.3174H141.347H141.342Z" fill="#1D1E21"/>
<path d="M141.904 26.4837V26.3645C141.904 26.0846 141.992 25.7581 142.296 25.7581C142.599 25.7581 142.666 26.0173 142.682 26.4785H141.904V26.4837ZM143.413 26.945V26.7688C143.413 25.8359 143.213 25.2295 142.326 25.2295C141.296 25.2295 141.147 25.9862 141.147 26.7999C141.147 27.5566 141.193 28.4221 142.296 28.4221C143.012 28.4221 143.346 28.0282 143.372 27.3233H142.687C142.641 27.6965 142.538 27.8934 142.285 27.8934C142.002 27.8934 141.909 27.5462 141.909 27.1886V26.945H143.419H143.413Z" fill="#1D1E21"/>
<path d="M145.242 26.4011C145.242 26.1109 145.186 25.7895 144.897 25.7895C144.521 25.7895 144.459 26.1264 144.459 26.8261C144.459 27.5776 144.526 27.8885 144.866 27.8885C145.119 27.8885 145.237 27.6709 145.237 27.1785H145.969C145.969 27.9715 145.644 28.4172 144.835 28.4172C144.073 28.4172 143.697 28.0388 143.697 26.8209C143.697 25.603 144.202 25.2246 144.902 25.2246C145.603 25.2246 145.969 25.6807 145.969 26.3959H145.237L145.242 26.4011Z" fill="#1D1E21"/>
<path d="M146.37 24.3174H147.133V25.6234H147.143C147.287 25.3643 147.545 25.2347 147.869 25.2347C148.343 25.2347 148.627 25.4991 148.627 26.0951V28.3444H147.864V26.2506C147.864 25.9448 147.766 25.8256 147.54 25.8256C147.282 25.8256 147.138 25.9914 147.138 26.3283V28.3444H146.376V24.3174H146.37Z" fill="#1D1E21"/>
<path d="M149.132 25.3072H149.863V25.6648H149.873C150.033 25.3642 150.311 25.2295 150.631 25.2295C151.105 25.2295 151.388 25.4938 151.388 26.0898V28.3391H150.626V26.2453C150.626 25.9395 150.528 25.8203 150.301 25.8203C150.043 25.8203 149.899 25.9862 149.899 26.3231V28.3391H149.137V25.3021L149.132 25.3072Z" fill="#1D1E21"/>
<path d="M152.557 26.8261C152.557 26.2042 152.588 25.7584 152.964 25.7584C153.273 25.7584 153.371 26.0694 153.371 26.8261C153.371 27.5828 153.273 27.8937 152.964 27.8937C152.588 27.8937 152.557 27.448 152.557 26.8261ZM151.795 26.8261C151.795 27.8834 152.047 28.4379 152.969 28.4224C153.84 28.4224 154.139 27.8626 154.139 26.8261C154.139 25.7895 153.886 25.2143 152.969 25.2298C152.094 25.2298 151.795 25.7895 151.795 26.8261Z" fill="#1D1E21"/>
<path d="M154.572 24.3174H155.334V28.3444H154.572V24.3174Z" fill="#1D1E21"/>
<path d="M156.534 26.8261C156.534 26.2042 156.565 25.7584 156.941 25.7584C157.25 25.7584 157.348 26.0694 157.348 26.8261C157.348 27.5828 157.25 27.8937 156.941 27.8937C156.565 27.8937 156.534 27.448 156.534 26.8261ZM155.772 26.8261C155.772 27.8834 156.024 28.4379 156.941 28.4224C157.812 28.4224 158.111 27.8626 158.111 26.8261C158.111 25.7895 157.858 25.2143 156.941 25.2298C156.071 25.2298 155.772 25.7895 155.772 26.8261Z" fill="#1D1E21"/>
<path d="M159.223 26.9243C159.223 26.1054 159.285 25.8307 159.62 25.8307C159.924 25.8307 160.017 26.1106 160.017 26.8465C160.017 27.3596 159.924 27.7172 159.605 27.7172C159.285 27.7172 159.223 27.3441 159.223 26.9243ZM160.017 25.3124V25.6493H160.006C159.862 25.3331 159.605 25.2295 159.393 25.2295C158.564 25.2295 158.461 26.0639 158.461 26.774C158.461 27.8831 158.765 28.3081 159.373 28.3081C159.615 28.3081 159.852 28.1629 160.006 27.9349H160.017V28.334C160.017 28.6449 159.909 28.8833 159.594 28.8833C159.502 28.8833 159.414 28.8471 159.342 28.8004C159.27 28.7486 159.223 28.6708 159.223 28.5672H158.497C158.497 29.0855 158.863 29.3809 159.507 29.3809C160.398 29.3809 160.743 28.9922 160.743 28.1888V25.3072H160.017V25.3124Z" fill="#1D1E21"/>
<path d="M161.341 28.7535C161.408 28.7638 161.475 28.769 161.542 28.769C161.825 28.769 161.928 28.6135 161.949 28.3389L161.114 25.3018H161.907L162.35 27.4008H162.361L162.747 25.3018H163.509L162.793 28.1367C162.531 29.1888 162.361 29.3339 161.65 29.3339H161.341V28.7535Z" fill="#1D1E21"/>
<path d="M165.179 28.3444V24.3174H165.977V28.3444H165.179Z" fill="#1D1E21"/>
<path d="M166.544 25.3072H167.27V25.6648H167.281C167.44 25.3642 167.718 25.2295 168.038 25.2295C168.512 25.2295 168.795 25.4938 168.795 26.0898V28.3391H168.033V26.2453C168.033 25.9395 167.935 25.8203 167.708 25.8203C167.445 25.8203 167.306 25.9862 167.306 26.3231V28.3391H166.544V25.3021V25.3072Z" fill="#1D1E21"/>
<path d="M169.47 25.8417H169.083V25.3131H169.47V24.971C169.47 24.4216 169.774 24.2402 170.263 24.2402C170.402 24.2402 170.536 24.2454 170.67 24.2558V24.8103C170.619 24.8052 170.572 24.8052 170.521 24.8052C170.304 24.8052 170.227 24.8725 170.227 25.0487V25.3131H170.67V25.8417H170.227V28.345H169.465V25.8417H169.47Z" fill="#1D1E21"/>
<path d="M171.603 26.8261C171.603 26.2042 171.639 25.7584 172.01 25.7584C172.319 25.7584 172.417 26.0694 172.417 26.8261C172.417 27.5828 172.319 27.8937 172.01 27.8937C171.634 27.8937 171.603 27.448 171.603 26.8261ZM170.84 26.8261C170.84 27.8834 171.093 28.4379 172.01 28.4224C172.885 28.4224 173.179 27.8626 173.179 26.8261C173.179 25.7895 172.927 25.2143 172.01 25.2298C171.134 25.2298 170.84 25.7895 170.84 26.8261Z" fill="#1D1E21"/>
<path d="M173.591 25.3075H174.323V25.7118H174.333C174.488 25.4164 174.704 25.2246 175.018 25.2246C175.059 25.2246 175.111 25.2298 175.157 25.235V25.9813C175.08 25.9761 174.998 25.9709 174.92 25.9709C174.653 25.9709 174.359 26.1109 174.359 26.5203V28.3394H173.596V25.3024L173.591 25.3075Z" fill="#1D1E21"/>
<path d="M175.43 25.3072H176.157V25.6182H176.167C176.357 25.3383 176.6 25.2295 176.919 25.2295C177.269 25.2295 177.522 25.4057 177.604 25.7167H177.614C177.728 25.3953 178.006 25.2295 178.367 25.2295C178.871 25.2295 179.108 25.5508 179.108 26.1365V28.3443H178.346V26.2246C178.346 25.9706 178.264 25.8307 178.047 25.8307C177.805 25.8307 177.65 26.0017 177.65 26.349V28.3443H176.888V26.2246C176.888 25.9706 176.806 25.8307 176.589 25.8307C176.347 25.8307 176.193 26.0017 176.193 26.349V28.3443H175.43V25.3072Z" fill="#1D1E21"/>
<path d="M181.004 27.4267C181.004 27.7584 180.742 27.8931 180.536 27.8931C180.33 27.8931 180.247 27.7014 180.247 27.4681C180.247 27.1986 180.371 27.0432 180.68 26.9758C180.773 26.9551 180.901 26.9032 181.004 26.8255V27.4215V27.4267ZM180.299 26.2398V26.1569C180.299 25.9185 180.417 25.763 180.654 25.763C180.907 25.763 181.004 25.903 181.004 26.1362C181.004 26.3383 180.927 26.4316 180.7 26.4938L180.268 26.613C179.742 26.7581 179.516 26.9913 179.516 27.5614C179.516 27.9657 179.706 28.427 180.232 28.427C180.597 28.427 180.814 28.3492 180.989 28.0331H180.999C181.02 28.1367 181.046 28.2507 181.092 28.3492H181.818C181.741 28.1782 181.726 28.0434 181.726 27.7636V26.1673C181.726 25.6179 181.556 25.2344 180.649 25.2344C180.072 25.2344 179.603 25.4728 179.603 26.1725V26.245H180.288L180.299 26.2398Z" fill="#1D1E21"/>
<path d="M182.442 24.4424H183.204V25.3131H183.647V25.8417H183.204V27.4847C183.204 27.7231 183.255 27.8164 183.477 27.8164C183.539 27.8164 183.601 27.8112 183.647 27.806V28.345C183.482 28.3605 183.328 28.3813 183.147 28.3813C182.55 28.3813 182.442 28.1947 182.442 27.578V25.8417H182.055V25.3131H182.442V24.4424Z" fill="#1D1E21"/>
<path d="M183.941 25.3071H184.703V28.3442H183.941V25.3071ZM183.941 24.2705H184.703V24.9339H183.941V24.2705Z" fill="#1D1E21"/>
<path d="M185.898 26.8261C185.898 26.2042 185.934 25.7584 186.31 25.7584C186.619 25.7584 186.717 26.0694 186.717 26.8261C186.717 27.5828 186.619 27.8937 186.31 27.8937C185.934 27.8937 185.898 27.448 185.898 26.8261ZM185.136 26.8261C185.136 27.8834 185.388 28.4379 186.31 28.4224C187.181 28.4224 187.48 27.8626 187.48 26.8261C187.48 25.7895 187.227 25.2143 186.31 25.2298C185.44 25.2298 185.136 25.7895 185.136 26.8261Z" fill="#1D1E21"/>
<path d="M187.887 25.3072H188.618V25.6648H188.629C188.788 25.3642 189.066 25.2295 189.386 25.2295C189.86 25.2295 190.143 25.4938 190.143 26.0898V28.3391H189.381V26.2453C189.381 25.9395 189.283 25.8203 189.056 25.8203C188.799 25.8203 188.654 25.9862 188.654 26.3231V28.3391H187.892V25.3021L187.887 25.3072Z" fill="#1D1E21"/>
<path d="M134.228 13.216C134.805 13.4907 135.212 13.6462 135.48 13.7136C135.737 13.7758 135.871 13.8017 135.882 13.8017L135.227 14.7864C135.227 14.7864 135.016 14.7346 134.656 14.6672C134.29 14.5947 133.909 14.4806 133.507 14.3303C132.564 13.952 131.936 13.5788 131.565 13.2679C131.194 12.9621 131.029 12.76 131.013 12.7444C131.003 12.76 130.843 12.9517 130.493 13.2627C130.127 13.5892 129.504 13.9468 128.53 14.3303C128.129 14.491 127.747 14.605 127.387 14.6724C127.026 14.7398 126.841 14.7761 126.825 14.7864L126.156 13.8017C126.181 13.7913 126.382 13.7654 126.748 13.6618C127.134 13.5529 127.464 13.3974 127.773 13.2471C128.407 12.9362 128.7 12.734 129.143 12.3039C129.602 11.8633 129.829 11.1378 129.829 10.6972V10.2256H132.219V10.7128C132.219 11.1792 132.487 11.9463 132.986 12.3816C133.486 12.8221 133.739 12.988 134.233 13.2212L134.228 13.216Z" fill="#1D1E21"/>
<path d="M138.834 13.4134C138.545 13.885 138.226 14.2374 137.752 14.6158C137.52 14.8024 137.252 14.9527 136.974 15.1082C136.696 15.2636 136.552 15.3517 136.536 15.3673L137.17 16.4609C137.17 16.4609 137.675 16.2691 138.437 15.8337C138.999 15.5124 139.442 15.2325 139.833 14.8542C140.214 14.4862 140.4 14.2478 140.415 14.2219C140.431 14.2478 140.601 14.4914 140.966 14.8231C141.348 15.1703 141.77 15.4761 142.435 15.8545C143.063 16.2173 143.656 16.4505 143.666 16.4557L144.284 15.3725C144.284 15.3725 144.114 15.2792 143.82 15.1185C143.527 14.9579 143.12 14.6987 142.672 14.2737C142.311 13.9317 142.033 13.6 141.858 13.1802C141.657 12.6878 141.595 12.0918 141.59 11.5787H143.656V10.5059H137.19V11.5787H139.261C139.256 12.1384 139.199 12.8174 138.844 13.4082L138.834 13.4134Z" fill="#1D1E21"/>
<path d="M77.391 11.8113C77.6949 12.0238 77.9473 12.3244 78.1431 12.7131C78.344 13.1122 78.447 13.5216 78.447 13.9466C78.447 14.7499 78.107 15.4341 77.427 15.999C76.747 16.5743 75.9073 16.8593 74.913 16.8593C73.9188 16.8593 73.0842 16.5743 72.4042 15.999C71.7294 15.4341 71.3945 14.7499 71.3945 13.9466C71.3945 13.5216 71.4924 13.1122 71.6882 12.7287C71.8736 12.3503 72.1312 12.0445 72.4506 11.8165H71.3997V10.7333H73.9136V9.65527H75.9537V10.7333H78.4264V11.8165H77.3858L77.391 11.8113ZM74.9285 11.8113C74.4597 11.8113 74.0682 12.0031 73.7642 12.3814C73.4809 12.7494 73.3418 13.1899 73.3418 13.6978C73.3418 14.2057 73.4964 14.6618 73.8003 15.035C74.1146 15.403 74.4958 15.5895 74.944 15.5895C75.3921 15.5895 75.7631 15.403 76.0773 15.035C76.3915 14.667 76.5461 14.2213 76.5461 13.6978C76.5461 13.1744 76.4018 12.739 76.1082 12.3814C75.8094 12.0031 75.423 11.8113 74.9388 11.8113H74.9491H74.9285ZM79.194 10.2046H81.2031V12.8738H82.7022V14.1021H81.2031V18.3675H79.194V10.2046ZM73.2182 17.4709H75.1964V20.5546H81.2701V21.6793H73.2182V17.4657V17.4709Z" fill="#1D1E21"/>
<path d="M91.8978 10.4014V12.6559C91.8978 14.1122 91.3414 14.6875 91.3414 14.6875H92.6344V15.8122H88.5544V17.849H91.8978V22.0056H89.8887V18.9788H83.0628V17.8542H86.5453V15.8174H82.4292V14.6927H89.3374C89.3374 14.6927 89.6156 13.8842 89.6156 13.1793V11.609H83.068V10.4014H91.9029H91.8978Z" fill="#1D1E21"/>
<path d="M100.001 14.0345C100.001 16.5378 99.5271 17.0924 99.5271 17.0924H97.5695C97.5695 17.0924 98.0383 15.9729 98.0383 14.0708V11.6401H93.3041V10.5154H100.001V14.0397V14.0345ZM96.5341 18.4917H100.794V10.2148H102.804V15.6205H104.292V16.8488H102.804V22.0108H100.794V19.6216H93.2319V18.4969H94.6641V14.247H96.5341V18.4969V18.4917Z" fill="#1D1E21"/>
<path d="M110.047 11.8113C110.351 12.0238 110.603 12.3244 110.799 12.7131C111.005 13.1122 111.103 13.5216 111.103 13.9466C111.103 14.7499 110.763 15.4341 110.083 15.999C109.403 16.5743 108.568 16.8593 107.574 16.8593C106.58 16.8593 105.74 16.5743 105.06 15.999C104.39 15.4341 104.05 14.7499 104.05 13.9466C104.05 13.5216 104.148 13.1122 104.344 12.7287C104.535 12.3503 104.787 12.0445 105.106 11.8165H104.055V10.7333H106.575V9.65527H108.615V10.7333H111.087V11.8165H110.047V11.8113ZM107.584 11.8113C107.11 11.8113 106.724 12.0031 106.415 12.3814C106.132 12.7494 105.992 13.1899 105.992 13.6978C105.992 14.2057 106.147 14.6618 106.451 15.035C106.765 15.403 107.146 15.5895 107.595 15.5895C108.043 15.5895 108.409 15.403 108.723 15.035C109.037 14.667 109.192 14.2213 109.192 13.6978C109.192 13.1744 109.047 12.739 108.754 12.3814C108.455 12.0031 108.069 11.8113 107.589 11.8113H107.6H107.579H107.584ZM111.85 10.2046H113.859V12.7442H115.358V14.1332H113.859V16.8023H111.85V10.2046ZM113.859 21.9902H111.85V18.5489H105.647V17.4242H113.859V21.9954V21.9902Z" fill="#1D1E21"/>
<path d="M120.005 11.6408H115.554V10.5161H122.178C122.178 10.5161 122.199 10.9722 122.024 12.584C121.632 16.1653 118.897 18.5079 115.914 19.6378L115.121 18.5909C115.121 18.5909 120.005 16.7095 120.005 12.2679V11.646V11.6408ZM123.137 10.2207H125.146V22.0115H123.137V10.2207Z" fill="#1D1E21"/>
<path d="M125.888 16.3053V15.1807H136.093V16.3053H132.013V17.119H135.356V20.0058H128.597V20.6381H135.449V21.768H126.624V18.8812H133.347V18.2489H126.624V17.1242H130.004V16.3105H125.888V16.3053Z" fill="#1D1E21"/>
<path d="M148.24 10.5059H150.249V12.2317H154.963V10.5059H156.972V16.5438H153.629V18.7464H157.709V19.8711H147.504V18.7464H151.62V16.5438H148.24V10.5059ZM154.963 13.3564H150.249V15.4191H154.963V13.3564Z" fill="#1D1E21"/>
<path d="M166.523 15.1436H164.483V14.957C164.164 15.3975 163.752 15.7396 163.252 15.9883C162.727 16.2527 162.165 16.3874 161.562 16.3874C160.583 16.3874 159.754 16.0764 159.064 15.4493C158.373 14.8222 158.033 14.0707 158.033 13.1948C158.033 12.3189 158.379 11.5519 159.064 10.9248C159.754 10.308 160.583 9.99707 161.562 9.99707C162.155 9.99707 162.711 10.1215 163.226 10.3702C163.736 10.619 164.154 10.9611 164.483 11.3964V11.1995H166.523V10.2096H168.532V18.3776H166.523V15.1487V15.1436ZM160.429 11.8525C160.125 12.2205 159.976 12.6714 159.976 13.2104C159.976 13.7494 160.125 14.1847 160.429 14.5527C160.738 14.9311 161.119 15.1176 161.562 15.1176C162.005 15.1176 162.371 14.9311 162.68 14.5527C163 14.1744 163.159 13.7287 163.159 13.2104C163.159 12.6921 163 12.2308 162.68 11.8525C162.371 11.4845 161.995 11.2979 161.562 11.2979C161.13 11.2979 160.738 11.4845 160.429 11.8525ZM165.065 12.775C165.091 12.915 165.101 13.0549 165.101 13.1948C165.101 13.314 165.091 13.4384 165.065 13.5576C165.05 13.6872 165.024 13.8168 164.993 13.936H166.518V12.3863H164.978C165.009 12.5263 165.034 12.6558 165.06 12.775H165.065ZM160.182 17.5276H162.155V20.5595H168.558V21.6842H160.182V17.5276Z" fill="#1D1E21"/>
<path d="M178.588 10.5059V13.5067C178.588 15.0563 178.032 15.7301 178.032 15.7301H179.325V16.8755H175.224V22.0012H173.215V16.8755H169.109V15.7301H176.023C176.023 15.7301 176.6 14.7402 176.6 13.5067C176.6 12.6619 176.574 11.6305 176.574 11.6305H169.748V10.5059H178.583H178.588Z" fill="#1D1E21"/>
<path d="M143.382 13.6932H144.907V16.8132H146.916V10.2207H144.907V12.5633H143.382V13.6932Z" fill="#1D1E21"/>
<path d="M145.922 17.4455C145.155 16.8599 144.109 16.5645 142.769 16.5645C141.43 16.5645 140.364 16.8599 139.591 17.4455C138.911 17.9793 138.571 18.6427 138.571 19.4305C138.571 20.2183 138.911 20.8506 139.591 21.3792C140.364 21.9753 141.425 22.2759 142.769 22.2759C144.114 22.2759 145.149 21.9753 145.922 21.3792C146.618 20.8558 146.968 20.2079 146.968 19.4305C146.968 18.6531 146.623 17.9793 145.922 17.4455ZM144.33 20.6122C143.934 20.9802 143.408 21.1616 142.769 21.1616C142.131 21.1616 141.595 20.975 141.198 20.6122C140.848 20.2805 140.673 19.8866 140.673 19.4305C140.673 18.9744 140.848 18.5546 141.198 18.2229C141.595 17.855 142.12 17.6736 142.769 17.6736C143.418 17.6736 143.939 17.8601 144.33 18.2229C144.696 18.5546 144.881 18.9589 144.881 19.4305C144.881 19.9022 144.696 20.2805 144.33 20.6122Z" fill="#1D1E21"/>
<path d="M188.134 19.5334H190.143V10.2148H188.134V17.0405H186.197V18.1652H188.134V19.5334Z" fill="#1D1E21"/>
<path d="M183.626 20.5547V18.6475H181.653V21.6846H190.323V20.5547H183.626Z" fill="#1D1E21"/>
<path d="M180.814 14.1591C181.478 14.6411 182.38 14.8847 183.513 14.8847C184.543 14.8847 185.388 14.6722 186.048 14.2524C186.656 13.8741 187.016 13.3817 187.124 12.7701C187.124 12.7701 187.222 12.4384 187.099 11.9875C186.99 11.5988 186.79 11.3345 186.79 11.3345C186.501 10.9251 186.089 10.6038 185.553 10.3653C184.966 10.1166 184.286 9.99219 183.513 9.99219C182.385 9.99219 181.489 10.2358 180.814 10.7281C180.196 11.1946 179.886 11.7751 179.886 12.4695C179.886 13.164 180.196 13.7082 180.814 14.1539V14.1591ZM182.256 11.5107C182.591 11.236 183.008 11.1013 183.513 11.1013C184.018 11.1013 184.42 11.236 184.755 11.5107C185.084 11.7751 185.249 12.0964 185.249 12.4747C185.249 12.8272 185.084 13.1329 184.755 13.3973C184.41 13.6771 183.997 13.8171 183.513 13.8171C183.029 13.8171 182.601 13.6771 182.256 13.3973C181.937 13.1329 181.777 12.8272 181.777 12.4747C181.777 12.0964 181.937 11.7751 182.256 11.5107Z" fill="#1D1E21"/>
<path d="M182.57 18.1608H184.513V16.3779H187.47V15.248H180.087V16.3779H182.57V18.1608Z" fill="#1D1E21"/>
<path d="M31.9851 28.3444H27.3333V16.2012H31.9851V28.3444Z" fill="#0075C2"/>
<path d="M52.89 14.8016V28.339H48.1917V14.8016H44.5444V10.2148H56.5424V14.8016H52.8951H52.89Z" fill="#0075C2"/>
<path d="M62.812 28.3444H58.1602V16.2012H62.812V28.3444Z" fill="#0075C2"/>
<path d="M32.5929 12.4538C32.5929 14.0915 31.2741 15.4183 29.641 15.4183C28.008 15.4183 26.6943 14.0915 26.6943 12.4538C26.6943 10.816 28.0131 9.48926 29.641 9.48926C31.2689 9.48926 32.5929 10.816 32.5929 12.4538Z" fill="#0075C2"/>
<path d="M27.5339 31.6407C36.8222 27.904 45.585 22.9233 45.585 19.2073C45.585 17.3311 44.3692 16.222 41.2422 15.8385C39.2228 15.5897 36.9098 15.797 37.3219 13.9624C37.7186 12.1795 42.252 10.5106 44.5444 10.2152V6.53027C38.4398 8.63447 32.9637 11.3658 32.9637 15.341C32.9637 17.2482 34.097 19.2384 37.3013 19.5286C40.3871 19.8085 41.0362 20.6585 41.0362 21.8401C41.0362 24.1672 35.2561 27.904 27.5339 31.6407Z" fill="#D80C18"/>
<path d="M63.389 12.4538C63.389 14.0915 62.0702 15.4183 60.4423 15.4183C58.8144 15.4183 57.4956 14.0915 57.4956 12.4538C57.4956 10.816 58.8144 9.48926 60.4423 9.48926C62.0702 9.48926 63.389 10.816 63.389 12.4538Z" fill="#0075C2"/>
<path d="M3.82643 34.7198C1.94611 31.2784 10.5286 23.582 10.5286 23.582C2.4046 29.5526 -0.706943 34.2171 0.617009 36.4664C2.15218 39.0785 11.3323 38.7001 25.2054 32.5949C14.0574 36.9587 5.2122 37.249 3.83159 34.7198H3.82643Z" fill="#0075C2"/>
<path d="M67.3248 1.85034C64.8572 -2.21812 51.3704 0.39917 33.1235 9.89917C48.5473 2.84543 62.2402 -0.0828276 64.8623 3.58138C65.7226 4.78897 65.4084 7.15231 63.389 10.122C65.1354 8.4169 68.5766 3.91308 67.3299 1.85553L67.3248 1.85034Z" fill="#0075C2"/>
<path d="M11.8321 28.3441V10.2148H16.4839V18.274L20.394 10.2148H25.7825L21.4037 18.4762L25.8804 28.3441H20.6979L16.4788 18.6835V28.3441H11.8269H11.8321Z" fill="#0075C2"/>
<path d="M29.9399 32.1641H30.6921L31.0372 34.2631H31.0475L31.4133 32.1641H32.2324L32.6188 34.2631H32.6291L32.9845 32.1641H33.7057L33.0721 35.1234H32.2169L31.8306 33.0192H31.8203L31.4545 35.1234H30.5787L29.9399 32.1641Z" fill="#1D1E21"/>
<path d="M33.7881 32.1641H34.5402L34.8854 34.2631H34.8957L35.2615 32.1641H36.0806L36.4669 34.2631H36.4772L36.8327 32.1641H37.5539L36.9203 35.1234H36.06L35.6736 33.0192H35.6633L35.2975 35.1234H34.4218L33.783 32.1641H33.7881Z" fill="#1D1E21"/>
<path d="M37.6363 32.1641H38.3884L38.7335 34.2631H38.7438L39.1096 32.1641H39.9287L40.3151 34.2631H40.3254L40.6808 32.1641H41.402L40.7684 35.1234H39.9081L39.5217 33.0192H39.5114L39.1457 35.1234H38.2699L37.6311 32.1641H37.6363Z" fill="#1D1E21"/>
<path d="M42.2625 34.2686V35.1289H41.5413V34.2686H42.2625Z" fill="#1D1E21"/>
<path d="M43.5915 31.2002V33.2733H43.6018L44.3591 32.1694H45.1885L44.3436 33.3355L45.3173 35.1287H44.4879L43.8594 33.9108L43.5915 34.2632V35.1287H42.8394V31.2002H43.5915Z" fill="#1D1E21"/>
<path d="M45.5696 32.164H46.3217V35.1233H45.5696V32.164ZM45.5696 31.1533H46.3217V31.8012H45.5696V31.1533Z" fill="#1D1E21"/>
<path d="M47.4088 34.1548V34.2533C47.4088 34.5124 47.5479 34.6835 47.8054 34.6835C48.0321 34.6835 48.1867 34.5695 48.1867 34.331C48.1867 34.1393 48.063 34.0512 47.9136 33.9942L47.383 33.8024C46.9657 33.6521 46.7545 33.393 46.7545 32.9783C46.7545 32.4912 47.0585 32.0869 47.8363 32.0869C48.5215 32.0869 48.8409 32.3927 48.8409 32.9265V33.0457H48.1609C48.1609 32.7503 48.0733 32.6 47.826 32.6C47.6354 32.6 47.4706 32.7088 47.4706 32.9162C47.4706 33.0613 47.5479 33.1805 47.8003 33.2634L48.2536 33.4189C48.7276 33.5796 48.9027 33.8231 48.9027 34.2637C48.9027 34.8856 48.4442 35.1914 47.8106 35.1914C46.9657 35.1914 46.7288 34.8182 46.7288 34.2533V34.1497H47.4088V34.1548Z" fill="#1D1E21"/>
<path d="M49.4489 31.3193H50.201V32.1641H50.6389V32.6824H50.201V34.2839C50.201 34.5171 50.2474 34.6104 50.4689 34.6104C50.5307 34.6104 50.5874 34.6052 50.6389 34.6V35.1287C50.474 35.1442 50.3195 35.1598 50.1443 35.1598C49.5519 35.1598 49.4437 34.9784 49.4437 34.3823V32.6876H49.0625V32.1693H49.4437V31.3245L49.4489 31.3193Z" fill="#1D1E21"/>
<path d="M50.9272 32.164H51.6794V35.1233H50.9272V32.164ZM50.9272 31.1533H51.6794V31.8012H50.9272V31.1533Z" fill="#1D1E21"/>
<path d="M52.9776 34.2686V35.1289H52.2563V34.2686H52.9776Z" fill="#1D1E21"/>
<path d="M53.5237 32.1647H54.2449V32.5585H54.2552C54.4098 32.2735 54.621 32.0869 54.9352 32.0869C54.9764 32.0869 55.0279 32.0921 55.0743 32.0973V32.8229C54.997 32.8177 54.9146 32.8125 54.8373 32.8125C54.5746 32.8125 54.281 32.9524 54.281 33.3463V35.124H53.5288V32.1647H53.5237Z" fill="#1D1E21"/>
<path d="M55.9914 33.31V33.196C55.9914 32.9213 56.079 32.6104 56.3778 32.6104C56.6765 32.6104 56.7435 32.8643 56.759 33.3152H55.9862L55.9914 33.31ZM57.4853 33.7609V33.5899C57.4853 32.6829 57.2896 32.0869 56.4087 32.0869C55.3938 32.0869 55.2393 32.8229 55.2393 33.6158C55.2393 34.3518 55.2805 35.2018 56.3778 35.2018C57.0887 35.2018 57.4184 34.8182 57.4441 34.1289H56.7641C56.7229 34.4917 56.6199 34.6835 56.3675 34.6835C56.0893 34.6835 55.9965 34.3414 55.9965 33.9942V33.7558H57.4905L57.4853 33.7609Z" fill="#1D1E21"/>
<path d="M58.6392 34.2686V35.1289H57.918V34.2686H58.6392Z" fill="#1D1E21"/>
<path d="M59.9682 31.2002V33.2733H59.9785L60.7358 32.1694H61.5652L60.7203 33.3355L61.694 35.1287H60.8646L60.2361 33.9108L59.9682 34.2632V35.1287H59.2161V31.2002H59.9682Z" fill="#1D1E21"/>
<path d="M61.9207 32.1647H62.6419V32.5585H62.6522C62.8067 32.2735 63.018 32.0869 63.3322 32.0869C63.3734 32.0869 63.4249 32.0921 63.4661 32.0973V32.8229C63.3889 32.8177 63.3065 32.8125 63.2292 32.8125C62.9664 32.8125 62.6728 32.9524 62.6728 33.3463V35.124H61.9155V32.1647H61.9207Z" fill="#1D1E21"/>
</g>
<defs>
<clipPath id="clip0_1_33500">
<rect width="190" height="38" fill="white" transform="translate(0.323486)"/>
</clipPath>
</defs>
</svg>
