<svg width="96" height="26" viewBox="0 0 96 26" fill="none" xmlns="http://www.w3.org/2000/svg">
<g clip-path="url(#clip0_69_4131)">
<path d="M66.383 0H59.0244V25.9947H66.383V0Z" fill="#024098"/>
<path d="M88.4803 18.3728L88.4212 18.4733C87.5349 20.0378 86.1277 20.7989 84.1135 20.7989C82.4054 20.7989 81.0572 20.2651 80.1119 19.2132C79.1612 18.1561 78.6778 16.0789 78.6778 13.0449C78.6778 7.76458 80.3966 5.20105 83.9362 5.20105C86.3264 5.20105 87.6531 5.90932 88.2493 7.50029L88.2977 7.63243H95.8872L95.8066 7.37344C94.2758 2.54237 90.328 0.0898438 84.0812 0.0898438C79.9185 0.0898438 76.583 1.30554 74.1713 3.7105C71.7596 6.11017 70.535 9.23398 70.535 12.9973C70.535 17.0144 71.8026 20.2069 74.2949 22.4851C76.7871 24.7632 80.0636 25.9207 84.0383 25.9207C87.2771 25.9207 90.0594 25.1332 92.2992 23.5792C94.0395 22.3741 95.2588 20.7091 95.9194 18.6371L96 18.3781H88.4803V18.3728Z" fill="#024098"/>
<path d="M48.7278 14.5935C50.221 14.1178 51.4779 13.2351 52.4554 11.9666C53.4384 10.698 53.9379 9.26033 53.9379 7.70636V7.64822V7.59008C53.9379 6.0361 53.4384 4.6037 52.4554 3.32986C51.4725 2.06131 50.221 1.17861 48.7278 0.702903C47.2507 0.232482 45.2795 -0.00537109 42.8571 -0.00537109H29.574V4.75698L41.6646 4.79926C42.8409 4.81512 43.6789 4.87855 44.1408 4.97898C44.6779 5.09526 45.1828 5.4124 45.6501 5.91982C45.9401 6.23695 46.1389 6.58581 46.2463 6.9558C46.3054 7.1778 46.3376 7.41036 46.3376 7.64822C46.3376 7.89136 46.3054 8.12392 46.2463 8.34063C46.1389 8.71063 45.9401 9.05948 45.6501 9.37662C45.1882 9.88404 44.6779 10.2012 44.1408 10.3175C43.6735 10.4179 42.8409 10.4813 41.6646 10.4972L29.5686 10.5395V15.1961L44.925 25.9523L44.9787 25.9893L53.8949 25.8308L40.44 15.2912H42.8571C45.2795 15.2912 47.2561 15.0534 48.7278 14.5882V14.5935Z" fill="#024098"/>
<path d="M23.4186 15.0321C22.7901 14.3344 21.963 13.7689 20.9532 13.346C23.2145 12.0088 24.3639 10.1059 24.3639 7.67455C24.3639 6.12057 23.8644 4.68817 22.8814 3.41433C21.8985 2.14578 20.647 1.26308 19.1538 0.787376C17.6767 0.316955 15.7055 0.0791016 13.2831 0.0791016H0V4.83617L12.0906 4.87845C13.2669 4.89431 14.0995 4.95774 14.5668 5.05816C15.1039 5.17445 15.6088 5.49158 16.0761 5.999C16.5326 6.50114 16.7636 7.07727 16.7636 7.71155C16.7636 8.39339 16.538 8.9801 16.0707 9.50866C15.6034 10.0372 15.0717 10.3808 14.4808 10.5341C13.9652 10.6662 13.1595 10.7455 12.0692 10.7666C11.8865 10.7666 11.6932 10.7719 11.4891 10.7719H0V25.9152H14.0673C17.8916 25.9152 20.7007 25.2228 22.4141 23.8539C24.1437 22.4743 25.0192 20.8146 25.0192 18.9118C25.0192 17.5164 24.4821 16.2108 23.4186 15.0321ZM16.2641 20.1856C15.5497 20.6878 14.2821 20.9468 12.5096 20.9468H7.35859V15.3916H12.8158C14.4432 15.3916 15.6142 15.6664 16.3017 16.2161C16.9838 16.7605 17.3168 17.3842 17.3168 18.1242C17.3168 19.0175 16.9731 19.6941 16.2695 20.1909L16.2641 20.1856Z" fill="#024098"/>
</g>
<defs>
<clipPath id="clip0_69_4131">
<rect width="96" height="26" fill="white"/>
</clipPath>
</defs>
</svg>
