<svg width="144" height="14" viewBox="0 0 144 14" fill="none" xmlns="http://www.w3.org/2000/svg">
<g clip-path="url(#clip0_782_36867)">
<path d="M20.4707 3.46302C21.7715 6.34785 21.229 9.30531 20.9362 10.6417L24.3516 13.9972L29.5703 13.9972L22.1137 6.75748L28.3959 0.772839C26.3306 0.627581 24.589 0.848373 22.2555 1.77222L20.4707 3.46302Z" fill="#40F3FE"/>
<path d="M20.4701 3.46282L19.7088 4.1833L18.8796 3.396C18.2908 3.59645 17.4154 3.79981 15.5474 5.09842L17.3075 6.75727L14.7983 9.17437C14.7027 8.73279 14.5486 8.32897 14.2496 7.94258C13.8211 7.39641 13.3865 7.03327 12.6837 6.76018C11.5 7.15238 10.8835 7.78861 10.3379 8.48585C10.9945 8.71826 11.3212 9.15113 11.3212 9.83385C11.3212 10.3974 11.1178 10.6502 10.7078 10.9088C10.6646 10.9349 10.6092 10.9552 10.5629 10.9785C11.6942 11.6699 13.9968 13.137 15.0696 13.9911L19.7088 9.43584L20.9325 10.6415C21.4165 9.34287 22.184 6.34474 20.4671 3.46282H20.4701Z" fill="url(#paint0_linear_782_36867)"/>
<path d="M15.2947 0L-0.00390625 0L-0.00390625 7.51567C0.794467 7.6464 1.9535 7.5912 3.55332 7.42851L3.55332 2.67856L8.50077 2.67856C9.28373 2.67856 9.89407 2.80349 10.301 3.05914C10.6894 3.3148 10.8836 3.61984 10.8836 4.13405C10.8836 4.64827 10.6924 5.02013 10.301 5.27288C9.89407 5.54596 9.28373 5.68251 8.50077 5.68251L6.38308 5.68251L6.38308 7.61735C7.58526 7.92239 8.36206 8.07055 9.28373 8.30297C9.63206 8.32621 9.93414 8.3756 10.1931 8.44823C10.2393 8.46275 10.2948 8.47147 10.338 8.48599C10.9206 7.94273 11.7559 7.35007 12.6838 6.76032C12.6745 6.75742 12.6653 6.75161 12.656 6.7487C13.0906 6.49595 13.4975 6.16767 13.7996 5.77838C13.852 5.71156 13.9075 5.64474 13.9538 5.57211C14.2404 5.10147 14.3884 4.60759 14.4315 4.04109L15.5474 5.09276C17.0147 4.29965 18.3186 3.66051 18.8796 3.39033L15.2947 0Z" fill="url(#paint1_linear_782_36867)"/>
<path d="M8.79573 11.3156L8.096 11.3156C7.17741 12.2045 6.84758 13.0354 6.67188 13.9999L15.0687 13.9999C15.0687 13.9999 14.2672 13.2243 12.8184 12.3295C11.9831 11.8123 11.0182 11.2604 10.562 10.9844C10.1428 11.1994 9.55712 11.3156 8.79573 11.3156Z" fill="url(#paint2_linear_782_36867)"/>
<path d="M3.55332 11.3157L3.55332 7.41408C2.10454 7.38212 0.803714 7.44313 -0.00390625 7.50123L-0.00390625 14.0001L6.67284 14.0001C7.05815 13.0211 7.57601 12.103 8.09696 11.3157L3.55024 11.3157H3.55332Z" fill="url(#paint3_linear_782_36867)"/>
<path d="M6.38281 7.59131L6.38281 8.29145L8.79951 8.29145C8.97213 8.29145 9.12934 8.30017 9.28347 8.30889C8.50667 7.97479 7.42162 7.73076 6.38281 7.59131Z" fill="url(#paint4_linear_782_36867)"/>
<path d="M24.127 0L22.2559 1.77215C24.7065 0.964515 27.3266 0.801826 28.3962 0.772774L28.4055 0.764059L29.2069 0L24.127 0Z" fill="url(#paint5_linear_782_36867)"/>
<path d="M47.3569 7.76545C47.7053 8.20994 47.881 8.7503 47.881 9.38073C47.881 10.3075 47.5018 11.0221 46.7435 11.5218C45.9852 12.0215 44.894 12.2772 43.4576 12.2772L37.6563 12.2772L37.6562 1.72852L43.1524 1.72852C44.5241 1.72852 45.566 1.97255 46.2873 2.47514C47.0025 2.96612 47.3569 3.64012 47.3569 4.48552C47.3569 4.98521 47.2367 5.43841 46.984 5.83061C46.7281 6.23443 46.3736 6.54528 45.9112 6.77479C46.5308 6.98977 47.0055 7.31515 47.3539 7.76836L47.3569 7.76545ZM40.6648 3.87543L40.6648 5.90905L42.7547 5.90905C43.7781 5.90905 44.2868 5.57205 44.2868 4.89224C44.2868 4.21243 43.7781 3.87543 42.7547 3.87543L40.6648 3.87543ZM44.8077 9.05244C44.8077 8.34068 44.2775 7.97753 43.214 7.97753L40.6648 7.97753V10.1186L43.214 10.1186C44.2775 10.1186 44.8077 9.76711 44.8077 9.05244Z" fill="white"/>
<path d="M49.1523 1.72852L52.1948 1.72852L52.1948 12.2801L49.1523 12.2801L49.1523 1.72852Z" fill="white"/>
<path d="M56.4099 11.7776C55.5006 11.3099 54.7916 10.6533 54.2737 9.81664C53.7558 8.98867 53.5 8.04449 53.5 7.00153C53.5 5.95858 53.7558 5.0173 54.2737 4.18062C54.7916 3.35264 55.5006 2.69607 56.4099 2.21963C57.3162 1.7519 58.3334 1.51367 59.4708 1.51367C60.6083 1.51367 61.6255 1.7519 62.5349 2.21963C63.4411 2.69607 64.1501 3.35264 64.668 4.18062C65.1858 5.0173 65.4417 5.95277 65.4417 7.00153C65.4417 8.0503 65.1828 8.98867 64.668 9.81664C64.1501 10.6533 63.4411 11.3099 62.5349 11.7776C61.6255 12.2541 60.6083 12.4836 59.4708 12.4836C58.3334 12.4836 57.3162 12.2541 56.4099 11.7776ZM60.9443 9.63652C61.3851 9.38958 61.7273 9.02934 61.9893 8.57904C62.242 8.12002 62.3715 7.59419 62.3715 7.00444C62.3715 6.41469 62.242 5.88885 61.9893 5.42984C61.7303 4.97082 61.3851 4.6193 60.9443 4.36364C60.5004 4.11961 60.0134 3.98887 59.4678 3.98887C58.9222 3.98887 58.4382 4.11961 57.9943 4.36364C57.5597 4.6193 57.2083 4.97082 56.9493 5.42984C56.6966 5.89176 56.564 6.40597 56.564 7.00444C56.564 7.6029 56.6935 8.12002 56.9493 8.57904C57.2083 9.02934 57.5597 9.38958 57.9943 9.63652C58.4382 9.89217 58.9252 10.0113 59.4678 10.0113C60.0103 10.0113 60.5004 9.88927 60.9443 9.63652Z" fill="white"/>
<path d="M79.0186 9.97338V12.2801L70.3906 12.2801L70.3906 1.72852L78.8182 1.72852V4.03231L73.3992 4.03231V5.81318L78.174 5.81318L78.174 8.04435L73.3992 8.04435V9.97047L79.0186 9.97047V9.97338Z" fill="white"/>
<path d="M87.5944 12.2811L85.3719 9.00696L83.174 12.2811L79.7031 12.2811L83.6179 6.94139L79.8665 1.73242L83.2973 1.73242L85.4428 4.77413L87.5605 1.73242L90.8464 1.73242L87.1012 6.82518L91.093 12.284L87.5944 12.284V12.2811Z" fill="white"/>
<path d="M99.1974 2.20496C99.9125 2.51582 100.464 2.96612 100.85 3.55877C101.241 4.14852 101.432 4.83704 101.432 5.63306C101.432 6.42908 101.241 7.10888 100.85 7.69282C100.461 8.27386 99.9094 8.72416 99.1974 9.04373C98.4791 9.35458 97.6345 9.52017 96.6635 9.52017L94.7924 9.52017V12.2772L91.75 12.2772L91.75 1.72852L96.6635 1.72852C97.6376 1.72852 98.4791 1.88249 99.1974 2.20496ZM97.8904 6.76608C98.2048 6.50461 98.3651 6.12694 98.3651 5.63306C98.3651 5.13918 98.2048 4.7557 97.8904 4.48552C97.5729 4.21534 97.0982 4.07589 96.4786 4.07589L94.7894 4.07589L94.7894 7.16989L96.4786 7.16989C97.0982 7.16989 97.5698 7.03916 97.8904 6.76608Z" fill="white"/>
<path d="M107.046 9.47079L105.394 9.47079V12.2772L102.352 12.2772L102.352 1.72852L107.265 1.72852C108.239 1.72852 109.081 1.88249 109.799 2.20496C110.514 2.51582 111.066 2.96612 111.454 3.55877C111.846 4.14852 112.037 4.83704 112.037 5.63306C112.037 6.42908 111.858 7.0624 111.497 7.62891C111.131 8.19251 110.607 8.637 109.938 8.96529L112.253 12.283L108.994 12.283L107.043 9.4766L107.046 9.47079ZM108.492 4.48552C108.178 4.21534 107.703 4.07589 107.083 4.07589L105.394 4.07589L105.394 7.16989L107.083 7.16989C107.703 7.16989 108.178 7.03916 108.492 6.76608C108.806 6.50461 108.967 6.12694 108.967 5.63306C108.967 5.13918 108.803 4.7557 108.492 4.48552Z" fill="white"/>
<path d="M122.033 9.97338V12.2801L113.402 12.2801L113.402 1.72852L121.833 1.72852V4.03231L116.414 4.03231V5.81318L121.189 5.81318L121.189 8.04435L116.414 8.04435V9.97047L122.033 9.97047V9.97338Z" fill="white"/>
<path d="M124.66 12.1698C123.84 11.9577 123.175 11.6789 122.666 11.3273L123.662 9.12811C124.146 9.43897 124.7 9.68591 125.339 9.88346C125.97 10.0723 126.593 10.1711 127.21 10.1711C128.378 10.1711 128.961 9.88346 128.961 9.30824C128.961 9.0061 128.797 8.7824 128.461 8.63714C128.125 8.48898 127.595 8.34081 126.855 8.17522C126.044 8.00382 125.376 7.8237 124.833 7.62614C124.291 7.42859 123.828 7.11483 123.434 6.68196C123.042 6.2549 122.854 5.66516 122.854 4.93596C122.854 4.29682 123.03 3.71288 123.393 3.19576C123.751 2.68155 124.281 2.26902 124.996 1.96397C125.712 1.66184 126.578 1.51367 127.617 1.51367C128.322 1.51367 129.019 1.59502 129.703 1.74318C130.385 1.90006 130.995 2.12957 131.516 2.4317L130.576 4.64544C129.552 4.10508 128.563 3.832 127.598 3.832C126.994 3.832 126.553 3.92206 126.276 4.09637C126.001 4.27649 125.866 4.49728 125.866 4.78489C125.866 5.0725 126.029 5.27877 126.353 5.41531C126.683 5.55766 127.207 5.70292 127.937 5.85109C128.754 6.0254 129.435 6.20552 129.969 6.40016C130.502 6.59771 130.973 6.90857 131.365 7.33853C131.759 7.76559 131.96 8.34662 131.96 9.07873C131.96 9.71205 131.778 10.2844 131.42 10.8015C131.063 11.3099 130.523 11.7195 129.811 12.0246C129.093 12.3354 128.227 12.4865 127.2 12.4865C126.328 12.4865 125.487 12.3877 124.667 12.1727L124.66 12.1698Z" fill="white"/>
<path d="M134.287 12.1698C133.467 11.9577 132.798 11.6789 132.289 11.3273L133.285 9.12811C133.769 9.43897 134.327 9.68591 134.959 9.88346C135.59 10.0723 136.219 10.1711 136.833 10.1711C137.998 10.1711 138.587 9.88346 138.587 9.30824C138.587 9.0061 138.417 8.7824 138.081 8.63714C137.751 8.48898 137.221 8.34081 136.481 8.17522C135.671 8.00382 134.996 7.8237 134.453 7.62614C133.914 7.42859 133.448 7.11483 133.06 6.68196C132.668 6.2549 132.474 5.66516 132.474 4.93596C132.474 4.29682 132.65 3.71288 133.01 3.19576C133.368 2.68155 133.904 2.26902 134.616 1.96397C135.325 1.66184 136.201 1.51367 137.233 1.51367C137.939 1.51367 138.636 1.59502 139.317 1.74318C140.005 1.90006 140.609 2.12957 141.133 2.4317L140.196 4.64544C139.169 4.10508 138.177 3.832 137.218 3.832C136.608 3.832 136.173 3.92206 135.896 4.09637C135.618 4.27649 135.483 4.49728 135.483 4.78489C135.483 5.0725 135.646 5.27877 135.973 5.41531C136.299 5.55766 136.827 5.70292 137.554 5.85109C138.371 6.0254 139.052 6.20552 139.585 6.40016C140.125 6.59771 140.59 6.90857 140.988 7.33853C141.379 7.76559 141.577 8.34662 141.577 9.07873C141.577 9.71205 141.398 10.2844 141.04 10.8015C140.683 11.3099 140.146 11.7195 139.431 12.0246C138.71 12.3354 137.844 12.4865 136.82 12.4865C135.951 12.4865 135.106 12.3877 134.29 12.1727L134.287 12.1698Z" fill="white"/>
</g>
<defs>
<linearGradient id="paint0_linear_782_36867" x1="7.63452" y1="11.9517" x2="23.6033" y2="5.67879" gradientUnits="userSpaceOnUse">
<stop stop-color="#F715FF"/>
<stop offset="1" stop-color="#00FFED"/>
</linearGradient>
<linearGradient id="paint1_linear_782_36867" x1="-2.41444" y1="-5.23221" x2="8.65822" y2="5.90522" gradientUnits="userSpaceOnUse">
<stop stop-color="#FF3FDF"/>
<stop offset="1" stop-color="#652DB3"/>
</linearGradient>
<linearGradient id="paint2_linear_782_36867" x1="10.6637" y1="10.0983" x2="11.4333" y2="26.5432" gradientUnits="userSpaceOnUse">
<stop stop-color="#FF3FDF"/>
<stop offset="1" stop-color="#652DB3"/>
</linearGradient>
<linearGradient id="paint3_linear_782_36867" x1="-7.28174" y1="18.6571" x2="24.8027" y2="-8.24795" gradientUnits="userSpaceOnUse">
<stop stop-color="#FF3FDF"/>
<stop offset="1" stop-color="#652D90"/>
</linearGradient>
<linearGradient id="paint4_linear_782_36867" x1="-7.00458" y1="18.9999" x2="25.0916" y2="-7.9145" gradientUnits="userSpaceOnUse">
<stop stop-color="#FF3FDF"/>
<stop offset="1" stop-color="#652D90"/>
</linearGradient>
<linearGradient id="paint5_linear_782_36867" x1="8.66194" y1="5.70575" x2="31.6589" y2="-2.12077" gradientUnits="userSpaceOnUse">
<stop stop-color="#F715FF"/>
<stop offset="1" stop-color="#00FFED"/>
</linearGradient>
<clipPath id="clip0_782_36867">
<rect width="144" height="14" fill="white" transform="translate(-0.00390625)"/>
</clipPath>
</defs>
</svg>
