<svg width="218" height="23" viewBox="0 0 218 23" fill="none" xmlns="http://www.w3.org/2000/svg">
<g clip-path="url(#clip0_782_48164)">
<path d="M30.9961 5.57338C32.9654 10.2165 32.1441 14.9765 31.7008 17.1273L36.8713 22.5279H44.7719L33.4834 10.8758L42.9939 1.24357C39.8673 1.00978 37.2307 1.36514 33.6981 2.85205L30.9961 5.57338Z" fill="#40F3FE"/>
<path d="M30.9954 5.57336L29.8427 6.73297L28.5874 5.46582C27.6961 5.78845 26.3708 6.11576 23.5428 8.20585L26.2074 10.8757L22.4088 14.766C22.2642 14.0553 22.0308 13.4054 21.5782 12.7835C20.9295 11.9044 20.2715 11.3199 19.2075 10.8804C17.4156 11.5117 16.4822 12.5357 15.6562 13.6579C16.6502 14.0319 17.1449 14.7286 17.1449 15.8274C17.1449 16.7345 16.8369 17.1413 16.2162 17.5575C16.1509 17.5996 16.0669 17.6323 15.9969 17.6697C17.7096 18.7826 21.1955 21.1438 22.8195 22.5185L29.8427 15.1868L31.6953 17.1273C32.428 15.0372 33.59 10.2118 30.9907 5.57336H30.9954Z" fill="url(#paint0_linear_782_48164)"/>
<path d="M23.1603 0H0V12.0963C1.20865 12.3068 2.96329 12.2179 5.38525 11.9561V4.31111H12.8751C14.0605 4.31111 14.9844 4.51217 15.6004 4.92364C16.1884 5.33511 16.4824 5.82607 16.4824 6.65369C16.4824 7.48131 16.1931 8.07982 15.6004 8.48661C14.9844 8.92614 14.0605 9.1459 12.8751 9.1459H9.66919V12.26C11.4892 12.751 12.6651 12.9894 14.0605 13.3635C14.5878 13.4009 15.0451 13.4804 15.4371 13.5973C15.5071 13.6207 15.5911 13.6347 15.6564 13.6581C16.5384 12.7837 17.8031 11.8298 19.2077 10.8806C19.1937 10.876 19.1797 10.8666 19.1657 10.8619C19.8237 10.4551 20.4397 9.92676 20.897 9.30021C20.9763 9.19266 21.0603 9.08512 21.1303 8.96822C21.5643 8.21074 21.7883 7.41585 21.8537 6.50407L23.543 8.19671C25.7643 6.92021 27.7382 5.89153 28.5876 5.45668L23.1603 0Z" fill="url(#paint1_linear_782_48164)"/>
<path d="M13.3227 18.2122H12.2634C10.8727 19.643 10.3734 20.9803 10.1074 22.5327H22.8192C22.8192 22.5327 21.6059 21.2843 19.4126 19.8441C18.148 19.0118 16.6873 18.1234 15.9967 17.6792C15.362 18.0252 14.4754 18.2122 13.3227 18.2122Z" fill="url(#paint2_linear_782_48164)"/>
<path d="M5.38525 18.2123V11.9326C3.19195 11.8812 1.22265 11.9794 0 12.0729V22.5327H10.1078C10.6912 20.957 11.4752 19.4794 12.2638 18.2123H5.38058H5.38525Z" fill="url(#paint3_linear_782_48164)"/>
<path d="M9.66992 12.2178V13.3446H13.3285C13.5899 13.3446 13.8279 13.3587 14.0612 13.3727C12.8852 12.835 11.2426 12.4422 9.66992 12.2178Z" fill="url(#paint4_linear_782_48164)"/>
<path d="M36.5299 0L33.6973 2.85225C37.4072 1.55237 41.3738 1.29053 42.9931 1.24377L43.0071 1.22974L44.2204 0H36.5299Z" fill="url(#paint5_linear_782_48164)"/>
<path d="M71.6975 12.4986C72.2248 13.214 72.4908 14.0837 72.4908 15.0983C72.4908 16.5899 71.9168 17.7402 70.7688 18.5444C69.6209 19.3487 67.9689 19.7601 65.7942 19.7601H57.0117V2.78223H65.3323C67.4089 2.78223 68.9862 3.175 70.0782 3.98391C71.1608 4.77413 71.6975 5.85892 71.6975 7.21958C71.6975 8.02382 71.5155 8.75325 71.1328 9.38448C70.7455 10.0344 70.2088 10.5347 69.5089 10.9041C70.4468 11.2501 71.1655 11.7738 71.6928 12.5033L71.6975 12.4986ZM61.5663 6.23766V9.51073H64.7303C66.2796 9.51073 67.0496 8.96834 67.0496 7.87419C67.0496 6.78005 66.2796 6.23766 64.7303 6.23766H61.5663ZM67.8382 14.57C67.8382 13.4244 67.0356 12.8399 65.4256 12.8399H61.5663V16.286H65.4256C67.0356 16.286 67.8382 15.7202 67.8382 14.57Z" fill="#4D4D4F"/>
<path d="M74.418 2.78223H79.0239V19.7648H74.418V2.78223Z" fill="#4D4D4F"/>
<path d="M85.4033 18.9557C84.0267 18.2029 82.9533 17.1462 82.1694 15.7995C81.3854 14.4669 80.998 12.9473 80.998 11.2687C80.998 9.59004 81.3854 8.07507 82.1694 6.72844C82.9533 5.39583 84.0267 4.33909 85.4033 3.57226C86.7753 2.81945 88.3153 2.43604 90.0372 2.43604C91.7592 2.43604 93.2992 2.81945 94.6758 3.57226C96.0478 4.33909 97.1211 5.39583 97.9051 6.72844C98.6891 8.07507 99.0764 9.58069 99.0764 11.2687C99.0764 12.9566 98.6844 14.4669 97.9051 15.7995C97.1211 17.1462 96.0478 18.2029 94.6758 18.9557C93.2992 19.7225 91.7592 20.0919 90.0372 20.0919C88.3153 20.0919 86.7753 19.7225 85.4033 18.9557ZM92.2679 15.5096C92.9352 15.1122 93.4532 14.5324 93.8499 13.8076C94.2325 13.0688 94.4285 12.2225 94.4285 11.2733C94.4285 10.3241 94.2325 9.47782 93.8499 8.73904C93.4579 8.00026 92.9352 7.43449 92.2679 7.02301C91.5959 6.63025 90.8586 6.41983 90.0326 6.41983C89.2066 6.41983 88.4739 6.63025 87.8019 7.02301C87.144 7.43449 86.612 8.00026 86.22 8.73904C85.8373 9.4825 85.6366 10.3101 85.6366 11.2733C85.6366 12.2366 85.8326 13.0688 86.22 13.8076C86.612 14.5324 87.144 15.1122 87.8019 15.5096C88.4739 15.9211 89.2113 16.1128 90.0326 16.1128C90.8539 16.1128 91.5959 15.9164 92.2679 15.5096Z" fill="#4D4D4F"/>
<path d="M119.628 16.0522V19.7648H106.566V2.78223H119.325V6.49015H111.121V9.35643H118.35V12.9475H111.121V16.0475H119.628V16.0522Z" fill="#4D4D4F"/>
<path d="M132.614 19.7645L129.25 14.4949L125.923 19.7645H120.668L126.595 11.1704L120.915 2.78662H126.109L129.357 7.6822L132.563 2.78662H137.538L131.868 10.9833L137.911 19.7692H132.614V19.7645Z" fill="#4D4D4F"/>
<path d="M150.181 3.54906C151.263 4.04937 152.099 4.77413 152.682 5.72799C153.275 6.67718 153.564 7.78535 153.564 9.06653C153.564 10.3477 153.275 11.4418 152.682 12.3817C152.094 13.3168 151.259 14.0416 150.181 14.5559C149.093 15.0563 147.815 15.3228 146.345 15.3228H143.512V19.7601H138.906V2.78223H146.345C147.819 2.78223 149.093 3.03005 150.181 3.54906ZM148.202 10.8901C148.678 10.4693 148.921 9.86142 148.921 9.06653C148.921 8.27164 148.678 7.65443 148.202 7.21958C147.721 6.78473 147.003 6.56029 146.065 6.56029H143.508V11.54H146.065C147.003 11.54 147.717 11.3296 148.202 10.8901Z" fill="#4D4D4F"/>
<path d="M162.06 15.2433H159.559V19.7601H154.953V2.78223H162.392C163.866 2.78223 165.14 3.03005 166.228 3.54906C167.31 4.04937 168.146 4.77413 168.734 5.72799C169.326 6.67718 169.616 7.78535 169.616 9.06653C169.616 10.3477 169.345 11.367 168.799 12.2788C168.244 13.1859 167.45 13.9013 166.438 14.4297L169.942 19.7695H165.01L162.056 15.2526L162.06 15.2433ZM164.249 7.21958C163.773 6.78473 163.054 6.56029 162.116 6.56029H159.559V11.54H162.116C163.054 11.54 163.773 11.3296 164.249 10.8901C164.725 10.4693 164.968 9.86142 164.968 9.06653C164.968 8.27164 164.72 7.65443 164.249 7.21958Z" fill="#4D4D4F"/>
<path d="M184.75 16.0522V19.7648H171.684V2.78223H184.447V6.49015H176.243V9.35643H183.471V12.9475H176.243V16.0475H184.75V16.0522Z" fill="#4D4D4F"/>
<path d="M188.726 19.5869C187.485 19.2456 186.477 18.7967 185.707 18.231L187.214 14.6914C187.947 15.1917 188.787 15.5891 189.753 15.9071C190.71 16.211 191.652 16.37 192.586 16.37C194.354 16.37 195.236 15.9071 195.236 14.9813C195.236 14.495 194.989 14.1349 194.48 13.9011C193.972 13.6627 193.169 13.4242 192.049 13.1577C190.822 12.8818 189.809 12.5919 188.988 12.274C188.166 11.956 187.466 11.451 186.869 10.7543C186.276 10.067 185.992 9.11778 185.992 7.94415C185.992 6.91547 186.258 5.97563 186.808 5.14333C187.35 4.31571 188.152 3.65175 189.235 3.16079C190.318 2.6745 191.629 2.43604 193.202 2.43604C194.27 2.43604 195.325 2.56696 196.361 2.80542C197.392 3.05792 198.316 3.42731 199.105 3.91359L197.682 7.47657C196.132 6.60687 194.634 6.16734 193.174 6.16734C192.259 6.16734 191.592 6.31229 191.172 6.59284C190.756 6.88274 190.551 7.2381 190.551 7.70101C190.551 8.16391 190.798 8.4959 191.288 8.71566C191.788 8.94478 192.581 9.17857 193.687 9.41703C194.924 9.69758 195.955 9.98748 196.762 10.3008C197.57 10.6187 198.284 11.119 198.876 11.8111C199.473 12.4984 199.777 13.4336 199.777 14.6119C199.777 15.6312 199.501 16.5523 198.96 17.3846C198.419 18.2029 197.602 18.8622 196.524 19.3531C195.437 19.8535 194.126 20.0966 192.572 20.0966C191.251 20.0966 189.977 19.9376 188.736 19.5916L188.726 19.5869Z" fill="#4D4D4F"/>
<path d="M203.299 19.5869C202.058 19.2456 201.045 18.7967 200.275 18.231L201.783 14.6914C202.515 15.1917 203.36 15.5891 204.317 15.9071C205.273 16.211 206.225 16.37 207.154 16.37C208.918 16.37 209.809 15.9071 209.809 14.9813C209.809 14.495 209.553 14.1349 209.044 13.9011C208.545 13.6627 207.742 13.4242 206.622 13.1577C205.395 12.8818 204.373 12.5919 203.551 12.274C202.735 11.956 202.03 11.451 201.442 10.7543C200.849 10.067 200.555 9.11778 200.555 7.94415C200.555 6.91547 200.821 5.97563 201.367 5.14333C201.909 4.31571 202.721 3.65175 203.799 3.16079C204.872 2.6745 206.197 2.43604 207.761 2.43604C208.829 2.43604 209.884 2.56696 210.915 2.80542C211.956 3.05792 212.871 3.42731 213.664 3.91359L212.245 7.47657C210.691 6.60687 209.189 6.16734 207.737 6.16734C206.813 6.16734 206.155 6.31229 205.735 6.59284C205.315 6.88274 205.11 7.2381 205.11 7.70101C205.11 8.16391 205.357 8.4959 205.852 8.71566C206.347 8.94478 207.145 9.17857 208.246 9.41703C209.483 9.69758 210.514 9.98748 211.321 10.3008C212.138 10.6187 212.843 11.119 213.445 11.8111C214.037 12.4984 214.336 13.4336 214.336 14.6119C214.336 15.6312 214.065 16.5523 213.524 17.3846C212.983 18.2029 212.171 18.8622 211.088 19.3531C209.996 19.8535 208.685 20.0966 207.135 20.0966C205.819 20.0966 204.541 19.9376 203.304 19.5916L203.299 19.5869Z" fill="#4D4D4F"/>
</g>
<defs>
<linearGradient id="paint0_linear_782_48164" x1="11.5636" y1="19.2361" x2="36.1169" y2="10.1639" gradientUnits="userSpaceOnUse">
<stop stop-color="#F715FF"/>
<stop offset="1" stop-color="#00FFED"/>
</linearGradient>
<linearGradient id="paint1_linear_782_48164" x1="-3.64928" y1="-8.42115" x2="14.145" y2="8.41412" gradientUnits="userSpaceOnUse">
<stop stop-color="#FF3FDF"/>
<stop offset="1" stop-color="#652DB3"/>
</linearGradient>
<linearGradient id="paint2_linear_782_48164" x1="16.1507" y1="16.2531" x2="17.4672" y2="42.7133" gradientUnits="userSpaceOnUse">
<stop stop-color="#FF3FDF"/>
<stop offset="1" stop-color="#652DB3"/>
</linearGradient>
<linearGradient id="paint3_linear_782_48164" x1="-11.0178" y1="30.028" x2="39.9813" y2="-10.1982" gradientUnits="userSpaceOnUse">
<stop stop-color="#FF3FDF"/>
<stop offset="1" stop-color="#652D90"/>
</linearGradient>
<linearGradient id="paint4_linear_782_48164" x1="-10.5971" y1="30.5797" x2="40.4208" y2="-9.66054" gradientUnits="userSpaceOnUse">
<stop stop-color="#FF3FDF"/>
<stop offset="1" stop-color="#652D90"/>
</linearGradient>
<linearGradient id="paint5_linear_782_48164" x1="13.1176" y1="9.18331" x2="48.354" y2="-2.09638" gradientUnits="userSpaceOnUse">
<stop stop-color="#F715FF"/>
<stop offset="1" stop-color="#00FFED"/>
</linearGradient>
<clipPath id="clip0_782_48164">
<rect width="218" height="22.5328" fill="white"/>
</clipPath>
</defs>
</svg>
