<svg width="60" height="60" viewBox="0 0 60 60" fill="none" xmlns="http://www.w3.org/2000/svg">
<g clip-path="url(#clip0_782_48374)">
<path d="M14.3356 30C14.3356 17.4211 23.2051 6.93081 35 4.51879C33.3332 4.17517 31.6061 4 29.8322 4C15.5673 4 4 15.6424 4 30C4 44.3576 15.5673 56 29.8322 56C31.5994 56 33.3265 55.8181 35 55.4812C23.2118 53.0692 14.3356 42.5789 14.3356 30Z" fill="white"/>
<path d="M56 29.5C56 15.4309 46.1205 3.69778 33 1C19.8795 3.69778 10 15.4309 10 29.5C10 43.5691 19.8795 55.3022 33 58C46.1205 55.3022 56 43.5691 56 29.5Z" fill="#D1E3F2"/>
<path d="M30 59C46.0163 59 59 46.0163 59 30C59 13.9837 46.0163 1 30 1C13.9837 1 1 13.9837 1 30C1 46.0163 13.9837 59 30 59Z" stroke="#0074DB" stroke-width="2" stroke-linejoin="round"/>
<path d="M30 57C15.1122 57 3 44.8878 3 30C3 15.1122 15.1122 3 30 3C44.8878 3 57 15.1122 57 30C57 44.8878 44.8878 57 30 57Z" stroke="white" stroke-width="2" stroke-linejoin="round"/>
<path d="M41.391 22.3882H13V42.8099H41.391V22.3882Z" fill="white" stroke="#A9D1EA" stroke-width="2"/>
<path d="M41.391 18H13V22.389H41.391V18Z" fill="#3B64B4" stroke="#3B64B4" stroke-width="2"/>
<path d="M40.0987 41.5115H14.291V23.687H40.0987V41.5115Z" fill="white"/>
<path d="M17.4883 27.6855H28.4042" stroke="#A9D1EA" stroke-width="2"/>
<path d="M17.4883 30.75H21.2846" stroke="#A9D1EA" stroke-width="2"/>
<path d="M14.6328 20.0825H15.6574" stroke="white" stroke-width="2"/>
<path d="M16.6777 20.0825H17.698" stroke="white" stroke-width="2"/>
<path d="M18.7188 20.0825H19.7433" stroke="white" stroke-width="2"/>
<path d="M30.0547 20.082H39.657" stroke="white" stroke-width="2"/>
<path d="M22 34V38" stroke="#FF9797" stroke-width="2" stroke-linejoin="round"/>
<path d="M20 36H24" stroke="#FF9797" stroke-width="2" stroke-linejoin="round"/>
<path d="M45.8388 24.4584C45.8388 25.0615 45.3528 25.5458 44.7573 25.5458C44.1618 25.5458 43.6758 25.0571 43.6758 24.4584C43.6758 23.8597 44.1618 23.3711 44.7573 23.3711C45.3528 23.3711 45.8388 23.8597 45.8388 24.4584Z" fill="#0074DB"/>
<path d="M40 48C44.9706 48 49 43.9706 49 39C49 34.0294 44.9706 30 40 30C35.0294 30 31 34.0294 31 39C31 43.9706 35.0294 48 40 48Z" fill="white" stroke="#A9D1EA" stroke-width="2"/>
<path d="M46 40.1404V37.8553L44.5612 37.6851C44.4633 37.3404 44.3271 37.0085 44.1568 36.7021L45.0507 35.566L43.4331 33.9489L42.2966 34.8426C41.9858 34.6723 41.658 34.5362 41.3132 34.4383L41.143 33H38.857L38.6868 34.4383C38.342 34.5362 38.0099 34.6723 37.7034 34.8426L36.5669 33.9489L34.9493 35.566L35.8432 36.7021C35.6729 37.0128 35.5367 37.3404 35.4388 37.6851L34 37.8553V40.1404L35.4388 40.3106C35.5367 40.6553 35.6729 40.9872 35.8432 41.2979L34.9493 42.434L36.5669 44.0511L37.7034 43.1574C38.0099 43.3277 38.342 43.4638 38.6868 43.5617L38.857 45H41.143L41.3132 43.5617C41.658 43.4638 41.9901 43.3277 42.2966 43.1574L43.4331 44.0511L45.0507 42.434L44.1568 41.2979C44.3271 40.9915 44.4633 40.6596 44.5612 40.3149L46 40.1447V40.1404ZM39.9936 40.6213C39.0954 40.6213 38.3675 39.8936 38.3675 38.9957C38.3675 38.0979 39.0954 37.3702 39.9936 37.3702C40.8918 37.3702 41.6197 38.0979 41.6197 38.9957C41.6197 39.8936 40.8918 40.6213 39.9936 40.6213Z" fill="#0074DB"/>
</g>
<defs>
<clipPath id="clip0_782_48374">
<rect width="60" height="60" fill="white"/>
</clipPath>
</defs>
</svg>
