<svg width="60" height="60" viewBox="0 0 60 60" fill="none" xmlns="http://www.w3.org/2000/svg">
<g clip-path="url(#clip0_782_48325)">
<path d="M14.3356 30C14.3356 17.4211 23.2051 6.93081 35 4.51879C33.3332 4.17517 31.6061 4 29.8322 4C15.5673 4 4 15.6424 4 30C4 44.3576 15.5673 56 29.8322 56C31.5994 56 33.3265 55.8181 35 55.4812C23.2118 53.0692 14.3356 42.5789 14.3356 30Z" fill="white"/>
<path d="M56 29.5C56 15.4309 46.1205 3.69778 33 1C19.8795 3.69778 10 15.4309 10 29.5C10 43.5691 19.8795 55.3022 33 58C46.1205 55.3022 56 43.5691 56 29.5Z" fill="#D1E3F2"/>
<path d="M30 59C46.0163 59 59 46.0163 59 30C59 13.9837 46.0163 1 30 1C13.9837 1 1 13.9837 1 30C1 46.0163 13.9837 59 30 59Z" stroke="#0074DB" stroke-width="2" stroke-linejoin="round"/>
<path d="M30 57C15.1122 57 3 44.8878 3 30C3 15.1122 15.1122 3 30 3C44.8878 3 57 15.1122 57 30C57 44.8878 44.8878 57 30 57Z" stroke="white" stroke-width="2" stroke-linejoin="round"/>
<path d="M42.8291 23.7778C42.8291 26.627 40.5255 28.9306 37.6763 28.9306C34.8271 28.9306 32.5234 26.627 32.5234 23.7778C32.5234 20.9286 34.8346 18.625 37.6763 18.625C40.5179 18.625 42.8291 20.9286 42.8291 23.7778Z" fill="white" stroke="#A9D1EA" stroke-width="2" stroke-linecap="round" stroke-linejoin="round"/>
<path d="M42.4119 31.5H32.9322C30.4695 31.5 28.4766 33.5005 28.4766 35.9632V44.5639H46.8751V35.9632C46.8751 33.5005 44.8822 31.5 42.4119 31.5Z" fill="white" stroke="#A9D1EA" stroke-width="2" stroke-linecap="round" stroke-linejoin="round"/>
<path d="M29.3406 23.7778C29.3406 26.627 27.0294 28.9306 24.1802 28.9306C21.331 28.9306 19.0273 26.627 19.0273 23.7778C19.0273 20.9286 21.3385 18.625 24.1802 18.625C27.0218 18.625 29.3406 20.9286 29.3406 23.7778Z" fill="white" stroke="#2F4382" stroke-width="2"/>
<path d="M28.9158 31.5H19.4361C16.9734 31.5 14.9805 33.5005 14.9805 35.9632V44.5639H33.3791V35.9632C33.3791 33.5005 31.3785 31.5 28.9158 31.5Z" fill="white" stroke="#2F4382" stroke-width="2"/>
<path d="M32.4695 13.8285C32.4695 14.556 31.886 15.1395 31.1586 15.1395C30.4311 15.1395 29.8477 14.556 29.8477 13.8285C29.8477 13.1011 30.4311 12.5176 31.1586 12.5176C31.886 12.5176 32.4695 13.1011 32.4695 13.8285Z" fill="#A9D1EA"/>
<path d="M50.4734 27.598C50.4734 28.3255 49.89 28.909 49.1625 28.909C48.435 28.909 47.8516 28.3255 47.8516 27.598C47.8516 26.8706 48.435 26.2871 49.1625 26.2871C49.89 26.2871 50.4734 26.8706 50.4734 27.598Z" fill="#A9D1EA"/>
<path d="M6.98633 28.4082H8.53217" stroke="#2F4382" stroke-width="2"/>
<path d="M10.0098 28.4082H11.5556" stroke="#2F4382" stroke-width="2"/>
<path d="M13.0332 28.4082H14.579" stroke="#2F4382" stroke-width="2"/>
<path d="M23.7402 9.07031V13.0703" stroke="#0074DB" stroke-width="2" stroke-linejoin="round"/>
<path d="M21.7559 11.0547H25.7559" stroke="#0074DB" stroke-width="2" stroke-linejoin="round"/>
</g>
<defs>
<clipPath id="clip0_782_48325">
<rect width="60" height="60" fill="white"/>
</clipPath>
</defs>
</svg>
