<svg width="120" height="120" viewBox="0 0 120 120" fill="none" xmlns="http://www.w3.org/2000/svg">
<path d="M0 8C0 3.58172 3.58172 0 8 0H112C116.418 0 120 3.58172 120 8V112C120 116.418 116.418 120 112 120H8C3.58172 120 0 116.418 0 112V8Z" fill="#E8EDF3"/>
<g clip-path="url(#clip0_401_1503)">
<path d="M60.3368 39.6621C71.3878 39.6621 80.3376 48.6249 80.3376 59.6629C80.3376 70.701 71.31 79.6638 60.3368 79.6638C49.3636 79.6638 40.3359 70.727 40.3359 59.6629C40.3359 48.6119 49.2987 39.6621 60.3368 39.6621Z" fill="white"/>
<path d="M87.006 29.6621C88.4846 29.6621 89.6779 30.8554 89.6779 32.3341C89.6779 33.8127 88.4846 35.006 87.006 35.006C85.5273 35.006 84.334 33.8127 84.334 32.3341C84.334 30.8554 85.5273 29.6621 87.006 29.6621Z" fill="white"/>
<path d="M70.9994 55.0059C72.102 55.0059 72.9969 55.9008 72.9969 57.0034C72.9969 58.1059 72.102 59.0008 70.9994 59.0008C69.8969 59.0008 69.002 58.1059 69.002 57.0034C69.002 55.9008 69.8969 55.0059 70.9994 55.0059Z" fill="#D2E5F0"/>
<path d="M66.3295 69.6641C67.432 69.6641 68.327 70.559 68.327 71.6616C68.327 72.7641 67.432 73.659 66.3295 73.659C65.227 73.659 64.332 72.7641 64.332 71.6616C64.332 70.559 65.227 69.6641 66.3295 69.6641Z" fill="#2F4382"/>
<path d="M52.9956 65.0068C54.8366 65.0068 56.3291 63.5143 56.3291 61.6733C56.3291 59.8323 54.8366 58.3398 52.9956 58.3398C51.1546 58.3398 49.6621 59.8323 49.6621 61.6733C49.6621 63.5143 51.1546 65.0068 52.9956 65.0068Z" fill="#D2E5F0"/>
<path d="M48.197 43.761C46.7831 44.8505 45.512 46.1087 44.4225 47.5355L40.5313 43.6443L40.2978 43.8777C39.8438 44.3317 39.2472 44.5652 38.6505 44.5652C38.0539 44.5652 37.4572 44.3447 37.0032 43.8777C36.0953 42.9698 36.0953 41.4911 37.0032 40.5832L41.2447 36.3417C41.6986 35.8878 42.2953 35.6543 42.8919 35.6543C43.4886 35.6543 44.0852 35.8878 44.5392 36.3417C45.4472 37.2497 45.4472 38.7284 44.5392 39.6363L44.3057 39.8698L48.197 43.761Z" fill="#D2E5F0"/>
<path d="M35.0054 57.0047H40.5179C40.4012 57.8737 40.3364 58.7687 40.3364 59.6767C40.3364 60.5846 40.4012 61.4666 40.5179 62.3486H35.0054V62.6859C35.0054 63.3344 34.746 63.9181 34.3179 64.3332C33.8899 64.7482 33.3062 65.0206 32.6707 65.0206C31.3866 65.0206 30.3359 63.9829 30.3359 62.6859V56.6804C30.3359 56.0319 30.5954 55.4482 31.0234 55.0331C31.4514 54.6181 32.0351 54.3457 32.6707 54.3457C33.9548 54.3457 35.0054 55.3834 35.0054 56.6804V57.0177V57.0047Z" fill="#D2E5F0"/>
<path d="M64.9809 30.3496C65.3959 30.7776 65.6683 31.3613 65.6683 31.9968C65.6683 33.2809 64.6307 34.3316 63.3336 34.3316H62.9964V39.8441C62.1273 39.7274 61.2324 39.6625 60.3244 39.6625C59.4165 39.6625 58.5344 39.7274 57.6524 39.8441V34.3316H57.3152C56.6667 34.3316 56.083 34.0722 55.6679 33.6441C55.2529 33.2161 54.9805 32.6324 54.9805 31.9968C54.9805 30.7127 56.0181 29.6621 57.3152 29.6621H63.3206C63.9692 29.6621 64.5529 29.9215 64.9679 30.3496H64.9809Z" fill="#D2E5F0"/>
<path d="M83.6722 40.5708C84.1262 41.0248 84.3597 41.6214 84.3597 42.2181C84.3597 42.8148 84.1262 43.4114 83.6722 43.8654C82.7643 44.7733 81.2856 44.7733 80.3777 43.8654L80.1442 43.6319L76.253 47.5231C75.1635 46.1093 73.9053 44.8382 72.4785 43.7486L76.3697 39.8574L76.1363 39.624C75.6823 39.17 75.4488 38.5733 75.4488 37.9767C75.4488 37.38 75.6693 36.7834 76.1363 36.3294C77.0442 35.4215 78.5229 35.4215 79.4308 36.3294L83.6722 40.5708Z" fill="#D2E5F0"/>
<path d="M90.3383 56.6661V62.6715C90.3383 63.32 90.0788 63.9037 89.6508 64.3188C89.2228 64.7338 88.6391 65.0062 88.0035 65.0062C86.7194 65.0062 85.6688 63.9686 85.6688 62.6715V62.3343H80.1562C80.273 61.4652 80.3378 60.5702 80.3378 59.6623C80.3378 58.7543 80.273 57.8723 80.1562 56.9903H85.6688V56.6531C85.6688 56.0046 85.9282 55.4209 86.3563 55.0058C86.7843 54.5907 87.368 54.3184 88.0035 54.3184C89.2876 54.3184 90.3383 55.356 90.3383 56.6531V56.6661Z" fill="#D2E5F0"/>
<path d="M76.2393 71.8027L80.1305 75.6939L80.364 75.4605C80.818 75.0065 81.4146 74.773 82.0113 74.773C82.6079 74.773 83.2046 74.9935 83.6586 75.4605C84.5665 76.3684 84.5665 77.8471 83.6586 78.755L79.4171 82.9965C78.9632 83.4504 78.3665 83.6839 77.7699 83.6839C77.1732 83.6839 76.5766 83.4504 76.1226 82.9965C75.2146 82.0885 75.2146 80.6098 76.1226 79.7019L76.3561 79.4684L72.4648 75.5772C73.8787 74.4877 75.1498 73.2295 76.2393 71.8027Z" fill="#D2E5F0"/>
<path d="M64.9816 85.6824C65.3967 86.1105 65.669 86.6941 65.669 87.3297C65.669 88.6138 64.6314 89.6644 63.3343 89.6644H57.3289C56.6803 89.6644 56.0966 89.405 55.6816 88.977C55.2665 88.549 54.9941 87.9653 54.9941 87.3297C54.9941 86.0456 56.0318 84.995 57.3289 84.995H57.6661V79.4824C58.5351 79.5992 59.4301 79.664 60.3381 79.664C61.246 79.664 62.128 79.5992 63.01 79.4824V84.995H63.3473C63.9958 84.995 64.5795 85.2544 64.9946 85.6824H64.9816Z" fill="#D2E5F0"/>
<path d="M44.4348 71.8027C45.5244 73.2165 46.7825 74.4877 48.2093 75.5772L44.3181 79.4684L44.5516 79.7019C45.0055 80.1559 45.239 80.7525 45.239 81.3492C45.239 81.9458 45.0185 82.5425 44.5516 82.9965C43.6436 83.9044 42.1649 83.9044 41.257 82.9965L37.0156 78.755C36.5616 78.3011 36.3281 77.7044 36.3281 77.1078C36.3281 76.5111 36.5616 75.9144 37.0156 75.4605C37.9235 74.5525 39.4022 74.5525 40.3101 75.4605L40.5436 75.6939L44.4348 71.8027Z" fill="#D2E5F0"/>
<path d="M88.6648 47.0039C89.2225 47.0039 89.6635 47.4579 89.6635 48.0027C89.6635 48.5474 89.2095 49.0014 88.6648 49.0014C88.12 49.0014 87.666 48.5474 87.666 48.0027C87.666 47.4579 88.12 47.0039 88.6648 47.0039Z" fill="#438FD2"/>
<path d="M87.3288 82.9961C87.8866 82.9961 88.3276 83.4501 88.3276 83.9948C88.3276 84.5396 87.8736 84.9936 87.3288 84.9936C86.7841 84.9936 86.3301 84.5396 86.3301 83.9948C86.3301 83.4501 86.7841 82.9961 87.3288 82.9961Z" fill="#438FD2"/>
<path d="M72.6726 85.6699C73.2303 85.6699 73.6713 86.1239 73.6713 86.6687C73.6713 87.2134 73.2173 87.6674 72.6726 87.6674C72.1278 87.6674 71.6738 87.2134 71.6738 86.6687C71.6738 86.1239 72.1278 85.6699 72.6726 85.6699Z" fill="#438FD2"/>
<path d="M62.3354 56.3301C63.4379 56.3301 64.3329 57.2251 64.3329 58.3276C64.3329 59.4301 63.4379 60.3251 62.3354 60.3251C61.2329 60.3251 60.3379 59.4301 60.3379 58.3276C60.3379 57.2251 61.2329 56.3301 62.3354 56.3301Z" fill="#2F4382"/>
<path d="M49.9987 84.334C50.5565 84.334 50.9975 84.788 50.9975 85.3327C50.9975 85.8775 50.5435 86.3315 49.9987 86.3315C49.454 86.3315 49 85.8775 49 85.3327C49 84.788 49.454 84.334 49.9987 84.334Z" fill="#438FD2"/>
<path d="M48.3399 66.3301C49.0792 66.3301 49.6759 66.9267 49.6759 67.6661C49.6759 68.4054 49.0792 69.002 48.3399 69.002C47.6006 69.002 47.0039 68.4054 47.0039 67.6661C47.0039 66.9267 47.6006 66.3301 48.3399 66.3301Z" fill="#2F4382"/>
<path d="M47.3269 30.3359C47.8846 30.3359 48.3256 30.7899 48.3256 31.3347C48.3256 31.8795 47.8716 32.3334 47.3269 32.3334C46.7821 32.3334 46.3281 31.8795 46.3281 31.3347C46.3281 30.7899 46.7821 30.3359 47.3269 30.3359Z" fill="#438FD2"/>
<path d="M36.6648 69.002C37.2225 69.002 37.6635 69.4559 37.6635 70.0007C37.6635 70.5455 37.2095 70.9994 36.6648 70.9994C36.12 70.9994 35.666 70.5455 35.666 70.0007C35.666 69.4559 36.12 69.002 36.6648 69.002Z" fill="white"/>
<path d="M33.3327 49.6616C33.8843 49.6616 34.3315 49.2144 34.3315 48.6628C34.3315 48.1112 33.8843 47.6641 33.3327 47.6641C32.7811 47.6641 32.334 48.1112 32.334 48.6628C32.334 49.2144 32.7811 49.6616 33.3327 49.6616Z" fill="#438FD2"/>
<path d="M62.9965 40.505C62.6333 40.505 62.335 40.2067 62.335 39.8435V34.331C62.335 33.9678 62.6333 33.6695 62.9965 33.6695H63.3337C64.2546 33.6695 64.994 32.9172 64.994 32.0092C64.994 31.5682 64.8253 31.1402 64.5011 30.8289C64.1898 30.5176 63.7617 30.336 63.3207 30.336H57.3153C56.3944 30.336 55.655 31.0883 55.655 31.9962C55.655 32.4372 55.8237 32.8653 56.1479 33.1766C56.4592 33.4879 56.8873 33.6695 57.3283 33.6695H57.6655C58.0287 33.6695 58.327 33.9678 58.327 34.331V39.8435C58.327 40.2067 58.0287 40.505 57.6655 40.505C57.3023 40.505 57.004 40.2067 57.004 39.8435V34.9795C56.3295 34.9017 55.7069 34.6033 55.214 34.1234C54.6433 33.5527 54.332 32.8004 54.332 31.9962C54.332 30.336 55.681 29 57.3283 29H63.3337C64.1379 29 64.8902 29.3113 65.4609 29.882C66.0316 30.4527 66.3429 31.205 66.3429 32.0092C66.3429 33.5527 65.1755 34.8238 63.6709 34.9925V39.8565C63.6709 40.2197 63.3726 40.518 63.0094 40.518L62.9965 40.505Z" fill="#438FD2"/>
<path d="M76.24 48.1975C76.0713 48.1975 75.9027 48.1327 75.773 48.003C75.5136 47.7436 75.5136 47.3155 75.773 47.0561L79.6642 43.1649C79.7939 43.0352 79.9626 42.9704 80.1312 42.9704C80.2998 42.9704 80.4814 43.0352 80.5981 43.1649L80.8316 43.3984C81.4801 44.0469 82.5437 44.0469 83.1923 43.3984C83.5036 43.0871 83.6852 42.6591 83.6852 42.218C83.6852 41.777 83.5165 41.349 83.1923 41.0377L78.9508 36.7963C78.3023 36.1478 77.2387 36.1478 76.5902 36.7963C76.2789 37.1076 76.0973 37.5356 76.0973 37.9766C76.0973 38.4176 76.2659 38.8457 76.5902 39.157L76.8237 39.3904C76.9534 39.5201 77.0182 39.6888 77.0182 39.8574C77.0182 40.026 76.9534 40.2076 76.8237 40.3243L72.9324 44.2155C72.673 44.475 72.245 44.475 71.9856 44.2155C71.7262 43.9561 71.7262 43.5281 71.9856 43.2687L75.4228 39.8314C74.9948 39.2996 74.7613 38.6511 74.7613 37.9637C74.7613 37.1595 75.0726 36.4072 75.6433 35.8365C76.8107 34.6691 78.7174 34.6691 79.8847 35.8365L84.1262 40.0779C84.6969 40.6486 85.0082 41.4009 85.0082 42.2051C85.0082 43.0093 84.6969 43.7616 84.1262 44.3193C83.0366 45.4088 81.3115 45.4867 80.1312 44.5398L76.6939 47.977C76.5642 48.1068 76.3956 48.1716 76.227 48.1716L76.24 48.1975Z" fill="#438FD2"/>
<path d="M88.0029 65.6678C86.4594 65.6678 85.1883 64.5005 85.0197 62.9959H80.1556C79.7925 62.9959 79.4941 62.6975 79.4941 62.3344C79.4941 61.9712 79.7925 61.6729 80.1556 61.6729H85.6682C86.0314 61.6729 86.3297 61.9712 86.3297 62.3344V62.6716C86.3297 63.5925 87.082 64.3318 87.99 64.3318C88.431 64.3318 88.859 64.1632 89.1703 63.839C89.4816 63.5277 89.6632 63.0996 89.6632 62.6586V56.6532C89.6632 55.7323 88.9109 54.9929 88.0029 54.9929C87.5619 54.9929 87.1339 55.1616 86.8226 55.4858C86.5113 55.7971 86.3297 56.2252 86.3297 56.6662V57.0034C86.3297 57.3666 86.0314 57.6649 85.6682 57.6649H80.1556C79.7925 57.6649 79.4941 57.3666 79.4941 57.0034C79.4941 56.6402 79.7925 56.3419 80.1556 56.3419H85.0197C85.0975 55.6674 85.3958 55.0448 85.8757 54.5519C86.4464 53.9812 87.1987 53.6699 88.0029 53.6699C89.6632 53.6699 90.9992 55.0189 90.9992 56.6662V62.6716C90.9992 63.4758 90.6879 64.2281 90.1172 64.7988C89.5464 65.3695 88.7941 65.6808 87.99 65.6808L88.0029 65.6678Z" fill="#438FD2"/>
<path d="M77.7705 84.3466C76.9663 84.3466 76.214 84.0353 75.6433 83.4646C74.5538 82.3751 74.476 80.65 75.4228 79.4696L71.9856 76.0324C71.7262 75.773 71.7262 75.3449 71.9856 75.0855C72.245 74.8261 72.673 74.8261 72.9324 75.0855L76.8237 78.9767C76.9534 79.1064 77.0182 79.2751 77.0182 79.4437C77.0182 79.6123 76.9534 79.7939 76.8237 79.9106L76.5902 80.1441C75.9416 80.7926 75.9416 81.8562 76.5902 82.5048C76.9015 82.8161 77.3295 82.9977 77.7705 82.9977C78.2115 82.9977 78.6396 82.829 78.9508 82.5048L83.1923 78.2633C83.5036 77.952 83.6852 77.524 83.6852 77.083C83.6852 76.642 83.5165 76.214 83.1923 75.9027C82.881 75.5914 82.4529 75.4098 82.0119 75.4098C81.5709 75.4098 81.1429 75.5784 80.8316 75.9027L80.5981 76.1362C80.4684 76.2659 80.2998 76.3307 80.1312 76.3307C79.9496 76.3307 79.781 76.2659 79.6642 76.1362L75.773 72.2449C75.5136 71.9855 75.5136 71.5575 75.773 71.2981C76.0324 71.0387 76.4605 71.0387 76.7199 71.2981L80.1571 74.7353C80.6889 74.3073 81.3375 74.0738 82.0249 74.0738C82.8291 74.0738 83.5814 74.3851 84.1521 74.9558C84.7228 75.5265 85.0341 76.2788 85.0341 77.083C85.0341 77.8872 84.7228 78.6395 84.1521 79.2102L79.9107 83.4516C79.34 84.0223 78.5877 84.3336 77.7965 84.3336L77.7705 84.3466Z" fill="#438FD2"/>
<path d="M63.333 90.3383H57.3276C56.5234 90.3383 55.7711 90.027 55.2004 89.4563C54.6297 88.8856 54.3184 88.1333 54.3184 87.3291C54.3184 85.7856 55.4857 84.5145 56.9903 84.3458V79.4818C56.9903 79.1186 57.2887 78.8203 57.6518 78.8203C58.015 78.8203 58.3133 79.1186 58.3133 79.4818V84.9944C58.3133 85.3575 58.015 85.6559 57.6518 85.6559H57.3146C56.3937 85.6559 55.6543 86.4082 55.6543 87.3161C55.6543 87.7571 55.823 88.1852 56.1472 88.4965C56.4585 88.8078 56.8866 88.9894 57.3276 88.9894H63.333C64.2539 88.9894 64.9933 88.2371 64.9933 87.3291C64.9933 86.8881 64.8246 86.4601 64.5004 86.1488C64.1891 85.8375 63.761 85.6559 63.32 85.6559H62.9828C62.6196 85.6559 62.3213 85.3575 62.3213 84.9944V79.4818C62.3213 79.1186 62.6196 78.8203 62.9828 78.8203C63.346 78.8203 63.6443 79.1186 63.6443 79.4818V84.3458C64.3188 84.4237 64.9414 84.722 65.4343 85.2019C66.005 85.7726 66.3163 86.5249 66.3163 87.3291C66.3163 88.9894 64.9673 90.3253 63.32 90.3253L63.333 90.3383Z" fill="#438FD2"/>
<path d="M42.8913 84.3454C42.126 84.3454 41.3607 84.047 40.7641 83.4634L36.5226 79.2219C35.9519 78.6512 35.6406 77.8989 35.6406 77.0947C35.6406 76.2906 35.9519 75.5382 36.5226 74.9675C37.6122 73.878 39.3373 73.8002 40.5176 74.747L43.9549 71.3098C44.2143 71.0504 44.6423 71.0504 44.9017 71.3098C45.1611 71.5692 45.1611 71.9972 44.9017 72.2567L41.0105 76.1479C40.8808 76.2776 40.7122 76.3424 40.5436 76.3424C40.3749 76.3424 40.1933 76.2776 40.0766 76.1479L39.8431 75.9144C39.1946 75.2659 38.131 75.2659 37.4825 75.9144C37.1712 76.2257 36.9896 76.6537 36.9896 77.0947C36.9896 77.5357 37.1582 77.9638 37.4825 78.2751L41.7239 82.5165C42.3724 83.165 43.436 83.165 44.0846 82.5165C44.3959 82.2052 44.5774 81.7772 44.5774 81.3362C44.5774 80.8952 44.4088 80.4671 44.0846 80.1558L43.8511 79.9223C43.7214 79.7926 43.6565 79.624 43.6565 79.4554C43.6565 79.2868 43.7214 79.1052 43.8511 78.9885L47.7423 75.0972C48.0017 74.8378 48.4297 74.8378 48.6892 75.0972C48.9486 75.3567 48.9486 75.7847 48.6892 76.0441L45.2519 79.4813C45.68 80.0131 45.9134 80.6617 45.9134 81.3491C45.9134 82.1533 45.6021 82.9056 45.0314 83.4763C44.4477 84.06 43.6825 84.3583 42.9042 84.3583L42.8913 84.3454Z" fill="#438FD2"/>
<path d="M32.6701 65.6691C31.0098 65.6691 29.6738 64.3201 29.6738 62.6728V56.6674C29.6738 55.8632 29.9851 55.1109 30.5558 54.5402C31.1265 53.9695 31.8788 53.6582 32.683 53.6582C34.2265 53.6582 35.4977 54.8256 35.6663 56.3302H40.5303C40.8935 56.3302 41.1918 56.6285 41.1918 56.9917C41.1918 57.3549 40.8935 57.6532 40.5303 57.6532H35.0178C34.6546 57.6532 34.3563 57.3549 34.3563 56.9917V56.6544C34.3563 55.7335 33.604 54.9942 32.696 54.9942C32.255 54.9942 31.827 55.1628 31.5157 55.4871C31.2044 55.7984 31.0228 56.2264 31.0228 56.6674V62.6728C31.0228 63.5938 31.7751 64.3461 32.683 64.3461C33.124 64.3461 33.5521 64.1775 33.8634 63.8532C34.1747 63.5419 34.3563 63.1139 34.3563 62.6728V62.3356C34.3563 61.9724 34.6546 61.6741 35.0178 61.6741H40.5303C40.8935 61.6741 41.1918 61.9724 41.1918 62.3356C41.1918 62.6988 40.8935 62.9971 40.5303 62.9971H35.6663C35.5885 63.6716 35.2901 64.2942 34.8102 64.7871C34.2395 65.3578 33.4872 65.6691 32.683 65.6691H32.6701Z" fill="#438FD2"/>
<path d="M44.4348 48.1976C44.2662 48.1976 44.0976 48.1328 43.9679 48.0031L40.5307 44.5658C39.9989 44.9939 39.3503 45.2273 38.6629 45.2273C37.8587 45.2273 37.1064 44.916 36.5357 44.3453C35.3683 43.178 35.3683 41.2713 36.5357 40.1039L40.7771 35.8625C41.3478 35.2918 42.1001 34.9805 42.9043 34.9805C43.7085 34.9805 44.4608 35.2918 45.0185 35.8625C46.1081 36.952 46.1859 38.6771 45.239 39.8575L48.6763 43.2947C48.9357 43.5541 48.9357 43.9821 48.6763 44.2416C48.4169 44.501 47.9888 44.501 47.7294 44.2416L43.8382 40.3503C43.7085 40.2206 43.6436 40.052 43.6436 39.8834C43.6436 39.7148 43.7085 39.5332 43.8382 39.4165L44.0717 39.183C44.7202 38.5344 44.7202 37.4708 44.0717 36.8223C43.7604 36.511 43.3323 36.3294 42.8913 36.3294C42.4503 36.3294 42.0223 36.498 41.711 36.8223L37.4696 41.0637C36.821 41.7123 36.821 42.7759 37.4696 43.4244C37.7809 43.7357 38.2089 43.9173 38.6499 43.9173C39.0909 43.9173 39.5189 43.7487 39.8302 43.4244L40.0637 43.1909C40.1934 43.0612 40.362 42.9964 40.5307 42.9964C40.7122 42.9964 40.8809 43.0612 40.9976 43.1909L44.8888 47.0821C45.1482 47.3416 45.1482 47.7696 44.8888 48.029C44.7591 48.1587 44.5905 48.2236 44.4219 48.2236L44.4348 48.1976Z" fill="#438FD2"/>
<path d="M66.3302 74.3322C64.8645 74.3322 63.6582 73.1389 63.6582 71.6602C63.6582 70.1816 64.8515 68.9883 66.3302 68.9883C67.8088 68.9883 69.0021 70.1816 69.0021 71.6602C69.0021 73.1389 67.8088 74.3322 66.3302 74.3322ZM66.3302 70.3372C65.5908 70.3372 64.9942 70.9339 64.9942 71.6732C64.9942 72.4126 65.5908 73.0092 66.3302 73.0092C67.0695 73.0092 67.6662 72.4126 67.6662 71.6732C67.6662 70.9339 67.0695 70.3372 66.3302 70.3372Z" fill="#2F4382"/>
<path d="M52.995 65.6677C50.79 65.6677 49 63.8777 49 61.6727C49 59.4677 50.79 57.6777 52.995 57.6777C55.2 57.6777 56.99 59.4677 56.99 61.6727C56.99 63.8777 55.2 65.6677 52.995 65.6677ZM52.995 59.0007C51.5293 59.0007 50.323 60.1941 50.323 61.6727C50.323 63.1514 51.5163 64.3447 52.995 64.3447C54.4736 64.3447 55.6669 63.1514 55.6669 61.6727C55.6669 60.207 54.4736 59.0007 52.995 59.0007Z" fill="#438FD2"/>
<path d="M71.0001 59.6623C69.5344 59.6623 68.3281 58.469 68.3281 56.9903C68.3281 55.5117 69.5214 54.3184 71.0001 54.3184C72.4788 54.3184 73.6721 55.5117 73.6721 56.9903C73.6721 58.469 72.4788 59.6623 71.0001 59.6623ZM71.0001 55.6673C70.2608 55.6673 69.6641 56.264 69.6641 57.0033C69.6641 57.7426 70.2608 58.3393 71.0001 58.3393C71.7394 58.3393 72.3361 57.7426 72.3361 57.0033C72.3361 56.264 71.7394 55.6673 71.0001 55.6673Z" fill="#438FD2"/>
<path d="M52.3612 53.0217C51.7516 53.0217 51.2068 52.7493 50.8436 52.2564L50.3507 51.5949C50.1821 51.3614 49.9357 51.3614 49.8449 51.3744C49.7541 51.3744 49.5076 51.4263 49.3779 51.6857C49.2093 52.0099 48.8072 52.1526 48.4829 51.984C48.1587 51.8154 48.016 51.4133 48.1846 51.089C48.4829 50.4924 49.0536 50.1032 49.7152 50.0384C50.3767 49.9735 51.0122 50.2589 51.4143 50.7907L51.9072 51.4522C52.011 51.5949 52.1796 51.6857 52.3612 51.6857C52.5428 51.6857 52.7114 51.6078 52.8152 51.4522L53.308 50.7907C53.7101 50.2589 54.3457 49.9735 55.0072 50.0384C55.6687 50.1032 56.2394 50.4924 56.5377 51.089C56.6415 51.2836 56.8231 51.4003 57.0566 51.4003C57.1603 51.4003 57.3679 51.3744 57.5105 51.1668L57.7959 50.7907C58.198 50.2589 58.8206 49.9735 59.4951 50.0384C60.1566 50.1032 60.7273 50.4924 61.0256 51.089C61.1294 51.2836 61.311 51.4003 61.5444 51.4003C61.6482 51.4003 61.8557 51.3744 61.9984 51.1668L62.2838 50.7907C62.6859 50.2589 63.3214 49.9735 63.97 50.0384C64.6315 50.1032 65.2022 50.4924 65.5005 51.089C65.6043 51.2836 65.7859 51.4003 66.0193 51.4003C66.1231 51.4003 66.3306 51.3744 66.4733 51.1668C66.6938 50.8685 67.1089 50.8166 67.4072 51.0371C67.7055 51.2576 67.7574 51.6727 67.5369 51.971C67.1737 52.4509 66.616 52.7363 66.0193 52.7363C65.293 52.7363 64.6315 52.3342 64.3072 51.6857C64.1775 51.4263 63.944 51.3744 63.8532 51.3744C63.7624 51.3744 63.516 51.3744 63.3474 51.5949L63.062 51.971C62.6988 52.4509 62.1411 52.7363 61.5444 52.7363C60.8181 52.7363 60.1695 52.3342 59.8453 51.6857C59.7156 51.4263 59.4821 51.3873 59.3783 51.3744C59.2875 51.3744 59.0411 51.3744 58.8725 51.5949L58.5871 51.971C58.2239 52.4509 57.6662 52.7363 57.0695 52.7363C56.3432 52.7363 55.6817 52.3342 55.3574 51.6857C55.2277 51.4263 54.9942 51.3873 54.9034 51.3744C54.8126 51.3744 54.5662 51.3744 54.3976 51.5949L53.9047 52.2564C53.5415 52.7363 52.9838 53.0217 52.3871 53.0217H52.3612Z" fill="#2F4382"/>
<path d="M54.3324 70.7134C53.9951 70.7134 53.7098 70.454 53.6708 70.1167C53.606 69.559 53.8395 69.0272 54.2805 68.69C54.7215 68.3527 55.2922 68.2619 55.811 68.4565L56.3817 68.677C56.4855 68.7159 56.5633 68.677 56.6022 68.6511C56.6411 68.6251 56.706 68.5603 56.719 68.4565L56.7579 67.8469C56.7968 67.2891 57.1211 66.8092 57.601 66.5498C58.0939 66.2904 58.6646 66.3034 59.1445 66.5887C59.1834 66.6147 59.2353 66.6276 59.2742 66.6276C59.3909 66.6276 59.5206 66.5498 59.5336 66.3942L59.5596 66.0439C59.5985 65.4862 59.9227 65.0063 60.4156 64.7469C60.9085 64.4875 61.4792 64.5004 61.9591 64.7858C61.998 64.8117 62.037 64.8247 62.0888 64.8247C62.2056 64.8247 62.3353 64.7469 62.3483 64.5912L62.3742 64.241C62.4131 63.6833 62.7374 63.2034 63.2173 62.9439C63.7102 62.6845 64.2809 62.6975 64.7608 62.9829C64.7997 63.0088 64.8516 63.0218 64.8905 63.0218C65.0073 63.0218 65.137 62.9439 65.1499 62.7883C65.1759 62.4251 65.5001 62.1398 65.8633 62.1657C66.2265 62.1916 66.5119 62.5159 66.4729 62.8791C66.4081 63.7092 65.7206 64.3578 64.8905 64.3578C64.6052 64.3578 64.3328 64.2799 64.0863 64.1372C63.9826 64.0724 63.8788 64.1113 63.8399 64.1372C63.788 64.1632 63.7102 64.2151 63.7102 64.3448L63.6842 64.695C63.6194 65.5251 62.9319 66.1737 62.1018 66.1737C61.8165 66.1737 61.5441 66.0958 61.2976 65.9531C61.1939 65.8883 61.0901 65.9272 61.0512 65.9531C60.9993 65.9791 60.9215 66.031 60.9085 66.1607L60.8826 66.5109C60.8177 67.341 60.1303 67.9895 59.3001 67.9895C59.0148 67.9895 58.7424 67.9117 58.496 67.769C58.3922 67.7042 58.3014 67.7431 58.2495 67.769C58.1976 67.795 58.1198 67.8469 58.1198 67.9766L58.0809 68.5862C58.042 69.0921 57.7826 69.5331 57.3545 69.8054C56.9265 70.0778 56.4206 70.1297 55.9407 69.9611L55.37 69.7406C55.2533 69.7017 55.1625 69.7406 55.1236 69.7795C55.0847 69.8184 55.0198 69.8833 55.0328 70.013C55.0717 70.3762 54.8123 70.7134 54.4361 70.7523C54.4102 70.7523 54.3842 70.7523 54.3583 70.7523L54.3324 70.7134Z" fill="#438FD2"/>
<path d="M60.3369 80.3371C59.416 80.3371 58.4821 80.2723 57.5871 80.1556C54.0461 79.6886 50.6607 78.2878 47.8072 76.1087C46.3415 74.9932 45.0314 73.6832 43.916 72.2175C41.7369 69.3639 40.336 65.9786 39.8691 62.4376C39.7524 61.5296 39.6875 60.6087 39.6875 59.6878C39.6875 58.7668 39.7524 57.833 39.8691 56.938C40.336 53.397 41.7369 50.0116 43.916 47.1581C45.0314 45.6924 46.3415 44.3823 47.8072 43.2669C50.6607 41.0878 54.0461 39.6869 57.5871 39.22C59.39 38.9735 61.2837 38.9735 63.0996 39.22C66.6406 39.6869 70.026 41.0878 72.8796 43.2669C74.3452 44.3823 75.6553 45.6924 76.7708 47.1581C78.9498 50.0116 80.3507 53.397 80.8176 56.938C80.9344 57.8459 80.9992 58.7668 80.9992 59.6878C80.9992 60.6087 80.9344 61.5426 80.8176 62.4376C80.3507 65.9786 78.9498 69.3639 76.7708 72.2175C75.6553 73.6832 74.3452 74.9932 72.8796 76.1087C70.026 78.2878 66.6406 79.6886 63.0996 80.1556C62.1917 80.2723 61.2708 80.3371 60.3498 80.3371H60.3369ZM60.3369 40.3355C59.4678 40.3355 58.5988 40.3874 57.7557 40.5041C54.4352 40.9451 51.2703 42.2551 48.6114 44.2915C47.2365 45.3422 46.0172 46.5614 44.9666 47.9363C42.9302 50.6083 41.6201 53.7731 41.1791 57.0807C41.0624 57.9238 41.0105 58.7928 41.0105 59.6618C41.0105 60.5309 41.0624 61.3999 41.1791 62.243C41.6201 65.5635 42.9302 68.7284 44.9666 71.3874C46.0172 72.7622 47.2365 73.9815 48.6114 75.0321C51.2833 77.0685 54.4482 78.3786 57.7557 78.8196C59.4419 79.053 61.2189 79.053 62.918 78.8196C66.2385 78.3786 69.4034 77.0685 72.0624 75.0321C73.4373 73.9815 74.6565 72.7622 75.7072 71.3874C77.7436 68.7154 79.0536 65.5505 79.4946 62.243C79.6114 61.3999 79.6632 60.5309 79.6632 59.6618C79.6632 58.7928 79.6114 57.9238 79.4946 57.0807C79.0536 53.7602 77.7436 50.5953 75.7072 47.9363C74.6565 46.5614 73.4373 45.3422 72.0624 44.2915C69.3904 42.2551 66.2256 40.9451 62.918 40.5041C62.0749 40.3874 61.2059 40.3355 60.3369 40.3355Z" fill="#438FD2"/>
</g>
<defs>
<clipPath id="clip0_401_1503">
<rect width="62" height="62" fill="white" transform="translate(29 29)"/>
</clipPath>
</defs>
</svg>
