<svg width="120" height="120" viewBox="0 0 120 120" fill="none" xmlns="http://www.w3.org/2000/svg">
<path d="M0 8C0 3.58172 3.58172 0 8 0H112C116.418 0 120 3.58172 120 8V112C120 116.418 116.418 120 112 120H8C3.58172 120 0 116.418 0 112V8Z" fill="#E8EDF3"/>
<g clip-path="url(#clip0_401_1577)">
<path d="M64.6152 59.3516L77.0329 71.8677" stroke="#A9D1EA" stroke-width="2" stroke-linecap="round" stroke-linejoin="round"/>
<path d="M74.782 74.1281L62.3643 61.6209C61.1234 60.3711 61.1234 58.3446 62.3643 57.0858C63.6051 55.836 65.6171 55.836 66.8669 57.0858L79.2846 69.593C80.5255 70.8428 80.5255 72.8693 79.2846 74.1281C78.6642 74.753 77.8487 75.0655 77.0333 75.0655C76.2179 75.0655 75.4024 74.753 74.782 74.1281Z" fill="white" stroke="#A9D1EA" stroke-width="2" stroke-linecap="round" stroke-linejoin="round"/>
<path d="M67.3984 69.7434L82.1738 84.6252C84.2479 86.7232 87.6249 86.7232 89.7078 84.6252C91.7907 82.5273 91.7907 79.1349 89.7078 77.037L74.9412 62.1641L67.3984 69.7434Z" fill="#D2E5F0" stroke="#438FD2" stroke-width="2"/>
<path d="M65.9793 35.9097C72.7864 42.7659 72.7864 53.8805 65.9793 60.7366C59.1721 67.5928 48.1371 67.5928 41.33 60.7366C34.5228 53.8805 34.5228 42.7659 41.33 35.9097C48.1371 29.0535 59.1721 29.0535 65.9793 35.9097Z" fill="white" stroke="#2F4382" stroke-width="2"/>
<path d="M53.6588 61.8699C50.0691 61.8699 46.6832 60.4593 44.1483 57.8972C38.9011 52.6122 38.9011 44.0241 44.1483 38.7391C46.6921 36.1859 50.0691 34.7754 53.6588 34.7754C57.2485 34.7754 60.6343 36.1859 63.1693 38.7391C65.7131 41.3013 67.1135 44.7026 67.1135 48.3182C67.1135 51.9337 65.7131 55.335 63.1693 57.8972C60.6255 60.4593 57.2485 61.8699 53.6588 61.8699Z" stroke="#438FD2" stroke-width="2"/>
<path d="M53.66 60.0852C50.5401 60.0852 47.6063 58.8621 45.3993 56.6392C40.8435 52.0506 40.8435 44.5873 45.3993 39.9987C47.6063 37.7758 50.5312 36.5527 53.6512 36.5527C56.7711 36.5527 59.7049 37.7758 61.9031 39.9987C64.1101 42.2216 65.3244 45.1676 65.3244 48.319C65.3244 51.4703 64.1101 54.4163 61.9031 56.6303C59.6961 58.8532 56.7622 60.0763 53.6423 60.0763L53.66 60.0852Z" stroke="white" stroke-width="2"/>
<path d="M49.9805 75.6367H54.0311" stroke="#848EAE" stroke-width="2"/>
<path d="M49.9805 80.5273H54.0311" stroke="#848EAE" stroke-width="2"/>
<path d="M49.9805 85.4199H62.93" stroke="#848EAE" stroke-width="2"/>
<path d="M32.4365 79.2864C32.4365 75.3403 35.4122 72.1445 39.0817 72.1445C42.7512 72.1445 45.7268 75.3403 45.7268 79.2864C45.7268 83.2325 42.7512 86.4283 39.0817 86.4283C35.4122 86.4283 32.4316 83.2325 32.4316 79.2864H32.4365Z" fill="#2F4382" stroke="#2F4382" stroke-width="2"/>
<path d="M38.6365 89.1072V79.2871H28.8867C28.8867 84.7116 33.2509 89.1072 38.6365 89.1072Z" fill="#D2E5F0" stroke="#438FD2" stroke-width="2"/>
<path d="M59.909 47.1484H57.25V53.3976H59.909V47.1484Z" fill="#D2E5F0" stroke="#438FD2" stroke-width="2"/>
<path d="M54.5907 41.793H51.9316V53.3985H54.5907V41.793Z" fill="#D2E5F0" stroke="#438FD2" stroke-width="2"/>
<path d="M49.2723 44.4707H46.6133V53.398H49.2723V44.4707Z" fill="#D2E5F0" stroke="#438FD2" stroke-width="2"/>
<path d="M76.6016 44.873H78.5131" stroke="#2F4382" stroke-width="3"/>
<path d="M80.3398 44.873H82.2448" stroke="#2F4382" stroke-width="3"/>
<path d="M84.0781 44.873H85.9831" stroke="#2F4382" stroke-width="3"/>
</g>
<defs>
<clipPath id="clip0_401_1577">
<rect width="64" height="60" fill="white" transform="translate(28 30)"/>
</clipPath>
</defs>
</svg>
