<svg width="345" height="60" viewBox="0 0 345 60" fill="none" xmlns="http://www.w3.org/2000/svg">
<mask id="mask0_413_2082" style="mask-type:luminance" maskUnits="userSpaceOnUse" x="0" y="0" width="285" height="60">
<path d="M284.24 0H0V59.72H284.24V0Z" fill="white"/>
</mask>
<g mask="url(#mask0_413_2082)">
<path fill-rule="evenodd" clip-rule="evenodd" d="M124.5 9.44039H127.04V20.8904H129.59V9.46039V7.15039H124.5V9.44039Z" fill="#231815"/>
<path fill-rule="evenodd" clip-rule="evenodd" d="M87.33 20.8895H89.67V5.51953H87.42C87.2 10.4495 87.39 15.7895 87.33 20.8795" fill="#231815"/>
<path fill-rule="evenodd" clip-rule="evenodd" d="M115.999 8.9893C115.789 9.6193 115.959 10.6393 115.909 11.4293C117.529 11.6493 119.109 11.0993 120.409 11.5193C121.949 12.0193 122.559 15.6493 121.629 17.3293C120.919 18.6093 117.399 18.9993 115.919 18.0793C114.439 17.1593 114.889 13.9993 114.889 11.4293V5.5293H112.639C112.529 5.5493 112.539 5.6793 112.549 5.8093C112.949 9.8793 112.009 13.5193 112.549 17.0493C112.819 18.8793 114.539 20.5293 116.289 20.7993C120.099 21.3793 123.399 20.2993 124.159 17.5193C124.499 16.2593 124.639 13.4493 123.969 11.8093C122.929 9.2493 120.049 8.7193 116.009 8.9993" fill="#231815"/>
<path fill-rule="evenodd" clip-rule="evenodd" d="M97.819 9.93039C97.339 9.22039 96.749 8.63039 96.039 8.15039C95.099 9.23039 94.199 9.99039 92.859 11.3304C92.069 12.1204 90.109 13.6104 90.149 14.6104C90.179 15.6504 92.249 17.1704 92.959 17.8904C94.119 19.0504 95.099 19.8904 96.049 20.9804C96.339 20.6504 97.849 19.7404 97.829 19.2904C97.829 19.0804 96.919 18.4704 96.609 18.1704C95.419 16.9804 93.929 15.5004 93.139 14.5204C94.759 13.0404 96.209 11.4004 97.819 9.93039Z" fill="#231815"/>
<path fill-rule="evenodd" clip-rule="evenodd" d="M103.181 9.08009C100.641 9.36009 99.4405 10.9001 99.0605 11.9801C98.3605 13.9301 98.6605 16.4101 98.9705 17.5101C99.3105 18.6901 100.261 19.8901 101.411 20.4101C102.951 21.1101 106.121 21.1701 107.781 20.5101C108.941 20.0401 110.051 18.7901 110.401 17.7001C110.911 16.1401 110.781 13.6201 110.491 12.4501C109.741 9.40009 106.711 8.69009 103.181 9.08009ZM108.141 16.8501C108.051 18.6101 103.681 18.8701 102.331 18.1601C100.451 17.1801 100.581 11.7401 103.271 11.4201C107.361 10.9301 108.811 12.2201 108.141 16.8501Z" fill="#231815"/>
<path fill-rule="evenodd" clip-rule="evenodd" d="M136.22 18.2406C134.53 17.7506 134.1 15.0306 134.72 12.9006C135.44 10.4406 141.77 10.5206 141.65 13.5606H143.99C143.81 9.63055 140.72 8.44055 136.21 8.97055C135.79 9.02055 135.27 9.13055 134.8 9.35055C131.68 10.7906 131.03 17.0306 133.58 19.4706C136.3 22.0706 144.36 21.3206 143.98 16.1006H141.54C141.7 18.4506 138.41 18.8906 136.2 18.2506" fill="#231815"/>
<path fill-rule="evenodd" clip-rule="evenodd" d="M127.42 1.89037C128.15 1.80037 129.03 2.16037 129.35 3.05037C130.41 6.03037 125.4 6.40037 125.69 3.44037C125.77 2.69037 126.3 2.04037 127.43 1.90037" fill="#EE7500"/>
<path d="M11.3405 36.7705C11.2905 36.6205 11.2405 36.4805 11.2005 36.3305C11.0205 35.7405 10.4305 35.3805 9.82054 35.4805L8.61054 35.6805C8.23054 35.7405 7.90054 35.9705 7.73054 36.3105C7.16054 37.4305 6.10054 38.2905 4.76054 38.5105C2.22054 38.9305 -0.159456 36.9105 0.0105438 34.1705C0.100544 32.6705 1.08054 31.3005 2.47054 30.7205C4.14054 30.0305 5.84054 30.4805 6.95054 31.5905C7.22054 31.8605 7.61054 31.9605 7.99054 31.9005L9.19054 31.7005C9.81054 31.6005 10.2405 31.0505 10.2305 30.4205C10.1905 28.0405 10.5905 25.6805 11.4005 23.4105C11.6205 22.8005 11.3605 22.1205 10.7805 21.8405L8.42054 20.7105C8.06054 20.5405 7.65054 20.5605 7.30054 20.7405C6.45054 21.1805 5.35054 21.1105 4.51054 20.3705C3.89054 19.8305 3.60054 18.9605 3.75054 18.1505C4.07054 16.4805 5.81054 15.6705 7.23054 16.3505C7.95054 16.7005 8.43054 17.3405 8.57054 18.0705C8.65054 18.4605 8.89054 18.8105 9.25054 18.9805L11.6005 20.1005C12.1605 20.3705 12.8505 20.1905 13.1805 19.6505C14.4805 17.5105 16.1605 15.6505 18.1305 14.1505C18.6205 13.7805 18.7305 13.0905 18.4205 12.5505L15.9305 8.27048C15.7305 7.93048 15.3805 7.70048 14.9805 7.67048C13.6805 7.56048 12.4805 6.71048 12.0205 5.28048C11.6205 4.02048 12.0205 2.59048 13.0305 1.72048C14.7005 0.280481 17.1705 0.750481 18.2305 2.56048C18.8105 3.56048 18.8205 4.74048 18.3705 5.71048C18.2005 6.06048 18.2405 6.48048 18.4405 6.82048L20.9305 11.0905C21.2405 11.6305 21.9105 11.8505 22.4905 11.6005C22.8905 11.4205 23.3005 11.2605 23.7205 11.1105C26.2805 10.2205 28.9305 9.87048 31.5505 10.0305C32.1805 10.0705 32.7405 9.66048 32.8705 9.05048L33.1305 7.85048C33.2105 7.47048 33.1105 7.07048 32.8505 6.78048C31.8205 5.62048 31.4505 3.91048 32.2205 2.29048C32.8505 0.940481 34.2605 0.0304813 35.7605 0.000481256C38.5105 -0.0395187 40.4205 2.42048 39.8805 4.94048C39.6005 6.26048 38.7005 7.29048 37.5605 7.80048C37.2105 7.96048 36.9505 8.28048 36.8705 8.66048L36.6205 9.85048C36.4905 10.4505 36.8205 11.0605 37.3905 11.2705C37.9705 11.4805 38.5405 11.7105 39.0905 11.9805C44.4105 14.5405 48.3205 19.3305 49.8105 25.0005C50.0605 25.9605 49.4205 26.9205 48.4505 27.0805L44.8605 27.6905C44.0105 27.8305 43.2005 27.3005 42.9605 26.4705C41.9205 22.9005 39.4205 19.9105 36.0505 18.2905C32.8905 16.7705 29.3305 16.5705 26.0105 17.7305C22.6905 18.8905 20.0305 21.2705 18.5005 24.4205C16.9805 27.5705 16.7805 31.1405 17.9405 34.4605C19.1005 37.7805 21.4805 40.4405 24.6305 41.9705C28.1505 43.6705 32.2105 43.7005 35.7305 42.1105C36.5205 41.7605 37.4405 42.0305 37.8905 42.7705L39.7505 45.9005C40.2505 46.7505 39.9405 47.8605 39.0505 48.2905C38.3705 48.6205 37.6705 48.9005 36.9605 49.1505C36.3705 49.3605 36.0405 49.9905 36.1805 50.6005L36.4005 51.5305C36.4905 51.9205 36.7705 52.2205 37.1305 52.3805C38.0105 52.7705 38.6405 53.6605 38.5905 54.7805C38.5505 55.6005 38.0605 56.3705 37.3405 56.7605C35.8405 57.5705 34.1105 56.7205 33.7505 55.1805C33.5705 54.4005 33.7705 53.6205 34.2405 53.0505C34.5005 52.7405 34.6105 52.3405 34.5205 51.9505L34.3105 51.0605C34.1605 50.4405 33.5805 50.0105 32.9505 50.0905C31.4905 50.2805 30.0205 50.3105 28.5605 50.1705C27.9305 50.1105 27.3605 50.5705 27.2405 51.1905L26.5905 54.5505C26.5205 54.9405 26.6405 55.3305 26.9005 55.6305C27.5405 56.3405 27.7505 57.4205 27.2505 58.4205C26.8805 59.1505 26.1205 59.6605 25.3005 59.7105C23.6005 59.8305 22.3805 58.3405 22.6805 56.8005C22.8305 56.0205 23.3405 55.3905 24.0105 55.0605C24.3705 54.8805 24.6405 54.5705 24.7205 54.1705L25.3705 50.8205C25.4905 50.2005 25.1405 49.5805 24.5405 49.4005C23.5405 49.1005 22.5605 48.7205 21.6105 48.2605C19.2705 47.1305 17.2205 45.5905 15.5105 43.7305L10.7605 47.4905C10.4605 47.7305 10.2705 48.0905 10.2905 48.4805C10.3805 49.7905 9.71054 51.1305 8.35054 51.7905C7.16054 52.3705 5.68054 52.1605 4.68054 51.3005C3.01054 49.8505 3.14054 47.3405 4.78054 46.0405C5.69054 45.3205 6.85054 45.1405 7.88054 45.4605C8.25054 45.5705 8.66054 45.4805 8.96054 45.2405L12.8305 42.1705C13.3105 41.7905 13.4505 41.1005 13.1405 40.5705C12.4205 39.3805 11.8005 38.1105 11.3305 36.7705" fill="#425BA8"/>
<path d="M35.3496 35.8715L35.3196 35.8915C35.0196 36.1215 34.8496 36.4715 34.8296 36.8415C34.7996 37.5215 34.4096 38.1715 33.6996 38.5015C33.0296 38.8115 32.1996 38.6815 31.6496 38.1915C30.7096 37.3515 30.8096 35.9315 31.7596 35.2115C32.2296 34.8615 32.8096 34.7515 33.3396 34.8715C33.7196 34.9615 34.1096 34.9115 34.4296 34.6715C34.9296 34.2915 35.0996 33.6015 34.7796 33.0615C34.4196 32.4415 34.0996 31.7915 33.8196 31.1315C33.5796 30.5615 32.9896 30.2415 32.3896 30.3915L29.2996 31.2115C28.9196 31.3115 28.6296 31.5815 28.4696 31.9415C28.1596 32.6715 27.5296 33.2615 26.7096 33.4815C25.1296 33.9015 23.5196 32.8115 23.3696 31.1015C23.2796 30.0015 23.9296 28.9215 24.9396 28.4715C25.8996 28.0515 26.9196 28.2315 27.6596 28.8015C27.9596 29.0415 28.3596 29.1215 28.7296 29.0215L31.7796 28.2215C32.3696 28.0615 32.7696 27.5015 32.6996 26.9015C32.6496 26.4915 32.6096 26.0715 32.5896 25.6515C32.5396 24.6515 33.4096 23.8415 34.3996 23.9115L37.0296 24.0915C37.8896 24.1515 38.5296 24.8515 38.5996 25.7015C38.8696 29.1715 40.9096 32.2815 44.0696 33.8915C46.4596 35.1115 49.1896 35.3215 51.7496 34.4815C54.3096 33.6515 56.3896 31.8715 57.6096 29.4715C58.8296 27.0815 59.0396 24.3515 58.2096 21.7915C57.3696 19.2315 55.5996 17.1515 53.2096 15.9315C52.2996 15.4715 51.3396 15.1515 50.3596 14.9815C49.5096 14.8315 48.8796 14.1315 48.8896 13.2715L48.9396 10.6315C48.9596 9.63145 49.8396 8.84145 50.8296 8.98145C52.5996 9.22145 54.3096 9.76145 55.9296 10.5815C56.2496 10.7415 56.5596 10.9215 56.8596 11.1015C57.3896 11.4315 58.0796 11.3115 58.4696 10.8215L60.4496 8.35145C60.6896 8.05145 60.7796 7.66145 60.6796 7.29145C60.4596 6.39145 60.6996 5.38145 61.4796 4.67145C62.2996 3.93145 63.5496 3.78145 64.5196 4.31145C66.0196 5.13145 66.3596 7.05145 65.3396 8.32145C64.7996 8.99145 64.0096 9.33145 63.2096 9.31145C62.8196 9.31145 62.4496 9.46145 62.1996 9.77145L60.2296 12.2315C59.8496 12.7115 59.8596 13.4015 60.2796 13.8415C60.8596 14.4615 61.3996 15.1115 61.8796 15.8215C62.2296 16.3315 62.9196 16.4915 63.4696 16.2015L64.6496 15.5815C64.9796 15.4015 65.1996 15.0815 65.2796 14.7115C65.4196 14.0515 65.9096 13.4615 66.6596 13.2515C67.3696 13.0515 68.1696 13.3015 68.6296 13.8715C69.4296 14.8415 69.0996 16.2415 68.0496 16.7915C67.5296 17.0615 66.9496 17.0815 66.4396 16.8815C66.0796 16.7315 65.6796 16.7215 65.3396 16.9015L64.1696 17.5215C63.6096 17.8215 63.3696 18.4915 63.5996 19.0915C63.7096 19.3615 63.8096 19.6415 63.8996 19.9315C64.5496 21.9215 64.7896 23.9715 64.6496 26.0015C64.6096 26.6015 65.0296 27.1215 65.6096 27.2615L65.8596 27.3215C66.2296 27.4015 66.6096 27.3215 66.9096 27.0815C67.7796 26.3815 68.9896 26.1415 70.1496 26.6215C71.3596 27.1315 72.1596 28.3915 72.0896 29.6915C71.9896 31.7415 70.0896 33.1115 68.1796 32.6715C67.1896 32.4415 66.4196 31.7815 66.0196 30.9215C65.8596 30.5715 65.5496 30.3215 65.1796 30.2415L64.9396 30.1815C64.3396 30.0415 63.7396 30.3615 63.5096 30.9315C63.3396 31.3615 63.1596 31.7815 62.9496 32.1915C62.2896 33.4815 61.4696 34.6515 60.5296 35.6915C60.1096 36.1515 60.1296 36.8515 60.5396 37.3215L61.8396 38.8115C62.0896 39.0915 62.4496 39.2315 62.8296 39.2215C63.5096 39.2015 64.1896 39.5415 64.5696 40.2215C64.9296 40.8615 64.8696 41.7015 64.4196 42.2815C63.6596 43.2815 62.2296 43.2915 61.4396 42.4015C61.0496 41.9615 60.8996 41.3915 60.9796 40.8615C61.0396 40.4715 60.9596 40.0815 60.6996 39.7915L59.3996 38.3115C58.9896 37.8415 58.2896 37.7415 57.7796 38.1015C56.5096 38.9815 55.1096 39.6915 53.5896 40.1915C53.3496 40.2715 53.1196 40.3415 52.8796 40.4015C52.2996 40.5615 51.9296 41.1315 51.9896 41.7215L52.0196 41.9815C52.0596 42.3615 52.2696 42.6915 52.5996 42.8915C53.5396 43.4815 54.1696 44.5415 54.0996 45.8015C54.0196 47.1115 53.0896 48.2815 51.8396 48.6515C49.8696 49.2315 47.9496 47.8915 47.7396 45.9415C47.6296 44.9215 48.0096 43.9715 48.6996 43.3115C48.9696 43.0515 49.0896 42.6815 49.0496 42.3115L49.0196 42.0615C48.9496 41.4515 48.4496 40.9815 47.8496 40.9615C47.3296 40.9415 46.8096 40.9015 46.2896 40.8215C44.5896 40.5715 42.9196 40.0415 41.3396 39.2415C39.6696 38.3915 38.2096 37.2815 36.9696 35.9715C36.5396 35.5215 35.8396 35.4715 35.3396 35.8515" fill="#32B6A0"/>
</g>
<g clip-path="url(#clip0_413_2082)">
<path d="M87 50.714V34.1035H89.64V50.714H87Z" fill="#231815"/>
<path d="M93.2102 44.7107V50.7142H90.6602V38.7814H93.1202V40.3724C93.4102 39.8209 93.8402 39.3648 94.4202 39.0147C95.0002 38.6647 95.6102 38.4844 96.2702 38.4844C97.5902 38.4844 98.6502 38.9617 99.4602 39.9269C100.26 40.8922 100.67 42.1756 100.67 43.7772V50.7036H98.1202V44.4561C98.1202 43.1833 97.9202 42.2498 97.5302 41.6346C97.1402 41.03 96.5402 40.7224 95.7202 40.7224C95.3102 40.7224 94.9002 40.8709 94.5002 41.1573C94.1002 41.4543 93.7902 41.8468 93.5802 42.3559C93.3302 42.9393 93.2102 43.7242 93.2102 44.7V44.7107Z" fill="#231815"/>
<path d="M101.95 36.4154C101.95 35.2911 102.24 34.4425 102.83 33.8698C103.42 33.297 104.32 33 105.53 33H106.77V35.1744H106.01C105.53 35.1744 105.17 35.2805 104.91 35.4926C104.65 35.7048 104.52 36.1078 104.52 36.6912V38.7914H106.77V40.9658H104.52V50.7242H101.94V40.9552H100.01V38.7808H101.94V36.4154H101.95Z" fill="#231815"/>
<path d="M108.23 45.9296C108.38 46.6615 108.7 47.2661 109.2 47.7328C109.92 48.4329 110.87 48.7829 112.05 48.7829C113.29 48.7829 114.46 48.295 115.55 47.3191L116.31 49.3238C115.1 50.4482 113.66 51.0103 111.99 51.0103C110.09 51.0103 108.54 50.4376 107.36 49.292C106.18 48.1465 105.58 46.6403 105.58 44.7947C105.58 42.9491 106.11 41.4429 107.17 40.2655C108.23 39.0881 109.61 38.4941 111.31 38.4941C113.01 38.4941 114.37 39.0775 115.44 40.2549C116.51 41.4217 117.04 42.8854 117.04 44.625C117.04 45.1023 117 45.5372 116.92 45.9402H108.25L108.23 45.9296ZM108.18 43.8082H114.44C114.41 43.0233 114.1 42.3126 113.52 41.6762C112.94 41.0292 112.19 40.711 111.29 40.711C110.39 40.711 109.61 41.061 109.01 41.7611C108.56 42.2808 108.29 42.9597 108.18 43.8082Z" fill="#231815"/>
<path d="M116.279 44.7629C116.279 43.0445 116.889 41.5596 118.109 40.3398C119.329 39.1093 120.869 38.4941 122.739 38.4941C124.209 38.4941 125.589 38.9927 126.879 39.9791L126.049 42.1005C124.929 41.1883 123.829 40.7322 122.739 40.7322C121.589 40.7322 120.649 41.1141 119.929 41.8884C119.209 42.6627 118.849 43.6173 118.849 44.7522C118.849 45.8872 119.209 46.8206 119.929 47.5949C120.649 48.3692 121.589 48.7511 122.739 48.7511C123.889 48.7511 124.959 48.295 126.099 47.3828L126.929 49.5042C125.689 50.5012 124.289 50.9891 122.739 50.9891C120.869 50.9891 119.319 50.3739 118.109 49.1435C116.889 47.9131 116.279 46.4494 116.279 44.7416V44.7629Z" fill="#231815"/>
<path d="M130.379 34.9297V38.78H132.819V40.9544H130.379V47.0322C130.379 47.6156 130.509 48.0187 130.769 48.2308C131.029 48.4429 131.399 48.549 131.869 48.549H132.809V50.7234H131.269C130.059 50.7234 129.179 50.4371 128.629 49.8537C128.079 49.2809 127.799 48.4217 127.799 47.308V40.965H125.869V38.7906H127.799V34.9297H130.379Z" fill="#231815"/>
<path d="M135.811 35.0473C135.811 35.5034 135.651 35.8958 135.331 36.2459C135.011 36.5853 134.621 36.755 134.181 36.755C133.741 36.755 133.351 36.5853 133.031 36.2459C132.711 35.9065 132.551 35.5034 132.551 35.0473C132.551 34.5912 132.711 34.1669 133.031 33.8275C133.351 33.4881 133.741 33.3184 134.181 33.3184C134.621 33.3184 135.011 33.4881 135.331 33.8275C135.651 34.1669 135.811 34.5806 135.811 35.0473ZM132.911 50.7138V38.7809H135.491V50.7138H132.911Z" fill="#231815"/>
<path d="M141.649 51.0006C140.009 51.0006 138.609 50.396 137.439 49.1974C136.269 47.9988 135.689 46.5138 135.689 44.7531C135.689 42.9923 136.269 41.4967 137.439 40.2876C138.609 39.089 140.009 38.4844 141.649 38.4844C143.289 38.4844 144.709 39.089 145.869 40.2876C147.029 41.4861 147.609 42.9817 147.609 44.7531C147.609 46.5244 147.029 47.9882 145.869 49.1974C144.709 50.396 143.299 51.0006 141.649 51.0006ZM141.649 48.7519C142.579 48.7519 143.379 48.3701 144.039 47.617C144.699 46.8639 145.029 45.9092 145.029 44.7531C145.029 43.5969 144.699 42.6423 144.039 41.8786C143.379 41.1149 142.579 40.733 141.649 40.733C140.719 40.733 139.939 41.1149 139.269 41.8786C138.599 42.6423 138.269 43.6075 138.269 44.7531C138.269 45.8986 138.599 46.8639 139.269 47.617C139.939 48.3701 140.729 48.7519 141.649 48.7519Z" fill="#231815"/>
<path d="M155.12 44.7848V38.7812H157.67V50.7141H155.21V49.123C154.9 49.7064 154.49 50.1519 153.97 50.4595C153.36 50.8201 152.72 51.0005 152.06 51.0005C150.74 51.0005 149.68 50.5231 148.87 49.5579C148.07 48.6033 147.66 47.3092 147.66 45.7076V38.7812H150.21V45.0287C150.21 46.3016 150.41 47.235 150.8 47.8502C151.19 48.4548 151.79 48.7624 152.61 48.7624C153.02 48.7624 153.43 48.6139 153.83 48.3275C154.23 48.0305 154.54 47.6381 154.75 47.1289C155 46.5455 155.12 45.7606 155.12 44.7848Z" fill="#231815"/>
<path d="M157.471 48.4973L159.081 46.7684C159.531 47.4154 160.021 47.9246 160.551 48.2852C161.071 48.6246 161.631 48.7943 162.231 48.7943C162.831 48.7943 163.301 48.6671 163.691 48.4125C164.081 48.1579 164.281 47.8291 164.281 47.426C164.281 47.023 164.091 46.6942 163.721 46.4608C163.341 46.2275 162.891 46.0047 162.351 45.8138C161.741 45.6016 161.111 45.3683 160.461 45.1031C159.601 44.7743 158.971 44.35 158.561 43.8197C158.151 43.2893 157.951 42.6953 157.951 42.0271C157.951 41.0513 158.381 40.2133 159.251 39.5239C160.121 38.8344 161.141 38.4844 162.321 38.4844C163.581 38.4844 164.611 38.8026 165.401 39.439C165.811 39.7678 166.141 40.1815 166.371 40.68L164.811 42.2923C164.601 41.921 164.351 41.6134 164.071 41.3695C163.561 40.9134 162.941 40.6906 162.211 40.6906C161.771 40.6906 161.381 40.8073 161.061 41.03C160.741 41.2528 160.581 41.5392 160.581 41.8574C160.581 42.1756 160.761 42.4832 161.121 42.7272C161.481 42.9605 162.011 43.1939 162.721 43.4272C162.981 43.5121 163.271 43.6075 163.591 43.7242C164.681 44.0955 165.511 44.5834 166.071 45.188C166.631 45.7926 166.921 46.5138 166.921 47.3624C166.921 48.3594 166.471 49.208 165.561 49.9399C164.651 50.6612 163.511 51.0218 162.131 51.0218C160.951 51.0218 159.911 50.7248 159.021 50.1414C158.421 49.7702 157.901 49.2186 157.461 48.5079L157.471 48.4973Z" fill="#231815"/>
<path d="M184.75 42.4194C184.75 44.8059 184.01 46.7894 182.52 48.3593C181.03 49.9291 179.09 50.714 176.7 50.714H171.5V34.1035H176.7C179.09 34.1035 181.03 34.8884 182.52 36.4583C184.01 38.0281 184.75 40.0116 184.75 42.4194ZM182.13 42.4194C182.13 40.5632 181.61 39.0994 180.57 38.0281C179.53 36.9568 178.11 36.4158 176.32 36.4158H174.14V48.3911H176.32C178.11 48.3911 179.53 47.8501 180.57 46.7788C181.61 45.7075 182.13 44.2544 182.13 42.4088V42.4194Z" fill="#231815"/>
<path d="M188.11 35.0473C188.11 35.5034 187.95 35.8958 187.63 36.2459C187.31 36.5853 186.92 36.755 186.48 36.755C186.04 36.755 185.65 36.5853 185.33 36.2459C185.01 35.9065 184.85 35.5034 184.85 35.0473C184.85 34.5912 185.01 34.1669 185.33 33.8275C185.65 33.4881 186.04 33.3184 186.48 33.3184C186.92 33.3184 187.31 33.4881 187.63 33.8275C187.95 34.1669 188.11 34.5806 188.11 35.0473ZM185.21 50.7138V38.7809H187.79V50.7138H185.21Z" fill="#231815"/>
<path d="M187.74 48.4973L189.35 46.7684C189.8 47.4154 190.29 47.9246 190.82 48.2852C191.34 48.6246 191.9 48.7943 192.5 48.7943C193.1 48.7943 193.57 48.6671 193.96 48.4125C194.35 48.1579 194.55 47.8291 194.55 47.426C194.55 47.023 194.36 46.6942 193.99 46.4608C193.61 46.2275 193.16 46.0047 192.62 45.8138C192.01 45.6016 191.38 45.3683 190.73 45.1031C189.87 44.7743 189.24 44.35 188.83 43.8197C188.42 43.2893 188.22 42.6953 188.22 42.0271C188.22 41.0513 188.65 40.2133 189.52 39.5239C190.39 38.8344 191.41 38.4844 192.59 38.4844C193.85 38.4844 194.88 38.8026 195.67 39.439C196.08 39.7678 196.41 40.1815 196.64 40.68L195.08 42.2923C194.87 41.921 194.62 41.6134 194.34 41.3695C193.83 40.9134 193.21 40.6906 192.48 40.6906C192.04 40.6906 191.65 40.8073 191.33 41.03C191.01 41.2528 190.85 41.5392 190.85 41.8574C190.85 42.1756 191.03 42.4832 191.39 42.7272C191.75 42.9605 192.28 43.1939 192.99 43.4272C193.25 43.5121 193.54 43.6075 193.86 43.7242C194.95 44.0955 195.78 44.5834 196.34 45.188C196.9 45.7926 197.19 46.5138 197.19 47.3624C197.19 48.3594 196.74 49.208 195.83 49.9399C194.92 50.6612 193.78 51.0218 192.4 51.0218C191.22 51.0218 190.18 50.7248 189.29 50.1414C188.69 49.7702 188.17 49.2186 187.73 48.5079L187.74 48.4973Z" fill="#231815"/>
<path d="M198.961 45.9296C199.111 46.6615 199.431 47.2661 199.931 47.7328C200.651 48.4329 201.601 48.7829 202.781 48.7829C204.021 48.7829 205.191 48.295 206.281 47.3191L207.041 49.3238C205.831 50.4482 204.391 51.0103 202.721 51.0103C200.821 51.0103 199.271 50.4376 198.091 49.292C196.911 48.1465 196.311 46.6403 196.311 44.7947C196.311 42.9491 196.841 41.4429 197.901 40.2655C198.961 39.0881 200.341 38.4941 202.041 38.4941C203.741 38.4941 205.101 39.0775 206.171 40.2549C207.241 41.4217 207.771 42.8854 207.771 44.625C207.771 45.1023 207.731 45.5372 207.651 45.9402H198.981L198.961 45.9296ZM198.911 43.8082H205.171C205.141 43.0233 204.831 42.3126 204.251 41.6762C203.671 41.0292 202.921 40.711 202.021 40.711C201.121 40.711 200.341 41.061 199.741 41.7611C199.291 42.2808 199.021 42.9597 198.911 43.8082Z" fill="#231815"/>
<path d="M212.649 43.0021H215.319C215.319 42.2384 215.029 41.6656 214.459 41.2732C213.889 40.8807 213.059 40.6898 211.989 40.6898H211.919C210.909 40.6898 209.829 40.9443 208.679 41.4429L208.039 39.3215C209.219 38.7805 210.519 38.5047 211.949 38.4941H211.999C213.889 38.4941 215.329 38.8866 216.349 39.6503C217.359 40.4246 217.869 41.6444 217.869 43.3203V50.7134H215.429V49.3981C214.949 49.9072 214.369 50.2997 213.669 50.5861C212.969 50.8725 212.259 51.0103 211.539 51.0103C210.209 51.0103 209.119 50.6285 208.289 49.8754C207.459 49.1223 207.039 48.1889 207.039 47.0858C207.039 45.866 207.559 44.8583 208.599 44.0628C209.549 43.3627 210.909 43.0127 212.669 43.0127L212.649 43.0021ZM211.959 48.8571C212.619 48.8571 213.269 48.6874 213.919 48.348C214.559 48.0086 215.029 47.6055 215.319 47.1494V45.1235H213.039C211.749 45.1235 210.859 45.3038 210.349 45.6644C209.839 46.0569 209.589 46.5236 209.589 47.0752C209.589 47.5949 209.799 48.0192 210.219 48.3586C210.639 48.6874 211.219 48.8571 211.959 48.8571Z" fill="#231815"/>
<path d="M217.641 48.4973L219.251 46.7684C219.701 47.4154 220.191 47.9246 220.721 48.2852C221.241 48.6246 221.801 48.7943 222.401 48.7943C223.001 48.7943 223.471 48.6671 223.861 48.4125C224.251 48.1579 224.451 47.8291 224.451 47.426C224.451 47.023 224.261 46.6942 223.891 46.4608C223.511 46.2275 223.061 46.0047 222.521 45.8138C221.911 45.6016 221.281 45.3683 220.631 45.1031C219.771 44.7743 219.141 44.35 218.731 43.8197C218.321 43.2893 218.121 42.6953 218.121 42.0271C218.121 41.0513 218.551 40.2133 219.421 39.5239C220.291 38.8344 221.311 38.4844 222.491 38.4844C223.751 38.4844 224.781 38.8026 225.571 39.439C225.981 39.7678 226.311 40.1815 226.541 40.68L224.981 42.2923C224.771 41.921 224.521 41.6134 224.241 41.3695C223.731 40.9134 223.111 40.6906 222.381 40.6906C221.941 40.6906 221.551 40.8073 221.231 41.03C220.911 41.2528 220.751 41.5392 220.751 41.8574C220.751 42.1756 220.931 42.4832 221.291 42.7272C221.651 42.9605 222.181 43.1939 222.891 43.4272C223.151 43.5121 223.441 43.6075 223.761 43.7242C224.851 44.0955 225.681 44.5834 226.241 45.188C226.801 45.7926 227.091 46.5138 227.091 47.3624C227.091 48.3594 226.641 49.208 225.731 49.9399C224.821 50.6612 223.681 51.0218 222.301 51.0218C221.121 51.0218 220.081 50.7248 219.191 50.1414C218.591 49.7702 218.071 49.2186 217.631 48.5079L217.641 48.4973Z" fill="#231815"/>
<path d="M228.861 45.9296C229.011 46.6615 229.331 47.2661 229.831 47.7328C230.551 48.4329 231.501 48.7829 232.681 48.7829C233.921 48.7829 235.091 48.295 236.181 47.3191L236.941 49.3238C235.731 50.4482 234.291 51.0103 232.621 51.0103C230.721 51.0103 229.171 50.4376 227.991 49.292C226.811 48.1465 226.211 46.6403 226.211 44.7947C226.211 42.9491 226.741 41.4429 227.801 40.2655C228.861 39.0881 230.241 38.4941 231.941 38.4941C233.641 38.4941 235.001 39.0775 236.071 40.2549C237.141 41.4217 237.671 42.8854 237.671 44.625C237.671 45.1023 237.631 45.5372 237.551 45.9402H228.881L228.861 45.9296ZM228.811 43.8082H235.071C235.041 43.0233 234.731 42.3126 234.151 41.6762C233.571 41.0292 232.821 40.711 231.921 40.711C231.021 40.711 230.241 41.061 229.641 41.7611C229.191 42.2808 228.921 42.9597 228.811 43.8082Z" fill="#231815"/>
<path d="M236.66 48.4973L238.27 46.7684C238.72 47.4154 239.21 47.9246 239.74 48.2852C240.26 48.6246 240.82 48.7943 241.42 48.7943C242.02 48.7943 242.49 48.6671 242.88 48.4125C243.27 48.1579 243.47 47.8291 243.47 47.426C243.47 47.023 243.28 46.6942 242.91 46.4608C242.53 46.2275 242.08 46.0047 241.54 45.8138C240.93 45.6016 240.3 45.3683 239.65 45.1031C238.79 44.7743 238.16 44.35 237.75 43.8197C237.34 43.2893 237.14 42.6953 237.14 42.0271C237.14 41.0513 237.57 40.2133 238.44 39.5239C239.31 38.8344 240.33 38.4844 241.51 38.4844C242.77 38.4844 243.8 38.8026 244.59 39.439C245 39.7678 245.33 40.1815 245.56 40.68L244 42.2923C243.79 41.921 243.54 41.6134 243.26 41.3695C242.75 40.9134 242.13 40.6906 241.4 40.6906C240.96 40.6906 240.57 40.8073 240.25 41.03C239.93 41.2528 239.77 41.5392 239.77 41.8574C239.77 42.1756 239.95 42.4832 240.31 42.7272C240.67 42.9605 241.2 43.1939 241.91 43.4272C242.17 43.5121 242.46 43.6075 242.78 43.7242C243.87 44.0955 244.7 44.5834 245.26 45.188C245.82 45.7926 246.11 46.5138 246.11 47.3624C246.11 48.3594 245.66 49.208 244.75 49.9399C243.84 50.6612 242.7 51.0218 241.32 51.0218C240.14 51.0218 239.1 50.7248 238.21 50.1414C237.61 49.7702 237.09 49.2186 236.65 48.5079L236.66 48.4973Z" fill="#231815"/>
<path d="M263.939 42.4194C263.939 44.8059 263.199 46.7894 261.709 48.3593C260.219 49.9291 258.279 50.714 255.889 50.714H250.689V34.1035H255.889C258.279 34.1035 260.219 34.8884 261.709 36.4583C263.199 38.0281 263.939 40.0116 263.939 42.4194ZM261.319 42.4194C261.319 40.5632 260.799 39.0994 259.759 38.0281C258.719 36.9568 257.299 36.4158 255.509 36.4158H253.329V48.3911H255.509C257.299 48.3911 258.719 47.8501 259.759 46.7788C260.799 45.7075 261.319 44.2544 261.319 42.4088V42.4194Z" fill="#231815"/>
<path d="M269.18 43.0021H271.85C271.85 42.2384 271.56 41.6656 270.99 41.2732C270.42 40.8807 269.59 40.6898 268.52 40.6898H268.45C267.44 40.6898 266.36 40.9443 265.21 41.4429L264.57 39.3215C265.75 38.7805 267.05 38.5047 268.48 38.4941H268.53C270.42 38.4941 271.86 38.8866 272.88 39.6503C273.89 40.4246 274.4 41.6444 274.4 43.3203V50.7134H271.96V49.3981C271.48 49.9072 270.9 50.2997 270.2 50.5861C269.5 50.8725 268.79 51.0103 268.07 51.0103C266.74 51.0103 265.65 50.6285 264.82 49.8754C263.99 49.1223 263.57 48.1889 263.57 47.0858C263.57 45.866 264.09 44.8583 265.13 44.0628C266.08 43.3627 267.44 43.0127 269.2 43.0127L269.18 43.0021ZM268.49 48.8571C269.15 48.8571 269.8 48.6874 270.45 48.348C271.09 48.0086 271.56 47.6055 271.85 47.1494V45.1235H269.57C268.28 45.1235 267.39 45.3038 266.88 45.6644C266.37 46.0569 266.12 46.5236 266.12 47.0752C266.12 47.5949 266.33 48.0192 266.75 48.3586C267.17 48.6874 267.75 48.8571 268.49 48.8571Z" fill="#231815"/>
<path d="M278.5 34.9297V38.78H280.94V40.9544H278.5V47.0322C278.5 47.6156 278.63 48.0187 278.89 48.2308C279.15 48.4429 279.52 48.549 279.99 48.549H280.93V50.7234H279.39C278.18 50.7234 277.3 50.4371 276.75 49.8537C276.2 49.2809 275.92 48.4217 275.92 47.308V40.965H273.99V38.7906H275.92V34.9297H278.5Z" fill="#231815"/>
<path d="M285.809 43.0021H288.479C288.479 42.2384 288.189 41.6656 287.619 41.2732C287.049 40.8807 286.219 40.6898 285.149 40.6898H285.079C284.069 40.6898 282.989 40.9443 281.839 41.4429L281.199 39.3215C282.379 38.7805 283.679 38.5047 285.109 38.4941H285.159C287.049 38.4941 288.489 38.8866 289.509 39.6503C290.519 40.4246 291.029 41.6444 291.029 43.3203V50.7134H288.589V49.3981C288.109 49.9072 287.529 50.2997 286.829 50.5861C286.129 50.8725 285.419 51.0103 284.699 51.0103C283.369 51.0103 282.279 50.6285 281.449 49.8754C280.619 49.1223 280.199 48.1889 280.199 47.0858C280.199 45.866 280.719 44.8583 281.759 44.0628C282.709 43.3627 284.069 43.0127 285.829 43.0127L285.809 43.0021ZM285.119 48.8571C285.779 48.8571 286.429 48.6874 287.079 48.348C287.719 48.0086 288.189 47.6055 288.479 47.1494V45.1235H286.199C284.909 45.1235 284.019 45.3038 283.509 45.6644C282.999 46.0569 282.749 46.5236 282.749 47.0752C282.749 47.5949 282.959 48.0192 283.379 48.3586C283.799 48.6874 284.379 48.8571 285.119 48.8571Z" fill="#231815"/>
<path d="M307.47 39.3646C307.47 40.9132 306.96 42.1754 305.94 43.1619C304.92 44.1483 303.47 44.6362 301.58 44.6362H299.14V50.714H296.52V34.1035H301.58C303.47 34.1035 304.92 34.5914 305.94 35.5779C306.96 36.5643 307.47 37.8266 307.47 39.3752V39.3646ZM304.83 39.3646C304.83 38.4418 304.53 37.7099 303.93 37.1901C303.33 36.6704 302.36 36.4052 301.01 36.4052H299.15V42.3133H301.01C302.36 42.3133 303.33 42.0481 303.93 41.5178C304.53 40.9874 304.83 40.2662 304.83 39.354V39.3646Z" fill="#231815"/>
<path d="M312.19 51.0006C310.55 51.0006 309.15 50.396 307.98 49.1974C306.81 47.9988 306.23 46.5138 306.23 44.7531C306.23 42.9923 306.81 41.4967 307.98 40.2876C309.15 39.089 310.55 38.4844 312.19 38.4844C313.83 38.4844 315.25 39.089 316.41 40.2876C317.57 41.4861 318.15 42.9817 318.15 44.7531C318.15 46.5244 317.57 47.9882 316.41 49.1974C315.25 50.396 313.84 51.0006 312.19 51.0006ZM312.19 48.7519C313.12 48.7519 313.92 48.3701 314.58 47.617C315.24 46.8639 315.57 45.9092 315.57 44.7531C315.57 43.5969 315.24 42.6423 314.58 41.8786C313.92 41.1149 313.12 40.733 312.19 40.733C311.26 40.733 310.48 41.1149 309.81 41.8786C309.14 42.6423 308.81 43.6075 308.81 44.7531C308.81 45.8986 309.14 46.8639 309.81 47.617C310.48 48.3701 311.27 48.7519 312.19 48.7519Z" fill="#231815"/>
<path d="M318.221 50.7136V38.7808H320.631V40.5627C321.001 39.9794 321.451 39.5233 321.991 39.1944C322.631 38.7914 323.391 38.5898 324.271 38.5898H324.451V41.0082H324.171C323.111 41.0082 322.271 41.3477 321.641 42.0371C321.061 42.7053 320.771 43.7448 320.771 45.1555V50.7136H318.221Z" fill="#231815"/>
<path d="M328.151 34.9297V38.78H330.591V40.9544H328.151V47.0322C328.151 47.6156 328.281 48.0187 328.541 48.2308C328.801 48.4429 329.171 48.549 329.641 48.549H330.581V50.7234H329.041C327.831 50.7234 326.951 50.4371 326.401 49.8537C325.851 49.2809 325.571 48.4217 325.571 47.308V40.965H323.641V38.7906H325.571V34.9297H328.151Z" fill="#231815"/>
<path d="M335.46 43.0021H338.13C338.13 42.2384 337.84 41.6656 337.27 41.2732C336.7 40.8807 335.87 40.6898 334.8 40.6898H334.73C333.72 40.6898 332.64 40.9443 331.49 41.4429L330.85 39.3215C332.03 38.7805 333.33 38.5047 334.76 38.4941H334.81C336.7 38.4941 338.14 38.8866 339.16 39.6503C340.17 40.4246 340.68 41.6444 340.68 43.3203V50.7134H338.24V49.3981C337.76 49.9072 337.18 50.2997 336.48 50.5861C335.78 50.8725 335.07 51.0103 334.35 51.0103C333.02 51.0103 331.93 50.6285 331.1 49.8754C330.27 49.1223 329.85 48.1889 329.85 47.0858C329.85 45.866 330.37 44.8583 331.41 44.0628C332.36 43.3627 333.72 43.0127 335.48 43.0127L335.46 43.0021ZM334.77 48.8571C335.43 48.8571 336.08 48.6874 336.73 48.348C337.37 48.0086 337.84 47.6055 338.13 47.1494V45.1235H335.85C334.56 45.1235 333.67 45.3038 333.16 45.6644C332.65 46.0569 332.4 46.5236 332.4 47.0752C332.4 47.5949 332.61 48.0192 333.03 48.3586C333.45 48.6874 334.03 48.8571 334.77 48.8571Z" fill="#231815"/>
<path d="M341.49 50.7136V33H344.04V50.7136H341.49Z" fill="#231815"/>
</g>
<defs>
<clipPath id="clip0_413_2082">
<rect width="257.04" height="18" fill="white" transform="translate(87 33)"/>
</clipPath>
</defs>
</svg>
