<svg width="285" height="60" viewBox="0 0 285 60" fill="none" xmlns="http://www.w3.org/2000/svg">
<g clip-path="url(#clip0_1402_2031)">
<path fill-rule="evenodd" clip-rule="evenodd" d="M124.5 9.44039H127.04V20.8904H129.59V9.46039V7.15039H124.5V9.44039Z" fill="#231815"/>
<path fill-rule="evenodd" clip-rule="evenodd" d="M87.33 20.8895H89.67V5.51953H87.42C87.2 10.4495 87.39 15.7895 87.33 20.8795" fill="#231815"/>
<path fill-rule="evenodd" clip-rule="evenodd" d="M115.999 8.99027C115.789 9.62027 115.959 10.6403 115.909 11.4303C117.529 11.6503 119.109 11.1003 120.409 11.5203C121.949 12.0203 122.559 15.6503 121.629 17.3303C120.919 18.6103 117.399 19.0003 115.919 18.0803C114.439 17.1603 114.889 14.0003 114.889 11.4303V5.53027H112.639C112.529 5.55027 112.539 5.68027 112.549 5.81027C112.949 9.88027 112.009 13.5203 112.549 17.0503C112.819 18.8803 114.539 20.5303 116.289 20.8003C120.099 21.3803 123.399 20.3003 124.159 17.5203C124.499 16.2603 124.639 13.4503 123.969 11.8103C122.929 9.25027 120.049 8.72027 116.009 9.00027" fill="#231815"/>
<path fill-rule="evenodd" clip-rule="evenodd" d="M97.819 9.93039C97.339 9.22039 96.749 8.63039 96.039 8.15039C95.099 9.23039 94.199 9.99039 92.859 11.3304C92.069 12.1204 90.109 13.6104 90.149 14.6104C90.179 15.6504 92.249 17.1704 92.959 17.8904C94.119 19.0504 95.099 19.8904 96.049 20.9804C96.339 20.6504 97.849 19.7404 97.829 19.2904C97.829 19.0804 96.919 18.4704 96.609 18.1704C95.419 16.9804 93.929 15.5004 93.139 14.5204C94.759 13.0404 96.209 11.4004 97.819 9.93039Z" fill="#231815"/>
<path fill-rule="evenodd" clip-rule="evenodd" d="M103.181 9.08009C100.641 9.36009 99.4405 10.9001 99.0605 11.9801C98.3605 13.9301 98.6605 16.4101 98.9705 17.5101C99.3105 18.6901 100.261 19.8901 101.411 20.4101C102.951 21.1101 106.121 21.1701 107.781 20.5101C108.941 20.0401 110.051 18.7901 110.401 17.7001C110.911 16.1401 110.781 13.6201 110.491 12.4501C109.741 9.40009 106.711 8.69009 103.181 9.08009ZM108.141 16.8501C108.051 18.6101 103.681 18.8701 102.331 18.1601C100.451 17.1801 100.581 11.7401 103.271 11.4201C107.361 10.9301 108.811 12.2201 108.141 16.8501Z" fill="#231815"/>
<path fill-rule="evenodd" clip-rule="evenodd" d="M136.22 18.2396C134.53 17.7496 134.1 15.0296 134.72 12.8996C135.44 10.4396 141.77 10.5196 141.65 13.5596H143.99C143.81 9.62958 140.72 8.43958 136.21 8.96958C135.79 9.01958 135.27 9.12958 134.8 9.34958C131.68 10.7896 131.03 17.0296 133.58 19.4696C136.3 22.0696 144.36 21.3196 143.98 16.0996H141.54C141.7 18.4496 138.41 18.8896 136.2 18.2496" fill="#231815"/>
<path fill-rule="evenodd" clip-rule="evenodd" d="M127.42 1.89037C128.15 1.80037 129.03 2.16037 129.35 3.05037C130.41 6.03037 125.4 6.40037 125.69 3.44037C125.77 2.69037 126.3 2.04037 127.43 1.90037" fill="#EE7500"/>
<path d="M11.3405 36.7705C11.2905 36.6205 11.2405 36.4805 11.2005 36.3305C11.0205 35.7405 10.4305 35.3805 9.82054 35.4805L8.61054 35.6805C8.23054 35.7405 7.90054 35.9705 7.73054 36.3105C7.16054 37.4305 6.10054 38.2905 4.76054 38.5105C2.22054 38.9305 -0.159456 36.9105 0.0105438 34.1705C0.100544 32.6705 1.08054 31.3005 2.47054 30.7205C4.14054 30.0305 5.84054 30.4805 6.95054 31.5905C7.22054 31.8605 7.61054 31.9605 7.99054 31.9005L9.19054 31.7005C9.81054 31.6005 10.2405 31.0505 10.2305 30.4205C10.1905 28.0405 10.5905 25.6805 11.4005 23.4105C11.6205 22.8005 11.3605 22.1205 10.7805 21.8405L8.42054 20.7105C8.06054 20.5405 7.65054 20.5605 7.30054 20.7405C6.45054 21.1805 5.35054 21.1105 4.51054 20.3705C3.89054 19.8305 3.60054 18.9605 3.75054 18.1505C4.07054 16.4805 5.81054 15.6705 7.23054 16.3505C7.95054 16.7005 8.43054 17.3405 8.57054 18.0705C8.65054 18.4605 8.89054 18.8105 9.25054 18.9805L11.6005 20.1005C12.1605 20.3705 12.8505 20.1905 13.1805 19.6505C14.4805 17.5105 16.1605 15.6505 18.1305 14.1505C18.6205 13.7805 18.7305 13.0905 18.4205 12.5505L15.9305 8.27048C15.7305 7.93048 15.3805 7.70048 14.9805 7.67048C13.6805 7.56048 12.4805 6.71048 12.0205 5.28048C11.6205 4.02048 12.0205 2.59048 13.0305 1.72048C14.7005 0.280481 17.1705 0.750481 18.2305 2.56048C18.8105 3.56048 18.8205 4.74048 18.3705 5.71048C18.2005 6.06048 18.2405 6.48048 18.4405 6.82048L20.9305 11.0905C21.2405 11.6305 21.9105 11.8505 22.4905 11.6005C22.8905 11.4205 23.3005 11.2605 23.7205 11.1105C26.2805 10.2205 28.9305 9.87048 31.5505 10.0305C32.1805 10.0705 32.7405 9.66048 32.8705 9.05048L33.1305 7.85048C33.2105 7.47048 33.1105 7.07048 32.8505 6.78048C31.8205 5.62048 31.4505 3.91048 32.2205 2.29048C32.8505 0.940481 34.2605 0.0304813 35.7605 0.000481257C38.5105 -0.0395187 40.4205 2.42048 39.8805 4.94048C39.6005 6.26048 38.7005 7.29048 37.5605 7.80048C37.2105 7.96048 36.9505 8.28048 36.8705 8.66048L36.6205 9.85048C36.4905 10.4505 36.8205 11.0605 37.3905 11.2705C37.9705 11.4805 38.5405 11.7105 39.0905 11.9805C44.4105 14.5405 48.3205 19.3305 49.8105 25.0005C50.0605 25.9605 49.4205 26.9205 48.4505 27.0805L44.8605 27.6905C44.0105 27.8305 43.2005 27.3005 42.9605 26.4705C41.9205 22.9005 39.4205 19.9105 36.0505 18.2905C32.8905 16.7705 29.3305 16.5705 26.0105 17.7305C22.6905 18.8905 20.0305 21.2705 18.5005 24.4205C16.9805 27.5705 16.7805 31.1405 17.9405 34.4605C19.1005 37.7805 21.4805 40.4405 24.6305 41.9705C28.1505 43.6705 32.2105 43.7005 35.7305 42.1105C36.5205 41.7605 37.4405 42.0305 37.8905 42.7705L39.7505 45.9005C40.2505 46.7505 39.9405 47.8605 39.0505 48.2905C38.3705 48.6205 37.6705 48.9005 36.9605 49.1505C36.3705 49.3605 36.0405 49.9905 36.1805 50.6005L36.4005 51.5305C36.4905 51.9205 36.7705 52.2205 37.1305 52.3805C38.0105 52.7705 38.6405 53.6605 38.5905 54.7805C38.5505 55.6005 38.0605 56.3705 37.3405 56.7605C35.8405 57.5705 34.1105 56.7205 33.7505 55.1805C33.5705 54.4005 33.7705 53.6205 34.2405 53.0505C34.5005 52.7405 34.6105 52.3405 34.5205 51.9505L34.3105 51.0605C34.1605 50.4405 33.5805 50.0105 32.9505 50.0905C31.4905 50.2805 30.0205 50.3105 28.5605 50.1705C27.9305 50.1105 27.3605 50.5705 27.2405 51.1905L26.5905 54.5505C26.5205 54.9405 26.6405 55.3305 26.9005 55.6305C27.5405 56.3405 27.7505 57.4205 27.2505 58.4205C26.8805 59.1505 26.1205 59.6605 25.3005 59.7105C23.6005 59.8305 22.3805 58.3405 22.6805 56.8005C22.8305 56.0205 23.3405 55.3905 24.0105 55.0605C24.3705 54.8805 24.6405 54.5705 24.7205 54.1705L25.3705 50.8205C25.4905 50.2005 25.1405 49.5805 24.5405 49.4005C23.5405 49.1005 22.5605 48.7205 21.6105 48.2605C19.2705 47.1305 17.2205 45.5905 15.5105 43.7305L10.7605 47.4905C10.4605 47.7305 10.2705 48.0905 10.2905 48.4805C10.3805 49.7905 9.71054 51.1305 8.35054 51.7905C7.16054 52.3705 5.68054 52.1605 4.68054 51.3005C3.01054 49.8505 3.14054 47.3405 4.78054 46.0405C5.69054 45.3205 6.85054 45.1405 7.88054 45.4605C8.25054 45.5705 8.66054 45.4805 8.96054 45.2405L12.8305 42.1705C13.3105 41.7905 13.4505 41.1005 13.1405 40.5705C12.4205 39.3805 11.8005 38.1105 11.3305 36.7705" fill="#425BA8"/>
<path d="M35.3496 35.8705L35.3196 35.8905C35.0196 36.1205 34.8496 36.4705 34.8296 36.8405C34.7996 37.5205 34.4096 38.1705 33.6996 38.5005C33.0296 38.8105 32.1996 38.6805 31.6496 38.1905C30.7096 37.3505 30.8096 35.9305 31.7596 35.2105C32.2296 34.8605 32.8096 34.7505 33.3396 34.8705C33.7196 34.9605 34.1096 34.9105 34.4296 34.6705C34.9296 34.2905 35.0996 33.6005 34.7796 33.0605C34.4196 32.4405 34.0996 31.7905 33.8196 31.1305C33.5796 30.5605 32.9896 30.2405 32.3896 30.3905L29.2996 31.2105C28.9196 31.3105 28.6296 31.5805 28.4696 31.9405C28.1596 32.6705 27.5296 33.2605 26.7096 33.4805C25.1296 33.9005 23.5196 32.8105 23.3696 31.1005C23.2796 30.0005 23.9296 28.9205 24.9396 28.4705C25.8996 28.0505 26.9196 28.2305 27.6596 28.8005C27.9596 29.0405 28.3596 29.1205 28.7296 29.0205L31.7796 28.2205C32.3696 28.0605 32.7696 27.5005 32.6996 26.9005C32.6496 26.4905 32.6096 26.0705 32.5896 25.6505C32.5396 24.6505 33.4096 23.8405 34.3996 23.9105L37.0296 24.0905C37.8896 24.1505 38.5296 24.8505 38.5996 25.7005C38.8696 29.1705 40.9096 32.2805 44.0696 33.8905C46.4596 35.1105 49.1896 35.3205 51.7496 34.4805C54.3096 33.6505 56.3896 31.8705 57.6096 29.4705C58.8296 27.0805 59.0396 24.3505 58.2096 21.7905C57.3696 19.2305 55.5996 17.1505 53.2096 15.9305C52.2996 15.4705 51.3396 15.1505 50.3596 14.9805C49.5096 14.8305 48.8796 14.1305 48.8896 13.2705L48.9396 10.6305C48.9596 9.63048 49.8396 8.84048 50.8296 8.98048C52.5996 9.22048 54.3096 9.76048 55.9296 10.5805C56.2496 10.7405 56.5596 10.9205 56.8596 11.1005C57.3896 11.4305 58.0796 11.3105 58.4696 10.8205L60.4496 8.35048C60.6896 8.05048 60.7796 7.66048 60.6796 7.29048C60.4596 6.39048 60.6996 5.38048 61.4796 4.67048C62.2996 3.93048 63.5496 3.78048 64.5196 4.31048C66.0196 5.13048 66.3596 7.05048 65.3396 8.32048C64.7996 8.99048 64.0096 9.33048 63.2096 9.31048C62.8196 9.31048 62.4496 9.46048 62.1996 9.77048L60.2296 12.2305C59.8496 12.7105 59.8596 13.4005 60.2796 13.8405C60.8596 14.4605 61.3996 15.1105 61.8796 15.8205C62.2296 16.3305 62.9196 16.4905 63.4696 16.2005L64.6496 15.5805C64.9796 15.4005 65.1996 15.0805 65.2796 14.7105C65.4196 14.0505 65.9096 13.4605 66.6596 13.2505C67.3696 13.0505 68.1696 13.3005 68.6296 13.8705C69.4296 14.8405 69.0996 16.2405 68.0496 16.7905C67.5296 17.0605 66.9496 17.0805 66.4396 16.8805C66.0796 16.7305 65.6796 16.7205 65.3396 16.9005L64.1696 17.5205C63.6096 17.8205 63.3696 18.4905 63.5996 19.0905C63.7096 19.3605 63.8096 19.6405 63.8996 19.9305C64.5496 21.9205 64.7896 23.9705 64.6496 26.0005C64.6096 26.6005 65.0296 27.1205 65.6096 27.2605L65.8596 27.3205C66.2296 27.4005 66.6096 27.3205 66.9096 27.0805C67.7796 26.3805 68.9896 26.1405 70.1496 26.6205C71.3596 27.1305 72.1596 28.3905 72.0896 29.6905C71.9896 31.7405 70.0896 33.1105 68.1796 32.6705C67.1896 32.4405 66.4196 31.7805 66.0196 30.9205C65.8596 30.5705 65.5496 30.3205 65.1796 30.2405L64.9396 30.1805C64.3396 30.0405 63.7396 30.3605 63.5096 30.9305C63.3396 31.3605 63.1596 31.7805 62.9496 32.1905C62.2896 33.4805 61.4696 34.6505 60.5296 35.6905C60.1096 36.1505 60.1296 36.8505 60.5396 37.3205L61.8396 38.8105C62.0896 39.0905 62.4496 39.2305 62.8296 39.2205C63.5096 39.2005 64.1896 39.5405 64.5696 40.2205C64.9296 40.8605 64.8696 41.7005 64.4196 42.2805C63.6596 43.2805 62.2296 43.2905 61.4396 42.4005C61.0496 41.9605 60.8996 41.3905 60.9796 40.8605C61.0396 40.4705 60.9596 40.0805 60.6996 39.7905L59.3996 38.3105C58.9896 37.8405 58.2896 37.7405 57.7796 38.1005C56.5096 38.9805 55.1096 39.6905 53.5896 40.1905C53.3496 40.2705 53.1196 40.3405 52.8796 40.4005C52.2996 40.5605 51.9296 41.1305 51.9896 41.7205L52.0196 41.9805C52.0596 42.3605 52.2696 42.6905 52.5996 42.8905C53.5396 43.4805 54.1696 44.5405 54.0996 45.8005C54.0196 47.1105 53.0896 48.2805 51.8396 48.6505C49.8696 49.2305 47.9496 47.8905 47.7396 45.9405C47.6296 44.9205 48.0096 43.9705 48.6996 43.3105C48.9696 43.0505 49.0896 42.6805 49.0496 42.3105L49.0196 42.0605C48.9496 41.4505 48.4496 40.9805 47.8496 40.9605C47.3296 40.9405 46.8096 40.9005 46.2896 40.8205C44.5896 40.5705 42.9196 40.0405 41.3396 39.2405C39.6696 38.3905 38.2096 37.2805 36.9696 35.9705C36.5396 35.5205 35.8396 35.4705 35.3396 35.8505" fill="#32B6A0"/>
<path d="M87.3203 32.9802H96.9803V42.5202H94.5003V35.1802H87.3203V32.9702V32.9802ZM88.4003 44.0402H103.86V52.0402H88.4003V44.0402ZM101.4 46.1602H90.8703V49.9102H101.4V46.1602ZM103.86 43.0102H101.38V32.4102H103.86V36.3002H106.74V38.7602H103.86V43.0102Z" fill="#231815"/>
<path d="M120.3 37.6504C120.3 38.3604 120.16 39.0104 119.87 39.6304C119.59 40.2404 119.2 40.7804 118.71 41.2404C118.23 41.7004 117.67 42.0604 117.02 42.3304C116.37 42.6004 115.68 42.7304 114.94 42.7304C114.2 42.7304 113.51 42.6004 112.86 42.3304C112.21 42.0604 111.64 41.7004 111.17 41.2404C110.68 40.7804 110.29 40.2404 110.01 39.6304C109.73 39.0204 109.58 38.3604 109.58 37.6504C109.58 36.9404 109.72 36.2804 110.01 35.6604C110.29 35.0404 110.68 34.5004 111.17 34.0404C111.65 33.5804 112.21 33.2204 112.86 32.9504C113.51 32.6804 114.2 32.5504 114.94 32.5504C115.68 32.5504 116.37 32.6804 117.02 32.9504C117.67 33.2204 118.24 33.5804 118.71 34.0404C119.2 34.5004 119.59 35.0404 119.87 35.6604C120.15 36.2804 120.3 36.9404 120.3 37.6504ZM110.92 44.0404H126.61V52.0404H110.92V44.0404ZM117.91 37.6504C117.91 36.8404 117.62 36.1404 117.05 35.5604C116.47 34.9804 115.78 34.6904 114.97 34.6904C114.16 34.6904 113.46 34.9804 112.88 35.5604C112.3 36.1404 112.01 36.8404 112.01 37.6504C112.01 38.4604 112.3 39.1604 112.88 39.7304C113.46 40.3004 114.16 40.5904 114.97 40.5904C115.78 40.5904 116.48 40.3004 117.05 39.7304C117.62 39.1604 117.91 38.4604 117.91 37.6504ZM124.14 46.1604H113.38V49.9104H124.14V46.1604ZM124.12 32.4104H126.6V43.0104H124.12V40.8704H120.83V38.8204H124.12V36.4704H120.83V34.4204H124.12V32.4004V32.4104Z" fill="#231815"/>
<path d="M141.69 42.5404H131.23V32.8304H133.69V35.4504H139.28V32.8304H141.7V42.5404H141.69ZM139.27 37.5504H133.68V40.4704H139.27V37.5504ZM146.33 48.1804C146.33 48.8504 146.19 49.4904 145.92 50.0804C145.64 50.6704 145.28 51.1904 144.82 51.6304C144.34 52.0704 143.79 52.4304 143.15 52.6904C142.51 52.9504 141.84 53.0804 141.14 53.0804C140.44 53.0804 139.76 52.9504 139.12 52.6904C138.48 52.4304 137.92 52.0804 137.44 51.6304C136.98 51.1904 136.61 50.6704 136.34 50.0804C136.06 49.4904 135.93 48.8604 135.93 48.1804C135.93 47.5004 136.07 46.8704 136.34 46.2704C136.62 45.6704 136.98 45.1504 137.44 44.7104C137.91 44.2704 138.48 43.9104 139.12 43.6504C139.76 43.3904 140.44 43.2604 141.14 43.2604C141.84 43.2604 142.52 43.3904 143.15 43.6504C143.79 43.9104 144.34 44.2604 144.82 44.7104C145.28 45.1504 145.65 45.6804 145.92 46.2704C146.2 46.8704 146.33 47.5004 146.33 48.1804ZM143.89 48.1604C143.89 47.4104 143.61 46.7604 143.06 46.2204C142.51 45.6804 141.86 45.4004 141.1 45.4004C140.34 45.4004 139.7 45.6704 139.16 46.2204C138.62 46.7604 138.34 47.4104 138.34 48.1604C138.34 48.9104 138.61 49.5604 139.16 50.0904C139.71 50.6204 140.35 50.9004 141.1 50.9004C141.85 50.9004 142.5 50.6304 143.06 50.0904C143.62 49.5504 143.89 48.9104 143.89 48.1604ZM145.55 32.4004H148.03V43.0304H145.55V40.6404H142.63V38.5904H145.55V36.4704H142.63V34.4204H145.55V32.4004Z" fill="#231815"/>
<path d="M170.81 38.0096C170.81 38.7596 170.66 39.4697 170.36 40.1297C170.06 40.7897 169.65 41.3697 169.13 41.8797C168.61 42.3697 168.01 42.7596 167.32 43.0496C166.64 43.3396 165.91 43.4897 165.12 43.4897C164.33 43.4897 163.61 43.3396 162.92 43.0496C162.24 42.7596 161.63 42.3697 161.11 41.8797C160.59 41.3697 160.18 40.7897 159.88 40.1297C159.58 39.4697 159.43 38.7696 159.43 38.0096C159.43 37.2496 159.58 36.5496 159.88 35.8896C160.18 35.2296 160.59 34.6496 161.11 34.1396C161.63 33.6496 162.23 33.2597 162.92 32.9697C163.6 32.6797 164.33 32.5296 165.12 32.5296C165.91 32.5296 166.63 32.6797 167.32 32.9697C168 33.2597 168.6 33.6496 169.13 34.1396C169.65 34.6496 170.06 35.2296 170.36 35.8896C170.66 36.5496 170.81 37.2496 170.81 38.0096ZM160.6 52.0396V45.3496H163.08V49.8297H177.02V52.0396H160.6ZM168.42 38.0296C168.42 37.5896 168.33 37.1596 168.16 36.7596C167.98 36.3596 167.75 36.0096 167.46 35.6996C167.15 35.4096 166.8 35.1796 166.41 34.9996C166.02 34.8196 165.6 34.7397 165.16 34.7397C164.72 34.7397 164.29 34.8296 163.9 34.9996C163.51 35.1696 163.15 35.4096 162.84 35.6996C162.55 36.0096 162.31 36.3596 162.14 36.7596C161.96 37.1596 161.88 37.5796 161.88 38.0296C161.88 38.4796 161.97 38.8896 162.14 39.2796C162.32 39.6696 162.55 40.0197 162.84 40.3297C163.15 40.6197 163.5 40.8596 163.9 41.0296C164.3 41.1996 164.72 41.2896 165.16 41.2896C165.6 41.2896 166.02 41.1996 166.41 41.0296C166.8 40.8596 167.15 40.6197 167.46 40.3297C167.75 40.0197 167.98 39.6696 168.16 39.2796C168.34 38.8896 168.42 38.4696 168.42 38.0296ZM174.35 45.2296V41.4596H171.43V39.4096H174.35V36.5096H171.43V34.4396H174.35V32.3896H176.83V45.2197H174.35V45.2296Z" fill="#231815"/>
<path d="M180.721 45.97V43.74H199.121V45.97H191.161V52.43H188.651V45.97H180.721ZM195.121 42.04V35.25H182.151V33.04H197.611V42.03H195.131L195.121 42.04Z" fill="#231815"/>
<path d="M202.09 35.1204V32.9804H213.59V35.1204H208.69L213.8 41.3504L212.05 42.7804L207.96 37.6704L203.89 43.1204L202.07 41.6504L207.15 35.1204H202.09ZM218.01 48.1804C218.01 48.8504 217.87 49.4904 217.6 50.0804C217.32 50.6704 216.96 51.1904 216.5 51.6304C216.03 52.0704 215.47 52.4304 214.83 52.6904C214.2 52.9504 213.52 53.0804 212.82 53.0804C212.12 53.0804 211.44 52.9504 210.8 52.6904C210.16 52.4304 209.59 52.0804 209.12 51.6304C208.66 51.1904 208.29 50.6704 208.02 50.0804C207.74 49.4904 207.61 48.8604 207.61 48.1804C207.61 47.5004 207.75 46.8704 208.02 46.2704C208.3 45.6704 208.66 45.1504 209.12 44.7104C209.59 44.2704 210.16 43.9104 210.8 43.6504C211.44 43.3904 212.12 43.2604 212.82 43.2604C213.52 43.2604 214.2 43.3904 214.83 43.6504C215.47 43.9104 216.02 44.2604 216.5 44.7104C216.96 45.1504 217.33 45.6804 217.6 46.2704C217.88 46.8704 218.01 47.5004 218.01 48.1804ZM215.57 48.1604C215.57 47.4104 215.29 46.7604 214.74 46.2204C214.19 45.6804 213.54 45.4004 212.78 45.4004C212.02 45.4004 211.38 45.6704 210.84 46.2204C210.3 46.7604 210.02 47.4104 210.02 48.1604C210.02 48.9104 210.29 49.5604 210.84 50.0904C211.39 50.6204 212.03 50.9004 212.78 50.9004C213.53 50.9004 214.18 50.6304 214.74 50.0904C215.29 49.5504 215.57 48.9104 215.57 48.1604ZM217.23 43.0304V38.6804H213.5V36.5404H217.23V32.4004H219.71V43.0304H217.23Z" fill="#231815"/>
<path d="M238.06 36.33V33.25H240.52V44.7H234.03V48.75H241.99V50.96H223.59V48.75H231.52V44.7H225.06V33.25H227.52V36.33H238.05H238.06ZM238.06 42.52V38.5H227.53V42.52H238.06Z" fill="#231815"/>
<path d="M246.269 33.4404H262.189V35.6304H259.539V41.9804H262.189V44.1404H255.469V48.7604H263.429V50.9704H245.029V48.7604H252.959V44.1404H246.269V41.9804H248.909V35.6304H246.269V33.4404ZM257.129 35.6304H251.329V41.9804H257.129V35.6304Z" fill="#231815"/>
<path d="M278.009 40.1104V42.0204H267.199V32.9804H277.779V34.9604H269.659V36.5704H277.039V38.4104H269.659V40.1104H278.009ZM268.279 43.4204H284.009V48.6004H270.759V50.0304H284.239V52.0504H268.279V46.7404H281.529V45.3804H268.279V43.4204ZM281.529 32.4004H284.009V42.4304H281.529V38.7504H278.429V36.5604H281.529V32.4004Z" fill="#231815"/>
</g>
<defs>
<clipPath id="clip0_1402_2031">
<rect width="284.24" height="59.72" fill="white"/>
</clipPath>
</defs>
</svg>
