<svg width="38" height="32" viewBox="0 0 38 32" fill="none" xmlns="http://www.w3.org/2000/svg">
<g clip-path="url(#clip0_778_5570)">
<path d="M33.6044 31.3847H4.39677C2.2663 31.3847 0.539062 29.6575 0.539062 27.527V6.71388C0.539062 5.045 1.89168 3.69238 3.56057 3.69238H12.1676C12.6143 3.69238 13.0548 3.79637 13.4543 3.99623L19.0006 6.76925H33.6044C35.7349 6.76925 37.4621 8.49648 37.4621 10.627V27.527C37.4621 29.6575 35.7349 31.3847 33.6044 31.3847Z" fill="#FFB700"/>
<path d="M33.6044 28.3076H4.39677C2.2663 28.3076 0.539062 26.5804 0.539062 24.4499V3.63673C0.539062 1.96785 1.89168 0.615234 3.56057 0.615234H12.1676C12.6143 0.615234 13.0548 0.719219 13.4543 0.919086L19.0006 3.6921H33.6044C35.7349 3.6921 37.4621 5.41933 37.4621 7.5498V24.4499C37.4621 26.5804 35.7349 28.3076 33.6044 28.3076Z" fill="#FFB700"/>
<path d="M33.6044 5.74316H4.39677C2.26622 5.74316 0.539062 7.47032 0.539062 9.60087V26.5007C0.539062 28.6312 2.26622 30.3584 4.39677 30.3584H33.6044C35.735 30.3584 37.4621 28.6312 37.4621 26.5007V9.60087C37.4621 7.47032 35.735 5.74316 33.6044 5.74316Z" fill="#FBFBFB"/>
<path d="M33.6044 5.74365H4.39677C2.26622 5.74365 0.539062 7.47082 0.539062 9.60138V26.5013C0.539062 28.6319 2.26622 30.359 4.39677 30.359H33.6044C35.735 30.359 37.4621 28.6319 37.4621 26.5013V9.60138C37.4621 7.47082 35.735 5.74365 33.6044 5.74365Z" fill="url(#paint0_linear_778_5570)"/>
</g>
<defs>
<linearGradient id="paint0_linear_778_5570" x1="18.8742" y1="6.55987" x2="19.2561" y2="41.3056" gradientUnits="userSpaceOnUse">
<stop offset="0.24" stop-color="#FFDA6B"/>
<stop offset="0.91" stop-color="#F8C155"/>
</linearGradient>
<clipPath id="clip0_778_5570">
<rect width="36.9231" height="30.7692" fill="white" transform="translate(0.539062 0.615234)"/>
</clipPath>
</defs>
</svg>
