<svg width="69" height="14" viewBox="0 0 69 14" fill="none" xmlns="http://www.w3.org/2000/svg">
<g clip-path="url(#clip0_782_36845)">
<path d="M29.884 6.772L32.5149 6.772L32.5149 11.1414C31.9138 11.5742 31.2221 11.9054 30.4398 12.1349C29.6574 12.3674 28.8751 12.4807 28.0927 12.4807C26.9902 12.4807 25.9964 12.2453 25.1144 11.7805C24.2324 11.3157 23.5407 10.662 23.0392 9.82824C22.5378 8.99445 22.2871 8.05027 22.2871 6.9957C22.2871 5.94112 22.5378 4.99694 23.0392 4.16316C23.5407 3.32647 24.2384 2.67862 25.1295 2.21089C26.0206 1.74316 27.0295 1.51074 28.1532 1.51074C29.1349 1.51074 30.0169 1.67634 30.7992 2.00753C31.5816 2.33871 32.234 2.81516 32.7566 3.43977L30.8596 5.15673C30.1468 4.37233 29.2949 3.98304 28.3042 3.98304C27.401 3.98304 26.6761 4.25613 26.1233 4.8052C25.5735 5.35137 25.2956 6.08348 25.2956 6.9986C25.2956 7.57964 25.4195 8.09966 25.6732 8.55868C25.9239 9.01479 26.2743 9.37212 26.7244 9.62778C27.1745 9.88343 27.691 10.0142 28.274 10.0142C28.857 10.0142 29.3825 9.89796 29.884 9.66845L29.884 6.7749V6.772Z" fill="white"/>
<path d="M43.4313 7.73958C43.7605 8.17245 43.9267 8.69829 43.9267 9.31418C43.9267 10.2119 43.5672 10.9062 42.8453 11.3914C42.1264 11.8794 41.0843 12.1235 39.719 12.1235L34.1973 12.1235L34.1973 1.87695L39.426 1.87695C40.7309 1.87695 41.7247 2.11808 42.4073 2.60034C43.09 3.0826 43.4313 3.73336 43.4313 4.55261C43.4313 5.04068 43.3105 5.47646 43.0718 5.86284C42.8332 6.24923 42.4949 6.55427 42.0569 6.77797C42.6399 6.98424 43.099 7.3009 43.4313 7.73668V7.73958ZM37.0608 3.97158L37.0608 5.94709L39.0484 5.94709C40.021 5.94709 40.5104 5.6159 40.5104 4.95062C40.5104 4.28534 40.024 3.97158 39.0484 3.97158L37.0608 3.97158ZM41.0057 8.99171C41.0057 8.29737 40.4983 7.95166 39.4864 7.95166L37.0608 7.95166L37.0608 10.0289L39.4864 10.0289C40.4983 10.0289 41.0057 9.68314 41.0057 8.99171Z" fill="white"/>
<path d="M47.3821 11.641C46.5182 11.182 45.8446 10.5486 45.3523 9.73808C44.8599 8.92754 44.6152 8.01822 44.6152 7.00142C44.6152 5.98461 44.8629 5.07529 45.3523 4.26475C45.8446 3.45421 46.5212 2.82088 47.3821 2.36186C48.243 1.90575 49.2156 1.67334 50.297 1.67334C51.3784 1.67334 52.351 1.90285 53.2119 2.36186C54.0758 2.82088 54.7524 3.45421 55.2418 4.26475C55.7341 5.07239 55.9818 5.98461 55.9818 7.00142C55.9818 8.01822 55.7341 8.92754 55.2418 9.73808C54.7494 10.5486 54.0728 11.182 53.2119 11.641C52.351 12.1 51.3784 12.3266 50.297 12.3266C49.2156 12.3266 48.246 12.1 47.3821 11.641ZM51.6986 9.56087C52.1154 9.31683 52.4477 8.97402 52.6924 8.52953C52.937 8.08504 53.0579 7.57664 53.0579 7.00142C53.0579 6.42619 52.937 5.91488 52.6924 5.47039C52.4507 5.02881 52.1185 4.68309 51.6986 4.43906C51.2787 4.19502 50.8105 4.07591 50.294 4.07591C49.7775 4.07591 49.3093 4.19502 48.8924 4.43906C48.4726 4.68309 48.1433 5.02881 47.8986 5.47039C47.657 5.91488 47.5332 6.42619 47.5332 7.00142C47.5332 7.57664 47.654 8.08504 47.8986 8.52953C48.1433 8.97402 48.4726 9.31683 48.8924 9.56087C49.3093 9.8049 49.7775 9.92692 50.294 9.92692C50.8105 9.92692 51.2787 9.8049 51.6986 9.56087Z" fill="white"/>
<path d="M63.2973 12.1235L61.1798 8.94813L59.0926 12.1235L55.791 12.1235L59.5154 6.94066L55.9511 1.87695L59.2073 1.87695L61.2523 4.83151L63.2701 1.87695L66.3964 1.87695L62.8321 6.82445L66.629 12.1235L63.2973 12.1235Z" fill="white"/>
<path d="M9.99001 10.8828C9.97488 11.1036 9.95673 11.3128 9.93555 11.5132C9.95673 11.3041 9.97488 11.0978 9.99001 10.8828Z" fill="url(#paint0_linear_782_36845)"/>
<path d="M9.95283 8.46291C9.92867 8.21307 9.9045 7.96613 9.86523 7.71338C9.90148 7.96903 9.93169 8.21888 9.95283 8.46291Z" fill="url(#paint1_linear_782_36845)"/>
<path d="M3.35352 0C3.65558 0.540361 4.44094 1.60365 6.12342 3.11724L14.5661 3.11724L14.5661 0L3.35352 0Z" fill="url(#paint2_linear_782_36845)"/>
<path d="M5.91163 13.9999H5.91768C5.88747 13.9766 5.85726 13.9534 5.83008 13.9272C5.85726 13.9534 5.88445 13.9737 5.91163 13.9999Z" fill="url(#paint3_linear_782_36845)"/>
<path d="M9.27362 5.44141C9.3884 6.09216 9.50319 6.92885 9.62099 7.6842C9.66026 7.93695 9.92607 8.21294 9.95024 8.46278C9.95024 8.48893 9.95628 8.51798 9.9593 8.54703C9.9593 8.54994 9.9593 8.55575 9.9593 8.55865L11.3216 8.55865L11.3216 10.8828L9.98346 10.8828C9.83847 11.06 9.72671 11.673 9.70255 11.8822C9.69046 11.9955 9.67838 12.1117 9.66328 12.2192C9.56662 12.989 9.4911 13.3173 9.49412 14L14.5597 14L14.5597 5.44141L9.26758 5.44141H9.27362Z" fill="url(#paint4_linear_782_36845)"/>
<path d="M9.93191 11.5132C9.91981 11.6265 9.90771 11.7398 9.89258 11.8502C9.90771 11.7427 9.91981 11.6265 9.93191 11.5132Z" fill="url(#paint5_linear_782_36845)"/>
<path d="M9.9583 8.54714C9.9583 8.52099 9.95224 8.49194 9.94922 8.46289C9.94922 8.48904 9.95527 8.51809 9.9583 8.54714Z" fill="url(#paint6_linear_782_36845)"/>
<path d="M9.95847 8.54703C9.95847 8.52088 9.89805 7.9689 9.86181 7.71325C9.744 6.955 9.55068 6.19384 9.26977 5.44141L6.69922 5.44141L6.69922 8.55865L9.95847 8.55865C9.95847 8.55865 9.95847 8.54994 9.95847 8.54703Z" fill="url(#paint7_linear_782_36845)"/>
<path d="M5.83053 13.9275C4.92132 12.7974 1.27543 10.7318 0.00073187 10.7202C-0.00530937 10.7289 0.00073187 14.0001 0.00073187 14.0001L5.90906 14.0001C5.88188 13.9769 5.84865 13.9566 5.82751 13.9275H5.83053Z" fill="url(#paint8_linear_782_36845)"/>
<path d="M3.35289 0L0 0L0 9.64516C0.135928 9.6684 0.758175 9.87757 0.767237 9.88047C1.63415 8.9421 2.68231 8.13447 3.24414 7.5331L3.24414 3.11724L6.11977 3.11724C4.95684 1.49616 3.99628 0.537456 3.35289 0Z" fill="url(#paint9_linear_782_36845)"/>
<path d="M3.24697 10.8829L3.24697 7.5332C2.67305 7.98931 1.65812 8.84053 0.788186 9.7789C0.779124 9.7789 0.770062 9.7789 0.761 9.77309C0.736835 9.80214 0.712671 9.83119 0.688506 9.86024C0.61299 9.9474 0.537475 10.0375 0.461959 10.1246C0.329052 10.2786 0.196145 10.4297 0.0662581 10.5923C0.0662581 10.5923 0.0874024 10.6011 0.0934437 10.604C0.0662581 10.6417 0.0300107 10.6766 0.0028251 10.7144C0.00584572 10.7144 -0.000195516 10.7173 0.0028251 10.7173C0.609969 10.9293 1.40137 11.2315 2.23506 11.6237C3.44633 12.1931 4.76332 12.9571 5.8296 13.9275C5.85981 13.9507 5.89001 13.974 5.9172 14.0001L9.50267 14.0001C9.66276 13.3464 9.79869 12.6202 9.89535 11.8503C9.90743 11.7399 9.92254 11.6266 9.93462 11.5133C9.95576 11.3099 9.97389 11.1037 9.98899 10.8829L3.24697 10.8829Z" fill="url(#paint10_linear_782_36845)"/>
<path d="M0 9.58691L0 10.932C0.214464 10.4846 0.767237 9.79318 0.791402 9.76413C0.673598 9.74089 0.135928 9.61016 0 9.58691Z" fill="url(#paint11_linear_782_36845)"/>
</g>
<defs>
<linearGradient id="paint0_linear_782_36845" x1="9.93252" y1="11.1995" x2="9.99001" y2="11.1995" gradientUnits="userSpaceOnUse">
<stop stop-color="#008100"/>
<stop offset="0.21" stop-color="#29BC26"/>
<stop offset="0.41" stop-color="#1FC936"/>
<stop offset="0.6" stop-color="#06CE6C"/>
<stop offset="0.82" stop-color="#42E09F"/>
<stop offset="1" stop-color="#00E9BB"/>
</linearGradient>
<linearGradient id="paint1_linear_782_36845" x1="9.86523" y1="8.08815" x2="9.95283" y2="8.08815" gradientUnits="userSpaceOnUse">
<stop stop-color="#008100"/>
<stop offset="0.21" stop-color="#29BC26"/>
<stop offset="0.41" stop-color="#1FC936"/>
<stop offset="0.6" stop-color="#06CE6C"/>
<stop offset="0.82" stop-color="#42E09F"/>
<stop offset="1" stop-color="#00E9BB"/>
</linearGradient>
<linearGradient id="paint2_linear_782_36845" x1="-5.53013" y1="-4.54949" x2="19.8433" y2="6.00444" gradientUnits="userSpaceOnUse">
<stop stop-color="#008100"/>
<stop offset="0.21" stop-color="#29BC26"/>
<stop offset="0.41" stop-color="#1FC936"/>
<stop offset="0.6" stop-color="#06CE6C"/>
<stop offset="0.82" stop-color="#42E09F"/>
<stop offset="1" stop-color="#00E9BB"/>
</linearGradient>
<linearGradient id="paint3_linear_782_36845" x1="5.83008" y1="13.965" x2="5.91768" y2="13.965" gradientUnits="userSpaceOnUse">
<stop stop-color="#008100"/>
<stop offset="0.21" stop-color="#29BC26"/>
<stop offset="0.41" stop-color="#1FC936"/>
<stop offset="0.6" stop-color="#06CE6C"/>
<stop offset="0.82" stop-color="#42E09F"/>
<stop offset="1" stop-color="#00E9BB"/>
</linearGradient>
<linearGradient id="paint4_linear_782_36845" x1="-20.4674" y1="7.56218" x2="20.2047" y2="10.4819" gradientUnits="userSpaceOnUse">
<stop stop-color="#008100"/>
<stop offset="0.21" stop-color="#29BC26"/>
<stop offset="0.41" stop-color="#1FC936"/>
<stop offset="0.6" stop-color="#06CE6C"/>
<stop offset="0.82" stop-color="#42E09F"/>
<stop offset="1" stop-color="#00E9BB"/>
</linearGradient>
<linearGradient id="paint5_linear_782_36845" x1="9.8956" y1="11.6817" x2="9.93191" y2="11.6817" gradientUnits="userSpaceOnUse">
<stop stop-color="#008100"/>
<stop offset="0.21" stop-color="#29BC26"/>
<stop offset="0.41" stop-color="#1FC936"/>
<stop offset="0.6" stop-color="#06CE6C"/>
<stop offset="0.82" stop-color="#42E09F"/>
<stop offset="1" stop-color="#00E9BB"/>
</linearGradient>
<linearGradient id="paint6_linear_782_36845" x1="9.95224" y1="8.50647" x2="9.9583" y2="8.50647" gradientUnits="userSpaceOnUse">
<stop stop-color="#008100"/>
<stop offset="0.21" stop-color="#29BC26"/>
<stop offset="0.41" stop-color="#1FC936"/>
<stop offset="0.6" stop-color="#06CE6C"/>
<stop offset="0.82" stop-color="#42E09F"/>
<stop offset="1" stop-color="#00E9BB"/>
</linearGradient>
<linearGradient id="paint7_linear_782_36845" x1="-4.94225" y1="6.90561" x2="43.5656" y2="7.28563" gradientUnits="userSpaceOnUse">
<stop stop-color="#008100"/>
<stop offset="0.21" stop-color="#29BC26"/>
<stop offset="0.41" stop-color="#1FC936"/>
<stop offset="0.6" stop-color="#06CE6C"/>
<stop offset="0.82" stop-color="#42E09F"/>
<stop offset="1" stop-color="#00E9BB"/>
</linearGradient>
<linearGradient id="paint8_linear_782_36845" x1="-0.533918" y1="12.3442" x2="137.645" y2="16.9166" gradientUnits="userSpaceOnUse">
<stop stop-color="#008100"/>
<stop offset="0.21" stop-color="#29BC26"/>
<stop offset="0.41" stop-color="#1FC936"/>
<stop offset="0.6" stop-color="#06CE6C"/>
<stop offset="0.82" stop-color="#42E09F"/>
<stop offset="1" stop-color="#00E9BB"/>
</linearGradient>
<linearGradient id="paint9_linear_782_36845" x1="-10.6447" y1="7.64349" x2="90.5114" y2="-19.1552" gradientUnits="userSpaceOnUse">
<stop stop-color="#008100"/>
<stop offset="0.21" stop-color="#29BC26"/>
<stop offset="0.41" stop-color="#1FC936"/>
<stop offset="0.6" stop-color="#06CE6C"/>
<stop offset="0.82" stop-color="#42E09F"/>
<stop offset="1" stop-color="#00E9BB"/>
</linearGradient>
<linearGradient id="paint10_linear_782_36845" x1="-11.8924" y1="10.6446" x2="51.64" y2="11.1534" gradientUnits="userSpaceOnUse">
<stop stop-color="#008100"/>
<stop offset="0.21" stop-color="#29BC26"/>
<stop offset="0.41" stop-color="#1FC936"/>
<stop offset="0.6" stop-color="#06CE6C"/>
<stop offset="0.82" stop-color="#42E09F"/>
<stop offset="1" stop-color="#00E9BB"/>
</linearGradient>
<linearGradient id="paint11_linear_782_36845" x1="-5.65762" y1="5.2524" x2="1.64944" y2="11.8941" gradientUnits="userSpaceOnUse">
<stop stop-color="#008100"/>
<stop offset="0.21" stop-color="#29BC26"/>
<stop offset="0.41" stop-color="#1FC936"/>
<stop offset="0.6" stop-color="#06CE6C"/>
<stop offset="0.82" stop-color="#42E09F"/>
<stop offset="1" stop-color="#00E9BB"/>
</linearGradient>
<clipPath id="clip0_782_36845">
<rect width="69" height="14" fill="white"/>
</clipPath>
</defs>
</svg>
