<svg width="124" height="15" viewBox="0 0 124 15" fill="none" xmlns="http://www.w3.org/2000/svg">
<g clip-path="url(#clip0_413_2256)">
<mask id="mask0_413_2256" style="mask-type:luminance" maskUnits="userSpaceOnUse" x="0" y="0" width="124" height="14">
<path d="M124 0H0.996094V14H124V0Z" fill="white"/>
</mask>
<g mask="url(#mask0_413_2256)">
<path d="M26.8626 1.05783C25.8531 0.31265 24.6036 -0.0557151 23.34 0.0193328H16.4844C16.5154 0.538408 16.7484 1.02635 17.136 1.38341C17.5236 1.74047 18.0363 1.93968 18.5695 1.94033H22.998C23.6805 1.89269 24.3596 2.07116 24.9252 2.44683C25.1376 2.61189 25.3075 2.82317 25.4212 3.06377C25.5349 3.30436 25.5892 3.56758 25.5799 3.83233C25.584 4.12912 25.5161 4.42265 25.3816 4.68892C25.2472 4.95519 25.05 5.18664 24.8062 5.36433C24.1419 5.80098 23.347 6.00864 22.5479 5.95433H21.2615C22.7992 6.00638 24.3205 6.27898 25.7767 6.76333L25.9013 6.72983C25.9956 6.70483 26.0864 6.67383 26.1756 6.64033C26.2181 6.65933 26.2643 6.67633 26.3058 6.69633C26.7747 6.44071 27.1779 6.08459 27.485 5.65483C27.902 5.09583 28.1197 4.41897 28.1048 3.72783C28.1182 3.21996 28.0131 2.71577 27.7976 2.25326C27.582 1.79075 27.2616 1.382 26.8605 1.05783" fill="#00BE6E"/>
<path d="M19.5209 7.65684C19.2158 7.57809 18.9228 7.4604 18.6493 7.30684C18.5335 7.24242 18.4227 7.1699 18.3176 7.08984C18.0428 7.31738 17.8234 7.60172 17.6754 7.92223C17.5273 8.24273 17.4542 8.59137 17.4614 8.94284V11.4283H18.6437C18.986 11.4257 19.3132 11.2907 19.5535 11.0529C19.7938 10.8152 19.9276 10.4942 19.9254 10.1603V8.59384C19.9264 8.48083 19.9503 8.36912 19.9957 8.26513C20.0411 8.16114 20.1071 8.06691 20.1899 7.98784C20.3132 7.88263 20.4727 7.82689 20.6365 7.83184H20.758C20.3402 7.81896 19.9253 7.75993 19.5209 7.65684Z" fill="#00BE6E"/>
<path d="M27.7856 7.85881C27.3848 7.37048 26.8795 6.9734 26.305 6.69531C24.9577 7.46931 23.0751 7.71881 21.8559 7.79531C19.1495 7.69531 18.6578 7.29831 18.6578 7.29831L18.6476 7.30331C18.921 7.45687 19.2141 7.57456 19.5191 7.65331C19.9236 7.75604 20.3385 7.81457 20.7562 7.82781H21.1448C21.0223 7.83031 20.9141 7.83181 20.8336 7.83181C20.9946 7.83481 21.09 7.83181 21.09 7.83181H23.1217C25.5611 7.83181 25.7903 9.06831 25.7903 9.06831H22.4004C22.3533 9.06831 22.3081 9.08657 22.2748 9.11906C22.2415 9.15155 22.2228 9.19561 22.2228 9.24156C22.2228 9.28751 22.2415 9.33158 22.2748 9.36407C22.3081 9.39656 22.3533 9.41481 22.4004 9.41481H25.8948C25.9487 9.72319 25.9519 10.0379 25.9046 10.3473H21.393C21.3458 10.3473 21.3006 10.3656 21.2672 10.3981C21.2338 10.4307 21.2151 10.4748 21.2151 10.5208C21.2151 10.5668 21.2338 10.611 21.2672 10.6435C21.3006 10.676 21.3458 10.6943 21.393 10.6943H25.8154C25.8154 10.6943 25.5616 11.9493 23.2309 11.9493H18.5655C18.0324 11.95 17.5196 12.1492 17.1321 12.5062C16.7445 12.8633 16.5114 13.3512 16.4805 13.8703H24.0676C25.243 13.937 26.4006 13.5668 27.3073 12.8343C27.6858 12.5008 27.9856 12.0911 28.186 11.6336C28.3864 11.1761 28.4826 10.6816 28.468 10.1843C28.5503 9.3531 28.3059 8.52243 27.7841 7.86031" fill="#008CFF"/>
<path d="M18.2191 7.01653C18.2498 7.04303 18.2847 7.06353 18.317 7.08903C19.6131 5.97703 21.9268 5.95353 21.9488 5.95353C21.5387 5.93903 21.2716 5.93953 21.2603 5.93953C21.0947 5.95377 20.9279 5.93487 20.77 5.88399C20.6122 5.83311 20.4667 5.75133 20.3424 5.64365C20.2181 5.53597 20.1177 5.40468 20.0473 5.2578C19.9769 5.11093 19.938 4.95159 19.933 4.78953H22.9142C22.9614 4.78953 23.0067 4.77125 23.04 4.73872C23.0734 4.70618 23.0921 4.66205 23.0921 4.61603C23.0921 4.57002 23.0734 4.52589 23.04 4.49335C23.0067 4.46081 22.9614 4.44253 22.9142 4.44253H19.9263V3.50053H24.0278C24.0749 3.50053 24.1201 3.48228 24.1534 3.44979C24.1867 3.4173 24.2054 3.37323 24.2054 3.32728C24.2054 3.28133 24.1867 3.23727 24.1534 3.20478C24.1201 3.17229 24.0749 3.15403 24.0278 3.15403H19.8489L19.8458 3.14703C19.767 2.961 19.6332 2.80202 19.4615 2.69029C19.2898 2.57856 19.0879 2.51913 18.8815 2.51953H17.4619V5.18453C17.4348 5.52597 17.4889 5.86888 17.6199 6.18662C17.7509 6.50435 17.9552 6.78835 18.217 7.01653" fill="#008CFF"/>
<path d="M20.8356 7.83453L20.7582 7.83203H20.6367C20.6367 7.83203 20.709 7.83203 20.8356 7.83203" fill="#4489C8"/>
<path d="M25.9538 6.54412C25.5045 6.3868 25.0411 6.2708 24.5696 6.19762C23.7021 6.06097 22.8265 5.9793 21.9482 5.95312C21.9262 5.95312 19.6125 5.97712 18.3164 7.08912C18.6744 7.35595 19.084 7.54933 19.5207 7.65762C19.9504 7.76653 20.3918 7.82577 20.8357 7.83412C21.6047 7.83412 24.4599 7.75662 26.306 6.69612C26.1932 6.64212 26.0769 6.59012 25.9533 6.54612" fill="#0264C8"/>
<path d="M9.29179 0.0976562L3.36314 6.76465V0.0976562H0.996094V13.8707H3.36314V7.20365L9.29179 13.8707H12.6673L6.29876 6.98415L12.6673 0.0976562H9.29179Z" fill="white"/>
<path d="M40.0188 1.7194C39.4844 1.20603 38.8508 0.801204 38.1547 0.528405C37.4083 0.237024 36.6106 0.0907808 35.8067 0.0979045H30.7793V13.8694H35.8067C36.6106 13.8765 37.4083 13.7303 38.1547 13.4389C38.8527 13.1694 39.4872 12.7641 40.0194 12.2478C40.5516 11.7314 40.9704 11.1147 41.2503 10.4354C41.5533 9.70167 41.7051 8.91688 41.6969 8.1259V5.8409C41.7041 5.05164 41.5524 4.26866 41.2503 3.5364C40.9686 2.85647 40.5499 2.2386 40.0188 1.7194ZM39.3267 8.1254C39.3329 8.60471 39.247 9.08091 39.0735 9.5294C38.9132 9.93664 38.6667 10.3064 38.3501 10.6144C38.031 10.9196 37.6511 11.1579 37.234 11.3144C36.7773 11.4838 36.2921 11.5677 35.8036 11.5619H33.1463V2.4049H35.8067C36.2951 2.39922 36.7804 2.48318 37.237 2.6524C37.6542 2.80902 38.034 3.04724 38.3531 3.3524C38.6705 3.66186 38.917 4.03334 39.0765 4.4424C39.2492 4.88973 39.3351 5.36446 39.3298 5.8424L39.3267 8.1254Z" fill="white"/>
<path d="M53.5711 8.55215C53.4583 8.18837 53.2898 7.84332 53.0712 7.52866C52.8696 7.24148 52.6259 6.98473 52.3478 6.76665C52.0821 6.55881 51.7926 6.38179 51.485 6.23915C51.1939 6.10347 50.8881 6 50.5734 5.93066C50.2885 5.86625 49.9978 5.8294 49.7055 5.82065H47.3035C47.075 5.83246 46.8465 5.7976 46.6326 5.7183C46.4187 5.639 46.2241 5.51702 46.0613 5.36015C45.7511 5.02148 45.5901 4.57725 45.6132 4.12365C45.5928 3.66951 45.7528 3.22519 46.0598 2.88315C46.2202 2.72177 46.4142 2.59574 46.6288 2.51356C46.8433 2.43137 47.0734 2.39492 47.3035 2.40665H52.4442V0.0976562H47.3035C46.8528 0.104595 46.4056 0.176886 45.9767 0.312156C45.4743 0.463687 45.0088 0.713395 44.6086 1.04606C44.2083 1.37873 43.8817 1.78739 43.6486 2.24715C43.3634 2.83237 43.2254 3.4755 43.2462 4.12315C43.2256 4.77245 43.3637 5.4172 43.6491 6.00415C43.891 6.48344 44.235 6.90687 44.6581 7.24615C45.0491 7.5548 45.4965 7.78842 45.9767 7.93465C46.4056 8.06992 46.8528 8.14221 47.3035 8.14915H49.687C49.9264 8.14661 50.164 8.18923 50.3868 8.27465C50.5924 8.35478 50.7777 8.47763 50.9297 8.63465C51.0792 8.79302 51.195 8.97879 51.2702 9.18116C51.3499 9.40091 51.3896 9.63256 51.3876 9.86565C51.409 10.3175 51.2482 10.7596 50.9395 11.0972C50.7758 11.2561 50.5798 11.3796 50.364 11.4598C50.1482 11.54 49.9176 11.5751 49.687 11.5627H43.6676V13.8707H49.687C49.9801 13.8683 50.2722 13.8363 50.5586 13.7752C50.8724 13.71 51.178 13.6113 51.4696 13.4807C51.7781 13.3419 52.0694 13.1695 52.3381 12.9667C52.6195 12.7544 52.8642 12.4995 53.063 12.2117C53.2804 11.8941 53.4492 11.5473 53.5639 11.1822C53.6956 10.755 53.7596 10.3107 53.7536 9.86465C53.7597 9.42025 53.6973 8.97749 53.5685 8.55116" fill="white"/>
<path d="M26.9374 1.0934C25.9308 0.350562 24.685 -0.0165591 23.425 0.058402H16.5879C16.6188 0.575588 16.851 1.06177 17.2369 1.41773C17.6229 1.7737 18.1336 1.97262 18.6648 1.9739H23.081C23.7615 1.9264 24.4386 2.10434 25.0025 2.4789C25.2153 2.6433 25.3854 2.85417 25.4992 3.09449C25.613 3.33481 25.6673 3.59785 25.6577 3.8624C25.6621 4.15811 25.5947 4.45062 25.461 4.71608C25.3274 4.98155 25.1313 5.21243 24.8887 5.3899C24.226 5.82494 23.4334 6.03171 22.6365 5.9774H21.3548C22.8881 6.02916 24.4053 6.30126 25.8572 6.7849L25.9823 6.7509C26.0761 6.7259 26.1663 6.6954 26.2555 6.6619C26.2981 6.6809 26.3442 6.6979 26.3852 6.7179C26.854 6.46327 27.2572 6.10797 27.5644 5.6789C27.9803 5.12172 28.1973 4.4469 28.1822 3.7579C28.1956 3.2515 28.091 2.74872 27.8762 2.2875C27.6614 1.82628 27.3419 1.41867 26.942 1.0954" fill="#00BE6E"/>
<path d="M19.6169 7.67587C19.3118 7.59714 19.0188 7.47946 18.7453 7.32587C18.6299 7.26148 18.5194 7.18914 18.4146 7.10938C18.1408 7.33674 17.9223 7.62074 17.775 7.94073C17.6277 8.26073 17.5553 8.60869 17.5631 8.95937V11.4379H18.7422C19.0834 11.435 19.4094 11.3002 19.6487 11.0632C19.888 10.8261 20.0211 10.5061 20.0188 10.1734V8.61037C20.0212 8.38271 20.1162 8.16528 20.2828 8.00587C20.4061 7.90105 20.5654 7.8455 20.7289 7.85037H20.8499C20.4335 7.83737 20.0199 7.77851 19.6169 7.67587Z" fill="#00BE6E"/>
<path d="M27.8588 7.8773C27.4592 7.39017 26.9553 6.99409 26.3823 6.7168C25.0385 7.4888 23.1616 7.7373 21.946 7.8168C19.2473 7.7168 18.7566 7.3213 18.7566 7.3213L18.7469 7.3263C19.0204 7.47971 19.3135 7.59739 19.6184 7.6763C20.0219 7.77893 20.4358 7.8373 20.8525 7.8503H21.2401C21.118 7.8528 21.0104 7.8543 20.9325 7.8543C21.0924 7.8573 21.1888 7.8543 21.1888 7.8543H23.2154C25.6476 7.8543 25.8757 9.0873 25.8757 9.0873H22.492C22.4451 9.0873 22.4001 9.10547 22.367 9.13782C22.3338 9.17017 22.3152 9.21405 22.3152 9.2598C22.3152 9.30555 22.3338 9.34942 22.367 9.38177C22.4001 9.41412 22.4451 9.4323 22.492 9.4323H25.9783C26.0317 9.73988 26.0348 10.0538 25.9875 10.3623H21.4846C21.4605 10.361 21.4365 10.3646 21.4139 10.3727C21.3912 10.3808 21.3706 10.3933 21.3531 10.4095C21.3356 10.4257 21.3216 10.4451 21.3121 10.4667C21.3026 10.4883 21.2977 10.5116 21.2977 10.5351C21.2977 10.5586 21.3026 10.5818 21.3121 10.6034C21.3216 10.625 21.3356 10.6445 21.3531 10.6606C21.3706 10.6768 21.3912 10.6893 21.4139 10.6974C21.4365 10.7055 21.4605 10.7091 21.4846 10.7078H25.8937C25.8937 10.7078 25.6414 11.9578 23.3169 11.9578H18.6649C18.1333 11.9586 17.6221 12.1573 17.2357 12.5133C16.8493 12.8693 16.6169 13.3558 16.5859 13.8733H24.1506C25.3223 13.9396 26.4763 13.5707 27.3805 12.8408C27.7582 12.5081 28.0574 12.0994 28.2574 11.6429C28.4574 11.1864 28.5533 10.693 28.5386 10.1968C28.6205 9.36787 28.3766 8.53954 27.8562 7.8793" fill="#008CFF"/>
<path d="M18.3169 7.03528C18.3477 7.06178 18.3825 7.08228 18.4148 7.10778C19.7068 5.99878 22.0144 5.97578 22.0364 5.97478C21.6263 5.96078 21.3612 5.96178 21.3499 5.96178C21.1845 5.97596 21.0179 5.95699 20.8603 5.90605C20.7027 5.85511 20.5574 5.77327 20.4334 5.66556C20.3094 5.55785 20.2094 5.42654 20.1393 5.27972C20.0693 5.1329 20.0308 4.97365 20.0262 4.81178H22.9997C23.0451 4.8094 23.0877 4.79017 23.119 4.75803C23.1502 4.72589 23.1676 4.68331 23.1676 4.63903C23.1676 4.59476 23.1502 4.55217 23.119 4.52004C23.0877 4.4879 23.0451 4.46866 22.9997 4.46628H20.019V3.52928H24.1107C24.156 3.5269 24.1987 3.50767 24.2299 3.47553C24.2612 3.44339 24.2786 3.40081 24.2786 3.35653C24.2786 3.31226 24.2612 3.26967 24.2299 3.23754C24.1987 3.2054 24.156 3.18616 24.1107 3.18378H19.9421L19.939 3.17528C19.8601 2.99012 19.7266 2.83196 19.5555 2.72079C19.3844 2.60963 19.1833 2.55046 18.9777 2.55078H17.5633V5.20828C17.5366 5.54873 17.5907 5.89059 17.7214 6.20734C17.8521 6.52409 18.0559 6.80773 18.3169 7.03528Z" fill="#008CFF"/>
<path d="M20.9289 7.85016L20.8515 7.84766H20.7305C20.7305 7.84766 20.8028 7.84766 20.9289 7.84766" fill="#0096FF"/>
<path d="M26.0309 6.56606C25.5835 6.40906 25.1219 6.29354 24.6523 6.22106C23.7871 6.08434 22.9137 6.00267 22.0376 5.97656C22.0156 5.97656 19.708 6.00056 18.416 7.10856C18.7728 7.375 19.1812 7.56807 19.6167 7.67606C20.0453 7.78471 20.4854 7.84361 20.9282 7.85156C21.6972 7.85156 24.5426 7.77406 26.3826 6.71706C26.2703 6.66306 26.1539 6.61206 26.0314 6.56706" fill="#0264C8"/>
<path d="M15.3337 5.83008H10.5996V8.13858H15.3337V5.83008Z" fill="white"/>
</g>
<path d="M58.5781 8.34375H60.6484C61.0391 8.34375 61.3685 8.40755 61.6367 8.53516C61.9049 8.66276 62.1055 8.83854 62.2383 9.0625C62.3711 9.28646 62.4375 9.54167 62.4375 9.82812C62.4375 10.1589 62.349 10.4232 62.1719 10.6211C61.9974 10.8164 61.7682 10.9505 61.4844 11.0234V11.0781C61.6797 11.0885 61.8672 11.151 62.0469 11.2656C62.2266 11.3802 62.3724 11.5417 62.4844 11.75C62.599 11.9557 62.6562 12.1979 62.6562 12.4766C62.6562 12.7734 62.5872 13.0365 62.4492 13.2656C62.3112 13.4948 62.099 13.6745 61.8125 13.8047C61.526 13.9349 61.1693 14 60.7422 14H58.5781V8.34375ZM60.6641 13.2656C61.0521 13.263 61.3385 13.1875 61.5234 13.0391C61.7109 12.888 61.8047 12.6875 61.8047 12.4375C61.8047 12.2552 61.7591 12.0898 61.668 11.9414C61.5768 11.793 61.4466 11.6758 61.2773 11.5898C61.1107 11.5039 60.9167 11.4609 60.6953 11.4609H59.4375V13.2656H60.6641ZM60.5781 10.7891C60.7682 10.7865 60.9401 10.7487 61.0938 10.6758C61.25 10.6029 61.3724 10.5 61.4609 10.3672C61.5495 10.2318 61.5938 10.0755 61.5938 9.89844C61.5938 9.65365 61.5078 9.45573 61.3359 9.30469C61.1667 9.15365 60.9193 9.07812 60.5938 9.07812H59.4375V10.7891H60.5781ZM64.3575 14H63.4981V8.34375H64.3575V14ZM70.34 11.1719C70.34 11.763 70.2306 12.2786 70.0119 12.7188C69.7931 13.1562 69.4897 13.4922 69.1017 13.7266C68.7163 13.9609 68.2801 14.0781 67.7931 14.0781C67.3009 14.0781 66.8608 13.9609 66.4728 13.7266C66.0874 13.4896 65.7853 13.1523 65.5666 12.7148C65.3478 12.2747 65.2384 11.7604 65.2384 11.1719C65.2384 10.5807 65.3478 10.0664 65.5666 9.62891C65.7853 9.1888 66.0874 8.85156 66.4728 8.61719C66.8608 8.38281 67.3009 8.26562 67.7931 8.26562C68.2801 8.26562 68.7163 8.38281 69.1017 8.61719C69.4897 8.85156 69.7931 9.1888 70.0119 9.62891C70.2306 10.0664 70.34 10.5807 70.34 11.1719ZM66.09 11.1719C66.09 11.6198 66.1629 12.0039 66.3088 12.3242C66.4572 12.6419 66.659 12.8828 66.9142 13.0469C67.172 13.2109 67.465 13.2917 67.7931 13.2891C68.1186 13.2917 68.409 13.2109 68.6642 13.0469C68.922 12.8828 69.1239 12.6419 69.2697 12.3242C69.4155 12.0039 69.4884 11.6198 69.4884 11.1719C69.4884 10.724 69.4155 10.3411 69.2697 10.0234C69.1239 9.70312 68.922 9.46094 68.6642 9.29688C68.409 9.13281 68.1186 9.05208 67.7931 9.05469C67.465 9.05208 67.172 9.13281 66.9142 9.29688C66.659 9.46094 66.4572 9.70312 66.3088 10.0234C66.1629 10.3411 66.09 10.724 66.09 11.1719ZM71.2288 14V8.34375H73.1194C73.6715 8.34375 74.1467 8.45703 74.5452 8.68359C74.9462 8.90755 75.2522 9.23177 75.4631 9.65625C75.6767 10.0781 75.7834 10.5807 75.7834 11.1641C75.7834 11.75 75.6754 12.2565 75.4592 12.6836C75.2457 13.1081 74.9358 13.4336 74.5295 13.6602C74.1233 13.8867 73.635 14 73.0647 14H71.2288ZM73.0178 13.25C73.6532 13.2474 74.1311 13.0677 74.4514 12.7109C74.7717 12.3542 74.9319 11.8385 74.9319 11.1641C74.9319 10.4922 74.773 9.97917 74.4553 9.625C74.1402 9.27083 73.6767 9.09375 73.0647 9.09375H72.0881V13.25H73.0178ZM75.9534 14L77.9847 8.34375H78.9769L81.0159 14H80.1019L79.5863 12.5078H77.3831L76.8675 14H75.9534ZM79.3363 11.7891L78.5003 9.375H78.4613L77.6292 11.7891H79.3363ZM80.6938 8.34375H85.0766V9.08594H83.3188V14H82.4594V9.08594H80.6938V8.34375ZM84.7622 14L86.7934 8.34375H87.7856L89.8247 14H88.9106L88.395 12.5078H86.1919L85.6763 14H84.7622ZM88.145 11.7891L87.3091 9.375H87.27L86.438 11.7891H88.145ZM95.4147 9.83594C95.3886 9.57552 95.2702 9.3724 95.0592 9.22656C94.8483 9.08073 94.5788 9.00781 94.2506 9.00781C94.0241 9.00781 93.8248 9.04427 93.653 9.11719C93.4837 9.1875 93.3522 9.28646 93.2584 9.41406C93.1647 9.54167 93.1178 9.6849 93.1178 9.84375C93.1178 10.0833 93.2168 10.2682 93.4147 10.3984C93.6126 10.5286 93.8574 10.6276 94.1491 10.6953L94.6959 10.8438C95.7819 11.1068 96.3261 11.638 96.3288 12.4375C96.3261 12.7578 96.2415 13.043 96.0748 13.293C95.9108 13.543 95.6699 13.7396 95.3522 13.8828C95.0371 14.0234 94.6621 14.0938 94.2272 14.0938C93.8079 14.0938 93.442 14.0273 93.1295 13.8945C92.8196 13.7591 92.5761 13.5664 92.3991 13.3164C92.2246 13.0664 92.1282 12.7708 92.11 12.4297H92.9694C92.9928 12.7266 93.1204 12.9531 93.3522 13.1094C93.5866 13.263 93.8782 13.3411 94.2272 13.3438C94.4668 13.3438 94.6803 13.306 94.8678 13.2305C95.0579 13.1523 95.2064 13.0443 95.3131 12.9062C95.4225 12.7656 95.4772 12.6042 95.4772 12.4219C95.4772 12.2656 95.4316 12.1341 95.3405 12.0273C95.2493 11.9206 95.1269 11.8333 94.9733 11.7656C94.8222 11.6953 94.6334 11.6302 94.4069 11.5703L93.735 11.3906C93.261 11.2604 92.8965 11.0729 92.6413 10.8281C92.3886 10.5833 92.261 10.2708 92.2584 9.89062C92.2584 9.57031 92.3457 9.28776 92.5202 9.04297C92.6972 8.79557 92.9381 8.60417 93.2428 8.46875C93.5501 8.33333 93.8939 8.26562 94.2741 8.26562C94.6517 8.26562 94.9889 8.33333 95.2858 8.46875C95.5827 8.60156 95.8157 8.78776 95.985 9.02734C96.1543 9.26432 96.2428 9.53385 96.2506 9.83594H95.4147ZM96.8894 8.34375H101.272V9.08594H99.5144V14H98.655V9.08594H96.8894V8.34375ZM100.958 14L102.989 8.34375H103.981L106.02 14H105.106L104.591 12.5078H102.388L101.872 14H100.958ZM104.341 11.7891L103.505 9.375H103.466L102.634 11.7891H104.341ZM105.698 8.34375H110.081V9.08594H108.323V14H107.464V9.08594H105.698V8.34375ZM111.735 14H110.876V8.34375H111.735V14ZM117.718 11.1719C117.718 11.763 117.608 12.2786 117.39 12.7188C117.171 13.1562 116.868 13.4922 116.48 13.7266C116.094 13.9609 115.658 14.0781 115.171 14.0781C114.679 14.0781 114.239 13.9609 113.851 13.7266C113.465 13.4896 113.163 13.1523 112.944 12.7148C112.726 12.2747 112.616 11.7604 112.616 11.1719C112.616 10.5807 112.726 10.0664 112.944 9.62891C113.163 9.1888 113.465 8.85156 113.851 8.61719C114.239 8.38281 114.679 8.26562 115.171 8.26562C115.658 8.26562 116.094 8.38281 116.48 8.61719C116.868 8.85156 117.171 9.1888 117.39 9.62891C117.608 10.0664 117.718 10.5807 117.718 11.1719ZM113.468 11.1719C113.468 11.6198 113.541 12.0039 113.687 12.3242C113.835 12.6419 114.037 12.8828 114.292 13.0469C114.55 13.2109 114.843 13.2917 115.171 13.2891C115.496 13.2917 115.787 13.2109 116.042 13.0469C116.3 12.8828 116.502 12.6419 116.647 12.3242C116.793 12.0039 116.866 11.6198 116.866 11.1719C116.866 10.724 116.793 10.3411 116.647 10.0234C116.502 9.70312 116.3 9.46094 116.042 9.29688C115.787 9.13281 115.496 9.05208 115.171 9.05469C114.843 9.05208 114.55 9.13281 114.292 9.29688C114.037 9.46094 113.835 9.70312 113.687 10.0234C113.541 10.3411 113.468 10.724 113.468 11.1719ZM123.169 14H122.38L119.513 9.86719H119.466V14H118.607V8.34375H119.403L122.271 12.4844H122.325V8.34375H123.169V14Z" fill="white"/>
<path d="M58.5781 0.34375H59.4375V3.03906H59.5078L61.875 0.34375H62.9531L60.6719 2.89062L62.9609 6H61.9219L60.1016 3.47656L59.4375 4.24219V6H58.5781V0.34375ZM68.2091 3.17188C68.2091 3.76302 68.0997 4.27865 67.8809 4.71875C67.6622 5.15625 67.3588 5.49219 66.9708 5.72656C66.5854 5.96094 66.1492 6.07812 65.6622 6.07812C65.17 6.07812 64.7299 5.96094 64.3419 5.72656C63.9565 5.48958 63.6544 5.15234 63.4356 4.71484C63.2169 4.27474 63.1075 3.76042 63.1075 3.17188C63.1075 2.58073 63.2169 2.06641 63.4356 1.62891C63.6544 1.1888 63.9565 0.851562 64.3419 0.617188C64.7299 0.382812 65.17 0.265625 65.6622 0.265625C66.1492 0.265625 66.5854 0.382812 66.9708 0.617188C67.3588 0.851562 67.6622 1.1888 67.8809 1.62891C68.0997 2.06641 68.2091 2.58073 68.2091 3.17188ZM63.9591 3.17188C63.9591 3.61979 64.032 4.00391 64.1778 4.32422C64.3263 4.64193 64.5281 4.88281 64.7833 5.04688C65.0411 5.21094 65.3341 5.29167 65.6622 5.28906C65.9877 5.29167 66.2781 5.21094 66.5333 5.04688C66.7911 4.88281 66.9929 4.64193 67.1388 4.32422C67.2846 4.00391 67.3575 3.61979 67.3575 3.17188C67.3575 2.72396 67.2846 2.34115 67.1388 2.02344C66.9929 1.70312 66.7911 1.46094 66.5333 1.29688C66.2781 1.13281 65.9877 1.05208 65.6622 1.05469C65.3341 1.05208 65.0411 1.13281 64.7833 1.29688C64.5281 1.46094 64.3263 1.70312 64.1778 2.02344C64.032 2.34115 63.9591 2.72396 63.9591 3.17188ZM69.0978 0.34375H71.1134C71.5405 0.34375 71.9012 0.417969 72.1955 0.566406C72.4897 0.714844 72.7098 0.921875 72.8556 1.1875C73.0015 1.45312 73.0744 1.76302 73.0744 2.11719C73.0744 2.5026 72.9871 2.83333 72.8127 3.10938C72.6382 3.38281 72.3817 3.58464 72.0431 3.71484L73.2931 6H72.3166L71.1681 3.86719H71.1134H69.9572V6H69.0978V0.34375ZM71.0275 3.125C71.4338 3.1224 71.7319 3.03646 71.922 2.86719C72.1121 2.69531 72.2072 2.44531 72.2072 2.11719C72.2072 1.78646 72.1108 1.53125 71.9181 1.35156C71.728 1.17188 71.4311 1.08073 71.0275 1.07812H69.9572V3.125H71.0275ZM73.9475 0.34375H77.4944V1.08594H74.8069V2.79688H77.3069V3.53125H74.8069V5.25781H77.5256V6H73.9475V0.34375ZM78.0394 6L80.0706 0.34375H81.0628L83.1019 6H82.1878L81.6722 4.50781H79.4691L78.9534 6H78.0394ZM81.4222 3.78906L80.5863 1.375H80.5472L79.7152 3.78906H81.4222Z" fill="white"/>
</g>
<defs>
<clipPath id="clip0_413_2256">
<rect width="124" height="15" fill="white"/>
</clipPath>
</defs>
</svg>
