<svg width="164" height="14" viewBox="0 0 164 14" fill="none" xmlns="http://www.w3.org/2000/svg">
<mask id="mask0_782_36891" style="mask-type:luminance" maskUnits="userSpaceOnUse" x="-1" y="0" width="165" height="14">
<path d="M163.152 0H-0.00390625V14H163.152V0Z" fill="white"/>
</mask>
<g mask="url(#mask0_782_36891)">
<path d="M25.8626 1.05734C24.8531 0.312162 23.6036 -0.0562034 22.34 0.0188445H15.4844C15.5154 0.53792 15.7484 1.02586 16.136 1.38292C16.5236 1.73998 17.0363 1.93919 17.5695 1.93984H21.998C22.6805 1.8922 23.3596 2.07067 23.9252 2.44634C24.1376 2.6114 24.3075 2.82268 24.4212 3.06328C24.5349 3.30387 24.5892 3.56709 24.5799 3.83184C24.584 4.12863 24.5161 4.42216 24.3816 4.68843C24.2472 4.9547 24.05 5.18615 23.8062 5.36384C23.1419 5.80049 22.347 6.00815 21.5479 5.95384H20.2615C21.7992 6.00589 23.3205 6.27849 24.7767 6.76284L24.9013 6.72934C24.9956 6.70434 25.0864 6.67334 25.1756 6.63984C25.2181 6.65884 25.2643 6.67584 25.3058 6.69584C25.7747 6.44022 26.1779 6.0841 26.485 5.65434C26.902 5.09534 27.1197 4.41848 27.1048 3.72734C27.1182 3.21947 27.0131 2.71528 26.7976 2.25277C26.582 1.79026 26.2616 1.38151 25.8605 1.05734" fill="#00BE6E"/>
<path d="M18.5209 7.65684C18.2158 7.57809 17.9228 7.4604 17.6493 7.30684C17.5335 7.24242 17.4227 7.1699 17.3176 7.08984C17.0428 7.31738 16.8234 7.60172 16.6754 7.92223C16.5273 8.24273 16.4542 8.59137 16.4614 8.94284V11.4283H17.6437C17.986 11.4257 18.3132 11.2907 18.5535 11.0529C18.7938 10.8152 18.9276 10.4942 18.9254 10.1603V8.59384C18.9264 8.48083 18.9503 8.36912 18.9957 8.26513C19.0411 8.16114 19.1071 8.06691 19.1899 7.98784C19.3132 7.88263 19.4727 7.82689 19.6365 7.83184H19.758C19.3402 7.81896 18.9253 7.76043 18.5209 7.65734" fill="#00BE6E"/>
<path d="M26.7856 7.85881C26.3848 7.37048 25.8795 6.9734 25.305 6.69531C23.9577 7.46931 22.0751 7.71881 20.8559 7.79531C18.1495 7.69531 17.6578 7.29831 17.6578 7.29831L17.6476 7.30331C17.921 7.45687 18.2141 7.57456 18.5191 7.65331C18.9236 7.75604 19.3385 7.81457 19.7562 7.82781H20.1448C20.0223 7.83031 19.9141 7.83181 19.8336 7.83181C19.9946 7.83481 20.09 7.83181 20.09 7.83181H22.1217C24.5611 7.83181 24.7903 9.06831 24.7903 9.06831H21.4004C21.3533 9.06831 21.3081 9.08657 21.2748 9.11906C21.2415 9.15155 21.2228 9.19561 21.2228 9.24156C21.2228 9.28751 21.2415 9.33158 21.2748 9.36407C21.3081 9.39656 21.3533 9.41481 21.4004 9.41481H24.8948C24.9487 9.72319 24.9519 10.0379 24.9046 10.3473H20.393C20.3458 10.3473 20.3006 10.3656 20.2672 10.3981C20.2338 10.4307 20.2151 10.4748 20.2151 10.5208C20.2151 10.5668 20.2338 10.611 20.2672 10.6435C20.3006 10.676 20.3458 10.6943 20.393 10.6943H24.8154C24.8154 10.6943 24.5616 11.9493 22.2309 11.9493H17.5655C17.0324 11.95 16.5196 12.1492 16.1321 12.5062C15.7445 12.8633 15.5114 13.3512 15.4805 13.8703H23.0676C24.243 13.937 25.4006 13.5668 26.3073 12.8343C26.6858 12.5008 26.9856 12.0911 27.186 11.6336C27.3864 11.1761 27.4826 10.6816 27.468 10.1843C27.5503 9.3531 27.3059 8.52243 26.7841 7.86031" fill="#008CFF"/>
<path d="M17.2191 7.01653C17.2498 7.04303 17.2847 7.06353 17.317 7.08903C18.6131 5.97703 20.9268 5.95353 20.9488 5.95353C20.5387 5.93903 20.2716 5.93953 20.2603 5.93953C20.0947 5.95377 19.9279 5.93487 19.77 5.88399C19.6122 5.83311 19.4667 5.75133 19.3424 5.64365C19.2181 5.53597 19.1177 5.40468 19.0473 5.2578C18.9769 5.11093 18.938 4.95159 18.933 4.78953H21.9142C21.9614 4.78953 22.0067 4.77125 22.04 4.73872C22.0734 4.70618 22.0921 4.66205 22.0921 4.61603C22.0921 4.57002 22.0734 4.52589 22.04 4.49335C22.0067 4.46081 21.9614 4.44253 21.9142 4.44253H18.9263V3.50053H23.0278C23.0749 3.50053 23.1201 3.48228 23.1534 3.44979C23.1867 3.4173 23.2054 3.37323 23.2054 3.32728C23.2054 3.28133 23.1867 3.23727 23.1534 3.20478C23.1201 3.17229 23.0749 3.15403 23.0278 3.15403H18.8489L18.8458 3.14703C18.767 2.961 18.6332 2.80202 18.4615 2.69029C18.2898 2.57856 18.0879 2.51913 17.8815 2.51953H16.4619V5.18453C16.4348 5.52597 16.4889 5.86888 16.6199 6.18662C16.7509 6.50435 16.9552 6.78835 17.217 7.01653" fill="#008CFF"/>
<path d="M19.8356 7.83453L19.7582 7.83203H19.6367C19.6367 7.83203 19.709 7.83203 19.8356 7.83203" fill="#4489C8"/>
<path d="M24.9538 6.54412C24.5045 6.3868 24.0411 6.2708 23.5696 6.19762C22.7021 6.06097 21.8265 5.9793 20.9482 5.95312C20.9262 5.95312 18.6125 5.97712 17.3164 7.08912C17.6744 7.35595 18.084 7.54933 18.5207 7.65762C18.9504 7.76653 19.3918 7.82577 19.8357 7.83412C20.6047 7.83412 23.4599 7.75662 25.306 6.69612C25.1932 6.64212 25.0769 6.59012 24.9533 6.54612" fill="#0264C8"/>
<path d="M56.6328 8.94059H64.3948V9.81159H61.0321V11.1736H63.835V13.9996H62.7993V12.0446H57.146V11.1736H59.996V9.81159H56.6328V8.94059ZM62.7988 6.44059H57.146V5.55859H63.8345V6.99459C63.8419 7.473 63.781 7.95009 63.6535 8.41209H62.6466C62.7573 7.96009 62.809 7.49624 62.8004 7.03159L62.7988 6.44059Z" fill="white"/>
<path d="M68.6225 6.49453H65.4685V5.60503H69.6494V7.30103C69.7142 8.7007 69.3593 10.0884 68.6282 11.2945C67.8732 12.3631 66.7248 13.1066 65.4219 13.37V12.415C67.5557 11.815 68.6227 10.1504 68.6231 7.42103L68.6225 6.49453ZM72.2047 8.88503H73.5535V9.76553H72.2047V13.861H71.169V5.45703H72.2047V8.88503Z" fill="white"/>
<path d="M79.3684 8.57953V5.60503H80.3938V13.2955H76.2129V5.60503H77.2383V8.57953H79.3684ZM79.3684 9.45053H77.2403V12.424H79.3684V9.45053ZM82.9506 8.88503H84.2994V9.76553H82.9506V13.861H81.9149V5.45703H82.9506V8.88503Z" fill="white"/>
<path d="M85.4289 6.11546C85.6117 5.89711 85.8445 5.7238 86.1087 5.60957C86.3729 5.49534 86.661 5.4434 86.9496 5.45796C87.2391 5.44536 87.5277 5.49814 87.7929 5.61218C88.0581 5.72623 88.2927 5.89847 88.4784 6.11546C88.9476 6.6778 89.1819 7.78346 89.1813 9.43246C89.1806 11.0815 88.9463 12.1871 88.4784 12.7495C88.2914 12.9638 88.056 13.133 87.7908 13.2438C87.5256 13.3547 87.2377 13.4042 86.9496 13.3885C86.6624 13.4061 86.3751 13.3574 86.1108 13.2464C85.8466 13.1354 85.613 12.9651 85.4289 12.7495C84.9604 12.1871 84.7262 11.0815 84.7266 9.43246C84.7269 7.78346 84.961 6.6778 85.4289 6.11546ZM87.6996 6.68096C87.6153 6.56524 87.5022 6.47222 87.3711 6.41058C87.2399 6.34894 87.0949 6.32069 86.9496 6.32846C86.8044 6.32331 86.6602 6.35272 86.5293 6.41414C86.3985 6.47555 86.2849 6.56714 86.1985 6.68096C85.9008 7.06996 85.7519 7.98663 85.7519 9.43096C85.7519 10.8753 85.9008 11.7956 86.1985 12.192C86.289 12.3001 86.4038 12.3864 86.5341 12.4441C86.6643 12.5019 86.8065 12.5296 86.9496 12.525C87.0928 12.5321 87.2357 12.5055 87.3662 12.4476C87.4967 12.3896 87.6111 12.302 87.6996 12.192C88.0038 11.809 88.1557 10.8886 88.1554 9.43096C88.155 7.9733 88.0031 7.05663 87.6996 6.68096ZM91.7093 13.8615H90.6737V5.45746H91.7093V13.8615Z" fill="white"/>
<path d="M94.1896 6.24349C95.0162 5.76451 95.9598 5.51172 96.9212 5.51172C97.8826 5.51172 98.8263 5.76451 99.6528 6.24349C99.9259 6.45556 100.145 6.72681 100.291 7.03572C100.438 7.34462 100.509 7.68266 100.499 8.02299C100.51 8.36454 100.439 8.7039 100.292 9.01417C100.145 9.32444 99.9264 9.59708 99.6528 9.81049C99.0093 10.2611 98.2403 10.51 97.4483 10.524V12.6185H100.738V13.4895H93.0879V12.6185H96.4203V10.5245C95.6178 10.5205 94.8369 10.2709 94.1876 9.81099C93.9128 9.59856 93.6931 9.32609 93.5463 9.01558C93.3994 8.70507 93.3295 8.36522 93.3422 8.02349C93.3302 7.68301 93.4005 7.34457 93.5474 7.03546C93.6942 6.72635 93.9135 6.45524 94.1876 6.24399M94.91 9.14399C95.5222 9.48399 96.2146 9.66278 96.9192 9.66278C97.6237 9.66278 98.3161 9.48399 98.9284 9.14399C99.1013 9.01118 99.2396 8.84043 99.3321 8.64564C99.4246 8.45084 99.4686 8.23751 99.4605 8.02299C99.4657 7.80881 99.4204 7.59631 99.3282 7.40188C99.2359 7.20744 99.0991 7.03625 98.9284 6.90149C98.3141 6.56744 97.6225 6.39209 96.9192 6.39209C96.2159 6.39209 95.5242 6.56744 94.91 6.90149C94.7389 7.03605 94.602 7.2072 94.5097 7.40169C94.4174 7.59617 94.3723 7.80876 94.3778 8.02299C94.3696 8.23752 94.4136 8.4509 94.5061 8.64571C94.5986 8.84053 94.7369 9.01126 94.91 9.14399Z" fill="white"/>
<path d="M103.119 13.2965V5.60597H106.206V6.49497H104.126V12.416H105.323C105.778 12.4331 106.233 12.38 106.672 12.2585V13.092C106.22 13.2452 105.743 13.3144 105.266 13.296L103.119 13.2965ZM107.385 13.7595V9.69197H105.704V8.81197H107.385V5.51197H108.392V13.7595H107.385ZM109.179 5.45947H110.186V13.862H109.18L109.179 5.45947Z" fill="white"/>
<path d="M112.324 6.11543C112.506 5.89717 112.739 5.72392 113.003 5.6097C113.268 5.49548 113.556 5.44349 113.844 5.45793C114.133 5.44567 114.422 5.49861 114.687 5.61264C114.951 5.72668 115.186 5.89872 115.371 6.11543C115.84 6.67776 116.074 7.78343 116.074 9.43243C116.074 11.0814 115.84 12.1873 115.371 12.7499C115.184 12.9642 114.949 13.1333 114.684 13.2442C114.418 13.355 114.13 13.4046 113.842 13.3889C113.555 13.4065 113.268 13.3578 113.003 13.2468C112.739 13.1357 112.506 12.9655 112.322 12.7499C111.853 12.1876 111.619 11.0819 111.619 9.43293C111.619 7.78393 111.853 6.67826 112.322 6.11593M114.593 6.68143C114.508 6.56562 114.395 6.47256 114.264 6.41092C114.132 6.34929 113.987 6.32108 113.842 6.32893C113.697 6.32385 113.553 6.3533 113.422 6.41472C113.291 6.47614 113.178 6.56768 113.092 6.68143C112.794 7.07043 112.645 7.98709 112.645 9.43143C112.644 10.8758 112.793 11.7961 113.092 12.1924C113.182 12.3005 113.297 12.3868 113.427 12.4446C113.557 12.5023 113.699 12.53 113.842 12.5254C113.985 12.5327 114.128 12.5062 114.259 12.4482C114.389 12.3903 114.504 12.3026 114.593 12.1924C114.897 11.8094 115.049 10.8891 115.048 9.43143C115.048 7.97376 114.896 7.05709 114.593 6.68143ZM118.602 13.8619H117.566V5.45743H118.602V13.8619Z" fill="white"/>
<path d="M120.277 13.2955V5.60503H124.41V6.49503H121.303V8.96903H124.049V9.84903H121.303V12.415H123.573C124.138 12.437 124.702 12.3715 125.246 12.221V13.0545C124.692 13.2365 124.11 13.3181 123.526 13.295L120.277 13.2955ZM127.155 13.861H126.12V9.71953H124.495V8.83903H126.12V5.45703H127.155V13.861Z" fill="white"/>
<path d="M130.156 12.6196H137.804V13.4906H130.156V12.6196ZM132.574 9.74709C131.883 10.1805 131.109 10.4737 130.299 10.6091V9.70909C131.186 9.54745 132 9.11993 132.626 8.48609C133.187 7.86962 133.482 7.0668 133.453 6.24359V5.55859H134.478V6.24459C134.449 7.06951 134.749 7.87331 135.315 8.48709C135.946 9.12009 136.762 9.54727 137.652 9.71009V10.6101C136.844 10.4729 136.072 10.1798 135.381 9.74809C134.807 9.39403 134.326 8.91474 133.975 8.34809C133.625 8.91389 133.145 9.39303 132.574 9.74809" fill="white"/>
<path d="M138.943 13.2965V5.60597H142.04V6.49497H139.95V8.96897H141.822V9.83997H139.95V12.416H141.118C141.574 12.435 142.029 12.3818 142.467 12.2585V13.092C142.019 13.2448 141.545 13.314 141.07 13.296L138.943 13.2965ZM143.209 13.7595V9.74747H142.202V8.85747H143.209V5.51347H144.216V13.7595H143.209ZM145.003 5.45947H146.01V13.862H145.003V5.45947Z" fill="white"/>
<path d="M148.15 6.11543C148.332 5.89717 148.565 5.72392 148.829 5.6097C149.094 5.49548 149.382 5.44349 149.67 5.45793C149.96 5.44532 150.249 5.49809 150.514 5.61213C150.779 5.72617 151.014 5.89841 151.2 6.11543C151.669 6.67776 151.903 7.78343 151.903 9.43243C151.903 11.0814 151.669 12.1871 151.2 12.7494C151.013 12.9638 150.777 13.133 150.512 13.2438C150.247 13.3547 149.959 13.4042 149.67 13.3884C149.383 13.406 149.096 13.3573 148.832 13.2463C148.567 13.1352 148.334 12.965 148.15 12.7494C147.681 12.1871 147.447 11.0814 147.447 9.43243C147.447 7.78343 147.681 6.67776 148.15 6.11543ZM150.42 6.68093C150.336 6.56513 150.223 6.47206 150.092 6.41042C149.961 6.34877 149.816 6.32056 149.67 6.32843C149.525 6.32336 149.381 6.3528 149.25 6.41422C149.119 6.47563 149.006 6.56716 148.919 6.68093C148.622 7.06993 148.473 7.98659 148.473 9.43093C148.473 10.8753 148.621 11.7956 148.919 12.1919C149.01 12.3 149.125 12.3863 149.255 12.4441C149.385 12.5019 149.527 12.5295 149.67 12.5249C149.813 12.5322 149.956 12.5057 150.087 12.4477C150.218 12.3898 150.332 12.302 150.42 12.1919C150.725 11.8089 150.877 10.8886 150.877 9.43093C150.876 7.97326 150.724 7.05659 150.42 6.68093ZM154.43 13.8614H153.394V5.45743H154.43V13.8614Z" fill="white"/>
<path d="M158.668 6.9495C158.628 7.52589 158.801 8.09708 159.154 8.56062C159.508 9.02417 160.019 9.34976 160.596 9.479V10.369C160.082 10.2614 159.591 10.0651 159.147 9.7895C158.752 9.55183 158.416 9.2306 158.165 8.8495C157.927 9.24926 157.596 9.58878 157.199 9.8405C156.751 10.1372 156.25 10.3509 155.723 10.471V9.571C156.279 9.41366 156.77 9.08778 157.124 8.6405C157.485 8.14871 157.667 7.55336 157.642 6.949V5.514H158.667L158.668 6.9495ZM156.558 13.8995V11.045H157.594V13.028H163.152V13.899L156.558 13.8995ZM160.169 7.803H161.964V7.1165H160.169V6.255H161.964V5.4585H162.999V11.3415H161.964V8.675H160.169V7.803Z" fill="white"/>
<path d="M57.1465 3.10275V0.09375H57.5202V1.58675H57.5566L58.9409 0.09375H59.4289L58.1349 1.45175L59.43 3.10175H58.9778L57.9083 1.70425L57.5228 2.12725V3.10275H57.1465Z" fill="white"/>
<path d="M60.6347 3.1514C60.4432 3.15685 60.2543 3.10736 60.0913 3.00906C59.9284 2.91075 59.7986 2.76796 59.7181 2.5984C59.6265 2.40734 59.5814 2.19824 59.5863 1.9874C59.5813 1.77493 59.6264 1.56419 59.7181 1.3714C59.8005 1.20225 59.9303 1.05936 60.0926 0.959311C60.2549 0.85926 60.443 0.806152 60.635 0.806152C60.827 0.806152 61.0151 0.85926 61.1774 0.959311C61.3397 1.05936 61.4696 1.20225 61.5519 1.3714C61.6436 1.56419 61.6887 1.77493 61.6837 1.9874C61.6886 2.19824 61.6435 2.40734 61.5519 2.5984C61.4714 2.76796 61.3416 2.91075 61.1787 3.00906C61.0157 3.10736 60.8263 3.15685 60.6347 3.1514ZM60.6353 2.8399C60.7755 2.84454 60.9131 2.80199 61.0249 2.7194C61.129 2.63771 61.2077 2.52931 61.252 2.4064C61.3021 2.27181 61.3271 2.12957 61.3258 1.9864C61.3271 1.84258 61.3021 1.69969 61.252 1.5644C61.2075 1.44074 61.1289 1.33142 61.0249 1.2484C60.91 1.1701 60.7732 1.12811 60.633 1.12811C60.4928 1.12811 60.3559 1.1701 60.241 1.2484C60.137 1.33142 60.0584 1.44074 60.0139 1.5644C59.9638 1.69969 59.9388 1.84258 59.9401 1.9864C59.9388 2.12957 59.9638 2.27181 60.0139 2.4064C60.0582 2.52931 60.1369 2.63771 60.241 2.7194C60.3536 2.8019 60.492 2.84393 60.6327 2.8384" fill="white"/>
<path d="M62.2266 3.1026V0.846104H62.5701V1.1876H62.5947C62.6379 1.07461 62.7186 0.978905 62.8238 0.915604C62.9351 0.845594 63.0652 0.809237 63.1976 0.811104H63.295C63.3345 0.811104 63.3642 0.814104 63.3842 0.816104V1.1666C63.3719 1.1641 63.3447 1.1591 63.3022 1.1526C63.2575 1.14616 63.2125 1.14298 63.1673 1.1431C63.0628 1.14125 62.9594 1.16461 62.8664 1.2111C62.7811 1.25487 62.7093 1.31992 62.6582 1.3996C62.6073 1.48171 62.5812 1.57616 62.5829 1.6721V3.1026H62.2266Z" fill="white"/>
<path d="M64.7021 3.14915C64.4997 3.1543 64.2999 3.10407 64.1253 3.00415C63.9637 2.907 63.8346 2.76611 63.7536 2.59865C63.6633 2.40847 63.6187 2.20068 63.6234 1.99115C63.6192 1.78037 63.6637 1.57138 63.7536 1.37965C63.8335 1.21111 63.9599 1.06759 64.1186 0.965148C64.2819 0.863419 64.4725 0.811217 64.6662 0.815148C64.7883 0.815078 64.9096 0.834849 65.025 0.873648C65.1448 0.914272 65.2542 0.979395 65.346 1.06465C65.4489 1.16176 65.5278 1.28042 65.5767 1.41165C65.6384 1.58236 65.6675 1.7627 65.6623 1.94365V2.09015H63.8766V1.79015H65.2988C65.3009 1.67228 65.2744 1.5556 65.2214 1.44965C65.1722 1.35219 65.096 1.2701 65.0015 1.21265C64.9005 1.15321 64.7841 1.12319 64.6662 1.12615C64.5364 1.12231 64.4085 1.1572 64.2996 1.22615C64.1979 1.29257 64.1161 1.38398 64.0622 1.49115C64.0073 1.6 63.979 1.71982 63.9797 1.84115V2.04115C63.9751 2.19028 64.0063 2.3384 64.0709 2.47365C64.1262 2.58607 64.2146 2.6799 64.3247 2.74315C64.4403 2.80588 64.5709 2.83747 64.7031 2.83465C64.7893 2.83587 64.8751 2.82286 64.9569 2.79615C65.0306 2.7714 65.0978 2.73111 65.1537 2.67815C65.2107 2.62266 65.2542 2.55554 65.2814 2.48165L65.6249 2.57615C65.5894 2.68879 65.5271 2.79161 65.4429 2.87615C65.3533 2.96414 65.2455 3.03234 65.1266 3.07615C64.9911 3.1251 64.8475 3.14917 64.7031 3.14715" fill="white"/>
<path d="M66.8838 3.15591C66.7463 3.15749 66.6101 3.1295 66.485 3.07391C66.3645 3.02175 66.2629 2.93554 66.1932 2.82643C66.1236 2.71732 66.0891 2.59033 66.0943 2.46191C66.0895 2.35173 66.1168 2.24248 66.1732 2.14691C66.2248 2.06659 66.2969 2.00076 66.3824 1.95591C66.4738 1.90891 66.5712 1.8741 66.6721 1.85241C66.7782 1.82891 66.8854 1.81091 66.9925 1.79741C67.1335 1.77991 67.2489 1.76591 67.3355 1.75691C67.4022 1.75212 67.4674 1.73516 67.5278 1.70691C67.5485 1.69501 67.5653 1.67757 67.5762 1.65667C67.5871 1.63576 67.5916 1.61225 67.5893 1.58891V1.58041C67.5931 1.51909 67.5843 1.45765 67.5635 1.39969C67.5426 1.34174 67.5101 1.28843 67.4678 1.24291C67.4183 1.19958 67.3602 1.16651 67.2972 1.14571C67.2342 1.12491 67.1675 1.11681 67.1012 1.12191C66.9595 1.11402 66.8192 1.15237 66.7023 1.23091C66.6155 1.29084 66.545 1.37068 66.4973 1.46341L66.1594 1.34541C66.2107 1.22006 66.294 1.10956 66.4014 1.02441C66.4994 0.949125 66.6121 0.894015 66.7326 0.862406C66.8482 0.832543 66.9672 0.817086 67.0868 0.816406C67.1729 0.817767 67.2587 0.826467 67.3432 0.842406C67.4429 0.860532 67.5384 0.896105 67.6252 0.947406C67.7213 1.00607 67.7995 1.08877 67.8518 1.18691C67.9179 1.32038 67.9489 1.46782 67.942 1.61591V3.10291H67.5862V2.79691H67.5683C67.5371 2.85527 67.4966 2.90844 67.4483 2.95441C67.3835 3.01554 67.3073 3.06392 67.2237 3.09691C67.115 3.13874 66.9987 3.15881 66.8818 3.15591M66.9361 2.84441C67.061 2.84883 67.1848 2.82088 67.295 2.76341C67.3867 2.71506 67.4628 2.64289 67.5149 2.55491C67.5636 2.47321 67.5893 2.3804 67.5893 2.28591V1.96791C67.5616 1.99303 67.5274 2.01032 67.4903 2.01791C67.4331 2.03366 67.3749 2.04586 67.316 2.05441C67.2501 2.06507 67.1861 2.07391 67.1243 2.08091L66.9746 2.09991C66.8874 2.11034 66.8015 2.12927 66.7182 2.15641C66.6447 2.17826 66.5781 2.2182 66.5249 2.27241C66.474 2.33031 66.4479 2.40519 66.4521 2.48141C66.449 2.53463 66.4601 2.58774 66.4844 2.63551C66.5087 2.68329 66.5453 2.72409 66.5906 2.75391C66.695 2.81862 66.8171 2.85072 66.9407 2.84591" fill="white"/>
<path d="M69.8359 3.10302V0.0945156H70.9126C71.0963 0.0878543 71.2789 0.124742 71.4447 0.202016C71.5757 0.2664 71.6841 0.367129 71.7564 0.491516C71.8248 0.614228 71.8601 0.751865 71.859 0.891516C71.8632 1.00232 71.8393 1.11244 71.7893 1.21202C71.7461 1.29272 71.6828 1.36151 71.6052 1.41202C71.5296 1.46118 71.4463 1.498 71.3586 1.52102V1.55052C71.4603 1.55853 71.5583 1.59175 71.6431 1.64702C71.7431 1.71095 71.8255 1.79782 71.8831 1.90002C71.9504 2.02289 71.9836 2.16077 71.9795 2.30002C71.9816 2.44245 71.945 2.58289 71.8733 2.70702C71.7962 2.8344 71.6798 2.9347 71.5406 2.99352C71.3536 3.07079 71.1514 3.10698 70.9485 3.09952L69.8359 3.10302ZM70.2097 1.41652H70.9023C71.0086 1.41839 71.1139 1.39614 71.2099 1.35152C71.2977 1.31095 71.3726 1.24808 71.4268 1.16952C71.4815 1.08732 71.5095 0.990973 71.5073 0.893016C71.5084 0.830376 71.4963 0.768181 71.4719 0.710235C71.4475 0.65229 71.4112 0.599813 71.3653 0.556016C71.3031 0.505381 71.2313 0.467286 71.1539 0.44394C71.0766 0.420593 70.9952 0.412462 70.9146 0.420016H70.2107L70.2097 1.41652ZM70.2097 2.78002H70.951C71.136 2.79743 71.3211 2.74816 71.4714 2.64152C71.5205 2.59945 71.5597 2.54749 71.5863 2.48923C71.6128 2.43096 71.6261 2.36777 71.6252 2.30402C71.6262 2.20406 71.5989 2.10578 71.5462 2.02002C71.4911 1.93155 71.4122 1.85946 71.3181 1.81152C71.2105 1.75678 71.0903 1.72976 70.969 1.73302H70.2107L70.2097 2.78002Z" fill="white"/>
<path d="M72.7309 0.470537C72.6976 0.470918 72.6646 0.464887 72.6337 0.452788C72.6028 0.44069 72.5747 0.422763 72.5509 0.400037C72.5273 0.379056 72.5085 0.353485 72.4957 0.324978C72.4829 0.29647 72.4764 0.26566 72.4766 0.234537C72.4765 0.203503 72.4831 0.172799 72.4959 0.144387C72.5087 0.115975 72.5274 0.0904812 72.5509 0.069537C72.5747 0.0469907 72.6029 0.0292479 72.6338 0.0173227C72.6647 0.00539751 72.6977 -0.000476293 72.7309 3.70426e-05C72.7638 -0.000525814 72.7966 0.00533072 72.8272 0.0172641C72.8579 0.0291975 72.8858 0.0469683 72.9093 0.069537C72.9332 0.0903881 72.9522 0.115992 72.9651 0.144626C72.9781 0.17326 72.9845 0.204259 72.9841 0.235537C72.9844 0.26653 72.9779 0.297227 72.9651 0.325588C72.9523 0.35395 72.9334 0.379328 72.9098 0.400037C72.8863 0.422606 72.8584 0.440377 72.8278 0.45231C72.7971 0.464243 72.7644 0.4701 72.7314 0.469537M72.5504 0.845537H72.9062V3.10304H72.5509L72.5504 0.845537Z" fill="white"/>
<path d="M74.4961 3.1506C74.3046 3.15605 74.1156 3.10656 73.9526 3.00826C73.7897 2.90996 73.6599 2.76717 73.5794 2.5976C73.4878 2.40654 73.4427 2.19744 73.4476 1.9866C73.4426 1.77414 73.4877 1.56339 73.5794 1.3706C73.6616 1.20129 73.7915 1.05823 73.9538 0.95805C74.1161 0.85787 74.3042 0.804688 74.4963 0.804688C74.6884 0.804687 74.8766 0.85787 75.0389 0.95805C75.2012 1.05823 75.331 1.20129 75.4133 1.3706C75.5049 1.56339 75.55 1.77414 75.545 1.9866C75.5499 2.19744 75.5048 2.40654 75.4133 2.5976C75.3329 2.76729 75.2032 2.91019 75.0402 3.00851C74.8772 3.10684 74.6876 3.15625 74.4961 3.1506ZM74.4966 2.8391C74.6373 2.84463 74.7757 2.8026 74.8883 2.7201C74.9924 2.63842 75.071 2.53002 75.1154 2.4071C75.1657 2.27255 75.1908 2.1303 75.1897 1.9871C75.1908 1.84325 75.1656 1.70036 75.1154 1.5651C75.0708 1.44144 74.9923 1.33212 74.8883 1.2491C74.7735 1.17077 74.6367 1.12877 74.4966 1.12877C74.3565 1.12877 74.2197 1.17077 74.1049 1.2491C74.0004 1.33185 73.9214 1.44123 73.8768 1.5651C73.8267 1.70039 73.8017 1.84328 73.8029 1.9871C73.8017 2.13027 73.8267 2.27252 73.8768 2.4071C73.9214 2.53013 74.0004 2.63855 74.1049 2.7201C74.2172 2.80271 74.356 2.84477 74.4966 2.8391Z" fill="white"/>
<path d="M77.0873 3.1029H76.1348V0.0944037H77.1289C77.3971 0.0866028 77.6625 0.14874 77.8979 0.274404C78.1109 0.393955 78.2818 0.573693 78.388 0.789904C78.5073 1.04123 78.5656 1.31603 78.5582 1.5929C78.5658 1.87178 78.5068 2.14856 78.386 2.4014C78.278 2.62068 78.1035 2.80223 77.8861 2.9214C77.6405 3.04862 77.3652 3.11118 77.0873 3.1029ZM76.509 2.7799H77.0637C77.2845 2.788 77.5034 2.73846 77.6979 2.6364C77.8643 2.54188 77.9957 2.39834 78.0732 2.2264C78.1603 2.02626 78.2024 1.81025 78.1968 1.5929C78.2023 1.37733 78.1607 1.16308 78.0748 0.964404C77.9995 0.795689 77.8723 0.653979 77.7108 0.558904C77.5257 0.459686 77.3163 0.411625 77.1053 0.419904H76.5085L76.509 2.7799Z" fill="white"/>
<path d="M79.8174 3.15591C79.6799 3.15749 79.5437 3.1295 79.4186 3.07391C79.3026 3.02284 79.2039 2.94064 79.134 2.83691C79.0608 2.72495 79.0239 2.59412 79.0279 2.46141C79.023 2.35123 79.0504 2.24198 79.1068 2.14641C79.1584 2.06609 79.2305 2.00026 79.316 1.95541C79.4074 1.90841 79.5048 1.8736 79.6057 1.85191C79.7118 1.82841 79.8179 1.81041 79.9261 1.79691C80.0671 1.77941 80.1824 1.76541 80.2691 1.75641C80.3358 1.75162 80.401 1.73466 80.4613 1.70641C80.482 1.69441 80.4987 1.67697 80.5096 1.65608C80.5205 1.6352 80.5251 1.61173 80.5229 1.58841V1.58041C80.5267 1.51909 80.5179 1.45765 80.4971 1.39969C80.4762 1.34174 80.4437 1.28843 80.4014 1.24291C80.3518 1.19963 80.2938 1.16659 80.2308 1.14579C80.1678 1.125 80.1011 1.11687 80.0348 1.12191C79.8931 1.11402 79.7528 1.15237 79.6359 1.23091C79.5491 1.29084 79.4786 1.37068 79.4309 1.46341L79.093 1.34541C79.144 1.22014 79.2269 1.10965 79.334 1.02441C79.4322 0.949182 79.545 0.894082 79.6657 0.862406C79.7813 0.832548 79.9003 0.817092 80.0199 0.816406C80.106 0.817767 80.1918 0.826467 80.2763 0.842406C80.3759 0.860418 80.4712 0.896001 80.5577 0.947406C80.6541 1.00586 80.7326 1.0886 80.7849 1.18691C80.8508 1.32043 80.8816 1.46786 80.8746 1.61591V3.10291H80.5193V2.79691H80.5013C80.4698 2.85531 80.429 2.90847 80.3803 2.95441C80.3159 3.01569 80.2398 3.0641 80.1563 3.09691C80.0475 3.13874 79.9312 3.15881 79.8143 3.15591M79.8687 2.84441C79.9936 2.84883 80.1174 2.82088 80.2276 2.76341C80.3192 2.71515 80.3951 2.64295 80.447 2.55491C80.4958 2.47325 80.5217 2.38044 80.5218 2.28591V1.96791C80.4939 1.99275 80.4598 2.01 80.4229 2.01791C80.3656 2.03366 80.3074 2.04586 80.2486 2.05441C80.1826 2.06507 80.1187 2.07391 80.0568 2.08091L79.9071 2.09991C79.82 2.11027 79.7341 2.1292 79.6508 2.15641C79.5772 2.17826 79.5107 2.2182 79.4575 2.27241C79.4065 2.33031 79.3804 2.40519 79.3847 2.48141C79.3816 2.53453 79.3926 2.58754 79.4167 2.63529C79.4407 2.68303 79.4771 2.7239 79.5221 2.75391C79.6268 2.81849 79.749 2.85057 79.8728 2.84591" fill="white"/>
<path d="M82.5351 1.14065H81.3359V0.847152H82.5351V1.14065ZM81.6851 0.306152H82.0409V2.45615C82.0359 2.53202 82.0513 2.60784 82.0855 2.67615C82.1106 2.7207 82.1511 2.75509 82.1998 2.77315C82.2476 2.78954 82.2979 2.79766 82.3485 2.79715C82.3807 2.79766 82.413 2.79549 82.4449 2.79065L82.5049 2.77915L82.5771 3.09065C82.5436 3.10188 82.5094 3.1109 82.4746 3.11765C82.4206 3.12803 82.3656 3.13273 82.3105 3.13165C82.2089 3.13153 82.1086 3.11004 82.0163 3.06865C81.9203 3.0268 81.8379 2.96025 81.7779 2.87615C81.712 2.77987 81.679 2.66579 81.6835 2.55015L81.6851 0.306152Z" fill="white"/>
<path d="M83.753 3.15591C83.6155 3.15751 83.4793 3.12951 83.3541 3.07391C83.2337 3.02175 83.132 2.93554 83.0624 2.82643C82.9927 2.71732 82.9583 2.59033 82.9634 2.46191C82.9586 2.35173 82.986 2.24248 83.0424 2.14691C83.0943 2.06687 83.1663 2.00111 83.2516 1.95591C83.3433 1.90887 83.4411 1.87406 83.5423 1.85241C83.6484 1.82891 83.754 1.81091 83.8627 1.79741C84.0027 1.77991 84.119 1.76591 84.2046 1.75691C84.2714 1.75212 84.3366 1.73516 84.3969 1.70691C84.4177 1.69503 84.4345 1.67762 84.4455 1.65671C84.4565 1.63581 84.4612 1.61229 84.4589 1.58891V1.58041C84.4627 1.51906 84.4538 1.45761 84.4328 1.39965C84.4119 1.3417 84.3793 1.28841 84.3369 1.24291C84.2874 1.19967 84.2295 1.16665 84.1666 1.14585C84.1037 1.12506 84.0371 1.11691 83.9709 1.12191C83.8289 1.11395 83.6882 1.1523 83.571 1.23091C83.4843 1.29102 83.4139 1.37082 83.3659 1.46341L83.028 1.34541C83.0791 1.21992 83.1625 1.10938 83.27 1.02441C83.3681 0.949125 83.4807 0.894015 83.6012 0.862406C83.7168 0.832543 83.8359 0.817086 83.9555 0.816406C84.0415 0.81782 84.1273 0.82652 84.2118 0.842406C84.3112 0.860519 84.4064 0.896097 84.4928 0.947406C84.5893 1.00571 84.6678 1.08849 84.7199 1.18691C84.786 1.32039 84.817 1.46782 84.8101 1.61591V3.10291H84.4548V2.79691H84.4369C84.4049 2.85503 84.3641 2.90812 84.3159 2.95441C84.2513 3.01554 84.1753 3.06393 84.0919 3.09691C83.9827 3.13877 83.8661 3.15884 83.7489 3.15591M83.8037 2.84441C83.9276 2.84835 84.0503 2.82041 84.1595 2.76341C84.2482 2.717 84.3224 2.64817 84.3743 2.56415C84.4263 2.48013 84.4541 2.38402 84.4548 2.28591V1.96791C84.4268 1.99262 84.3927 2.00984 84.3559 2.01791C84.2984 2.03359 84.24 2.04578 84.1811 2.05441C84.1151 2.06507 84.0512 2.07391 83.9893 2.08091L83.8401 2.09991C83.7529 2.11024 83.6671 2.12917 83.5838 2.15641C83.5104 2.17858 83.4439 2.21848 83.3905 2.27241C83.3399 2.33052 83.3139 2.40525 83.3177 2.48141C83.3146 2.53453 83.3256 2.58754 83.3496 2.63529C83.3737 2.68303 83.41 2.7239 83.4551 2.75391C83.5599 2.81856 83.6824 2.85064 83.8063 2.84591" fill="white"/>
<path d="M88.3931 0.846933C88.3861 0.776533 88.3627 0.708637 88.3245 0.648475C88.2864 0.588314 88.2346 0.537494 88.1732 0.499933C88.0314 0.414207 87.8667 0.371243 87.7 0.376433C87.577 0.373643 87.4548 0.395776 87.3411 0.441433C87.247 0.478683 87.165 0.540007 87.1037 0.618933C87.0473 0.6934 87.0174 0.783839 87.0186 0.876433C87.0167 0.94938 87.0374 1.02119 87.0781 1.08243C87.1183 1.14024 87.1708 1.18899 87.2319 1.22543C87.2937 1.26278 87.3594 1.29378 87.4277 1.31793C87.4964 1.34193 87.559 1.36093 87.6164 1.37593L87.9297 1.45793C88.0208 1.48198 88.1106 1.51052 88.1988 1.54343C88.2995 1.58103 88.3951 1.63057 88.4833 1.69093C88.5748 1.75421 88.6516 1.83545 88.7089 1.92943C88.771 2.03845 88.8016 2.16181 88.7976 2.28643C88.7998 2.44275 88.7545 2.5962 88.6674 2.72743C88.5738 2.86478 88.442 2.97333 88.2875 3.04043C88.0975 3.12285 87.8909 3.16266 87.6831 3.15693C87.4866 3.16135 87.2914 3.12575 87.1099 3.05243C86.9586 2.99076 86.8273 2.89018 86.73 2.76143C86.6378 2.63419 86.5844 2.48405 86.5762 2.32843H86.9622C86.9679 2.43254 87.0095 2.53172 87.0801 2.60993C87.1517 2.68556 87.2419 2.74217 87.3421 2.77443C87.4526 2.81094 87.5685 2.82903 87.6851 2.82793C87.8155 2.82947 87.945 2.80585 88.066 2.75843C88.1714 2.71876 88.2644 2.65292 88.3357 2.56743C88.4019 2.48585 88.437 2.38443 88.4352 2.28043C88.4392 2.19154 88.4084 2.10447 88.349 2.03693C88.2864 1.97005 88.2091 1.91777 88.1229 1.88393C88.0245 1.84295 87.9233 1.8087 87.8199 1.78143L87.44 1.67543C87.2289 1.62337 87.0331 1.52427 86.8679 1.38593C86.7982 1.32377 86.7432 1.24757 86.7067 1.16261C86.6703 1.07765 86.6532 0.985974 86.6567 0.893933C86.6535 0.73562 86.703 0.580563 86.7977 0.451933C86.8956 0.32324 87.0267 0.222007 87.1775 0.158433C87.3459 0.0867137 87.5281 0.0509143 87.7118 0.0534328C87.8941 0.050138 88.075 0.0856276 88.2419 0.157433C88.3876 0.219083 88.5146 0.31639 88.6105 0.439933C88.7009 0.557597 88.7513 0.699922 88.7546 0.846933H88.3931Z" fill="white"/>
<path d="M90.3691 1.14065H89.1699V0.847152H90.3691V1.14065ZM89.5191 0.306152H89.8749V2.45615C89.8699 2.53202 89.8853 2.60784 89.9195 2.67615C89.9446 2.7207 89.9851 2.75509 90.0338 2.77315C90.0815 2.78953 90.1319 2.79765 90.1825 2.79715C90.2147 2.79766 90.247 2.79549 90.2789 2.79065L90.3388 2.77915L90.4111 3.09065C90.3776 3.10188 90.3434 3.1109 90.3086 3.11765C90.2546 3.12803 90.1996 3.13273 90.1445 3.13165C90.0429 3.13153 89.9426 3.11004 89.8503 3.06865C89.7543 3.0268 89.6719 2.96025 89.6119 2.87615C89.546 2.77987 89.513 2.66579 89.5175 2.55015L89.5191 0.306152Z" fill="white"/>
<path d="M91.585 3.15591C91.4475 3.15749 91.3113 3.1295 91.1861 3.07391C91.0701 3.02284 90.9715 2.94064 90.9016 2.83691C90.8284 2.72495 90.7914 2.59412 90.7955 2.46141C90.7906 2.35123 90.818 2.24198 90.8744 2.14641C90.9259 2.06609 90.998 2.00026 91.0836 1.95541C91.175 1.9084 91.2724 1.87359 91.3733 1.85191C91.4794 1.82841 91.5855 1.81041 91.6937 1.79691C91.8347 1.77941 91.95 1.76541 92.0367 1.75641C92.1034 1.75162 92.1686 1.73466 92.2289 1.70641C92.2496 1.69441 92.2663 1.67697 92.2772 1.65608C92.2881 1.6352 92.2927 1.61173 92.2904 1.58841V1.58041C92.2943 1.51909 92.2855 1.45765 92.2646 1.39969C92.2438 1.34174 92.2112 1.28843 92.1689 1.24291C92.1194 1.19963 92.0614 1.16659 91.9984 1.14579C91.9354 1.125 91.8687 1.11687 91.8024 1.12191C91.6607 1.11402 91.5204 1.15237 91.4035 1.23091C91.3166 1.29084 91.2462 1.37068 91.1984 1.46341L90.8606 1.34541C90.9117 1.22009 90.9948 1.10959 91.102 1.02441C91.2003 0.949182 91.3131 0.894082 91.4338 0.862406C91.5494 0.832543 91.6684 0.817086 91.788 0.816406C91.8741 0.817767 91.9598 0.826467 92.0444 0.842406C92.1439 0.860418 92.2393 0.896001 92.3258 0.947406C92.4222 1.00588 92.5007 1.08862 92.5529 1.18691C92.6189 1.32043 92.6497 1.46786 92.6427 1.61591V3.10291H92.2874V2.79691H92.2694C92.2379 2.85531 92.197 2.90847 92.1484 2.95441C92.084 3.01568 92.0079 3.06409 91.9244 3.09691C91.8156 3.13874 91.6993 3.15881 91.5824 3.15591M91.6368 2.84441C91.7616 2.84883 91.8855 2.82088 91.9957 2.76341C92.0872 2.71515 92.1632 2.64295 92.2151 2.55491C92.2639 2.47325 92.2897 2.38044 92.2899 2.28591V1.96791C92.262 1.99275 92.2279 2.01 92.191 2.01791C92.1337 2.03366 92.0755 2.04586 92.0167 2.05441C91.9507 2.06507 91.8868 2.07391 91.8249 2.08091L91.6752 2.09991C91.588 2.11027 91.5022 2.1292 91.4189 2.15641C91.3453 2.17826 91.2788 2.2182 91.2256 2.27241C91.1746 2.33031 91.1485 2.40519 91.1528 2.48141C91.1497 2.53453 91.1607 2.58754 91.1847 2.63529C91.2088 2.68303 91.2452 2.7239 91.2902 2.75391C91.3949 2.81849 91.5171 2.85057 91.6409 2.84591" fill="white"/>
<path d="M94.3033 1.14065H93.1016V0.847152H94.3007L94.3033 1.14065ZM93.4533 0.306152H93.8091V2.45615C93.8041 2.53202 93.8195 2.60784 93.8537 2.67615C93.8788 2.72067 93.9193 2.75505 93.968 2.77315C94.0157 2.78953 94.0661 2.79765 94.1167 2.79715C94.1489 2.79766 94.1812 2.79549 94.2131 2.79065L94.273 2.77915L94.3453 3.09065C94.3118 3.10189 94.2776 3.11091 94.2428 3.11765C94.1888 3.12803 94.1338 3.13273 94.0787 3.13165C93.9771 3.13153 93.8768 3.11004 93.7845 3.06865C93.6885 3.0268 93.6061 2.96025 93.5461 2.87615C93.4802 2.77987 93.4472 2.66579 93.4517 2.55015L93.4533 0.306152Z" fill="white"/>
<path d="M95.0209 0.470532C94.954 0.471036 94.8897 0.445686 94.8419 0.400032C94.8182 0.37915 94.7993 0.353598 94.7865 0.325068C94.7737 0.296537 94.7673 0.265678 94.7676 0.234532C94.7672 0.203306 94.7737 0.17236 94.7865 0.143743C94.7993 0.115126 94.8182 0.0894895 94.8419 0.0685316C94.89 0.0236083 94.9543 -0.00100713 95.0209 3.15873e-05C95.0538 -0.000475579 95.0866 0.00540653 95.1172 0.0173368C95.1478 0.0292672 95.1757 0.0470083 95.1993 0.0695316C95.2231 0.0904645 95.2421 0.116084 95.255 0.144699C95.2679 0.173314 95.2744 0.204273 95.2741 0.235532C95.2743 0.266706 95.2678 0.297569 95.2549 0.326092C95.2419 0.354616 95.223 0.380155 95.1993 0.401032C95.1757 0.423555 95.1478 0.441296 95.1172 0.453226C95.0866 0.465157 95.0538 0.471039 95.0209 0.470532ZM94.8399 0.846532H95.1957V3.10303H94.8399V0.846532Z" fill="white"/>
<path d="M96.7862 3.1506C96.5945 3.15625 96.4053 3.10685 96.2421 3.00854C96.079 2.91022 95.949 2.76733 95.8685 2.5976C95.7769 2.40654 95.7318 2.19744 95.7367 1.9866C95.7317 1.77414 95.7768 1.56339 95.8685 1.3706C95.9507 1.20129 96.0805 1.05823 96.2428 0.95805C96.4052 0.85787 96.5933 0.804687 96.7854 0.804688C96.9775 0.804688 97.1656 0.85787 97.328 0.95805C97.4903 1.05823 97.6201 1.20129 97.7023 1.3706C97.7943 1.56329 97.8394 1.77411 97.8341 1.9866C97.8393 2.19747 97.7942 2.40664 97.7023 2.5976C97.6221 2.76725 97.4924 2.91013 97.3295 3.00846C97.1666 3.10678 96.9777 3.15621 96.7862 3.1506ZM96.7862 2.8391C96.9267 2.84456 97.0649 2.80252 97.1773 2.7201C97.2818 2.63855 97.3608 2.53013 97.4055 2.4071C97.4553 2.27243 97.4803 2.13025 97.4793 1.9871C97.4802 1.8433 97.4552 1.70047 97.4055 1.5651C97.3606 1.44135 97.2817 1.33203 97.1773 1.2491C97.0625 1.17077 96.9258 1.12877 96.7857 1.12877C96.6455 1.12877 96.5088 1.17077 96.394 1.2491C96.2894 1.33185 96.2105 1.44123 96.1658 1.5651C96.1158 1.70039 96.0908 1.84328 96.092 1.9871C96.0907 2.13027 96.1157 2.27252 96.1658 2.4071C96.2105 2.53013 96.2895 2.63855 96.394 2.7201C96.5065 2.80278 96.6454 2.84484 96.7862 2.8391Z" fill="white"/>
<path d="M98.7328 1.74609V3.10359H98.377V0.846593H98.7204V1.19909H98.7507C98.8041 1.08552 98.8899 0.989347 98.9978 0.922093C99.1269 0.847331 99.2754 0.810845 99.4254 0.817093C99.5679 0.814226 99.7089 0.846197 99.8355 0.910093C99.9548 0.974036 100.051 1.0726 100.11 1.19209C100.18 1.34137 100.213 1.50453 100.207 1.66859V3.10359H99.8519V1.69309C99.8613 1.54216 99.8106 1.39351 99.7104 1.27809C99.6604 1.22746 99.5998 1.18787 99.5328 1.162C99.4658 1.13612 99.3938 1.12456 99.3218 1.12809C99.2158 1.12635 99.1112 1.15113 99.0178 1.20009C98.9286 1.2491 98.8558 1.3222 98.8081 1.41059C98.7539 1.51412 98.7274 1.62938 98.7312 1.74559" fill="white"/>
<path d="M8.29179 0.0961914L2.36314 6.76319V0.0961914H-0.00390625V13.8692H2.36314V7.20219L8.29179 13.8692H11.6673L5.29876 6.98269L11.6673 0.0961914H8.29179Z" fill="white"/>
<path d="M39.0188 1.7194C38.4844 1.20603 37.8508 0.801204 37.1547 0.528405C36.4083 0.237024 35.6106 0.0907808 34.8067 0.0979045H29.7793V13.8694H34.8067C35.6106 13.8765 36.4083 13.7303 37.1547 13.4389C37.8527 13.1694 38.4872 12.7641 39.0194 12.2478C39.5516 11.7314 39.9704 11.1147 40.2503 10.4354C40.5533 9.70167 40.7051 8.91688 40.6969 8.1259V5.8409C40.7041 5.05164 40.5524 4.26866 40.2503 3.5364C39.9686 2.85647 39.5499 2.2386 39.0188 1.7194ZM38.3267 8.1254C38.3329 8.60471 38.247 9.08091 38.0735 9.5294C37.9132 9.93664 37.6667 10.3064 37.3501 10.6144C37.031 10.9196 36.6511 11.1579 36.234 11.3144C35.7773 11.4838 35.2921 11.5677 34.8036 11.5619H32.1463V2.4049H34.8067C35.2951 2.39922 35.7804 2.48318 36.237 2.6524C36.6542 2.80902 37.034 3.04724 37.3531 3.3524C37.6705 3.66186 37.917 4.03334 38.0765 4.4424C38.2492 4.88973 38.3351 5.36446 38.3298 5.8424L38.3267 8.1254Z" fill="white"/>
<path d="M52.5711 8.55069C52.4583 8.18691 52.2898 7.84185 52.0712 7.52719C51.8696 7.24001 51.6259 6.98327 51.3478 6.76519C51.0821 6.55735 50.7926 6.38033 50.485 6.23769C50.1939 6.10201 49.8881 5.99853 49.5734 5.92919C49.2885 5.86478 48.9978 5.82794 48.7055 5.81919H46.3035C46.075 5.831 45.8465 5.79614 45.6326 5.71684C45.4187 5.63754 45.2241 5.51556 45.0613 5.35869C44.7511 5.02002 44.5901 4.57579 44.6132 4.12219C44.5928 3.66805 44.7528 3.22373 45.0598 2.88169C45.2202 2.72031 45.4142 2.59428 45.6288 2.5121C45.8433 2.42991 46.0734 2.39346 46.3035 2.40519H51.4442V0.0961914H46.3035C45.8528 0.10313 45.4056 0.175421 44.9767 0.310691C44.4743 0.462222 44.0088 0.71193 43.6086 1.0446C43.2083 1.37727 42.8817 1.78593 42.6486 2.24569C42.3634 2.83091 42.2254 3.47404 42.2462 4.12169C42.2256 4.77099 42.3637 5.41574 42.6491 6.00269C42.891 6.48198 43.235 6.90541 43.6581 7.24469C44.0491 7.55334 44.4965 7.78696 44.9767 7.93319C45.4056 8.06846 45.8528 8.14075 46.3035 8.14769H48.687C48.9264 8.14515 49.164 8.18777 49.3868 8.27319C49.5924 8.35332 49.7777 8.47617 49.9297 8.63319C50.0792 8.79155 50.195 8.97732 50.2702 9.17969C50.3499 9.39944 50.3896 9.6311 50.3876 9.86419C50.409 10.316 50.2482 10.7581 49.9395 11.0957C49.7758 11.2546 49.5798 11.3781 49.364 11.4583C49.1482 11.5385 48.9176 11.5736 48.687 11.5612H42.6676V13.8692H48.687C48.9801 13.8668 49.2722 13.8348 49.5586 13.7737C49.8724 13.7085 50.178 13.6098 50.4696 13.4792C50.7781 13.3404 51.0694 13.168 51.3381 12.9652C51.6195 12.7529 51.8642 12.498 52.063 12.2102C52.2804 11.8926 52.4492 11.5458 52.5639 11.1807C52.6956 10.7535 52.7596 10.3092 52.7536 9.86319C52.7597 9.41879 52.6973 8.97602 52.5685 8.54969" fill="white"/>
<path d="M25.9374 1.09291C24.9308 0.350074 23.685 -0.0170474 22.425 0.0579137H15.5879C15.6188 0.5751 15.851 1.06128 16.2369 1.41724C16.6229 1.77321 17.1336 1.97213 17.6648 1.97341H22.081C22.7615 1.92591 23.4386 2.10385 24.0025 2.47841C24.2153 2.64281 24.3854 2.85368 24.4992 3.094C24.613 3.33432 24.6673 3.59736 24.6577 3.86191C24.6621 4.15762 24.5947 4.45013 24.461 4.71559C24.3274 4.98106 24.1313 5.21194 23.8887 5.38941C23.226 5.82445 22.4334 6.03122 21.6365 5.97691H20.3548C21.8881 6.02867 23.4053 6.30077 24.8572 6.78441L24.9823 6.75041C25.0761 6.72541 25.1663 6.69491 25.2555 6.66141C25.2981 6.68041 25.3442 6.69741 25.3852 6.71741C25.854 6.46278 26.2572 6.10748 26.5644 5.67841C26.9803 5.12123 27.1973 4.44641 27.1822 3.75741C27.1956 3.25101 27.091 2.74823 26.8762 2.28701C26.6614 1.82579 26.3419 1.41818 25.942 1.09491" fill="#00BE6E"/>
<path d="M18.6169 7.67441C18.3118 7.59568 18.0188 7.478 17.7453 7.32441C17.6299 7.26002 17.5194 7.18767 17.4146 7.10791C17.1408 7.33528 16.9223 7.61928 16.775 7.93927C16.6277 8.25927 16.5553 8.60723 16.5631 8.95791V11.4364H17.7422C18.0834 11.4335 18.4094 11.2987 18.6487 11.0617C18.888 10.8246 19.0211 10.5046 19.0188 10.1719V8.60891C19.0212 8.38125 19.1162 8.16382 19.2828 8.00441C19.4061 7.89959 19.5654 7.84404 19.7289 7.84891H19.8499C19.4335 7.83591 19.0199 7.77755 18.6169 7.67491" fill="#00BE6E"/>
<path d="M26.8588 7.87681C26.4592 7.38968 25.9553 6.9936 25.3823 6.71631C24.0385 7.48831 22.1616 7.73681 20.946 7.81631C18.2473 7.71631 17.7566 7.32081 17.7566 7.32081L17.7469 7.32581C18.0204 7.47922 18.3135 7.5969 18.6184 7.67581C19.0219 7.77844 19.4358 7.83681 19.8525 7.84981H20.2401C20.118 7.85231 20.0104 7.85381 19.9325 7.85381C20.0924 7.85681 20.1888 7.85381 20.1888 7.85381H22.2154C24.6476 7.85381 24.8757 9.08681 24.8757 9.08681H21.492C21.4451 9.08681 21.4001 9.10498 21.367 9.13733C21.3338 9.16968 21.3152 9.21356 21.3152 9.25931C21.3152 9.30506 21.3338 9.34893 21.367 9.38128C21.4001 9.41363 21.4451 9.43181 21.492 9.43181H24.9783C25.0317 9.73939 25.0348 10.0533 24.9875 10.3618H20.4846C20.4605 10.3605 20.4365 10.3641 20.4139 10.3722C20.3912 10.3803 20.3706 10.3928 20.3531 10.409C20.3356 10.4252 20.3216 10.4446 20.3121 10.4662C20.3026 10.4878 20.2977 10.5111 20.2977 10.5346C20.2977 10.5581 20.3026 10.5813 20.3121 10.6029C20.3216 10.6245 20.3356 10.644 20.3531 10.6601C20.3706 10.6763 20.3912 10.6888 20.4139 10.6969C20.4365 10.705 20.4605 10.7086 20.4846 10.7073H24.8937C24.8937 10.7073 24.6414 11.9573 22.3169 11.9573H17.6649C17.1333 11.9581 16.6221 12.1568 16.2357 12.5128C15.8493 12.8688 15.6169 13.3553 15.5859 13.8728H23.1506C24.3223 13.9391 25.4763 13.5702 26.3805 12.8403C26.7582 12.5076 27.0574 12.0989 27.2574 11.6424C27.4574 11.1859 27.5533 10.6925 27.5386 10.1963C27.6205 9.36738 27.3766 8.53905 26.8562 7.87881" fill="#008CFF"/>
<path d="M17.3169 7.03528C17.3477 7.06178 17.3825 7.08228 17.4148 7.10778C18.7068 5.99878 21.0144 5.97578 21.0364 5.97478C20.6263 5.96078 20.3612 5.96178 20.3499 5.96178C20.1845 5.97596 20.0179 5.95699 19.8603 5.90605C19.7027 5.85511 19.5574 5.77327 19.4334 5.66556C19.3094 5.55785 19.2094 5.42654 19.1393 5.27972C19.0693 5.1329 19.0308 4.97365 19.0262 4.81178H21.9997C22.0451 4.8094 22.0877 4.79017 22.119 4.75803C22.1502 4.72589 22.1676 4.68331 22.1676 4.63903C22.1676 4.59476 22.1502 4.55217 22.119 4.52004C22.0877 4.4879 22.0451 4.46866 21.9997 4.46628H19.019V3.52928H23.1107C23.156 3.5269 23.1987 3.50767 23.2299 3.47553C23.2612 3.44339 23.2786 3.40081 23.2786 3.35653C23.2786 3.31226 23.2612 3.26967 23.2299 3.23754C23.1987 3.2054 23.156 3.18616 23.1107 3.18378H18.9421L18.939 3.17528C18.8601 2.99012 18.7266 2.83196 18.5555 2.72079C18.3844 2.60963 18.1833 2.55046 17.9777 2.55078H16.5633V5.20828C16.5366 5.54873 16.5907 5.89059 16.7214 6.20734C16.8521 6.52409 17.0559 6.80723 17.3169 7.03478" fill="#008CFF"/>
<path d="M19.9289 7.85016L19.8515 7.84766H19.7305C19.7305 7.84766 19.8028 7.84766 19.9289 7.84766" fill="#0096FF"/>
<path d="M25.0309 6.5646C24.5835 6.4076 24.1219 6.29208 23.6523 6.2196C22.7871 6.08288 21.9137 6.00121 21.0376 5.9751C21.0156 5.9751 18.708 5.9991 17.416 7.1071C17.7728 7.37354 18.1812 7.56661 18.6167 7.6746C19.0453 7.78325 19.4854 7.84215 19.9282 7.8501C20.6972 7.8501 23.5426 7.7726 25.3826 6.7156C25.2703 6.6616 25.1539 6.6106 25.0314 6.5656" fill="#0264C8"/>
<path d="M14.3337 5.82959H9.59961V8.13809H14.3337V5.82959Z" fill="white"/>
</g>
</svg>
