<svg width="245" height="21" viewBox="0 0 245 21" fill="none" xmlns="http://www.w3.org/2000/svg">
<mask id="mask0_782_48189" style="mask-type:luminance" maskUnits="userSpaceOnUse" x="0" y="0" width="245" height="21">
<path d="M244.734 0H0V21H244.734V0Z" fill="white"/>
</mask>
<g mask="url(#mask0_782_48189)">
<path d="M38.7997 1.58577C37.2856 0.467999 35.4113 -0.0845493 33.5158 0.0280226H23.2324C23.2789 0.806636 23.6285 1.53854 24.2099 2.07413C24.7912 2.60972 25.5603 2.90855 26.36 2.90952H33.0029C34.0267 2.83805 35.0452 3.10575 35.8936 3.66927C36.2123 3.91685 36.4671 4.23378 36.6377 4.59467C36.8082 4.95556 36.8897 5.35039 36.8757 5.74752C36.8819 6.1927 36.78 6.63299 36.5783 7.0324C36.3766 7.43181 36.0809 7.77898 35.7152 8.04552C34.7187 8.70049 33.5264 9.01198 32.3277 8.93052H30.3982C32.7046 9.0086 34.9867 9.41748 37.171 10.144L37.3578 10.0938C37.4993 10.0563 37.6354 10.0098 37.7693 9.95952C37.8331 9.98802 37.9023 10.0135 37.9646 10.0435C38.6678 9.66009 39.2726 9.12591 39.7333 8.48127C40.3589 7.64277 40.6854 6.62748 40.6631 5.59077C40.6831 4.82897 40.5255 4.07267 40.2022 3.37891C39.8789 2.68515 39.3983 2.07203 38.7967 1.58577" fill="#00BE6E"/>
<path d="M27.7852 11.4853C27.3276 11.3671 26.8881 11.1906 26.4779 10.9603C26.3042 10.8636 26.1379 10.7549 25.9803 10.6348C25.5682 10.9761 25.2391 11.4026 25.0169 11.8833C24.7948 12.3641 24.6852 12.8871 24.696 13.4143V17.1425H26.4694C26.9829 17.1386 27.4737 16.936 27.8342 16.5794C28.1946 16.2228 28.3952 15.7413 28.392 15.2405V12.8908C28.3935 12.7212 28.4294 12.5537 28.4975 12.3977C28.5656 12.2417 28.6646 12.1004 28.7888 11.9818C28.9737 11.8239 29.213 11.7403 29.4586 11.7478H29.6409C29.0142 11.7284 28.3918 11.6406 27.7852 11.486" fill="#00BE6E"/>
<path d="M40.1862 11.7882C39.585 11.0557 38.8271 10.4601 37.9653 10.043C35.9443 11.204 33.1205 11.5782 31.2917 11.693C27.232 11.543 26.4946 10.9475 26.4946 10.9475L26.4792 10.955C26.8894 11.1853 27.3289 11.3618 27.7865 11.48C28.3932 11.6341 29.0156 11.7219 29.6422 11.7417H30.2251C30.0413 11.7455 29.879 11.7477 29.7583 11.7477C29.9998 11.7522 30.1428 11.7477 30.1428 11.7477H33.1904C36.8494 11.7477 37.1932 13.6025 37.1932 13.6025H32.1084C32.0377 13.6025 31.97 13.6298 31.92 13.6786C31.87 13.7273 31.842 13.7934 31.842 13.8623C31.842 13.9313 31.87 13.9974 31.92 14.0461C31.97 14.0948 32.0377 14.1222 32.1084 14.1222H37.3501C37.4308 14.5848 37.4357 15.0569 37.3647 15.521H30.5973C30.5265 15.521 30.4586 15.5484 30.4086 15.5972C30.3586 15.646 30.3304 15.7122 30.3304 15.7812C30.3304 15.8502 30.3586 15.9164 30.4086 15.9652C30.4586 16.014 30.5265 16.0415 30.5973 16.0415H37.2309C37.2309 16.0415 36.8502 17.924 33.3542 17.924H26.3561C25.5564 17.9249 24.7873 18.2238 24.2059 18.7594C23.6246 19.2949 23.275 20.0269 23.2285 20.8055H34.6093C36.3723 20.9055 38.1087 20.3502 39.4687 19.2515C40.0365 18.7512 40.4862 18.1367 40.7868 17.4504C41.0874 16.7641 41.2317 16.0224 41.2098 15.2765C41.3333 14.0297 40.9666 12.7836 40.1839 11.7905" fill="#008CFF"/>
<path d="M25.8335 10.5248C25.8796 10.5646 25.9319 10.5953 25.9804 10.6336C27.9245 8.96555 31.3951 8.9303 31.4281 8.9303C30.8129 8.90855 30.4123 8.9093 30.3953 8.9093C30.147 8.93066 29.8967 8.90231 29.6599 8.82599C29.4232 8.74967 29.2049 8.62699 29.0185 8.46548C28.8321 8.30396 28.6814 8.10701 28.5758 7.88671C28.4702 7.6664 28.4119 7.42738 28.4043 7.1843H32.8762C32.947 7.1843 33.0149 7.15688 33.0649 7.10807C33.115 7.05927 33.1431 6.99307 33.1431 6.92405C33.1431 6.85503 33.115 6.78883 33.0649 6.74003C33.0149 6.69122 32.947 6.6638 32.8762 6.6638H28.3944V5.2508H34.5465C34.6172 5.2508 34.685 5.22342 34.735 5.17468C34.7849 5.12595 34.813 5.05985 34.813 4.99093C34.813 4.922 34.7849 4.8559 34.735 4.80717C34.685 4.75843 34.6172 4.73105 34.5465 4.73105H28.2782L28.2736 4.72055C28.1553 4.4415 27.9546 4.20303 27.6971 4.03544C27.4395 3.86785 27.1367 3.77869 26.8271 3.7793H24.6977V7.7768C24.6571 8.28895 24.7382 8.80332 24.9347 9.27993C25.1312 9.75653 25.4377 10.1825 25.8304 10.5248" fill="#008CFF"/>
<path d="M29.7574 11.7518L29.6412 11.748H29.459C29.459 11.748 29.5674 11.748 29.7574 11.748" fill="#4489C8"/>
<path d="M37.4346 9.81619C36.7606 9.58021 36.0655 9.4062 35.3583 9.29644C34.0571 9.09146 32.7437 8.96895 31.4263 8.92969C31.3932 8.92969 27.9226 8.96569 25.9785 10.6337C26.5155 11.0339 27.13 11.324 27.785 11.4864C28.4295 11.6498 29.0916 11.7387 29.7575 11.7512C30.911 11.7512 35.1937 11.6349 37.963 10.0442C37.7938 9.96319 37.6192 9.88519 37.4339 9.81919" fill="#0264C8"/>
<path d="M84.9551 13.4109H96.5981V14.7174H91.5541V16.7604H95.7583V20.9994H94.2049V18.0669H85.7249V16.7604H89.9999V14.7174H84.9551V13.4109ZM94.2041 9.66089H85.7249V8.33789H95.7575V10.4919C95.7688 11.2095 95.6774 11.9251 95.4861 12.6181H93.9757C94.1418 11.9401 94.2193 11.2444 94.2064 10.5474L94.2041 9.66089Z" fill="#002AC1"/>
<path d="M102.94 9.7418H98.2086V8.40755H104.48V10.9515C104.577 13.0511 104.045 15.1327 102.948 16.9418C101.816 18.5447 100.093 19.6598 98.1387 20.055V18.6225C101.339 17.7225 102.94 15.2255 102.94 11.1315L102.94 9.7418ZM108.313 13.3275H110.336V14.6483H108.313V20.7915H106.759V8.18555H108.313V13.3275Z" fill="#002AC1"/>
<path d="M119.06 12.8693V8.40755H120.598V19.9433H114.326V8.40755H115.864V12.8693H119.06ZM119.06 14.1758H115.867V18.636H119.06V14.1758ZM124.433 13.3275H126.456V14.6483H124.433V20.7915H122.879V8.18555H124.433V13.3275Z" fill="#002AC1"/>
<path d="M128.149 9.17344C128.423 8.84591 128.773 8.58595 129.169 8.4146C129.565 8.24326 129.997 8.16535 130.43 8.18719C130.864 8.16828 131.297 8.24745 131.695 8.41852C132.093 8.58959 132.445 8.84794 132.723 9.17344C133.427 10.0169 133.779 11.6754 133.778 14.1489C133.777 16.6224 133.425 18.2809 132.723 19.1244C132.443 19.4459 132.09 19.6997 131.692 19.866C131.294 20.0323 130.862 20.1065 130.43 20.0829C129.999 20.1094 129.568 20.0364 129.172 19.8699C128.776 19.7033 128.425 19.4479 128.149 19.1244C127.446 18.2809 127.095 16.6224 127.096 14.1489C127.096 11.6754 127.447 10.0169 128.149 9.17344ZM131.555 10.0217C131.429 9.8481 131.259 9.70857 131.063 9.61612C130.866 9.52366 130.648 9.48128 130.43 9.49294C130.212 9.48521 129.996 9.52932 129.8 9.62145C129.604 9.71357 129.433 9.85095 129.304 10.0217C128.857 10.6052 128.634 11.9802 128.634 14.1467C128.634 16.3132 128.857 17.6937 129.304 18.2882C129.439 18.4504 129.612 18.5798 129.807 18.6664C130.002 18.7531 130.216 18.7946 130.43 18.7877C130.645 18.7984 130.859 18.7586 131.055 18.6716C131.251 18.5847 131.422 18.4532 131.555 18.2882C132.012 17.7137 132.239 16.3332 132.239 14.1467C132.238 11.9602 132.011 10.5852 131.555 10.0217ZM137.57 20.7924H136.016V8.18644H137.57V20.7924Z" fill="#002AC1"/>
<path d="M141.289 9.36524C142.529 8.64677 143.945 8.26758 145.387 8.26758C146.829 8.26758 148.244 8.64677 149.484 9.36524C149.894 9.68334 150.222 10.0902 150.442 10.5536C150.662 11.0169 150.769 11.524 150.753 12.0345C150.769 12.5468 150.663 13.0559 150.443 13.5213C150.223 13.9867 149.895 14.3956 149.484 14.7157C148.519 15.3917 147.365 15.765 146.177 15.786V18.9277H151.112V20.2342H139.637V18.9277H144.635V15.7867C143.432 15.7808 142.26 15.4064 141.286 14.7165C140.874 14.3978 140.545 13.9891 140.324 13.5234C140.104 13.0576 139.999 12.5478 140.018 12.0352C140 11.5245 140.106 11.0169 140.326 10.5532C140.546 10.0895 140.875 9.68285 141.286 9.36599M142.37 13.716C143.288 14.226 144.327 14.4942 145.384 14.4942C146.44 14.4942 147.479 14.226 148.397 13.716C148.657 13.5168 148.864 13.2606 149.003 12.9685C149.142 12.6763 149.208 12.3563 149.196 12.0345C149.203 11.7132 149.136 11.3945 148.997 11.1028C148.859 10.8112 148.654 10.5544 148.397 10.3522C147.476 9.85117 146.439 9.58814 145.384 9.58814C144.329 9.58814 143.291 9.85117 142.37 10.3522C142.113 10.5541 141.908 10.8108 141.769 11.1025C141.631 11.3943 141.563 11.7131 141.572 12.0345C141.559 12.3563 141.625 12.6764 141.764 12.9686C141.903 13.2608 142.11 13.5169 142.37 13.716Z" fill="#002AC1"/>
<path d="M154.684 19.945V8.4092H159.314V9.7427H156.193V18.6242H157.99C158.672 18.65 159.355 18.5702 160.012 18.388V19.6382C159.335 19.868 158.62 19.9718 157.903 19.9442L154.684 19.945ZM161.082 20.6395V14.5382H158.56V13.2182H161.082V8.2682H162.592V20.6395H161.082ZM163.773 8.18945H165.284V20.7932H163.774L163.773 8.18945Z" fill="#002AC1"/>
<path d="M168.492 9.17338C168.766 8.84599 169.116 8.58613 169.512 8.41479C169.908 8.24346 170.34 8.16547 170.773 8.18713C171.207 8.16875 171.639 8.24816 172.037 8.41921C172.434 8.59026 172.786 8.84833 173.064 9.17338C173.767 10.0169 174.118 11.6754 174.118 14.1489C174.118 16.6224 173.767 18.2811 173.064 19.1251C172.783 19.4465 172.43 19.7003 172.032 19.8665C171.634 20.0328 171.202 20.1071 170.77 20.0836C170.339 20.11 169.908 20.0369 169.512 19.8704C169.116 19.7039 168.765 19.4485 168.489 19.1251C167.787 18.2816 167.436 16.6231 167.436 14.1496C167.436 11.6761 167.787 10.0176 168.489 9.17413M171.896 10.0224C171.769 9.84867 171.599 9.70908 171.402 9.61663C171.205 9.52417 170.988 9.48186 170.769 9.49363C170.552 9.48602 170.336 9.53019 170.14 9.62232C169.944 9.71445 169.774 9.85176 169.644 10.0224C169.198 10.6059 168.974 11.9809 168.974 14.1474C168.973 16.3139 169.197 17.6944 169.644 18.2889C169.78 18.451 169.952 18.5805 170.147 18.6671C170.342 18.7538 170.555 18.7953 170.769 18.7884C170.984 18.7992 171.199 18.7595 171.395 18.6726C171.591 18.5857 171.763 18.4541 171.896 18.2889C172.352 17.7144 172.58 16.3339 172.58 14.1474C172.579 11.9609 172.351 10.5859 171.896 10.0224ZM177.91 20.7931H176.356V8.18638H177.91V20.7931Z" fill="#002AC1"/>
<path d="M180.422 19.9433V8.40755H186.621V9.74255H181.961V13.4535H186.079V14.7735H181.961V18.6225H185.366C186.213 18.6554 187.059 18.5572 187.874 18.3315V19.5818C187.045 19.8548 186.17 19.9771 185.295 19.9425L180.422 19.9433ZM190.739 20.7915H189.186V14.5793H186.749V13.2585H189.186V8.18555H190.739V20.7915Z" fill="#002AC1"/>
<path d="M195.242 18.9294H206.714V20.2359H195.242V18.9294ZM198.869 14.6206C197.832 15.2708 196.671 15.7105 195.456 15.9136V14.5636C196.787 14.3212 198.008 13.6799 198.947 12.7291C199.788 11.8044 200.231 10.6002 200.187 9.36539V8.33789H201.725V9.36689C201.681 10.6043 202.131 11.81 202.98 12.7306C203.926 13.6801 205.151 14.3209 206.485 14.5651V15.9151C205.273 15.7093 204.115 15.2698 203.079 14.6221C202.219 14.091 201.497 13.3721 200.971 12.5221C200.445 13.3708 199.726 14.0895 198.868 14.6221" fill="#002AC1"/>
<path d="M208.42 19.945V8.4092H213.065V9.7427H209.93V13.4537H212.737V14.7602H209.93V18.6242H211.682C212.365 18.6527 213.049 18.5729 213.705 18.388V19.6382C213.033 19.8674 212.322 19.9712 211.611 19.9442L208.42 19.945ZM214.818 20.6395V14.6215H213.309V13.2865H214.818V8.27045H216.329V20.6395H214.818ZM217.51 8.18945H219.019V20.7932H217.51V8.18945Z" fill="#002AC1"/>
<path d="M222.231 9.17338C222.505 8.84599 222.855 8.58613 223.251 8.41479C223.647 8.24346 224.079 8.16547 224.512 8.18713C224.947 8.16822 225.38 8.24738 225.778 8.41844C226.176 8.58951 226.528 8.84786 226.807 9.17338C227.51 10.0169 227.861 11.6754 227.861 14.1489C227.861 16.6224 227.51 18.2809 226.807 19.1244C226.526 19.4459 226.173 19.6997 225.775 19.866C225.377 20.0322 224.945 20.1065 224.512 20.0829C224.082 20.1092 223.651 20.0362 223.254 19.8696C222.858 19.7031 222.507 19.4478 222.231 19.1244C221.529 18.2809 221.178 16.6224 221.178 14.1489C221.178 11.6754 221.529 10.0169 222.231 9.17338ZM225.637 10.0216C225.511 9.84794 225.341 9.70833 225.145 9.61587C224.948 9.5234 224.73 9.48109 224.512 9.49288C224.295 9.48529 224.078 9.52945 223.882 9.62157C223.686 9.71368 223.515 9.85099 223.386 10.0216C222.94 10.6051 222.717 11.9801 222.717 14.1466C222.716 16.3131 222.939 17.6936 223.386 18.2881C223.521 18.4503 223.694 18.5798 223.889 18.6664C224.084 18.753 224.298 18.7945 224.512 18.7876C224.727 18.7985 224.941 18.7588 225.137 18.6718C225.333 18.5849 225.505 18.4533 225.637 18.2881C226.095 17.7136 226.323 16.3331 226.322 14.1466C226.321 11.9601 226.093 10.5851 225.637 10.0216ZM231.652 20.7924H230.098V8.18638H231.652V20.7924Z" fill="#002AC1"/>
<path d="M238.007 10.424C237.948 11.2886 238.207 12.1454 238.737 12.8407C239.267 13.536 240.034 14.0244 240.9 14.2183V15.5533C240.129 15.3918 239.393 15.0975 238.727 14.684C238.134 14.3275 237.63 13.8457 237.253 13.274C236.897 13.8736 236.4 14.3829 235.805 14.7605C235.132 15.2056 234.381 15.5262 233.59 15.7063V14.3563C234.425 14.1202 235.161 13.6314 235.692 12.9605C236.233 12.2228 236.507 11.3298 236.468 10.4233V8.27075H238.006L238.007 10.424ZM234.843 20.849V16.5673H236.397V19.5418H244.734V20.8483L234.843 20.849ZM240.26 11.7043H242.951V10.6745H240.26V9.38225H242.951V8.1875H244.505V17.012H242.951V13.0123H240.26V11.7043Z" fill="#002AC1"/>
<path d="M85.7266 4.65412V0.140625H86.2872V2.38012H86.3418L88.4181 0.140625H89.1503L87.2092 2.17762L89.1518 4.65262H88.4735L86.8693 2.55637L86.291 3.19087V4.65412H85.7266Z" fill="#002AC1"/>
<path d="M90.9599 4.72685C90.6726 4.73503 90.3892 4.66079 90.1448 4.51334C89.9004 4.36589 89.7057 4.1517 89.5849 3.89735C89.4476 3.61077 89.3799 3.29712 89.3873 2.98085C89.3798 2.66216 89.4474 2.34603 89.5849 2.05685C89.7085 1.80313 89.9033 1.5888 90.1468 1.43872C90.3902 1.28865 90.6723 1.20898 90.9603 1.20898C91.2483 1.20898 91.5304 1.28865 91.7739 1.43872C92.0173 1.5888 92.2121 1.80313 92.3357 2.05685C92.4733 2.34603 92.5409 2.66216 92.5334 2.98085C92.5407 3.29712 92.4731 3.61077 92.3357 3.89735C92.2149 4.1517 92.0203 4.36589 91.7758 4.51334C91.5314 4.66079 91.2472 4.73503 90.9599 4.72685ZM90.9607 4.2596C91.171 4.26656 91.3774 4.20274 91.5452 4.07885C91.7013 3.95633 91.8193 3.79373 91.8858 3.60935C91.961 3.40748 91.9985 3.19411 91.9966 2.97935C91.9984 2.76362 91.9609 2.54929 91.8858 2.34635C91.819 2.16087 91.7011 1.99689 91.5452 1.87235C91.3728 1.7549 91.1675 1.69192 90.9572 1.69192C90.747 1.69192 90.5417 1.7549 90.3693 1.87235C90.2133 1.99689 90.0955 2.16087 90.0286 2.34635C89.9536 2.54929 89.9161 2.76362 89.9179 2.97935C89.916 3.19411 89.9535 3.40748 90.0286 3.60935C90.0952 3.79373 90.2132 3.95633 90.3693 4.07885C90.5382 4.2026 90.7458 4.26566 90.9569 4.25735" fill="#002AC1"/>
<path d="M93.3438 4.65415V1.2694H93.859V1.78165H93.8959C93.9608 1.61216 94.0818 1.4686 94.2397 1.37365C94.4066 1.26864 94.6016 1.2141 94.8003 1.2169H94.9464C95.0056 1.2169 95.0502 1.2214 95.0802 1.2244V1.75015C95.0617 1.7464 95.021 1.7389 94.9572 1.72915C94.8902 1.71948 94.8226 1.71471 94.7549 1.7149C94.5981 1.71212 94.443 1.74716 94.3035 1.8169C94.1756 1.88255 94.0679 1.98012 93.9913 2.09965C93.9149 2.22282 93.8757 2.36449 93.8782 2.5084V4.65415H93.3438Z" fill="#002AC1"/>
<path d="M97.0599 4.72397C96.7564 4.73169 96.4567 4.65634 96.1948 4.50647C95.9524 4.36074 95.7587 4.14941 95.6372 3.89822C95.5018 3.61295 95.4349 3.30127 95.4419 2.98697C95.4356 2.6708 95.5024 2.35731 95.6372 2.06972C95.757 1.81691 95.9466 1.60163 96.1848 1.44797C96.4297 1.29537 96.7155 1.21707 97.0061 1.22297C97.1893 1.22286 97.3712 1.25252 97.5444 1.31072C97.724 1.37165 97.8881 1.46934 98.0258 1.59722C98.1801 1.74289 98.2985 1.92087 98.3719 2.11772C98.4645 2.37379 98.508 2.64429 98.5003 2.91572V3.13547H95.8218V2.68547H97.9551C97.9582 2.50867 97.9184 2.33365 97.8389 2.17472C97.7651 2.02853 97.6508 1.90539 97.509 1.81922C97.3575 1.73006 97.183 1.68503 97.0061 1.68947C96.8114 1.68372 96.6196 1.73605 96.4562 1.83947C96.3038 1.9391 96.1809 2.07622 96.1002 2.23697C96.0177 2.40024 95.9753 2.57997 95.9764 2.76197V3.06197C95.9695 3.28567 96.0163 3.50785 96.1133 3.71072C96.1961 3.87936 96.3287 4.02009 96.4939 4.11497C96.6672 4.20907 96.8631 4.25644 97.0615 4.25222C97.1908 4.25406 97.3195 4.23453 97.4421 4.19447C97.5527 4.15734 97.6535 4.09691 97.7374 4.01747C97.8228 3.93423 97.8882 3.83356 97.9289 3.72272L98.4442 3.86447C98.391 4.03343 98.2974 4.18767 98.1712 4.31447C98.0369 4.44645 97.875 4.54876 97.6967 4.61447C97.4935 4.68789 97.2781 4.724 97.0615 4.72097" fill="#002AC1"/>
<path d="M100.332 4.73386C100.125 4.73624 99.921 4.69424 99.7333 4.61086C99.5526 4.53263 99.4002 4.40331 99.2957 4.23965C99.1912 4.07598 99.1395 3.8855 99.1473 3.69286C99.14 3.52759 99.1811 3.36372 99.2657 3.22036C99.343 3.09989 99.4512 3.00114 99.5795 2.93386C99.7165 2.86336 99.8627 2.81114 100.014 2.77861C100.173 2.74336 100.334 2.71636 100.495 2.69611C100.706 2.66986 100.879 2.64886 101.009 2.63536C101.109 2.62818 101.207 2.60274 101.297 2.56036C101.329 2.54251 101.354 2.51636 101.37 2.485C101.386 2.45364 101.393 2.41837 101.39 2.38336V2.37061C101.396 2.27864 101.382 2.18648 101.351 2.09954C101.32 2.0126 101.271 1.93264 101.208 1.86436C101.133 1.79937 101.046 1.74977 100.952 1.71857C100.857 1.68737 100.757 1.67522 100.658 1.68286C100.445 1.67103 100.235 1.72856 100.059 1.84636C99.9291 1.93626 99.8234 2.05603 99.7518 2.19511L99.245 2.01811C99.3219 1.83008 99.4469 1.66435 99.6079 1.53661C99.755 1.42369 99.924 1.34102 100.105 1.29361C100.278 1.24881 100.457 1.22563 100.636 1.22461C100.765 1.22665 100.894 1.2397 101.021 1.26361C101.17 1.2908 101.314 1.34416 101.444 1.42111C101.588 1.5091 101.705 1.63315 101.784 1.78036C101.883 1.98057 101.929 2.20173 101.919 2.42386V4.65436H101.385V4.19536H101.358C101.311 4.28291 101.251 4.36266 101.178 4.43161C101.081 4.52331 100.967 4.59588 100.841 4.64536C100.678 4.70812 100.504 4.73821 100.329 4.73386M100.41 4.26661C100.597 4.27325 100.783 4.23132 100.948 4.14511C101.086 4.07259 101.2 3.96433 101.278 3.83236C101.351 3.70981 101.39 3.5706 101.39 3.42886V2.95186C101.348 2.98955 101.297 3.01548 101.241 3.02686C101.155 3.0505 101.068 3.06878 100.98 3.08161C100.881 3.09761 100.785 3.11086 100.692 3.12136L100.468 3.14986C100.337 3.16551 100.208 3.1939 100.083 3.23461C99.9729 3.26738 99.873 3.32731 99.7933 3.40861C99.7168 3.49547 99.6777 3.60779 99.6841 3.72211C99.6794 3.80195 99.6961 3.88161 99.7325 3.95327C99.7689 4.02493 99.8237 4.08613 99.8917 4.13086C100.048 4.22794 100.232 4.27608 100.417 4.26886" fill="#002AC1"/>
<path d="M104.762 4.65452V0.141773H106.377C106.652 0.131781 106.926 0.187113 107.175 0.303023C107.371 0.3996 107.534 0.550694 107.642 0.737274C107.745 0.921342 107.798 1.1278 107.796 1.33727C107.803 1.50349 107.767 1.66865 107.692 1.81802C107.627 1.93908 107.532 2.04226 107.416 2.11802C107.302 2.19177 107.177 2.247 107.046 2.28152V2.32577C107.198 2.3378 107.345 2.38762 107.473 2.47052C107.623 2.56642 107.746 2.69673 107.832 2.85002C107.933 3.03434 107.983 3.24116 107.977 3.45002C107.98 3.66367 107.925 3.87433 107.818 4.06052C107.702 4.2516 107.527 4.40205 107.319 4.49027C107.038 4.60618 106.735 4.66047 106.43 4.64927L104.762 4.65452ZM105.322 2.12477H106.361C106.521 2.12759 106.679 2.09421 106.823 2.02727C106.954 1.96643 107.067 1.87212 107.148 1.75427C107.23 1.63098 107.272 1.48646 107.269 1.33952C107.27 1.24556 107.252 1.15227 107.216 1.06535C107.179 0.978435 107.125 0.89972 107.056 0.834024C106.962 0.758072 106.855 0.700928 106.739 0.665909C106.623 0.63089 106.501 0.618692 106.38 0.630023H105.324L105.322 2.12477ZM105.322 4.17002H106.434C106.712 4.19614 106.989 4.12223 107.215 3.96227C107.289 3.89917 107.347 3.82124 107.387 3.73384C107.427 3.64644 107.447 3.55166 107.446 3.45602C107.447 3.3061 107.406 3.15867 107.327 3.03002C107.244 2.89733 107.126 2.78919 106.985 2.71727C106.824 2.63517 106.643 2.59464 106.461 2.59952H105.324L105.322 4.17002Z" fill="#002AC1"/>
<path d="M109.1 0.705805C109.05 0.706377 109.001 0.69733 108.954 0.679183C108.908 0.661035 108.866 0.634145 108.83 0.600056C108.795 0.568584 108.767 0.530228 108.748 0.487466C108.728 0.444705 108.719 0.398489 108.719 0.351806C108.719 0.305255 108.729 0.259198 108.748 0.21658C108.767 0.173962 108.795 0.135722 108.83 0.104306C108.866 0.0704861 108.908 0.0438719 108.955 0.0259841C109.001 0.00809626 109.05 -0.00071444 109.1 5.55639e-05C109.15 -0.000788721 109.199 0.00799608 109.245 0.0258962C109.291 0.0437963 109.333 0.0704524 109.368 0.104306C109.404 0.135582 109.432 0.173988 109.452 0.216939C109.471 0.25989 109.481 0.306389 109.48 0.353306C109.481 0.399795 109.471 0.44584 109.452 0.488383C109.432 0.530925 109.404 0.568992 109.369 0.600056C109.333 0.633909 109.291 0.660565 109.246 0.678465C109.2 0.696365 109.15 0.70515 109.101 0.704306M108.829 1.26831H109.363V4.65455H108.83L108.829 1.26831Z" fill="#002AC1"/>
<path d="M111.749 4.7259C111.462 4.73408 111.178 4.65984 110.934 4.51239C110.689 4.36493 110.495 4.15075 110.374 3.8964C110.237 3.60982 110.169 3.29616 110.176 2.9799C110.169 2.6612 110.236 2.34508 110.374 2.0559C110.497 1.80194 110.692 1.58735 110.936 1.43708C111.179 1.2868 111.461 1.20703 111.749 1.20703C112.038 1.20703 112.32 1.2868 112.563 1.43708C112.807 1.58735 113.001 1.80194 113.125 2.0559C113.262 2.34509 113.33 2.66121 113.322 2.9799C113.33 3.29616 113.262 3.60982 113.125 3.8964C113.004 4.15093 112.81 4.36528 112.565 4.51277C112.321 4.66026 112.036 4.73437 111.749 4.7259ZM111.75 4.25865C111.961 4.26695 112.168 4.2039 112.337 4.08015C112.493 3.95762 112.611 3.79502 112.678 3.61065C112.753 3.40882 112.791 3.19546 112.789 2.98065C112.791 2.76487 112.753 2.55054 112.678 2.34765C112.611 2.16217 112.493 1.99818 112.337 1.87365C112.165 1.75616 111.96 1.69315 111.75 1.69315C111.54 1.69315 111.334 1.75616 111.162 1.87365C111.005 1.99778 110.887 2.16185 110.82 2.34765C110.745 2.55059 110.707 2.76492 110.709 2.98065C110.707 3.19541 110.745 3.40877 110.82 3.61065C110.887 3.7952 111.006 3.95782 111.162 4.08015C111.331 4.20407 111.539 4.26715 111.75 4.25865Z" fill="#002AC1"/>
<path d="M115.636 4.65436H114.207V0.141606H115.698C116.1 0.129904 116.499 0.223111 116.852 0.411606C117.171 0.590933 117.428 0.86054 117.587 1.18486C117.766 1.56185 117.853 1.97405 117.842 2.38936C117.854 2.80767 117.765 3.22285 117.584 3.60211C117.422 3.93102 117.16 4.20335 116.834 4.38211C116.466 4.57293 116.053 4.66677 115.636 4.65436ZM114.768 4.16986H115.601C115.932 4.182 116.26 4.10769 116.552 3.95461C116.801 3.81282 116.998 3.5975 117.115 3.33961C117.245 3.0394 117.309 2.71538 117.3 2.38936C117.308 2.066 117.246 1.74462 117.117 1.44661C117.004 1.19353 116.813 0.980969 116.571 0.838356C116.293 0.689528 115.979 0.617437 115.663 0.629856H114.768L114.768 4.16986Z" fill="#002AC1"/>
<path d="M119.732 4.73386C119.526 4.73624 119.321 4.69424 119.134 4.61086C118.96 4.53426 118.812 4.41095 118.707 4.25536C118.597 4.08743 118.542 3.89118 118.548 3.69211C118.54 3.52684 118.582 3.36297 118.666 3.21961C118.743 3.09914 118.852 3.00039 118.98 2.93311C119.117 2.86261 119.263 2.81039 119.414 2.77786C119.574 2.74261 119.733 2.71561 119.895 2.69536C120.107 2.66911 120.28 2.64811 120.409 2.63461C120.51 2.62743 120.607 2.60199 120.698 2.55961C120.729 2.54162 120.754 2.51545 120.77 2.48412C120.787 2.4528 120.793 2.4176 120.79 2.38261V2.37061C120.796 2.27864 120.783 2.18648 120.751 2.09954C120.72 2.0126 120.671 1.93264 120.608 1.86436C120.534 1.79944 120.447 1.74989 120.352 1.71869C120.258 1.6875 120.158 1.67531 120.058 1.68286C119.846 1.67103 119.635 1.72856 119.46 1.84636C119.329 1.93626 119.224 2.05603 119.152 2.19511L118.645 2.01811C118.722 1.83022 118.846 1.66448 119.007 1.53661C119.154 1.42377 119.323 1.34112 119.504 1.29361C119.678 1.24882 119.856 1.22564 120.036 1.22461C120.165 1.22665 120.294 1.2397 120.42 1.26361C120.57 1.29063 120.713 1.344 120.842 1.42111C120.987 1.5088 121.105 1.63291 121.183 1.78036C121.282 1.98064 121.328 2.20179 121.318 2.42386V4.65436H120.785V4.19536H120.758C120.711 4.28296 120.649 4.3627 120.576 4.43161C120.48 4.52354 120.366 4.59615 120.24 4.64536C120.077 4.70812 119.903 4.73821 119.727 4.73386M119.809 4.26661C119.996 4.27325 120.182 4.23132 120.347 4.14511C120.485 4.07273 120.599 3.96443 120.676 3.83236C120.75 3.70987 120.788 3.57066 120.789 3.42886V2.95186C120.747 2.98913 120.696 3.01499 120.64 3.02686C120.554 3.0505 120.467 3.06878 120.379 3.08161C120.28 3.09761 120.184 3.11086 120.091 3.12136L119.867 3.14986C119.736 3.16541 119.607 3.1938 119.482 3.23461C119.372 3.26738 119.272 3.32731 119.192 3.40861C119.116 3.49547 119.077 3.60779 119.083 3.72211C119.078 3.80179 119.095 3.88131 119.131 3.95293C119.167 4.02455 119.221 4.08585 119.289 4.13086C119.446 4.22773 119.629 4.27585 119.815 4.26886" fill="#002AC1"/>
<path d="M123.809 1.71073H122.01V1.27048H123.809V1.71073ZM122.533 0.458984H123.067V3.68398C123.06 3.79779 123.083 3.91152 123.134 4.01398C123.172 4.08081 123.233 4.13238 123.306 4.15948C123.377 4.18407 123.453 4.19625 123.529 4.19548C123.577 4.19625 123.625 4.19299 123.673 4.18573L123.763 4.16848L123.872 4.63573C123.821 4.65258 123.77 4.66611 123.718 4.67623C123.637 4.6918 123.554 4.69885 123.472 4.69723C123.319 4.69706 123.169 4.66482 123.03 4.60273C122.886 4.53996 122.763 4.44013 122.673 4.31398C122.574 4.16956 122.524 3.99844 122.531 3.82498L122.533 0.458984Z" fill="#002AC1"/>
<path d="M125.634 4.73386C125.428 4.73627 125.224 4.69427 125.036 4.61086C124.855 4.53263 124.703 4.40331 124.598 4.23965C124.494 4.07598 124.442 3.8855 124.45 3.69286C124.443 3.52759 124.484 3.36372 124.568 3.22036C124.646 3.1003 124.754 3.00167 124.882 2.93386C125.02 2.86331 125.166 2.81109 125.318 2.77861C125.477 2.74336 125.636 2.71636 125.799 2.69611C126.009 2.66986 126.183 2.64886 126.312 2.63536C126.412 2.62818 126.51 2.60274 126.6 2.56036C126.631 2.54254 126.657 2.51642 126.673 2.48507C126.69 2.45372 126.697 2.41844 126.693 2.38336V2.37061C126.699 2.27859 126.686 2.18641 126.654 2.09948C126.623 2.01254 126.574 1.93261 126.51 1.86436C126.436 1.7995 126.349 1.74998 126.255 1.71878C126.16 1.68759 126.061 1.67537 125.961 1.68286C125.748 1.67093 125.537 1.72845 125.361 1.84636C125.231 1.93653 125.126 2.05623 125.054 2.19511L124.547 2.01811C124.624 1.82989 124.749 1.66407 124.91 1.53661C125.057 1.42369 125.226 1.34102 125.407 1.29361C125.58 1.24881 125.759 1.22563 125.938 1.22461C126.067 1.22673 126.196 1.23978 126.323 1.26361C126.472 1.29078 126.615 1.34415 126.744 1.42111C126.889 1.50856 127.007 1.63273 127.085 1.78036C127.184 1.98058 127.23 2.20173 127.22 2.42386V4.65436H126.687V4.19536H126.66C126.612 4.28254 126.551 4.36219 126.479 4.43161C126.382 4.52331 126.268 4.5959 126.143 4.64536C125.979 4.70816 125.804 4.73825 125.628 4.73386M125.71 4.26661C125.896 4.27252 126.08 4.23062 126.244 4.14511C126.377 4.0755 126.488 3.97226 126.566 3.84623C126.644 3.7202 126.686 3.57603 126.687 3.42886V2.95186C126.645 2.98893 126.594 3.01476 126.539 3.02686C126.453 3.05038 126.365 3.06867 126.276 3.08161C126.178 3.09761 126.082 3.11086 125.989 3.12136L125.765 3.14986C125.634 3.16537 125.505 3.19376 125.381 3.23461C125.27 3.26787 125.171 3.32772 125.091 3.40861C125.015 3.49578 124.976 3.60787 124.981 3.72211C124.977 3.80179 124.993 3.88131 125.029 3.95293C125.065 4.02455 125.12 4.08585 125.188 4.13086C125.345 4.22784 125.528 4.27596 125.714 4.26886" fill="#002AC1"/>
<path d="M132.595 1.27064C132.584 1.16504 132.549 1.0632 132.492 0.972957C132.434 0.882715 132.357 0.806486 132.265 0.750143C132.052 0.621554 131.805 0.557108 131.555 0.564893C131.37 0.560708 131.187 0.593908 131.017 0.662393C130.875 0.718269 130.752 0.810255 130.66 0.928643C130.576 1.04034 130.531 1.176 130.533 1.31489C130.53 1.42431 130.561 1.53203 130.622 1.62389C130.682 1.7106 130.761 1.78373 130.853 1.83839C130.945 1.89442 131.044 1.94092 131.146 1.97714C131.25 2.01314 131.343 2.04164 131.429 2.06414L131.899 2.18714C132.036 2.22321 132.171 2.26602 132.303 2.31539C132.454 2.37179 132.597 2.4461 132.73 2.53664C132.867 2.63156 132.982 2.75342 133.068 2.89439C133.161 3.05792 133.207 3.24296 133.201 3.42989C133.205 3.66437 133.137 3.89454 133.006 4.09139C132.866 4.29741 132.668 4.46024 132.436 4.56089C132.151 4.68452 131.841 4.74423 131.529 4.73564C131.235 4.74226 130.942 4.68888 130.67 4.57889C130.443 4.48638 130.246 4.33551 130.1 4.14239C129.962 3.95152 129.882 3.72631 129.869 3.49289H130.448C130.457 3.64905 130.519 3.79783 130.625 3.91514C130.732 4.02858 130.868 4.1135 131.018 4.16189C131.184 4.21666 131.358 4.24379 131.533 4.24214C131.728 4.24444 131.922 4.20901 132.104 4.13789C132.262 4.07839 132.401 3.97963 132.508 3.85139C132.608 3.72902 132.66 3.5769 132.658 3.42089C132.664 3.28755 132.618 3.15695 132.528 3.05564C132.434 2.95533 132.319 2.87689 132.189 2.82614C132.042 2.76467 131.89 2.7133 131.735 2.67239L131.165 2.51339C130.848 2.4353 130.555 2.28665 130.307 2.07914C130.202 1.9859 130.12 1.8716 130.065 1.74416C130.01 1.61672 129.985 1.47921 129.99 1.34114C129.985 1.10367 130.059 0.871088 130.201 0.678143C130.348 0.485104 130.545 0.333254 130.771 0.237893C131.024 0.130315 131.297 0.0766156 131.573 0.0803933C131.846 0.0754512 132.117 0.128686 132.368 0.236393C132.586 0.328869 132.777 0.474829 132.921 0.660143C133.056 0.83664 133.132 1.05013 133.137 1.27064H132.595Z" fill="#002AC1"/>
<path d="M135.559 1.71073H133.76V1.27048H135.559V1.71073ZM134.283 0.458984H134.817V3.68398C134.81 3.79779 134.833 3.91152 134.884 4.01398C134.922 4.08081 134.983 4.13238 135.056 4.15948C135.127 4.18405 135.203 4.19624 135.279 4.19548C135.327 4.19625 135.375 4.19299 135.423 4.18573L135.513 4.16848L135.622 4.63573C135.571 4.65258 135.52 4.66611 135.468 4.67623C135.387 4.6918 135.304 4.69885 135.222 4.69723C135.069 4.69706 134.919 4.66482 134.78 4.60273C134.636 4.53996 134.513 4.44013 134.423 4.31398C134.324 4.16956 134.274 3.99844 134.281 3.82498L134.283 0.458984Z" fill="#002AC1"/>
<path d="M137.384 4.73386C137.178 4.73624 136.974 4.69424 136.786 4.61086C136.612 4.53426 136.464 4.41095 136.359 4.25536C136.249 4.08743 136.194 3.89118 136.2 3.69211C136.193 3.52684 136.234 3.36297 136.318 3.21961C136.396 3.09914 136.504 3.00039 136.632 2.93311C136.769 2.8626 136.915 2.81039 137.067 2.77786C137.226 2.74261 137.385 2.71561 137.547 2.69536C137.759 2.66911 137.932 2.64811 138.062 2.63461C138.162 2.62743 138.26 2.60199 138.35 2.55961C138.381 2.54162 138.406 2.51545 138.423 2.48412C138.439 2.4528 138.446 2.4176 138.443 2.38261V2.37061C138.448 2.27864 138.435 2.18648 138.404 2.09954C138.372 2.0126 138.324 1.93264 138.26 1.86436C138.186 1.79944 138.099 1.74989 138.004 1.71869C137.91 1.6875 137.81 1.67531 137.71 1.68286C137.498 1.67103 137.287 1.72856 137.112 1.84636C136.982 1.93626 136.876 2.05603 136.804 2.19511L136.298 2.01811C136.374 1.83013 136.499 1.66439 136.66 1.53661C136.807 1.42377 136.977 1.34112 137.157 1.29361C137.331 1.24881 137.509 1.22563 137.689 1.22461C137.818 1.22665 137.947 1.2397 138.073 1.26361C138.223 1.29063 138.366 1.344 138.496 1.42111C138.64 1.50882 138.758 1.63293 138.836 1.78036C138.935 1.98064 138.981 2.20179 138.971 2.42386V4.65436H138.438V4.19536H138.411C138.364 4.28296 138.302 4.3627 138.229 4.43161C138.133 4.52352 138.019 4.59613 137.893 4.64536C137.73 4.70812 137.556 4.73821 137.38 4.73386M137.462 4.26661C137.649 4.27325 137.835 4.23132 138 4.14511C138.138 4.07273 138.252 3.96443 138.329 3.83236C138.403 3.70987 138.441 3.57066 138.442 3.42886V2.95186C138.4 2.98913 138.349 3.01499 138.293 3.02686C138.207 3.0505 138.12 3.06878 138.032 3.08161C137.933 3.09761 137.837 3.11086 137.744 3.12136L137.52 3.14986C137.389 3.16541 137.26 3.1938 137.135 3.23461C137.025 3.26738 136.925 3.32731 136.845 3.40861C136.769 3.49547 136.73 3.60779 136.736 3.72211C136.731 3.80179 136.748 3.88131 136.784 3.95293C136.82 4.02455 136.875 4.08585 136.942 4.13086C137.099 4.22773 137.283 4.27585 137.468 4.26886" fill="#002AC1"/>
<path d="M141.461 1.71073H139.658V1.27048H141.457L141.461 1.71073ZM140.186 0.458984H140.719V3.68398C140.712 3.79778 140.735 3.91151 140.786 4.01398C140.824 4.08077 140.885 4.13233 140.958 4.15948C141.029 4.18405 141.105 4.19624 141.181 4.19548C141.229 4.19625 141.278 4.19299 141.325 4.18573L141.415 4.16848L141.524 4.63573C141.474 4.65258 141.422 4.66611 141.37 4.67623C141.289 4.6918 141.207 4.69885 141.124 4.69723C140.972 4.69706 140.821 4.66482 140.683 4.60273C140.539 4.53996 140.415 4.44013 140.325 4.31398C140.226 4.16956 140.177 3.99844 140.183 3.82498L140.186 0.458984Z" fill="#002AC1"/>
<path d="M142.536 0.705797C142.436 0.706553 142.339 0.668529 142.268 0.600047C142.232 0.568725 142.204 0.530398 142.185 0.487602C142.165 0.444806 142.156 0.398517 142.156 0.351797C142.156 0.304959 142.165 0.258541 142.185 0.215615C142.204 0.172689 142.232 0.134234 142.268 0.102797C142.34 0.0354124 142.436 -0.0015107 142.536 4.7381e-05C142.586 -0.000713369 142.635 0.00810979 142.681 0.0260053C142.727 0.0439007 142.768 0.0705125 142.804 0.104297C142.839 0.135697 142.868 0.174127 142.887 0.217049C142.907 0.259971 142.916 0.30641 142.916 0.353297C142.916 0.400059 142.907 0.446353 142.887 0.489138C142.868 0.531924 142.839 0.570232 142.804 0.601547C142.768 0.635332 142.727 0.661944 142.681 0.679839C142.635 0.697735 142.586 0.706558 142.536 0.705797ZM142.265 1.2698H142.798V4.65455H142.265V1.2698Z" fill="#002AC1"/>
<path d="M145.184 4.7259C144.897 4.73438 144.613 4.66028 144.368 4.51281C144.123 4.36534 143.928 4.15099 143.808 3.8964C143.67 3.60981 143.603 3.29616 143.61 2.9799C143.602 2.66121 143.67 2.34509 143.808 2.0559C143.931 1.80194 144.126 1.58735 144.369 1.43708C144.613 1.2868 144.895 1.20703 145.183 1.20703C145.471 1.20703 145.753 1.2868 145.997 1.43708C146.24 1.58735 146.435 1.80194 146.558 2.0559C146.696 2.34494 146.764 2.66116 146.756 2.9799C146.764 3.29621 146.696 3.60996 146.558 3.8964C146.438 4.15087 146.243 4.36519 145.999 4.51268C145.755 4.66017 145.471 4.73432 145.184 4.7259ZM145.184 4.25865C145.395 4.26684 145.602 4.20379 145.771 4.08015C145.928 3.95782 146.046 3.7952 146.113 3.61065C146.188 3.40865 146.225 3.19537 146.224 2.98065C146.225 2.76496 146.188 2.55071 146.113 2.34765C146.046 2.16203 145.927 1.99804 145.771 1.87365C145.599 1.75616 145.394 1.69315 145.183 1.69315C144.973 1.69315 144.768 1.75616 144.596 1.87365C144.439 1.99778 144.321 2.16185 144.254 2.34765C144.179 2.55059 144.141 2.76492 144.143 2.98065C144.141 3.19541 144.178 3.40877 144.254 3.61065C144.321 3.7952 144.439 3.95782 144.596 4.08015C144.765 4.20418 144.973 4.26726 145.184 4.25865Z" fill="#002AC1"/>
<path d="M148.104 2.61914V4.65539H147.57V1.26989H148.086V1.79864H148.131C148.211 1.62828 148.34 1.48402 148.502 1.38314C148.695 1.271 148.918 1.21627 149.143 1.22564C149.357 1.22134 149.568 1.2693 149.758 1.36514C149.937 1.46105 150.081 1.60889 150.17 1.78814C150.275 2.01206 150.325 2.2568 150.316 2.50289V4.65539H149.783V2.53964C149.797 2.31323 149.721 2.09027 149.571 1.91714C149.496 1.84119 149.405 1.78181 149.304 1.743C149.204 1.70419 149.096 1.68684 148.988 1.69214C148.829 1.68952 148.672 1.7267 148.532 1.80014C148.398 1.87365 148.289 1.98329 148.217 2.11589C148.136 2.27118 148.096 2.44407 148.102 2.61839" fill="#002AC1"/>
<path d="M12.4436 0.144531L3.55058 10.145V0.144531H0V20.804H3.55058V10.8035L12.4436 20.804H17.5068L7.954 10.4743L17.5068 0.144531H12.4436Z" fill="#002AC1"/>
<path d="M58.5351 2.57911C57.7334 1.80904 56.783 1.20181 55.7389 0.792607C54.6193 0.355536 53.4228 0.136171 52.2168 0.146857H44.6758V20.8041H52.2168C53.4228 20.8148 54.6193 20.5954 55.7389 20.1584C56.786 19.7541 57.7376 19.1462 58.5359 18.3716C59.3342 17.5971 59.9624 16.6721 60.3823 15.6531C60.8368 14.5525 61.0644 13.3753 61.0521 12.1889V8.76136C61.063 7.57746 60.8354 6.40299 60.3823 5.30461C59.9598 4.28471 59.3316 3.3579 58.5351 2.57911ZM57.4969 12.1881C57.5061 12.9071 57.3773 13.6214 57.117 14.2941C56.8767 14.905 56.5069 15.4595 56.0319 15.9216C55.5533 16.3795 54.9835 16.7368 54.3578 16.9716C53.6728 17.2256 52.945 17.3516 52.2122 17.3429H48.2264V3.60736H52.2168C52.9495 3.59883 53.6774 3.72477 54.3624 3.97861C54.9881 4.21352 55.5578 4.57086 56.0366 5.02861C56.5125 5.4928 56.8823 6.05002 57.1216 6.66361C57.3807 7.33459 57.5095 8.04669 57.5015 8.76361L57.4969 12.1881Z" fill="#002AC1"/>
<path d="M78.8634 12.8263C78.6943 12.2806 78.4415 11.763 78.1137 11.291C77.8113 10.8603 77.4457 10.4751 77.0286 10.148C76.63 9.83626 76.1957 9.57073 75.7343 9.35678C75.2977 9.15326 74.839 8.99804 74.367 8.89403C73.9396 8.79742 73.5035 8.74215 73.065 8.72903H69.4621C69.1194 8.74674 68.7766 8.69445 68.4557 8.57551C68.1348 8.45656 67.843 8.27358 67.5988 8.03828C67.1334 7.53027 66.8919 6.86392 66.9267 6.18353C66.8961 5.50232 67.136 4.83584 67.5965 4.32278C67.8372 4.0807 68.1282 3.89167 68.45 3.76839C68.7718 3.6451 69.1169 3.59043 69.4621 3.60803H77.1731V0.144531H69.4621C68.786 0.15494 68.1153 0.263376 67.4719 0.466281C66.7183 0.693577 66.02 1.06814 65.4197 1.56714C64.8193 2.06615 64.3294 2.67914 63.9798 3.36878C63.5519 4.24661 63.345 5.21131 63.3761 6.18278C63.3452 7.15673 63.5524 8.12386 63.9806 9.00428C64.3434 9.72322 64.8594 10.3584 65.494 10.8673C66.0805 11.3303 66.7517 11.6807 67.4719 11.9C68.1153 12.1029 68.786 12.2114 69.4621 12.2218H73.0373C73.3964 12.218 73.7529 12.2819 74.0871 12.41C74.3955 12.5302 74.6734 12.7145 74.9015 12.95C75.1257 13.1876 75.2993 13.4662 75.4121 13.7698C75.5317 14.0994 75.5913 14.4469 75.5882 14.7965C75.6204 15.4743 75.3791 16.1374 74.9161 16.6438C74.6706 16.8821 74.3765 17.0675 74.0528 17.1878C73.7292 17.3081 73.3832 17.3606 73.0373 17.342H64.0082V20.804H73.0373C73.477 20.8005 73.9151 20.7525 74.3447 20.6608C74.8155 20.5631 75.2738 20.4149 75.7112 20.219C76.1739 20.0109 76.611 19.7522 77.014 19.448C77.4361 19.1296 77.8032 18.7472 78.1013 18.3155C78.4275 17.8392 78.6806 17.3189 78.8527 16.7713C79.0502 16.1305 79.1462 15.4641 79.1372 14.795C79.1463 14.1284 79.0527 13.4643 78.8596 12.8248" fill="#002AC1"/>
<path d="M38.9129 1.63913C37.4031 0.524867 35.5343 -0.0258152 33.6444 0.0866263H23.3887C23.4351 0.862406 23.7833 1.59167 24.3622 2.12562C24.9412 2.65957 25.7072 2.95795 26.504 2.95988H33.1283C34.1492 2.88863 35.1648 3.15554 36.0106 3.71738C36.3297 3.96398 36.585 4.28027 36.7557 4.64075C36.9264 5.00123 37.0078 5.3958 36.9934 5.79263C37 6.23618 36.8989 6.67496 36.6984 7.07315C36.4979 7.47134 36.2038 7.81767 35.8399 8.08388C34.8459 8.73643 33.6569 9.04658 32.4616 8.96513H30.539C32.8391 9.04277 35.1147 9.45091 37.2926 10.1764L37.4802 10.1254C37.621 10.0879 37.7563 10.0421 37.8901 9.99188C37.954 10.0204 38.0232 10.0459 38.0847 10.0759C38.7878 9.69393 39.3927 9.16098 39.8534 8.51738C40.4772 7.6816 40.8027 6.66938 40.7801 5.63588C40.8003 4.87627 40.6434 4.1221 40.3211 3.43027C39.9989 2.73845 39.5197 2.12702 38.9199 1.64213" fill="#00BE6E"/>
<path d="M27.9312 11.5119C27.4736 11.3938 27.034 11.2172 26.6238 10.9869C26.4508 10.8903 26.285 10.7817 26.1278 10.6621C25.717 11.0032 25.3893 11.4292 25.1683 11.9092C24.9474 12.3891 24.8388 12.9111 24.8505 13.4371V17.1549H26.6192C27.1309 17.1505 27.6199 16.9483 27.9789 16.5927C28.3379 16.2371 28.5376 15.7571 28.5341 15.2581V12.9136C28.5377 12.5721 28.6801 12.246 28.9301 12.0069C29.115 11.8496 29.354 11.7663 29.5992 11.7736H29.7807C29.1561 11.7541 28.5358 11.6666 27.9312 11.5126" fill="#00BE6E"/>
<path d="M40.294 11.815C39.6946 11.0843 38.9387 10.4902 38.0792 10.0742C36.0636 11.2322 33.2482 11.605 31.4249 11.7242C27.3768 11.5742 26.6408 10.981 26.6408 10.981L26.6262 10.9885C27.0365 11.2186 27.476 11.3951 27.9335 11.5135C28.5387 11.6674 29.1595 11.755 29.7846 11.7745H30.366C30.1829 11.7782 30.0214 11.7805 29.9045 11.7805C30.1445 11.785 30.2891 11.7805 30.2891 11.7805H33.329C36.9772 11.7805 37.3195 13.63 37.3195 13.63H32.2439C32.1735 13.63 32.1061 13.6572 32.0563 13.7058C32.0065 13.7543 31.9786 13.8201 31.9786 13.8887C31.9786 13.9573 32.0065 14.0232 32.0563 14.0717C32.1061 14.1202 32.1735 14.1475 32.2439 14.1475H37.4733C37.5534 14.6088 37.558 15.0797 37.4871 15.5425H30.7328C30.6967 15.5406 30.6606 15.5459 30.6266 15.558C30.5927 15.5702 30.5617 15.589 30.5355 15.6132C30.5092 15.6375 30.4883 15.6667 30.474 15.6991C30.4598 15.7315 30.4524 15.7663 30.4524 15.8016C30.4524 15.8368 30.4598 15.8717 30.474 15.9041C30.4883 15.9365 30.5092 15.9657 30.5355 15.99C30.5617 16.0142 30.5927 16.033 30.6266 16.0451C30.6606 16.0573 30.6967 16.0626 30.7328 16.0607H37.3464C37.3464 16.0607 36.968 17.9357 33.4813 17.9357H26.5032C25.7058 17.9369 24.939 18.2349 24.3594 18.7689C23.7799 19.303 23.4312 20.0327 23.3848 20.809H34.7317C36.4893 20.9084 38.2203 20.355 39.5765 19.2602C40.1432 18.7612 40.592 18.1481 40.8919 17.4634C41.1919 16.7786 41.3358 16.0385 41.3138 15.2942C41.4366 14.0508 41.0708 12.8083 40.2902 11.818" fill="#008CFF"/>
<path d="M25.9822 10.5529C26.0283 10.5927 26.0806 10.6234 26.1291 10.6617C28.067 8.99817 31.5284 8.96367 31.5614 8.96217C30.9462 8.94117 30.5486 8.94267 30.5317 8.94267C30.2836 8.96394 30.0337 8.93549 29.7973 8.85908C29.5608 8.78266 29.3429 8.6599 29.157 8.49833C28.971 8.33677 28.8209 8.13981 28.7158 7.91958C28.6108 7.69934 28.553 7.46048 28.5461 7.21767H33.0064C33.0744 7.21411 33.1384 7.18525 33.1853 7.13704C33.2321 7.08884 33.2582 7.02496 33.2582 6.95855C33.2582 6.89214 33.2321 6.82826 33.1853 6.78005C33.1384 6.73185 33.0744 6.70299 33.0064 6.69942H28.5353V5.29392H34.6729C34.7409 5.29035 34.8049 5.2615 34.8517 5.21329C34.8986 5.16509 34.9247 5.10121 34.9247 5.0348C34.9247 4.96839 34.8986 4.90451 34.8517 4.8563C34.8049 4.8081 34.7409 4.77924 34.6729 4.77567H28.42L28.4154 4.76292C28.297 4.48519 28.0968 4.24793 27.8401 4.08119C27.5835 3.91444 27.2818 3.82569 26.9734 3.82617H24.8517V7.81242C24.8117 8.32309 24.8929 8.83588 25.089 9.31101C25.285 9.78614 25.5907 10.2108 25.9822 10.5522" fill="#008CFF"/>
<path d="M29.8992 11.7752L29.7831 11.7715H29.6016C29.6016 11.7715 29.71 11.7715 29.8992 11.7715" fill="#0096FF"/>
<path d="M37.5512 9.84714C36.8801 9.61164 36.1877 9.43837 35.4833 9.32964C34.1855 9.12457 32.8754 9.00206 31.5613 8.96289C31.5282 8.96289 28.0668 8.99889 26.1289 10.6609C26.664 11.0606 27.2767 11.3502 27.93 11.5121C28.5728 11.6751 29.2331 11.7635 29.8971 11.7754C31.0507 11.7754 35.3187 11.6591 38.0787 10.0736C37.9103 9.99264 37.7358 9.91614 37.552 9.84864" fill="#0264C8"/>
<path d="M21.5055 8.74414H14.4043V12.2069H21.5055V8.74414Z" fill="#002AC1"/>
</g>
</svg>
