<svg width="185" height="22" viewBox="0 0 185 22" fill="none" xmlns="http://www.w3.org/2000/svg">
<g clip-path="url(#clip0_413_2170)">
<mask id="mask0_413_2170" style="mask-type:luminance" maskUnits="userSpaceOnUse" x="0" y="0" width="185" height="21">
<path d="M185 0H0V21H185V0Z" fill="white"/>
</mask>
<g mask="url(#mask0_413_2170)">
<path d="M38.7997 1.58577C37.2856 0.467999 35.4113 -0.0845493 33.5158 0.0280226H23.2324C23.2789 0.806636 23.6285 1.53854 24.2099 2.07413C24.7912 2.60972 25.5603 2.90855 26.36 2.90952H33.0029C34.0267 2.83805 35.0452 3.10575 35.8936 3.66927C36.2123 3.91685 36.4671 4.23378 36.6377 4.59467C36.8082 4.95556 36.8897 5.35039 36.8757 5.74752C36.8819 6.1927 36.78 6.63299 36.5783 7.0324C36.3766 7.43181 36.0809 7.77898 35.7152 8.04552C34.7187 8.70049 33.5264 9.01198 32.3277 8.93052H30.3982C32.7046 9.0086 34.9867 9.41748 37.171 10.144L37.3578 10.0938C37.4993 10.0563 37.6354 10.0098 37.7693 9.95952C37.8331 9.98802 37.9023 10.0135 37.9646 10.0435C38.6678 9.66009 39.2726 9.12591 39.7333 8.48127C40.3589 7.64277 40.6854 6.62748 40.6631 5.59077C40.6831 4.82897 40.5255 4.07267 40.2022 3.37891C39.8789 2.68515 39.3983 2.07203 38.7967 1.58577" fill="#00BE6E"/>
<path d="M27.7852 11.4853C27.3276 11.3671 26.8881 11.1906 26.4779 10.9603C26.3042 10.8636 26.1379 10.7549 25.9803 10.6348C25.5682 10.9761 25.2391 11.4026 25.0169 11.8833C24.7948 12.3641 24.6852 12.8871 24.696 13.4143V17.1425H26.4694C26.9829 17.1386 27.4737 16.936 27.8342 16.5794C28.1946 16.2228 28.3952 15.7413 28.392 15.2405V12.8908C28.3935 12.7212 28.4294 12.5537 28.4975 12.3977C28.5656 12.2417 28.6646 12.1004 28.7888 11.9818C28.9737 11.8239 29.213 11.7403 29.4586 11.7478H29.6409C29.0142 11.7284 28.3918 11.6399 27.7852 11.4853Z" fill="#00BE6E"/>
<path d="M40.1862 11.7882C39.585 11.0557 38.8271 10.4601 37.9653 10.043C35.9443 11.204 33.1205 11.5782 31.2917 11.693C27.232 11.543 26.4946 10.9475 26.4946 10.9475L26.4792 10.955C26.8894 11.1853 27.3289 11.3618 27.7865 11.48C28.3932 11.6341 29.0156 11.7219 29.6422 11.7417H30.2251C30.0413 11.7455 29.879 11.7477 29.7583 11.7477C29.9998 11.7522 30.1428 11.7477 30.1428 11.7477H33.1904C36.8494 11.7477 37.1932 13.6025 37.1932 13.6025H32.1084C32.0377 13.6025 31.97 13.6298 31.92 13.6786C31.87 13.7273 31.842 13.7934 31.842 13.8623C31.842 13.9313 31.87 13.9974 31.92 14.0461C31.97 14.0948 32.0377 14.1222 32.1084 14.1222H37.3501C37.4308 14.5848 37.4357 15.0569 37.3647 15.521H30.5973C30.5265 15.521 30.4586 15.5484 30.4086 15.5972C30.3586 15.646 30.3304 15.7122 30.3304 15.7812C30.3304 15.8502 30.3586 15.9164 30.4086 15.9652C30.4586 16.014 30.5265 16.0415 30.5973 16.0415H37.2309C37.2309 16.0415 36.8502 17.924 33.3542 17.924H26.3561C25.5564 17.9249 24.7873 18.2238 24.2059 18.7594C23.6246 19.2949 23.275 20.0269 23.2285 20.8055H34.6093C36.3723 20.9055 38.1087 20.3502 39.4687 19.2515C40.0365 18.7512 40.4862 18.1367 40.7868 17.4504C41.0874 16.7641 41.2317 16.0224 41.2098 15.2765C41.3333 14.0297 40.9666 12.7836 40.1839 11.7905" fill="#008CFF"/>
<path d="M25.8335 10.5248C25.8796 10.5646 25.9319 10.5953 25.9804 10.6336C27.9245 8.96555 31.3951 8.9303 31.4281 8.9303C30.8129 8.90855 30.4123 8.9093 30.3953 8.9093C30.147 8.93066 29.8967 8.90231 29.6599 8.82599C29.4232 8.74967 29.2049 8.62699 29.0185 8.46548C28.8321 8.30396 28.6814 8.10701 28.5758 7.88671C28.4702 7.6664 28.4119 7.42738 28.4043 7.1843H32.8762C32.947 7.1843 33.0149 7.15688 33.0649 7.10807C33.115 7.05927 33.1431 6.99307 33.1431 6.92405C33.1431 6.85503 33.115 6.78883 33.0649 6.74003C33.0149 6.69122 32.947 6.6638 32.8762 6.6638H28.3944V5.2508H34.5465C34.6172 5.2508 34.685 5.22342 34.735 5.17468C34.7849 5.12595 34.813 5.05985 34.813 4.99093C34.813 4.922 34.7849 4.8559 34.735 4.80717C34.685 4.75843 34.6172 4.73105 34.5465 4.73105H28.2782L28.2736 4.72055C28.1553 4.4415 27.9546 4.20303 27.6971 4.03544C27.4395 3.86785 27.1367 3.77869 26.8271 3.7793H24.6977V7.7768C24.6571 8.28895 24.7382 8.80332 24.9347 9.27993C25.1312 9.75653 25.4377 10.1825 25.8304 10.5248" fill="#008CFF"/>
<path d="M29.7574 11.7518L29.6412 11.748H29.459C29.459 11.748 29.5674 11.748 29.7574 11.748" fill="#4489C8"/>
<path d="M37.4346 9.81619C36.7606 9.58021 36.0655 9.4062 35.3583 9.29644C34.0571 9.09146 32.7437 8.96895 31.4263 8.92969C31.3932 8.92969 27.9226 8.96569 25.9785 10.6337C26.5155 11.0339 27.13 11.324 27.785 11.4864C28.4295 11.6498 29.0916 11.7387 29.7575 11.7512C30.911 11.7512 35.1937 11.6349 37.963 10.0442C37.7938 9.96319 37.6192 9.88519 37.4339 9.81919" fill="#0264C8"/>
<path d="M12.4436 0.144531L3.55058 10.145V0.144531H0V20.804H3.55058V10.8035L12.4436 20.804H17.5068L7.954 10.4743L17.5068 0.144531H12.4436Z" fill="#002AC1"/>
<path d="M58.5351 2.57911C57.7334 1.80904 56.783 1.20181 55.7389 0.792607C54.6193 0.355536 53.4228 0.136171 52.2168 0.146857H44.6758V20.8041H52.2168C53.4228 20.8148 54.6193 20.5954 55.7389 20.1584C56.786 19.7541 57.7376 19.1462 58.5359 18.3716C59.3342 17.5971 59.9624 16.6721 60.3823 15.6531C60.8368 14.5525 61.0644 13.3753 61.0521 12.1889V8.76136C61.063 7.57746 60.8354 6.40299 60.3823 5.30461C59.9598 4.28471 59.3316 3.3579 58.5351 2.57911ZM57.4969 12.1881C57.5061 12.9071 57.3773 13.6214 57.117 14.2941C56.8767 14.905 56.5069 15.4595 56.0319 15.9216C55.5533 16.3795 54.9835 16.7368 54.3578 16.9716C53.6728 17.2256 52.945 17.3516 52.2122 17.3429H48.2264V3.60736H52.2168C52.9495 3.59883 53.6774 3.72477 54.3624 3.97861C54.9881 4.21352 55.5578 4.57086 56.0366 5.02861C56.5125 5.4928 56.8823 6.05002 57.1216 6.66361C57.3807 7.33459 57.5095 8.04669 57.5015 8.76361L57.4969 12.1881Z" fill="#002AC1"/>
<path d="M78.8634 12.8263C78.6943 12.2806 78.4415 11.763 78.1137 11.291C77.8113 10.8603 77.4457 10.4751 77.0286 10.148C76.63 9.83626 76.1957 9.57073 75.7343 9.35678C75.2977 9.15326 74.839 8.99804 74.367 8.89403C73.9396 8.79742 73.5035 8.74215 73.065 8.72903H69.4621C69.1194 8.74674 68.7766 8.69445 68.4557 8.57551C68.1348 8.45656 67.843 8.27358 67.5988 8.03828C67.1334 7.53027 66.8919 6.86392 66.9267 6.18353C66.8961 5.50232 67.136 4.83584 67.5965 4.32278C67.8372 4.0807 68.1282 3.89167 68.45 3.76839C68.7718 3.6451 69.1169 3.59043 69.4621 3.60803H77.1731V0.144531H69.4621C68.786 0.15494 68.1153 0.263376 67.4719 0.466281C66.7183 0.693577 66.02 1.06814 65.4197 1.56714C64.8193 2.06615 64.3294 2.67914 63.9798 3.36878C63.5519 4.24661 63.345 5.21131 63.3761 6.18278C63.3452 7.15673 63.5524 8.12386 63.9806 9.00428C64.3434 9.72322 64.8594 10.3584 65.494 10.8673C66.0805 11.3303 66.7517 11.6807 67.4719 11.9C68.1153 12.1029 68.786 12.2114 69.4621 12.2218H73.0373C73.3964 12.218 73.7529 12.2819 74.0871 12.41C74.3955 12.5302 74.6734 12.7145 74.9015 12.95C75.1257 13.1876 75.2993 13.4662 75.4121 13.7698C75.5317 14.0994 75.5913 14.4469 75.5882 14.7965C75.6204 15.4743 75.3791 16.1374 74.9161 16.6438C74.6706 16.8821 74.3765 17.0675 74.0528 17.1878C73.7292 17.3081 73.3832 17.3606 73.0373 17.342H64.0082V20.804H73.0373C73.477 20.8005 73.9151 20.7525 74.3447 20.6608C74.8155 20.5631 75.2738 20.4149 75.7112 20.219C76.1739 20.0109 76.611 19.7522 77.014 19.448C77.4361 19.1296 77.8032 18.7472 78.1013 18.3155C78.4275 17.8392 78.6806 17.3189 78.8527 16.7713C79.0502 16.1305 79.1462 15.4641 79.1372 14.795C79.1463 14.1284 79.0527 13.4643 78.8596 12.8248" fill="#002AC1"/>
<path d="M38.9129 1.63913C37.4031 0.524867 35.5343 -0.0258152 33.6444 0.0866263H23.3887C23.4351 0.862406 23.7833 1.59167 24.3622 2.12562C24.9412 2.65957 25.7072 2.95795 26.504 2.95988H33.1283C34.1492 2.88863 35.1648 3.15554 36.0106 3.71738C36.3297 3.96398 36.585 4.28027 36.7557 4.64075C36.9264 5.00123 37.0078 5.3958 36.9934 5.79263C37 6.23618 36.8989 6.67496 36.6984 7.07315C36.4979 7.47134 36.2038 7.81767 35.8399 8.08388C34.8459 8.73643 33.6569 9.04658 32.4616 8.96513H30.539C32.8391 9.04277 35.1147 9.45091 37.2926 10.1764L37.4802 10.1254C37.621 10.0879 37.7563 10.0421 37.8901 9.99188C37.954 10.0204 38.0232 10.0459 38.0847 10.0759C38.7878 9.69393 39.3927 9.16098 39.8534 8.51738C40.4772 7.6816 40.8027 6.66938 40.7801 5.63588C40.8003 4.87627 40.6434 4.1221 40.3211 3.43027C39.9989 2.73845 39.5197 2.12702 38.9199 1.64213" fill="#00BE6E"/>
<path d="M27.9312 11.5119C27.4736 11.3938 27.034 11.2172 26.6238 10.9869C26.4508 10.8903 26.285 10.7817 26.1278 10.6621C25.717 11.0032 25.3893 11.4292 25.1683 11.9092C24.9474 12.3891 24.8388 12.9111 24.8505 13.4371V17.1549H26.6192C27.1309 17.1505 27.6199 16.9483 27.9789 16.5927C28.3379 16.2371 28.5376 15.7571 28.5341 15.2581V12.9136C28.5377 12.5721 28.6801 12.246 28.9301 12.0069C29.115 11.8496 29.354 11.7663 29.5992 11.7736H29.7807C29.1561 11.7541 28.5358 11.6659 27.9312 11.5119Z" fill="#00BE6E"/>
<path d="M40.294 11.815C39.6946 11.0843 38.9387 10.4902 38.0792 10.0742C36.0636 11.2322 33.2482 11.605 31.4249 11.7242C27.3768 11.5742 26.6408 10.981 26.6408 10.981L26.6262 10.9885C27.0365 11.2186 27.476 11.3951 27.9335 11.5135C28.5387 11.6674 29.1595 11.755 29.7846 11.7745H30.366C30.1829 11.7782 30.0214 11.7805 29.9045 11.7805C30.1445 11.785 30.2891 11.7805 30.2891 11.7805H33.329C36.9772 11.7805 37.3195 13.63 37.3195 13.63H32.2439C32.1735 13.63 32.1061 13.6572 32.0563 13.7058C32.0065 13.7543 31.9786 13.8201 31.9786 13.8887C31.9786 13.9573 32.0065 14.0232 32.0563 14.0717C32.1061 14.1202 32.1735 14.1475 32.2439 14.1475H37.4733C37.5534 14.6088 37.558 15.0797 37.4871 15.5425H30.7328C30.6967 15.5406 30.6606 15.5459 30.6266 15.558C30.5927 15.5702 30.5617 15.589 30.5355 15.6132C30.5092 15.6375 30.4883 15.6667 30.474 15.6991C30.4598 15.7315 30.4524 15.7663 30.4524 15.8016C30.4524 15.8368 30.4598 15.8717 30.474 15.9041C30.4883 15.9365 30.5092 15.9657 30.5355 15.99C30.5617 16.0142 30.5927 16.033 30.6266 16.0451C30.6606 16.0573 30.6967 16.0626 30.7328 16.0607H37.3464C37.3464 16.0607 36.968 17.9357 33.4813 17.9357H26.5032C25.7058 17.9369 24.939 18.2349 24.3594 18.7689C23.7799 19.303 23.4312 20.0327 23.3848 20.809H34.7317C36.4893 20.9084 38.2203 20.355 39.5765 19.2602C40.1432 18.7612 40.592 18.1481 40.8919 17.4634C41.1919 16.7786 41.3358 16.0385 41.3138 15.2942C41.4366 14.0508 41.0708 12.8083 40.2902 11.818" fill="#008CFF"/>
<path d="M25.9822 10.5529C26.0283 10.5927 26.0806 10.6234 26.1291 10.6617C28.067 8.99817 31.5284 8.96367 31.5614 8.96217C30.9462 8.94117 30.5486 8.94267 30.5317 8.94267C30.2836 8.96394 30.0337 8.93549 29.7973 8.85908C29.5608 8.78266 29.3429 8.6599 29.157 8.49833C28.971 8.33677 28.8209 8.13981 28.7158 7.91958C28.6108 7.69934 28.553 7.46048 28.5461 7.21767H33.0064C33.0744 7.21411 33.1384 7.18525 33.1853 7.13704C33.2321 7.08884 33.2582 7.02496 33.2582 6.95855C33.2582 6.89214 33.2321 6.82826 33.1853 6.78005C33.1384 6.73185 33.0744 6.70299 33.0064 6.69942H28.5353V5.29392H34.6729C34.7409 5.29035 34.8049 5.2615 34.8517 5.21329C34.8986 5.16509 34.9247 5.10121 34.9247 5.0348C34.9247 4.96839 34.8986 4.90451 34.8517 4.8563C34.8049 4.8081 34.7409 4.77924 34.6729 4.77567H28.42L28.4154 4.76292C28.297 4.48519 28.0968 4.24793 27.8401 4.08119C27.5835 3.91444 27.2818 3.82569 26.9734 3.82617H24.8517V7.81242C24.8117 8.32309 24.8929 8.83588 25.089 9.31101C25.285 9.78614 25.5907 10.2115 25.9822 10.5529Z" fill="#008CFF"/>
<path d="M29.8992 11.7752L29.7831 11.7715H29.6016C29.6016 11.7715 29.71 11.7715 29.8992 11.7715" fill="#0096FF"/>
<path d="M37.5512 9.84714C36.8801 9.61164 36.1877 9.43837 35.4833 9.32964C34.1855 9.12457 32.8754 9.00206 31.5613 8.96289C31.5282 8.96289 28.0668 8.99889 26.1289 10.6609C26.664 11.0606 27.2767 11.3502 27.93 11.5121C28.5728 11.6751 29.2331 11.7635 29.8971 11.7754C31.0507 11.7754 35.3187 11.6591 38.0787 10.0736C37.9103 9.99264 37.7358 9.91614 37.552 9.84864" fill="#0264C8"/>
<path d="M21.5055 8.74414H14.4043V12.2069H21.5055V8.74414Z" fill="#002AC1"/>
</g>
<path d="M86.8672 12.5156H89.9727C90.5586 12.5156 91.0527 12.6113 91.4551 12.8027C91.8574 12.9941 92.1582 13.2578 92.3574 13.5938C92.5566 13.9297 92.6562 14.3125 92.6562 14.7422C92.6562 15.2383 92.5234 15.6348 92.2578 15.9316C91.9961 16.2246 91.6523 16.4258 91.2266 16.5352V16.6172C91.5195 16.6328 91.8008 16.7266 92.0703 16.8984C92.3398 17.0703 92.5586 17.3125 92.7266 17.625C92.8984 17.9336 92.9844 18.2969 92.9844 18.7148C92.9844 19.1602 92.8809 19.5547 92.6738 19.8984C92.4668 20.2422 92.1484 20.5117 91.7188 20.707C91.2891 20.9023 90.7539 21 90.1133 21H86.8672V12.5156ZM89.9961 19.8984C90.5781 19.8945 91.0078 19.7812 91.2852 19.5586C91.5664 19.332 91.707 19.0312 91.707 18.6562C91.707 18.3828 91.6387 18.1348 91.502 17.9121C91.3652 17.6895 91.1699 17.5137 90.916 17.3848C90.666 17.2559 90.375 17.1914 90.043 17.1914H88.1562V19.8984H89.9961ZM89.8672 16.1836C90.1523 16.1797 90.4102 16.123 90.6406 16.0137C90.875 15.9043 91.0586 15.75 91.1914 15.5508C91.3242 15.3477 91.3906 15.1133 91.3906 14.8477C91.3906 14.4805 91.2617 14.1836 91.0039 13.957C90.75 13.7305 90.3789 13.6172 89.8906 13.6172H88.1562V16.1836H89.8672ZM95.5363 21H94.2472V12.5156H95.5363V21ZM104.51 16.7578C104.51 17.6445 104.346 18.418 104.018 19.0781C103.69 19.7344 103.235 20.2383 102.653 20.5898C102.074 20.9414 101.42 21.1172 100.69 21.1172C99.9514 21.1172 99.2913 20.9414 98.7092 20.5898C98.1311 20.2344 97.678 19.7285 97.3498 19.0723C97.0217 18.4121 96.8577 17.6406 96.8577 16.7578C96.8577 15.8711 97.0217 15.0996 97.3498 14.4434C97.678 13.7832 98.1311 13.2773 98.7092 12.9258C99.2913 12.5742 99.9514 12.3984 100.69 12.3984C101.42 12.3984 102.074 12.5742 102.653 12.9258C103.235 13.2773 103.69 13.7832 104.018 14.4434C104.346 15.0996 104.51 15.8711 104.51 16.7578ZM98.135 16.7578C98.135 17.4297 98.2444 18.0059 98.4631 18.4863C98.6858 18.9629 98.9885 19.3242 99.3713 19.5703C99.758 19.8164 100.198 19.9375 100.69 19.9336C101.178 19.9375 101.614 19.8164 101.996 19.5703C102.383 19.3242 102.686 18.9629 102.905 18.4863C103.123 18.0059 103.233 17.4297 103.233 16.7578C103.233 16.0859 103.123 15.5117 102.905 15.0352C102.686 14.5547 102.383 14.1914 101.996 13.9453C101.614 13.6992 101.178 13.5781 100.69 13.582C100.198 13.5781 99.758 13.6992 99.3713 13.9453C98.9885 14.1914 98.6858 14.5547 98.4631 15.0352C98.2444 15.5117 98.135 16.0859 98.135 16.7578ZM105.843 21V12.5156H108.679C109.507 12.5156 110.22 12.6855 110.818 13.0254C111.419 13.3613 111.878 13.8477 112.195 14.4844C112.515 15.1172 112.675 15.8711 112.675 16.7461C112.675 17.625 112.513 18.3848 112.189 19.0254C111.869 19.6621 111.404 20.1504 110.794 20.4902C110.185 20.8301 109.452 21 108.597 21H105.843ZM108.527 19.875C109.48 19.8711 110.197 19.6016 110.677 19.0664C111.158 18.5312 111.398 17.7578 111.398 16.7461C111.398 15.7383 111.16 14.9688 110.683 14.4375C110.21 13.9062 109.515 13.6406 108.597 13.6406H107.132V19.875H108.527ZM112.93 21L115.977 12.5156H117.465L120.524 21H119.153L118.379 18.7617H115.075L114.301 21H112.93ZM118.004 17.6836L116.75 14.0625H116.692L115.444 17.6836H118.004ZM120.041 12.5156H126.615V13.6289H123.978V21H122.689V13.6289H120.041V12.5156ZM126.143 21L129.19 12.5156H130.678L133.737 21H132.366L131.592 18.7617H128.288L127.514 21H126.143ZM131.217 17.6836L129.964 14.0625H129.905L128.657 17.6836H131.217ZM142.122 14.7539C142.083 14.3633 141.905 14.0586 141.589 13.8398C141.272 13.6211 140.868 13.5117 140.376 13.5117C140.036 13.5117 139.737 13.5664 139.479 13.6758C139.226 13.7812 139.028 13.9297 138.888 14.1211C138.747 14.3125 138.677 14.5273 138.677 14.7656C138.677 15.125 138.825 15.4023 139.122 15.5977C139.419 15.793 139.786 15.9414 140.224 16.043L141.044 16.2656C142.673 16.6602 143.489 17.457 143.493 18.6562C143.489 19.1367 143.362 19.5645 143.112 19.9395C142.866 20.3145 142.505 20.6094 142.028 20.8242C141.556 21.0352 140.993 21.1406 140.341 21.1406C139.712 21.1406 139.163 21.041 138.694 20.8418C138.229 20.6387 137.864 20.3496 137.599 19.9746C137.337 19.5996 137.192 19.1562 137.165 18.6445H138.454C138.489 19.0898 138.681 19.4297 139.028 19.6641C139.38 19.8945 139.817 20.0117 140.341 20.0156C140.7 20.0156 141.02 19.959 141.302 19.8457C141.587 19.7285 141.81 19.5664 141.97 19.3594C142.134 19.1484 142.216 18.9062 142.216 18.6328C142.216 18.3984 142.147 18.2012 142.011 18.041C141.874 17.8809 141.69 17.75 141.46 17.6484C141.233 17.543 140.95 17.4453 140.61 17.3555L139.603 17.0859C138.892 16.8906 138.345 16.6094 137.962 16.2422C137.583 15.875 137.392 15.4062 137.388 14.8359C137.388 14.3555 137.519 13.9316 137.78 13.5645C138.046 13.1934 138.407 12.9062 138.864 12.7031C139.325 12.5 139.841 12.3984 140.411 12.3984C140.978 12.3984 141.483 12.5 141.929 12.7031C142.374 12.9023 142.724 13.1816 142.978 13.541C143.231 13.8965 143.364 14.3008 143.376 14.7539H142.122ZM144.334 12.5156H150.908V13.6289H148.272V21H146.982V13.6289H144.334V12.5156ZM150.437 21L153.484 12.5156H154.972L158.03 21H156.659L155.886 18.7617H152.581L151.808 21H150.437ZM155.511 17.6836L154.257 14.0625H154.198L152.95 17.6836H155.511ZM157.547 12.5156H164.121V13.6289H161.485V21H160.196V13.6289H157.547V12.5156ZM166.603 21H165.314V12.5156H166.603V21ZM175.577 16.7578C175.577 17.6445 175.413 18.418 175.085 19.0781C174.756 19.7344 174.301 20.2383 173.719 20.5898C173.141 20.9414 172.487 21.1172 171.756 21.1172C171.018 21.1172 170.358 20.9414 169.776 20.5898C169.198 20.2344 168.745 19.7285 168.417 19.0723C168.088 18.4121 167.924 17.6406 167.924 16.7578C167.924 15.8711 168.088 15.0996 168.417 14.4434C168.745 13.7832 169.198 13.2773 169.776 12.9258C170.358 12.5742 171.018 12.3984 171.756 12.3984C172.487 12.3984 173.141 12.5742 173.719 12.9258C174.301 13.2773 174.756 13.7832 175.085 14.4434C175.413 15.0996 175.577 15.8711 175.577 16.7578ZM169.202 16.7578C169.202 17.4297 169.311 18.0059 169.53 18.4863C169.753 18.9629 170.055 19.3242 170.438 19.5703C170.825 19.8164 171.264 19.9375 171.756 19.9336C172.245 19.9375 172.68 19.8164 173.063 19.5703C173.45 19.3242 173.753 18.9629 173.971 18.4863C174.19 18.0059 174.299 17.4297 174.299 16.7578C174.299 16.0859 174.19 15.5117 173.971 15.0352C173.753 14.5547 173.45 14.1914 173.063 13.9453C172.68 13.6992 172.245 13.5781 171.756 13.582C171.264 13.5781 170.825 13.6992 170.438 13.9453C170.055 14.1914 169.753 14.5547 169.53 15.0352C169.311 15.5117 169.202 16.0859 169.202 16.7578ZM183.754 21H182.57L178.269 14.8008H178.199V21H176.91V12.5156H178.105L182.406 18.7266H182.488V12.5156H183.754V21Z" fill="#002AC1"/>
<path d="M86.8672 0.515625H88.1562V4.55859H88.2617L91.8125 0.515625H93.4297L90.0078 4.33594L93.4414 9H91.8828L89.1523 5.21484L88.1562 6.36328V9H86.8672V0.515625ZM101.314 4.75781C101.314 5.64453 101.15 6.41797 100.821 7.07812C100.493 7.73438 100.038 8.23828 99.4562 8.58984C98.878 8.94141 98.2238 9.11719 97.4933 9.11719C96.755 9.11719 96.0948 8.94141 95.5128 8.58984C94.9347 8.23438 94.4816 7.72852 94.1534 7.07227C93.8253 6.41211 93.6613 5.64062 93.6613 4.75781C93.6613 3.87109 93.8253 3.09961 94.1534 2.44336C94.4816 1.7832 94.9347 1.27734 95.5128 0.925781C96.0948 0.574219 96.755 0.398438 97.4933 0.398438C98.2238 0.398438 98.878 0.574219 99.4562 0.925781C100.038 1.27734 100.493 1.7832 100.821 2.44336C101.15 3.09961 101.314 3.87109 101.314 4.75781ZM94.9386 4.75781C94.9386 5.42969 95.048 6.00586 95.2667 6.48633C95.4894 6.96289 95.7921 7.32422 96.1749 7.57031C96.5616 7.81641 97.0011 7.9375 97.4933 7.93359C97.9816 7.9375 98.4171 7.81641 98.7999 7.57031C99.1866 7.32422 99.4894 6.96289 99.7081 6.48633C99.9269 6.00586 100.036 5.42969 100.036 4.75781C100.036 4.08594 99.9269 3.51172 99.7081 3.03516C99.4894 2.55469 99.1866 2.19141 98.7999 1.94531C98.4171 1.69922 97.9816 1.57812 97.4933 1.58203C97.0011 1.57812 96.5616 1.69922 96.1749 1.94531C95.7921 2.19141 95.4894 2.55469 95.2667 3.03516C95.048 3.51172 94.9386 4.08594 94.9386 4.75781ZM102.647 0.515625H105.67C106.311 0.515625 106.852 0.626953 107.293 0.849609C107.735 1.07227 108.065 1.38281 108.283 1.78125C108.502 2.17969 108.612 2.64453 108.612 3.17578C108.612 3.75391 108.481 4.25 108.219 4.66406C107.957 5.07422 107.573 5.37695 107.065 5.57227L108.94 9H107.475L105.752 5.80078H105.67H103.936V9H102.647V0.515625ZM105.541 4.6875C106.151 4.68359 106.598 4.55469 106.883 4.30078C107.168 4.04297 107.311 3.66797 107.311 3.17578C107.311 2.67969 107.166 2.29688 106.877 2.02734C106.592 1.75781 106.147 1.62109 105.541 1.61719H103.936V4.6875H105.541ZM109.921 0.515625H115.242V1.62891H111.21V4.19531H114.96V5.29688H111.21V7.88672H115.288V9H109.921V0.515625ZM116.059 9L119.106 0.515625H120.594L123.653 9H122.282L121.508 6.76172H118.204L117.43 9H116.059ZM121.133 5.68359L119.879 2.0625H119.821L118.573 5.68359H121.133Z" fill="#002AC1"/>
</g>
<defs>
<clipPath id="clip0_413_2170">
<rect width="185" height="22" fill="white"/>
</clipPath>
</defs>
</svg>
