<svg width="24" height="24" viewBox="0 0 24 24" fill="none" xmlns="http://www.w3.org/2000/svg">
<path d="M12.0002 0.333496C5.5485 0.333496 0.333496 5.5485 0.333496 12.0002C0.333496 18.4518 5.5485 23.6668 12.0002 23.6668C18.4518 23.6668 23.6668 18.4518 23.6668 12.0002C23.6668 5.5485 18.4518 0.333496 12.0002 0.333496ZM12.0002 21.3335C6.85516 21.3335 2.66683 17.1452 2.66683 12.0002C2.66683 6.85516 6.85516 2.66683 12.0002 2.66683C17.1452 2.66683 21.3335 6.85516 21.3335 12.0002C21.3335 17.1452 17.1452 21.3335 12.0002 21.3335ZM16.1885 6.16683L12.0002 10.3552L7.81183 6.16683L6.16683 7.81183L10.3552 12.0002L6.16683 16.1885L7.81183 17.8335L12.0002 13.6452L16.1885 17.8335L17.8335 16.1885L13.6452 12.0002L17.8335 7.81183L16.1885 6.16683Z" fill="white"/>
</svg>
