<svg width="78" height="78" viewBox="0 0 78 78" fill="none" xmlns="http://www.w3.org/2000/svg">
<path d="M5.47098 24.2315C5.78428 19.4082 9.66212 15.6282 14.4896 15.389C21.4802 15.0427 31.4717 14.625 39 14.625C46.5283 14.625 56.5198 15.0427 63.5104 15.389C68.3379 15.6282 72.2157 19.4082 72.529 24.2315C72.8292 28.8525 73.125 34.5385 73.125 39C73.125 43.4615 72.8292 49.1475 72.529 53.7686C72.2157 58.5918 68.3379 62.3718 63.5104 62.611C56.5198 62.9573 46.5283 63.375 39 63.375C31.4717 63.375 21.4802 62.9573 14.4896 62.611C9.66212 62.3718 5.78428 58.5918 5.47098 53.7685C5.17082 49.1475 4.875 43.4615 4.875 39C4.875 34.5385 5.17082 28.8525 5.47098 24.2315Z" fill="#FC0D1B"/>
<path d="M31.6875 29.25V48.75L51.1875 39L31.6875 29.25Z" fill="white"/>
</svg>
