<svg width="89" height="20" viewBox="0 0 89 20" fill="none" xmlns="http://www.w3.org/2000/svg">
<g clip-path="url(#clip0_1_22721)">
<path d="M27.8123 3.13615C27.486 1.91381 26.5304 0.950033 25.3184 0.620939C23.1043 0.00976562 14.2475 0.00976562 14.2475 0.00976562C14.2475 0.00976562 5.39082 0.00976562 3.17664 0.597433C1.98798 0.926526 1.00908 1.91381 0.682776 3.13615C0.100098 5.36929 0.100098 10.0001 0.100098 10.0001C0.100098 10.0001 0.100098 14.6544 0.682776 16.8641C1.00908 18.0864 1.96467 19.0502 3.17664 19.3793C5.41413 19.9904 14.2475 19.9904 14.2475 19.9904C14.2475 19.9904 23.1043 19.9904 25.3184 19.4028C26.5304 19.0737 27.486 18.1099 27.8123 16.8876C28.395 14.6544 28.395 10.0236 28.395 10.0236C28.395 10.0236 28.4183 5.36929 27.8123 3.13615Z" fill="#FF0000"/>
<path d="M11.4272 5.72168V14.2781L18.7923 9.9999L11.4272 5.72168Z" fill="white"/>
<path d="M41.1901 18.2034C40.6308 17.8273 40.2345 17.2397 40.0015 16.4169C39.7684 15.6177 39.6519 14.5364 39.6519 13.22V11.41C39.6519 10.0701 39.7917 8.98883 40.0481 8.1661C40.3278 7.34336 40.7473 6.7557 41.3067 6.37959C41.8893 6.00348 42.6352 5.81543 43.5675 5.81543C44.4764 5.81543 45.2223 6.00348 45.7816 6.37959C46.341 6.7557 46.7372 7.36687 46.9936 8.1661C47.25 8.96532 47.3898 10.0466 47.3898 11.41V13.22C47.3898 14.5599 47.2733 15.6177 47.0169 16.4404C46.7605 17.2397 46.3643 17.8508 45.8049 18.227C45.2456 18.6031 44.4764 18.7911 43.5208 18.7911C42.5419 18.7676 41.7495 18.5796 41.1901 18.2034ZM44.3366 16.2289C44.4997 15.8293 44.5697 15.1476 44.5697 14.2308V10.3287C44.5697 9.43546 44.4997 8.77727 44.3366 8.35415C44.1734 7.93103 43.9171 7.74298 43.5208 7.74298C43.1479 7.74298 42.8682 7.95454 42.7284 8.35415C42.5652 8.77727 42.4953 9.43546 42.4953 10.3287V14.2308C42.4953 15.1476 42.5652 15.8293 42.7284 16.2289C42.8682 16.6285 43.1479 16.8401 43.5441 16.8401C43.9171 16.8401 44.1734 16.652 44.3366 16.2289Z" fill="#282828"/>
<path d="M84.2153 13.2437V13.8784C84.2153 14.6776 84.2387 15.2888 84.2853 15.6884C84.3319 16.088 84.4251 16.3936 84.5883 16.5581C84.7281 16.7462 84.9612 16.8402 85.2875 16.8402C85.707 16.8402 85.9867 16.6757 86.1498 16.3466C86.313 16.0175 86.3829 15.4768 86.4062 14.7011L88.8069 14.8421C88.8302 14.9597 88.8302 15.1007 88.8302 15.2888C88.8302 16.4406 88.5272 17.3103 87.8979 17.8745C87.2686 18.4387 86.3829 18.7207 85.2409 18.7207C83.8657 18.7207 82.9101 18.2741 82.3508 17.4044C81.7914 16.5346 81.5117 15.1947 81.5117 13.3612V11.1751C81.5117 9.29456 81.7914 7.93117 82.3741 7.06142C82.9568 6.19167 83.9357 5.76855 85.3108 5.76855C86.2664 5.76855 87.0122 5.95661 87.525 6.30921C88.0377 6.66181 88.3873 7.22597 88.5971 7.95468C88.8069 8.70689 88.9001 9.74118 88.9001 11.0576V13.1967H84.2153V13.2437ZM84.565 7.97818C84.4251 8.16624 84.3319 8.44832 84.2853 8.84793C84.2387 9.24754 84.2153 9.85872 84.2153 10.6815V11.5747H86.2664V10.6815C86.2664 9.88222 86.2431 9.27105 86.1965 8.84793C86.1498 8.42481 86.0333 8.14273 85.8935 7.97818C85.7536 7.81364 85.5205 7.71961 85.2409 7.71961C84.9146 7.6961 84.7048 7.79013 84.565 7.97818Z" fill="#282828"/>
<path d="M34.3846 13.0087L31.2148 1.41992H33.9884L35.1071 6.66191C35.3868 7.95478 35.5966 9.05959 35.7364 9.97635H35.8064C35.8996 9.31817 36.1093 8.23686 36.4356 6.68542L37.601 1.41992H40.3746L37.1582 13.0087V18.5563H34.4079V13.0087H34.3846Z" fill="#282828"/>
<path d="M56.4098 6.05078V18.5798H54.2189L53.9858 17.0519H53.9159C53.3332 18.2037 52.4243 18.7914 51.2356 18.7914C50.4198 18.7914 49.8139 18.5093 49.4176 17.9687C49.0214 17.428 48.835 16.5818 48.835 15.4064V6.05078H51.6318V15.2419C51.6318 15.8061 51.7017 16.2057 51.8183 16.4407C51.9348 16.6758 52.1446 16.7933 52.4243 16.7933C52.6573 16.7933 52.8904 16.7228 53.1235 16.5583C53.3565 16.4172 53.5197 16.2292 53.6129 15.9941V6.05078H56.4098Z" fill="#282828"/>
<path d="M70.7438 6.05078V18.5798H68.5529L68.3198 17.0519H68.2499C67.6672 18.2037 66.7582 18.7914 65.5696 18.7914C64.7538 18.7914 64.1478 18.5093 63.7516 17.9687C63.3554 17.428 63.1689 16.5818 63.1689 15.4064V6.05078H65.9658V15.2419C65.9658 15.8061 66.0357 16.2057 66.1523 16.4407C66.2688 16.6758 66.4786 16.7933 66.7582 16.7933C66.9913 16.7933 67.2244 16.7228 67.4575 16.5583C67.6905 16.4172 67.8537 16.2292 67.9469 15.9941V6.05078H70.7438Z" fill="#282828"/>
<path d="M64.0079 3.70007H61.2344V18.5563H58.5074V3.70007H55.7339V1.41992H64.0079V3.70007Z" fill="#282828"/>
<path d="M79.9967 8.04872C79.8335 7.24949 79.5539 6.68533 79.1809 6.33273C78.808 5.98013 78.272 5.79208 77.6194 5.79208C77.1066 5.79208 76.6172 5.93312 76.1743 6.23871C75.7315 6.52079 75.3819 6.9204 75.1488 7.39053H75.1255V0.785156H72.4219V18.5562H74.7293L75.009 17.3809H75.0789C75.2887 17.804 75.615 18.1331 76.0578 18.3917C76.5006 18.6267 76.9668 18.7678 77.5028 18.7678C78.4584 18.7678 79.1343 18.3211 79.5772 17.4514C80.02 16.5816 80.2531 15.1947 80.2531 13.3377V11.3632C80.2298 9.92925 80.1598 8.82444 79.9967 8.04872ZM77.4329 13.1497C77.4329 14.0664 77.3863 14.7716 77.3164 15.2888C77.2465 15.8059 77.1066 16.182 76.9435 16.3936C76.757 16.6051 76.5239 16.7227 76.2443 16.7227C76.0112 16.7227 75.8014 16.6757 75.615 16.5581C75.4285 16.4406 75.2654 16.2761 75.1488 16.0645V8.96548C75.242 8.63639 75.4052 8.35431 75.6383 8.11924C75.8713 7.90768 76.1277 7.79015 76.3841 7.79015C76.6638 7.79015 76.8969 7.90768 77.0367 8.11924C77.1998 8.35431 77.2931 8.73041 77.363 9.24756C77.4329 9.78821 77.4562 10.5404 77.4562 11.5042V13.1497H77.4329Z" fill="#282828"/>
</g>
<defs>
<clipPath id="clip0_1_22721">
<rect width="89" height="20" fill="white"/>
</clipPath>
</defs>
</svg>
