<svg width="20" height="20" viewBox="0 0 20 20" fill="none" xmlns="http://www.w3.org/2000/svg">
<g clip-path="url(#clip0_331_767)">
<path d="M4.35147 4.35C5.80238 2.9 7.79362 2 10.005 2C14.4278 2 18 5.58 18 10C18 14.42 14.4278 18 10.005 18C6.27267 18 3.16073 15.45 2.27017 12H4.35147C5.17198 14.33 7.39337 16 10.005 16C13.3171 16 16.0088 13.31 16.0088 10C16.0088 6.69 13.3171 4 10.005 4C8.34397 4 6.86304 4.69 5.78236 5.78L9.00438 9H2V2L4.35147 4.35Z" fill="white"/>
</g>
<defs>
<clipPath id="clip0_331_767">
<rect width="20" height="20" fill="white"/>
</clipPath>
</defs>
</svg>
