<svg width="96" height="96" viewBox="0 0 96 96" fill="none" xmlns="http://www.w3.org/2000/svg">
<path d="M11 48C11 27.5655 27.5655 11 48 11C68.4344 11 85 27.5655 85 48C85 68.4344 68.4344 85 48 85C27.5655 85 11 68.4344 11 48Z" fill="#888888"/>
<path d="M32.7647 52.3491C35.1688 52.3491 37.1177 50.4011 37.1177 47.9982C37.1177 45.5952 35.1688 43.6472 32.7647 43.6472C30.3607 43.6472 28.4118 45.5952 28.4118 47.9982C28.4118 50.4011 30.3607 52.3491 32.7647 52.3491Z" fill="white"/>
<path d="M48 52.3491C50.4041 52.3491 52.353 50.4011 52.353 47.9982C52.353 45.5952 50.4041 43.6472 48 43.6472C45.596 43.6472 43.6471 45.5952 43.6471 47.9982C43.6471 50.4011 45.596 52.3491 48 52.3491Z" fill="white"/>
<path d="M63.2353 52.3491C65.6394 52.3491 67.5883 50.4011 67.5883 47.9982C67.5883 45.5952 65.6394 43.6472 63.2353 43.6472C60.8313 43.6472 58.8824 45.5952 58.8824 47.9982C58.8824 50.4011 60.8313 52.3491 63.2353 52.3491Z" fill="white"/>
</svg>
