<svg width="20" height="20" viewBox="0 0 20 20" fill="none" xmlns="http://www.w3.org/2000/svg">
<g clip-path="url(#clip0_292_767)">
<path d="M9.99999 1.66675C5.39999 1.66675 1.66666 5.40008 1.66666 10.0001C1.66666 14.6001 5.39999 18.3334 9.99999 18.3334C14.6 18.3334 18.3333 14.6001 18.3333 10.0001C18.3333 5.40008 14.6 1.66675 9.99999 1.66675ZM9.99999 16.6667C6.32499 16.6667 3.33332 13.6751 3.33332 10.0001C3.33332 6.32508 6.32499 3.33341 9.99999 3.33341C13.675 3.33341 16.6667 6.32508 16.6667 10.0001C16.6667 13.6751 13.675 16.6667 9.99999 16.6667Z" fill="#ffffff"/>
<path d="M11.8034 7L10.0042 8.8017L8.19661 7L7 8.1983L8.80764 10L7.00849 11.8017L8.20509 13L10.0042 11.1983L11.8034 13L13 11.8017L11.2008 10L13 8.1983L11.8034 7Z" fill="#ffffff"/>
</g>
<defs>
<clipPath id="clip0_292_767">
<rect width="20" height="20" fill="white"/>
</clipPath>
</defs>
</svg>
