<svg width="20" height="20" viewBox="0 0 20 20" fill="none" xmlns="http://www.w3.org/2000/svg">
<g clip-path="url(#clip0_341_861)">
<path d="M10 1.66675C5.4 1.66675 1.66667 5.40008 1.66667 10.0001C1.66667 14.6001 5.4 18.3334 10 18.3334C14.6 18.3334 18.3333 14.6001 18.3333 10.0001C18.3333 5.40008 14.6 1.66675 10 1.66675ZM10 16.6667C6.32501 16.6667 3.33334 13.6751 3.33334 10.0001C3.33334 6.32508 6.32501 3.33341 10 3.33341C13.675 3.33341 16.6667 6.32508 16.6667 10.0001C16.6667 13.6751 13.675 16.6667 10 16.6667Z" fill="white"/>
<path d="M13.3965 9.15384L10.8503 9.15564L10.8461 6.60345L9.15267 6.60465L9.15687 9.15684L6.61069 9.15864L6.60949 10.8521L9.15567 10.8503L9.15387 13.3965L10.8473 13.3953L10.8491 10.8491L13.3953 10.8473L13.3965 9.15384Z" fill="white"/>
</g>
<defs>
<clipPath id="clip0_341_861">
<rect width="20" height="20" fill="white"/>
</clipPath>
</defs>
</svg>
