<svg width="40" height="40" viewBox="0 0 40 40" fill="none" xmlns="http://www.w3.org/2000/svg">
<path d="M0 28.7458V24.2825H14.912C14.9889 25.1111 15.0563 25.8456 15.114 26.4859C15.1717 27.1262 15.3545 27.8795 15.6623 28.7458H0ZM0 18.6328V14.1695H19.1645C18.3564 14.7345 17.6638 15.403 17.0866 16.1751C16.5094 16.9473 16.0856 17.7665 15.6623 18.6328H0ZM0 8.46328V4H36.1328V8.46328H0Z" fill="#0054B7"/>
<path d="M28.4388 36C25.2988 36 22.6073 34.8684 20.3644 32.6051C18.1215 30.3418 17 27.6605 17 24.5612C17 21.3803 18.1215 18.6582 20.3644 16.3949C22.6073 14.1316 25.3192 13 28.5 13C31.6401 13 34.3418 14.1316 36.6051 16.3949C38.8684 18.6582 40 21.3803 40 24.5612C40 27.6605 38.8684 30.3418 36.6051 32.6051C34.3418 34.8684 31.6197 36 28.4388 36ZM27.2154 32.758H29.9681V26.0293H36.6968V23.2154H29.9681V16.4867H27.2154V23.2154H20.4867V26.0293H27.2154V32.758Z" fill="#0054B7"/>
</svg>
