<svg width="59" height="52" viewBox="0 0 59 52" fill="none" xmlns="http://www.w3.org/2000/svg">
<g style="mix-blend-mode:luminosity">
<g clip-path="url(#clip0_358_814)">
<path d="M39 25.7971C39 27.9177 38.1718 29.9049 36.6837 31.404C35.1846 32.8903 33.1974 33.7203 31.0768 33.7203H7.92139C6.45887 33.7203 5.08227 34.2925 4.0457 35.3291C3.00914 36.3656 2.43693 37.7422 2.43693 39.2047C2.43693 42.2267 4.89945 44.6892 7.92139 44.6892H23.1572V47.1261H7.92139C3.55759 47.1261 0 43.5667 0 39.2047C0 37.0841 0.828154 35.0969 2.31627 33.5978C3.81536 32.1115 5.80256 31.2815 7.92322 31.2815H31.0804C32.543 31.2815 33.9196 30.7093 34.9561 29.6727C35.9927 28.6362 36.5649 27.2596 36.5649 25.7971C36.5649 22.7751 34.1024 20.3126 31.0804 20.3126H15.8446V17.8757H31.0786C35.4424 17.8757 39 21.4351 39 25.7971V25.7971Z" fill="#B0BEC5"/>
<path d="M19.5009 17.8757H15.8446V20.3126H19.5009V17.8757Z" fill="#90A4AE"/>
<path d="M17.0622 13H0V25.1883H17.0622V13Z" fill="#9A9A9E"/>
<path d="M23.1572 44.6874H19.5009V47.1243H23.1572V44.6874Z" fill="#90A4AE"/>
<path d="M39 39.8135H21.9378V52.0018H39V39.8135Z" fill="#B0BEC5"/>
<path d="M29.543 32.5009L28.3236 33.7184H10.6764L9.45703 32.5009L10.6764 31.2815H28.3236L29.543 32.5009Z" fill="#90A4AE"/>
<path d="M19.4991 25.903L12.9012 32.501L19.4991 39.0989L26.097 32.501L19.4991 25.903Z" fill="#2484D3"/>
<path d="M17.0622 13H0V25.1883H17.0622V13Z" fill="#90A4AE"/>
<path d="M19.5009 36.6617L14.1207 31.2815L12.9013 32.5009L19.5009 39.0987L26.0987 32.5009L24.8793 31.2815L19.5009 36.6617Z" fill="#1E71B6"/>
<path d="M4.87386 15.437H2.43694V17.8739H4.87386V15.437Z" fill="white"/>
<path d="M9.74955 15.437H7.31262V17.8739H9.74955V15.437Z" fill="white"/>
</g>
</g>
<circle cx="41.5" cy="17.5" r="15.3125" fill="white"/>
<path d="M41.4069 35C36.6285 35 32.5328 33.2779 29.1197 29.8338C25.7066 26.3896 24 22.3094 24 17.5931C24 12.7527 25.7066 8.61037 29.1197 5.16622C32.5328 1.72207 36.6596 0 41.5 0C46.2784 0 50.3896 1.72207 53.8338 5.16622C57.2779 8.61037 59 12.7527 59 17.5931C59 22.3094 57.2779 26.3896 53.8338 29.8338C50.3896 33.2779 46.2473 35 41.4069 35ZM39.5452 30.0665H43.734V19.8271H53.9734V15.5452H43.734V5.30585H39.5452V15.5452H29.3059V19.8271H39.5452V30.0665Z" fill="#2484D3"/>
<defs>
<clipPath id="clip0_358_814">
<rect width="39" height="39" fill="white" transform="translate(0 13)"/>
</clipPath>
</defs>
</svg>
