<svg width="121" height="109" viewBox="0 0 121 109" fill="none" xmlns="http://www.w3.org/2000/svg">
<g clip-path="url(#clip0_339_785)">
<path d="M97.4623 81.6251H11.3709C5.09113 81.6251 0 76.5339 0 70.2542V8.90607C0 3.98691 3.98693 0 8.9061 0H34.2758C35.5925 0 36.891 0.306502 38.0684 0.895623L54.4166 9.06927H97.4623C103.742 9.06927 108.833 14.1604 108.833 20.4401V70.2542C108.833 76.5339 103.742 81.6251 97.4623 81.6251Z" fill="url(#paint0_linear_339_785)"/>
<path d="M97.4623 18.1385H11.3709C5.09091 18.1385 0 23.2294 0 29.5094V79.3227C0 85.6026 5.09091 90.6935 11.3709 90.6935H97.4623C103.742 90.6935 108.833 85.6026 108.833 79.3227V29.5094C108.833 23.2294 103.742 18.1385 97.4623 18.1385Z" fill="url(#paint1_linear_339_785)"/>
</g>
<path d="M80.857 50.4879V71.3193H103.772V75.4843H80.857V96.3157H103.772V100.481H76.692V75.4843H66.2778V71.3193H76.692V46.3229H103.772V50.4879H80.857Z" fill="#B0BEC5"/>
<path d="M72.5269 73.4035C72.5269 74.1127 72.4644 74.8189 72.3395 75.4875H66.2778V71.3225H72.3395C72.4644 71.988 72.5269 72.6973 72.5269 73.4066V73.4035Z" fill="#90A4AE"/>
<path d="M103.773 71.3193V75.4844H97.711C97.5861 74.8188 97.5236 74.1096 97.5236 73.4003C97.5236 72.691 97.5861 71.9849 97.711 71.3162H103.773V71.3193Z" fill="#90A4AE"/>
<path d="M103.773 46.3229V50.488H97.711C97.5861 49.8224 97.5236 49.1132 97.5236 48.4039C97.5236 47.6946 97.5861 46.9885 97.711 46.3198H103.773V46.3229Z" fill="#90A4AE"/>
<path d="M103.773 96.3158V100.481H97.711C97.5861 99.8153 97.5236 99.106 97.5236 98.3968C97.5236 97.6875 97.5861 96.9813 97.711 96.3127H103.773V96.3158Z" fill="#90A4AE"/>
<path d="M60.0289 81.7365C64.6311 81.7365 68.362 78.0057 68.362 73.4034C68.362 68.8011 64.6311 65.0702 60.0289 65.0702C55.4266 65.0702 51.6957 68.8011 51.6957 73.4034C51.6957 78.0057 55.4266 81.7365 60.0289 81.7365Z" fill="#90A4AE"/>
<path d="M117.958 75.9521C119.365 71.5702 116.954 66.8774 112.572 65.4705C108.19 64.0636 103.497 66.4753 102.09 70.8573C100.683 75.2393 103.095 79.9321 107.477 81.339C111.859 82.7459 116.552 80.3341 117.958 75.9521Z" fill="#90A4AE"/>
<path d="M118.033 50.7102C119.306 46.2875 116.753 41.6701 112.33 40.3969C107.907 39.1237 103.29 41.6769 102.017 46.0995C100.744 50.5222 103.297 55.1396 107.72 56.4128C112.142 57.686 116.76 55.1328 118.033 50.7102Z" fill="#90A4AE"/>
<path d="M117.894 101.127C119.401 96.7781 117.098 92.031 112.75 90.5235C108.401 89.0161 103.654 91.3191 102.147 95.6675C100.639 100.016 102.942 104.763 107.291 106.27C111.639 107.778 116.386 105.475 117.894 101.127Z" fill="#90A4AE"/>
<path d="M110.022 52.572C106.15 52.572 102.916 49.9067 101.985 46.3229C101.81 46.9915 101.688 47.6821 101.688 48.407C101.688 53.0032 105.425 56.7401 110.022 56.7401C114.618 56.7401 118.355 53.0032 118.355 48.407C118.355 47.6821 118.233 46.9947 118.058 46.3229C117.127 49.9067 113.893 52.572 110.022 52.572V52.572Z" fill="#68828E"/>
<path d="M110.022 77.5685C106.15 77.5685 102.916 74.9033 101.985 71.3194C101.81 71.9881 101.688 72.6786 101.688 73.4035C101.688 77.9997 105.425 81.7366 110.022 81.7366C114.618 81.7366 118.355 77.9997 118.355 73.4035C118.355 72.6786 118.233 71.9912 118.058 71.3194C117.127 74.9033 113.893 77.5685 110.022 77.5685V77.5685Z" fill="#68828E"/>
<path d="M110.022 102.565C106.15 102.565 102.916 99.8997 101.985 96.3158C101.81 96.9844 101.688 97.675 101.688 98.3999C101.688 102.996 105.425 106.733 110.022 106.733C114.618 106.733 118.355 102.996 118.355 98.3999C118.355 97.675 118.233 96.9876 118.058 96.3158C117.127 99.8997 113.893 102.565 110.022 102.565V102.565Z" fill="#68828E"/>
<path d="M60.0289 77.5685C56.1575 77.5685 52.9236 74.9033 51.9925 71.3194C51.8175 71.9881 51.6957 72.6786 51.6957 73.4035C51.6957 77.9997 55.4326 81.7366 60.0289 81.7366C64.6251 81.7366 68.362 77.9997 68.362 73.4035C68.362 72.6786 68.2402 71.9912 68.0652 71.3194C67.1341 74.9033 63.9002 77.5685 60.0289 77.5685Z" fill="#68828E"/>
<defs>
<linearGradient id="paint0_linear_339_785" x1="0" y1="40.8125" x2="108.833" y2="40.8125" gradientUnits="userSpaceOnUse">
<stop stop-color="#E2B101"/>
<stop offset="1" stop-color="#FFC800"/>
</linearGradient>
<linearGradient id="paint1_linear_339_785" x1="54.044" y1="20.5444" x2="55.1697" y2="122.959" gradientUnits="userSpaceOnUse">
<stop offset="0.24" stop-color="#FFD400"/>
<stop offset="0.91" stop-color="#EAAD02"/>
</linearGradient>
<clipPath id="clip0_339_785">
<rect width="108.833" height="90.6943" fill="white"/>
</clipPath>
</defs>
</svg>
