<svg width="97" height="97" viewBox="0 0 97 97" fill="none" xmlns="http://www.w3.org/2000/svg">
<g clip-path="url(#clip0_339_798)">
<path d="M97 31.8286C97 37.1031 94.9402 42.0456 91.239 45.7741C87.5105 49.4708 82.568 51.5351 77.2935 51.5351H19.7019C16.0644 51.5351 12.6405 52.9583 10.0624 55.5364C7.48427 58.1145 6.06108 61.5384 6.06108 65.1759C6.06108 72.692 12.1858 78.8168 19.7019 78.8168H57.5962V84.8778H19.7019C8.84836 84.8778 0 76.0249 0 65.1759C0 59.9015 2.05977 54.9589 5.76098 51.2304C9.48948 47.5338 14.432 45.4695 19.7065 45.4695H77.3026C80.9402 45.4695 84.364 44.0463 86.9422 41.4682C89.5203 38.89 90.9435 35.4662 90.9435 31.8286C90.9435 24.3125 84.8187 18.1878 77.3026 18.1878H39.4084V12.1267H77.2981C88.1516 12.1267 97 20.9796 97 31.8286V31.8286Z" fill="#B0BEC5"/>
<path d="M48.5022 12.1267H39.4083V18.1878H48.5022V12.1267Z" fill="#90A4AE"/>
<path d="M42.4366 0H0V30.3145H42.4366V0Z" fill="#9A9A9E"/>
<path d="M57.5962 78.8122H48.5023V84.8733H57.5962V78.8122Z" fill="#90A4AE"/>
<path d="M97 66.6901H54.5634V97.0046H97V66.6901Z" fill="#B0BEC5"/>
<path d="M73.4787 48.5023L70.4458 51.5306H26.5542L23.5214 48.5023L26.5542 45.4695H70.4458L73.4787 48.5023Z" fill="#90A4AE"/>
<path d="M48.4978 32.092L32.0875 48.5023L48.4978 64.9125L64.908 48.5023L48.4978 32.092Z" fill="#2484D3"/>
<path d="M42.4366 0H0V30.3145H42.4366V0Z" fill="#90A4AE"/>
<path d="M48.5022 58.8511L35.1206 45.4695L32.0878 48.5023L48.5022 64.9122L64.9122 48.5023L61.8794 45.4695L48.5022 58.8511Z" fill="#1E71B6"/>
<path d="M12.1221 6.0611H6.06104V12.1222H12.1221V6.0611Z" fill="white"/>
<path d="M24.2488 6.0611H18.1877V12.1222H24.2488V6.0611Z" fill="white"/>
</g>
<defs>
<clipPath id="clip0_339_798">
<rect width="97" height="97" fill="white"/>
</clipPath>
</defs>
</svg>
