<svg width="49" height="25" viewBox="0 0 49 25" fill="none" xmlns="http://www.w3.org/2000/svg">
<path d="M33.697 6.18386C35.8379 11.3353 34.945 16.6165 34.463 19.0029L40.0843 24.9948H48.6734L36.401 12.0668L46.7405 1.37996C43.3413 1.12057 40.4749 1.51484 36.6344 3.16456L33.697 6.18386Z" fill="#40F3FE"/>
<path d="M33.697 6.18386L32.4439 7.47044L31.0792 6.06454C30.1102 6.4225 28.6693 6.78565 25.5949 9.10459L28.4918 12.0668L24.3621 16.3831C24.2048 15.5945 23.9511 14.8734 23.459 14.1834C22.7538 13.2081 22.0385 12.5597 20.8818 12.072C18.9336 12.7724 17.919 13.9085 17.021 15.1536C18.1016 15.5686 18.6394 16.3416 18.6394 17.5607C18.6394 18.5671 18.3045 19.0185 17.6298 19.4802C17.5588 19.5269 17.4674 19.5632 17.3913 19.6047C19.2533 20.8394 23.043 23.4592 24.8085 24.9844L32.4439 16.85L34.458 19.0029C35.2545 16.684 36.5178 11.3302 33.6919 6.18386H33.697Z" fill="url(#paint0_linear_234_767)"/>
<path d="M25.1789 0H0V13.4208C1.31399 13.6543 3.22156 13.5557 5.85461 13.2652V4.78315H13.9973C15.2859 4.78315 16.2904 5.00623 16.9601 5.46275C17.5993 5.91928 17.919 6.464 17.919 7.38224C17.919 8.30048 17.6044 8.96451 16.9601 9.41585C16.2904 9.90351 15.2859 10.1473 13.9973 10.1473H10.5119V13.6024C12.4905 14.1471 13.769 14.4117 15.2859 14.8267C15.8592 14.8682 16.3564 14.9564 16.7825 15.0861C16.8586 15.1121 16.95 15.1276 17.021 15.1536C17.9798 14.1834 19.3547 13.1251 20.8818 12.072C20.8666 12.0668 20.8513 12.0564 20.8361 12.0513C21.5515 11.5999 22.2211 11.0137 22.7183 10.3185C22.8046 10.1992 22.8959 10.0799 22.972 9.9502C23.4438 9.10977 23.6873 8.22785 23.7583 7.21623L25.5949 9.09421C28.0098 7.67794 30.1558 6.53663 31.0791 6.05416L25.1789 0Z" fill="url(#paint1_linear_234_767)"/>
<path d="M14.4843 20.2065H13.3327C11.8209 21.7939 11.278 23.2776 10.9888 25H24.8085C24.8085 25 23.4895 23.6148 21.105 22.017C19.7302 21.0936 18.1422 20.1079 17.3914 19.6151C16.7014 19.9989 15.7375 20.2065 14.4843 20.2065Z" fill="url(#paint2_linear_234_767)"/>
<path d="M5.85461 20.2065V13.2393C3.47015 13.1822 1.32921 13.2911 0 13.3949V25H10.9888C11.623 23.2517 12.4753 21.6124 13.3327 20.2065H5.85461Z" fill="url(#paint3_linear_234_767)"/>
<path d="M10.5119 13.5557V14.806H14.4894C14.7735 14.806 15.0322 14.8215 15.2859 14.8371C14.0074 14.2405 12.2216 13.8047 10.5119 13.5557Z" fill="url(#paint4_linear_234_767)"/>
<path d="M39.7139 0L36.6344 3.16456C40.6677 1.72235 44.98 1.43183 46.7404 1.37995L46.7557 1.36439L48.0747 0H39.7139Z" fill="url(#paint5_linear_234_767)"/>
<defs>
<linearGradient id="paint0_linear_234_767" x1="12.5717" y1="21.3426" x2="39.3934" y2="11.6317" gradientUnits="userSpaceOnUse">
<stop stop-color="#F715FF"/>
<stop offset="1" stop-color="#00FFED"/>
</linearGradient>
<linearGradient id="paint1_linear_234_767" x1="-3.96733" y1="-9.34322" x2="15.749" y2="8.93498" gradientUnits="userSpaceOnUse">
<stop stop-color="#FF3FDF"/>
<stop offset="1" stop-color="#652DB3"/>
</linearGradient>
<linearGradient id="paint2_linear_234_767" x1="17.5588" y1="18.0328" x2="19.0493" y2="47.3872" gradientUnits="userSpaceOnUse">
<stop stop-color="#FF3FDF"/>
<stop offset="1" stop-color="#652DB3"/>
</linearGradient>
<linearGradient id="paint3_linear_234_767" x1="-11.9781" y1="33.316" x2="44.3268" y2="-10.201" gradientUnits="userSpaceOnUse">
<stop stop-color="#FF3FDF"/>
<stop offset="1" stop-color="#652D90"/>
</linearGradient>
<linearGradient id="paint4_linear_234_767" x1="-11.5215" y1="33.9282" x2="44.804" y2="-9.60395" gradientUnits="userSpaceOnUse">
<stop stop-color="#FF3FDF"/>
<stop offset="1" stop-color="#652D90"/>
</linearGradient>
<linearGradient id="paint5_linear_234_767" x1="14.2611" y1="10.1888" x2="52.711" y2="-1.87173" gradientUnits="userSpaceOnUse">
<stop stop-color="#F715FF"/>
<stop offset="1" stop-color="#00FFED"/>
</linearGradient>
</defs>
</svg>
