<svg width="83" height="69" viewBox="0 0 83 69" fill="none" xmlns="http://www.w3.org/2000/svg">
<g clip-path="url(#clip0_1541_11103)">
<path d="M18.8683 58.9766H0.921875V63.8159C0.921875 66.0164 4.94276 67.7974 9.8951 67.7974C14.8474 67.7974 18.8683 66.0164 18.8683 63.8159V58.9766Z" fill="white" stroke="#00487C" stroke-width="2" stroke-linejoin="round"/>
<path d="M18.8683 58.603C18.8683 60.8036 14.8474 62.5845 9.8951 62.5845C4.94276 62.5845 0.921875 60.8036 0.921875 58.603C0.921875 56.4025 4.94276 54.6309 9.8951 54.6309C14.8474 54.6309 18.8683 56.4118 18.8683 58.603Z" fill="white" stroke="#00487C" stroke-width="2" stroke-linejoin="round"/>
<path d="M18.8683 53.7646H0.921875V58.604C0.921875 60.8045 4.94276 62.5855 9.8951 62.5855C14.8474 62.5855 18.8683 60.8045 18.8683 58.604V53.7646Z" fill="white" stroke="#00487C" stroke-width="2" stroke-linejoin="round"/>
<path d="M18.8683 53.3911C18.8683 55.5916 14.8474 57.3726 9.8951 57.3726C4.94276 57.3726 0.921875 55.5916 0.921875 53.3911C0.921875 51.1906 4.94276 49.4189 9.8951 49.4189C14.8474 49.4189 18.8683 51.1999 18.8683 53.3911Z" fill="#D1E3F2"/>
<path d="M9.89603 56.7201C4.98979 56.7201 1.56836 54.9671 1.56836 53.3913C1.56836 51.8155 4.98979 50.0625 9.89603 50.0625C14.8022 50.0625 18.2329 51.8155 18.2329 53.3913C18.2329 54.9671 14.8115 56.7201 9.89603 56.7201Z" stroke="white"/>
<path d="M18.8683 53.3911C18.8683 55.5916 14.8474 57.3726 9.8951 57.3726C4.94276 57.3726 0.921875 55.5916 0.921875 53.3911C0.921875 51.1906 4.94276 49.4189 9.8951 49.4189C14.8474 49.4189 18.8683 51.1999 18.8683 53.3911Z" stroke="#00487C" stroke-width="2" stroke-linejoin="round"/>
<path d="M9.19531 64.9805H10.5879" stroke="#00487C" stroke-width="2" stroke-linejoin="round"/>
<path d="M9.19531 59.7686H10.5879" stroke="#00487C" stroke-width="2" stroke-linejoin="round"/>
<path d="M50.2238 58.9766H32.2773V63.8159C32.2773 66.0164 36.2982 67.7974 41.2506 67.7974C46.2029 67.7974 50.2238 66.0164 50.2238 63.8159V58.9766Z" fill="white" stroke="#00487C" stroke-width="2" stroke-linejoin="round"/>
<path d="M50.2238 58.603C50.2238 60.8036 46.2029 62.5845 41.2506 62.5845C36.2982 62.5845 32.2773 60.8036 32.2773 58.603C32.2773 56.4025 36.2982 54.6309 41.2506 54.6309C46.2029 54.6309 50.2238 56.4118 50.2238 58.603Z" fill="white" stroke="#00487C" stroke-width="2" stroke-linejoin="round"/>
<path d="M50.2238 53.7646H32.2773V58.604C32.2773 60.8045 36.2982 62.5855 41.2506 62.5855C46.2029 62.5855 50.2238 60.8045 50.2238 58.604V53.7646Z" fill="white" stroke="#00487C" stroke-width="2" stroke-linejoin="round"/>
<path d="M50.2238 53.3911C50.2238 55.5916 46.2029 57.3726 41.2506 57.3726C36.2982 57.3726 32.2773 55.5916 32.2773 53.3911C32.2773 51.1906 36.2982 49.4189 41.2506 49.4189C46.2029 49.4189 50.2238 51.1999 50.2238 53.3911Z" fill="#D1E3F2"/>
<path d="M41.2515 56.7201C36.3453 56.7201 32.9238 54.9671 32.9238 53.3913C32.9238 51.8155 36.3453 50.0625 41.2515 50.0625C46.1577 50.0625 49.5884 51.8155 49.5884 53.3913C49.5884 54.9671 46.1669 56.7201 41.2515 56.7201Z" stroke="white"/>
<path d="M50.2238 53.3911C50.2238 55.5916 46.2029 57.3726 41.2506 57.3726C36.2982 57.3726 32.2773 55.5916 32.2773 53.3911C32.2773 51.1906 36.2982 49.4189 41.2506 49.4189C46.2029 49.4189 50.2238 51.1999 50.2238 53.3911Z" stroke="#00487C" stroke-width="2" stroke-linejoin="round"/>
<path d="M40.5508 64.9805H41.9433" stroke="#00487C" stroke-width="2" stroke-linejoin="round"/>
<path d="M40.5508 59.7686H41.9433" stroke="#00487C" stroke-width="2" stroke-linejoin="round"/>
<path d="M81.7003 58.9766H63.7539V63.8159C63.7539 66.0164 67.7748 67.7974 72.7271 67.7974C77.6795 67.7974 81.7003 66.0164 81.7003 63.8159V58.9766Z" fill="white" stroke="#00487C" stroke-width="2" stroke-linejoin="round"/>
<path d="M81.7003 58.603C81.7003 60.8036 77.6795 62.5845 72.7271 62.5845C67.7748 62.5845 63.7539 60.8036 63.7539 58.603C63.7539 56.4025 67.7748 54.6309 72.7271 54.6309C77.6795 54.6309 81.7003 56.4118 81.7003 58.603Z" fill="white" stroke="#00487C" stroke-width="2" stroke-linejoin="round"/>
<path d="M81.7003 53.7646H63.7539V58.604C63.7539 60.8045 67.7748 62.5855 72.7271 62.5855C77.6795 62.5855 81.7003 60.8045 81.7003 58.604V53.7646Z" fill="white" stroke="#00487C" stroke-width="2" stroke-linejoin="round"/>
<path d="M81.7003 53.3911C81.7003 55.5916 77.6795 57.3726 72.7271 57.3726C67.7748 57.3726 63.7539 55.5916 63.7539 53.3911C63.7539 51.1906 67.7748 49.4189 72.7271 49.4189C77.6795 49.4189 81.7003 51.1999 81.7003 53.3911Z" fill="#D1E3F2"/>
<path d="M72.7261 56.7201C67.8199 56.7201 64.3984 54.9671 64.3984 53.3913C64.3984 51.8155 67.8199 50.0625 72.7261 50.0625C77.6323 50.0625 81.063 51.8155 81.063 53.3913C81.063 54.9671 77.6415 56.7201 72.7261 56.7201Z" stroke="white"/>
<path d="M81.7003 53.3911C81.7003 55.5916 77.6795 57.3726 72.7271 57.3726C67.7748 57.3726 63.7539 55.5916 63.7539 53.3911C63.7539 51.1906 67.7748 49.4189 72.7271 49.4189C77.6795 49.4189 81.7003 51.1999 81.7003 53.3911Z" stroke="#00487C" stroke-width="2" stroke-linejoin="round"/>
<path d="M72.0352 64.9805H73.4277" stroke="#00487C" stroke-width="2" stroke-linejoin="round"/>
<path d="M72.0352 59.7686H73.4277" stroke="#00487C" stroke-width="2" stroke-linejoin="round"/>
<path d="M9.89453 45.3716V36.9512H72.7255V45.3716" fill="white"/>
<path d="M9.89453 45.3716V36.9512H72.7255V45.3716" stroke="#A9D1EA" stroke-width="2" stroke-linecap="round" stroke-linejoin="round"/>
<path d="M41.3066 25.1758V45.3721" stroke="#A9D1EA" stroke-width="2" stroke-linecap="round" stroke-linejoin="round"/>
<path d="M22.9171 30.4164C22.9171 31.6938 21.8934 32.7195 20.6392 32.7195C19.385 32.7195 18.3613 31.6845 18.3613 30.4164C18.3613 29.1483 19.385 28.1133 20.6392 28.1133C21.8934 28.1133 22.9171 29.1483 22.9171 30.4164Z" fill="#A9D1EA"/>
<path d="M50.418 45.335H53.1016" stroke="#2F4382" stroke-width="2"/>
<path d="M55.6836 45.335H58.3673" stroke="#2F4382" stroke-width="2"/>
<path d="M60.9492 45.335H63.6329" stroke="#2F4382" stroke-width="2"/>
<path d="M64.4082 2.14459C64.4082 3.32878 63.4584 4.28919 62.2871 4.28919C61.1159 4.28919 60.166 3.32878 60.166 2.14459C60.166 0.960405 61.1159 0 62.2871 0C63.4584 0 64.4082 0.960405 64.4082 2.14459Z" fill="#A9D1EA"/>
<path d="M57.1489 14.1361H56.9275C57.0751 13.4554 57.1489 12.7561 57.1489 12.0288C57.1489 6.5648 52.7683 2.13574 47.3641 2.13574C42.9835 2.13574 39.2762 5.04493 38.0312 9.06372C36.694 8.01939 35.0248 7.39466 33.2172 7.39466C29.2793 7.39466 26.0146 10.3131 25.4152 14.1268H24.6866C21.5788 14.1268 19.0703 16.6723 19.0703 19.8053C19.0703 22.9383 21.588 25.4838 24.6866 25.4838H57.1489C60.2568 25.4838 62.7652 22.9383 62.7652 19.8053C62.7652 16.6723 60.2475 14.1268 57.1489 14.1268V14.1361Z" fill="#D1E3F2"/>
<path d="M57.1489 14.1361H56.9275C57.0751 13.4554 57.1489 12.7561 57.1489 12.0288C57.1489 6.5648 52.7683 2.13574 47.3641 2.13574C42.9835 2.13574 39.2762 5.04493 38.0312 9.06372C36.694 8.01939 35.0248 7.39466 33.2172 7.39466C29.2793 7.39466 26.0146 10.3131 25.4152 14.1268H24.6866C21.5788 14.1268 19.0703 16.6723 19.0703 19.8053C19.0703 22.9383 21.588 25.4838 24.6866 25.4838H57.1489C60.2568 25.4838 62.7652 22.9383 62.7652 19.8053C62.7652 16.6723 60.2475 14.1268 57.1489 14.1268V14.1361Z" stroke="#A9D1EA" stroke-width="2"/>
<path d="M57.1492 24.4577H24.687C22.1601 24.4577 20.1035 22.3784 20.1035 19.8235C20.1035 17.2687 22.1601 15.1893 24.687 15.1893H26.3008L26.4392 14.3128C26.9741 10.9188 29.8237 8.45716 33.2175 8.45716C34.7392 8.45716 36.1871 8.96068 37.4044 9.90244L38.5756 10.8162L39.0183 9.3896C40.1711 5.68784 43.528 3.19824 47.3644 3.19824C52.1876 3.19824 56.1163 7.1704 56.1163 12.047C56.1163 12.6718 56.0517 13.3058 55.9134 13.9305L55.646 15.1987H57.1492C59.6761 15.1987 61.7326 17.278 61.7326 19.8328C61.7326 22.3877 59.6761 24.467 57.1492 24.467V24.4577Z" stroke="white"/>
<path d="M6.71289 8.18652H9.39657" stroke="#2F4382" stroke-width="2"/>
<path d="M11.9785 8.18652H14.6622" stroke="#2F4382" stroke-width="2"/>
<path d="M17.2461 8.18652H19.9298" stroke="#2F4382" stroke-width="2"/>
<path d="M27.0957 44.8691V51.8624" stroke="#438FD2" stroke-width="2" stroke-linejoin="round"/>
<path d="M23.6367 48.3652H30.5534" stroke="#438FD2" stroke-width="2" stroke-linejoin="round"/>
</g>
<defs>
<clipPath id="clip0_1541_11103">
<rect width="83" height="69" fill="white"/>
</clipPath>
</defs>
</svg>
