<svg width="89" height="67" viewBox="0 0 89 67" fill="none" xmlns="http://www.w3.org/2000/svg">
<g clip-path="url(#clip0_1541_11080)">
<path d="M78.6942 15.2518C78.6942 14.127 77.7503 13.2109 76.5914 13.2109H12.4074C11.2486 13.2109 10.3047 14.127 10.3047 15.2518V63.225H78.6942V15.2518Z" fill="white" stroke="#438FD2" stroke-width="2"/>
<path d="M4.68359 60.3945V62.9793C4.68359 64.6752 5.53147 66.0565 6.57502 66.0565H81.4776C82.5211 66.0565 83.3783 64.6752 83.3783 62.9793V60.3945H4.68359Z" fill="white" stroke="#2F4382" stroke-width="2"/>
<path d="M55.2643 6.60547H0V17.5991H55.2643V6.60547Z" fill="#2F4382"/>
<path d="M55.2643 23.5918H0V34.5855H55.2643V23.5918Z" fill="#B2D2E6"/>
<path d="M5.44336 12.1074H39.2353" stroke="white" stroke-width="2"/>
<path d="M55.2559 43.4082H57.9914" stroke="#2F4382" stroke-width="2"/>
<path d="M60.6035 43.4082H63.3391" stroke="#2F4382" stroke-width="2"/>
<path d="M65.9531 43.4082H68.6887" stroke="#2F4382" stroke-width="2"/>
<path d="M17.4824 49.0425C17.4824 51.2035 19.2156 52.9493 21.3609 52.9493C23.5063 52.9493 25.2395 51.2035 25.2395 49.0425C25.2395 46.8815 23.5063 45.1357 21.3609 45.1357C19.2156 45.1357 17.4824 46.891 17.4824 49.0425Z" fill="#9BD8EE" stroke="#2F4382" stroke-width="2"/>
<path d="M29.2852 47.0039H50.7107" stroke="#2F4382" stroke-width="2"/>
<path d="M29.2852 51.0713H36.7331" stroke="#2F4382" stroke-width="2"/>
<path d="M76.499 41.8759L78.9806 39.3832L61.832 31.1406L67.1478 42.3579L70.0179 48.4108L72.4924 45.9181L81.2393 54.7322L85.2531 50.6901L76.499 41.8759Z" fill="white" stroke="#2F4382" stroke-width="2"/>
<path d="M68.8203 0V7.07746" stroke="#0074DB" stroke-width="2" stroke-linejoin="round"/>
<path d="M65.3066 3.53906H72.333" stroke="#0074DB" stroke-width="2" stroke-linejoin="round"/>
<path d="M87.4638 36.9634C87.4638 38.1618 86.4988 39.1338 85.309 39.1338C84.1192 39.1338 83.1543 38.1618 83.1543 36.9634C83.1543 35.7649 84.1192 34.793 85.309 34.793C86.4988 34.793 87.4638 35.7649 87.4638 36.9634Z" fill="#B2D2E6"/>
</g>
<defs>
<clipPath id="clip0_1541_11080">
<rect width="89" height="67" fill="white"/>
</clipPath>
</defs>
</svg>
