<svg width="230" height="25" viewBox="0 0 230 25" fill="none" xmlns="http://www.w3.org/2000/svg">
<g clip-path="url(#clip0_19_376)">
<path d="M32.7017 5.94757C34.7794 10.9024 33.9128 15.9819 33.4451 18.2772L38.9003 24.0403H47.2358L35.3259 11.6059L45.3599 1.32709C42.0612 1.07761 39.2794 1.45683 35.5524 3.04356L32.7017 5.94757Z" fill="#40F3FE"/>
<path d="M32.7015 5.94777L31.4854 7.18522L30.161 5.83301C29.2206 6.1773 27.8224 6.52658 24.8387 8.75698L27.65 11.6061L23.6423 15.7576C23.4897 14.9991 23.2435 14.3056 22.766 13.6419C22.0816 12.7039 21.3874 12.0801 20.2648 11.6111C18.3742 12.2847 17.3895 13.3775 16.5181 14.575C17.5668 14.9742 18.0887 15.7176 18.0887 16.8902C18.0887 17.8582 17.7637 18.2923 17.1089 18.7364C17.04 18.7813 16.9513 18.8163 16.8775 18.8562C18.6844 20.0437 22.3622 22.5635 24.0756 24.0305L31.4854 16.2066L33.44 18.2774C34.213 16.047 35.439 10.8976 32.6966 5.94777H32.7015Z" fill="url(#paint0_linear_19_376)"/>
<path d="M24.4352 0H0V12.9084C1.27518 13.1329 3.1264 13.0381 5.68169 12.7587V4.60052H13.5839C14.8344 4.60052 15.8093 4.81508 16.4592 5.25417C17.0795 5.69327 17.3897 6.21719 17.3897 7.10037C17.3897 7.98355 17.0844 8.62223 16.4592 9.05634C15.8093 9.52537 14.8344 9.75989 13.5839 9.75989H10.2014V13.083C12.1216 13.607 13.3623 13.8614 14.8344 14.2606C15.3908 14.3005 15.8733 14.3854 16.2868 14.5101C16.3607 14.5351 16.4493 14.55 16.5182 14.575C17.4488 13.6419 18.783 12.624 20.265 11.6111C20.2502 11.6061 20.2355 11.5961 20.2207 11.5911C20.9149 11.157 21.5648 10.5932 22.0473 9.92455C22.131 9.80979 22.2196 9.69502 22.2935 9.57028C22.7514 8.76195 22.9877 7.91369 23.0566 6.9407L24.8389 8.74698C27.1825 7.38478 29.2651 6.28705 30.1612 5.823L24.4352 0Z" fill="url(#paint1_linear_19_376)"/>
<path d="M14.0563 19.435H12.9387C11.4715 20.9619 10.9447 22.389 10.6641 24.0455H24.0756C24.0756 24.0455 22.7955 22.7133 20.4815 21.1764C19.1472 20.2883 17.6062 19.3402 16.8775 18.8662C16.2079 19.2355 15.2724 19.435 14.0563 19.435Z" fill="url(#paint2_linear_19_376)"/>
<path d="M5.68169 19.4351V12.7339C3.36766 12.679 1.28995 12.7838 0 12.8836V24.0456H10.6642C11.2797 22.364 12.1068 20.7873 12.9389 19.4351H5.68169Z" fill="url(#paint3_linear_19_376)"/>
<path d="M10.2017 13.0381V14.2406H14.0617C14.3374 14.2406 14.5885 14.2556 14.8346 14.2705C13.5939 13.6967 11.8609 13.2776 10.2017 13.0381Z" fill="url(#paint4_linear_19_376)"/>
<path d="M38.5408 0L35.5522 3.04373C39.4664 1.65659 43.6514 1.37716 45.3598 1.32727L45.3746 1.3123L46.6547 0H38.5408Z" fill="url(#paint5_linear_19_376)"/>
<path d="M79.5093 13.3374C80.0657 14.1008 80.3463 15.0289 80.3463 16.1117C80.3463 17.7034 79.7407 18.9309 78.5295 19.7891C77.3184 20.6473 75.5754 21.0864 73.2811 21.0864H64.0151V2.96875H72.7937C74.9846 2.96875 76.6488 3.38789 77.8009 4.25111C78.9431 5.09437 79.5093 6.25198 79.5093 7.70399C79.5093 8.56222 79.3173 9.34062 78.9136 10.0142C78.5049 10.7078 77.9387 11.2417 77.2002 11.6359C78.1898 12.0051 78.948 12.564 79.5044 13.3424L79.5093 13.3374ZM68.8204 6.65615V10.149H72.1586C73.7931 10.149 74.6055 9.57015 74.6055 8.40255C74.6055 7.23496 73.7931 6.65615 72.1586 6.65615H68.8204ZM75.4376 15.5478C75.4376 14.3253 74.5908 13.7016 72.8922 13.7016H68.8204V17.3791H72.8922C74.5908 17.3791 75.4376 16.7753 75.4376 15.5478Z" fill="#4D4D4F"/>
<path d="M82.3799 2.96875H87.2393V21.0914H82.3799V2.96875Z" fill="#4D4D4F"/>
<path d="M93.9695 20.2283C92.5171 19.4249 91.3847 18.2973 90.5576 16.8602C89.7304 15.4382 89.3218 13.8165 89.3218 12.0252C89.3218 10.2339 89.7304 8.61721 90.5576 7.18017C91.3847 5.7581 92.5171 4.63042 93.9695 3.81211C95.417 3.00877 97.0418 2.59961 98.8585 2.59961C100.675 2.59961 102.3 3.00877 103.752 3.81211C105.2 4.63042 106.332 5.7581 107.16 7.18017C107.987 8.61721 108.395 10.2239 108.395 12.0252C108.395 13.8265 107.982 15.4382 107.16 16.8602C106.332 18.2973 105.2 19.4249 103.752 20.2283C102.3 21.0466 100.675 21.4408 98.8585 21.4408C97.0418 21.4408 95.417 21.0466 93.9695 20.2283ZM101.212 16.5509C101.916 16.1267 102.463 15.508 102.881 14.7346C103.285 13.9462 103.492 13.0431 103.492 12.0302C103.492 11.0173 103.285 10.1141 102.881 9.32575C102.467 8.53737 101.916 7.93362 101.212 7.49452C100.503 7.07539 99.7251 6.85085 98.8536 6.85085C97.9822 6.85085 97.2092 7.07539 96.5002 7.49452C95.806 7.93362 95.2447 8.53737 94.8311 9.32575C94.4274 10.1191 94.2157 11.0023 94.2157 12.0302C94.2157 13.0581 94.4225 13.9462 94.8311 14.7346C95.2447 15.508 95.806 16.1267 96.5002 16.5509C97.2092 16.99 97.9871 17.1945 98.8536 17.1945C99.7202 17.1945 100.503 16.985 101.212 16.5509Z" fill="#4D4D4F"/>
<path d="M130.078 17.1296V21.0914H116.297V2.96875H129.758V6.9256H121.103V9.98429H128.729V13.8164H121.103V17.1246H130.078V17.1296Z" fill="#4D4D4F"/>
<path d="M143.78 21.0913L140.231 15.4679L136.72 21.0913H131.176L137.429 11.9202L131.437 2.97363H136.917L140.344 8.19787L143.726 2.97363H148.975L142.993 11.7206L149.369 21.0963H143.78V21.0913Z" fill="#4D4D4F"/>
<path d="M162.312 3.78706C163.454 4.32096 164.336 5.09437 164.951 6.11227C165.576 7.12519 165.882 8.30775 165.882 9.67493C165.882 11.0421 165.576 12.2097 164.951 13.2126C164.331 14.2106 163.449 14.984 162.312 15.5329C161.165 16.0668 159.816 16.3512 158.265 16.3512H155.276V21.0864H150.417V2.96875H158.265C159.821 2.96875 161.165 3.23321 162.312 3.78706ZM160.225 11.6209C160.727 11.1718 160.983 10.5232 160.983 9.67493C160.983 8.82668 160.727 8.16804 160.225 7.70399C159.717 7.23995 158.959 7.00044 157.97 7.00044H155.272V12.3145H157.97C158.959 12.3145 159.712 12.09 160.225 11.6209Z" fill="#4D4D4F"/>
<path d="M174.848 16.2663H172.209V21.0864H167.349V2.96875H175.197C176.753 2.96875 178.097 3.23321 179.244 3.78706C180.386 4.32096 181.268 5.09437 181.888 6.11227C182.513 7.12519 182.819 8.30775 182.819 9.67493C182.819 11.0421 182.533 12.1299 181.957 13.1029C181.371 14.0709 180.534 14.8343 179.466 15.3981L183.163 21.0964H177.959L174.843 16.2763L174.848 16.2663ZM177.157 7.70399C176.654 7.23995 175.896 7.00044 174.907 7.00044H172.209V12.3145H174.907C175.896 12.3145 176.654 12.09 177.157 11.6209C177.659 11.1718 177.915 10.5232 177.915 9.67493C177.915 8.82668 177.654 8.16804 177.157 7.70399Z" fill="#4D4D4F"/>
<path d="M198.785 17.1296V21.0914H185V2.96875H198.465V6.9256H189.81V9.98429H197.436V13.8164H189.81V17.1246H198.785V17.1296Z" fill="#4D4D4F"/>
<path d="M202.98 20.9019C201.67 20.5376 200.607 20.0586 199.794 19.4549L201.385 15.6777C202.158 16.2116 203.044 16.6357 204.063 16.975C205.072 17.2993 206.067 17.469 207.052 17.469C208.918 17.469 209.848 16.975 209.848 15.987C209.848 15.4681 209.587 15.0839 209.051 14.8344C208.514 14.5799 207.667 14.3254 206.485 14.041C205.191 13.7466 204.122 13.4373 203.256 13.098C202.389 12.7587 201.651 12.2198 201.02 11.4763C200.395 10.7428 200.095 9.72992 200.095 8.4775C200.095 7.37976 200.375 6.37683 200.956 5.48866C201.528 4.60548 202.374 3.89694 203.517 3.37302C204.659 2.85409 206.042 2.59961 207.702 2.59961C208.829 2.59961 209.942 2.73932 211.035 2.9938C212.123 3.26324 213.098 3.65743 213.93 4.17636L212.428 7.97853C210.793 7.05044 209.213 6.5814 207.672 6.5814C206.707 6.5814 206.003 6.73609 205.56 7.03547C205.122 7.34483 204.905 7.72405 204.905 8.21803C204.905 8.71201 205.166 9.06628 205.683 9.3008C206.21 9.5453 207.047 9.79478 208.214 10.0493C209.518 10.3486 210.606 10.658 211.458 10.9923C212.31 11.3316 213.063 11.8655 213.688 12.604C214.319 13.3375 214.639 14.3354 214.639 15.5928C214.639 16.6806 214.348 17.6636 213.777 18.5517C213.206 19.4249 212.344 20.1285 211.207 20.6524C210.06 21.1863 208.676 21.4458 207.037 21.4458C205.644 21.4458 204.299 21.2761 202.99 20.9069L202.98 20.9019Z" fill="#4D4D4F"/>
<path d="M218.356 20.9019C217.046 20.5376 215.978 20.0586 215.166 19.4549L216.756 15.6777C217.529 16.2116 218.42 16.6357 219.429 16.975C220.439 17.2993 221.443 17.469 222.423 17.469C224.284 17.469 225.224 16.975 225.224 15.987C225.224 15.4681 224.953 15.0839 224.417 14.8344C223.89 14.5799 223.043 14.3254 221.861 14.041C220.567 13.7466 219.488 13.4373 218.622 13.098C217.76 12.7587 217.017 12.2198 216.396 11.4763C215.771 10.7428 215.461 9.72992 215.461 8.4775C215.461 7.37976 215.742 6.37683 216.318 5.48866C216.889 4.60548 217.745 3.89694 218.883 3.37302C220.015 2.85409 221.413 2.59961 223.063 2.59961C224.19 2.59961 225.303 2.73932 226.391 2.9938C227.489 3.26324 228.454 3.65743 229.291 4.17636L227.794 7.97853C226.155 7.05044 224.569 6.5814 223.038 6.5814C222.063 6.5814 221.369 6.73609 220.926 7.03547C220.483 7.34483 220.266 7.72405 220.266 8.21803C220.266 8.71201 220.527 9.06628 221.049 9.3008C221.571 9.5453 222.413 9.79478 223.575 10.0493C224.88 10.3486 225.968 10.658 226.819 10.9923C227.681 11.3316 228.424 11.8655 229.06 12.604C229.685 13.3375 230 14.3354 230 15.5928C230 16.6806 229.714 17.6636 229.143 18.5517C228.572 19.4249 227.715 20.1285 226.573 20.6524C225.421 21.1863 224.038 21.4458 222.403 21.4458C221.015 21.4458 219.666 21.2761 218.361 20.9069L218.356 20.9019Z" fill="#4D4D4F"/>
</g>
<defs>
<linearGradient id="paint0_linear_19_376" x1="12.2002" y1="20.5277" x2="38.1753" y2="11.0388" gradientUnits="userSpaceOnUse">
<stop stop-color="#F715FF"/>
<stop offset="1" stop-color="#00FFED"/>
</linearGradient>
<linearGradient id="paint1_linear_19_376" x1="-3.85016" y1="-8.98648" x2="15.1255" y2="8.76316" gradientUnits="userSpaceOnUse">
<stop stop-color="#FF3FDF"/>
<stop offset="1" stop-color="#652DB3"/>
</linearGradient>
<linearGradient id="paint2_linear_19_376" x1="17.04" y1="17.3443" x2="18.4608" y2="45.5793" gradientUnits="userSpaceOnUse">
<stop stop-color="#FF3FDF"/>
<stop offset="1" stop-color="#652DB3"/>
</linearGradient>
<linearGradient id="paint3_linear_19_376" x1="-11.6243" y1="32.0441" x2="42.651" y2="-10.2814" gradientUnits="userSpaceOnUse">
<stop stop-color="#FF3FDF"/>
<stop offset="1" stop-color="#652D90"/>
</linearGradient>
<linearGradient id="paint4_linear_19_376" x1="-11.181" y1="32.6327" x2="43.1143" y2="-9.70751" gradientUnits="userSpaceOnUse">
<stop stop-color="#FF3FDF"/>
<stop offset="1" stop-color="#652D90"/>
</linearGradient>
<linearGradient id="paint5_linear_19_376" x1="13.8397" y1="9.79981" x2="51.0938" y2="-1.99068" gradientUnits="userSpaceOnUse">
<stop stop-color="#F715FF"/>
<stop offset="1" stop-color="#00FFED"/>
</linearGradient>
<clipPath id="clip0_19_376">
<rect width="230" height="24.0455" fill="white"/>
</clipPath>
</defs>
</svg>
