<svg width="157" height="26" viewBox="0 0 157 26" fill="none" xmlns="http://www.w3.org/2000/svg">
<path d="M47.0294 21.8834C45.4624 21.0147 44.2347 19.8062 43.3408 18.2577C42.4469 16.7093 42 14.9558 42 12.9973C42 11.0388 42.4469 9.28533 43.3408 7.73687C44.2347 6.18842 45.4624 4.97987 47.0294 4.11122C48.591 3.24258 50.3572 2.81096 52.3227 2.81096C54.0405 2.81096 55.5859 3.12928 56.959 3.76053C58.3322 4.39718 59.4791 5.30898 60.3892 6.50674L57.0075 9.69537C55.7905 8.1631 54.3151 7.40236 52.5866 7.40236C51.5688 7.40236 50.6588 7.63436 49.8618 8.10375C49.0649 8.56775 48.451 9.22598 48.0149 10.0784C47.5787 10.9255 47.3579 11.9021 47.3579 13.0027C47.3579 14.1033 47.5787 15.0799 48.0149 15.927C48.451 16.7794 49.0703 17.4322 49.8618 17.9016C50.6534 18.371 51.5635 18.603 52.5866 18.603C54.3151 18.603 55.7905 17.8369 57.0075 16.3046L60.3892 19.4933C59.4738 20.6856 58.3322 21.6028 56.959 22.2341C55.5859 22.8653 54.0351 23.1836 52.3227 23.1836C50.3572 23.1836 48.591 22.7466 47.0294 21.8834Z" fill="#4D4D4F"/>
<path d="M62.6616 3.49076H67.8149V18.2523H76.5114V22.52H62.6562V3.49076H62.6616Z" fill="#4D4D4F"/>
<path d="M81.74 21.619C80.1999 20.7665 78.9937 19.5904 78.1214 18.0851C77.2437 16.5798 76.8075 14.8911 76.8075 13.0027C76.8075 11.1143 77.249 9.42561 78.1214 7.92031C78.9991 6.41502 80.2053 5.23884 81.74 4.38639C83.2747 3.53393 85.0086 3.1077 86.9364 3.1077C88.8641 3.1077 90.5926 3.53393 92.1327 4.38639C93.6674 5.23884 94.8736 6.41502 95.7513 7.92031C96.6237 9.42561 97.0652 11.1197 97.0652 13.0027C97.0652 14.8857 96.6237 16.5798 95.7513 18.0851C94.8736 19.5904 93.6674 20.7665 92.1327 21.619C90.598 22.4715 88.8641 22.8977 86.9364 22.8977C85.0086 22.8977 83.2747 22.4715 81.74 21.619ZM89.4349 17.756C90.1834 17.3028 90.7703 16.6661 91.2065 15.8406C91.6373 15.0151 91.8581 14.071 91.8581 13.0027C91.8581 11.9344 91.6373 10.9902 91.2065 10.1648C90.7703 9.33928 90.1834 8.70263 89.4349 8.24403C88.6864 7.79083 87.8518 7.56962 86.9364 7.56962C86.0209 7.56962 85.1809 7.79622 84.4324 8.24403C83.6893 8.69724 83.097 9.33928 82.6608 10.1648C82.2246 10.9902 82.0092 11.9344 82.0092 13.0027C82.0092 14.071 82.23 15.0205 82.6608 15.8406C83.097 16.6661 83.6839 17.3028 84.4324 17.756C85.1809 18.2092 86.0102 18.4358 86.9364 18.4358C87.8625 18.4358 88.6864 18.2092 89.4349 17.756Z" fill="#4D4D4F"/>
<path d="M101.362 22.3258C99.973 21.9427 98.8476 21.4356 97.9752 20.8043L99.6714 16.8334C100.49 17.3999 101.432 17.8477 102.509 18.193C103.586 18.5329 104.642 18.7109 105.686 18.7109C107.668 18.7109 108.653 18.193 108.653 17.1571C108.653 16.6122 108.368 16.2075 107.808 15.9485C107.243 15.6842 106.338 15.409 105.089 15.1231C103.721 14.8155 102.574 14.481 101.648 14.1303C100.727 13.7796 99.9353 13.2131 99.2783 12.4362C98.616 11.6593 98.2875 10.6072 98.2875 9.28533C98.2875 8.12534 98.5891 7.07865 99.1976 6.14526C99.8061 5.21187 100.711 4.47271 101.917 3.93318C103.123 3.38825 104.604 3.11849 106.359 3.11849C107.56 3.11849 108.734 3.25877 109.903 3.53932C111.066 3.81988 112.089 4.23532 112.977 4.77485L111.383 8.77277C109.65 7.79622 107.964 7.30525 106.332 7.30525C105.309 7.30525 104.561 7.46171 104.092 7.78004C103.624 8.09836 103.387 8.5084 103.387 9.01556C103.387 9.52272 103.667 9.90579 104.222 10.1594C104.776 10.4129 105.67 10.6773 106.903 10.9471C108.293 11.2546 109.44 11.5837 110.355 11.9398C111.265 12.2959 112.057 12.857 112.724 13.6232C113.392 14.3947 113.726 15.4414 113.726 16.7632C113.726 17.9016 113.424 18.9375 112.816 19.8601C112.207 20.7827 111.297 21.5219 110.08 22.0722C108.863 22.6279 107.388 22.9031 105.654 22.9031C104.179 22.9031 102.746 22.7143 101.357 22.3312L101.362 22.3258Z" fill="#4D4D4F"/>
<path d="M132.923 3.49076V22.52H127.764V15.1015H120.732V22.52H115.573V3.49076H120.732V10.6396H127.764V3.49076H132.923Z" fill="#4D4D4F"/>
<path d="M148.264 18.8188H140.558L139.126 22.5146H133.865L141.915 3.48537H146.993L155.065 22.5146H149.702L148.27 18.8188H148.264ZM146.756 14.8479L144.414 8.76198L142.072 14.8479H146.756Z" fill="#4D4D4F"/>
<path d="M17.5546 26H25.9549V15.8946H20.177V20.2108H18.89C18.3677 21.2467 18.1469 22.4121 17.91 23.3941C17.7215 24.2303 17.5815 25.0612 17.56 26H17.5546Z" fill="url(#paint0_linear_1081_2)"/>
<path d="M23.4401 3.32891C21.6739 3.73355 19.2561 4.43494 17.3229 5.30359C17.2583 5.23345 17.2045 5.16871 17.1829 5.12554C16.8114 5.26043 16.4129 5.64349 16.0521 5.78377H20.1715V10.1H25.9494V3.05375C25.2763 2.99979 24.5332 3.07533 23.4347 3.32891H23.4401Z" fill="url(#paint1_linear_1081_2)"/>
<path d="M10.0912 0C10.2635 0.830878 12.7351 4.88815 13.936 5.78917H16.0468C16.4076 5.64889 16.7684 5.50861 17.1453 5.37373C19.2562 4.62378 21.5501 4.0249 23.3648 3.60407C24.4633 3.35049 25.3733 3.16705 25.9495 3.05375V0H10.0912Z" fill="url(#paint2_linear_1081_2)"/>
<path d="M12.9236 4.00872C11.9166 2.27143 10.9366 0.960365 10.0912 0H0V15.4522C0.123851 15.4737 0.210008 15.7004 0.333859 15.7219C0.840033 15.819 1.34621 15.9324 1.84161 16.0672C1.90623 16.0834 1.97085 16.0996 2.03008 16.1158C2.07854 16.132 2.12162 16.1482 2.17009 16.1643C2.21855 16.1751 2.26701 16.1967 2.31548 16.2075C2.49856 16.2615 2.72472 16.1158 2.90781 16.1751L3.56476 15.8568L5.77253 12.9757V5.79996H13.9359C13.6182 5.19568 13.279 4.6022 12.9182 4.01951L12.9236 4.00872Z" fill="url(#paint3_linear_1081_2)"/>
<path d="M5.77794 18.9537V18.9321C5.23407 18.6354 4.66328 18.3387 4.10864 18.0635C4.6202 18.3279 5.17484 18.6192 5.77794 18.9537Z" fill="url(#paint4_linear_1081_2)"/>
<path d="M12.4552 23.2808C11.109 22.0938 9.54202 20.8691 7.89426 20.2108H5.77803V18.9537C5.29878 18.4843 4.73876 18.1336 4.2272 17.8693C3.47332 17.4916 2.64406 17.211 2.10019 16.9521L0.00549316 19.2936V26H14.6038C13.9899 24.9911 13.2791 24.0469 12.4606 23.2808H12.4552Z" fill="url(#paint5_linear_1081_2)"/>
<path d="M7.89417 20.2108C9.36961 21.1334 10.8881 22.2017 12.2343 23.3887C13.0582 24.1494 13.8713 25.0234 14.5983 26H17.5545C17.8453 25.126 18.0769 24.2411 18.26 23.4049C18.4969 22.4229 18.7123 21.3492 18.8846 20.2108H7.89417Z" fill="url(#paint6_linear_1081_2)"/>
<path d="M2.36391 15.9971C2.31545 15.9809 2.26698 15.9647 2.21852 15.9485C2.17006 15.9377 2.12159 15.9162 2.07852 15.9054C2.0139 15.8838 1.94928 15.873 1.89005 15.8568C1.39464 15.7219 0.888469 15.6086 0.382295 15.5169C0.258444 15.4899 0.134593 15.4738 0.0107422 15.4522V19.4339L2.10544 17.087L2.81624 16.2938L2.91855 16.1751C2.73546 16.1158 2.55238 16.0564 2.3693 16.0025L2.36391 15.9971Z" fill="url(#paint7_linear_1081_2)"/>
<path d="M3.34399 15.6896L2.91321 16.1697L2.81089 16.2884L2.1001 17.0815C2.55781 17.292 3.26861 17.6319 4.10864 18.0635C4.66328 18.3387 5.23407 18.6408 5.77793 18.9321V12.9649L3.34399 15.6896Z" fill="url(#paint8_linear_1081_2)"/>
<defs>
<linearGradient id="paint0_linear_1081_2" x1="-3.93089" y1="51.3256" x2="40.3799" y2="1.65564" gradientUnits="userSpaceOnUse">
<stop stop-color="#1318CC"/>
<stop offset="0.21" stop-color="#0051FF"/>
<stop offset="0.41" stop-color="#0087FF"/>
<stop offset="0.6" stop-color="#00AFFF"/>
<stop offset="0.82" stop-color="#00C4FF"/>
<stop offset="1" stop-color="#22D6E1"/>
</linearGradient>
<linearGradient id="paint1_linear_1081_2" x1="87.078" y1="-8.96161" x2="19.3213" y2="7.9984" gradientUnits="userSpaceOnUse">
<stop stop-color="#1318CC"/>
<stop offset="0.21" stop-color="#0051FF"/>
<stop offset="0.41" stop-color="#0087FF"/>
<stop offset="0.6" stop-color="#00AFFF"/>
<stop offset="0.82" stop-color="#00C4FF"/>
<stop offset="1" stop-color="#22D6E1"/>
</linearGradient>
<linearGradient id="paint2_linear_1081_2" x1="-35.7552" y1="11.4111" x2="38.0953" y2="-1.41899" gradientUnits="userSpaceOnUse">
<stop stop-color="#1318CC"/>
<stop offset="0.21" stop-color="#0051FF"/>
<stop offset="0.41" stop-color="#0087FF"/>
<stop offset="0.6" stop-color="#00AFFF"/>
<stop offset="0.82" stop-color="#00C4FF"/>
<stop offset="1" stop-color="#22D6E1"/>
</linearGradient>
<linearGradient id="paint3_linear_1081_2" x1="-5.9987" y1="10.537" x2="75.7146" y2="-16.2159" gradientUnits="userSpaceOnUse">
<stop stop-color="#1318CC"/>
<stop offset="0.21" stop-color="#0051FF"/>
<stop offset="0.41" stop-color="#0087FF"/>
<stop offset="0.6" stop-color="#00AFFF"/>
<stop offset="0.82" stop-color="#00C4FF"/>
<stop offset="1" stop-color="#22D6E1"/>
</linearGradient>
<linearGradient id="paint4_linear_1081_2" x1="4.10864" y1="18.5059" x2="5.77794" y2="18.5059" gradientUnits="userSpaceOnUse">
<stop stop-color="#1318CC"/>
<stop offset="0.21" stop-color="#0051FF"/>
<stop offset="0.41" stop-color="#0087FF"/>
<stop offset="0.6" stop-color="#00AFFF"/>
<stop offset="0.82" stop-color="#00C4FF"/>
<stop offset="1" stop-color="#22D6E1"/>
</linearGradient>
<linearGradient id="paint5_linear_1081_2" x1="-28.7656" y1="6.46358" x2="17.7361" y2="29.672" gradientUnits="userSpaceOnUse">
<stop stop-color="#1318CC"/>
<stop offset="0.21" stop-color="#0051FF"/>
<stop offset="0.41" stop-color="#0087FF"/>
<stop offset="0.6" stop-color="#00AFFF"/>
<stop offset="0.82" stop-color="#00C4FF"/>
<stop offset="1" stop-color="#22D6E1"/>
</linearGradient>
<linearGradient id="paint6_linear_1081_2" x1="45.9487" y1="39.8066" x2="-38.3504" y2="-8.21076" gradientUnits="userSpaceOnUse">
<stop stop-color="#1318CC"/>
<stop offset="0.21" stop-color="#0051FF"/>
<stop offset="0.41" stop-color="#0087FF"/>
<stop offset="0.6" stop-color="#00AFFF"/>
<stop offset="0.82" stop-color="#00C4FF"/>
<stop offset="1" stop-color="#22D6E1"/>
</linearGradient>
<linearGradient id="paint7_linear_1081_2" x1="-10.1989" y1="18.9807" x2="21.6066" y2="14.1971" gradientUnits="userSpaceOnUse">
<stop stop-color="#1318CC"/>
<stop offset="0.21" stop-color="#0051FF"/>
<stop offset="0.41" stop-color="#0087FF"/>
<stop offset="0.6" stop-color="#00AFFF"/>
<stop offset="0.82" stop-color="#00C4FF"/>
<stop offset="1" stop-color="#22D6E1"/>
</linearGradient>
<linearGradient id="paint8_linear_1081_2" x1="-2.35315" y1="7.16497" x2="26.254" y2="42.7737" gradientUnits="userSpaceOnUse">
<stop stop-color="#1318CC"/>
<stop offset="0.21" stop-color="#0051FF"/>
<stop offset="0.41" stop-color="#0087FF"/>
<stop offset="0.6" stop-color="#00AFFF"/>
<stop offset="0.82" stop-color="#00C4FF"/>
<stop offset="1" stop-color="#22D6E1"/>
</linearGradient>
</defs>
</svg>
