<svg width="33" height="15" viewBox="0 0 33 15" fill="none" xmlns="http://www.w3.org/2000/svg">
<g clip-path="url(#clip0_1769_8685)">
<path d="M22.3223 3.71035C23.7405 6.80124 23.149 9.96994 22.8297 11.4018L26.5535 14.9969L32.2434 14.9969L24.1136 7.24012L30.9629 0.828007C28.7112 0.672373 26.8123 0.908937 24.2682 1.89877L22.3223 3.71035Z" fill="#40F3FE"/>
<path d="M22.3224 3.71026L21.4922 4.48221L20.5882 3.63867C19.9463 3.85345 18.9918 4.07133 16.9552 5.4627L18.8742 7.24004L16.1385 9.82979C16.0343 9.35666 15.8663 8.924 15.5403 8.51002C15.0731 7.92483 14.5992 7.53575 13.833 7.24315C12.5424 7.66337 11.8703 8.34504 11.2754 9.09209C11.9912 9.3411 12.3475 9.80489 12.3475 10.5364C12.3475 11.1402 12.1257 11.411 11.6787 11.6881C11.6316 11.7161 11.5711 11.7379 11.5207 11.7628C12.7541 12.5036 15.2647 14.0755 16.4342 14.9906L21.4922 10.1099L22.8265 11.4017C23.3541 10.0103 24.191 6.79804 22.319 3.71026H22.3224Z" fill="url(#paint0_linear_1769_8685)"/>
<path d="M16.6797 0L0 0L0 8.0525C0.870449 8.19257 2.13411 8.13343 3.87837 7.95912L3.87837 2.86989L9.27246 2.86989C10.1261 2.86989 10.7915 3.00374 11.2352 3.27765C11.6586 3.55157 11.8704 3.8784 11.8704 4.42934C11.8704 4.98029 11.662 5.37871 11.2352 5.64951C10.7915 5.9421 10.1261 6.0884 9.27246 6.0884L6.96359 6.0884L6.96359 8.16144C8.2743 8.48828 9.12123 8.64702 10.1261 8.89604C10.5059 8.92094 10.8352 8.97385 11.1175 9.05167C11.168 9.06723 11.2284 9.07657 11.2755 9.09214C11.9107 8.51006 12.8215 7.87508 13.8331 7.2432C13.823 7.24009 13.8129 7.23387 13.8028 7.23075C14.2767 6.95995 14.7203 6.60822 15.0497 6.19112C15.1068 6.11953 15.1673 6.04794 15.2177 5.97012C15.5303 5.46586 15.6916 4.93671 15.7387 4.32974L16.9553 5.45653C18.555 4.60677 19.9766 3.92198 20.5883 3.6325L16.6797 0Z" fill="url(#paint1_linear_1769_8685)"/>
<path d="M9.59489 12.1234H8.83199C7.83047 13.0759 7.47086 13.9661 7.2793 14.9995L16.4341 14.9995C16.4341 14.9995 15.5603 14.1684 13.9807 13.2097C13.07 12.6557 12.018 12.0643 11.5206 11.7686C11.0636 11.9989 10.425 12.1234 9.59489 12.1234Z" fill="url(#paint2_linear_1769_8685)"/>
<path d="M3.87837 12.1243L3.87837 7.944C2.29879 7.90976 0.880531 7.97513 0 8.03738L0 15.0004L7.2795 15.0004C7.6996 13.9515 8.26422 12.9679 8.8322 12.1243L3.87501 12.1243H3.87837Z" fill="url(#paint3_linear_1769_8685)"/>
<path d="M6.96387 8.13379L6.96387 8.88395L9.59874 8.88395C9.78694 8.88395 9.95834 8.89328 10.1264 8.90262C9.27946 8.54466 8.09646 8.2832 6.96387 8.13379Z" fill="url(#paint4_linear_1769_8685)"/>
<path d="M26.3086 0L24.2686 1.89873C26.9404 1.03341 29.7971 0.859099 30.9633 0.827973L30.9734 0.818635L31.8472 0L26.3086 0Z" fill="url(#paint5_linear_1769_8685)"/>
</g>
<defs>
<linearGradient id="paint0_linear_1769_8685" x1="8.32796" y1="12.8055" x2="25.6562" y2="5.87884" gradientUnits="userSpaceOnUse">
<stop stop-color="#F715FF"/>
<stop offset="1" stop-color="#00FFED"/>
</linearGradient>
<linearGradient id="paint1_linear_1769_8685" x1="-2.62815" y1="-5.60593" x2="9.23241" y2="6.53387" gradientUnits="userSpaceOnUse">
<stop stop-color="#FF3FDF"/>
<stop offset="1" stop-color="#652DB3"/>
</linearGradient>
<linearGradient id="paint2_linear_1769_8685" x1="11.6315" y1="10.8192" x2="12.4419" y2="28.44" gradientUnits="userSpaceOnUse">
<stop stop-color="#FF3FDF"/>
<stop offset="1" stop-color="#652DB3"/>
</linearGradient>
<linearGradient id="paint3_linear_1769_8685" x1="-7.93486" y1="19.9901" x2="26.5408" y2="-9.42881" gradientUnits="userSpaceOnUse">
<stop stop-color="#FF3FDF"/>
<stop offset="1" stop-color="#652D90"/>
</linearGradient>
<linearGradient id="paint4_linear_1769_8685" x1="-7.63211" y1="20.3573" x2="26.8563" y2="-9.07186" gradientUnits="userSpaceOnUse">
<stop stop-color="#FF3FDF"/>
<stop offset="1" stop-color="#652D90"/>
</linearGradient>
<linearGradient id="paint5_linear_1769_8685" x1="9.4474" y1="6.1133" x2="34.4284" y2="-2.53802" gradientUnits="userSpaceOnUse">
<stop stop-color="#F715FF"/>
<stop offset="1" stop-color="#00FFED"/>
</linearGradient>
<clipPath id="clip0_1769_8685">
<rect width="33" height="15" fill="white"/>
</clipPath>
</defs>
</svg>
