<svg width="292" height="49" viewBox="0 0 292 49" fill="none" xmlns="http://www.w3.org/2000/svg">
<g clip-path="url(#clip0_348_770)">
<path d="M90.9401 40.56C88.0301 38.95 85.7501 36.71 84.0901 33.84C82.4301 30.97 81.6001 27.72 81.6001 24.09C81.6001 20.46 82.4301 17.21 84.0901 14.34C85.7501 11.47 88.0301 9.23002 90.9401 7.62002C93.8401 6.01002 97.1201 5.21002 100.77 5.21002C103.96 5.21002 106.83 5.80002 109.38 6.97002C111.93 8.15002 114.06 9.84002 115.75 12.06L109.47 17.97C107.21 15.13 104.47 13.72 101.26 13.72C99.3701 13.72 97.6801 14.15 96.2001 15.02C94.7201 15.88 93.5801 17.1 92.7701 18.68C91.9601 20.25 91.5501 22.06 91.5501 24.1C91.5501 26.14 91.9601 27.95 92.7701 29.52C93.5801 31.1 94.7301 32.31 96.2001 33.18C97.6701 34.05 99.3601 34.48 101.26 34.48C104.47 34.48 107.21 33.06 109.47 30.22L115.75 36.13C114.05 38.34 111.93 40.04 109.38 41.21C106.83 42.38 103.95 42.97 100.77 42.97C97.1201 42.97 93.8401 42.16 90.9401 40.56Z" fill="#4D4D4F"/>
<path d="M119.97 6.47003H129.54V33.83H145.69V41.74H119.96V6.47003H119.97Z" fill="#4D4D4F"/>
<path d="M155.4 40.07C152.54 38.49 150.3 36.31 148.68 33.52C147.05 30.73 146.24 27.6 146.24 24.1C146.24 20.6 147.06 17.47 148.68 14.68C150.31 11.89 152.55 9.71001 155.4 8.13001C158.25 6.55001 161.47 5.76001 165.05 5.76001C168.63 5.76001 171.84 6.55001 174.7 8.13001C177.55 9.71001 179.79 11.89 181.42 14.68C183.04 17.47 183.86 20.61 183.86 24.1C183.86 27.59 183.04 30.73 181.42 33.52C179.79 36.31 177.55 38.49 174.7 40.07C171.85 41.65 168.63 42.44 165.05 42.44C161.47 42.44 158.25 41.65 155.4 40.07ZM169.69 32.91C171.08 32.07 172.17 30.89 172.98 29.36C173.78 27.83 174.19 26.08 174.19 24.1C174.19 22.12 173.78 20.37 172.98 18.84C172.17 17.31 171.08 16.13 169.69 15.28C168.3 14.44 166.75 14.03 165.05 14.03C163.35 14.03 161.79 14.45 160.4 15.28C159.02 16.12 157.92 17.31 157.11 18.84C156.3 20.37 155.9 22.12 155.9 24.1C155.9 26.08 156.31 27.84 157.11 29.36C157.92 30.89 159.01 32.07 160.4 32.91C161.79 33.75 163.33 34.17 165.05 34.17C166.77 34.17 168.3 33.75 169.69 32.91V32.91Z" fill="#4D4D4F"/>
<path d="M191.84 41.38C189.26 40.67 187.17 39.73 185.55 38.56L188.7 31.2C190.22 32.25 191.97 33.08 193.97 33.72C195.97 34.35 197.93 34.68 199.87 34.68C203.55 34.68 205.38 33.72 205.38 31.8C205.38 30.79 204.85 30.04 203.81 29.56C202.76 29.07 201.08 28.56 198.76 28.03C196.22 27.46 194.09 26.84 192.37 26.19C190.66 25.54 189.19 24.49 187.97 23.05C186.74 21.61 186.13 19.66 186.13 17.21C186.13 15.06 186.69 13.12 187.82 11.39C188.95 9.66003 190.63 8.29003 192.87 7.29003C195.11 6.28003 197.86 5.78003 201.12 5.78003C203.35 5.78003 205.53 6.04003 207.7 6.56003C209.86 7.08003 211.76 7.85003 213.41 8.85003L210.45 16.26C207.23 14.45 204.1 13.54 201.07 13.54C199.17 13.54 197.78 13.83 196.91 14.42C196.04 15.01 195.6 15.77 195.6 16.71C195.6 17.65 196.12 18.36 197.15 18.83C198.18 19.3 199.84 19.79 202.13 20.29C204.71 20.86 206.84 21.47 208.54 22.13C210.23 22.79 211.7 23.83 212.94 25.25C214.18 26.68 214.8 28.62 214.8 31.07C214.8 33.18 214.24 35.1 213.11 36.81C211.98 38.52 210.29 39.89 208.03 40.91C205.77 41.94 203.03 42.45 199.81 42.45C197.07 42.45 194.41 42.1 191.83 41.39L191.84 41.38Z" fill="#4D4D4F"/>
<path d="M250.45 6.47003V41.73H240.87V27.98H227.81V41.73H218.23V6.47003H227.81V19.72H240.87V6.47003H250.45Z" fill="#4D4D4F"/>
<path d="M278.94 34.88H264.63L261.97 41.73H252.2L267.15 6.46002H276.58L291.57 41.73H281.61L278.95 34.88H278.94ZM276.14 27.52L271.79 16.24L267.44 27.52H276.14V27.52Z" fill="#4D4D4F"/>
<path d="M32.6001 48.19H48.2001V29.46H37.4701V37.46H35.0801C34.1101 39.38 33.7001 41.54 33.2601 43.36C32.9101 44.91 32.6501 46.45 32.6101 48.19H32.6001Z" fill="url(#paint0_linear_348_770)"/>
<path d="M43.5301 6.17C40.2501 6.92 35.7601 8.22 32.1701 9.83C32.0501 9.7 31.9501 9.58 31.9101 9.5C31.2201 9.75 30.4801 10.46 29.8101 10.72H37.4601V18.72H48.1901V5.66C46.9401 5.56 45.5601 5.7 43.5201 6.17H43.5301Z" fill="url(#paint1_linear_348_770)"/>
<path d="M18.7402 0C19.0602 1.54 23.6502 9.06 25.8802 10.73H29.8002C30.4702 10.47 31.1402 10.21 31.8402 9.96C35.7602 8.57 40.0202 7.46 43.3902 6.68C45.4302 6.21 47.1202 5.87 48.1902 5.66V0H18.7402Z" fill="url(#paint2_linear_348_770)"/>
<path d="M24 7.43C22.13 4.21 20.31 1.78 18.74 0H0V28.64C0.23 28.68 0.39 29.1 0.62 29.14C1.56 29.32 2.5 29.53 3.42 29.78C3.54 29.81 3.66 29.84 3.77 29.87C3.86 29.9 3.94 29.93 4.03 29.96C4.12 29.98 4.21 30.02 4.3 30.04C4.64 30.14 5.06 29.87 5.4 29.98L6.62 29.39L10.72 24.05V10.73H25.88C25.29 9.61 24.66 8.51 23.99 7.43H24Z" fill="url(#paint3_linear_348_770)"/>
<path d="M10.7299 35.13V35.09C9.71988 34.54 8.65988 33.99 7.62988 33.48C8.57988 33.97 9.60988 34.51 10.7299 35.13Z" fill="url(#paint4_linear_348_770)"/>
<path d="M23.1298 43.15C20.6298 40.95 17.7198 38.68 14.6598 37.46H10.7298V35.13C9.83976 34.26 8.79977 33.61 7.84977 33.12C6.44977 32.42 4.90977 31.9 3.89977 31.42L0.00976562 35.76V48.19H27.1098C25.9698 46.32 24.6498 44.57 23.1298 43.15V43.15Z" fill="url(#paint5_linear_348_770)"/>
<path d="M14.6602 37.46C17.4002 39.17 20.2202 41.15 22.7202 43.35C24.2502 44.76 25.7602 46.38 27.1102 48.19H32.6002C33.1402 46.57 33.5702 44.93 33.9102 43.38C34.3502 41.56 34.7502 39.57 35.0702 37.46H14.6602V37.46Z" fill="url(#paint6_linear_348_770)"/>
<path d="M4.39002 29.65C4.30002 29.62 4.21002 29.59 4.12002 29.56C4.03002 29.54 3.94002 29.5 3.86002 29.48C3.74002 29.44 3.62002 29.42 3.51002 29.39C2.59002 29.14 1.65002 28.93 0.71002 28.76C0.48002 28.71 0.25002 28.68 0.0200195 28.64V36.02L3.91002 31.67L5.23002 30.2L5.42002 29.98C5.08002 29.87 4.74002 29.76 4.40002 29.66L4.39002 29.65Z" fill="url(#paint7_linear_348_770)"/>
<path d="M6.2099 29.08L5.4099 29.97L5.2199 30.19L3.8999 31.66C4.7499 32.05 6.0699 32.68 7.6299 33.48C8.6599 33.99 9.7199 34.55 10.7299 35.09V24.03L6.2099 29.08V29.08Z" fill="url(#paint8_linear_348_770)"/>
</g>
<defs>
<linearGradient id="paint0_linear_348_770" x1="-7.29991" y1="95.13" x2="74.8101" y2="2.91001" gradientUnits="userSpaceOnUse">
<stop stop-color="#1318CC"/>
<stop offset="0.21" stop-color="#0051FF"/>
<stop offset="0.41" stop-color="#0087FF"/>
<stop offset="0.6" stop-color="#00AFFF"/>
<stop offset="0.82" stop-color="#00C4FF"/>
<stop offset="1" stop-color="#22D6E1"/>
</linearGradient>
<linearGradient id="paint1_linear_348_770" x1="161.71" y1="-16.61" x2="35.9101" y2="14.94" gradientUnits="userSpaceOnUse">
<stop stop-color="#1318CC"/>
<stop offset="0.21" stop-color="#0051FF"/>
<stop offset="0.41" stop-color="#0087FF"/>
<stop offset="0.6" stop-color="#00AFFF"/>
<stop offset="0.82" stop-color="#00C4FF"/>
<stop offset="1" stop-color="#22D6E1"/>
</linearGradient>
<linearGradient id="paint2_linear_348_770" x1="-66.3998" y1="21.15" x2="70.7302" y2="-2.72" gradientUnits="userSpaceOnUse">
<stop stop-color="#1318CC"/>
<stop offset="0.21" stop-color="#0051FF"/>
<stop offset="0.41" stop-color="#0087FF"/>
<stop offset="0.6" stop-color="#00AFFF"/>
<stop offset="0.82" stop-color="#00C4FF"/>
<stop offset="1" stop-color="#22D6E1"/>
</linearGradient>
<linearGradient id="paint3_linear_348_770" x1="-11.14" y1="19.53" x2="140.55" y2="-30.23" gradientUnits="userSpaceOnUse">
<stop stop-color="#1318CC"/>
<stop offset="0.21" stop-color="#0051FF"/>
<stop offset="0.41" stop-color="#0087FF"/>
<stop offset="0.6" stop-color="#00AFFF"/>
<stop offset="0.82" stop-color="#00C4FF"/>
<stop offset="1" stop-color="#22D6E1"/>
</linearGradient>
<linearGradient id="paint4_linear_348_770" x1="7.62988" y1="34.3" x2="10.7299" y2="34.3" gradientUnits="userSpaceOnUse">
<stop stop-color="#1318CC"/>
<stop offset="0.21" stop-color="#0051FF"/>
<stop offset="0.41" stop-color="#0087FF"/>
<stop offset="0.6" stop-color="#00AFFF"/>
<stop offset="0.82" stop-color="#00C4FF"/>
<stop offset="1" stop-color="#22D6E1"/>
</linearGradient>
<linearGradient id="paint5_linear_348_770" x1="-53.4202" y1="11.98" x2="32.8698" y2="55.13" gradientUnits="userSpaceOnUse">
<stop stop-color="#1318CC"/>
<stop offset="0.21" stop-color="#0051FF"/>
<stop offset="0.41" stop-color="#0087FF"/>
<stop offset="0.6" stop-color="#00AFFF"/>
<stop offset="0.82" stop-color="#00C4FF"/>
<stop offset="1" stop-color="#22D6E1"/>
</linearGradient>
<linearGradient id="paint6_linear_348_770" x1="85.3302" y1="73.78" x2="-71.0698" y2="-15.48" gradientUnits="userSpaceOnUse">
<stop stop-color="#1318CC"/>
<stop offset="0.21" stop-color="#0051FF"/>
<stop offset="0.41" stop-color="#0087FF"/>
<stop offset="0.6" stop-color="#00AFFF"/>
<stop offset="0.82" stop-color="#00C4FF"/>
<stop offset="1" stop-color="#22D6E1"/>
</linearGradient>
<linearGradient id="paint7_linear_348_770" x1="-18.94" y1="35.18" x2="40.12" y2="26.28" gradientUnits="userSpaceOnUse">
<stop stop-color="#1318CC"/>
<stop offset="0.21" stop-color="#0051FF"/>
<stop offset="0.41" stop-color="#0087FF"/>
<stop offset="0.6" stop-color="#00AFFF"/>
<stop offset="0.82" stop-color="#00C4FF"/>
<stop offset="1" stop-color="#22D6E1"/>
</linearGradient>
<linearGradient id="paint8_linear_348_770" x1="-4.3701" y1="13.28" x2="48.6299" y2="79.38" gradientUnits="userSpaceOnUse">
<stop stop-color="#1318CC"/>
<stop offset="0.21" stop-color="#0051FF"/>
<stop offset="0.41" stop-color="#0087FF"/>
<stop offset="0.6" stop-color="#00AFFF"/>
<stop offset="0.82" stop-color="#00C4FF"/>
<stop offset="1" stop-color="#22D6E1"/>
</linearGradient>
<clipPath id="clip0_348_770">
<rect width="291.56" height="48.19" fill="white"/>
</clipPath>
</defs>
</svg>
