<svg width="85" height="85" viewBox="0 0 85 85" fill="none" xmlns="http://www.w3.org/2000/svg">
<g clip-path="url(#clip0_284_2237)">
<path d="M42.9615 14.6172C58.1121 14.6172 70.382 26.9048 70.382 42.0377C70.382 57.1705 58.0055 69.4582 42.9615 69.4582C27.9176 69.4582 15.541 57.2061 15.541 42.0377C15.541 26.8871 27.8287 14.6172 42.9615 14.6172Z" fill="white"/>
<path d="M79.5226 0.90625C81.5498 0.90625 83.1857 2.54223 83.1857 4.56943C83.1857 6.59663 81.5498 8.23261 79.5226 8.23261C77.4954 8.23261 75.8594 6.59663 75.8594 4.56943C75.8594 2.54223 77.4954 0.90625 79.5226 0.90625Z" fill="white"/>
<path d="M57.5803 35.6543C59.0918 35.6543 60.3188 36.8813 60.3188 38.3928C60.3188 39.9043 59.0918 41.1313 57.5803 41.1313C56.0688 41.1313 54.8418 39.9043 54.8418 38.3928C54.8418 36.8813 56.0688 35.6543 57.5803 35.6543Z" fill="#D2E5F0"/>
<path d="M51.1779 55.748C52.6895 55.748 53.9164 56.975 53.9164 58.4865C53.9164 59.998 52.6895 61.225 51.1779 61.225C49.6664 61.225 48.4395 59.998 48.4395 58.4865C48.4395 56.975 49.6664 55.748 51.1779 55.748Z" fill="#2F4382"/>
<path d="M32.8982 49.3648C35.4222 49.3648 37.4683 47.3187 37.4683 44.7947C37.4683 42.2707 35.4222 40.2246 32.8982 40.2246C30.3742 40.2246 28.3281 42.2707 28.3281 44.7947C28.3281 47.3187 30.3742 49.3648 32.8982 49.3648Z" fill="#D2E5F0"/>
<path d="M26.3189 20.2371C24.3806 21.7308 22.6379 23.4557 21.1442 25.4117L15.8095 20.077L15.4894 20.3971C14.867 21.0195 14.049 21.3396 13.231 21.3396C12.413 21.3396 11.595 21.0373 10.9726 20.3971C9.72787 19.1523 9.72787 17.1251 10.9726 15.8804L16.7875 10.0655C17.4099 9.44313 18.2279 9.12305 19.0459 9.12305C19.8639 9.12305 20.6818 9.44313 21.3042 10.0655C22.549 11.3103 22.549 13.3375 21.3042 14.5823L20.9841 14.9023L26.3189 20.2371Z" fill="#D2E5F0"/>
<path d="M8.23371 38.3915H15.7912C15.6312 39.5829 15.5423 40.8099 15.5423 42.0547C15.5423 43.2994 15.6312 44.5086 15.7912 45.7178H8.23371V46.1802C8.23371 47.0693 7.87806 47.8695 7.29124 48.4386C6.70442 49.0076 5.90421 49.381 5.03287 49.381C3.27241 49.381 1.83203 47.9584 1.83203 46.1802V37.9469C1.83203 37.0578 2.18768 36.2576 2.7745 35.6886C3.36132 35.1195 4.16153 34.7461 5.03287 34.7461C6.79333 34.7461 8.23371 36.1687 8.23371 37.9469V38.4093V38.3915Z" fill="#D2E5F0"/>
<path d="M49.3294 1.84872C49.8984 2.43554 50.2719 3.23575 50.2719 4.10709C50.2719 5.86755 48.8493 7.30792 47.071 7.30792H46.6087V14.8655C45.4173 14.7054 44.1903 14.6165 42.9455 14.6165C41.7007 14.6165 40.4915 14.7054 39.2823 14.8655V7.30792H38.82C37.9309 7.30792 37.1306 6.95228 36.5616 6.36545C35.9926 5.77863 35.6191 4.97843 35.6191 4.10709C35.6191 2.34663 37.0417 0.90625 38.82 0.90625H47.0532C47.9424 0.90625 48.7426 1.2619 49.3116 1.84872H49.3294Z" fill="#D2E5F0"/>
<path d="M74.9537 15.8617C75.576 16.4841 75.8961 17.3021 75.8961 18.1201C75.8961 18.9381 75.576 19.7561 74.9537 20.3784C73.7089 21.6232 71.6817 21.6232 70.4369 20.3784L70.1168 20.0584L64.7821 25.3931C63.2884 23.4548 61.5635 21.7121 59.6074 20.2184L64.9421 14.8837L64.6221 14.5636C63.9997 13.9412 63.6796 13.1232 63.6796 12.3052C63.6796 11.4872 63.9819 10.6692 64.6221 10.0469C65.8668 8.80209 67.894 8.80209 69.1388 10.0469L74.9537 15.8617Z" fill="#D2E5F0"/>
<path d="M84.094 37.9296V46.1628C84.094 47.0519 83.7383 47.8521 83.1515 48.4212C82.5647 48.9902 81.7645 49.3637 80.8931 49.3637C79.1327 49.3637 77.6923 47.9411 77.6923 46.1628V45.7005H70.1348C70.2948 44.5091 70.3837 43.2821 70.3837 42.0373C70.3837 40.7925 70.2948 39.5833 70.1348 38.3741H77.6923V37.9118C77.6923 37.0227 78.0479 36.2224 78.6348 35.6534C79.2216 35.0844 80.0218 34.7109 80.8931 34.7109C82.6536 34.7109 84.094 36.1335 84.094 37.9118V37.9296Z" fill="#D2E5F0"/>
<path d="M64.7645 58.6816L70.0993 64.0164L70.4193 63.6963C71.0417 63.0739 71.8597 62.7538 72.6777 62.7538C73.4957 62.7538 74.3137 63.0561 74.9361 63.6963C76.1809 64.9411 76.1809 66.9683 74.9361 68.213L69.1212 74.0279C68.4988 74.6503 67.6808 74.9703 66.8629 74.9703C66.0449 74.9703 65.2269 74.6503 64.6045 74.0279C63.3597 72.7831 63.3597 70.7559 64.6045 69.5111L64.9246 69.1911L59.5898 63.8563C61.5281 62.3626 63.2708 60.6377 64.7645 58.6816Z" fill="#D2E5F0"/>
<path d="M49.3292 77.709C49.8982 78.2958 50.2717 79.096 50.2717 79.9674C50.2717 81.7278 48.8491 83.1682 47.0708 83.1682H38.8376C37.9484 83.1682 37.1482 82.8125 36.5792 82.2257C36.0101 81.6389 35.6367 80.8387 35.6367 79.9674C35.6367 78.2069 37.0593 76.7665 38.8376 76.7665H39.2999V69.209C40.4913 69.369 41.7183 69.4579 42.9631 69.4579C44.2078 69.4579 45.4171 69.369 46.6263 69.209V76.7665H47.0886C47.9777 76.7665 48.7779 77.1222 49.347 77.709H49.3292Z" fill="#D2E5F0"/>
<path d="M21.1609 58.6816C22.6546 60.6199 24.3795 62.3626 26.3356 63.8563L21.0008 69.1911L21.3209 69.5111C21.9433 70.1335 22.2634 70.9515 22.2634 71.7695C22.2634 72.5875 21.9611 73.4055 21.3209 74.0279C20.0762 75.2726 18.049 75.2726 16.8042 74.0279L10.9893 68.213C10.367 67.5906 10.0469 66.7726 10.0469 65.9547C10.0469 65.1367 10.367 64.3187 10.9893 63.6963C12.2341 62.4515 14.2613 62.4515 15.5061 63.6963L15.8262 64.0164L21.1609 58.6816Z" fill="#D2E5F0"/>
<path d="M81.7989 24.6816C82.5636 24.6816 83.1682 25.304 83.1682 26.0509C83.1682 26.7977 82.5458 27.4201 81.7989 27.4201C81.0521 27.4201 80.4297 26.7977 80.4297 26.0509C80.4297 25.304 81.0521 24.6816 81.7989 24.6816Z" fill="#438FD2"/>
<path d="M79.9669 74.0273C80.7315 74.0273 81.3362 74.6497 81.3362 75.3966C81.3362 76.1435 80.7138 76.7658 79.9669 76.7658C79.22 76.7658 78.5977 76.1435 78.5977 75.3966C78.5977 74.6497 79.22 74.0273 79.9669 74.0273Z" fill="#438FD2"/>
<path d="M59.8731 77.6914C60.6378 77.6914 61.2424 78.3138 61.2424 79.0607C61.2424 79.8075 60.62 80.4299 59.8731 80.4299C59.1263 80.4299 58.5039 79.8075 58.5039 79.0607C58.5039 78.3138 59.1263 77.6914 59.8731 77.6914Z" fill="#438FD2"/>
<path d="M45.7014 37.4668C47.2129 37.4668 48.4399 38.6938 48.4399 40.2053C48.4399 41.7168 47.2129 42.9438 45.7014 42.9438C44.1899 42.9438 42.9629 41.7168 42.9629 40.2053C42.9629 38.6938 44.1899 37.4668 45.7014 37.4668Z" fill="#2F4382"/>
<path d="M28.7892 75.8594C29.5538 75.8594 30.1584 76.4818 30.1584 77.2286C30.1584 77.9755 29.536 78.5979 28.7892 78.5979C28.0423 78.5979 27.4199 77.9755 27.4199 77.2286C27.4199 76.4818 28.0423 75.8594 28.7892 75.8594Z" fill="#438FD2"/>
<path d="M26.5132 51.1777C27.5268 51.1777 28.3448 51.9957 28.3448 53.0093C28.3448 54.0229 27.5268 54.8409 26.5132 54.8409C25.4996 54.8409 24.6816 54.0229 24.6816 53.0093C24.6816 51.9957 25.4996 51.1777 26.5132 51.1777Z" fill="#2F4382"/>
<path d="M25.1271 1.83203C25.8917 1.83203 26.4963 2.45442 26.4963 3.20128C26.4963 3.94814 25.8739 4.57053 25.1271 4.57053C24.3802 4.57053 23.7578 3.94814 23.7578 3.20128C23.7578 2.45442 24.3802 1.83203 25.1271 1.83203Z" fill="#438FD2"/>
<path d="M10.5099 54.8418C11.2745 54.8418 11.8791 55.4642 11.8791 56.211C11.8791 56.9579 11.2567 57.5803 10.5099 57.5803C9.76301 57.5803 9.14062 56.9579 9.14062 56.211C9.14062 55.4642 9.76301 54.8418 10.5099 54.8418Z" fill="white"/>
<path d="M5.93956 28.3283C6.69577 28.3283 7.30881 27.7153 7.30881 26.9591C7.30881 26.2029 6.69577 25.5898 5.93956 25.5898C5.18335 25.5898 4.57031 26.2029 4.57031 26.9591C4.57031 27.7153 5.18335 28.3283 5.93956 28.3283Z" fill="#438FD2"/>
<path d="M46.6072 15.773C46.1093 15.773 45.7003 15.364 45.7003 14.8661V7.30858C45.7003 6.81067 46.1093 6.40167 46.6072 6.40167H47.0695C48.3321 6.40167 49.3457 5.37029 49.3457 4.12552C49.3457 3.52092 49.1145 2.9341 48.6699 2.50732C48.2432 2.08054 47.6563 1.83159 47.0517 1.83159H38.8185C37.5559 1.83159 36.5423 2.86297 36.5423 4.10774C36.5423 4.71234 36.7735 5.29916 37.2181 5.72594C37.6448 6.15272 38.2317 6.40167 38.8363 6.40167H39.2986C39.7965 6.40167 40.2055 6.81067 40.2055 7.30858V14.8661C40.2055 15.364 39.7965 15.773 39.2986 15.773C38.8007 15.773 38.3917 15.364 38.3917 14.8661V8.1977C37.467 8.091 36.6135 7.68201 35.9377 7.02406C35.1553 6.24163 34.7285 5.21025 34.7285 4.10774C34.7285 1.83159 36.5779 0 38.8363 0H47.0695C48.172 0 49.2034 0.426778 49.9858 1.20921C50.7683 1.99163 51.195 3.02301 51.195 4.12552C51.195 6.24163 49.5946 7.98431 47.5319 8.21548V14.8839C47.5319 15.3818 47.1229 15.7908 46.625 15.7908L46.6072 15.773Z" fill="#438FD2"/>
<path d="M64.7634 26.3188C64.5323 26.3188 64.3011 26.2299 64.1233 26.0521C63.7676 25.6965 63.7676 25.1096 64.1233 24.754L69.458 19.4193C69.6358 19.2414 69.867 19.1525 70.0982 19.1525C70.3293 19.1525 70.5783 19.2414 70.7383 19.4193L71.0584 19.7393C71.9475 20.6285 73.4057 20.6285 74.2948 19.7393C74.7216 19.3126 74.9705 18.7257 74.9705 18.1211C74.9705 17.5165 74.7394 16.9297 74.2948 16.5029L68.48 10.6881C67.5908 9.79897 66.1327 9.79897 65.2436 10.6881C64.8168 11.1149 64.5678 11.7017 64.5678 12.3063C64.5678 12.9109 64.799 13.4977 65.2436 13.9245L65.5636 14.2446C65.7415 14.4224 65.8304 14.6536 65.8304 14.8847C65.8304 15.1159 65.7415 15.3649 65.5636 15.5249L60.2289 20.8596C59.8733 21.2153 59.2864 21.2153 58.9308 20.8596C58.5752 20.504 58.5752 19.9172 58.9308 19.5615L63.6431 14.8492C63.0563 14.1201 62.7362 13.231 62.7362 12.2885C62.7362 11.186 63.163 10.1546 63.9454 9.37219C65.5459 7.77177 68.1599 7.77177 69.7603 9.37219L75.5752 15.187C76.3576 15.9695 76.7844 17.0009 76.7844 18.1034C76.7844 19.2059 76.3576 20.2373 75.5752 21.0019C74.0814 22.4956 71.7164 22.6023 70.0982 21.3042L65.3858 26.0165C65.208 26.1944 64.9768 26.2833 64.7457 26.2833L64.7634 26.3188Z" fill="#438FD2"/>
<path d="M80.8918 50.271C78.7757 50.271 77.033 48.6706 76.8019 46.6078H70.1335C69.6356 46.6078 69.2266 46.1988 69.2266 45.7009C69.2266 45.203 69.6356 44.794 70.1335 44.794H77.691C78.1889 44.794 78.5979 45.203 78.5979 45.7009V46.1633C78.5979 47.4258 79.6293 48.4394 80.8741 48.4394C81.4787 48.4394 82.0655 48.2082 82.4923 47.7637C82.919 47.3369 83.168 46.7501 83.168 46.1455V37.9122C83.168 36.6497 82.1366 35.6361 80.8918 35.6361C80.2872 35.6361 79.7004 35.8672 79.2736 36.3118C78.8469 36.7386 78.5979 37.3254 78.5979 37.93V38.3923C78.5979 38.8903 78.1889 39.2993 77.691 39.2993H70.1335C69.6356 39.2993 69.2266 38.8903 69.2266 38.3923C69.2266 37.8944 69.6356 37.4854 70.1335 37.4854H76.8019C76.9086 36.5608 77.3176 35.7072 77.9755 35.0315C78.7579 34.249 79.7893 33.8223 80.8918 33.8223C83.168 33.8223 84.9996 35.6716 84.9996 37.93V46.1633C84.9996 47.2658 84.5728 48.2972 83.7904 49.0796C83.0079 49.862 81.9766 50.2888 80.8741 50.2888L80.8918 50.271Z" fill="#438FD2"/>
<path d="M66.8618 75.8785C65.7592 75.8785 64.7279 75.4517 63.9454 74.6693C62.4517 73.1756 62.345 70.8105 63.6431 69.1923L58.9308 64.48C58.5752 64.1243 58.5752 63.5375 58.9308 63.1819C59.2864 62.8262 59.8733 62.8262 60.2289 63.1819L65.5636 68.5166C65.7415 68.6944 65.8304 68.9256 65.8304 69.1568C65.8304 69.3879 65.7415 69.6369 65.5636 69.7969L65.2436 70.117C64.3544 71.0061 64.3544 72.4643 65.2436 73.3534C65.6703 73.7802 66.2572 74.0291 66.8618 74.0291C67.4664 74.0291 68.0532 73.798 68.48 73.3534L74.2948 67.5386C74.7216 67.1118 74.9705 66.525 74.9705 65.9204C74.9705 65.3158 74.7394 64.7289 74.2948 64.3022C73.868 63.8754 73.2812 63.6264 72.6766 63.6264C72.072 63.6264 71.4852 63.8576 71.0584 64.3022L70.7383 64.6222C70.5605 64.8001 70.3293 64.889 70.0982 64.889C69.8492 64.889 69.618 64.8001 69.458 64.6222L64.1233 59.2875C63.7676 58.9319 63.7676 58.345 64.1233 57.9894C64.4789 57.6337 65.0657 57.6337 65.4214 57.9894L70.1337 62.7017C70.8628 62.1149 71.7519 61.7948 72.6944 61.7948C73.7969 61.7948 74.8283 62.2216 75.6107 63.004C76.3931 63.7865 76.8199 64.8178 76.8199 65.9204C76.8199 67.0229 76.3931 68.0542 75.6107 68.8367L69.7959 74.6515C69.0134 75.434 67.9821 75.8607 66.8973 75.8607L66.8618 75.8785Z" fill="#438FD2"/>
<path d="M47.0697 84.0935H38.8365C37.7339 84.0935 36.7026 83.6668 35.9201 82.8843C35.1377 82.1019 34.7109 81.0705 34.7109 79.968C34.7109 77.8519 36.3114 76.1092 38.3741 75.878V69.2096C38.3741 68.7117 38.7831 68.3027 39.281 68.3027C39.7789 68.3027 40.1879 68.7117 40.1879 69.2096V76.7672C40.1879 77.2651 39.7789 77.6741 39.281 77.6741H38.8187C37.5561 77.6741 36.5425 78.7055 36.5425 79.9502C36.5425 80.5548 36.7737 81.1416 37.2183 81.5684C37.645 81.9952 38.2319 82.2442 38.8365 82.2442H47.0697C48.3323 82.2442 49.3459 81.2128 49.3459 79.968C49.3459 79.3634 49.1147 78.7766 48.6701 78.3498C48.2434 77.923 47.6565 77.6741 47.0519 77.6741H46.5896C46.0917 77.6741 45.6827 77.2651 45.6827 76.7672V69.2096C45.6827 68.7117 46.0917 68.3027 46.5896 68.3027C47.0875 68.3027 47.4965 68.7117 47.4965 69.2096V75.878C48.4212 75.9847 49.2747 76.3937 49.9505 77.0517C50.7329 77.8341 51.1597 78.8655 51.1597 79.968C51.1597 82.2442 49.3103 84.0757 47.0519 84.0757L47.0697 84.0935Z" fill="#438FD2"/>
<path d="M19.0458 75.8783C17.9967 75.8783 16.9475 75.4693 16.1295 74.6691L10.3147 68.8543C9.53225 68.0718 9.10547 67.0404 9.10547 65.9379C9.10547 64.8354 9.53225 63.804 10.3147 63.0216C11.8084 61.5279 14.1735 61.4212 15.7917 62.7193L20.504 58.007C20.8597 57.6513 21.4465 57.6513 21.8021 58.007C22.1578 58.3626 22.1578 58.9494 21.8021 59.3051L16.4674 64.6398C16.2896 64.8176 16.0584 64.9066 15.8272 64.9066C15.5961 64.9066 15.3471 64.8176 15.1871 64.6398L14.867 64.3197C13.9779 63.4306 12.5197 63.4306 11.6306 64.3197C11.2038 64.7465 10.9548 65.3333 10.9548 65.9379C10.9548 66.5425 11.186 67.1294 11.6306 67.5561L17.4454 73.371C18.3345 74.2601 19.7927 74.2601 20.6818 73.371C21.1086 72.9442 21.3576 72.3574 21.3576 71.7528C21.3576 71.1482 21.1264 70.5614 20.6818 70.1346L20.3617 69.8145C20.1839 69.6367 20.095 69.4055 20.095 69.1743C20.095 68.9432 20.1839 68.6942 20.3617 68.5342L25.6965 63.1994C26.0521 62.8438 26.6389 62.8438 26.9946 63.1994C27.3502 63.5551 27.3502 64.1419 26.9946 64.4976L22.2822 69.2099C22.8691 69.939 23.1892 70.8281 23.1892 71.7706C23.1892 72.8731 22.7624 73.9045 21.9799 74.6869C21.1797 75.4871 20.1306 75.8961 19.0636 75.8961L19.0458 75.8783Z" fill="#438FD2"/>
<path d="M5.03157 50.2712C2.75542 50.2712 0.923828 48.4218 0.923828 46.1635V37.9302C0.923828 36.8277 1.35061 35.7963 2.13303 35.0139C2.91546 34.2315 3.94684 33.8047 5.04935 33.8047C7.16546 33.8047 8.90814 35.4051 9.13931 37.4679H15.8077C16.3056 37.4679 16.7146 37.8769 16.7146 38.3748C16.7146 38.8727 16.3056 39.2817 15.8077 39.2817H8.25019C7.75228 39.2817 7.34328 38.8727 7.34328 38.3748V37.9124C7.34328 36.6499 6.3119 35.6363 5.06713 35.6363C4.46253 35.6363 3.87571 35.8674 3.44893 36.312C3.02215 36.7388 2.7732 37.3256 2.7732 37.9302V46.1635C2.7732 47.426 3.80458 48.4574 5.04935 48.4574C5.65395 48.4574 6.24077 48.2262 6.66755 47.7817C7.09433 47.3549 7.34328 46.7681 7.34328 46.1635V45.7011C7.34328 45.2032 7.75228 44.7942 8.25019 44.7942H15.8077C16.3056 44.7942 16.7146 45.2032 16.7146 45.7011C16.7146 46.199 16.3056 46.608 15.8077 46.608H9.13931C9.03261 47.5327 8.62362 48.3863 7.96567 49.062C7.18324 49.8444 6.15186 50.2712 5.04935 50.2712H5.03157Z" fill="#438FD2"/>
<path d="M21.1607 26.3176C20.9295 26.3176 20.6983 26.2286 20.5205 26.0508L15.8082 21.3385C15.0791 21.9253 14.19 22.2454 13.2475 22.2454C12.145 22.2454 11.1136 21.8186 10.3312 21.0362C8.73075 19.4358 8.73075 16.8217 10.3312 15.2213L16.146 9.40647C16.9285 8.62404 17.9598 8.19727 19.0623 8.19727C20.1649 8.19727 21.1962 8.62404 21.9609 9.40647C23.4546 10.9002 23.5613 13.2653 22.2632 14.8835L26.9755 19.5958C27.3312 19.9515 27.3312 20.5383 26.9755 20.8939C26.6199 21.2496 26.0331 21.2496 25.6774 20.8939L20.3427 15.5592C20.1649 15.3814 20.0759 15.1502 20.0759 14.919C20.0759 14.6879 20.1649 14.4389 20.3427 14.2789L20.6628 13.9588C21.5519 13.0697 21.5519 11.6115 20.6628 10.7224C20.236 10.2956 19.6492 10.0466 19.0446 10.0466C18.44 10.0466 17.8531 10.2778 17.4264 10.7224L11.6115 16.5372C10.7224 17.4263 10.7224 18.8845 11.6115 19.7736C12.0383 20.2004 12.6251 20.4494 13.2297 20.4494C13.8343 20.4494 14.4211 20.2182 14.8479 19.7736L15.168 19.4535C15.3458 19.2757 15.577 19.1868 15.8082 19.1868C16.0571 19.1868 16.2883 19.2757 16.4483 19.4535L21.7831 24.7883C22.1387 25.1439 22.1387 25.7307 21.7831 26.0864C21.6052 26.2642 21.3741 26.3531 21.1429 26.3531L21.1607 26.3176Z" fill="#438FD2"/>
<path d="M51.1769 62.1486C49.1674 62.1486 47.5137 60.5126 47.5137 58.4854C47.5137 56.4582 49.1497 54.8223 51.1769 54.8223C53.2041 54.8223 54.84 56.4582 54.84 58.4854C54.84 60.5126 53.2041 62.1486 51.1769 62.1486ZM51.1769 56.6716C50.1633 56.6716 49.3453 57.4896 49.3453 58.5032C49.3453 59.5168 50.1633 60.3348 51.1769 60.3348C52.1905 60.3348 53.0084 59.5168 53.0084 58.5032C53.0084 57.4896 52.1905 56.6716 51.1769 56.6716Z" fill="#2F4382"/>
<path d="M32.8969 50.2704C29.8739 50.2704 27.4199 47.8164 27.4199 44.7934C27.4199 41.7704 29.8739 39.3164 32.8969 39.3164C35.9199 39.3164 38.3739 41.7704 38.3739 44.7934C38.3739 47.8164 35.9199 50.2704 32.8969 50.2704ZM32.8969 41.1302C30.8875 41.1302 29.2337 42.7662 29.2337 44.7934C29.2337 46.8206 30.8697 48.4566 32.8969 48.4566C34.9241 48.4566 36.5601 46.8206 36.5601 44.7934C36.5601 42.784 34.9241 41.1302 32.8969 41.1302Z" fill="#438FD2"/>
<path d="M57.5792 42.0373C55.5698 42.0373 53.916 40.4013 53.916 38.3741C53.916 36.3469 55.552 34.7109 57.5792 34.7109C59.6064 34.7109 61.2424 36.3469 61.2424 38.3741C61.2424 40.4013 59.6064 42.0373 57.5792 42.0373ZM57.5792 36.5603C56.5656 36.5603 55.7476 37.3783 55.7476 38.3919C55.7476 39.4055 56.5656 40.2235 57.5792 40.2235C58.5928 40.2235 59.4108 39.4055 59.4108 38.3919C59.4108 37.3783 58.5928 36.5603 57.5792 36.5603Z" fill="#438FD2"/>
<path d="M32.0269 32.9325C31.1911 32.9325 30.4442 32.5591 29.9463 31.8833L29.2706 30.9764C29.0394 30.6564 28.7015 30.6564 28.5771 30.6741C28.4526 30.6741 28.1147 30.7453 27.9369 31.1009C27.7057 31.5455 27.1545 31.7411 26.7099 31.5099C26.2653 31.2787 26.0697 30.7275 26.3009 30.2829C26.7099 29.4649 27.4923 28.9315 28.3992 28.8425C29.3061 28.7536 30.1775 29.1448 30.7287 29.8739L31.4045 30.7808C31.5467 30.9764 31.7779 31.1009 32.0269 31.1009C32.2758 31.1009 32.507 30.9942 32.6492 30.7808L33.325 29.8739C33.8762 29.1448 34.7476 28.7536 35.6545 28.8425C36.5614 28.9315 37.3438 29.4649 37.7528 30.2829C37.8951 30.5497 38.144 30.7097 38.4641 30.7097C38.6063 30.7097 38.8909 30.6741 39.0865 30.3896L39.4777 29.8739C40.0289 29.1448 40.8825 28.7536 41.8072 28.8425C42.7141 28.9315 43.4965 29.4649 43.9055 30.2829C44.0478 30.5497 44.2967 30.7097 44.6168 30.7097C44.7591 30.7097 45.0436 30.6741 45.2392 30.3896L45.6304 29.8739C46.1817 29.1448 47.053 28.7536 47.9421 28.8425C48.849 28.9315 49.6315 29.4649 50.0404 30.2829C50.1827 30.5497 50.4317 30.7097 50.7517 30.7097C50.894 30.7097 51.1785 30.6741 51.3741 30.3896C51.6764 29.9806 52.2455 29.9095 52.6545 30.2118C53.0635 30.5141 53.1346 31.0831 52.8323 31.4921C52.3344 32.1501 51.5697 32.5413 50.7517 32.5413C49.7559 32.5413 48.849 31.99 48.4045 31.1009C48.2266 30.7453 47.9066 30.6741 47.7821 30.6741C47.6576 30.6741 47.3197 30.6741 47.0886 30.9764L46.6974 31.4921C46.1994 32.1501 45.4348 32.5413 44.6168 32.5413C43.621 32.5413 42.7319 31.99 42.2873 31.1009C42.1095 30.7453 41.7894 30.6919 41.6471 30.6741C41.5227 30.6741 41.1848 30.6741 40.9536 30.9764L40.5624 31.4921C40.0645 32.1501 39.2999 32.5413 38.4819 32.5413C37.4861 32.5413 36.5792 31.99 36.1346 31.1009C35.9568 30.7453 35.6367 30.6919 35.5122 30.6741C35.3877 30.6741 35.0499 30.6741 34.8187 30.9764L34.143 31.8833C33.6451 32.5413 32.8804 32.9325 32.0624 32.9325H32.0269Z" fill="#2F4382"/>
<path d="M34.7282 57.1877C34.2659 57.1877 33.8746 56.832 33.8213 56.3697C33.7324 55.605 34.0525 54.8759 34.6571 54.4136C35.2617 53.9513 36.0441 53.8268 36.7554 54.0935L37.5378 54.3958C37.6801 54.4492 37.7868 54.3958 37.8401 54.3603C37.8935 54.3247 37.9824 54.2358 38.0002 54.0935L38.0535 53.2577C38.1069 52.4931 38.5514 51.8352 39.2094 51.4795C39.8851 51.1239 40.6675 51.1416 41.3255 51.5329C41.3788 51.5684 41.45 51.5862 41.5033 51.5862C41.6634 51.5862 41.8412 51.4795 41.859 51.2661L41.8945 50.786C41.9479 50.0213 42.3924 49.3634 43.0682 49.0077C43.7439 48.6521 44.5263 48.6699 45.1843 49.0611C45.2376 49.0967 45.291 49.1144 45.3621 49.1144C45.5221 49.1144 45.7 49.0077 45.7177 48.7944L45.7533 48.3142C45.8067 47.5496 46.2512 46.8916 46.9092 46.536C47.5849 46.1803 48.3673 46.1981 49.0253 46.5893C49.0786 46.6249 49.1498 46.6427 49.2031 46.6427C49.3631 46.6427 49.541 46.536 49.5588 46.3226C49.5943 45.8247 50.0389 45.4335 50.5368 45.469C51.0347 45.5046 51.4259 45.9492 51.3726 46.4471C51.2836 47.5852 50.3412 48.4743 49.2031 48.4743C48.8119 48.4743 48.4385 48.3676 48.1006 48.172C47.9583 48.0831 47.8161 48.1364 47.7627 48.172C47.6916 48.2075 47.5849 48.2787 47.5849 48.4565L47.5493 48.9366C47.4604 50.0747 46.518 50.9638 45.3799 50.9638C44.9887 50.9638 44.6152 50.8571 44.2774 50.6615C44.1351 50.5726 43.9928 50.6259 43.9395 50.6615C43.8684 50.6971 43.7617 50.7682 43.7439 50.946L43.7083 51.4262C43.6194 52.5642 42.677 53.4534 41.5389 53.4534C41.1477 53.4534 40.7742 53.3467 40.4364 53.1511C40.2941 53.0621 40.1696 53.1155 40.0985 53.1511C40.0274 53.1866 39.9207 53.2577 39.9207 53.4356L39.8673 54.2713C39.814 54.9649 39.4583 55.5695 38.8715 55.9429C38.2847 56.3163 37.5912 56.3875 36.9332 56.1563L36.1508 55.854C35.9908 55.8006 35.8663 55.854 35.8129 55.9073C35.7596 55.9607 35.6707 56.0496 35.6885 56.2274C35.7418 56.7253 35.3862 57.1877 34.8705 57.241C34.8349 57.241 34.7993 57.241 34.7638 57.241L34.7282 57.1877Z" fill="#438FD2"/>
<path d="M42.962 70.3835C41.6994 70.3835 40.4191 70.2945 39.1921 70.1345C34.3375 69.4943 29.6963 67.5738 25.7841 64.5864C23.7747 63.0571 21.9787 61.2611 20.4494 59.2517C17.462 55.3395 15.5415 50.6983 14.9013 45.8437C14.7413 44.5989 14.6523 43.3364 14.6523 42.0738C14.6523 40.8113 14.7413 39.5309 14.9013 38.304C15.5415 33.4494 17.462 28.8081 20.4494 24.896C21.9787 22.8866 23.7747 21.0906 25.7841 19.5613C29.6963 16.5738 34.3375 14.6533 39.1921 14.0132C41.6639 13.6753 44.2601 13.6753 46.7496 14.0132C51.6042 14.6533 56.2454 16.5738 60.1576 19.5613C62.167 21.0906 63.963 22.8866 65.4923 24.896C68.4798 28.8081 70.4003 33.4494 71.0404 38.304C71.2005 39.5487 71.2894 40.8113 71.2894 42.0738C71.2894 43.3364 71.2005 44.6167 71.0404 45.8437C70.4003 50.6983 68.4798 55.3395 65.4923 59.2517C63.963 61.2611 62.167 63.0571 60.1576 64.5864C56.2454 67.5738 51.6042 69.4943 46.7496 70.1345C45.5049 70.2945 44.2423 70.3835 42.9798 70.3835H42.962ZM42.962 15.5425C41.7705 15.5425 40.5791 15.6136 39.4233 15.7736C34.871 16.3782 30.5321 18.1743 26.8867 20.9661C25.0017 22.4065 23.3302 24.078 21.8898 25.963C19.098 29.6261 17.3019 33.965 16.6973 38.4996C16.5373 39.6554 16.4662 40.8468 16.4662 42.0383C16.4662 43.2297 16.5373 44.4211 16.6973 45.577C17.3019 50.1293 19.098 54.4682 21.8898 58.1136C23.3302 59.9985 25.0017 61.6701 26.8867 63.1104C30.5498 65.9023 34.8887 67.6983 39.4233 68.3029C41.735 68.623 44.1712 68.623 46.5007 68.3029C51.053 67.6983 55.3919 65.9023 59.0373 63.1104C60.9222 61.6701 62.5938 59.9985 64.0341 58.1136C66.826 54.4504 68.622 50.1115 69.2266 45.577C69.3867 44.4211 69.4578 43.2297 69.4578 42.0383C69.4578 40.8468 69.3867 39.6554 69.2266 38.4996C68.622 33.9473 66.826 29.6084 64.0341 25.963C62.5938 24.078 60.9222 22.4065 59.0373 20.9661C55.3741 18.1743 51.0352 16.3782 46.5007 15.7736C45.3448 15.6136 44.1534 15.5425 42.962 15.5425Z" fill="#438FD2"/>
</g>
<defs>
<clipPath id="clip0_284_2237">
<rect width="85" height="85" fill="white"/>
</clipPath>
</defs>
</svg>
