<svg width="91" height="85" viewBox="0 0 91 85" fill="none" xmlns="http://www.w3.org/2000/svg">
<g clip-path="url(#clip0_284_1850)">
<path d="M52.0625 41.582L69.7189 59.3132" stroke="#A9D1EA" stroke-width="2" stroke-linecap="round" stroke-linejoin="round"/>
<path d="M66.5168 62.5141L48.8604 44.7956C47.096 43.025 47.096 40.1541 48.8604 38.3709C50.6248 36.6003 53.4856 36.6003 55.2626 38.3709L72.919 56.0894C74.6834 57.86 74.6834 60.7309 72.919 62.5141C72.0368 63.3994 70.8774 63.8421 69.7179 63.8421C68.5585 63.8421 67.399 63.3994 66.5168 62.5141Z" fill="white" stroke="#A9D1EA" stroke-width="2" stroke-linecap="round" stroke-linejoin="round"/>
<path d="M56.0195 56.3038L77.0283 77.3864C79.9773 80.3585 84.779 80.3585 87.7406 77.3864C90.7023 74.4144 90.7023 69.6085 87.7406 66.6364L66.7445 45.5664L56.0195 56.3038Z" fill="#D2E5F0" stroke="#438FD2" stroke-width="2"/>
<path d="M54.0027 8.37064C63.6816 18.0836 63.6816 33.8292 54.0027 43.5421C44.3238 53.2551 28.6334 53.2551 18.9545 43.5421C9.27559 33.8292 9.27559 18.0836 18.9545 8.37064C28.6334 -1.3423 44.3238 -1.3423 54.0027 8.37064Z" fill="white" stroke="#2F4382" stroke-width="2"/>
<path d="M36.4855 45.1495C31.3814 45.1495 26.5672 43.1512 22.9628 39.5215C15.502 32.0344 15.502 19.868 22.9628 12.3809C26.5798 8.76386 31.3814 6.76562 36.4855 6.76562C41.5897 6.76562 46.4039 8.76386 50.0083 12.3809C53.6253 16.0106 55.6165 20.8292 55.6165 25.9512C55.6165 31.0733 53.6253 35.8918 50.0083 39.5215C46.3913 43.1512 41.5897 45.1495 36.4855 45.1495Z" stroke="#438FD2" stroke-width="2"/>
<path d="M36.485 42.6189C32.0488 42.6189 27.8773 40.8863 24.7392 37.7371C18.2614 31.2365 18.2614 20.6636 24.7392 14.163C27.8773 11.0139 32.0362 9.28125 36.4724 9.28125C40.9085 9.28125 45.08 11.0139 48.2055 14.163C51.3436 17.3121 53.0702 21.4857 53.0702 25.9501C53.0702 30.4145 51.3436 34.588 48.2055 37.7245C45.0674 40.8736 40.8959 42.6063 36.4598 42.6063L36.485 42.6189Z" stroke="white" stroke-width="2"/>
<path d="M31.2539 64.6504H37.0134" stroke="#848EAE" stroke-width="2"/>
<path d="M31.2539 71.582H37.0134" stroke="#848EAE" stroke-width="2"/>
<path d="M31.2539 78.5117H49.6665" stroke="#848EAE" stroke-width="2"/>
<path d="M6.30773 69.8227C6.30773 64.2324 10.5387 59.7051 15.7563 59.7051C20.9739 59.7051 25.2049 64.2324 25.2049 69.8227C25.2049 75.4131 20.9739 79.9404 15.7563 79.9404C10.5387 79.9404 6.30078 75.4131 6.30078 69.8227H6.30773Z" fill="#2F4382" stroke="#2F4382" stroke-width="2"/>
<path d="M15.1228 83.736V69.8242H1.25977C1.25977 77.5089 7.46504 83.736 15.1228 83.736Z" fill="#D2E5F0" stroke="#438FD2" stroke-width="2"/>
<path d="M45.3707 24.2949H41.5898V33.1479H45.3707V24.2949Z" fill="#D2E5F0" stroke="#438FD2" stroke-width="2"/>
<path d="M37.8082 16.7051H34.0273V33.1463H37.8082V16.7051Z" fill="#D2E5F0" stroke="#438FD2" stroke-width="2"/>
<path d="M30.2457 20.5H26.4648V33.1471H30.2457V20.5Z" fill="#D2E5F0" stroke="#438FD2" stroke-width="2"/>
<path d="M69.1055 21.0703H71.8234" stroke="#2F4382" stroke-width="3"/>
<path d="M74.4219 21.0703H77.1305" stroke="#2F4382" stroke-width="3"/>
<path d="M79.7363 21.0703H82.445" stroke="#2F4382" stroke-width="3"/>
</g>
<defs>
<clipPath id="clip0_284_1850">
<rect width="91" height="85" fill="white"/>
</clipPath>
</defs>
</svg>
