<svg width="364" height="364" viewBox="0 0 364 364" fill="none" xmlns="http://www.w3.org/2000/svg">
<g clip-path="url(#clip0_267_1433)">
<path d="M363.19 181.59C363.19 186.3 363.01 190.95 362.66 195.56C362.15 202.17 361.3 208.67 360.1 215.06C359.58 217.9 358.99 220.71 358.33 223.5C357.55 226.77 356.69 230.02 355.74 233.22C354.86 236.22 353.89 239.19 352.85 242.12C352.39 243.45 351.91 244.75 351.41 246.05C350.73 247.86 350.01 249.66 349.27 251.44C348.1 254.23 346.87 256.99 345.57 259.71C345.34 260.19 345.11 260.67 344.87 261.14C342.25 266.54 339.36 271.79 336.21 276.86C335.7 277.71 335.17 278.55 334.64 279.38C328.67 288.7 321.88 297.44 314.35 305.49C313.78 306.1 313.21 306.71 312.63 307.31C302.92 317.42 292.06 326.42 280.26 334.06C279.64 334.47 279.03 334.86 278.41 335.25C275.61 337.02 272.76 338.71 269.86 340.33C263.55 343.84 257.01 346.99 250.26 349.74C244.22 352.21 238.02 354.37 231.67 356.19C225.74 357.89 219.68 359.3 213.51 360.39C203.15 362.23 192.48 363.19 181.59 363.19C169.61 363.19 157.91 362.03 146.59 359.81C140.42 358.61 134.36 357.1 128.43 355.28C123.15 353.67 117.98 351.83 112.93 349.75C106.18 347 99.64 343.85 93.33 340.33C90.43 338.71 87.58 337.02 84.78 335.25C84.16 334.86 83.54 334.47 82.93 334.06C71.12 326.42 60.26 317.42 50.56 307.31C50.09 306.82 49.62 306.33 49.15 305.83C45.75 302.21 42.5 298.44 39.4 294.55C35.53 289.69 31.91 284.63 28.55 279.38C28.39 279.13 28.22 278.87 28.07 278.61C24.5 272.98 21.24 267.16 18.32 261.14C16.75 257.96 15.29 254.73 13.92 251.44C13.23 249.8 12.57 248.14 11.95 246.47C11.39 245.03 10.86 243.59 10.35 242.13C9.3 239.19 8.34 236.22 7.45 233.22C6.5 230.02 5.64 226.77 4.86 223.5C4.2 220.71 3.61 217.9 3.09 215.06C1.89 208.67 1.04 202.17 0.53 195.56C0.18 190.95 0 186.3 0 181.6C0 170.16 1.06 158.97 3.08 148.13C3.85 143.99 4.76 139.91 5.81 135.88C5.85 135.68 5.9 135.49 5.96 135.3C5.98 135.2 6.01 135.1 6.04 135C6.48 133.31 6.95 131.64 7.45 129.97C8.31 127.06 9.24 124.18 10.25 121.33C10.28 121.23 10.31 121.16 10.34 121.07C11.97 116.44 13.78 111.91 15.77 107.47C16.22 106.46 16.67 105.48 17.13 104.5C17.47 103.78 17.82 103.05 18.17 102.33C18.22 102.24 18.26 102.14 18.31 102.05C18.61 101.41 18.93 100.79 19.25 100.16C19.87 98.91 20.51 97.68 21.16 96.45C21.34 96.1 21.53 95.75 21.72 95.4C22.69 93.6 23.69 91.83 24.73 90.07C27.42 85.46 30.32 80.97 33.4 76.63C33.54 76.42 33.69 76.22 33.84 76.01C33.93 75.87 34.03 75.74 34.13 75.6C37.78 70.53 41.69 65.65 45.85 60.99C56.7 48.78 69.17 38.04 82.93 29.12C86.32 26.92 89.79 24.83 93.33 22.86C99.64 19.34 106.18 16.19 112.93 13.43C116.75 11.87 120.63 10.44 124.58 9.13C124.65 9.11 124.72 9.08 124.79 9.06C124.84 9.04 124.9 9.02 124.96 9.01C126.11 8.63 127.27 8.26 128.43 7.91C134.36 6.09 140.42 4.57 146.59 3.38C157.21 1.3 168.16 0.15 179.35 0.01C180.1 0 180.84 0 181.59 0C182.34 0 183.11 0 183.87 0.01C189.18 0.08 194.43 0.37 199.63 0.89C204.31 1.35 208.94 1.99 213.51 2.8C219.68 3.89 225.73 5.29 231.67 7C238.02 8.81 244.22 10.97 250.26 13.44C257.01 16.19 263.55 19.35 269.86 22.87C272.76 24.47 275.61 26.17 278.41 27.94C279.03 28.33 279.64 28.72 280.26 29.13C292.06 36.77 302.92 45.76 312.62 55.87C313.58 56.87 314.53 57.88 315.46 58.9C318.82 62.56 322.02 66.35 325.07 70.27C328.46 74.63 331.66 79.15 334.64 83.81C335.17 84.64 335.7 85.48 336.22 86.33C339.36 91.4 342.25 96.65 344.89 102.05C346.44 105.23 347.9 108.47 349.27 111.75C350.22 114.04 351.13 116.35 351.99 118.68C352.28 119.47 352.57 120.26 352.85 121.06C353.9 124.01 354.86 126.96 355.74 129.97C356.7 133.17 357.56 136.41 358.33 139.69C358.99 142.48 359.58 145.29 360.1 148.13C361.3 154.52 362.16 161.02 362.66 167.63C363.01 172.24 363.19 176.89 363.19 181.59Z" fill="white"/>
<path d="M234.44 194.439C234.44 194.629 234.43 194.829 234.41 195.019C234.41 195.179 234.4 195.329 234.39 195.479C234.38 195.629 234.37 195.779 234.34 195.919C234.33 196.099 234.31 196.299 234.28 196.479C234.26 196.669 234.23 196.859 234.21 197.049C234.2 197.159 234.18 197.279 234.16 197.389C234.14 197.529 234.11 197.659 234.09 197.799C234.06 197.989 234.02 198.199 233.99 198.389C233.97 198.539 233.93 198.679 233.9 198.819C233.88 198.969 233.84 199.119 233.81 199.279C233.78 199.449 233.73 199.619 233.7 199.789C233.54 200.449 233.35 201.109 233.14 201.759C233 202.189 232.84 202.629 232.68 203.049C232.52 203.489 232.34 203.929 232.16 204.369C244.61 176.739 232.58 144.159 205.04 131.309C177.49 118.469 144.8 130.189 131.64 157.489C131.54 157.709 131.43 157.909 131.33 158.129C131.23 158.349 131.14 158.559 131.03 158.789C130.84 159.219 130.67 159.659 130.49 160.099C130.33 160.519 130.18 160.959 130.05 161.389C129.84 162.039 129.65 162.699 129.49 163.359C129.46 163.529 129.41 163.699 129.38 163.879C129.35 164.029 129.31 164.179 129.29 164.319C129.26 164.469 129.22 164.619 129.2 164.749C129.17 164.939 129.13 165.149 129.1 165.339C129.08 165.479 129.05 165.609 129.03 165.749C129.02 165.859 129 165.979 128.98 166.089C128.96 166.279 128.92 166.469 128.91 166.659C128.89 166.839 128.86 167.039 128.84 167.219C128.83 167.369 128.82 167.519 128.81 167.659C128.8 167.799 128.79 167.959 128.78 168.119C128.77 168.309 128.76 168.509 128.76 168.709C128.75 168.899 128.74 169.109 128.74 169.309V170.099C128.74 170.529 128.76 170.969 128.79 171.399C128.8 171.569 128.81 171.739 128.82 171.909V171.979C128.83 172.129 128.84 172.279 128.87 172.439C128.89 172.739 128.93 173.029 128.96 173.329C128.98 173.469 128.99 173.589 129.02 173.729C129.04 173.869 129.05 173.989 129.09 174.129C129.09 174.149 129.09 174.179 129.1 174.209C129.12 174.389 129.16 174.569 129.19 174.769C129.2 174.829 129.21 174.879 129.22 174.939C129.24 175.099 129.28 175.259 129.31 175.419C129.32 175.469 129.33 175.509 129.34 175.569C129.37 175.729 129.41 175.899 129.44 176.059C129.45 176.109 129.46 176.159 129.49 176.219C129.52 176.369 129.56 176.529 129.6 176.689C129.61 176.759 129.63 176.819 129.65 176.879C129.7 177.059 129.74 177.229 129.8 177.419C129.86 177.639 129.93 177.839 129.98 178.049C129.98 178.059 129.99 178.069 129.99 178.079C130.05 178.269 130.12 178.469 130.18 178.649C130.18 178.669 130.19 178.699 130.2 178.719C130.26 178.929 130.33 179.119 130.41 179.319C130.48 179.529 130.56 179.729 130.64 179.919C130.64 179.929 130.65 179.939 130.65 179.939C130.72 180.129 130.8 180.319 130.88 180.499C130.89 180.529 130.9 180.559 130.91 180.589C130.99 180.779 131.07 180.979 131.16 181.159C131.24 181.349 131.33 181.549 131.42 181.729C131.43 181.749 131.43 181.759 131.44 181.789C131.53 181.979 131.62 182.179 131.73 182.359C131.83 182.569 131.94 182.759 132.04 182.949C132.14 183.139 132.25 183.339 132.36 183.519V183.539C132.47 183.729 132.59 183.919 132.7 184.109C132.79 184.279 132.89 184.439 133.01 184.609C133.02 184.639 133.04 184.679 133.07 184.709C133.18 184.879 133.3 185.059 133.41 185.229C133.54 185.409 133.66 185.589 133.79 185.779C133.89 185.929 134.01 186.079 134.11 186.219C134.28 186.449 134.45 186.659 134.62 186.889C134.72 187.029 134.84 187.159 134.95 187.299C134.97 187.329 135.01 187.369 135.03 187.409C135.12 187.509 135.2 187.619 135.29 187.709C135.36 187.809 135.44 187.899 135.52 187.999C135.66 188.149 135.79 188.299 135.93 188.459C136.04 188.569 136.15 188.699 136.26 188.809C136.29 188.859 136.33 188.889 136.37 188.919C136.48 189.059 136.62 189.179 136.75 189.309C136.77 189.339 136.81 189.379 136.83 189.399C136.93 189.499 137.04 189.609 137.15 189.709C137.36 189.919 137.57 190.119 137.8 190.329C137.89 190.409 137.98 190.499 138.07 190.579C138.18 190.669 138.29 190.759 138.4 190.849C138.55 190.989 138.7 191.099 138.84 191.239C138.95 191.329 139.08 191.429 139.2 191.529C139.34 191.629 139.47 191.749 139.61 191.849C139.72 191.939 139.85 192.029 139.96 192.119C140.22 192.299 140.47 192.499 140.75 192.669C140.86 192.749 140.98 192.829 141.09 192.909C141.28 193.039 141.48 193.159 141.67 193.289C142.64 193.889 143.67 194.449 144.73 194.959C158.61 201.429 175.11 195.429 181.58 181.549C188.06 167.659 204.56 161.659 218.44 168.129C219.12 168.459 219.81 168.799 220.46 169.179C220.62 169.269 220.79 169.369 220.95 169.469C221.13 169.569 221.31 169.689 221.5 169.809C221.69 169.919 221.89 170.049 222.08 170.169C222.19 170.249 222.31 170.329 222.42 170.409C222.68 170.579 222.94 170.769 223.2 170.959C223.33 171.049 223.45 171.139 223.57 171.229C223.71 171.329 223.84 171.439 223.98 171.549C224.11 171.649 224.22 171.739 224.34 171.849C224.49 171.959 224.64 172.099 224.78 172.229C224.89 172.319 225 172.409 225.1 172.499C225.2 172.579 225.29 172.669 225.39 172.749C225.61 172.959 225.83 173.159 226.04 173.369C226.15 173.469 226.26 173.579 226.35 173.679C226.38 173.709 226.42 173.739 226.44 173.769C226.57 173.899 226.69 174.019 226.82 174.159L226.93 174.269C227.04 174.379 227.15 174.509 227.26 174.619C227.4 174.779 227.53 174.929 227.66 175.079C227.74 175.169 227.82 175.269 227.9 175.369C227.99 175.469 228.07 175.559 228.15 175.679C228.18 175.699 228.21 175.749 228.24 175.779C228.35 175.919 228.47 176.049 228.57 176.189C228.74 176.419 228.91 176.629 229.08 176.859C229.18 177.009 229.29 177.159 229.4 177.299C229.53 177.479 229.65 177.659 229.78 177.849C229.89 178.029 230.01 178.199 230.12 178.369C230.13 178.399 230.15 178.439 230.18 178.469C230.29 178.639 230.4 178.809 230.49 178.969C230.6 179.159 230.72 179.349 230.83 179.539V179.559C230.94 179.739 231.05 179.939 231.15 180.129C231.25 180.319 231.36 180.519 231.46 180.719C231.56 180.909 231.65 181.109 231.75 181.289C231.75 181.309 231.76 181.339 231.77 181.349C231.86 181.539 231.95 181.739 232.03 181.919C232.12 182.109 232.2 182.299 232.28 182.489C232.29 182.519 232.3 182.549 232.31 182.579C232.39 182.759 232.46 182.959 232.54 183.139C232.54 183.139 232.544 183.146 232.55 183.159C232.63 183.369 232.7 183.559 232.78 183.779C232.85 183.969 232.92 184.169 232.99 184.369C233 184.389 233.01 184.419 233.01 184.439C233.08 184.619 233.14 184.819 233.2 185.009C233.2 185.019 233.2 185.029 233.21 185.039C233.27 185.249 233.34 185.459 233.39 185.669C233.44 185.849 233.49 186.019 233.54 186.209C233.55 186.279 233.57 186.339 233.59 186.399C233.64 186.559 233.67 186.709 233.7 186.869C233.72 186.929 233.73 186.969 233.75 187.029C233.78 187.199 233.82 187.359 233.85 187.519C233.86 187.579 233.87 187.619 233.88 187.669C233.91 187.829 233.95 187.989 233.97 188.149C233.98 188.209 233.99 188.259 234 188.319C234.03 188.509 234.07 188.699 234.09 188.879C234.1 188.909 234.1 188.939 234.1 188.959C234.12 189.099 234.15 189.229 234.16 189.359C234.18 189.499 234.21 189.619 234.22 189.759C234.27 190.059 234.3 190.349 234.32 190.649C234.33 190.809 234.35 190.959 234.37 191.119V191.179C234.38 191.349 234.39 191.519 234.4 191.689C234.42 192.119 234.45 192.559 234.45 192.989V193.779C234.44 193.989 234.44 194.189 234.43 194.399L234.44 194.439Z" fill="#CD2E3A"/>
<path d="M234.411 191.74C234.401 191.57 234.391 191.4 234.381 191.23V191.17C234.371 191.01 234.351 190.86 234.331 190.7C234.311 190.4 234.271 190.11 234.231 189.81C234.221 189.67 234.201 189.55 234.171 189.41C234.161 189.28 234.141 189.15 234.111 189.01C234.111 188.99 234.111 188.96 234.101 188.93C234.081 188.75 234.041 188.57 234.011 188.37C234.001 188.31 233.991 188.26 233.981 188.2C233.961 188.04 233.921 187.88 233.891 187.72C233.881 187.67 233.871 187.63 233.861 187.57C233.831 187.41 233.791 187.25 233.761 187.08C233.751 187.02 233.741 186.98 233.711 186.92C233.681 186.76 233.641 186.61 233.601 186.45C233.591 186.38 233.571 186.32 233.551 186.26C233.501 186.08 233.451 185.91 233.401 185.72C233.341 185.51 233.271 185.3 233.221 185.09C233.211 185.08 233.211 185.07 233.211 185.06C233.141 184.87 233.081 184.67 233.021 184.49C233.021 184.47 233.011 184.44 233.001 184.42C232.931 184.21 232.861 184.02 232.791 183.83C232.711 183.61 232.641 183.42 232.561 183.21C232.561 183.21 232.557 183.203 232.551 183.19C232.471 183.01 232.401 182.81 232.321 182.63C232.311 182.6 232.301 182.57 232.291 182.54C232.211 182.35 232.131 182.16 232.041 181.97C231.961 181.79 231.871 181.59 231.781 181.4C231.771 181.39 231.761 181.37 231.761 181.34C231.671 181.16 231.581 180.96 231.471 180.77C231.371 180.56 231.261 180.37 231.161 180.18C231.061 179.99 230.951 179.79 230.841 179.61V179.59C230.731 179.4 230.611 179.21 230.501 179.02C230.411 178.86 230.311 178.69 230.191 178.52C230.171 178.49 230.141 178.45 230.131 178.42C230.021 178.25 229.901 178.08 229.791 177.9C229.661 177.72 229.541 177.54 229.411 177.35C229.301 177.2 229.191 177.05 229.091 176.91C228.921 176.68 228.751 176.47 228.581 176.24C228.481 176.1 228.361 175.97 228.251 175.83C228.221 175.8 228.191 175.75 228.161 175.73C228.081 175.62 228.001 175.52 227.911 175.42C227.831 175.33 227.751 175.23 227.671 175.13C227.541 174.98 227.411 174.83 227.271 174.67C227.161 174.56 227.051 174.43 226.941 174.32L226.831 174.21C226.701 174.07 226.581 173.95 226.451 173.82C226.431 173.79 226.391 173.76 226.361 173.73C226.271 173.63 226.171 173.52 226.051 173.42C225.841 173.21 225.621 173.01 225.401 172.8C225.311 172.72 225.221 172.63 225.111 172.55C225.011 172.46 224.901 172.37 224.791 172.28C224.641 172.15 224.491 172.02 224.351 171.9C224.221 171.8 224.111 171.71 223.991 171.6C223.851 171.49 223.721 171.38 223.581 171.28C223.471 171.19 223.341 171.1 223.211 171.01C222.961 170.83 222.701 170.63 222.431 170.46C222.321 170.38 222.201 170.3 222.091 170.22C221.901 170.09 221.701 169.97 221.511 169.86C221.331 169.73 221.151 169.62 220.961 169.52C220.801 169.43 220.631 169.33 220.471 169.23C219.821 168.85 219.141 168.51 218.451 168.18C204.571 161.71 188.071 167.71 181.591 181.6C175.121 195.48 158.621 201.48 144.741 195.01C143.681 194.51 142.651 193.95 141.681 193.34C141.491 193.21 141.291 193.09 141.101 192.96C140.991 192.88 140.871 192.8 140.761 192.72C140.491 192.55 140.241 192.36 139.971 192.17C139.861 192.08 139.731 191.99 139.621 191.9C139.481 191.8 139.351 191.68 139.211 191.58C139.081 191.49 138.961 191.39 138.851 191.29C138.701 191.15 138.551 191.04 138.411 190.9C138.301 190.81 138.191 190.72 138.081 190.63C137.991 190.55 137.901 190.46 137.811 190.38C137.581 190.17 137.371 189.97 137.161 189.76C137.051 189.66 136.941 189.55 136.841 189.45C136.821 189.43 136.781 189.39 136.761 189.36C136.631 189.23 136.501 189.11 136.381 188.97C136.331 188.94 136.301 188.9 136.271 188.86C136.161 188.75 136.051 188.62 135.941 188.51C135.801 188.35 135.671 188.2 135.531 188.05C135.451 187.96 135.371 187.87 135.301 187.76C135.211 187.67 135.131 187.57 135.041 187.46C135.021 187.41 134.981 187.38 134.961 187.35C134.851 187.21 134.731 187.08 134.631 186.94C134.461 186.71 134.291 186.5 134.121 186.27C134.021 186.12 133.901 185.97 133.801 185.83C133.671 185.65 133.551 185.47 133.421 185.28C133.311 185.11 133.191 184.93 133.081 184.76C133.061 184.73 133.031 184.69 133.021 184.66C132.911 184.49 132.801 184.33 132.711 184.16C132.601 183.97 132.481 183.78 132.371 183.59V183.57C132.261 183.39 132.151 183.19 132.051 183C131.951 182.81 131.841 182.61 131.741 182.41C131.641 182.23 131.551 182.03 131.451 181.84C131.441 181.82 131.441 181.81 131.431 181.78C131.341 181.6 131.251 181.4 131.171 181.21C131.081 181.03 131.001 180.83 130.921 180.64C130.911 180.61 130.901 180.58 130.891 180.55C130.811 180.37 130.731 180.19 130.661 179.99C130.661 179.99 130.651 179.98 130.651 179.97C130.571 179.78 130.491 179.57 130.421 179.37C130.341 179.16 130.271 178.97 130.211 178.77C130.201 178.75 130.191 178.72 130.191 178.7C130.121 178.52 130.051 178.32 130.001 178.13C130.001 178.12 129.991 178.11 129.991 178.1C129.931 177.89 129.861 177.69 129.811 177.47C129.751 177.29 129.711 177.12 129.661 176.93C129.651 176.86 129.631 176.8 129.611 176.74C129.561 176.58 129.531 176.42 129.501 176.27C129.481 176.21 129.471 176.16 129.451 176.11C129.421 175.95 129.381 175.78 129.351 175.62C129.341 175.56 129.331 175.52 129.321 175.47C129.291 175.31 129.251 175.15 129.231 174.99C129.221 174.93 129.211 174.88 129.201 174.82C129.171 174.63 129.131 174.44 129.111 174.26C129.101 174.23 129.101 174.2 129.101 174.18C129.071 174.04 129.051 173.92 129.031 173.78C129.011 173.64 129.001 173.52 128.971 173.38C128.941 173.08 128.901 172.79 128.881 172.49C128.861 172.33 128.851 172.18 128.831 172.03V171.96C128.821 171.79 128.811 171.62 128.801 171.45C128.781 171.02 128.751 170.58 128.751 170.15V169.36C128.751 169.15 128.761 168.95 128.771 168.76C128.771 168.55 128.781 168.36 128.791 168.17C128.801 168.01 128.811 167.86 128.821 167.71C128.831 167.56 128.841 167.41 128.851 167.27C128.871 167.09 128.901 166.89 128.921 166.71C128.931 166.52 128.971 166.33 128.991 166.14C129.001 166.03 129.021 165.91 129.041 165.8C129.061 165.66 129.091 165.53 129.111 165.39C129.141 165.2 129.181 164.99 129.211 164.8C129.231 164.66 129.271 164.51 129.301 164.37C129.321 164.22 129.361 164.07 129.391 163.93C129.421 163.75 129.471 163.58 129.501 163.41C129.661 162.75 129.851 162.09 130.061 161.44C130.201 161.01 130.351 160.57 130.501 160.15C130.671 159.71 130.841 159.27 131.041 158.84C118.591 186.46 130.621 219.04 158.161 231.88C185.701 244.72 218.401 233 231.561 205.7C231.661 205.49 231.771 205.28 231.871 205.06C231.971 204.84 232.061 204.63 232.171 204.41C232.351 203.97 232.541 203.53 232.691 203.09C232.851 202.67 233.011 202.23 233.151 201.8C233.361 201.15 233.551 200.49 233.711 199.83C233.741 199.66 233.791 199.49 233.821 199.32C233.851 199.16 233.891 199.01 233.911 198.86C233.941 198.71 233.981 198.57 234.001 198.43C234.031 198.24 234.071 198.03 234.101 197.84C234.121 197.7 234.151 197.57 234.171 197.43C234.181 197.32 234.201 197.2 234.221 197.09C234.241 196.9 234.271 196.71 234.291 196.52C234.311 196.34 234.341 196.14 234.351 195.96C234.371 195.81 234.381 195.66 234.401 195.52C234.411 195.37 234.421 195.22 234.421 195.06C234.441 194.87 234.451 194.67 234.451 194.48C234.461 194.27 234.461 194.07 234.471 193.86V193.07C234.471 192.64 234.451 192.2 234.421 191.77L234.411 191.74Z" fill="#0047A0"/>
<path d="M86.9097 93.5769L55.3047 148.318L63.1509 152.848L94.7559 98.1069L86.9097 93.5769Z" fill="black"/>
<path d="M100.136 101.218L68.5312 155.959L76.3774 160.489L107.982 105.748L100.136 101.218Z" fill="black"/>
<path d="M113.359 108.846L81.7539 163.588L89.6001 168.118L121.205 113.376L113.359 108.846Z" fill="black"/>
<path d="M276.276 93.5774L268.43 98.1074L282.535 122.538L290.381 118.008L276.276 93.5774Z" fill="black"/>
<path d="M293.78 123.892L285.934 128.422L300.039 152.852L307.885 148.322L293.78 123.892Z" fill="black"/>
<path d="M263.049 101.214L255.203 105.744L286.808 160.486L294.654 155.956L263.049 101.214Z" fill="black"/>
<path d="M249.825 108.847L241.979 113.377L256.084 137.808L263.93 133.278L249.825 108.847Z" fill="black"/>
<path d="M267.329 139.159L259.482 143.689L273.587 168.12L281.434 163.59L267.329 139.159Z" fill="black"/>
<path d="M256.082 225.384L241.977 249.814L249.823 254.344L263.928 229.914L256.082 225.384Z" fill="black"/>
<path d="M273.582 195.073L259.477 219.504L267.323 224.034L281.428 199.603L273.582 195.073Z" fill="black"/>
<path d="M269.314 233.017L255.209 257.447L263.055 261.977L277.16 237.547L269.314 233.017Z" fill="black"/>
<path d="M286.814 202.706L272.709 227.137L280.555 231.667L294.66 207.236L286.814 202.706Z" fill="black"/>
<path d="M282.531 240.653L268.426 265.084L276.272 269.614L290.377 245.183L282.531 240.653Z" fill="black"/>
<path d="M300.031 210.343L285.926 234.773L293.772 239.303L307.877 214.873L300.031 210.343Z" fill="black"/>
<path d="M103.71 219.5L101.11 215L89.5998 195.07L81.7598 199.6L93.2598 219.53L95.8598 224.03L113.36 254.34L121.21 249.81L103.71 219.5Z" fill="black"/>
<path d="M76.3716 202.708L68.5254 207.238L82.6304 231.669L90.4766 227.139L76.3716 202.708Z" fill="black"/>
<path d="M93.8853 233.021L86.0391 237.551L100.144 261.981L107.99 257.451L93.8853 233.021Z" fill="black"/>
<path d="M77.2605 234.77L74.4405 229.9L63.1505 210.34L55.3105 214.87L66.6005 234.43L69.4105 239.3L86.9105 269.61L94.7605 265.08L77.2605 234.77Z" fill="black"/>
</g>
<defs>
<clipPath id="clip0_267_1433">
<rect width="363.19" height="363.19" fill="white"/>
</clipPath>
</defs>
</svg>
