<svg width="364" height="364" viewBox="0 0 364 364" fill="none" xmlns="http://www.w3.org/2000/svg">
<g clip-path="url(#clip0_267_1455)">
<path d="M363.19 181.59C363.19 186.3 363.01 190.95 362.66 195.56C362.15 202.17 361.3 208.67 360.1 215.06C359.58 217.9 358.99 220.71 358.33 223.5C357.55 226.77 356.69 230.02 355.74 233.22C354.86 236.22 353.89 239.19 352.85 242.12C352.39 243.45 351.91 244.75 351.41 246.05C350.73 247.86 350.01 249.66 349.27 251.44C348.1 254.23 346.87 256.99 345.57 259.71C345.34 260.19 345.11 260.67 344.87 261.14C342.25 266.54 339.36 271.79 336.21 276.86C335.7 277.71 335.17 278.55 334.64 279.38C328.67 288.7 321.88 297.44 314.35 305.49C313.78 306.1 313.21 306.71 312.63 307.31C302.92 317.42 292.06 326.42 280.26 334.06C279.64 334.47 279.03 334.86 278.41 335.25C275.61 337.02 272.76 338.71 269.86 340.33C263.55 343.84 257.01 346.99 250.26 349.74C244.22 352.21 238.02 354.37 231.67 356.19C225.74 357.89 219.68 359.3 213.51 360.39C203.15 362.23 192.48 363.19 181.59 363.19C169.61 363.19 157.91 362.03 146.59 359.81C140.42 358.61 134.36 357.1 128.43 355.28C123.15 353.67 117.98 351.83 112.93 349.75C106.18 347 99.64 343.85 93.33 340.33C90.43 338.71 87.58 337.02 84.78 335.25C84.16 334.86 83.54 334.47 82.93 334.06C71.12 326.42 60.26 317.42 50.56 307.31C50.09 306.82 49.62 306.33 49.15 305.83C45.75 302.21 42.5 298.44 39.4 294.55C35.53 289.69 31.91 284.63 28.55 279.38C28.39 279.13 28.22 278.87 28.07 278.61C24.5 272.98 21.24 267.16 18.32 261.14C16.75 257.96 15.29 254.73 13.92 251.44C13.23 249.8 12.57 248.14 11.95 246.47C11.39 245.03 10.86 243.59 10.35 242.13C9.3 239.19 8.34 236.22 7.45 233.22C6.5 230.02 5.64 226.77 4.86 223.5C4.2 220.71 3.61 217.9 3.09 215.06C1.89 208.67 1.04 202.17 0.53 195.56C0.18 190.95 0 186.3 0 181.6C0 170.16 1.06 158.97 3.08 148.13C3.85 143.99 4.76 139.91 5.81 135.88C5.85 135.68 5.9 135.49 5.96 135.3C5.98 135.2 6.01 135.1 6.04 135C6.48 133.31 6.95 131.64 7.45 129.97C8.31 127.06 9.24 124.18 10.25 121.33C10.28 121.23 10.31 121.16 10.34 121.07C11.97 116.44 13.78 111.91 15.77 107.47C16.22 106.46 16.67 105.48 17.13 104.5C17.47 103.78 17.82 103.05 18.17 102.33C18.22 102.24 18.26 102.14 18.31 102.05C18.61 101.41 18.93 100.79 19.25 100.16C19.87 98.91 20.51 97.68 21.16 96.45C21.34 96.1 21.53 95.75 21.72 95.4C22.69 93.6 23.69 91.83 24.73 90.07C27.42 85.46 30.32 80.97 33.4 76.63C33.54 76.42 33.69 76.22 33.84 76.01C33.93 75.87 34.03 75.74 34.13 75.6C37.78 70.53 41.69 65.65 45.85 60.99C56.7 48.78 69.17 38.04 82.93 29.12C86.32 26.92 89.79 24.83 93.33 22.86C99.64 19.34 106.18 16.19 112.93 13.43C116.75 11.87 120.63 10.44 124.58 9.13C124.65 9.11 124.72 9.08 124.79 9.06C124.84 9.04 124.9 9.02 124.96 9.01C126.11 8.63 127.27 8.26 128.43 7.91C134.36 6.09 140.42 4.57 146.59 3.38C157.21 1.3 168.16 0.15 179.35 0.01C180.1 0 180.84 0 181.59 0C182.34 0 183.11 0 183.87 0.01C189.18 0.08 194.43 0.37 199.63 0.89C204.31 1.35 208.94 1.99 213.51 2.8C219.68 3.89 225.73 5.29 231.67 7C238.02 8.81 244.22 10.97 250.26 13.44C257.01 16.19 263.55 19.35 269.86 22.87C272.76 24.47 275.61 26.17 278.41 27.94C279.03 28.33 279.64 28.72 280.26 29.13C292.06 36.77 302.92 45.76 312.62 55.87C313.58 56.87 314.53 57.88 315.46 58.9C318.82 62.56 322.02 66.35 325.07 70.27C328.46 74.63 331.66 79.15 334.64 83.81C335.17 84.64 335.7 85.48 336.22 86.33C339.36 91.4 342.25 96.65 344.89 102.05C346.44 105.23 347.9 108.47 349.27 111.75C350.22 114.04 351.13 116.35 351.99 118.68C352.28 119.47 352.57 120.26 352.85 121.06C353.9 124.01 354.86 126.96 355.74 129.97C356.7 133.17 357.56 136.41 358.33 139.69C358.99 142.48 359.58 145.29 360.1 148.13C361.3 154.52 362.16 161.02 362.66 167.63C363.01 172.24 363.19 176.89 363.19 181.59Z" fill="white"/>
<path d="M236.499 236.502C266.826 206.175 266.826 157.005 236.499 126.678C206.172 96.3511 157.002 96.3511 126.675 126.678C96.3485 157.005 96.3485 206.175 126.675 236.502C157.002 266.829 206.172 266.829 236.499 236.502Z" fill="#E70012"/>
</g>
<defs>
<clipPath id="clip0_267_1455">
<rect width="363.19" height="363.19" fill="white"/>
</clipPath>
</defs>
</svg>
