<svg width="364" height="364" viewBox="0 0 364 364" fill="none" xmlns="http://www.w3.org/2000/svg">
<g clip-path="url(#clip0_267_1465)">
<path d="M363.19 181.59C363.19 186.29 363.01 190.95 362.66 195.56C362.15 202.17 361.3 208.67 360.1 215.06C359.58 217.9 358.99 220.71 358.33 223.5C357.55 226.77 356.69 230.02 355.74 233.22C354.46 237.57 353.01 241.85 351.41 246.05C350.73 247.86 350.01 249.66 349.27 251.44C348.1 254.23 346.87 256.99 345.57 259.71C342.76 265.61 339.64 271.34 336.21 276.86C335.7 277.71 335.17 278.55 334.64 279.38C328.67 288.7 321.88 297.44 314.35 305.49C313.78 306.1 313.21 306.71 312.63 307.31C302.42 317.95 290.93 327.35 278.41 335.25C264.06 344.31 248.36 351.41 231.67 356.19C225.74 357.89 219.68 359.3 213.51 360.39C203.15 362.23 192.48 363.19 181.59 363.19C169.61 363.19 157.91 362.03 146.59 359.81C140.42 358.61 134.36 357.1 128.43 355.28C112.88 350.53 98.24 343.75 84.78 335.25C72.25 327.35 60.76 317.95 50.56 307.31C50.09 306.82 49.62 306.33 49.15 305.83C45.75 302.21 42.5 298.44 39.4 294.55C35.53 289.69 31.91 284.63 28.55 279.38C28.39 279.13 28.22 278.87 28.07 278.61C22.62 270.01 17.88 260.94 13.92 251.44C13.23 249.8 12.57 248.14 11.95 246.47C10.27 242.13 8.78 237.71 7.45 233.22C6.5 230.02 5.64 226.77 4.86 223.5C4.2 220.71 3.61 217.9 3.09 215.06C1.89 208.67 1.04 202.17 0.53 195.56C0.18 190.95 0 186.29 0 181.59C0 170.16 1.06 158.97 3.08 148.13C3.85 143.99 4.76 139.91 5.81 135.88C5.85 135.68 5.9 135.49 5.96 135.3C5.98 135.2 6.01 135.1 6.04 135C6.48 133.31 6.95 131.64 7.45 129.97C8.31 127.06 9.24 124.18 10.25 121.33C11.9 116.61 13.74 111.99 15.77 107.47C16.22 106.46 16.67 105.48 17.13 104.5C17.47 103.78 17.82 103.05 18.17 102.33C18.52 101.6 18.88 100.88 19.25 100.16C19.87 98.91 20.51 97.68 21.16 96.45C21.34 96.1 21.53 95.75 21.72 95.4C22.69 93.6 23.69 91.83 24.73 90.07C27.42 85.46 30.32 80.97 33.4 76.63C33.54 76.42 33.69 76.22 33.84 76.01C33.93 75.87 34.03 75.74 34.13 75.6C37.78 70.53 41.69 65.65 45.85 60.99C66.83 37.37 93.89 19.27 124.58 9.13C124.65 9.11 124.72 9.08 124.79 9.06C124.84 9.04 124.9 9.02 124.96 9.01C126.11 8.63 127.27 8.26 128.43 7.91C134.36 6.09 140.42 4.57 146.59 3.38C157.92 1.16 169.62 0 181.59 0C187.68 0 193.69 0.3 199.63 0.89C204.31 1.35 208.94 1.99 213.51 2.8C219.68 3.89 225.73 5.29 231.67 7C248.35 11.77 264.06 18.87 278.41 27.94C290.93 35.84 302.42 45.23 312.62 55.87C313.58 56.87 314.53 57.88 315.46 58.9C318.82 62.56 322.02 66.35 325.07 70.27C328.46 74.63 331.66 79.15 334.64 83.81C335.17 84.64 335.7 85.48 336.22 86.33C341.21 94.4 345.58 102.9 349.27 111.75C350.22 114.04 351.13 116.35 351.99 118.68C353.37 122.39 354.62 126.15 355.74 129.97C356.7 133.17 357.56 136.41 358.33 139.69C358.99 142.48 359.58 145.29 360.1 148.13C361.3 154.52 362.16 161.02 362.66 167.63C363.01 172.24 363.19 176.89 363.19 181.59Z" fill="#DE2810"/>
<path d="M169.949 104.21H123.609L109.289 59.6699L94.9689 104.21H48.6289L86.1189 131.73L71.7989 176.26L109.289 148.74L146.779 176.26L132.459 131.73L169.949 104.21Z" fill="#FFFF00"/>
<path d="M218.278 188.981L206.808 187.851L204.348 176.471L199.708 187.151L188.238 186.011L196.848 193.751L192.218 204.421L202.168 198.521L210.778 206.261L208.318 194.881L218.278 188.981Z" fill="#FFFF00"/>
<path d="M243.328 138.779L232.158 141.639L225.948 131.789L225.248 143.409L214.078 146.269L224.818 150.589L224.118 162.209L231.448 153.259L242.188 157.579L235.988 147.729L243.328 138.779Z" fill="#FFFF00"/>
<path d="M239.078 79.0508L230.288 86.5208L220.398 80.3808L224.858 91.1308L216.078 98.6008L227.618 97.7808L232.078 108.531L234.748 97.2708L246.298 96.4508L236.408 90.3108L239.078 79.0508Z" fill="#FFFF00"/>
<path d="M219.229 42.6697L207.799 41.1297L205.739 29.6797L200.739 40.1897L189.309 38.6597L197.649 46.6797L192.639 57.1897L202.799 51.6397L211.129 59.6697L209.069 48.2197L219.229 42.6697Z" fill="#FFFF00"/>
</g>
<defs>
<clipPath id="clip0_267_1465">
<rect width="363.19" height="363.19" fill="white"/>
</clipPath>
</defs>
</svg>
