<svg width="16" height="15" viewBox="0 0 16 15" fill="none" xmlns="http://www.w3.org/2000/svg">
<path d="M10.7164 11.6602C10.6999 11.8967 10.6802 12.1208 10.6572 12.3356C10.6802 12.1115 10.6999 11.8905 10.7164 11.6602Z" fill="url(#paint0_linear_1769_8694)"/>
<path d="M10.677 9.06772C10.651 8.80003 10.6251 8.53545 10.583 8.26465C10.6219 8.53856 10.6543 8.80625 10.677 9.06772Z" fill="url(#paint1_linear_1769_8694)"/>
<path d="M3.59863 0C3.92258 0.578958 4.76485 1.7182 6.56926 3.3399L15.6237 3.3399L15.6237 0L3.59863 0Z" fill="url(#paint2_linear_1769_8694)"/>
<path d="M6.34235 14.9997H6.34883C6.31643 14.9748 6.28404 14.9499 6.25488 14.9219C6.28404 14.9499 6.31319 14.9717 6.34235 14.9997Z" fill="url(#paint3_linear_1769_8694)"/>
<path d="M9.94789 5.83008C10.071 6.52732 10.1941 7.42377 10.3204 8.23307C10.3625 8.50387 10.6476 8.79957 10.6735 9.06726C10.6735 9.09528 10.68 9.12641 10.6833 9.15753C10.6833 9.16064 10.6833 9.16687 10.6833 9.16998L12.1443 9.16998L12.1443 11.6601L10.7092 11.6601C10.5537 11.85 10.4338 12.5068 10.4079 12.7309C10.3949 12.8523 10.382 12.9768 10.3658 13.092C10.2621 13.9168 10.1811 14.2686 10.1844 15L15.617 15L15.617 5.83008L9.94141 5.83008H9.94789Z" fill="url(#paint4_linear_1769_8694)"/>
<path d="M10.655 12.3359C10.6419 12.4573 10.6287 12.5787 10.6123 12.697C10.6287 12.5818 10.6419 12.4573 10.655 12.3359Z" fill="url(#paint5_linear_1769_8694)"/>
<path d="M10.6832 9.15765C10.6832 9.12964 10.677 9.09851 10.6738 9.06738C10.6738 9.0954 10.6801 9.12652 10.6832 9.15765Z" fill="url(#paint6_linear_1769_8694)"/>
<path d="M10.6839 9.15753C10.6839 9.12952 10.6191 8.53811 10.5802 8.26419C10.4539 7.45178 10.2466 6.63626 9.94529 5.83008L7.18848 5.83008L7.18848 9.16998L10.6839 9.16998C10.6839 9.16998 10.6839 9.16064 10.6839 9.15753Z" fill="url(#paint7_linear_1769_8694)"/>
<path d="M6.25512 14.9217C5.28003 13.7109 1.36995 11.4978 0.00287956 11.4854C-0.00359945 11.4947 0.00287956 14.9996 0.00287956 14.9996L6.33935 14.9996C6.31019 14.9747 6.27456 14.9529 6.25188 14.9217H6.25512Z" fill="url(#paint8_linear_1769_8694)"/>
<path d="M3.59878 0L0.00292969 0L0.00292969 10.3341C0.148707 10.359 0.816045 10.5831 0.825764 10.5862C1.7555 9.58083 2.87961 8.7155 3.48216 8.07118L3.48216 3.3399L6.56617 3.3399C5.31896 1.60303 4.28879 0.575846 3.59878 0Z" fill="url(#paint9_linear_1769_8694)"/>
<path d="M3.48505 11.6602L3.48505 8.07129C2.86954 8.55998 1.78107 9.47199 0.848089 10.4774C0.838371 10.4774 0.828652 10.4774 0.818934 10.4712C0.793017 10.5023 0.767101 10.5334 0.741185 10.5645C0.660198 10.6579 0.57921 10.7544 0.498223 10.8478C0.355684 11.0128 0.213146 11.1746 0.0738476 11.3489C0.0738476 11.3489 0.0965241 11.3583 0.103003 11.3614C0.0738476 11.4019 0.0349735 11.4392 0.00581798 11.4797C0.00905748 11.4797 0.00257847 11.4828 0.00581798 11.4828C0.656958 11.71 1.50571 12.0337 2.39981 12.4539C3.69885 13.064 5.11128 13.8827 6.25482 14.9223C6.28722 14.9472 6.31961 14.9721 6.34877 15.0001L10.1941 15.0001C10.3658 14.2998 10.5115 13.5216 10.6152 12.6967C10.6282 12.5784 10.6443 12.4571 10.6573 12.3357C10.68 12.1178 10.6994 11.8968 10.7156 11.6602L3.48505 11.6602Z" fill="url(#paint10_linear_1769_8694)"/>
<path d="M0.00292969 10.2715L0.00292969 11.7127C0.232935 11.2333 0.825764 10.4925 0.85168 10.4614C0.725339 10.4365 0.148707 10.2964 0.00292969 10.2715Z" fill="url(#paint11_linear_1769_8694)"/>
<defs>
<linearGradient id="paint0_linear_1769_8694" x1="10.6539" y1="11.9994" x2="10.7164" y2="11.9994" gradientUnits="userSpaceOnUse">
<stop stop-color="#008100"/>
<stop offset="0.21" stop-color="#29BC26"/>
<stop offset="0.41" stop-color="#1FC936"/>
<stop offset="0.6" stop-color="#06CE6C"/>
<stop offset="0.82" stop-color="#42E09F"/>
<stop offset="1" stop-color="#00E9BB"/>
</linearGradient>
<linearGradient id="paint1_linear_1769_8694" x1="10.583" y1="8.66618" x2="10.677" y2="8.66618" gradientUnits="userSpaceOnUse">
<stop stop-color="#008100"/>
<stop offset="0.21" stop-color="#29BC26"/>
<stop offset="0.41" stop-color="#1FC936"/>
<stop offset="0.6" stop-color="#06CE6C"/>
<stop offset="0.82" stop-color="#42E09F"/>
<stop offset="1" stop-color="#00E9BB"/>
</linearGradient>
<linearGradient id="paint2_linear_1769_8694" x1="-5.92875" y1="-4.87446" x2="21.2755" y2="6.45197" gradientUnits="userSpaceOnUse">
<stop stop-color="#008100"/>
<stop offset="0.21" stop-color="#29BC26"/>
<stop offset="0.41" stop-color="#1FC936"/>
<stop offset="0.6" stop-color="#06CE6C"/>
<stop offset="0.82" stop-color="#42E09F"/>
<stop offset="1" stop-color="#00E9BB"/>
</linearGradient>
<linearGradient id="paint3_linear_1769_8694" x1="6.25488" y1="14.9623" x2="6.34883" y2="14.9623" gradientUnits="userSpaceOnUse">
<stop stop-color="#008100"/>
<stop offset="0.21" stop-color="#29BC26"/>
<stop offset="0.41" stop-color="#1FC936"/>
<stop offset="0.6" stop-color="#06CE6C"/>
<stop offset="0.82" stop-color="#42E09F"/>
<stop offset="1" stop-color="#00E9BB"/>
</linearGradient>
<linearGradient id="paint4_linear_1769_8694" x1="-21.9483" y1="8.10233" x2="21.6706" y2="11.2366" gradientUnits="userSpaceOnUse">
<stop stop-color="#008100"/>
<stop offset="0.21" stop-color="#29BC26"/>
<stop offset="0.41" stop-color="#1FC936"/>
<stop offset="0.6" stop-color="#06CE6C"/>
<stop offset="0.82" stop-color="#42E09F"/>
<stop offset="1" stop-color="#00E9BB"/>
</linearGradient>
<linearGradient id="paint5_linear_1769_8694" x1="10.6156" y1="12.5165" x2="10.655" y2="12.5165" gradientUnits="userSpaceOnUse">
<stop stop-color="#008100"/>
<stop offset="0.21" stop-color="#29BC26"/>
<stop offset="0.41" stop-color="#1FC936"/>
<stop offset="0.6" stop-color="#06CE6C"/>
<stop offset="0.82" stop-color="#42E09F"/>
<stop offset="1" stop-color="#00E9BB"/>
</linearGradient>
<linearGradient id="paint6_linear_1769_8694" x1="10.677" y1="9.11407" x2="10.6832" y2="9.11407" gradientUnits="userSpaceOnUse">
<stop stop-color="#008100"/>
<stop offset="0.21" stop-color="#29BC26"/>
<stop offset="0.41" stop-color="#1FC936"/>
<stop offset="0.6" stop-color="#06CE6C"/>
<stop offset="0.82" stop-color="#42E09F"/>
<stop offset="1" stop-color="#00E9BB"/>
</linearGradient>
<linearGradient id="paint7_linear_1769_8694" x1="-5.29657" y1="7.39887" x2="46.7264" y2="7.80682" gradientUnits="userSpaceOnUse">
<stop stop-color="#008100"/>
<stop offset="0.21" stop-color="#29BC26"/>
<stop offset="0.41" stop-color="#1FC936"/>
<stop offset="0.6" stop-color="#06CE6C"/>
<stop offset="0.82" stop-color="#42E09F"/>
<stop offset="1" stop-color="#00E9BB"/>
</linearGradient>
<linearGradient id="paint8_linear_1769_8694" x1="-0.570513" y1="13.2253" x2="147.621" y2="18.1338" gradientUnits="userSpaceOnUse">
<stop stop-color="#008100"/>
<stop offset="0.21" stop-color="#29BC26"/>
<stop offset="0.41" stop-color="#1FC936"/>
<stop offset="0.6" stop-color="#06CE6C"/>
<stop offset="0.82" stop-color="#42E09F"/>
<stop offset="1" stop-color="#00E9BB"/>
</linearGradient>
<linearGradient id="paint9_linear_1769_8694" x1="-11.4131" y1="8.18946" x2="97.0593" y2="-20.5753" gradientUnits="userSpaceOnUse">
<stop stop-color="#008100"/>
<stop offset="0.21" stop-color="#29BC26"/>
<stop offset="0.41" stop-color="#1FC936"/>
<stop offset="0.6" stop-color="#06CE6C"/>
<stop offset="0.82" stop-color="#42E09F"/>
<stop offset="1" stop-color="#00E9BB"/>
</linearGradient>
<linearGradient id="paint10_linear_1769_8694" x1="-12.7513" y1="11.405" x2="55.3848" y2="11.9511" gradientUnits="userSpaceOnUse">
<stop stop-color="#008100"/>
<stop offset="0.21" stop-color="#29BC26"/>
<stop offset="0.41" stop-color="#1FC936"/>
<stop offset="0.6" stop-color="#06CE6C"/>
<stop offset="0.82" stop-color="#42E09F"/>
<stop offset="1" stop-color="#00E9BB"/>
</linearGradient>
<linearGradient id="paint11_linear_1769_8694" x1="-6.06466" y1="5.62737" x2="1.76504" y2="12.751" gradientUnits="userSpaceOnUse">
<stop stop-color="#008100"/>
<stop offset="0.21" stop-color="#29BC26"/>
<stop offset="0.41" stop-color="#1FC936"/>
<stop offset="0.6" stop-color="#06CE6C"/>
<stop offset="0.82" stop-color="#42E09F"/>
<stop offset="1" stop-color="#00E9BB"/>
</linearGradient>
</defs>
</svg>
