<svg width="229" height="49" viewBox="0 0 229 49" fill="none" xmlns="http://www.w3.org/2000/svg">
<g clip-path="url(#clip0_348_788)">
<path d="M106.78 23.31H115.49V38.35C113.5 39.84 111.21 40.98 108.62 41.77C106.03 42.57 103.44 42.96 100.85 42.96C97.1999 42.96 93.9099 42.15 90.9899 40.55C88.0699 38.95 85.7799 36.7 84.1199 33.83C82.4599 30.96 81.6299 27.71 81.6299 24.08C81.6299 20.45 82.4599 17.2 84.1199 14.33C85.7799 11.45 88.0899 9.22001 91.0399 7.61001C93.9899 6.00001 97.3299 5.20001 101.05 5.20001C104.3 5.20001 107.22 5.77001 109.81 6.91001C112.4 8.05001 114.56 9.69001 116.29 11.84L110.01 17.75C107.65 15.05 104.83 13.71 101.55 13.71C98.5599 13.71 96.1599 14.65 94.3299 16.54C92.5099 18.42 91.5899 20.94 91.5899 24.09C91.5899 26.09 91.9999 27.88 92.8399 29.46C93.6699 31.03 94.8299 32.26 96.3199 33.14C97.8099 34.02 99.5199 34.47 101.45 34.47C103.38 34.47 105.12 34.07 106.78 33.28V23.32V23.31Z" fill="#4D4D4F"/>
<path d="M151.63 26.64C152.72 28.13 153.27 29.94 153.27 32.06C153.27 35.15 152.08 37.54 149.69 39.21C147.31 40.89 143.86 41.73 139.34 41.73H121.06V6.46002H138.37C142.69 6.46002 145.98 7.29002 148.24 8.95002C150.5 10.61 151.63 12.85 151.63 15.67C151.63 17.35 151.23 18.85 150.44 20.18C149.65 21.51 148.53 22.56 147.08 23.33C149.01 24.04 150.53 25.13 151.63 26.63V26.64ZM130.54 13.67V20.47H137.12C140.34 20.47 141.96 19.33 141.96 17.04C141.96 14.75 140.35 13.67 137.12 13.67H130.54V13.67ZM143.6 30.95C143.6 28.56 141.92 27.37 138.57 27.37H130.54V34.52H138.57C141.92 34.52 143.6 33.33 143.6 30.95Z" fill="#4D4D4F"/>
<path d="M164.71 40.07C161.85 38.49 159.62 36.31 157.99 33.52C156.36 30.73 155.55 27.6 155.55 24.1C155.55 20.6 156.37 17.47 157.99 14.68C159.62 11.89 161.86 9.71001 164.71 8.13001C167.56 6.56001 170.78 5.76001 174.36 5.76001C177.94 5.76001 181.16 6.55001 184.01 8.13001C186.87 9.71001 189.11 11.89 190.73 14.68C192.36 17.46 193.18 20.6 193.18 24.1C193.18 27.6 192.36 30.73 190.73 33.52C189.1 36.31 186.86 38.49 184.01 40.07C181.16 41.65 177.94 42.43 174.36 42.43C170.78 42.43 167.57 41.65 164.71 40.07ZM179 32.91C180.38 32.07 181.48 30.89 182.29 29.36C183.1 27.83 183.5 26.08 183.5 24.1C183.5 22.12 183.1 20.36 182.29 18.83C181.49 17.31 180.39 16.12 179 15.28C177.61 14.44 176.06 14.03 174.35 14.03C172.64 14.03 171.09 14.44 169.71 15.28C168.32 16.12 167.23 17.31 166.42 18.83C165.62 20.36 165.21 22.12 165.21 24.1C165.21 26.08 165.61 27.83 166.42 29.36C167.23 30.89 168.32 32.07 169.71 32.91C171.09 33.75 172.64 34.17 174.35 34.17C176.06 34.17 177.61 33.75 179 32.91V32.91Z" fill="#4D4D4F"/>
<path d="M217.4 41.73L210.39 30.8L203.48 41.73H192.55L204.88 23.89L193.08 6.46002H203.86L210.63 16.63L217.31 6.46002H227.66L215.86 23.49L228.43 41.73H217.4V41.73Z" fill="#4D4D4F"/>
<path d="M33.0701 37.46C33.0201 38.22 32.9601 38.94 32.8901 39.63C32.9601 38.91 33.0201 38.2 33.0701 37.46Z" fill="url(#paint0_linear_348_788)"/>
<path d="M32.9502 29.13C32.8702 28.27 32.7902 27.42 32.6602 26.55C32.7802 27.43 32.8802 28.29 32.9502 29.13V29.13Z" fill="url(#paint1_linear_348_788)"/>
<path d="M11.1001 0C12.1001 1.86 14.7001 5.52 20.2701 10.73H48.2201V0H11.1001Z" fill="url(#paint2_linear_348_788)"/>
<path d="M19.5698 48.19H19.5898C19.4898 48.11 19.3898 48.03 19.2998 47.94C19.3898 48.03 19.4798 48.1 19.5698 48.19Z" fill="url(#paint3_linear_348_788)"/>
<path d="M30.7002 18.73C31.0802 20.97 31.4602 23.85 31.8502 26.45C31.9802 27.32 32.8602 28.27 32.9402 29.13C32.9402 29.22 32.9602 29.32 32.9702 29.42C32.9702 29.43 32.9702 29.45 32.9702 29.46H37.4802V37.46H33.0502C32.5702 38.07 32.2002 40.18 32.1202 40.9C32.0802 41.29 32.0402 41.69 31.9902 42.06C31.6702 44.71 31.4202 45.84 31.4302 48.19H48.2002V18.73H30.7002Z" fill="url(#paint4_linear_348_788)"/>
<path d="M32.88 39.63C32.84 40.02 32.8 40.41 32.75 40.79C32.8 40.42 32.84 40.02 32.88 39.63Z" fill="url(#paint5_linear_348_788)"/>
<path d="M32.9699 29.42C32.9699 29.33 32.9499 29.23 32.9399 29.13C32.9399 29.22 32.9599 29.32 32.9699 29.42Z" fill="url(#paint6_linear_348_788)"/>
<path d="M32.9702 29.42C32.9702 29.33 32.7702 27.43 32.6502 26.55C32.2602 23.94 31.6202 21.32 30.6902 18.73H22.1802V29.46H32.9702C32.9702 29.46 32.9702 29.43 32.9702 29.42Z" fill="url(#paint7_linear_348_788)"/>
<path d="M19.3001 47.94C16.2901 44.05 4.2201 36.94 9.98266e-05 36.9C-0.0199002 36.93 9.98266e-05 48.19 9.98266e-05 48.19H19.5701C19.4801 48.11 19.3701 48.04 19.3001 47.94Z" fill="url(#paint8_linear_348_788)"/>
<path d="M11.1 0H0V33.2C0.45 33.28 2.51 34 2.54 34.01C5.41 30.78 8.88 28 10.74 25.93V10.73H20.26C16.41 5.15 13.23 1.85 11.1 0Z" fill="url(#paint9_linear_348_788)"/>
<path d="M10.7502 37.46V25.93C8.85021 27.5 5.49021 30.43 2.61021 33.66C2.58021 33.66 2.55021 33.66 2.52021 33.64C2.44021 33.74 2.36021 33.84 2.28021 33.94C2.03021 34.24 1.78021 34.55 1.53021 34.85C1.09021 35.38 0.650211 35.9 0.220211 36.46C0.220211 36.46 0.290211 36.49 0.310211 36.5C0.220211 36.63 0.100211 36.75 0.010211 36.88C0.020211 36.88 0.00021097 36.89 0.010211 36.89C2.02021 37.62 4.64021 38.66 7.40021 40.01C11.4102 41.97 15.7702 44.6 19.3002 47.94C19.4002 48.02 19.5002 48.1 19.5902 48.19H31.4602C31.9902 45.94 32.4402 43.44 32.7602 40.79C32.8002 40.41 32.8502 40.02 32.8902 39.63C32.9602 38.93 33.0202 38.22 33.0702 37.46H10.7502V37.46Z" fill="url(#paint10_linear_348_788)"/>
<path d="M0 33V37.63C0.71 36.09 2.54 33.71 2.62 33.61C2.23 33.53 0.45 33.08 0 33Z" fill="url(#paint11_linear_348_788)"/>
</g>
<defs>
<linearGradient id="paint0_linear_348_788" x1="32.8801" y1="38.55" x2="33.0701" y2="38.55" gradientUnits="userSpaceOnUse">
<stop stop-color="#008100"/>
<stop offset="0.21" stop-color="#29BC26"/>
<stop offset="0.41" stop-color="#1FC936"/>
<stop offset="0.6" stop-color="#06CE6C"/>
<stop offset="0.82" stop-color="#42E09F"/>
<stop offset="1" stop-color="#00E9BB"/>
</linearGradient>
<linearGradient id="paint1_linear_348_788" x1="32.6602" y1="27.84" x2="32.9502" y2="27.84" gradientUnits="userSpaceOnUse">
<stop stop-color="#008100"/>
<stop offset="0.21" stop-color="#29BC26"/>
<stop offset="0.41" stop-color="#1FC936"/>
<stop offset="0.6" stop-color="#06CE6C"/>
<stop offset="0.82" stop-color="#42E09F"/>
<stop offset="1" stop-color="#00E9BB"/>
</linearGradient>
<linearGradient id="paint2_linear_348_788" x1="-18.3099" y1="-15.66" x2="66.6301" y2="18.32" gradientUnits="userSpaceOnUse">
<stop stop-color="#008100"/>
<stop offset="0.21" stop-color="#29BC26"/>
<stop offset="0.41" stop-color="#1FC936"/>
<stop offset="0.6" stop-color="#06CE6C"/>
<stop offset="0.82" stop-color="#42E09F"/>
<stop offset="1" stop-color="#00E9BB"/>
</linearGradient>
<linearGradient id="paint3_linear_348_788" x1="19.2998" y1="48.07" x2="19.5898" y2="48.07" gradientUnits="userSpaceOnUse">
<stop stop-color="#008100"/>
<stop offset="0.21" stop-color="#29BC26"/>
<stop offset="0.41" stop-color="#1FC936"/>
<stop offset="0.6" stop-color="#06CE6C"/>
<stop offset="0.82" stop-color="#42E09F"/>
<stop offset="1" stop-color="#00E9BB"/>
</linearGradient>
<linearGradient id="paint4_linear_348_788" x1="-67.7598" y1="26.03" x2="66.9402" y2="35.33" gradientUnits="userSpaceOnUse">
<stop stop-color="#008100"/>
<stop offset="0.21" stop-color="#29BC26"/>
<stop offset="0.41" stop-color="#1FC936"/>
<stop offset="0.6" stop-color="#06CE6C"/>
<stop offset="0.82" stop-color="#42E09F"/>
<stop offset="1" stop-color="#00E9BB"/>
</linearGradient>
<linearGradient id="paint5_linear_348_788" x1="32.76" y1="40.21" x2="32.88" y2="40.21" gradientUnits="userSpaceOnUse">
<stop stop-color="#008100"/>
<stop offset="0.21" stop-color="#29BC26"/>
<stop offset="0.41" stop-color="#1FC936"/>
<stop offset="0.6" stop-color="#06CE6C"/>
<stop offset="0.82" stop-color="#42E09F"/>
<stop offset="1" stop-color="#00E9BB"/>
</linearGradient>
<linearGradient id="paint6_linear_348_788" x1="32.9499" y1="29.28" x2="32.9699" y2="29.28" gradientUnits="userSpaceOnUse">
<stop stop-color="#008100"/>
<stop offset="0.21" stop-color="#29BC26"/>
<stop offset="0.41" stop-color="#1FC936"/>
<stop offset="0.6" stop-color="#06CE6C"/>
<stop offset="0.82" stop-color="#42E09F"/>
<stop offset="1" stop-color="#00E9BB"/>
</linearGradient>
<linearGradient id="paint7_linear_348_788" x1="-16.3598" y1="23.77" x2="144.23" y2="24.98" gradientUnits="userSpaceOnUse">
<stop stop-color="#008100"/>
<stop offset="0.21" stop-color="#29BC26"/>
<stop offset="0.41" stop-color="#1FC936"/>
<stop offset="0.6" stop-color="#06CE6C"/>
<stop offset="0.82" stop-color="#42E09F"/>
<stop offset="1" stop-color="#00E9BB"/>
</linearGradient>
<linearGradient id="paint8_linear_348_788" x1="-1.7699" y1="42.49" x2="455.72" y2="57.05" gradientUnits="userSpaceOnUse">
<stop stop-color="#008100"/>
<stop offset="0.21" stop-color="#29BC26"/>
<stop offset="0.41" stop-color="#1FC936"/>
<stop offset="0.6" stop-color="#06CE6C"/>
<stop offset="0.82" stop-color="#42E09F"/>
<stop offset="1" stop-color="#00E9BB"/>
</linearGradient>
<linearGradient id="paint9_linear_348_788" x1="-35.24" y1="26.31" x2="301.3" y2="-59.44" gradientUnits="userSpaceOnUse">
<stop stop-color="#008100"/>
<stop offset="0.21" stop-color="#29BC26"/>
<stop offset="0.41" stop-color="#1FC936"/>
<stop offset="0.6" stop-color="#06CE6C"/>
<stop offset="0.82" stop-color="#42E09F"/>
<stop offset="1" stop-color="#00E9BB"/>
</linearGradient>
<linearGradient id="paint10_linear_348_788" x1="-39.3698" y1="36.64" x2="170.96" y2="38.26" gradientUnits="userSpaceOnUse">
<stop stop-color="#008100"/>
<stop offset="0.21" stop-color="#29BC26"/>
<stop offset="0.41" stop-color="#1FC936"/>
<stop offset="0.6" stop-color="#06CE6C"/>
<stop offset="0.82" stop-color="#42E09F"/>
<stop offset="1" stop-color="#00E9BB"/>
</linearGradient>
<linearGradient id="paint11_linear_348_788" x1="-18.73" y1="18.08" x2="6.31001" y2="39.97" gradientUnits="userSpaceOnUse">
<stop stop-color="#008100"/>
<stop offset="0.21" stop-color="#29BC26"/>
<stop offset="0.41" stop-color="#1FC936"/>
<stop offset="0.6" stop-color="#06CE6C"/>
<stop offset="0.82" stop-color="#42E09F"/>
<stop offset="1" stop-color="#00E9BB"/>
</linearGradient>
<clipPath id="clip0_348_788">
<rect width="228.43" height="48.19" fill="white"/>
</clipPath>
</defs>
</svg>
