<svg width="96" height="96" viewBox="0 0 96 96" fill="none" xmlns="http://www.w3.org/2000/svg">
<path d="M48 96C74.5097 96 96 74.5097 96 48C96 21.4903 74.5097 0 48 0C21.4903 0 0 21.4903 0 48C0 74.5097 21.4903 96 48 96Z" fill="#f3f6f9"/>
<g clip-path="url(#clip0_258_1569)">
<path d="M76.55 62.13C75 65.78 71.38 68.35 67.18 68.35C61.56 68.35 57 63.79 57 58.18C57 52.57 61.56 48 67.18 48C72.8 48 77.36 52.57 77.36 58.18C77.36 59.58 77.07 60.92 76.56 62.14M67.18 50.5C62.95 50.5 59.5 53.94 59.5 58.18C59.5 62.42 62.94 65.86 67.18 65.86C71.42 65.86 74.86 62.42 74.86 58.18C74.86 53.94 71.42 50.5 67.18 50.5Z" fill="#2e6bbd"/>
<path d="M64.4621 55.8915L67.1095 58.4026L67.1784 58.468L67.2472 58.4024L69.8845 55.8916L71.4671 57.5662L67.1782 61.6421L62.8795 57.5661L64.4621 55.8915Z" fill="#2e6bbd" stroke="white" stroke-width="0.2"/>
</g>
<path d="M53.45 62.11H26V32H68.29V44.07H65.79V34.5H28.5V59.61H53.45V62.11Z" fill="#2e6bbd"/>
<path d="M47.3308 51.9108L31.8008 38.3008L33.1208 36.8008L47.3308 49.2508L61.5508 36.8008L62.8608 38.3008L47.3308 51.9108Z" fill="#2e6bbd" stroke="#2e6bbd" stroke-width="0.4"/>
<defs>
<clipPath id="clip0_258_1569">
<rect width="20.35" height="20.35" fill="white" transform="translate(57 48)"/>
</clipPath>
</defs>
</svg>
