<svg width="96" height="96" viewBox="0 0 96 96" fill="none" xmlns="http://www.w3.org/2000/svg">
<path d="M48 96C74.5097 96 96 74.5097 96 48C96 21.4903 74.5097 0 48 0C21.4903 0 0 21.4903 0 48C0 74.5097 21.4903 96 48 96Z" fill="#f3f6f9"/>
<path d="M49.7 67.89H31V29H63.3V48.44H60.8V31.5H33.5V65.39H49.7V67.89Z" fill="#2e6bbd"/>
<path d="M53.4919 37.3008H39.6719V39.8008H53.4919V37.3008Z" fill="#2e6bbd"/>
<path d="M53.4919 43.5508H39.6719V46.0508H53.4919V43.5508Z" fill="#2e6bbd"/>
<path d="M53.4919 49.8105H39.6719V52.3105H53.4919V49.8105Z" fill="#2e6bbd"/>
<path d="M47.6319 56.1602H39.6719V58.6602H47.6319V56.1602Z" fill="#2e6bbd"/>
<path d="M62.94 71.87C57.46 71.87 53 67.41 53 61.93C53 56.45 57.46 52 62.94 52C68.42 52 72.88 56.46 72.88 61.93C72.88 67.4 68.42 71.87 62.94 71.87ZM62.94 54.5C58.84 54.5 55.5 57.84 55.5 61.93C55.5 66.02 58.84 69.37 62.94 69.37C67.04 69.37 70.38 66.03 70.38 61.93C70.38 57.83 67.04 54.5 62.94 54.5Z" fill="#2e6bbd"/>
<path d="M63.0894 63.6403L63.16 63.7103L63.2304 63.6401L65.9597 60.9206L67.5883 62.5491L63.1598 66.9582L58.7312 62.5489L60.3503 60.9207L63.0894 63.6403Z" fill="#2e6bbd" stroke="white" stroke-width="0.2"/>
<path d="M64.4102 57.5293H61.9102V65.3393H64.4102V57.5293Z" fill="#2e6bbd"/>
</svg>
