<svg width="96" height="96" viewBox="0 0 96 96" fill="none" xmlns="http://www.w3.org/2000/svg">
<path d="M48 96C74.5097 96 96 74.5097 96 48C96 21.4903 74.5097 0 48 0C21.4903 0 0 21.4903 0 48C0 74.5097 21.4903 96 48 96Z" fill="#f3f6f9"/>
<g clip-path="url(#clip0_258_1571)">
<path d="M50.7 66.89H32V28H64.3V49.44H61.8V30.5H34.5V64.39H50.7V66.89Z" fill="#2e6bbd"/>
<path d="M54.4919 36.3008H40.6719V38.8008H54.4919V36.3008Z" fill="#2e6bbd"/>
<path d="M54.4919 42.5508H40.6719V45.0508H54.4919V42.5508Z" fill="#2e6bbd"/>
<path d="M54.4919 48.8105H40.6719V51.3105H54.4919V48.8105Z" fill="#2e6bbd"/>
<path d="M48.6319 55.1602H40.6719V57.6602H48.6319V55.1602Z" fill="#2e6bbd"/>
<path d="M60.5945 69.1443L54.543 63.4592L70.9498 46L77.0013 51.6851L60.5945 69.1443ZM57.8694 63.3559L60.4911 65.8178L73.6748 51.7884L71.0531 49.3171L57.8694 63.3465V63.3559Z" fill="#2e6bbd"/>
<path d="M54.1761 71.1826C53.8942 71.1826 53.6123 71.0792 53.3868 70.8819C53.0673 70.5906 52.9357 70.1584 53.0297 69.7355L54.3547 64.2008C54.505 63.5712 55.144 63.1765 55.7736 63.3269C56.4032 63.4772 56.7884 64.1162 56.6381 64.7458L55.8112 68.185L59.1282 67.0292C59.739 66.8131 60.4156 67.142 60.6223 67.7528C60.8385 68.3636 60.5096 69.0401 59.8988 69.2469L54.552 71.1168C54.4298 71.1638 54.2983 71.1826 54.1667 71.1826H54.1761Z" fill="#2e6bbd"/>
</g>
<defs>
<clipPath id="clip0_258_1571">
<rect width="57" height="43" fill="white" transform="translate(20 28)"/>
</clipPath>
</defs>
</svg>
