<svg width="22" height="26" viewBox="0 0 22 26" fill="none" xmlns="http://www.w3.org/2000/svg">
<g clip-path="url(#clip0_306_1953)">
<path d="M8.53271 26C3.85514 26 0 22.1976 0 17.4704C0.359813 9.04348 7.86449 0.513834 8.1729 0.15415C8.3271 -0.0513834 8.68692 -0.0513834 8.84112 0.15415C8.89252 0.205534 10.2804 1.74704 11.8738 4.16206C12.028 4.36759 11.9766 4.67589 11.771 4.77866C11.5654 4.93281 11.3084 4.88142 11.1542 4.67589C10.0234 3.03162 9.04673 1.74704 8.53271 1.18182C7.04206 2.92885 1.23364 10.3794 0.925234 17.4704C0.925234 21.6324 4.36916 25.0751 8.53271 25.0751C11.4112 25.0751 14.0327 23.4822 15.3178 20.913C15.4206 20.7075 15.729 20.6047 15.9346 20.7075C16.1402 20.8103 16.243 21.0672 16.1402 21.3241C14.7009 24.2016 11.771 26 8.53271 26Z" fill="white"/>
<path d="M7.04206 20.143C7.04206 20.143 6.88785 20.143 6.83645 20.0916C6.01402 19.6292 5.5 18.7043 5.5 17.7794C5.5 16.2892 6.68224 15.1074 8.1729 15.1074C9.66355 15.1074 10.8458 16.2892 10.8458 17.7794C10.8458 18.2418 10.743 18.7043 10.486 19.1153C10.3832 19.3209 10.0748 19.4236 9.86916 19.2695C9.66355 19.1667 9.56075 18.8584 9.71495 18.6529C9.86916 18.396 9.97196 18.0877 9.97196 17.7794C9.97196 16.8031 9.20093 16.0323 8.2243 16.0323C7.24766 16.0323 6.47664 16.8031 6.47664 17.7794C6.47664 18.396 6.83645 19.0126 7.35047 19.3209C7.55607 19.4236 7.65888 19.7319 7.50467 19.9375C7.40187 20.0916 7.24766 20.143 7.09346 20.143H7.04206Z" fill="white"/>
<path d="M9.92122 11.7666C8.68757 11.7666 7.71094 10.7903 7.71094 9.55714C7.71094 8.32394 8.68757 7.34766 9.92122 7.34766C11.1549 7.34766 12.1315 8.32394 12.1315 9.55714C12.1315 10.7903 11.1549 11.7666 9.92122 11.7666ZM9.92122 8.27256C9.20159 8.27256 8.63617 8.83778 8.63617 9.55714C8.63617 10.2765 9.20159 10.8417 9.92122 10.8417C10.6408 10.8417 11.2063 10.2765 11.2063 9.55714C11.2063 8.83778 10.6408 8.27256 9.92122 8.27256Z" fill="white"/>
<path d="M16.963 8.47851C15.2668 8.47851 13.8789 7.09116 13.8789 5.3955C13.8789 3.69985 15.2668 2.3125 16.963 2.3125C17.6826 2.3125 18.2995 2.51803 18.8649 2.98048C19.0705 3.13463 19.1219 3.44293 18.9677 3.59708C18.8135 3.80262 18.5051 3.854 18.3509 3.69985C17.9397 3.39155 17.477 3.2374 17.0144 3.2374C15.8322 3.2374 14.8041 4.21369 14.8041 5.44689C14.8041 6.68009 15.7808 7.65637 17.0144 7.65637C17.7854 7.65637 18.5051 7.24531 18.9163 6.57732C19.0191 6.37179 19.3275 6.26902 19.5331 6.42317C19.7387 6.52594 19.8415 6.83424 19.6873 7.03977C19.1219 7.96467 18.0939 8.52989 17.0144 8.52989L16.963 8.47851Z" fill="white"/>
<path d="M19.7904 15.1573C18.6081 15.1573 17.5801 14.181 17.5801 12.9478C17.5801 11.7146 18.5567 10.7383 19.7904 10.7383C21.024 10.7383 22.0006 11.7146 22.0006 12.9478C22.0006 14.181 21.024 15.1573 19.7904 15.1573ZM19.7904 11.7146C19.0707 11.7146 18.5053 12.2798 18.5053 12.9992C18.5053 13.7185 19.0707 14.2837 19.7904 14.2837C20.51 14.2837 21.0754 13.7185 21.0754 12.9992C21.0754 12.2798 20.51 11.7146 19.7904 11.7146Z" fill="white"/>
<path d="M14.7016 18.8583C13.2623 18.8583 12.0801 17.6765 12.0801 16.2377C12.0801 14.799 13.2623 13.6172 14.7016 13.6172C16.1408 13.6172 17.3231 14.799 17.3231 16.2377C17.3231 17.6765 16.1408 18.8583 14.7016 18.8583ZM14.7016 14.4907C13.7249 14.4907 12.9539 15.2615 12.9539 16.2377C12.9539 17.214 13.7249 17.9848 14.7016 17.9848C15.6782 17.9848 16.4492 17.214 16.4492 16.2377C16.4492 15.2615 15.6782 14.4907 14.7016 14.4907Z" fill="white"/>
<path d="M10.3325 17.6759C10.3325 17.6759 10.1783 17.6759 10.0755 17.6245C9.9727 17.5731 9.9213 17.4704 9.8699 17.3676C9.71569 16.6996 9.20167 16.1858 8.53345 16.0316C8.43064 16.0316 8.32784 15.9289 8.22504 15.8261C8.17364 15.7233 8.12223 15.6206 8.17364 15.4664L9.09887 11.2016C9.09887 11.2016 9.40728 10.7905 9.61289 10.8419C10.4867 11.0474 11.2063 10.3795 11.2063 9.55732C11.2063 9.35178 11.1549 9.09487 11.0007 8.88933C10.9493 8.78657 10.8979 8.6838 11.0007 8.52965C11.0007 8.42688 11.1035 8.32412 11.2063 8.27273L14.4961 6.32016C14.4961 6.32016 15.0101 6.26878 15.1129 6.47431C15.5241 7.1423 16.1923 7.55336 17.0148 7.55336C17.2718 7.55336 17.5288 7.55336 17.7858 7.39921C17.8886 7.39921 18.0428 7.39921 18.1456 7.39921C18.2484 7.39921 18.3512 7.55336 18.4026 7.65613L19.7391 11.1502C19.7391 11.1502 19.7391 11.664 19.482 11.7154C18.968 11.921 18.6596 12.3834 18.6596 12.8972C18.6596 13.1542 18.711 13.3597 18.8652 13.5652C18.9166 13.668 18.968 13.7708 18.9166 13.9249C18.9166 14.0277 18.8138 14.1304 18.711 14.1818L16.912 15.3123C16.912 15.3123 16.3979 15.3636 16.2951 15.1581C15.9867 14.6443 15.4213 14.336 14.8559 14.336C13.8792 14.336 13.1082 15.1067 13.1082 16.083C13.1082 16.1858 13.1082 16.3399 13.1596 16.4941C13.211 16.751 13.0568 16.9565 12.7998 17.0593L10.5381 17.5731C10.5381 17.5731 10.4867 17.5731 10.4353 17.5731L10.3325 17.6759ZM9.15027 15.2609C9.81849 15.5178 10.3325 16.0316 10.5895 16.6996L12.0288 16.3399C12.0288 16.3399 12.0288 16.2372 12.0288 16.1858C12.0288 14.747 13.211 13.5652 14.6503 13.5652C15.4213 13.5652 16.0895 13.8735 16.6035 14.4387L17.7344 13.7194C17.7344 13.7194 17.5802 13.2055 17.5802 12.9486C17.5802 12.1779 17.9914 11.5099 18.6082 11.0988L17.5802 8.3755C16.4493 8.63242 15.2671 8.16996 14.5475 7.29645L11.9774 8.83795C11.9774 8.83795 12.0802 9.3004 12.0802 9.55732C12.0802 10.7905 11.1035 11.7668 9.8699 11.7668L9.09887 15.2609H9.15027Z" fill="white"/>
<path d="M13.4153 14.9013C13.4153 14.9013 13.1583 14.8499 13.0555 14.6958L10.5882 11.2531C10.5882 11.2531 10.4854 10.7907 10.691 10.6365C10.8966 10.4824 11.1536 10.5337 11.3078 10.7393L13.7751 14.182C13.7751 14.182 13.8779 14.6444 13.6723 14.7986C13.5695 14.8499 13.5181 14.9013 13.4153 14.9013Z" fill="white"/>
<path d="M15.1639 14.49C15.1639 14.49 15.1125 14.49 15.0611 14.49C14.8041 14.49 14.6499 14.1817 14.7013 13.9762L15.8835 7.91296C15.8835 7.91296 16.1919 7.50189 16.3975 7.55327C16.6545 7.55327 16.8087 7.86157 16.7573 8.06711L15.5751 14.1303C15.5751 14.1303 15.3695 14.49 15.1125 14.49H15.1639Z" fill="white"/>
</g>
<defs>
<clipPath id="clip0_306_1953">
<rect width="22" height="26" fill="white"/>
</clipPath>
</defs>
</svg>
