<svg width="29" height="22" viewBox="0 0 29 22" fill="none" xmlns="http://www.w3.org/2000/svg">
<g clip-path="url(#clip0_306_1918)">
<path d="M14.5817 22.0008C14.5817 22.0008 14.1497 21.8402 14.0956 21.6261C14.0416 21.412 14.0957 21.1979 14.3117 21.0373C14.4737 20.9303 14.6897 20.9303 14.8517 21.0373C15.0677 21.1444 15.1217 21.412 15.0677 21.6261C15.0137 21.8402 14.7977 22.0008 14.5817 22.0008Z" fill="white"/>
<path d="M14.5805 22C14.5805 22 14.4185 22 14.3105 21.9465C7.29005 17.7713 4.10382 13.7032 2.59172 11.0803C1.34963 8.77859 1.34963 6.10219 2.59172 3.80049C3.83381 1.60584 6.04796 0.160584 8.47813 0C8.64014 0 8.80215 0 9.01816 0C11.1783 0 13.1765 0.856448 14.6346 2.40876C16.0927 0.856448 18.0908 0 20.2509 0C20.413 0 20.629 0 20.791 0C23.2751 0.160584 25.4353 1.55231 26.6234 3.74696C27.8655 6.04866 27.9195 8.77859 26.6234 11.0268C25.1653 13.6496 21.9251 17.7178 14.9046 21.9465C14.8506 21.9465 14.7426 22 14.6346 22H14.5805ZM9.01816 1.01703C9.01816 1.01703 8.69414 1.01703 8.58613 1.01703C6.42599 1.17762 4.58986 2.35523 3.56379 4.22871C2.48371 6.20925 2.48371 8.56448 3.56379 10.545C4.96788 13.0608 7.99209 16.8613 14.6346 20.8759C21.331 16.8613 24.3552 13.0073 25.7593 10.545C26.8394 8.56448 26.8394 6.20925 25.7593 4.22871C24.6792 2.3017 22.8971 1.12409 20.737 1.01703C20.575 1.01703 20.413 1.01703 20.3049 1.01703C18.2528 1.01703 16.3627 1.92701 15.1206 3.53285C15.0126 3.6399 14.8506 3.74696 14.7426 3.74696C14.6346 3.74696 14.4185 3.69343 14.3645 3.53285C13.0684 1.92701 11.1783 1.01703 9.18018 1.01703H9.01816Z" fill="white"/>
<path d="M16.579 17.9848C16.579 17.9848 16.2549 17.9313 16.1469 17.7707C15.9849 17.5566 16.0389 17.2354 16.2549 17.0749C18.3611 15.6296 20.0352 14.1308 21.2773 12.5785C21.4393 12.3644 21.7633 12.3109 21.9793 12.525C22.1954 12.7391 22.2494 13.0067 22.0333 13.2208C20.7373 14.8267 18.9551 16.4325 16.795 17.9313C16.687 17.9848 16.579 18.0384 16.525 18.0384L16.579 17.9848Z" fill="white"/>
<path d="M12.1508 15.7899C12.1508 15.7899 12.1508 15.7899 12.0968 15.7899C11.8808 15.7899 11.7188 15.6294 11.6648 15.4153L9.82868 7.06489L7.1825 11.8289C7.1825 11.8289 6.91248 12.0965 6.75047 12.0965H0.486034C0.216015 12.0965 0 11.8824 0 11.6148C0 11.3471 0.216015 11.133 0.486034 11.133H6.42644L9.55866 5.45905C9.55866 5.45905 9.88268 5.19141 10.0987 5.19141C10.3147 5.19141 10.4767 5.35199 10.5307 5.5661L12.3669 13.8629L14.851 9.09895C14.851 9.09895 15.121 8.83131 15.2831 8.83131H28.46C28.73 8.83131 28.946 9.04542 28.946 9.31306C28.946 9.5807 28.73 9.79481 28.46 9.79481H15.6071L12.5829 15.5223C12.5829 15.5223 12.3128 15.7899 12.1508 15.7899Z" fill="white"/>
</g>
<defs>
<clipPath id="clip0_306_1918">
<rect width="29" height="22" fill="white"/>
</clipPath>
</defs>
</svg>
