<svg width="120" height="120" viewBox="0 0 120 120" fill="none" xmlns="http://www.w3.org/2000/svg">
<path d="M0 8C0 3.58172 3.58172 0 8 0H112C116.418 0 120 3.58172 120 8V112C120 116.418 116.418 120 112 120H8C3.58172 120 0 116.418 0 112V8Z" fill="white"/>
<g clip-path="url(#clip0_304_1829)">
<path d="M61.5847 41.1056H44.486V37.7012C44.486 36.4488 43.4754 35.4316 42.231 35.4316H32.9426C31.6982 35.4316 30.6875 36.4488 30.6875 37.7012V60.4057C30.6875 61.6581 31.6982 62.6752 32.9426 62.6752H61.5915C62.8359 62.6752 63.8466 61.6581 63.8466 60.4057V43.3751C63.8466 42.1227 62.8359 41.1056 61.5915 41.1056H61.5847Z" fill="white"/>
<path d="M61.5847 41.1056H44.486V37.7012C44.486 36.4488 43.4754 35.4316 42.231 35.4316H32.9426C31.6982 35.4316 30.6875 36.4488 30.6875 37.7012V60.4057C30.6875 61.6581 31.6982 62.6752 32.9426 62.6752H61.5915C62.8359 62.6752 63.8466 61.6581 63.8466 60.4057V43.3751C63.8466 42.1227 62.8359 41.1056 61.5915 41.1056H61.5847Z" stroke="#438FD2" stroke-width="2"/>
<path d="M61.5846 61.2912H32.9425C32.4613 61.2912 32.0625 60.8968 32.0625 60.4055V37.7079C32.0625 37.2236 32.4544 36.8223 32.9425 36.8223H42.2378C42.7191 36.8223 43.1178 37.2167 43.1178 37.7079V42.4962H61.5915C62.0728 42.4962 62.4715 42.8906 62.4715 43.3819V60.4124C62.4715 60.9037 62.0796 61.2981 61.5915 61.2981L61.5846 61.2912Z" stroke="white"/>
<path d="M75.6775 50.8731H58.5788V47.4688C58.5788 46.2164 57.5682 45.1992 56.3238 45.1992H47.0285C45.7841 45.1992 44.7734 46.2164 44.7734 47.4688V70.1732C44.7734 71.4256 45.7841 72.4428 47.0285 72.4428H75.6775C76.9219 72.4428 77.9325 71.4256 77.9325 70.1732V53.1427C77.9325 51.8903 76.9219 50.8731 75.6775 50.8731Z" fill="#EBF7FE"/>
<path d="M75.6784 73.2987H47.0363C46.555 73.2987 46.1562 72.9043 46.1562 72.4131V47.4686C46.1562 46.9843 46.5481 46.5898 47.0363 46.5898H56.3316C56.8128 46.5898 57.2116 46.9843 57.2116 47.4686V52.2568H75.6852C76.1734 52.2568 76.5653 52.6512 76.5653 53.1425V72.4131C76.5653 72.9043 76.1734 73.2987 75.6852 73.2987H75.6784Z" stroke="white"/>
<path d="M75.6775 50.8731H58.5788V47.4688C58.5788 46.2164 57.5682 45.1992 56.3238 45.1992H47.0285C45.7841 45.1992 44.7734 46.2164 44.7734 47.4688V70.1732C44.7734 71.4256 45.7841 72.4428 47.0285 72.4428H75.6775C76.9219 72.4428 77.9325 71.4256 77.9325 70.1732V53.1427C77.9325 51.8903 76.9219 50.8731 75.6775 50.8731Z" stroke="#438FD2" stroke-width="2" stroke-linejoin="round"/>
<path d="M89.7107 60.5802H72.612V57.1758C72.612 55.9234 71.6014 54.9062 70.357 54.9062H61.0617C59.8173 54.9062 58.8066 55.9234 58.8066 57.1758V79.8803C58.8066 81.1327 59.8173 82.1498 61.0617 82.1498H89.7107C90.9551 82.1498 91.9657 81.1327 91.9657 79.8803V62.8497C91.9657 61.5973 90.9551 60.5802 89.7107 60.5802Z" fill="#D2E5F0"/>
<path d="M89.7116 83.0058H61.0695C60.5882 83.0058 60.1895 82.6114 60.1895 82.1201V57.1756C60.1895 56.6913 60.5813 56.2969 61.0695 56.2969H70.3648C70.846 56.2969 71.2448 56.6913 71.2448 57.1756V61.9639H89.7184C90.2066 61.9639 90.5985 62.3583 90.5985 62.8496V82.1201C90.5985 82.6114 90.2066 83.0058 89.7184 83.0058H89.7116Z" stroke="white"/>
<path d="M89.7107 60.5802H72.612V57.1758C72.612 55.9234 71.6014 54.9062 70.357 54.9062H61.0617C59.8173 54.9062 58.8066 55.9234 58.8066 57.1758V79.8803C58.8066 81.1327 59.8173 82.1498 61.0617 82.1498H89.7107C90.9551 82.1498 91.9657 81.1327 91.9657 79.8803V62.8497C91.9657 61.5973 90.9551 60.5802 89.7107 60.5802Z" stroke="#2F4382" stroke-width="2" stroke-linejoin="round"/>
<path d="M33.3164 69.8398V75.0294" stroke="#438FD2" stroke-width="2" stroke-linejoin="round"/>
<path d="M30.7383 72.4336H35.8947" stroke="#438FD2" stroke-width="2" stroke-linejoin="round"/>
<path d="M46.1664 80.7334L41.7731 75.0664L37.3867 80.7334H39.793V87.0301H43.7532V80.7334H46.1664Z" fill="#2F4382" stroke="#2F4382" stroke-width="2"/>
<path d="M78.0114 41.79L82.4046 47.457L86.791 41.79H84.3847V35.4934H80.4246V41.79H78.0114Z" fill="white" stroke="#438FD2" stroke-width="2"/>
<path d="M81.043 54.2129H83.0505" stroke="#2F4382" stroke-width="2"/>
<path d="M84.9707 54.2129H86.9714" stroke="#2F4382" stroke-width="2"/>
<path d="M88.8965 54.2129H90.8972" stroke="#2F4382" stroke-width="2"/>
<path d="M85.719 89.9988C90.8451 89.9988 95.0005 85.8166 95.0005 80.6576C95.0005 75.4986 90.8451 71.3164 85.719 71.3164C80.593 71.3164 76.4375 75.4986 76.4375 80.6576C76.4375 85.8166 80.593 89.9988 85.719 89.9988Z" fill="#2F4382"/>
<path d="M85.7695 75.8125L86.8822 79.2548L90.567 79.2336L87.5758 81.3443L88.7391 84.7725L85.7695 82.6334L82.8 84.7725L83.956 81.3443L80.9648 79.2336L84.6497 79.2548L85.7695 75.8125Z" fill="white"/>
</g>
<defs>
<clipPath id="clip0_304_1829">
<rect width="65" height="56" fill="white" transform="translate(30 34)"/>
</clipPath>
</defs>
</svg>
