<svg width="19" height="27" viewBox="0 0 19 27" fill="none" xmlns="http://www.w3.org/2000/svg">
<g clip-path="url(#clip0_306_1899)">
<path d="M16.0999 3.38251H11.3888C11.3888 3.38251 10.9746 3.17116 10.9746 2.95981C10.9746 2.74846 11.1817 2.53711 11.3888 2.53711H16.0999C16.0999 2.53711 16.5141 2.74846 16.5141 2.95981C16.5141 3.17116 16.307 3.38251 16.0999 3.38251Z" fill="white"/>
<path d="M9.62879 3.38251H2.89854C2.89854 3.38251 2.48438 3.17116 2.48438 2.95981C2.48438 2.74846 2.69146 2.53711 2.89854 2.53711H9.57702C9.57702 2.53711 9.99119 2.74846 9.99119 2.95981C9.99119 3.17116 9.7841 3.38251 9.57702 3.38251H9.62879Z" fill="white"/>
<path d="M15.2208 6.76337H3.7794C3.7794 6.76337 3.36523 6.55202 3.36523 6.34067C3.36523 6.12932 3.57232 5.91797 3.7794 5.91797H15.2208C15.2208 5.91797 15.635 6.12932 15.635 6.34067C15.635 6.55202 15.4279 6.76337 15.2208 6.76337Z" fill="white"/>
<path d="M13.4083 10.1442H9.83604C9.83604 10.1442 9.42188 9.93288 9.42188 9.72153C9.42188 9.51018 9.62896 9.29883 9.83604 9.29883H13.4083C13.4083 9.29883 13.8224 9.51018 13.8224 9.72153C13.8224 9.93288 13.6153 10.1442 13.4083 10.1442Z" fill="white"/>
<path d="M8.23223 10.1442H5.5919C5.5919 10.1442 5.17773 9.93288 5.17773 9.72153C5.17773 9.51018 5.38482 9.29883 5.5919 9.29883H8.23223C8.23223 9.29883 8.6464 9.51018 8.6464 9.72153C8.6464 9.93288 8.43931 10.1442 8.23223 10.1442Z" fill="white"/>
<path d="M9.52626 13.8963C9.52626 13.8963 9.37095 13.8963 9.31918 13.8434C4.9704 11.2016 2.33008 6.02348 2.33008 0.422701C2.33008 0.21135 2.53716 0 2.74425 0C2.95133 0 3.15842 0.21135 3.15842 0.422701C3.15842 5.65362 5.59166 10.4618 9.52626 12.998C13.4609 10.4618 15.8941 5.65362 15.8941 0.422701C15.8941 0.21135 16.1012 0 16.3083 0C16.5154 0 16.7224 0.21135 16.7224 0.422701C16.7224 6.02348 14.0304 11.2016 9.73335 13.8434C9.68158 13.8434 9.57804 13.8963 9.52626 13.8963Z" fill="white"/>
<path d="M14.6513 12.6284C14.6513 12.6284 14.4442 12.6284 14.3924 12.5227C14.2371 12.3642 14.1854 12.1 14.3924 11.9415C14.5995 11.6773 14.8066 11.4131 15.0137 11.1489C15.169 10.9904 15.4279 10.9376 15.5832 11.0433C15.7385 11.2018 15.7903 11.466 15.635 11.6245C15.4279 11.8887 15.2208 12.1528 15.0137 12.417C14.9102 12.5227 14.8066 12.5756 14.7031 12.5756L14.6513 12.6284Z" fill="white"/>
<path d="M16.6192 9.72268C16.6192 9.72268 16.4639 9.72268 16.4122 9.66984C16.2051 9.56417 16.1533 9.29998 16.2568 9.08863C16.671 8.3489 16.9816 7.60918 17.2923 6.86945C17.3958 6.6581 17.6029 6.55242 17.81 6.60526C18.0171 6.71094 18.1206 6.92229 18.0688 7.13364C17.7582 7.9262 17.3958 8.71876 16.9816 9.45849C16.9299 9.617 16.7746 9.66984 16.6192 9.66984V9.72268Z" fill="white"/>
<path d="M18.3793 5.01961C18.3793 5.01961 18.3275 5.01961 18.2757 5.01961C18.0687 4.96677 17.9133 4.75542 17.9651 4.49123C18.0169 4.17421 18.1204 3.85718 18.1722 3.54016C18.1722 3.32881 18.4311 3.17029 18.6381 3.22313C18.8452 3.22313 19.0005 3.48732 18.9488 3.69867C18.897 4.01569 18.8452 4.38556 18.7417 4.70258C18.7417 4.91393 18.5346 5.01961 18.3275 5.01961H18.3793Z" fill="white"/>
<path d="M5.1247 24.4645H2.89854C2.89854 24.4645 2.48438 24.2532 2.48438 24.0418C2.48438 23.8305 2.69146 23.6191 2.89854 23.6191H5.1247C5.1247 23.6191 5.53887 23.8305 5.53887 24.0418C5.53887 24.2532 5.33179 24.4645 5.1247 24.4645Z" fill="white"/>
<path d="M16.1001 24.4645H6.88487C6.88487 24.4645 6.4707 24.2532 6.4707 24.0418C6.4707 23.8305 6.67779 23.6191 6.88487 23.6191H16.1001C16.1001 23.6191 16.5143 23.8305 16.5143 24.0418C16.5143 24.2532 16.3072 24.4645 16.1001 24.4645Z" fill="white"/>
<path d="M10.7167 21.0817H3.7794C3.7794 21.0817 3.36523 20.8704 3.36523 20.659C3.36523 20.4477 3.57232 20.2363 3.7794 20.2363H10.7167C10.7167 20.2363 11.1309 20.4477 11.1309 20.659C11.1309 20.8704 10.9238 21.0817 10.7167 21.0817Z" fill="white"/>
<path d="M15.2214 21.0817H12.7364C12.7364 21.0817 12.3223 20.8704 12.3223 20.659C12.3223 20.4477 12.5293 20.2363 12.7364 20.2363H15.2214C15.2214 20.2363 15.6356 20.4477 15.6356 20.659C15.6356 20.8704 15.4285 21.0817 15.2214 21.0817Z" fill="white"/>
<path d="M13.4093 17.6481H5.5919C5.5919 17.6481 5.17773 17.4368 5.17773 17.2254C5.17773 17.0141 5.38482 16.8027 5.5919 16.8027H13.4093C13.4093 16.8027 13.8235 17.0141 13.8235 17.2254C13.8235 17.4368 13.6164 17.6481 13.4093 17.6481Z" fill="white"/>
<path d="M16.3083 27.0008C16.3083 27.0008 15.8941 26.7895 15.8941 26.5781C15.8941 21.3472 13.4609 16.539 9.52626 14.0028C5.59166 16.539 3.15842 21.3472 3.15842 26.5781C3.15842 26.7895 2.95133 27.0008 2.74425 27.0008C2.53716 27.0008 2.33008 26.7895 2.33008 26.5781C2.33008 20.9773 5.02218 15.7993 9.31918 13.1574C9.47449 13.0517 9.62981 13.0517 9.73335 13.1574C14.0304 15.7993 16.7224 20.9773 16.7224 26.5781C16.7224 26.7895 16.5154 27.0008 16.3083 27.0008Z" fill="white"/>
<path d="M3.77955 16.0095C3.77955 16.0095 3.62423 16.0095 3.52069 15.9038C3.36538 15.7453 3.31361 15.4811 3.41715 15.3226C3.62423 15.0584 3.83132 14.7942 4.0384 14.53C4.19372 14.3715 4.45257 14.3187 4.60789 14.53C4.7632 14.6885 4.81497 14.9527 4.60789 15.1112C4.4008 15.3754 4.19372 15.6396 3.98663 15.9038C3.88309 16.0095 3.77955 16.0623 3.67601 16.0623L3.77955 16.0095Z" fill="white"/>
<path d="M1.34533 20.3947C1.34533 20.3947 1.24179 20.3947 1.19002 20.3947C0.982933 20.289 0.879391 20.0776 0.931162 19.8663C1.24179 19.0737 1.60419 18.2812 2.01836 17.5414C2.1219 17.3301 2.38075 17.2772 2.58784 17.3829C2.79492 17.4886 2.84669 17.7528 2.74315 17.9641C2.32898 18.7039 2.01836 19.4436 1.70773 20.1833C1.65596 20.3418 1.50064 20.4475 1.34533 20.4475V20.3947Z" fill="white"/>
<path d="M0.413447 23.7774C0.413447 23.7774 0.413447 23.7774 0.361676 23.7774C0.154592 23.7774 -0.000721482 23.5132 0.0510496 23.3019C0.102821 22.9849 0.154592 22.615 0.258134 22.298C0.258134 22.0866 0.51699 21.9281 0.775845 21.9809C0.98293 22.0338 1.13824 22.2451 1.08647 22.5093C1.0347 22.8263 0.931159 23.1434 0.879387 23.4604C0.879387 23.6717 0.672303 23.8303 0.465219 23.8303L0.413447 23.7774Z" fill="white"/>
</g>
<defs>
<clipPath id="clip0_306_1899">
<rect width="19" height="27" fill="white"/>
</clipPath>
</defs>
</svg>
