<svg width="104" height="62" viewBox="0 0 104 62" fill="none" xmlns="http://www.w3.org/2000/svg">
<path d="M75 4.24388C75 3.00725 74.1305 2 73.063 2H13.937C12.8695 2 12 3.00725 12 4.24388V57H75V4.24388Z" fill="white" stroke="#A9D1EA" stroke-width="2"/>
<path d="M7 56V57.8261C7 59.0242 7.78653 60 8.75456 60H78.2368C79.2048 60 80 59.0242 80 57.8261V56H7Z" stroke="#2F4382" stroke-width="2"/>
<path d="M72 5H15V53H72V5Z" fill="#DCEAF4"/>
<path d="M50.4588 46.8173C50.5592 35.4388 46.1195 32.143 42.8845 29.4301C39.6496 26.7172 35.2099 23.4214 35.3103 12.043" stroke="#2F4382" stroke-width="2.5" stroke-linecap="round" stroke-linejoin="round"/>
<path d="M35 46.864C35.1004 35.4856 39.607 32.1673 42.8866 29.432C46.1662 26.7079 50.6728 23.3784 50.7732 12" stroke="#2F4382" stroke-width="2.5" stroke-linecap="round" stroke-linejoin="round"/>
<path d="M35.5469 14.2987L50.6061 14.2539" stroke="#2F4382" stroke-width="2.5" stroke-linecap="round" stroke-linejoin="round"/>
<path d="M37.0625 21.4731L49.2661 21.4395" stroke="#2F4382" stroke-width="2.5" stroke-linecap="round" stroke-linejoin="round"/>
<path d="M37.3086 36.6391L48.419 36.6055" stroke="#2F4382" stroke-width="2.5" stroke-linecap="round" stroke-linejoin="round"/>
<path d="M35.2793 43.8261L50.3386 43.7812" stroke="#2F4382" stroke-width="2.5" stroke-linecap="round" stroke-linejoin="round"/>
<path d="M24.7503 27.4102H1.57031V46.6202H24.7503V27.4102Z" fill="white" stroke="#438FD2" stroke-width="2"/>
<path d="M18.0698 25.1191H8.25977V30.2291H18.0698V25.1191Z" fill="#2F4382"/>
<path d="M7.07031 34.5996H9.51031" stroke="#438FD2" stroke-width="2"/>
<path d="M11.9395 34.5996H19.2495" stroke="#438FD2" stroke-width="2"/>
<path d="M7.07031 39.9102H9.51031" stroke="#438FD2" stroke-width="2"/>
<path d="M11.9395 39.9102H19.2495" stroke="#438FD2" stroke-width="2"/>
<path d="M94.9498 21.2493C94.9498 22.6193 93.8398 23.7193 92.4798 23.7193C91.1198 23.7193 90.0098 22.6093 90.0098 21.2493C90.0098 19.8893 91.1198 18.7793 92.4798 18.7793C93.8398 18.7793 94.9498 19.8893 94.9498 21.2493Z" fill="#A9D1EA"/>
<g clip-path="url(#clip0_302_1707)">
<path d="M75.1012 28.4261L72.3457 31.1953L85.8216 44.7379L88.5771 41.9688L75.1012 28.4261Z" fill="white" stroke="#438FD2" stroke-width="2"/>
<path d="M78.7766 17.5223C83.5456 22.315 83.5456 30.0821 78.7766 34.8748C74.0075 39.6675 66.2786 39.6675 61.5095 34.8748C56.7312 30.0914 56.7312 22.3243 61.5095 17.5223C66.2786 12.7296 74.0075 12.7296 78.7766 17.5223Z" fill="white" stroke="#438FD2" stroke-width="2"/>
<path d="M76.7258 19.5929C80.363 23.248 80.363 29.169 76.7258 32.8241C73.0887 36.4793 67.197 36.4699 63.5599 32.8241C59.9228 29.169 59.9228 23.248 63.5599 19.5929C67.197 15.9378 73.0887 15.9378 76.7258 19.5929Z" fill="#A9D1EA"/>
<path d="M64.0137 25.3446C64.0137 23.9833 64.5333 22.6312 65.5539 21.5962C66.5838 20.5612 67.9291 20.0391 69.2838 20.0391" stroke="white" stroke-width="2" stroke-linecap="round" stroke-linejoin="round"/>
<path d="M86.4322 37.6627L81.5312 42.5879L95.7747 56.9019L100.676 51.9767L86.4322 37.6627Z" fill="#D2E5F0" stroke="#438FD2" stroke-width="2"/>
</g>
<defs>
<clipPath id="clip0_302_1707">
<rect width="44.9907" height="45.2136" fill="white" transform="translate(57 13)"/>
</clipPath>
</defs>
</svg>
