<svg width="88" height="75" viewBox="0 0 88 75" fill="none" xmlns="http://www.w3.org/2000/svg">
<g clip-path="url(#clip0_302_1600)">
<path d="M42.7621 9.51696H19.6129V4.95756C19.6129 3.28023 18.2446 1.91797 16.5599 1.91797H3.98469C2.29993 1.91797 0.931641 3.28023 0.931641 4.95756V35.3653C0.931641 37.0427 2.29993 38.4049 3.98469 38.4049H42.7714C44.4561 38.4049 45.8244 37.0427 45.8244 35.3653V12.5566C45.8244 10.8792 44.4561 9.51696 42.7714 9.51696H42.7621Z" fill="white"/>
<path d="M42.7621 9.51696H19.6129V4.95756C19.6129 3.28023 18.2446 1.91797 16.5599 1.91797H3.98469C2.29993 1.91797 0.931641 3.28023 0.931641 4.95756V35.3653C0.931641 37.0427 2.29993 38.4049 3.98469 38.4049H42.7714C44.4561 38.4049 45.8244 37.0427 45.8244 35.3653V12.5566C45.8244 10.8792 44.4561 9.51696 42.7714 9.51696H42.7621Z" stroke="#438FD2" stroke-width="2"/>
<path d="M42.7618 36.5501H3.9844C3.33284 36.5501 2.79297 36.0219 2.79297 35.364V4.96548C2.79297 4.31679 3.32353 3.7793 3.9844 3.7793H16.5689C17.2205 3.7793 17.7603 4.30752 17.7603 4.96548V11.3783H42.7711C43.4227 11.3783 43.9625 11.9065 43.9625 12.5645V35.3732C43.9625 36.0312 43.432 36.5594 42.7711 36.5594L42.7618 36.5501Z" stroke="white"/>
<path d="M61.8397 22.599H38.6906V18.0396C38.6906 16.3623 37.3223 15 35.6375 15H23.053C21.3683 15 20 16.3623 20 18.0396V48.4473C20 50.1247 21.3683 51.4869 23.053 51.4869H61.8397C63.5245 51.4869 64.8928 50.1247 64.8928 48.4473V25.6386C64.8928 23.9612 63.5245 22.599 61.8397 22.599Z" fill="#EBF7FE"/>
<path d="M61.8399 52.6341H23.0625C22.411 52.6341 21.8711 52.1059 21.8711 51.4479V18.0402C21.8711 17.3915 22.4017 16.8633 23.0625 16.8633H35.647C36.2986 16.8633 36.8385 17.3915 36.8385 18.0402V24.453H61.8492C62.5101 24.453 63.0407 24.9812 63.0407 25.6392V51.4479C63.0407 52.1059 62.5101 52.6341 61.8492 52.6341H61.8399Z" stroke="white"/>
<path d="M61.8397 22.599H38.6906V18.0396C38.6906 16.3623 37.3223 15 35.6375 15H23.053C21.3683 15 20 16.3623 20 18.0396V48.4473C20 50.1247 21.3683 51.4869 23.053 51.4869H61.8397C63.5245 51.4869 64.8928 50.1247 64.8928 48.4473V25.6386C64.8928 23.9612 63.5245 22.599 61.8397 22.599Z" stroke="#438FD2" stroke-width="2" stroke-linejoin="round"/>
<path d="M80.8397 35.599H57.6906V31.0396C57.6906 29.3623 56.3223 28 54.6375 28H42.053C40.3683 28 39 29.3623 39 31.0396V61.4473C39 63.1247 40.3683 64.4869 42.053 64.4869H80.8397C82.5245 64.4869 83.8928 63.1247 83.8928 61.4473V38.6386C83.8928 36.9612 82.5245 35.599 80.8397 35.599Z" fill="#D2E5F0"/>
<path d="M80.8399 65.6341H42.0625C41.411 65.6341 40.8711 65.1059 40.8711 64.4479V31.0402C40.8711 30.3915 41.4017 29.8633 42.0625 29.8633H54.647C55.2986 29.8633 55.8385 30.3915 55.8385 31.0402V37.453H80.8492C81.5101 37.453 82.0407 37.9812 82.0407 38.6392V64.4479C82.0407 65.1059 81.5101 65.6341 80.8492 65.6341H80.8399Z" stroke="white"/>
<path d="M80.8397 35.599H57.6906V31.0396C57.6906 29.3623 56.3223 28 54.6375 28H42.053C40.3683 28 39 29.3623 39 31.0396V61.4473C39 63.1247 40.3683 64.4869 42.053 64.4869H80.8397C82.5245 64.4869 83.8928 63.1247 83.8928 61.4473V38.6386C83.8928 36.9612 82.5245 35.599 80.8397 35.599Z" stroke="#2F4382" stroke-width="2" stroke-linejoin="round"/>
<path d="M4.49023 48V54.9503" stroke="#438FD2" stroke-width="2" stroke-linejoin="round"/>
<path d="M1 51.4746H7.98105" stroke="#438FD2" stroke-width="2" stroke-linejoin="round"/>
<path d="M21.8864 62.5897L15.9385 55L10 62.5897H13.2578V71.0228H18.6193V62.5897H21.8864Z" fill="#2F4382" stroke="#2F4382" stroke-width="2"/>
<path d="M65.0003 10.4337L70.9482 18.0234L76.8867 10.4337H73.6289V2.00069H68.2675V10.4337H65.0003Z" fill="white" stroke="#438FD2" stroke-width="2"/>
<path d="M69.1055 27.0703H71.8234" stroke="#2F4382" stroke-width="2"/>
<path d="M74.4219 27.0703H77.1305" stroke="#2F4382" stroke-width="2"/>
<path d="M79.7363 27.0703H82.445" stroke="#2F4382" stroke-width="2"/>
<path d="M75.435 74.9996C82.375 74.9996 88.0009 69.3984 88.0009 62.489C88.0009 55.5797 82.375 49.9785 75.435 49.9785C68.4951 49.9785 62.8691 55.5797 62.8691 62.489C62.8691 69.3984 68.4951 74.9996 75.435 74.9996Z" fill="#2F4382"/>
<path d="M75.5049 56L77.0113 60.6103L82 60.5818L77.9503 63.4087L79.5252 68L75.5049 65.1352L71.4846 68L73.0497 63.4087L69 60.5818L73.9887 60.6103L75.5049 56Z" fill="white"/>
</g>
<defs>
<clipPath id="clip0_302_1600">
<rect width="88.0009" height="75" fill="white"/>
</clipPath>
</defs>
</svg>
