<svg width="24" height="28" viewBox="0 0 24 28" fill="none" xmlns="http://www.w3.org/2000/svg">
<g clip-path="url(#clip0_306_1942)">
<path d="M8.97355 22.2724C7.46004 22.2724 6.2168 21.0527 6.2168 19.5678C6.2168 18.083 7.46004 16.8633 8.97355 16.8633C10.4871 16.8633 11.7303 18.083 11.7303 19.5678C11.7303 21.0527 10.4871 22.2724 8.97355 22.2724ZM8.97355 17.8178C7.94653 17.8178 7.13572 18.6133 7.13572 19.6209C7.13572 20.6284 7.94653 21.4239 8.97355 21.4239C10.0006 21.4239 10.8114 20.6284 10.8114 19.6209C10.8114 18.6133 10.0006 17.8178 8.97355 17.8178Z" fill="white"/>
<path d="M18.9194 22.2731H8.97345C8.97345 22.2731 8.54102 22.061 8.54102 21.8488C8.54102 21.6367 8.75723 21.4246 8.97345 21.4246H18.9194C19.6221 21.4246 20.1626 20.8943 20.1626 20.2049C20.1626 19.5155 19.568 18.9852 18.9194 18.9852H10.9194C10.9194 18.9852 10.487 18.7731 10.487 18.561C10.487 18.3488 10.7032 18.1367 10.9194 18.1367H18.9194C20.1086 18.1367 21.0816 19.0913 21.0816 20.2579C21.0816 21.4246 20.1086 22.3791 18.9194 22.3791V22.2731Z" fill="white"/>
<path d="M7.1344 21.3707C7.1344 21.3707 7.1344 21.3707 7.08034 21.3707C3.18845 20.8404 0.269531 17.5525 0.269531 13.7343C0.269531 9.49189 3.8371 6.04492 8.16142 6.04492H9.72899C9.72899 6.04492 10.0533 6.15098 10.1074 6.25704C10.1614 6.41613 10.1614 6.57522 10.1074 6.73432C9.8371 7.10553 9.72899 7.52977 9.72899 8.00704C9.72899 8.48432 9.8371 8.85553 10.1074 9.22674C10.2155 9.38583 10.2155 9.54492 10.1074 9.70401C10.0533 9.8631 9.89115 9.91613 9.72899 9.91613H8.32358C6.10737 9.91613 4.26953 11.6661 4.26953 13.8934C4.26953 15.7495 5.56683 17.3404 7.40467 17.7646C7.56683 17.7646 7.67494 17.9237 7.72899 18.0828C7.72899 18.2419 7.72899 18.401 7.62088 18.507C7.29656 18.8252 7.1344 19.2495 7.1344 19.7267C7.1344 20.098 7.2425 20.4692 7.45872 20.7873C7.56683 20.9464 7.56683 21.1055 7.45872 21.2646C7.35061 21.4237 7.2425 21.4767 7.08034 21.4767L7.1344 21.3707ZM8.16142 6.94644C4.32359 6.94644 1.18845 9.96916 1.18845 13.7343C1.18845 16.8101 3.35061 19.5146 6.32358 20.3101C6.26953 20.098 6.21548 19.8328 6.21548 19.6207C6.21548 19.1964 6.32359 18.7722 6.5398 18.401C4.59386 17.7116 3.29656 15.9086 3.29656 13.8404C3.29656 11.1889 5.51277 9.01462 8.21548 9.01462H8.91818C8.81007 8.69644 8.75602 8.32523 8.75602 8.00704C8.75602 7.68886 8.81007 7.31765 8.91818 6.94644H8.10737H8.16142Z" fill="white"/>
<path d="M12.1078 11.1884C10.27 11.1884 8.81055 9.75663 8.81055 7.9536C8.81055 6.15057 10.27 4.71875 12.1078 4.71875C13.9457 4.71875 15.4051 6.15057 15.4051 7.9536C15.4051 9.75663 13.9457 11.1884 12.1078 11.1884ZM12.1078 5.62026C10.8105 5.62026 9.72947 6.68087 9.72947 7.9536C9.72947 9.22633 10.8105 10.2869 12.1078 10.2869C13.4051 10.2869 14.4862 9.22633 14.4862 7.9536C14.4862 6.68087 13.4051 5.62026 12.1078 5.62026Z" fill="white"/>
<path d="M12.1073 9.59842C11.1884 9.59842 10.4316 8.856 10.4316 7.95449C10.4316 7.05297 11.1884 6.31055 12.1073 6.31055C13.0262 6.31055 13.783 7.05297 13.783 7.95449C13.783 8.856 13.0262 9.59842 12.1073 9.59842ZM12.1073 7.21206C11.6749 7.21206 11.3506 7.53024 11.3506 7.95449C11.3506 8.37873 11.6749 8.69691 12.1073 8.69691C12.5397 8.69691 12.8641 8.37873 12.8641 7.95449C12.8641 7.53024 12.5397 7.21206 12.1073 7.21206Z" fill="white"/>
<path d="M16.2712 2.91667H13.6766C13.6766 2.91667 13.2441 2.70455 13.2441 2.49242V0.424242C13.2441 0.424242 13.4604 0 13.6766 0H16.2712C16.2712 0 16.7036 0.212121 16.7036 0.424242V2.49242C16.7036 2.49242 16.4874 2.91667 16.2712 2.91667ZM14.109 2.01515H15.8387V0.848485H14.109V2.01515Z" fill="white"/>
<path d="M15.5136 16.5987H14.1623C12.7569 16.5987 11.6758 15.485 11.6758 14.1593V10.7653C11.6758 10.7653 11.892 10.3411 12.1082 10.3411C13.4055 10.3411 14.4866 9.28048 14.4866 8.00775C14.4866 6.73503 13.4055 5.67442 12.1082 5.67442C11.8379 5.67442 11.6758 5.4623 11.6758 5.25018V2.4926C11.6758 2.4926 11.892 2.06836 12.1082 2.06836H17.5677C17.5677 2.06836 18.0001 2.28048 18.0001 2.4926V14.1593C18.0001 15.5381 16.865 16.5987 15.5136 16.5987ZM12.5406 11.1896V14.1593C12.5406 15.0078 13.2433 15.7502 14.1623 15.7502H15.5136C16.3785 15.7502 17.1352 15.0608 17.1352 14.1593V2.91684H12.5406V4.71987C14.1623 4.932 15.4055 6.31078 15.4055 7.95472C15.4055 9.59866 14.1623 10.9244 12.5406 11.1896Z" fill="white"/>
<path d="M15.9454 14.159H12.0535C12.0535 14.159 11.6211 13.9469 11.6211 13.7348C11.6211 13.5227 11.8373 13.3105 12.0535 13.3105H15.9454C15.9454 13.3105 16.3778 13.5227 16.3778 13.7348C16.3778 13.9469 16.1616 14.159 15.9454 14.159Z" fill="white"/>
<path d="M23.5135 27.9996H0.432432C0.432432 27.9996 0 27.7875 0 27.5753V23.6511C0 22.4314 1.02703 21.4238 2.27027 21.4238H21.6757C22.9189 21.4238 23.9459 22.4314 23.9459 23.6511V27.5753C23.9459 27.5753 23.7297 27.9996 23.5135 27.9996ZM0.918919 27.0981H23.0811V23.5981C23.0811 22.8556 22.4865 22.2723 21.7297 22.2723H2.27027C1.51351 22.2723 0.918919 22.8556 0.918919 23.5981V27.0981Z" fill="white"/>
<path d="M17.5676 25.1356H0.432432C0.432432 25.1356 0 24.9235 0 24.7114C0 24.4992 0.216216 24.2871 0.432432 24.2871H17.5676C17.5676 24.2871 18 24.4992 18 24.7114C18 24.9235 17.7838 25.1356 17.5676 25.1356Z" fill="white"/>
</g>
<defs>
<clipPath id="clip0_306_1942">
<rect width="24" height="28" fill="white"/>
</clipPath>
</defs>
</svg>
