<svg width="78" height="64" viewBox="0 0 78 64" fill="none" xmlns="http://www.w3.org/2000/svg">
<g clip-path="url(#clip0_277_1477)">
<path d="M13.0917 50.9198V55.9498C13.0917 58.7398 10.8317 60.9898 8.05172 60.9898C5.26172 60.9898 3.01172 58.7298 3.01172 55.9498V46.5898" stroke="#074895" stroke-width="6" stroke-linecap="round" stroke-linejoin="round"/>
<path d="M23.3617 50.9209H8.77172C5.59172 50.9209 3.01172 48.3409 3.01172 45.1609V32.9809C3.01172 31.6909 3.44172 30.4409 4.23172 29.4309L11.6517 20.9609H65.4417L72.8617 29.4309C73.6517 30.4409 74.0817 31.6909 74.0817 32.9809V45.1609C74.0817 48.3409 71.5017 50.9209 68.3217 50.9209H53.1917" stroke="#074895" stroke-width="6" stroke-linecap="round" stroke-linejoin="round"/>
<path d="M74.08 46.5996V55.9596C74.08 58.7496 71.82 60.9996 69.04 60.9996C66.25 60.9996 64 58.7396 64 55.9596V50.9296" stroke="#074895" stroke-width="6" stroke-linecap="round" stroke-linejoin="round"/>
<path d="M11.6484 20.95L18.8084 6.36C19.8184 4.31 21.9084 3 24.1984 3H52.8884C55.1784 3 57.2684 4.3 58.2784 6.36L65.4384 20.95" stroke="#074895" stroke-width="6" stroke-linecap="round" stroke-linejoin="round"/>
<path d="M53.1884 45.1602H23.8984V54.8502H53.1884V45.1602Z" stroke="#074895" stroke-width="6" stroke-linecap="round" stroke-linejoin="round"/>
<path d="M12.3083 20.9492L4.23828 16.9492" stroke="#074895" stroke-width="6" stroke-linecap="round" stroke-linejoin="round"/>
<path d="M65.1289 20.9492L73.1989 16.9492" stroke="#074895" stroke-width="6" stroke-linecap="round" stroke-linejoin="round"/>
<path d="M21.6698 34.0498C21.6698 36.2798 19.8598 38.0898 17.6298 38.0898C15.3998 38.0898 13.5898 36.2798 13.5898 34.0498C13.5898 31.8198 15.3998 30.0098 17.6298 30.0098C19.8598 30.0098 21.6698 31.8198 21.6698 34.0498Z" fill="#074895" stroke="#074895" stroke-miterlimit="10"/>
<path d="M63.4784 34.0498C63.4784 36.2798 61.6684 38.0898 59.4384 38.0898C57.2084 38.0898 55.3984 36.2798 55.3984 34.0498C55.3984 31.8198 57.2084 30.0098 59.4384 30.0098C61.6684 30.0098 63.4784 31.8198 63.4784 34.0498Z" fill="#074895" stroke="#074895" stroke-miterlimit="10"/>
<path d="M46.412 37.8909H30.662C29.152 37.8909 27.822 36.9309 27.342 35.5009L26.022 31.5409C25.802 30.8909 26.292 30.2109 26.982 30.2109H50.1019C50.7919 30.2109 51.272 30.8809 51.062 31.5409L49.742 35.5009C49.262 36.9309 47.9319 37.8909 46.4219 37.8909H46.412Z" fill="#074895" stroke="#074895" stroke-miterlimit="10"/>
</g>
<defs>
<clipPath id="clip0_277_1477">
<rect width="77.08" height="64" fill="white"/>
</clipPath>
</defs>
</svg>
