<svg width="17" height="17" viewBox="0 0 17 17" fill="none" xmlns="http://www.w3.org/2000/svg">
<path d="M14.1667 14.1667C14.9458 14.1667 15.5762 13.5292 15.5762 12.7501L15.5833 4.95841C15.5833 4.17925 14.9458 3.54175 14.1667 3.54175H2.83333C2.05417 3.54175 1.41667 4.17925 1.41667 4.95841V12.7501C1.41667 13.5292 2.05417 14.1667 2.83333 14.1667H0C0 14.9459 0.6375 15.5834 1.41667 15.5834H15.5833C16.3625 15.5834 17 14.9459 17 14.1667H14.1667ZM2.83333 4.95841H14.1667V12.7501H2.83333V4.95841ZM8.5 14.8751C8.11042 14.8751 7.79167 14.5563 7.79167 14.1667C7.79167 13.7772 8.11042 13.4584 8.5 13.4584C8.88958 13.4584 9.20833 13.7772 9.20833 14.1667C9.20833 14.5563 8.88958 14.8751 8.5 14.8751Z" fill="white"/>
<path d="M12.3952 6.375H4.60352V7.4375H12.3952V6.375Z" fill="white"/>
<path d="M9.91602 8.323H4.60352V9.3855H9.91602V8.323Z" fill="white"/>
<path d="M10.6243 10.2708H4.60352V11.3333H10.6243V10.2708Z" fill="white"/>
<path d="M12.3958 8.323H10.625V9.3855H12.3958V8.323Z" fill="white"/>
</svg>
