<svg width="22" height="22" viewBox="0 0 22 22" fill="none" xmlns="http://www.w3.org/2000/svg">
<path d="M19.4108 12.0771C19.4579 11.7333 19.4815 11.3781 19.4815 11C19.4815 10.6333 19.4579 10.2667 19.399 9.92292L21.7903 8.1125C22.0024 7.95208 22.0613 7.64271 21.9317 7.41354L19.67 3.60937C19.5286 3.35729 19.2341 3.27708 18.9749 3.35729L16.1596 4.45729C15.5706 4.02187 14.9462 3.65521 14.2512 3.38021L13.8272 0.469791C13.78 0.194791 13.5444 0 13.2617 0H8.73827C8.45556 0 8.23174 0.194791 8.18462 0.469791L7.76055 3.38021C7.06554 3.65521 6.42943 4.03333 5.85222 4.45729L3.03684 3.35729C2.77768 3.26562 2.48319 3.35729 2.34183 3.60937L0.091883 7.41354C-0.0494749 7.65417 -0.00235569 7.95208 0.233241 8.1125L2.62455 9.92292C2.56565 10.2667 2.51853 10.6448 2.51853 11C2.51853 11.3552 2.54209 11.7333 2.60099 12.0771L0.209681 13.8875C-0.00235567 14.0479 -0.0612547 14.3573 0.0683234 14.5865L2.33005 18.3906C2.47141 18.6427 2.7659 18.7229 3.02506 18.6427L5.84044 17.5427C6.42943 17.9781 7.05376 18.3448 7.74877 18.6198L8.17284 21.5302C8.23174 21.8052 8.45556 22 8.73827 22H13.2617C13.5444 22 13.78 21.8052 13.8154 21.5302L14.2395 18.6198C14.9345 18.3448 15.5706 17.9781 16.1478 17.5427L18.9632 18.6427C19.2223 18.7344 19.5168 18.6427 19.6582 18.3906L21.9199 14.5865C22.0613 14.3344 22.0024 14.0479 21.7785 13.8875L19.4108 12.0771ZM11 15.125C8.6676 15.125 6.75926 13.2687 6.75926 11C6.75926 8.73125 8.6676 6.875 11 6.875C13.3324 6.875 15.2407 8.73125 15.2407 11C15.2407 13.2687 13.3324 15.125 11 15.125Z" fill="#111827" fill-opacity="0.7"/>
</svg>
