<svg width="17" height="17" viewBox="0 0 17 17" fill="none" xmlns="http://www.w3.org/2000/svg">
<path d="M15.4545 6.80005C14.3341 6.80005 13.7082 7.88805 13.9632 8.69649L11.22 11.3863C10.9882 11.3183 10.6482 11.3183 10.4164 11.3863L8.44591 9.4596C8.70864 8.65116 8.08273 7.5556 6.95455 7.5556C5.83409 7.5556 5.20045 8.6436 5.46318 9.4596L1.93955 12.8974C1.11273 12.648 0 13.26 0 14.3556C0 15.1867 0.695455 15.8667 1.54545 15.8667C2.66591 15.8667 3.29182 14.7787 3.03682 13.9703L6.55273 10.5249C6.78454 10.5929 7.12455 10.5929 7.35636 10.5249L9.32682 12.4516C9.06409 13.26 9.69 14.3556 10.8182 14.3556C11.9386 14.3556 12.5723 13.2676 12.3095 12.4516L15.0605 9.76938C15.8873 10.0187 17 9.40672 17 8.31116C17 7.48005 16.3045 6.80005 15.4545 6.80005Z" fill="white"/>
<path d="M13.6009 1.1333C12.7792 1.1333 12.3202 1.9493 12.5072 2.55563L10.4956 4.57296C10.3256 4.52196 10.0762 4.52196 9.90622 4.57296L8.46125 3.12796C8.65394 2.52163 8.19493 1.69996 7.36761 1.69996C6.54591 1.69996 6.08125 2.51597 6.27391 3.12796L3.68991 5.70629C3.08358 5.51929 2.26758 5.9783 2.26758 6.79993C2.26758 7.42326 2.77758 7.9333 3.40091 7.9333C4.22258 7.9333 4.68158 7.11728 4.49458 6.51094L7.07293 3.92696C7.24295 3.97796 7.49228 3.97796 7.66222 3.92696L9.10726 5.37195C8.91457 5.9783 9.37358 6.79993 10.2009 6.79993C11.0226 6.79993 11.4872 5.98399 11.2946 5.37195L13.3119 3.36029C13.9182 3.54729 14.7342 3.08829 14.7342 2.26663C14.7342 1.6433 14.2243 1.1333 13.6009 1.1333Z" fill="white"/>
</svg>
