<svg width="22" height="22" viewBox="0 0 22 22" fill="none" xmlns="http://www.w3.org/2000/svg">
<path d="M1.22222 12.2222H8.55556C9.22778 12.2222 9.77778 11.6722 9.77778 11V1.22222C9.77778 0.55 9.22778 0 8.55556 0H1.22222C0.55 0 0 0.55 0 1.22222V11C0 11.6722 0.55 12.2222 1.22222 12.2222ZM1.22222 22H8.55556C9.22778 22 9.77778 21.45 9.77778 20.7778V15.8889C9.77778 15.2167 9.22778 14.6667 8.55556 14.6667H1.22222C0.55 14.6667 0 15.2167 0 15.8889V20.7778C0 21.45 0.55 22 1.22222 22ZM13.4444 22H20.7778C21.45 22 22 21.45 22 20.7778V11C22 10.3278 21.45 9.77778 20.7778 9.77778H13.4444C12.7722 9.77778 12.2222 10.3278 12.2222 11V20.7778C12.2222 21.45 12.7722 22 13.4444 22ZM12.2222 1.22222V6.11111C12.2222 6.78333 12.7722 7.33333 13.4444 7.33333H20.7778C21.45 7.33333 22 6.78333 22 6.11111V1.22222C22 0.55 21.45 0 20.7778 0H13.4444C12.7722 0 12.2222 0.55 12.2222 1.22222Z" fill="white"/>
</svg>
