<svg width="22" height="22" viewBox="0 0 22 22" fill="none" xmlns="http://www.w3.org/2000/svg">
<g clip-path="url(#clip0_311_2100)">
<path d="M0 2.44444V19.5556C0 20.9 1.08778 22 2.44444 22H19.5556C20.9 22 22 20.9 22 19.5556V2.44444C22 1.1 20.9 0 19.5556 0H2.44444C1.08778 0 0 1.1 0 2.44444ZM14.6667 7.33333C14.6667 9.36222 13.0289 11 11 11C8.97111 11 7.33333 9.36222 7.33333 7.33333C7.33333 5.30444 8.97111 3.66667 11 3.66667C13.0289 3.66667 14.6667 5.30444 14.6667 7.33333ZM3.66667 17.1111C3.66667 14.6667 8.55556 13.3222 11 13.3222C13.4444 13.3222 18.3333 14.6667 18.3333 17.1111V18.3333H3.66667V17.1111Z" fill="#565B65"/>
</g>
<defs>
<clipPath id="clip0_311_2100">
<rect width="22" height="22" fill="white"/>
</clipPath>
</defs>
</svg>
