<svg width="15" height="15" viewBox="0 0 15 15" fill="none" xmlns="http://www.w3.org/2000/svg">
<g clip-path="url(#clip0_17_10242)">
<path d="M6.80567 9.99949H8.19455V11.3883H6.80567V9.99949ZM6.80567 4.4439H8.19455V8.61057H6.80567V4.4439ZM7.49317 0.97168C3.65983 0.97168 0.555664 4.08279 0.555664 7.91612C0.555664 11.7495 3.65983 14.8606 7.49317 14.8606C11.3335 14.8606 14.4446 11.7495 14.4446 7.91612C14.4446 4.08279 11.3335 0.97168 7.49317 0.97168ZM7.50011 13.4717C4.43067 13.4717 1.94455 10.9856 1.94455 7.91612C1.94455 4.84668 4.43067 2.36057 7.50011 2.36057C10.5696 2.36057 13.0556 4.84668 13.0556 7.91612C13.0556 10.9856 10.5696 13.4717 7.50011 13.4717Z" fill="#ABABAB"/>
</g>
<defs>
<clipPath id="clip0_17_10242">
<rect width="15" height="14.1667" fill="white" transform="translate(0 0.833008)"/>
</clipPath>
</defs>
</svg>
