<svg width="17" height="16" viewBox="0 0 17 16" fill="none" xmlns="http://www.w3.org/2000/svg">
<path d="M14.6169 8.78333C14.6512 8.53333 14.6683 8.275 14.6683 8C14.6683 7.73333 14.6512 7.46667 14.6084 7.21667L16.3475 5.9C16.5017 5.78333 16.5445 5.55833 16.4503 5.39167L14.8054 2.625C14.7026 2.44167 14.4884 2.38333 14.3 2.44167L12.2524 3.24167C11.8241 2.925 11.37 2.65833 10.8645 2.45833L10.5561 0.341667C10.5218 0.141667 10.3505 0 10.1449 0H6.85511C6.6495 0 6.48672 0.141667 6.45245 0.341667L6.14403 2.45833C5.63857 2.65833 5.17595 2.93333 4.75616 3.24167L2.70861 2.44167C2.52013 2.375 2.30595 2.44167 2.20315 2.625L0.566824 5.39167C0.464018 5.56667 0.498287 5.78333 0.66963 5.9L2.40876 7.21667C2.36592 7.46667 2.33166 7.74167 2.33166 8C2.33166 8.25833 2.34879 8.53333 2.39163 8.78333L0.652495 10.1C0.498287 10.2167 0.455451 10.4417 0.54969 10.6083L2.19458 13.375C2.29739 13.5583 2.51157 13.6167 2.70004 13.5583L4.74759 12.7583C5.17595 13.075 5.63001 13.3417 6.13547 13.5417L6.44389 15.6583C6.48672 15.8583 6.6495 16 6.85511 16H10.1449C10.3505 16 10.5218 15.8583 10.5475 15.6583L10.856 13.5417C11.3614 13.3417 11.8241 13.075 12.2438 12.7583L14.2914 13.5583C14.4799 13.625 14.694 13.5583 14.7969 13.375L16.4417 10.6083C16.5445 10.425 16.5017 10.2167 16.3389 10.1L14.6169 8.78333ZM8.5 11C6.80371 11 5.41583 9.65 5.41583 8C5.41583 6.35 6.80371 5 8.5 5C10.1963 5 11.5842 6.35 11.5842 8C11.5842 9.65 10.1963 11 8.5 11Z" fill="#58657b"/>
</svg>
