<svg width="173" height="18" viewBox="0 0 173 18" fill="none" xmlns="http://www.w3.org/2000/svg">
<g style="mix-blend-mode:luminosity">
<path d="M24.4799 4.45232C26.0353 8.16139 25.3866 11.9638 25.0364 13.682L29.1201 17.9962H35.3599L26.4444 8.68805L33.9557 0.993511C31.4863 0.80675 29.4039 1.09063 26.6139 2.27842L24.4799 4.45232V4.45232Z" fill="#BABECF"/>
<path d="M24.4799 4.45261L23.5696 5.37894L22.5781 4.3667C21.8742 4.62443 20.8275 4.88589 18.594 6.55553L20.6985 8.68834L17.6984 11.796C17.5841 11.2283 17.3998 10.7091 17.0423 10.2123C16.53 9.51009 16.0103 9.04319 15.17 8.69208C13.7547 9.19633 13.0176 10.0143 12.3653 10.9108C13.1503 11.2096 13.541 11.7662 13.541 12.6439C13.541 13.3686 13.2977 13.6935 12.8075 14.026C12.7559 14.0596 12.6896 14.0857 12.6343 14.1156C13.9869 15.0046 16.7401 16.8909 18.0227 17.989L23.5696 12.1322L25.0328 13.6823C25.6114 12.0127 26.5291 8.15794 24.4762 4.45261H24.4799Z" fill="url(#paint0_linear_1668_11792)"/>
<path d="M18.2918 0H0V9.663C0.954577 9.83108 2.34037 9.76012 4.25321 9.55094V3.44387H10.1686C11.1048 3.44387 11.8345 3.60448 12.321 3.93318C12.7854 4.26188 13.0176 4.65408 13.0176 5.31521C13.0176 5.97634 12.7891 6.45445 12.321 6.77941C11.8345 7.13052 11.1048 7.30608 10.1686 7.30608H7.63661V9.79373C9.07401 10.1859 10.0028 10.3764 11.1048 10.6752C11.5213 10.7051 11.8825 10.7686 12.192 10.862C12.2473 10.8807 12.3137 10.8919 12.3653 10.9106C13.0619 10.2121 14.0607 9.45009 15.17 8.69184C15.159 8.68811 15.1479 8.68064 15.1369 8.6769C15.6565 8.35194 16.143 7.92986 16.5042 7.42934C16.5669 7.34343 16.6332 7.25752 16.6885 7.16414C17.0313 6.55904 17.2082 5.92405 17.2598 5.19568L18.594 6.54783C20.3483 5.52812 21.9073 4.70637 22.5781 4.359L18.2918 0Z" fill="url(#paint1_linear_1668_11792)"/>
<path d="M10.5225 14.5489H9.68582C8.58751 15.6918 8.19314 16.7601 7.98306 18.0002H18.0227C18.0227 18.0002 17.0644 17.0029 15.3322 15.8525C14.3334 15.1876 13.1798 14.4779 12.6343 14.123C12.1331 14.3995 11.4328 14.5489 10.5225 14.5489Z" fill="url(#paint2_linear_1668_11792)"/>
<path d="M4.25321 14.5487V9.53232C2.52097 9.49123 0.965633 9.56967 0 9.64437V18H7.98306C8.44376 16.7413 9.06295 15.561 9.68582 14.5487H4.25321Z" fill="url(#paint3_linear_1668_11792)"/>
<path d="M7.63661 9.76025V10.6604H10.5261C10.7325 10.6604 10.9205 10.6716 11.1048 10.6829C10.176 10.2533 8.87867 9.93954 7.63661 9.76025Z" fill="url(#paint4_linear_1668_11792)"/>
<path d="M28.8511 0L26.6139 2.27848C29.544 1.24009 32.6767 1.03092 33.9557 0.993567L33.9667 0.982362L34.925 0H28.8511Z" fill="url(#paint5_linear_1668_11792)"/>
</g>
<path d="M56.5191 9.98443C56.9356 10.5559 57.1457 11.2507 57.1457 12.0612C57.1457 13.2527 56.6924 14.1716 55.7857 14.8141C54.879 15.4565 53.5743 15.7852 51.8568 15.7852H44.9205V2.22266H51.492C53.1321 2.22266 54.3778 2.53641 55.2402 3.18261C56.0953 3.81386 56.5191 4.68043 56.5191 5.76737C56.5191 6.40983 56.3754 6.99253 56.0732 7.49678C55.7673 8.01597 55.3434 8.41564 54.7906 8.71072C55.5314 8.98713 56.099 9.40547 56.5155 9.98817L56.5191 9.98443ZM48.5177 4.98298V7.59763H51.0165C52.2401 7.59763 52.8483 7.16435 52.8483 6.2903C52.8483 5.41626 52.2401 4.98298 51.0165 4.98298H48.5177ZM53.4711 11.6391C53.4711 10.724 52.8372 10.2571 51.5657 10.2571H48.5177V13.01H51.5657C52.8372 13.01 53.4711 12.558 53.4711 11.6391V11.6391Z" fill="#898D9E"/>
<path d="M58.6679 2.22266H62.3056V15.789H58.6679V2.22266Z" fill="#898D9E"/>
<path d="M67.3438 15.1428C66.2566 14.5414 65.4089 13.6973 64.7897 12.6215C64.1705 11.557 63.8646 10.3431 63.8646 9.00211C63.8646 7.66117 64.1705 6.45096 64.7897 5.37522C65.4089 4.31068 66.2566 3.46652 67.3438 2.85395C68.4274 2.25258 69.6436 1.94629 71.0036 1.94629C72.3636 1.94629 73.5799 2.25258 74.6672 2.85395C75.7507 3.46652 76.5984 4.31068 77.2176 5.37522C77.8368 6.45096 78.1427 7.6537 78.1427 9.00211C78.1427 10.3505 77.8331 11.557 77.2176 12.6215C76.5984 13.6973 75.7507 14.5414 74.6672 15.1428C73.5799 15.7554 72.3636 16.0505 71.0036 16.0505C69.6436 16.0505 68.4274 15.7554 67.3438 15.1428ZM72.7654 12.39C73.2924 12.0725 73.7015 11.6093 74.0148 11.0303C74.317 10.4402 74.4718 9.76409 74.4718 9.00585C74.4718 8.2476 74.317 7.57152 74.0148 6.98136C73.7052 6.3912 73.2924 5.93923 72.7654 5.61054C72.2346 5.29678 71.6523 5.12869 71 5.12869C70.3476 5.12869 69.769 5.29678 69.2382 5.61054C68.7186 5.93923 68.2984 6.3912 67.9888 6.98136C67.6866 7.57526 67.5281 8.23639 67.5281 9.00585C67.5281 9.7753 67.6829 10.4402 67.9888 11.0303C68.2984 11.6093 68.7186 12.0725 69.2382 12.39C69.769 12.7186 70.3513 12.8718 71 12.8718C71.6486 12.8718 72.2346 12.7149 72.7654 12.39Z" fill="#898D9E"/>
<path d="M94.3742 12.8232V15.789H84.0581V2.22266H94.1346V5.18468H87.6553V7.47437H93.3643V10.343H87.6553V12.8195H94.3742V12.8232Z" fill="#898D9E"/>
<path d="M104.631 15.7891L101.974 11.5795L99.3461 15.7891H95.1961L99.8768 8.9238L95.3914 2.22656H99.4935L102.059 6.13733L104.591 2.22656H108.52L104.042 8.77439L108.814 15.7929H104.631V15.7891Z" fill="#898D9E"/>
<path d="M118.504 2.83523C119.359 3.2349 120.019 3.81386 120.479 4.57584C120.948 5.33409 121.176 6.21934 121.176 7.24278C121.176 8.26623 120.948 9.14027 120.479 9.89105C120.015 10.6381 119.355 11.2171 118.504 11.6279C117.645 12.0276 116.635 12.2405 115.474 12.2405H113.237V15.7852H109.6V2.22266H115.474C116.639 2.22266 117.645 2.42062 118.504 2.83523ZM116.941 8.69952C117.317 8.36335 117.509 7.87777 117.509 7.24278C117.509 6.6078 117.317 6.11475 116.941 5.76737C116.562 5.42 115.994 5.24071 115.253 5.24071H113.234V9.21871H115.253C115.994 9.21871 116.558 9.05063 116.941 8.69952Z" fill="#898D9E"/>
<path d="M127.888 12.177H125.912V15.7852H122.274V2.22266H128.149C129.314 2.22266 130.32 2.42062 131.179 2.83523C132.034 3.2349 132.694 3.81386 133.158 4.57584C133.626 5.33409 133.855 6.21934 133.855 7.24278C133.855 8.26623 133.641 9.08051 133.21 9.80888C132.771 10.5335 132.144 11.105 131.345 11.5271L134.113 15.7927H130.217L127.884 12.1845L127.888 12.177ZM129.616 5.76737C129.24 5.42 128.673 5.24071 127.932 5.24071H125.912V9.21871H127.932C128.673 9.21871 129.24 9.05063 129.616 8.69952C129.992 8.36335 130.184 7.87777 130.184 7.24278C130.184 6.6078 129.988 6.11475 129.616 5.76737Z" fill="#898D9E"/>
<path d="M145.807 12.8232V15.789H135.487V2.22266H145.567V5.18468H139.088V7.47437H144.797V10.343H139.088V12.8195H145.807V12.8232Z" fill="#898D9E"/>
<path d="M148.947 15.6471C147.967 15.3744 147.171 15.0158 146.563 14.5638L147.753 11.7363C148.332 12.136 148.995 12.4534 149.758 12.7074C150.514 12.9502 151.258 13.0772 151.995 13.0772C153.392 13.0772 154.089 12.7074 154.089 11.9679C154.089 11.5794 153.893 11.2918 153.492 11.105C153.09 10.9145 152.456 10.724 151.571 10.5111C150.602 10.2908 149.802 10.0592 149.154 9.80518C148.505 9.55119 147.952 9.14778 147.48 8.59124C147.012 8.04216 146.787 7.28391 146.787 6.34637C146.787 5.52462 146.998 4.77385 147.432 4.10898C147.86 3.44785 148.494 2.91745 149.349 2.52525C150.204 2.13679 151.24 1.94629 152.482 1.94629C153.326 1.94629 154.159 2.05088 154.977 2.24137C155.791 2.44307 156.521 2.73815 157.144 3.12662L156.02 5.97285C154.796 5.2781 153.613 4.92699 152.46 4.92699C151.737 4.92699 151.21 5.04278 150.878 5.2669C150.55 5.49848 150.388 5.78235 150.388 6.15214C150.388 6.52193 150.584 6.78713 150.971 6.96268C151.365 7.14571 151.992 7.33247 152.865 7.52296C153.842 7.74708 154.656 7.97866 155.294 8.22892C155.931 8.48292 156.495 8.88258 156.963 9.43539C157.435 9.98447 157.675 10.7315 157.675 11.6728C157.675 12.4871 157.457 13.2229 157.03 13.8878C156.602 14.5414 155.957 15.0681 155.106 15.4603C154.247 15.86 153.211 16.0542 151.984 16.0542C150.941 16.0542 149.935 15.9272 148.955 15.6508L148.947 15.6471Z" fill="#898D9E"/>
<path d="M160.457 15.6471C159.477 15.3744 158.677 15.0158 158.069 14.5638L159.26 11.7363C159.838 12.136 160.505 12.4534 161.261 12.7074C162.016 12.9502 162.768 13.0772 163.502 13.0772C164.895 13.0772 165.599 12.7074 165.599 11.9679C165.599 11.5794 165.396 11.2918 164.994 11.105C164.6 10.9145 163.966 10.724 163.082 10.5111C162.112 10.2908 161.305 10.0592 160.656 9.80518C160.011 9.55119 159.455 9.14778 158.991 8.59124C158.522 8.04216 158.29 7.28391 158.29 6.34637C158.29 5.52462 158.5 4.77385 158.932 4.10898C159.359 3.44785 160 2.91745 160.852 2.52525C161.699 2.13679 162.746 1.94629 163.981 1.94629C164.825 1.94629 165.658 2.05088 166.472 2.24137C167.294 2.44307 168.017 2.73815 168.643 3.12662L167.523 5.97285C166.295 5.2781 165.109 4.92699 163.962 4.92699C163.233 4.92699 162.713 5.04278 162.381 5.2669C162.05 5.49848 161.887 5.78235 161.887 6.15214C161.887 6.52193 162.083 6.78713 162.473 6.96268C162.864 7.14571 163.494 7.33247 164.364 7.52296C165.341 7.74708 166.155 7.97866 166.793 8.22892C167.438 8.48292 167.995 8.88258 168.47 9.43539C168.938 9.98447 169.174 10.7315 169.174 11.6728C169.174 12.4871 168.96 13.2229 168.533 13.8878C168.105 14.5414 167.464 15.0681 166.609 15.4603C165.746 15.86 164.711 16.0542 163.487 16.0542C162.448 16.0542 161.438 15.9272 160.461 15.6508L160.457 15.6471Z" fill="#898D9E"/>
<defs>
<linearGradient id="paint0_linear_1668_11792" x1="9.13297" y1="15.3669" x2="28.5775" y2="8.26368" gradientUnits="userSpaceOnUse">
<stop stop-color="#7F8394"/>
<stop offset="1" stop-color="#9EA2B3"/>
</linearGradient>
<linearGradient id="paint1_linear_1668_11792" x1="-2.88216" y1="-6.72712" x2="11.3227" y2="6.55994" gradientUnits="userSpaceOnUse">
<stop stop-color="#6E7283"/>
<stop offset="1" stop-color="#484C5D"/>
</linearGradient>
<linearGradient id="paint2_linear_1668_11792" x1="12.7559" y1="12.9838" x2="13.8196" y2="34.12" gradientUnits="userSpaceOnUse">
<stop stop-color="#8E919E"/>
<stop offset="1" stop-color="#7C8091"/>
</linearGradient>
<linearGradient id="paint3_linear_1668_11792" x1="-8.70176" y1="23.9876" x2="31.9278" y2="-7.69654" gradientUnits="userSpaceOnUse">
<stop stop-color="#75798A"/>
<stop offset="1" stop-color="#6F7384"/>
</linearGradient>
<linearGradient id="paint4_linear_1668_11792" x1="-8.37005" y1="24.4285" x2="32.2744" y2="-7.26669" gradientUnits="userSpaceOnUse">
<stop stop-color="#767A8B"/>
<stop offset="1" stop-color="#737788"/>
</linearGradient>
<linearGradient id="paint5_linear_1668_11792" x1="10.3603" y1="7.33596" x2="38.248" y2="-1.49019" gradientUnits="userSpaceOnUse">
<stop stop-color="#616576"/>
<stop offset="1" stop-color="#A0A4B5"/>
</linearGradient>
</defs>
</svg>
