<svg width="100" height="124" viewBox="0 0 100 124" fill="none" xmlns="http://www.w3.org/2000/svg">
<path d="M70 10H8.29866C7.03088 10 6 10.9709 6 12.1741V121.826C6 123.025 7.0265 124 8.29866 124H97.7013C98.9691 124 100 123.029 100 121.826V38.5L71 10.95L70 10Z" fill="#DADADA"/>
<path d="M64 0H2.29866C1.03088 0 0 0.972524 0 2.17779V115.822C0 117.023 1.0265 118 2.29866 118H91.7013C92.9691 118 94 117.027 94 115.822V28.5484L65 0.951613L64 0Z" fill="#596C89"/>
<path d="M34.3854 87.3833L22.9566 75.5L34.3854 63.6167L30.907 60L16 75.5L30.907 91L34.3854 87.3833ZM60.6146 87.3833L72.0434 75.5L60.6146 63.6167L64.093 60L79 75.5L64.093 91L60.6146 87.3833Z" fill="white"/>
<path d="M53.48 55H59L41.52 95H36L53.48 55Z" fill="white"/>
<path d="M66.6704 30C66.6704 30 81.8011 30 91.4962 30H94L65.7698 1.7343L64 0V27.3263C64 28.8051 65.1979 30 66.6704 30Z" fill="#3E4E66"/>
</svg>
