<svg width="100" height="124" viewBox="0 0 100 124" fill="none" xmlns="http://www.w3.org/2000/svg">
<path d="M70 10H8.29866C7.03088 10 6 10.9709 6 12.1741V121.826C6 123.025 7.0265 124 8.29866 124H97.7013C98.9691 124 100 123.029 100 121.826V38.5L71 10.95L70 10Z" fill="#DADADA"/>
<path d="M64 0H2.29866C1.03088 0 0 0.972524 0 2.17779V115.822C0 117.023 1.0265 118 2.29866 118H91.7013C92.9691 118 94 117.027 94 115.822V28.5484L65 0.951613L64 0Z" fill="#3C8956"/>
<path d="M66.6704 30C66.6704 30 81.8011 30 91.4962 30H94L65.7698 1.7343L64 0V27.3263C64 28.8051 65.1979 30 66.6704 30Z" fill="#20753D"/>
<path fill-rule="evenodd" clip-rule="evenodd" d="M77 57V97H17V57H77ZM43.25 62.5172H24.5V69.4138H43.25V62.5172ZM50.75 69.4138V62.5172H69.5V69.4138H50.75ZM43.25 73.5517H24.5V80.4483H43.25V73.5517ZM50.75 80.4483V73.5517H69.5V80.4483H50.75ZM43.25 84.5862H24.5V91.4828H43.25V84.5862ZM50.75 91.4828V84.5862H69.5V91.4828H50.75Z" fill="white"/>
</svg>
