<svg width="100" height="124" viewBox="0 0 100 124" fill="none" xmlns="http://www.w3.org/2000/svg">
<path d="M70 10H8.29866C7.03088 10 6 10.9709 6 12.1741V121.826C6 123.025 7.0265 124 8.29866 124H97.7013C98.9691 124 100 123.029 100 121.826V38.5L71 10.95L70 10Z" fill="#DADADA"/>
<path d="M64 0H2.29866C1.03088 0 0 0.972524 0 2.17779V115.822C0 117.023 1.0265 118 2.29866 118H91.7013C92.9691 118 94 117.027 94 115.822V28.5484L65 0.951613L64 0Z" fill="#D24625"/>
<path d="M19.6093 89V66.65H27.4693C32.3593 66.65 36.4093 68.42 36.4093 73.94C36.4093 79.25 32.3293 81.59 27.5893 81.59H24.9793V89H19.6093ZM24.9793 77.36H27.3193C29.9293 77.36 31.1893 76.13 31.1893 73.94C31.1893 71.69 29.7493 70.91 27.1693 70.91H24.9793V77.36ZM40.205 89V66.65H48.065C52.955 66.65 57.005 68.42 57.005 73.94C57.005 79.25 52.925 81.59 48.185 81.59H45.575V89H40.205ZM45.575 77.36H47.915C50.525 77.36 51.785 76.13 51.785 73.94C51.785 71.69 50.345 70.91 47.765 70.91H45.575V77.36ZM64.6813 89V71.12H58.6513V66.65H76.1113V71.12H70.0513V89H64.6813Z" fill="white"/>
<path d="M66.6704 30C66.6704 30 81.8011 30 91.4962 30H94L65.7698 1.7343L64 0V27.3263C64 28.8051 65.1979 30 66.6704 30Z" fill="#B14830"/>
</svg>
