<svg width="100" height="124" viewBox="0 0 100 124" fill="none" xmlns="http://www.w3.org/2000/svg">
<path d="M70 10H8.29866C7.03088 10 6 10.9709 6 12.1741V121.826C6 123.025 7.0265 124 8.29866 124H97.7013C98.9691 124 100 123.029 100 121.826V38.5L71 10.95L70 10Z" fill="#DADADA"/>
<path d="M64 0H2.29866C1.03088 0 0 0.972524 0 2.17779V115.822C0 117.023 1.0265 118 2.29866 118H91.7013C92.9691 118 94 117.027 94 115.822V28.5484L65 0.951613L64 0Z" fill="#295396"/>
<path d="M81 59.4286H29V65.1429H81V59.4286Z" fill="white"/>
<path d="M29 73.8572H81V79.5714H29V73.8572Z" fill="white"/>
<path d="M68 88.2857H29V94H68V88.2857Z" fill="white"/>
<path d="M20.9048 93L14.6948 58.73H23.0668L25.2288 74.37C25.6888 77.958 26.1488 81.546 26.6088 85.226H26.7928C27.4368 81.546 28.1268 77.912 28.8168 74.37L32.3128 58.73H39.2588L42.8008 74.37C43.4908 77.866 44.0888 81.546 44.7788 85.226H45.0088C45.4228 81.546 45.8828 77.912 46.2968 74.37L48.5508 58.73H56.3248L50.3908 93H40.0408L36.9588 78.096C36.4068 75.474 35.9468 72.714 35.6248 70.138H35.4408C34.9808 72.714 34.5668 75.474 34.0608 78.096L31.0708 93H20.9048Z" fill="white"/>
<path fill-rule="evenodd" clip-rule="evenodd" d="M16.7296 98L8.70752 53.73H27.4234L27.7611 56.1732L28.3072 53.73H43.2533L43.844 56.3384L44.2199 53.73H62.2652L54.5996 98H35.9692L35.5623 96.0324L35.1675 98H16.7296ZM34.061 78.096C34.3646 76.5228 34.6351 74.8999 34.9022 73.2969C35.079 72.2363 35.2543 71.1845 35.4368 70.1615C35.4382 70.1537 35.4396 70.1458 35.441 70.138H35.625C35.6264 70.1492 35.6278 70.1604 35.6292 70.1716C35.951 72.738 36.4094 75.4854 36.959 78.096L40.041 93H50.391L56.325 58.73H48.551L46.297 74.37C46.1299 75.7993 45.9554 77.2435 45.7794 78.6998C45.521 80.8379 45.2595 83.0018 45.0139 85.1819C45.0123 85.1966 45.0106 85.2113 45.009 85.226H44.779C44.7773 85.2172 44.7757 85.2084 44.774 85.1996C44.4827 83.6449 44.2078 82.0903 43.9353 80.5497C43.5643 78.4523 43.1978 76.3807 42.801 74.37L39.259 58.73H32.313L28.817 74.37C28.1285 77.9044 27.4399 81.5305 26.7971 85.2025C26.7957 85.2103 26.7944 85.2181 26.793 85.226H26.609C26.6076 85.215 26.6062 85.204 26.6049 85.1931C26.1463 81.525 25.6877 77.9482 25.2292 74.3713L25.229 74.37L23.067 58.73H14.695L20.905 93H31.071L34.061 78.096Z" fill="#295396"/>
<path d="M66.6704 30C66.6704 30 81.8011 30 91.4962 30H94L65.7698 1.7343L64 0V27.3263C64 28.8051 65.1979 30 66.6704 30Z" fill="#213B64"/>
</svg>
