<svg width="162" height="158" viewBox="0 0 162 158" fill="none" xmlns="http://www.w3.org/2000/svg">
<path d="M76.1528 18.1556L16.2323 32.8726C15.0011 33.175 14.232 34.3654 14.5194 35.5358L41.626 145.9C41.9125 147.067 43.1424 147.77 44.3778 147.467L131.2 126.142C132.431 125.84 133.2 124.65 132.913 123.479L112.096 38.7243L77.3509 18.8412L76.1528 18.1556Z" fill="#3C8956"/>
<path d="M85.9018 46.6527C85.9018 46.6527 100.596 43.0437 110.011 40.7312L112.443 40.134L78.2852 19.4176L76.1528 18.1555L82.6707 44.6931C83.0235 46.1293 84.4718 47.0039 85.9018 46.6527Z" fill="#3C8956"/>
<path d="M107.587 100.021L56.1163 112.662L63.7997 88.3947L76.4367 100.254L84.1054 75.9261L107.587 100.021Z" fill="#3C8956"/>
<path d="M103 0H41.2987C40.0309 0 39 0.972524 39 2.17779V115.822C39 117.023 40.0265 118 41.2987 118H130.701C131.969 118 133 117.027 133 115.822V28.5484L104 0.951613L103 0Z" fill="#596C89"/>
<path d="M73.3854 87.3833L61.9566 75.5L73.3854 63.6167L69.907 60L55 75.5L69.907 91L73.3854 87.3833ZM99.6146 87.3833L111.043 75.5L99.6146 63.6167L103.093 60L118 75.5L103.093 91L99.6146 87.3833Z" fill="white"/>
<path d="M92.48 55H98L80.52 95H75L92.48 55Z" fill="white"/>
<path d="M105.67 30C105.67 30 120.801 30 130.496 30H133L104.77 1.7343L103 0V27.3263C103 28.8051 104.198 30 105.67 30Z" fill="#3E4E66"/>
<path d="M130.53 19.2541L66.8951 9.84469C65.5876 9.65135 64.3761 10.4971 64.1923 11.7402L46.8616 128.946C46.6784 130.185 47.5881 131.349 48.9002 131.543L141.105 145.177C142.412 145.37 143.624 144.524 143.807 143.281L156.895 54.7693L131.416 20.3881L130.53 19.2541Z" fill="#F2F2F2"/>
<path d="M128.709 50.6016C128.709 50.6016 144.314 52.909 154.313 54.3875L156.895 54.7693L132.091 21.3127L130.53 19.2542L126.363 47.4368C126.137 48.962 127.191 50.377 128.709 50.6016Z" fill="#DBDBDB"/>
<path d="M131.781 82.0701L78.1509 74.1401L77.2795 80.0335L130.909 87.9635L131.781 82.0701Z" fill="#979797"/>
<path d="M75.9505 89.0209L129.58 96.9509L128.709 102.844L75.0791 94.9143L75.9505 89.0209Z" fill="#979797"/>
<path d="M113.972 109.849L73.7502 103.902L72.8787 109.795L113.101 115.742L113.972 109.849Z" fill="#979797"/>
<g clip-path="url(#clip0_564_109)">
<path d="M106.988 134.366L31.3436 154.635C25.8259 156.113 20.154 152.839 18.6755 147.321L4.23205 93.4173C3.07391 89.095 5.63838 84.6533 9.96063 83.4951L32.2518 77.5222C33.4088 77.2122 34.6218 77.1758 35.7951 77.4162L52.0838 80.7491L89.9061 70.6147C95.4238 69.1362 101.096 72.4109 102.574 77.9286L114.302 121.698C115.781 127.216 112.506 132.888 106.988 134.366Z" fill="#FFB700"/>
<path d="M104.853 126.397L29.2084 146.666C23.6907 148.145 18.0187 144.87 16.5403 139.352L2.0968 85.4484C0.938657 81.1262 3.50313 76.6844 7.82537 75.5262L30.1165 69.5533C31.2735 69.2433 32.4866 69.2069 33.6598 69.4474L49.9485 72.7803L87.7708 62.6458C93.2885 61.1673 98.9605 64.442 100.439 69.9597L112.167 113.729C113.645 119.247 110.371 124.919 104.853 126.397Z" fill="#FFB700"/>
<path d="M89.1942 67.9582L13.5496 88.2271C8.03174 89.7056 4.75717 95.3773 6.23568 100.895L17.9635 144.664C19.442 150.182 25.1137 153.456 30.6316 151.978L106.276 131.709C111.794 130.23 115.069 124.559 113.59 119.041L101.862 75.2721C100.384 69.7542 94.7121 66.4797 89.1942 67.9582Z" fill="url(#paint0_linear_564_109)"/>
</g>
<defs>
<linearGradient id="paint0_linear_564_109" x1="51.611" y1="80.2943" x2="76.712" y2="170.016" gradientUnits="userSpaceOnUse">
<stop offset="0.24" stop-color="#FFDA6B"/>
<stop offset="0.91" stop-color="#F8C155"/>
</linearGradient>
<clipPath id="clip0_564_109">
<rect width="99" height="82.5" fill="white" transform="translate(0 77.623) rotate(-15)"/>
</clipPath>
</defs>
</svg>
