<svg width="24" height="20" viewBox="0 0 24 20" fill="none" xmlns="http://www.w3.org/2000/svg">
<g clip-path="url(#clip0_1662_9089)">
<path d="M21.4925 20H2.50751C1.1227 20 0 18.8773 0 17.4925V3.96398C0 2.8792 0.879201 2 1.96398 2H7.55853C7.8489 2 8.13524 2.06759 8.39489 2.1975L12 3.99996H21.4925C22.8773 3.99996 24 5.12266 24 6.50747V17.4925C24 18.8773 22.8773 20 21.4925 20Z" fill="#FFB700"/>
<path d="M21.4925 18H2.50751C1.1227 18 0 16.8773 0 15.4925V1.96398C0 0.879198 0.879201 0 1.96398 0H7.55853C7.8489 0 8.13524 0.0675901 8.39489 0.197504L12 1.99996H21.4925C22.8773 1.99996 24 3.12266 24 4.50747V15.4925C24 16.8773 22.8773 18 21.4925 18Z" fill="#FFB700"/>
<path d="M21.4925 3.33301H2.50751C1.12265 3.33301 0 4.45566 0 5.84051V16.8254C0 18.2103 1.12265 19.3329 2.50751 19.3329H21.4925C22.8773 19.3329 24 18.2103 24 16.8254V5.84051C24 4.45566 22.8773 3.33301 21.4925 3.33301Z" fill="#FBFBFB"/>
<path d="M21.4925 3.3335H2.50751C1.12265 3.3335 0 4.45615 0 5.84102V16.826C0 18.2108 1.12265 19.3335 2.50751 19.3335H21.4925C22.8773 19.3335 24 18.2108 24 16.826V5.84102C24 4.45615 22.8773 3.3335 21.4925 3.3335Z" fill="url(#paint0_linear_1662_9089)"/>
<rect x="18" y="4.33008" width="1" height="1" fill="#798A92"/>
<rect x="16" y="5.33008" width="1" height="1" fill="#798A92"/>
<rect x="18" y="6.33008" width="1" height="1" fill="#798A92"/>
<rect x="16" y="7.33008" width="1" height="1" fill="#798A92"/>
<rect x="18" y="8.33008" width="1" height="1" fill="#798A92"/>
<rect x="16" y="9.33008" width="1" height="1" fill="#798A92"/>
<rect x="18" y="10.3301" width="1" height="1" fill="#798A92"/>
<rect x="16" y="11.3301" width="1" height="1" fill="#798A92"/>
<rect x="18" y="12.3301" width="1" height="1" fill="#798A92"/>
<rect x="16" y="13.3301" width="1" height="1" fill="#798A92"/>
<rect x="17" y="3.33008" width="1" height="13" fill="#B0BEC5"/>
<path d="M16 15H19V17C19 17.5523 18.5523 18 18 18H17C16.4477 18 16 17.5523 16 17V15Z" fill="#798A92"/>
</g>
<defs>
<linearGradient id="paint0_linear_1662_9089" x1="11.9178" y1="3.86404" x2="12.1661" y2="26.4488" gradientUnits="userSpaceOnUse">
<stop offset="0.24" stop-color="#FFDA6B"/>
<stop offset="0.91" stop-color="#F8C155"/>
</linearGradient>
<clipPath id="clip0_1662_9089">
<rect width="24" height="20" fill="white"/>
</clipPath>
</defs>
</svg>
