<svg width="100" height="124" viewBox="0 0 100 124" fill="none" xmlns="http://www.w3.org/2000/svg">
<path d="M70 10H8.29866C7.03088 10 6 10.9709 6 12.1741V121.826C6 123.025 7.0265 124 8.29866 124H97.7013C98.9691 124 100 123.029 100 121.826V38.5L71 10.95L70 10Z" fill="#DADADA"/>
<path d="M64 0H2.29866C1.03088 0 0 0.972524 0 2.17779V115.822C0 117.023 1.0265 118 2.29866 118H91.7013C92.9691 118 94 117.027 94 115.822V28.5484L65 0.951613L64 0Z" fill="#F69A14"/>
<path d="M40.3635 77.84L39.8835 79.73H44.4435L43.9635 77.84C43.3635 75.62 42.7935 72.95 42.1935 70.67H42.0735C41.5335 73.01 40.9335 75.62 40.3635 77.84ZM32.1135 89L39.0435 66.65H45.4635L52.3935 89H46.7535L45.4635 83.87H38.8635L37.5735 89H32.1135ZM54.7382 89V66.65H60.1082V89H54.7382Z" fill="white"/>
<path d="M66.6704 30C66.6704 30 81.8011 30 91.4962 30H94L65.7698 1.7343L64 0V27.3263C64 28.8051 65.1979 30 66.6704 30Z" fill="#C6821F"/>
</svg>
