<svg width="100" height="124" viewBox="0 0 100 124" fill="none" xmlns="http://www.w3.org/2000/svg">
<path d="M70 10H8.29866C7.03088 10 6 10.9709 6 12.1741V121.826C6 123.025 7.0265 124 8.29866 124H97.7013C98.9691 124 100 123.029 100 121.826V38.5L71 10.95L70 10Z" fill="#DADADA"/>
<path d="M64 0H2.29866C1.03088 0 0 0.972524 0 2.17779V115.822C0 117.023 1.0265 118 2.29866 118H91.7013C92.9691 118 94 117.027 94 115.822V28.5484L65 0.951613L64 0Z" fill="#DD2E1B"/>
<path d="M19.8017 89V66.65H27.6617C32.5517 66.65 36.6017 68.42 36.6017 73.94C36.6017 79.25 32.5217 81.59 27.7817 81.59H25.1717V89H19.8017ZM25.1717 77.36H27.5117C30.1217 77.36 31.3817 76.13 31.3817 73.94C31.3817 71.69 29.9417 70.91 27.3617 70.91H25.1717V77.36ZM40.3974 89V66.65H46.8174C53.6274 66.65 58.1274 69.95 58.1274 77.72C58.1274 85.49 53.6274 89 47.1174 89H40.3974ZM45.7674 84.68H46.4874C50.0874 84.68 52.6374 83.03 52.6374 77.72C52.6374 72.41 50.0874 70.94 46.4874 70.94H45.7674V84.68ZM62.2529 89V66.65H76.5029V71.12H67.6229V76.01H75.2429V80.48H67.6229V89H62.2529Z" fill="white"/>
<path d="M66.6704 30C66.6704 30 81.8011 30 91.4962 30H94L65.7698 1.7343L64 0V27.3263C64 28.8051 65.1979 30 66.6704 30Z" fill="#B13527"/>
</svg>
