<svg width="100" height="124" viewBox="0 0 100 124" fill="none" xmlns="http://www.w3.org/2000/svg">
<path d="M70 10H8.29866C7.03088 10 6 10.9709 6 12.1741V121.826C6 123.025 7.0265 124 8.29866 124H97.7013C98.9691 124 100 123.029 100 121.826V38.5L71 10.95L70 10Z" fill="#DADADA"/>
<path d="M64 0H2.29866C1.03088 0 0 0.972524 0 2.17779V115.822C0 117.023 1.0265 118 2.29866 118H91.7013C92.9691 118 94 117.027 94 115.822V28.5484L65 0.951613L64 0Z" fill="#31A8FF"/>
<path d="M18.9501 89V66.65H26.8101C31.7001 66.65 35.7501 68.42 35.7501 73.94C35.7501 79.25 31.6701 81.59 26.9301 81.59H24.3201V89H18.9501ZM24.3201 77.36H26.6601C29.2701 77.36 30.5301 76.13 30.5301 73.94C30.5301 71.69 29.0901 70.91 26.5101 70.91H24.3201V77.36ZM46.1243 89.42C43.2143 89.42 40.0943 88.34 37.7843 86.21L40.8443 82.52C42.4043 83.87 44.4743 84.8 46.2443 84.8C48.2243 84.8 49.1543 84.05 49.1543 82.85C49.1543 81.56 47.9243 81.14 46.0043 80.33L43.1543 79.13C40.8143 78.2 38.6243 76.25 38.6243 73.01C38.6243 69.26 41.9843 66.26 46.7243 66.26C49.3043 66.26 52.0343 67.25 53.9843 69.2L51.3143 72.56C49.8443 71.45 48.4643 70.85 46.7243 70.85C45.0743 70.85 44.0843 71.51 44.0843 72.68C44.0843 73.94 45.4643 74.42 47.4443 75.2L50.2343 76.31C52.9943 77.42 54.6443 79.28 54.6443 82.43C54.6443 86.15 51.5243 89.42 46.1243 89.42ZM58.3544 89V66.65H64.7744C71.5844 66.65 76.0844 69.95 76.0844 77.72C76.0844 85.49 71.5844 89 65.0744 89H58.3544ZM63.7244 84.68H64.4444C68.0444 84.68 70.5944 83.03 70.5944 77.72C70.5944 72.41 68.0444 70.94 64.4444 70.94H63.7244V84.68Z" fill="white"/>
<path d="M66.6704 30C66.6704 30 81.8011 30 91.4962 30H94L65.7698 1.7343L64 0V27.3263C64 28.8051 65.1979 30 66.6704 30Z" fill="#2880C1"/>
</svg>
