<svg width="100" height="124" viewBox="0 0 100 124" fill="none" xmlns="http://www.w3.org/2000/svg">
<path d="M70 10H8.29866C7.03088 10 6 10.9709 6 12.1741V121.826C6 123.025 7.0265 124 8.29866 124H97.7013C98.9691 124 100 123.029 100 121.826V38.5L71 10.95L70 10Z" fill="#DADADA"/>
<path d="M64 0H2.29866C1.03088 0 0 0.972524 0 2.17779V115.822C0 117.023 1.0265 118 2.29866 118H91.7013C92.9691 118 94 117.027 94 115.822V28.5484L65 0.951613L64 0Z" fill="#EE3E2C"/>
<path d="M66.6704 30C66.6704 30 81.8011 30 91.4962 30H94L65.7698 1.7343L64 0V27.3263C64 28.8051 65.1979 30 66.6704 30Z" fill="#D32F2F"/>
<path d="M60.8889 68.375V58.75C60.8889 57.2375 59.6389 56 58.1111 56H24.7778C23.25 56 22 57.2375 22 58.75V86.25C22 87.7625 23.25 89 24.7778 89H58.1111C59.6389 89 60.8889 87.7625 60.8889 86.25V76.625L72 87.625V57.375L60.8889 68.375Z" fill="white"/>
</svg>
