<svg width="582" height="123" viewBox="0 0 582 123" fill="none" xmlns="http://www.w3.org/2000/svg">
<g clip-path="url(#clip0_230_2749)">
<path d="M252.057 59.4964H274.248V97.8844C269.178 101.687 263.344 104.597 256.745 106.614C250.146 108.656 243.547 109.651 236.948 109.651C227.649 109.651 219.266 107.584 211.827 103.5C204.387 99.4158 198.553 93.673 194.323 86.3476C190.094 79.0222 187.979 70.7269 187.979 61.4617C187.979 52.1965 190.094 43.9012 194.323 36.5758C198.553 29.2249 204.438 23.5331 211.954 19.4237C219.47 15.3144 227.98 13.2725 237.458 13.2725C245.738 13.2725 253.178 14.7273 259.777 17.6371C266.376 20.5468 271.879 24.7327 276.287 30.2204L260.286 45.305C254.274 38.4136 247.089 34.9934 238.732 34.9934C231.114 34.9934 224.999 37.3926 220.336 42.2166C215.699 47.0151 213.355 53.4472 213.355 61.4872C213.355 66.592 214.4 71.1608 216.54 75.1936C218.655 79.2009 221.61 82.3403 225.407 84.5864C229.203 86.8325 233.56 87.9811 238.477 87.9811C243.394 87.9811 247.828 86.9602 252.057 84.9438V59.5219V59.4964Z" fill="#4D4D4F"/>
<path d="M366.327 67.9959C369.104 71.7989 370.505 76.4188 370.505 81.8299C370.505 89.7168 367.473 95.817 361.384 100.079C355.32 104.368 346.53 106.512 335.014 106.512H288.44V16.4885H332.543C343.549 16.4885 351.932 18.607 357.69 22.844C363.448 27.0809 366.327 32.7983 366.327 39.9961C366.327 44.2841 365.308 48.1127 363.295 51.5074C361.282 54.9021 358.429 57.5821 354.734 59.5474C359.652 61.3596 363.524 64.1417 366.327 67.9703V67.9959ZM312.593 34.8913V52.2476H329.358C337.562 52.2476 341.689 49.3378 341.689 43.4929C341.689 37.6479 337.587 34.8913 329.358 34.8913H312.593ZM345.868 78.9967C345.868 72.8965 341.588 69.8591 333.052 69.8591H312.593V88.1088H333.052C341.588 88.1088 345.868 85.0714 345.868 78.9967Z" fill="#4D4D4F"/>
<path d="M399.653 102.275C392.366 98.2418 386.684 92.6775 382.531 85.5564C378.378 78.4352 376.314 70.4462 376.314 61.5128C376.314 52.5794 378.404 44.5904 382.531 37.4692C386.684 30.348 392.391 24.7838 399.653 20.751C406.914 16.7437 415.118 14.7018 424.239 14.7018C433.36 14.7018 441.564 16.7182 448.826 20.751C456.112 24.7838 461.819 30.348 465.947 37.4692C470.1 44.5649 472.189 52.5794 472.189 61.5128C472.189 70.4462 470.1 78.4352 465.947 85.5564C461.794 92.6775 456.087 98.2418 448.826 102.275C441.564 106.307 433.36 108.298 424.239 108.298C415.118 108.298 406.939 106.307 399.653 102.275ZM436.061 83.9994C439.577 81.8554 442.38 78.8436 444.443 74.9384C446.507 71.0332 447.526 66.5665 447.526 61.5128C447.526 56.459 446.507 51.9668 444.443 48.0616C442.405 44.182 439.602 41.1446 436.061 39.0006C432.519 36.8566 428.57 35.8101 424.214 35.8101C419.857 35.8101 415.908 36.8566 412.392 39.0006C408.85 41.1446 406.073 44.182 404.009 48.0616C401.971 51.9668 400.926 56.459 400.926 61.5128C400.926 66.5665 401.946 71.0332 404.009 74.9384C406.073 78.8436 408.85 81.8554 412.392 83.9994C415.908 86.1434 419.857 87.2154 424.214 87.2154C428.57 87.2154 432.519 86.1434 436.061 83.9994Z" fill="#4D4D4F"/>
<path d="M533.897 106.512L516.037 78.6138L498.432 106.512H470.584L501.999 60.9768L471.934 16.4885H499.4L516.649 42.4464L533.668 16.4885H560.038L529.974 59.9558L562 106.512H533.897Z" fill="#4D4D4F"/>
<path d="M84.2574 95.6128C84.1298 97.5526 83.9767 99.3903 83.798 101.151C83.9767 99.3138 84.1298 97.5016 84.2574 95.6128Z" fill="url(#paint0_linear_230_2749)"/>
<path d="M83.9509 74.3513C83.7471 72.1563 83.5433 69.9867 83.212 67.7661C83.5178 70.0123 83.7726 72.2073 83.9509 74.3513Z" fill="url(#paint1_linear_230_2749)"/>
<path d="M28.2809 0C30.8287 4.74746 37.4531 14.0892 51.6445 27.3872H122.856V0H28.2809Z" fill="url(#paint2_linear_230_2749)"/>
<path d="M49.8609 123H49.9119C49.6571 122.796 49.4023 122.592 49.173 122.362C49.4023 122.592 49.6316 122.77 49.8609 123Z" fill="url(#paint3_linear_230_2749)"/>
<path d="M78.2183 47.8064C79.1864 53.5238 80.1546 60.8747 81.1483 67.5109C81.4795 69.7315 83.7216 72.1563 83.9254 74.3513C83.9254 74.581 83.9763 74.8363 84.0018 75.0915C84.0018 75.117 84.0018 75.1681 84.0018 75.1936H95.4925V95.6128H84.2056C82.9827 97.1698 82.04 102.555 81.8362 104.393C81.7343 105.388 81.6323 106.409 81.5049 107.354C80.6896 114.118 80.0527 117.002 80.0782 123H122.805V47.8064H78.1673H78.2183Z" fill="url(#paint4_linear_230_2749)"/>
<path d="M83.7731 101.151C83.671 102.147 83.569 103.142 83.4413 104.112C83.569 103.168 83.671 102.147 83.7731 101.151Z" fill="url(#paint5_linear_230_2749)"/>
<path d="M84.002 75.0915C84.002 74.8618 83.9509 74.6066 83.9254 74.3513C83.9254 74.581 83.9765 74.8363 84.002 75.0915Z" fill="url(#paint6_linear_230_2749)"/>
<path d="M84.0019 75.0915C84.0019 74.8618 83.4923 70.0122 83.1866 67.7661C82.1929 61.1044 80.5623 54.4171 78.1928 47.8064H56.5108V75.1936H84.0019C84.0019 75.1936 84.0019 75.117 84.0019 75.0915Z" fill="url(#paint7_linear_230_2749)"/>
<path d="M49.173 122.362C41.504 112.433 10.7518 94.2856 -5.77308e-05 94.1835C-0.0510143 94.26 -5.77308e-05 123 -5.77308e-05 123H49.8354C49.6061 122.796 49.3259 122.617 49.1475 122.362H49.173Z" fill="url(#paint8_linear_230_2749)"/>
<path d="M28.2809 0H0V84.7396C1.14652 84.9438 6.39504 86.7815 6.47148 86.807C13.7837 78.5628 22.6247 71.4671 27.3637 66.1837V27.3872H51.619C41.8098 13.1448 33.7077 4.72193 28.2809 0Z" fill="url(#paint9_linear_230_2749)"/>
<path d="M27.3891 95.6128V66.1837C22.5483 70.1909 13.9876 77.6694 6.64983 85.9137C6.5734 85.9137 6.49696 85.9137 6.42053 85.8626C6.2167 86.1179 6.01287 86.3731 5.80905 86.6283C5.17209 87.3941 4.53514 88.1853 3.89818 88.951C2.77714 90.3038 1.65609 91.631 0.560526 93.0604C0.560526 93.0604 0.738874 93.137 0.78983 93.1625C0.560526 93.4943 0.254787 93.8006 0.0254824 94.1324C0.0509606 94.1324 4.11831e-06 94.1579 0.0254824 94.1579C5.14661 96.0212 11.8219 98.6757 18.8539 102.121C29.0707 107.124 40.1792 113.837 49.1731 122.362C49.4278 122.566 49.6826 122.77 49.9119 123H80.1546C81.505 117.257 82.6515 110.876 83.4668 104.112C83.5687 103.142 83.6961 102.147 83.798 101.151C83.9764 99.3648 84.1292 97.5526 84.2566 95.6128H27.3891Z" fill="url(#paint10_linear_230_2749)"/>
<path d="M0 84.2291V96.0467C1.80896 92.116 6.47148 86.0413 6.67531 85.7861C5.68165 85.5819 1.14652 84.4333 0 84.2291Z" fill="url(#paint11_linear_230_2749)"/>
</g>
<defs>
<linearGradient id="paint0_linear_230_2749" x1="83.7725" y1="98.3949" x2="84.2574" y2="98.3949" gradientUnits="userSpaceOnUse">
<stop stop-color="#008100"/>
<stop offset="0.21" stop-color="#29BC26"/>
<stop offset="0.41" stop-color="#1FC936"/>
<stop offset="0.6" stop-color="#06CE6C"/>
<stop offset="0.82" stop-color="#42E09F"/>
<stop offset="1" stop-color="#00E9BB"/>
</linearGradient>
<linearGradient id="paint1_linear_230_2749" x1="83.212" y1="71.0587" x2="83.9509" y2="71.0587" gradientUnits="userSpaceOnUse">
<stop stop-color="#008100"/>
<stop offset="0.21" stop-color="#29BC26"/>
<stop offset="0.41" stop-color="#1FC936"/>
<stop offset="0.6" stop-color="#06CE6C"/>
<stop offset="0.82" stop-color="#42E09F"/>
<stop offset="1" stop-color="#00E9BB"/>
</linearGradient>
<linearGradient id="paint2_linear_230_2749" x1="-46.6507" y1="-39.9705" x2="169.869" y2="46.4923" gradientUnits="userSpaceOnUse">
<stop stop-color="#008100"/>
<stop offset="0.21" stop-color="#29BC26"/>
<stop offset="0.41" stop-color="#1FC936"/>
<stop offset="0.6" stop-color="#06CE6C"/>
<stop offset="0.82" stop-color="#42E09F"/>
<stop offset="1" stop-color="#00E9BB"/>
</linearGradient>
<linearGradient id="paint3_linear_230_2749" x1="49.173" y1="122.694" x2="49.9119" y2="122.694" gradientUnits="userSpaceOnUse">
<stop stop-color="#008100"/>
<stop offset="0.21" stop-color="#29BC26"/>
<stop offset="0.41" stop-color="#1FC936"/>
<stop offset="0.6" stop-color="#06CE6C"/>
<stop offset="0.82" stop-color="#42E09F"/>
<stop offset="1" stop-color="#00E9BB"/>
</linearGradient>
<linearGradient id="paint4_linear_230_2749" x1="-172.641" y1="66.4389" x2="170.557" y2="90.0917" gradientUnits="userSpaceOnUse">
<stop stop-color="#008100"/>
<stop offset="0.21" stop-color="#29BC26"/>
<stop offset="0.41" stop-color="#1FC936"/>
<stop offset="0.6" stop-color="#06CE6C"/>
<stop offset="0.82" stop-color="#42E09F"/>
<stop offset="1" stop-color="#00E9BB"/>
</linearGradient>
<linearGradient id="paint5_linear_230_2749" x1="83.4669" y1="102.632" x2="83.7731" y2="102.632" gradientUnits="userSpaceOnUse">
<stop stop-color="#008100"/>
<stop offset="0.21" stop-color="#29BC26"/>
<stop offset="0.41" stop-color="#1FC936"/>
<stop offset="0.6" stop-color="#06CE6C"/>
<stop offset="0.82" stop-color="#42E09F"/>
<stop offset="1" stop-color="#00E9BB"/>
</linearGradient>
<linearGradient id="paint6_linear_230_2749" x1="83.9509" y1="74.7342" x2="84.002" y2="74.7342" gradientUnits="userSpaceOnUse">
<stop stop-color="#008100"/>
<stop offset="0.21" stop-color="#29BC26"/>
<stop offset="0.41" stop-color="#1FC936"/>
<stop offset="0.6" stop-color="#06CE6C"/>
<stop offset="0.82" stop-color="#42E09F"/>
<stop offset="1" stop-color="#00E9BB"/>
</linearGradient>
<linearGradient id="paint7_linear_230_2749" x1="-41.6824" y1="60.6705" x2="367.473" y2="63.7478" gradientUnits="userSpaceOnUse">
<stop stop-color="#008100"/>
<stop offset="0.21" stop-color="#29BC26"/>
<stop offset="0.41" stop-color="#1FC936"/>
<stop offset="0.6" stop-color="#06CE6C"/>
<stop offset="0.82" stop-color="#42E09F"/>
<stop offset="1" stop-color="#00E9BB"/>
</linearGradient>
<linearGradient id="paint8_linear_230_2749" x1="-4.50971" y1="108.451" x2="1161.1" y2="145.481" gradientUnits="userSpaceOnUse">
<stop stop-color="#008100"/>
<stop offset="0.21" stop-color="#29BC26"/>
<stop offset="0.41" stop-color="#1FC936"/>
<stop offset="0.6" stop-color="#06CE6C"/>
<stop offset="0.82" stop-color="#42E09F"/>
<stop offset="1" stop-color="#00E9BB"/>
</linearGradient>
<linearGradient id="paint9_linear_230_2749" x1="-89.7854" y1="67.1536" x2="767.847" y2="-150.979" gradientUnits="userSpaceOnUse">
<stop stop-color="#008100"/>
<stop offset="0.21" stop-color="#29BC26"/>
<stop offset="0.41" stop-color="#1FC936"/>
<stop offset="0.6" stop-color="#06CE6C"/>
<stop offset="0.82" stop-color="#42E09F"/>
<stop offset="1" stop-color="#00E9BB"/>
</linearGradient>
<linearGradient id="paint10_linear_230_2749" x1="-100.308" y1="93.5198" x2="435.577" y2="97.6399" gradientUnits="userSpaceOnUse">
<stop stop-color="#008100"/>
<stop offset="0.21" stop-color="#29BC26"/>
<stop offset="0.41" stop-color="#1FC936"/>
<stop offset="0.6" stop-color="#06CE6C"/>
<stop offset="0.82" stop-color="#42E09F"/>
<stop offset="1" stop-color="#00E9BB"/>
</linearGradient>
<linearGradient id="paint11_linear_230_2749" x1="-47.7208" y1="46.1473" x2="16.1758" y2="101.906" gradientUnits="userSpaceOnUse">
<stop stop-color="#008100"/>
<stop offset="0.21" stop-color="#29BC26"/>
<stop offset="0.41" stop-color="#1FC936"/>
<stop offset="0.6" stop-color="#06CE6C"/>
<stop offset="0.82" stop-color="#42E09F"/>
<stop offset="1" stop-color="#00E9BB"/>
</linearGradient>
<clipPath id="clip0_230_2749">
<rect width="582" height="123" fill="white"/>
</clipPath>
</defs>
</svg>
