<svg width="61" height="46" viewBox="0 0 61 46" fill="none" xmlns="http://www.w3.org/2000/svg">
<path d="M32.6452 45.9502V33.0931H41.2172L30.5021 20.2359L19.7871 33.0931H28.3591V45.9502H17.6441V45.8431C17.2841 45.8645 16.9412 45.9502 16.5726 45.9502C12.3099 45.9502 8.22174 44.257 5.20755 41.243C2.19336 38.229 0.5 34.1412 0.5 29.8788C0.5 21.6331 6.73616 14.9131 14.7382 13.9916C15.4397 10.3243 17.3974 7.01606 20.2744 4.63591C23.1515 2.25575 26.7681 0.952458 30.5021 0.950195C34.2367 0.952285 37.8539 2.25542 40.7317 4.63552C43.6094 7.01563 45.5679 10.324 46.2704 13.9916C54.2724 14.9131 60.5 21.6331 60.5 29.8788C60.5 34.1412 58.8066 38.229 55.7925 41.243C52.7783 44.257 48.6901 45.9502 44.4274 45.9502C44.0674 45.9502 43.7202 45.8645 43.3559 45.8431V45.9502H32.6452Z" fill="#266FD5"/>
</svg>
