<svg width="58" height="58" viewBox="0 0 58 58" fill="none" xmlns="http://www.w3.org/2000/svg">
<path d="M47.7764 41.7669C47.0741 37.5075 43.2905 34.4546 38.9801 34.6641C34.6698 34.8737 31.2033 38.2891 30.9258 42.5938C22.2315 42.322 19.1446 40.2886 19.6487 36.1538C19.8356 34.6075 20.7701 33.7805 22.4864 33.3784C23.5285 33.1348 24.684 33.1009 25.7319 33.1971C25.8281 33.2085 25.9301 33.2141 26.0264 33.2255C26.6664 33.3784 27.3178 33.5087 27.9692 33.6106C29.9006 33.9278 31.866 34.0864 33.7352 33.9844C38.9914 33.7012 42.5711 31.3846 42.7524 26.4682C42.928 21.7048 39.6541 18.329 34.3752 16.069C32.6817 15.344 30.8862 14.7833 29.0906 14.3585C28.2807 14.1659 27.601 14.0356 27.0969 13.9507C26.6494 9.65163 23.0471 6.37214 18.7254 6.33816C14.4037 6.30417 10.7448 9.5157 10.2237 13.8091C9.70256 18.1024 12.4893 22.0956 16.692 23.0925C20.8948 24.0893 25.1824 21.7727 26.6438 17.7059C27.1762 17.8022 27.703 17.9098 28.2297 18.0344C29.827 18.4083 31.4242 18.9067 32.8969 19.5411C36.9014 21.2516 39.0877 23.5116 38.9858 26.3323C38.8951 28.8585 37.0826 30.0253 33.5369 30.2178C31.9793 30.3028 30.2744 30.1669 28.5922 29.8893C28.1221 29.81 27.6916 29.7307 27.3121 29.6458C27.0912 29.6005 26.9383 29.5608 26.8703 29.5438L26.6948 29.5098C26.5701 29.4928 26.3606 29.4645 26.0887 29.4362C24.6727 29.3059 23.1377 29.3512 21.6424 29.6968C18.5158 30.4274 16.3239 32.3702 15.916 35.6893C15.0268 42.8374 20.368 46.1509 31.5489 46.3887C33.1971 50.3762 37.5754 52.5003 41.7215 51.3165C45.8733 50.1327 48.4787 46.0262 47.7764 41.7669V41.7669ZM18.6405 19.5524C16.035 19.5524 13.9223 17.4397 13.9223 14.8343C13.9223 12.2288 16.035 10.1161 18.6405 10.1161C21.2459 10.1161 23.3586 12.2288 23.3586 14.8343C23.3586 17.4397 21.2459 19.5524 18.6405 19.5524ZM39.3992 47.8614C36.7938 47.8614 34.6811 45.7487 34.6811 43.1432C34.6811 40.5378 36.7938 38.4251 39.3992 38.4251C42.0047 38.4251 44.1174 40.5378 44.1174 43.1432C44.1174 45.7487 42.0047 47.8614 39.3992 47.8614Z" fill="white"/>
</svg>
